<svg width="207" height="67" viewBox="0 0 207 67" fill="none" xmlns="http://www.w3.org/2000/svg">
<path d="M130.87 21.3225V24.5325H121.255V30.5475H128.83V33.6525H121.255V39.7875H130.87V43.0125H117.19V21.3225H130.87Z" fill="white"/>
<path d="M137.8 35.0776L132.745 27.6226H136.315C136.585 27.6226 136.785 27.6601 136.915 27.7351C137.045 27.8101 137.16 27.9326 137.26 28.1026L140.485 33.2476C140.535 33.0776 140.598 32.9076 140.673 32.7376C140.748 32.5676 140.84 32.3976 140.95 32.2276L143.545 28.1776C143.665 27.9876 143.79 27.8476 143.92 27.7576C144.05 27.6676 144.21 27.6226 144.4 27.6226H147.805L142.735 34.9126L148.015 43.0126H144.445C144.175 43.0126 143.958 42.9426 143.793 42.8026C143.628 42.6626 143.49 42.5026 143.38 42.3226L140.11 36.9676C140.02 37.3276 139.895 37.6276 139.735 37.8676L136.855 42.3226C136.745 42.4926 136.61 42.6501 136.45 42.7951C136.29 42.9401 136.09 43.0126 135.85 43.0126H132.535L137.8 35.0776Z" fill="white"/>
<path fill-rule="evenodd" clip-rule="evenodd" d="M150.355 27.6224V48.0374H154.06V41.7374C154.54 42.2074 155.083 42.5749 155.688 42.8399C156.293 43.1049 157.03 43.2374 157.9 43.2374C158.91 43.2374 159.823 43.0349 160.638 42.6299C161.453 42.2249 162.148 41.6624 162.723 40.9424C163.298 40.2224 163.74 39.3724 164.05 38.3924C164.36 37.4124 164.515 36.3474 164.515 35.1974C164.515 33.9374 164.378 32.8199 164.103 31.8449C163.828 30.8699 163.438 30.0499 162.933 29.3849C162.428 28.7199 161.828 28.2124 161.133 27.8624C160.438 27.5124 159.67 27.3374 158.83 27.3374C157.75 27.3374 156.808 27.5574 156.003 27.9974C155.198 28.4374 154.485 29.0124 153.865 29.7224L153.565 28.2974C153.515 28.0674 153.405 27.8974 153.235 27.7874C153.065 27.6774 152.86 27.6224 152.62 27.6224H150.355ZM155.583 30.7499C156.128 30.4249 156.785 30.2624 157.555 30.2624C158.045 30.2624 158.483 30.3524 158.868 30.5324C159.253 30.7124 159.58 30.9974 159.85 31.3874C160.12 31.7774 160.328 32.2849 160.473 32.9099C160.618 33.5349 160.69 34.2974 160.69 35.1974C160.69 36.0874 160.605 36.8599 160.435 37.5149C160.265 38.1699 160.023 38.7124 159.708 39.1424C159.393 39.5724 159.008 39.8924 158.553 40.1024C158.098 40.3124 157.59 40.4174 157.03 40.4174C156.46 40.4174 155.928 40.3149 155.433 40.1099C154.938 39.9049 154.48 39.5424 154.06 39.0224V32.1224C154.53 31.5324 155.038 31.0749 155.583 30.7499Z" fill="white"/>
<path fill-rule="evenodd" clip-rule="evenodd" d="M177.018 27.9376C176.083 27.5676 175.04 27.3826 173.89 27.3826C172.74 27.3826 171.695 27.5676 170.755 27.9376C169.815 28.3076 169.013 28.8326 168.348 29.5126C167.683 30.1926 167.168 31.0226 166.803 32.0026C166.438 32.9826 166.255 34.0776 166.255 35.2876C166.255 36.5076 166.438 37.6076 166.803 38.5876C167.168 39.5676 167.683 40.4026 168.348 41.0926C169.013 41.7826 169.815 42.3126 170.755 42.6826C171.695 43.0526 172.74 43.2376 173.89 43.2376C175.04 43.2376 176.083 43.0526 177.018 42.6826C177.953 42.3126 178.75 41.7826 179.41 41.0926C180.07 40.4026 180.58 39.5676 180.94 38.5876C181.3 37.6076 181.48 36.5076 181.48 35.2876C181.48 34.0776 181.3 32.9826 180.94 32.0026C180.58 31.0226 180.07 30.1926 179.41 29.5126C178.75 28.8326 177.953 28.3076 177.018 27.9376ZM176.733 39.0976C176.118 39.9576 175.17 40.3876 173.89 40.3876C172.59 40.3876 171.63 39.9551 171.01 39.0901C170.39 38.2251 170.08 36.9676 170.08 35.3176C170.08 33.6676 170.39 32.4051 171.01 31.5301C171.63 30.6551 172.59 30.2176 173.89 30.2176C175.17 30.2176 176.118 30.6526 176.733 31.5226C177.348 32.3926 177.655 33.6576 177.655 35.3176C177.655 36.9776 177.348 38.2376 176.733 39.0976Z" fill="white"/>
<path d="M184.375 43.0124V27.6224H186.55C186.93 27.6224 187.195 27.6924 187.345 27.8324C187.495 27.9724 187.595 28.2124 187.645 28.5524L187.87 30.4124C188.42 29.4624 189.065 28.7124 189.805 28.1624C190.545 27.6124 191.375 27.3374 192.295 27.3374C193.055 27.3374 193.685 27.5124 194.185 27.8624L193.705 30.6374C193.675 30.8174 193.61 30.9449 193.51 31.0199C193.41 31.0949 193.275 31.1324 193.105 31.1324C192.955 31.1324 192.75 31.0974 192.49 31.0274C192.23 30.9574 191.885 30.9224 191.455 30.9224C190.685 30.9224 190.025 31.1349 189.475 31.5599C188.925 31.9849 188.46 32.6074 188.08 33.4274V43.0124H184.375Z" fill="white"/>
<path d="M201.685 43.2526C200.355 43.2526 199.33 42.8751 198.61 42.1201C197.89 41.3651 197.53 40.3226 197.53 38.9926V30.3976H195.97C195.77 30.3976 195.597 30.3326 195.452 30.2026C195.307 30.0726 195.235 29.8776 195.235 29.6176V28.1476L197.71 27.7426L198.49 23.5426C198.53 23.3426 198.622 23.1876 198.767 23.0776C198.912 22.9676 199.095 22.9126 199.315 22.9126H201.235V27.7576H205.285V30.3976H201.235V38.7376C201.235 39.2176 201.355 39.5926 201.595 39.8626C201.835 40.1326 202.155 40.2676 202.555 40.2676C202.785 40.2676 202.977 40.2401 203.132 40.1851C203.287 40.1301 203.422 40.0726 203.537 40.0126C203.652 39.9526 203.755 39.8951 203.845 39.8401C203.935 39.7851 204.025 39.7576 204.115 39.7576C204.225 39.7576 204.315 39.7851 204.385 39.8401C204.455 39.8951 204.53 39.9776 204.61 40.0876L205.72 41.8876C205.18 42.3376 204.56 42.6776 203.86 42.9076C203.16 43.1376 202.435 43.2526 201.685 43.2526Z" fill="white"/>
<path fill-rule="evenodd" clip-rule="evenodd" d="M107.84 17.6425C105.39 21.4225 101.68 27.7225 97.97 34.3725C99.44 35.1425 100.21 36.2625 100.56 37.3825C100.7 38.0125 100.49 38.3625 99.79 38.2225C98.74 38.0125 97.48 37.9425 96.01 38.0125C93.07 43.4025 90.34 48.8625 88.59 53.2725C88.31 53.9725 87.75 54.0425 87.4 53.5525C86.35 52.0125 85.51 50.1225 86.98 45.9225C87.68 44.0325 88.8 41.4425 90.2 38.5025C86.63 38.9925 82.85 39.6225 79.98 40.3225C78.93 40.5325 78.23 40.5325 77.6 39.7625C76.69 38.5725 75.71 36.8225 75.15 35.7725C74.73 35.0025 74.87 34.1625 75.43 33.5325C81.24 26.6725 94.75 15.8225 103.71 10.0825C104.55 9.52248 105.74 9.17248 106.44 10.2925C107.14 11.4125 107.63 12.2525 108.4 13.5825C109.24 15.1225 109.24 15.4725 107.84 17.6425ZM92.65 33.5325C95.73 27.5825 99.44 21.0725 102.8 16.1725C94.68 21.7725 84.74 29.1925 78.58 35.7725C82.85 34.6525 88.17 33.7425 92.65 33.5325Z" fill="white"/>
<path fill-rule="evenodd" clip-rule="evenodd" d="M18.135 43.0125H21.255L12.735 21.3225H8.61L0.0899963 43.0125H3.225C3.565 43.0125 3.8525 42.9175 4.0875 42.7275C4.3225 42.5375 4.48 42.3275 4.56 42.0975L6.18 37.6725H15.165L16.785 42.0975C16.885 42.3575 17.0475 42.575 17.2725 42.75C17.4975 42.925 17.785 43.0125 18.135 43.0125ZM14.13 34.8225H7.215L9.855 27.6375C9.985 27.3075 10.1175 26.9225 10.2525 26.4825C10.3875 26.0425 10.525 25.5675 10.665 25.0575C10.805 25.5675 10.9475 26.04 11.0925 26.475C11.2375 26.91 11.37 27.2875 11.49 27.6075L14.13 34.8225Z" fill="white"/>
<path d="M26.67 27.6226V37.4026C26.67 38.3426 26.8875 39.0701 27.3225 39.5851C27.7575 40.1001 28.41 40.3576 29.28 40.3576C29.92 40.3576 30.52 40.2151 31.08 39.9301C31.64 39.6451 32.17 39.2526 32.67 38.7526V27.6226H36.375V43.0126H34.11C33.63 43.0126 33.315 42.7876 33.165 42.3376L32.91 41.1076C32.59 41.4276 32.26 41.7201 31.92 41.9851C31.58 42.2501 31.2175 42.4751 30.8325 42.6601C30.4475 42.8451 30.0325 42.9901 29.5875 43.0951C29.1425 43.2001 28.665 43.2526 28.155 43.2526C27.315 43.2526 26.5725 43.1101 25.9275 42.8251C25.2825 42.5401 24.74 42.1376 24.3 41.6176C23.86 41.0976 23.5275 40.4801 23.3025 39.7651C23.0775 39.0501 22.965 38.2626 22.965 37.4026V27.6226H26.67Z" fill="white"/>
<path d="M45.39 43.2526C44.06 43.2526 43.035 42.8751 42.315 42.1201C41.595 41.3651 41.235 40.3226 41.235 38.9926V30.3976H39.675C39.475 30.3976 39.3025 30.3326 39.1575 30.2026C39.0125 30.0726 38.94 29.8776 38.94 29.6176V28.1476L41.415 27.7426L42.195 23.5426C42.235 23.3426 42.3275 23.1876 42.4725 23.0776C42.6175 22.9676 42.8 22.9126 43.02 22.9126H44.94V27.7576H48.99V30.3976H44.94V38.7376C44.94 39.2176 45.06 39.5926 45.3 39.8626C45.54 40.1326 45.86 40.2676 46.26 40.2676C46.49 40.2676 46.6825 40.2401 46.8375 40.1851C46.9925 40.1301 47.1275 40.0726 47.2425 40.0126C47.3575 39.9526 47.46 39.8951 47.55 39.8401C47.64 39.7851 47.73 39.7576 47.82 39.7576C47.93 39.7576 48.02 39.7851 48.09 39.8401C48.16 39.8951 48.235 39.9776 48.315 40.0876L49.425 41.8876C48.885 42.3376 48.265 42.6776 47.565 42.9076C46.865 43.1376 46.14 43.2526 45.39 43.2526Z" fill="white"/>
<path fill-rule="evenodd" clip-rule="evenodd" d="M61.6425 27.9376C60.7075 27.5676 59.665 27.3826 58.515 27.3826C57.365 27.3826 56.32 27.5676 55.38 27.9376C54.44 28.3076 53.6375 28.8326 52.9725 29.5126C52.3075 30.1926 51.7925 31.0226 51.4275 32.0026C51.0625 32.9826 50.88 34.0776 50.88 35.2876C50.88 36.5076 51.0625 37.6076 51.4275 38.5876C51.7925 39.5676 52.3075 40.4026 52.9725 41.0926C53.6375 41.7826 54.44 42.3126 55.38 42.6826C56.32 43.0526 57.365 43.2376 58.515 43.2376C59.665 43.2376 60.7075 43.0526 61.6425 42.6826C62.5775 42.3126 63.375 41.7826 64.035 41.0926C64.695 40.4026 65.205 39.5676 65.565 38.5876C65.925 37.6076 66.105 36.5076 66.105 35.2876C66.105 34.0776 65.925 32.9826 65.565 32.0026C65.205 31.0226 64.695 30.1926 64.035 29.5126C63.375 28.8326 62.5775 28.3076 61.6425 27.9376ZM61.3575 39.0976C60.7425 39.9576 59.795 40.3876 58.515 40.3876C57.215 40.3876 56.255 39.9551 55.635 39.0901C55.015 38.2251 54.705 36.9676 54.705 35.3176C54.705 33.6676 55.015 32.4051 55.635 31.5301C56.255 30.6551 57.215 30.2176 58.515 30.2176C59.795 30.2176 60.7425 30.6526 61.3575 31.5226C61.9725 32.3926 62.28 33.6576 62.28 35.3176C62.28 36.9776 61.9725 38.2376 61.3575 39.0976Z" fill="white"/>
<path fill-rule="evenodd" clip-rule="evenodd" d="M125.375 9.46212C125.375 9.46212 101.417 -7.14878 67.6628 5.40102C67.6628 5.40102 75.9239 10.0884 82.6599 10.6843C82.6599 10.6843 76.7466 5.72684 76.7466 5.72684C101.498 -0.309729 125.375 9.46212 125.375 9.46212Z" fill="white"/>
<path fill-rule="evenodd" clip-rule="evenodd" d="M53 4.10205H62.208C62.208 4.10205 69.881 10.5539 86.5381 13.9555C86.5381 13.9555 60.8656 9.27669 58.053 15.4446C58.053 15.4446 56.0997 16.1862 56.8071 14.1544C60.0726 7.19159 53 4.10205 53 4.10205Z" fill="white"/>
<path fill-rule="evenodd" clip-rule="evenodd" d="M115.959 12.565C115.959 12.565 154 5.22929 154 23.0001C154 23.0001 152.434 16.5714 146.419 17.0584L143.927 15.2486L144.984 14.5205C141.598 13.1918 137.169 11.9754 115.959 12.565Z" fill="white"/>
</svg>
