<svg width="18" height="16" viewBox="0 0 18 16" fill="none" xmlns="http://www.w3.org/2000/svg">
<path fill-rule="evenodd" clip-rule="evenodd" d="M10.5 3.80957C10.5 5.9135 8.82106 7.619 6.75 7.619C4.67894 7.619 2.99995 5.9135 2.99995 3.80957C2.99995 1.70564 4.67894 0 6.75 0C8.82106 0 10.5 1.70564 10.5 3.80957ZM3.56245 9.14286C1.59824 9.14286 0 10.7665 0 12.7619V15.4286C0 15.744 0.251999 16 0.5625 16H12.9375C13.248 16 13.5 15.744 13.5 15.4286V12.7619C13.5 10.7665 11.9018 9.14286 9.93755 9.14286H3.56245ZM15.1957 3.96191L17.8208 6.43806C17.9348 6.54632 18 6.69866 18 6.85714C18 7.01562 17.9348 7.16797 17.8208 7.27623L15.1957 9.75237C15.0893 9.85226 14.952 9.90472 14.8125 9.90472C14.5035 9.90472 14.25 9.65025 14.25 9.33329V7.619H11.25C10.8353 7.619 10.5 7.27776 10.5 6.85714C10.5 6.43652 10.8353 6.09528 11.25 6.09528H14.25V4.381C14.25 4.13184 14.4413 3.81027 14.8133 3.81027C14.952 3.81027 15.09 3.86203 15.1957 3.96191Z" fill="white"/>
</svg>
