<svg width="18" height="20" viewBox="0 0 18 20" fill="none" xmlns="http://www.w3.org/2000/svg">
<path fill-rule="evenodd" clip-rule="evenodd" d="M16.155 14.2553C16.569 14.1758 16.9676 14.4552 17.0451 14.8793C17.171 15.5674 16.9929 16.2709 16.5565 16.8095C16.1204 17.3477 15.4788 17.6562 14.7962 17.6562H11.3029C11.3029 18.9486 10.2764 20 9.01472 20C7.75304 20 6.72658 18.9486 6.72658 17.6562H3.21853C2.5359 17.6562 1.89431 17.3477 1.45827 16.8095C1.02184 16.2709 0.84375 15.5674 0.969636 14.8793C1.23335 13.438 1.75475 12.5038 2.21478 11.6795L2.21495 11.6791L2.21498 11.6791C2.68197 10.8424 3.05085 10.1815 3.05085 9.14062V7.96875C3.05085 4.88988 5.32152 2.31285 8.23729 1.92535V0.78125C8.23729 0.349766 8.57875 0 9 0C9.42125 0 9.76271 0.349766 9.76271 0.78125V1.92305C11.0761 2.09273 12.2909 2.7075 13.2371 3.69273C14.3412 4.8423 14.9492 6.3609 14.9492 7.96875V9.14062C14.9492 9.93285 15.1629 10.4923 15.5319 11.1908C15.7324 11.5702 15.5947 12.0443 15.2242 12.2497C15.1088 12.3137 14.9844 12.344 14.8618 12.344C14.5908 12.344 14.3285 12.1957 14.1904 11.9345C13.8195 11.2325 13.4237 10.3798 13.4237 9.14062V7.96875C13.4237 5.50508 11.4753 3.47363 9.07944 3.43801H8.93525C6.53122 3.47375 4.57627 5.5052 4.57627 7.96875V9.14062C4.57627 10.5966 4.04908 11.5412 3.53921 12.4546L3.53915 12.4547C3.11937 13.2069 2.68531 13.9846 2.46897 15.1671C2.41139 15.4817 2.54643 15.7059 2.632 15.8116C2.71739 15.917 2.90715 16.0938 3.21853 16.0938H14.7962C15.1076 16.0938 15.2973 15.917 15.3827 15.8116C15.4683 15.7059 15.6033 15.4817 15.5457 15.1671C15.4682 14.743 15.741 14.3348 16.155 14.2553ZM8.25205 17.6562C8.25205 18.087 8.5942 18.4375 9.01476 18.4375C9.43532 18.4375 9.77747 18.087 9.77747 17.6562H8.25205ZM3.36978 1.76164C3.05592 1.47383 2.57373 1.50117 2.29279 1.82266C0.814271 3.51445 0 5.69727 0 7.96898C0 8.40047 0.341466 8.75023 0.762712 8.75023C1.18396 8.75023 1.52542 8.40047 1.52542 7.96898C1.52542 6.08234 2.20157 4.26965 3.42934 2.8648C3.71029 2.54332 3.68363 2.04941 3.36978 1.76164ZM14.6302 1.76164C14.944 1.47387 15.4263 1.50121 15.7072 1.82266C17.1857 3.51445 18 5.69727 18 7.96898C18 8.40047 17.6585 8.75023 17.2373 8.75023C16.816 8.75023 16.4746 8.40047 16.4746 7.96898C16.4746 6.08234 15.7984 4.26969 14.5707 2.8648C14.2897 2.54332 14.3164 2.04941 14.6302 1.76164Z" fill="white"/>
</svg>
