<svg width="14" height="11" viewBox="0 0 14 11" fill="none" xmlns="http://www.w3.org/2000/svg">
<path d="M0.223774 4.98627L5.27967 0.211125C5.42399 0.0748182 5.61635 0 5.82145 0C6.02678 0 6.21902 0.0749257 6.36335 0.211125L6.82239 0.64477C6.9666 0.780862 7.04604 0.96264 7.04604 1.15646C7.04604 1.35017 6.9666 1.53807 6.82239 1.67417L3.87285 4.46598H13.2437C13.6662 4.46598 14 4.77837 14 5.17751V5.79057C14 6.1897 13.6662 6.53359 13.2437 6.53359H3.83939L6.82227 9.34099C6.96648 9.4773 7.04593 9.65413 7.04593 9.84795C7.04593 10.0416 6.96648 10.221 6.82227 10.3572L6.36323 10.7894C6.21891 10.9257 6.02667 11 5.82134 11C5.61623 11 5.42388 10.9248 5.27955 10.7884L0.22366 6.01341C0.0789938 5.87667 -0.000566483 5.69414 2.86102e-06 5.50011C-0.000452042 5.30543 0.0789948 5.12279 0.223774 4.98627Z" fill="#3E73CF"/>
</svg>
