<svg width="16" height="16" viewBox="0 0 16 16" fill="none" xmlns="http://www.w3.org/2000/svg">
<path fill-rule="evenodd" clip-rule="evenodd" d="M9.6 1.6H6.4C5.95817 1.6 5.6 1.24183 5.6 0.8C5.6 0.358172 5.95817 0 6.4 0H9.6C10.0418 0 10.4 0.358172 10.4 0.8C10.4 1.24183 10.0418 1.6 9.6 1.6ZM0.8 2.4H15.2C15.6418 2.4 16 2.75817 16 3.2C16 3.64183 15.6418 4 15.2 4H13.6V13.6C13.5996 14.9253 12.5253 15.9996 11.2 16H4.8C3.47468 15.9996 2.4004 14.9253 2.4 13.6V4H0.8C0.358172 4 0 3.64183 0 3.2C0 2.75817 0.358172 2.4 0.8 2.4ZM6.4 12C6.84183 12 7.2 11.6418 7.2 11.2V7.2C7.2 6.75817 6.84183 6.4 6.4 6.4C5.95817 6.4 5.6 6.75817 5.6 7.2V11.2C5.6 11.6418 5.95817 12 6.4 12ZM10.4 11.2C10.4 11.6418 10.0418 12 9.6 12C9.15817 12 8.8 11.6418 8.8 11.2V7.2C8.8 6.75817 9.15817 6.4 9.6 6.4C10.0418 6.4 10.4 6.75817 10.4 7.2V11.2Z" fill="white"/>
</svg>
