<svg width="14" height="18" viewBox="0 0 14 18" fill="none" xmlns="http://www.w3.org/2000/svg">
<path opacity="0.5" fill-rule="evenodd" clip-rule="evenodd" d="M3.56641 7.36963V13.2892C3.56641 13.6775 3.88521 13.9923 4.2785 13.9923C4.67179 13.9923 4.99059 13.6775 4.99059 13.2892V7.36963C4.99059 6.98129 4.67179 6.6665 4.2785 6.6665C3.88521 6.6665 3.56641 6.98129 3.56641 7.36963ZM9.01063 7.36963V13.2892C9.01063 13.6775 9.32943 13.9923 9.72272 13.9923C10.116 13.9923 10.4348 13.6775 10.4348 13.2892V7.36963C10.4348 6.98129 10.116 6.6665 9.72272 6.6665C9.32943 6.6665 9.01063 6.98129 9.01063 7.36963ZM6.28852 13.2892V7.36963C6.28852 6.98129 6.60732 6.6665 7.00061 6.6665C7.3939 6.6665 7.7127 6.98129 7.7127 7.36963V13.2892C7.7127 13.6775 7.3939 13.9923 7.00061 13.9923C6.60732 13.9923 6.28852 13.6775 6.28852 13.2892Z" fill="currentColor"/>
<path fill-rule="evenodd" clip-rule="evenodd" d="M13.2879 2.65859C13.6812 2.65859 14 2.97338 14 3.36171C14 3.70371 13.7526 3.98841 13.425 4.05151V11.6786C13.425 12.0669 13.1061 12.3817 12.7129 12.3817C12.3196 12.3817 12.0008 12.0669 12.0008 11.6786V4.06484H1.9992V15.1875C1.9992 15.9629 2.63808 16.5938 3.42338 16.5938H10.5766C11.3594 16.5938 11.9982 15.9649 12.0006 15.1921C12.0019 14.8045 12.3205 14.4911 12.7127 14.4911H12.715C13.1082 14.4924 13.4261 14.8081 13.4248 15.1964C13.4199 16.7424 12.1422 18 10.5766 18H3.42338C1.85279 18 0.575014 16.7383 0.575014 15.1875V4.05151C0.247381 3.98841 0 3.70371 0 3.36171C0 2.97338 0.318803 2.65859 0.712091 2.65859H3.65068V2.15304C3.65068 0.965883 4.62884 0 5.83117 0H8.16886C9.37119 0 10.3494 0.965883 10.3494 2.15304V2.65859H13.2879ZM5.07483 2.15304V2.65859H8.92514V2.15304C8.92514 1.74125 8.58586 1.40625 8.16883 1.40625H5.83114C5.4141 1.40625 5.07483 1.74125 5.07483 2.15304Z" fill="currentColor"/>
</svg>
