<svg width="30" height="30" viewBox="0 0 30 30" fill="none" xmlns="http://www.w3.org/2000/svg">
<path fill-rule="evenodd" clip-rule="evenodd" d="M20.5831 11.1661C19.9133 11.1661 19.2596 11.2364 18.629 11.37C18.7645 10.7295 18.8338 10.074 18.8338 9.41693C18.8338 4.22443 14.6094 0 9.41689 0C4.22438 0 0 4.22443 0 9.41693C0 14.6094 4.22443 18.8338 9.41689 18.8338C10.0741 18.8338 10.7295 18.7644 11.3701 18.629C11.2365 19.2596 11.1662 19.9133 11.1662 20.5831C11.1662 25.7756 15.3906 30 20.583 30C22.0815 30 23.5731 29.6389 24.8967 28.9558C25.4718 28.659 25.6975 27.9521 25.4006 27.377C25.1038 26.8019 24.397 26.5763 23.8218 26.8731C22.8149 27.3927 21.7253 27.6562 20.5831 27.6562C16.683 27.6562 13.51 24.4832 13.51 20.583C13.51 16.6828 16.683 13.5099 20.5831 13.5099C24.4832 13.5099 27.6562 16.6829 27.6562 20.583C27.6562 21.4604 27.4979 22.316 27.1856 23.1261C26.9528 23.7301 27.2536 24.4083 27.8575 24.6411C28.4613 24.8739 29.1397 24.5731 29.3725 23.9692C29.7888 22.889 30 21.7497 30 20.5829C30 15.3906 25.7756 11.1661 20.5831 11.1661ZM9.41689 16.4901C5.51678 16.4901 2.34375 13.317 2.34375 9.41693C2.34375 5.51683 5.51678 2.34375 9.41689 2.34375C13.317 2.34375 16.49 5.51677 16.49 9.41693C16.49 10.4918 16.2569 11.5196 15.7966 12.4756C14.4304 13.2853 13.2853 14.4304 12.4756 15.7967C11.5198 16.2569 10.4921 16.4901 9.41689 16.4901ZM23.2632 7.28594C22.8793 7.46659 22.6074 7.84897 22.5903 8.30207C22.5659 8.94883 23.0705 9.49287 23.7172 9.51719L26.0234 9.60402C26.0382 9.60461 26.0528 9.6049 26.0676 9.6049C26.3777 9.6049 26.676 9.4818 26.8962 9.26172C27.1268 9.0311 27.2508 8.71487 27.2386 8.38897L27.1518 6.08272C27.1274 5.43597 26.5843 4.93394 25.9367 4.95573C25.4838 4.97278 25.1007 5.24466 24.92 5.62815L22.3956 3.1037C21.9379 2.64603 21.1959 2.64615 20.7383 3.1037C20.2806 3.56138 20.2806 4.30341 20.7383 4.76103L23.2632 7.28594ZM6.73705 22.7142C7.12084 22.5336 7.3926 22.1509 7.40971 21.6979C7.43408 21.0511 6.92953 20.5071 6.28277 20.4828L3.97658 20.3959C3.65145 20.3838 3.33445 20.5077 3.10383 20.7383C2.8732 20.9689 2.74916 21.2851 2.76141 21.611L2.84818 23.9173C2.87197 24.549 3.39158 25.0451 4.01848 25.0451C4.03336 25.0451 4.0483 25.0448 4.06336 25.0443C4.51623 25.0272 4.89937 24.7553 5.08002 24.3718L7.60447 26.8963C7.83328 27.1251 8.13316 27.2395 8.43311 27.2395C8.73305 27.2395 9.03293 27.125 9.26174 26.8963C9.71941 26.4386 9.71941 25.6966 9.26174 25.239L6.73705 22.7142ZM17.1922 23.6378C17.1922 23.0748 17.5892 22.6046 18.1185 22.4917V18.6058C17.6116 18.4766 17.2368 18.0172 17.2368 17.4701C17.2368 16.8977 17.6471 16.4212 18.1897 16.3187C18.3541 15.8702 18.7848 15.5502 19.2903 15.5502C19.7358 15.5502 20.1232 15.7988 20.3214 16.1649C20.5196 15.7988 20.9071 15.5502 21.3526 15.5502C21.9998 15.5502 22.5244 16.0749 22.5244 16.7221V16.741C23.2129 17.2067 23.6664 17.9946 23.6664 18.8865C23.6664 19.2815 23.5774 19.6561 23.4185 19.9913C23.9137 20.501 24.2191 21.1961 24.2191 21.9612C24.2191 23.12 23.5188 24.1182 22.5192 24.5549C22.4634 25.1501 21.9624 25.6158 21.3526 25.6158C20.9174 25.6158 20.5376 25.3787 20.3355 25.0265C20.1334 25.3786 19.7536 25.6158 19.3184 25.6158C18.7948 25.6158 18.3514 25.2724 18.2012 24.7984C17.6311 24.7191 17.1922 24.2297 17.1922 23.6378ZM21.0783 18.642H20.4622V19.1325C20.7185 19.1316 20.9508 19.1309 21.0783 19.1309C21.213 19.1309 21.3227 19.0213 21.3227 18.8865C21.3227 18.7517 21.213 18.642 21.0783 18.642ZM20.4622 22.4487V21.4763H21.3905C21.6579 21.4763 21.8755 21.6938 21.8755 21.9612C21.8755 22.2285 21.6579 22.4461 21.3905 22.4461C21.2082 22.4462 20.8403 22.4473 20.4622 22.4487ZM10.504 8.43285V8.0595C10.8402 8.16584 11.2204 8.11979 11.5313 7.90159C12.0611 7.52975 12.1891 6.79891 11.8173 6.26917C11.529 5.85825 11.0555 5.50083 10.4497 5.30899C10.2998 4.8345 9.85611 4.49056 9.33205 4.49056C8.78479 4.49056 8.32523 4.86562 8.19627 5.37274C7.28191 5.70016 6.62731 6.57251 6.55254 7.58084C6.47672 8.60401 7.03447 9.52481 8.00813 9.98389C8.05113 10.0042 8.10205 10.0269 8.16018 10.0518V10.7996C7.74938 10.546 7.20668 10.5643 6.8093 10.8844C6.30527 11.2904 6.22582 12.0282 6.63182 12.5321C7.05486 13.0573 7.63389 13.3827 8.22738 13.5635C8.38869 14.0179 8.82234 14.3433 9.33205 14.3433C9.81293 14.3433 10.2261 14.0536 10.4068 13.6393C11.5274 13.3541 12.3036 12.543 12.4407 11.4626C12.604 10.1771 11.8117 8.9476 10.504 8.43285Z" fill="currentColor"/>
</svg>
