<svg width="18" height="21" viewBox="0 0 18 21" fill="none" xmlns="http://www.w3.org/2000/svg">
<path fill-rule="evenodd" clip-rule="evenodd" d="M9 0C7.96425 0 7.125 0.83925 7.125 1.875C7.125 2.64375 7.5885 3.30225 8.25 3.59175V6.375H9.75V3.59175C10.4115 3.30225 10.875 2.64375 10.875 1.875C10.875 0.83925 10.0358 0 9 0ZM18 16.875V19.5C18 20.3288 17.3288 21 16.5 21H1.5C0.67125 21 0 20.3288 0 19.5V9C0 8.17125 0.67125 7.5 1.5 7.5H16.5C17.3288 7.5 18 8.17125 18 9V11.625H15.75C14.3025 11.625 13.125 12.8025 13.125 14.25C13.125 15.6975 14.3025 16.875 15.75 16.875H18ZM14.25 14.25C14.25 13.4228 14.9228 12.75 15.75 12.75H18V15.75H15.75C14.9228 15.75 14.25 15.0772 14.25 14.25ZM1.125 2.625C1.125 1.58925 1.96425 0.75 3 0.75C4.182 0.75 5.10525 1.845 4.821 3.05325L6.45 4.275C6.639 4.41675 6.75 4.63875 6.75 4.875V6.375H5.25V5.25L3.918 4.25025C2.6415 4.97325 1.125 4.0335 1.125 2.625ZM14.082 4.251C15.354 4.97025 16.875 4.0395 16.875 2.625C16.875 1.58925 16.0357 0.75 15 0.75C13.8188 0.75 12.8947 1.84425 13.179 3.054L11.55 4.275C11.361 4.41675 11.25 4.63875 11.25 4.875V6.375H12.75V5.25L14.082 4.251Z" fill="#D5D5D5"/>
</svg>
