<svg width="16" height="14" viewBox="0 0 16 14" fill="none" xmlns="http://www.w3.org/2000/svg">
<path d="M10.8453 2.99085L14.3181 6.46571C15.3262 5.85551 16 4.74817 16 3.4833C16 1.55954 14.4414 0 12.5188 0H3.48125C1.55859 3.12684e-05 0 1.55954 0 3.4833C0 5.40706 1.55859 6.9666 3.48125 6.9666H8.44459V3.98569C8.44459 3.41454 8.78534 2.90427 9.31272 2.68571C9.96759 2.41436 10.5521 2.69734 10.8453 2.99085V2.99085Z" fill="white"/>
<path d="M10.1821 3.654C10.048 3.51982 9.84634 3.47974 9.67121 3.55231C9.49605 3.62492 9.38184 3.79596 9.38184 3.98563V12.0237C9.38184 12.2134 9.49602 12.3844 9.67121 12.457C9.8334 12.5242 10.0382 12.4993 10.1821 12.3553L12.0389 10.4974L13.369 13.7103C13.468 13.9496 13.7422 14.0632 13.9814 13.9641C14.2206 13.865 14.3342 13.5906 14.2351 13.3513L12.9051 10.1384H15.531C15.7206 10.1384 15.8915 10.0241 15.9641 9.84883C16.0366 9.67357 15.9965 9.47183 15.8625 9.33769L10.1821 3.654Z" fill="white"/>
</svg>
