<svg width="18" height="18" viewBox="0 0 18 18" fill="none" xmlns="http://www.w3.org/2000/svg">
<path d="M4.05801 5.29102H3.31445V6.21327H4.05801C4.39652 6.21327 4.51911 5.90456 4.51911 5.75213C4.51911 5.4964 4.30955 5.29102 4.05801 5.29102V5.29102Z" fill="white"/>
<path d="M4.05801 3.31396H3.31445V4.23622H4.05801C4.3061 4.23622 4.51911 4.03312 4.51911 3.77507C4.51911 3.52807 4.31714 3.31396 4.05801 3.31396V3.31396Z" fill="white"/>
<path fill-rule="evenodd" clip-rule="evenodd" d="M11.9326 7.00394C11.8878 6.92638 11.8617 6.83663 11.8617 6.74062V5.48687C11.2059 5.26606 10.732 4.64572 10.732 3.91637V2.78673C10.732 2.4955 10.9681 2.25939 11.2594 2.25939C11.5506 2.25939 11.7867 2.4955 11.7867 2.78673V3.91641C11.7867 4.24853 12.0569 4.51874 12.3891 4.51874C12.7212 4.51874 12.9914 4.24853 12.9914 3.91641V2.78673C12.9914 2.4955 13.2275 2.25939 13.5187 2.25939C13.81 2.25939 14.0461 2.4955 14.0461 2.78673V3.91641C14.0461 4.64573 13.5722 5.26609 12.9164 5.48691V6.74065C12.9164 7.03189 12.6803 7.268 12.3891 7.268C12.3713 7.268 12.3537 7.26705 12.3364 7.26532L14.8782 9.17167C15.7206 8.70037 16.3054 7.80332 16.3054 6.74062V2.78673C16.3054 1.21215 15.0229 0 13.5187 0H2.78672C1.2826 0 0 1.21215 0 2.78673V6.74065C0 8.31491 1.28274 9.52735 2.78672 9.52735H9.67733V8.43504C9.67733 7.83194 10.0124 7.28972 10.5519 7.02C10.7704 6.91074 11.0151 6.85301 11.2593 6.85301C11.4918 6.85301 11.7228 6.90557 11.9326 7.00394ZM5.57341 5.75216C5.57341 6.59739 4.88407 7.268 4.05762 7.268H2.78672C2.49549 7.268 2.25938 7.03189 2.25938 6.74065V2.78673C2.25938 2.4955 2.49549 2.25939 2.78672 2.25939H4.05762C4.90035 2.25939 5.57341 2.94796 5.57341 3.77522C5.57341 4.14208 5.44365 4.48893 5.20571 4.76381C5.44059 5.03677 5.57341 5.39086 5.57341 5.75216ZM8.15271 7.26796C9.06639 7.26796 9.80973 6.52462 9.80973 5.61094V2.78673C9.80973 2.4955 9.57362 2.25939 9.28239 2.25939C8.99115 2.25939 8.75504 2.4955 8.75504 2.78673V5.61094C8.75504 5.94306 8.48483 6.21327 8.15271 6.21327C7.82059 6.21327 7.55035 5.94306 7.55035 5.61094V2.78673C7.55035 2.4955 7.31424 2.25939 7.02301 2.25939C6.73177 2.25939 6.49566 2.4955 6.49566 2.78673V5.61094C6.49566 6.52462 7.23904 7.26796 8.15271 7.26796Z" fill="white"/>
<path d="M17.7895 12.6732L11.5762 8.01319C11.4164 7.89334 11.2026 7.87407 11.0239 7.96337C10.8453 8.0527 10.7324 8.2353 10.7324 8.43506V16.2017C10.7324 16.3845 10.8271 16.5542 10.9826 16.6503C11.1381 16.7464 11.3323 16.7551 11.4957 16.6733L13.0944 15.8735L14.0135 17.7087C14.1442 17.9697 14.4612 18.0742 14.721 17.9442L16.7911 16.9086C17.0515 16.7783 17.1571 16.4617 17.0269 16.2013L16.1103 14.3665L17.709 13.5667C17.8725 13.4849 17.9819 13.3244 17.9983 13.1424C18.0147 12.9603 17.9356 12.7828 17.7895 12.6732V12.6732Z" fill="white"/>
</svg>
