<svg width="16" height="16" viewBox="0 0 16 16" fill="none" xmlns="http://www.w3.org/2000/svg">
<path fill-rule="evenodd" clip-rule="evenodd" d="M1.40625 7.53125H6.125C6.90044 7.53125 7.53125 6.90044 7.53125 6.125V1.40625C7.53125 0.630813 6.90044 0 6.125 0H1.40625C0.630813 0 0 0.630813 0 1.40625V6.125C0 6.90044 0.630813 7.53125 1.40625 7.53125ZM2.375 3.3125H3.3125V2.375C3.3125 2.11591 3.52216 1.90625 3.78125 1.90625C4.04034 1.90625 4.25 2.11591 4.25 2.375V3.3125H5.1875C5.44659 3.3125 5.65625 3.52216 5.65625 3.78125C5.65625 4.04034 5.44659 4.25 5.1875 4.25H4.25V5.1875C4.25 5.44659 4.04034 5.65625 3.78125 5.65625C3.52216 5.65625 3.3125 5.44659 3.3125 5.1875V4.25H2.375C2.11591 4.25 1.90625 4.04034 1.90625 3.78125C1.90625 3.52216 2.11591 3.3125 2.375 3.3125ZM14.5938 0H9.875C9.09956 0 8.46875 0.630813 8.46875 1.40625V6.125C8.46875 6.90044 9.09956 7.53125 9.875 7.53125H14.5938C15.3692 7.53125 16 6.90044 16 6.125V1.40625C16 0.630813 15.3692 0 14.5938 0ZM13.6562 4.25H10.8125C10.5534 4.25 10.3438 4.04034 10.3438 3.78125C10.3438 3.52216 10.5534 3.3125 10.8125 3.3125H13.6562C13.9153 3.3125 14.125 3.52216 14.125 3.78125C14.125 4.04034 13.9153 4.25 13.6562 4.25ZM14.5938 8.46875H9.875C9.09956 8.46875 8.46875 9.09956 8.46875 9.875V14.5938C8.46875 15.3692 9.09956 16 9.875 16H14.5938C15.3692 16 16 15.3692 16 14.5938V9.875C16 9.09956 15.3692 8.46875 14.5938 8.46875ZM13.6562 13.625H10.8125C10.5534 13.625 10.3438 13.4153 10.3438 13.1562C10.3438 12.8972 10.5534 12.6875 10.8125 12.6875H13.6562C13.9153 12.6875 14.125 12.8972 14.125 13.1562C14.125 13.4153 13.9153 13.625 13.6562 13.625ZM10.8125 11.75H13.6562C13.9153 11.75 14.125 11.5403 14.125 11.2812C14.125 11.0222 13.9153 10.8125 13.6562 10.8125H10.8125C10.5534 10.8125 10.3438 11.0222 10.3438 11.2812C10.3438 11.5403 10.5534 11.75 10.8125 11.75ZM7.53125 14.5938V9.875C7.53125 9.09956 6.90044 8.46875 6.125 8.46875H1.40625C0.630813 8.46875 0 9.09956 0 9.875V14.5938C0 15.3692 0.630813 16 1.40625 16H6.125C6.90044 16 7.53125 15.3692 7.53125 14.5938ZM5.10694 12.8816C5.29003 13.0647 5.29003 13.3613 5.10694 13.5444C4.92384 13.7275 4.62719 13.7275 4.44409 13.5444L3.78125 12.8816L3.11841 13.5444C2.93531 13.7275 2.63866 13.7275 2.45556 13.5444C2.27247 13.3613 2.27247 13.0647 2.45556 12.8816L3.11841 12.2188L2.45556 11.5559C2.27247 11.3728 2.27247 11.0762 2.45556 10.8931C2.63866 10.71 2.93531 10.71 3.11841 10.8931L3.78125 11.5559L4.44409 10.8931C4.62719 10.71 4.92384 10.71 5.10694 10.8931C5.29003 11.0762 5.29003 11.3728 5.10694 11.5559L4.44409 12.2188L5.10694 12.8816Z" fill="#8C8C8C"/>
</svg>
