<svg width="16" height="16" viewBox="0 0 16 16" fill="none" xmlns="http://www.w3.org/2000/svg">
<path fill-rule="evenodd" clip-rule="evenodd" d="M16 10.375C16 10.7202 15.7202 11 15.375 11C15.0298 11 14.75 10.7202 14.75 10.375V3.75C14.75 3.06075 14.1892 2.5 13.5 2.5H12.6875V3.125C12.6875 3.47019 12.4077 3.75 12.0625 3.75C11.7173 3.75 11.4375 3.47019 11.4375 3.125V2.5H8.59375V3.125C8.59375 3.47019 8.31394 3.75 7.96875 3.75C7.62356 3.75 7.34375 3.47019 7.34375 3.125V2.5H4.53125V3.125C4.53125 3.47019 4.25144 3.75 3.90625 3.75C3.56106 3.75 3.28125 3.47019 3.28125 3.125V2.5H2.5C1.81075 2.5 1.25 3.06075 1.25 3.75V13.5C1.25 14.1892 1.81075 14.75 2.5 14.75H13.5C14.1892 14.75 14.75 14.1892 14.75 13.5C14.75 13.1548 15.0298 12.875 15.375 12.875C15.7202 12.875 16 13.1548 16 13.5C16 14.8785 14.8785 16 13.5 16H2.5C1.1215 16 0 14.8785 0 13.5V3.75C0 2.3715 1.1215 1.25 2.5 1.25H3.28125V0.625C3.28125 0.279813 3.56106 0 3.90625 0C4.25144 0 4.53125 0.279813 4.53125 0.625V1.25H7.34375V0.625C7.34375 0.279813 7.62356 0 7.96875 0C8.31394 0 8.59375 0.279813 8.59375 0.625V1.25H11.4375V0.625C11.4375 0.279813 11.7173 0 12.0625 0C12.4077 0 12.6875 0.279813 12.6875 0.625V1.25H13.5C14.8785 1.25 16 2.3715 16 3.75V10.375ZM3.90625 7.1875C4.25143 7.1875 4.53125 6.90768 4.53125 6.5625C4.53125 6.21732 4.25143 5.9375 3.90625 5.9375C3.56107 5.9375 3.28125 6.21732 3.28125 6.5625C3.28125 6.90768 3.56107 7.1875 3.90625 7.1875ZM9.96875 6.5625C9.96875 6.90768 9.68893 7.1875 9.34375 7.1875C8.99857 7.1875 8.71875 6.90768 8.71875 6.5625C8.71875 6.21732 8.99857 5.9375 9.34375 5.9375C9.68893 5.9375 9.96875 6.21732 9.96875 6.5625ZM12.0625 7.1875C12.4077 7.1875 12.6875 6.90768 12.6875 6.5625C12.6875 6.21732 12.4077 5.9375 12.0625 5.9375C11.7173 5.9375 11.4375 6.21732 11.4375 6.5625C11.4375 6.90768 11.7173 7.1875 12.0625 7.1875ZM4.53125 9.28125C4.53125 9.62643 4.25143 9.90625 3.90625 9.90625C3.56107 9.90625 3.28125 9.62643 3.28125 9.28125C3.28125 8.93607 3.56107 8.65625 3.90625 8.65625C4.25143 8.65625 4.53125 8.93607 4.53125 9.28125ZM3.90625 12.625C4.25143 12.625 4.53125 12.3452 4.53125 12C4.53125 11.6548 4.25143 11.375 3.90625 11.375C3.56107 11.375 3.28125 11.6548 3.28125 12C3.28125 12.3452 3.56107 12.625 3.90625 12.625ZM7.25 6.5625C7.25 6.90768 6.97018 7.1875 6.625 7.1875C6.27982 7.1875 6 6.90768 6 6.5625C6 6.21732 6.27982 5.9375 6.625 5.9375C6.97018 5.9375 7.25 6.21732 7.25 6.5625ZM6.625 9.90625C6.97018 9.90625 7.25 9.62643 7.25 9.28125C7.25 8.93607 6.97018 8.65625 6.625 8.65625C6.27982 8.65625 6 8.93607 6 9.28125C6 9.62643 6.27982 9.90625 6.625 9.90625ZM7.25 12C7.25 12.3452 6.97018 12.625 6.625 12.625C6.27982 12.625 6 12.3452 6 12C6 11.6548 6.27982 11.375 6.625 11.375C6.97018 11.375 7.25 11.6548 7.25 12ZM9.34375 9.90625C9.68893 9.90625 9.96875 9.62643 9.96875 9.28125C9.96875 8.93607 9.68893 8.65625 9.34375 8.65625C8.99857 8.65625 8.71875 8.93607 8.71875 9.28125C8.71875 9.62643 8.99857 9.90625 9.34375 9.90625ZM12.6875 9.28125C12.6875 9.62643 12.4077 9.90625 12.0625 9.90625C11.7173 9.90625 11.4375 9.62643 11.4375 9.28125C11.4375 8.93607 11.7173 8.65625 12.0625 8.65625C12.4077 8.65625 12.6875 8.93607 12.6875 9.28125ZM9.34375 12.625C9.68893 12.625 9.96875 12.3452 9.96875 12C9.96875 11.6548 9.68893 11.375 9.34375 11.375C8.99857 11.375 8.71875 11.6548 8.71875 12C8.71875 12.3452 8.99857 12.625 9.34375 12.625Z" fill="white"/>
</svg>
