<svg width="18" height="18" viewBox="0 0 18 18" fill="none" xmlns="http://www.w3.org/2000/svg">
<path fill-rule="evenodd" clip-rule="evenodd" d="M17.2982 1.61719C16.9106 1.61719 16.5965 1.93198 16.5965 2.32031V4.22244C15.9021 3.11256 14.9723 2.16429 13.8651 1.44461C12.4111 0.499535 10.7228 0 8.98246 0C8.95604 0 8.93004 0.00175781 8.90435 0.00460547C8.88555 0.00667969 8.86649 0.00952734 8.84779 0.0132539C8.77105 0.0281953 8.69902 0.0558984 8.63341 0.0937266C8.62158 0.100477 8.6099 0.107543 8.59853 0.114961C8.57481 0.130535 8.55204 0.14741 8.53046 0.165691C8.51611 0.17768 8.50218 0.190336 8.48902 0.203449L8.48372 0.208758C8.47074 0.221871 8.45818 0.235723 8.44632 0.249996C8.42776 0.272039 8.4106 0.295277 8.39481 0.319535C8.38769 0.330539 8.38092 0.341789 8.37442 0.35318C8.3366 0.418992 8.30892 0.491238 8.29397 0.568266C8.29025 0.586969 8.28741 0.605988 8.28534 0.624797L8.28421 0.634043C8.28176 0.657211 8.28074 0.680344 8.28074 0.70316C8.28074 0.725941 8.28176 0.749109 8.28421 0.772242L8.28537 0.781594C8.28744 0.800332 8.29025 0.819316 8.29393 0.837914C8.30888 0.914977 8.3366 0.987328 8.37446 1.05318C8.38088 1.06443 8.38755 1.0755 8.39456 1.08636C8.41049 1.11087 8.42779 1.13432 8.44653 1.15657C8.45825 1.17063 8.47063 1.18427 8.48341 1.19721L8.48941 1.20322C8.50246 1.21616 8.51621 1.22871 8.53039 1.24056L8.54151 1.2498C8.55432 1.26021 8.56776 1.27023 8.58151 1.27979L8.59923 1.29182C8.61032 1.29902 8.62165 1.30588 8.63316 1.31245C8.69902 1.35046 8.77141 1.37823 8.84853 1.39321C8.86681 1.39683 8.8854 1.39964 8.90379 1.40164L8.91407 1.40287C8.93698 1.40527 8.9599 1.40632 8.98246 1.40632C11.6364 1.40632 14.099 2.81703 15.4626 5.06014L13.8586 5.06257C13.471 5.06317 13.1573 5.37841 13.1579 5.76675C13.1585 6.15473 13.4725 6.46882 13.8596 6.46882H13.8607L15.9135 6.46573H15.9203C16.4755 6.46573 16.9955 6.25096 17.3853 5.86041C17.784 5.46093 18.0023 4.92462 18 4.35322V2.32031C18 1.93198 17.6858 1.61719 17.2982 1.61719ZM6.63962 1.77574C6.56769 1.7993 6.49471 1.81055 6.42278 1.81055C6.12703 1.81016 5.85191 1.62137 5.75542 1.32434C5.6358 0.954844 5.83756 0.558281 6.20633 0.438398C6.57506 0.318516 6.97053 0.520664 7.09015 0.889805C7.21018 1.2593 7.00804 1.65586 6.63962 1.77574ZM3.54771 2.70067C3.31964 2.38637 3.38911 1.94657 3.70244 1.7184C4.01581 1.48989 4.45472 1.55914 4.68279 1.87309C4.91086 2.18704 4.84174 2.62684 4.52805 2.85536C4.40349 2.94641 4.25893 2.99 4.11578 2.99C3.89897 2.99 3.68525 2.88946 3.54771 2.70067ZM0.888806 7.10227C0.960735 7.12547 1.03372 7.13672 1.10565 7.13672C1.40144 7.13672 1.67652 6.94793 1.77301 6.65086C1.89266 6.28137 1.69091 5.8848 1.32249 5.76492C0.954068 5.64469 0.55793 5.84684 0.438316 6.21598C0.318246 6.58543 0.52 6.982 0.888806 7.10227ZM1.87017 4.69051C1.99508 4.78157 2.13929 4.82516 2.2828 4.82516C2.49929 4.82516 2.71336 4.72497 2.85055 4.53582C3.07862 4.22188 3.00946 3.78207 2.69617 3.55356C2.38287 3.32504 1.94389 3.3943 1.71582 3.70825C1.48772 4.02219 1.55687 4.462 1.87017 4.69051ZM0.0305284 9.20422C0.0238617 9.18207 0.0182477 9.15957 0.0136863 9.13743C0.00912496 9.11496 0.00565129 9.09172 0.00354604 9.06922C0.00105482 9.04602 3.72821e-05 9.02282 3.72821e-05 8.99996C3.72821e-05 8.97711 0.00108991 8.95391 0.00354604 8.93071C0.00568638 8.90821 0.00916005 8.885 0.0137214 8.8625C0.0182477 8.84035 0.0238968 8.81785 0.0305635 8.79571C0.037195 8.77391 0.0449143 8.75211 0.0536862 8.73102C0.0624581 8.70993 0.0722826 8.68883 0.0831948 8.66879C0.0937211 8.64875 0.105651 8.62871 0.118282 8.60973C0.130879 8.59039 0.144598 8.57176 0.159335 8.55418C0.173721 8.53625 0.189475 8.51903 0.205615 8.50286C0.221756 8.48668 0.238949 8.47086 0.256843 8.45645C0.274387 8.44168 0.292983 8.42797 0.312282 8.41532C0.331229 8.40266 0.351264 8.39071 0.371264 8.38016C0.391264 8.36926 0.412316 8.35942 0.433369 8.35063C0.454457 8.34184 0.476176 8.33411 0.49793 8.32743C0.52 8.32075 0.54214 8.31512 0.564596 8.31055C0.587017 8.30598 0.610175 8.30282 0.632631 8.30035C0.678596 8.29578 0.724912 8.29578 0.770876 8.30035C0.793297 8.30282 0.816455 8.30598 0.838946 8.31055C0.861016 8.31512 0.883472 8.32075 0.905577 8.32743C0.927332 8.33411 0.949086 8.34184 0.970139 8.35063C0.991226 8.35942 1.01228 8.36926 1.03228 8.38016C1.05231 8.39071 1.07228 8.40266 1.09123 8.41532C1.11052 8.42797 1.12912 8.44168 1.14666 8.45645C1.16456 8.47086 1.18175 8.48668 1.19789 8.50286C1.21403 8.51903 1.22982 8.53625 1.24421 8.55418C1.25859 8.57176 1.27263 8.59039 1.28526 8.60973C1.29789 8.62871 1.30982 8.64875 1.32035 8.66879C1.33122 8.68883 1.34105 8.70993 1.34982 8.73102C1.35859 8.75211 1.36631 8.77391 1.37298 8.79571C1.37961 8.81785 1.38522 8.84035 1.38979 8.8625C1.39438 8.885 1.39754 8.90821 1.39996 8.93071C1.4021 8.95391 1.40351 8.97711 1.40351 8.99996C1.40351 9.02282 1.4021 9.04602 1.39996 9.06922C1.39754 9.09172 1.39438 9.11493 1.38979 9.13743C1.38526 9.15957 1.37961 9.18207 1.37298 9.20422C1.36631 9.22602 1.35859 9.24782 1.34982 9.26891C1.34105 9.29 1.33122 9.3111 1.32035 9.33114C1.30982 9.35118 1.29789 9.37121 1.28526 9.3902C1.27263 9.40953 1.25859 9.42817 1.24421 9.44575C1.22982 9.46368 1.21403 9.4809 1.19789 9.49707C1.18175 9.51325 1.16456 9.52907 1.14666 9.54348C1.12912 9.55789 1.11052 9.57196 1.09123 9.58461C1.07228 9.59727 1.05228 9.60922 1.03228 9.61977C1.01224 9.63067 0.991226 9.64051 0.970139 9.6493C0.949086 9.65809 0.927332 9.66582 0.905577 9.6725C0.883507 9.67918 0.861051 9.68481 0.838946 9.68938C0.81649 9.69395 0.793332 9.69711 0.770876 9.69957C0.747718 9.70203 0.724526 9.70309 0.701754 9.70309C0.678912 9.70309 0.655754 9.70203 0.632596 9.69957C0.610175 9.69711 0.586982 9.69395 0.564561 9.68938C0.54214 9.68481 0.52 9.67918 0.497895 9.6725C0.476141 9.66582 0.454421 9.65809 0.433334 9.6493C0.412281 9.64051 0.391194 9.63067 0.371229 9.61977C0.351194 9.60922 0.331194 9.59727 0.312247 9.58461C0.292948 9.57196 0.274352 9.55789 0.256808 9.54348C0.238913 9.52907 0.221721 9.51325 0.20558 9.49707C0.18944 9.4809 0.173686 9.46368 0.1593 9.44575C0.144563 9.42817 0.130844 9.40953 0.118247 9.3902C0.105616 9.37121 0.093686 9.35118 0.0831598 9.33114C0.0722475 9.3111 0.062423 9.29 0.0536511 9.26891C0.0448792 9.24782 0.0371599 9.22602 0.0305284 9.20422ZM16.227 11.3491C16.3466 10.98 16.7427 10.7778 17.1112 10.8981C17.4799 11.0179 17.6813 11.4145 17.5617 11.784C17.4655 12.0811 17.1905 12.2698 16.8947 12.2698C16.8228 12.2698 16.7494 12.2586 16.6775 12.2354C16.3087 12.1152 16.1073 11.7186 16.227 11.3491ZM11.3603 16.2242C10.9915 16.3441 10.7898 16.7407 10.9094 17.1102C11.0059 17.4072 11.281 17.5964 11.5768 17.5964C11.6488 17.5964 11.7217 17.5851 11.7937 17.5616C12.1624 17.4417 12.3642 17.0451 12.2445 16.676C12.1249 16.3065 11.7291 16.1043 11.3603 16.2242ZM15.1494 13.4641C15.3775 13.1502 15.8164 13.0809 16.1298 13.3094C16.4431 13.5379 16.5119 13.9777 16.2842 14.2917C16.1467 14.4808 15.933 14.581 15.7161 14.581C15.573 14.581 15.4284 14.5371 15.3035 14.4464C14.9902 14.2179 14.9214 13.7781 15.1494 13.4641ZM13.4715 15.1446C13.1582 15.3731 13.0891 15.8129 13.3172 16.1268C13.4547 16.316 13.6684 16.4162 13.8852 16.4162C14.0284 16.4162 14.1729 16.3726 14.2975 16.2815C14.6109 16.053 14.6799 15.6132 14.4519 15.2993C14.2242 14.9854 13.7852 14.9161 13.4715 15.1446ZM17.9694 8.79571C17.9761 8.81785 17.9817 8.84035 17.9862 8.8625C17.9908 8.885 17.994 8.90821 17.9965 8.93071C17.9986 8.95391 18 8.97711 18 8.99996C18 9.18524 17.9249 9.36629 17.7944 9.49707C17.7782 9.51325 17.7611 9.52907 17.7432 9.54348C17.7256 9.55789 17.707 9.57196 17.6877 9.58461C17.6688 9.59727 17.6488 9.60922 17.6288 9.61977C17.6087 9.63067 17.5877 9.64051 17.5666 9.6493C17.5456 9.65809 17.5238 9.66582 17.5021 9.6725C17.48 9.67918 17.4575 9.68481 17.4354 9.68938C17.413 9.69395 17.3898 9.69746 17.3674 9.69957C17.3442 9.70203 17.321 9.70309 17.2982 9.70309C17.2754 9.70309 17.2522 9.70203 17.2291 9.69957C17.2067 9.69746 17.1835 9.69395 17.1611 9.68938C17.139 9.68481 17.1165 9.67918 17.0944 9.6725C17.0726 9.66582 17.0509 9.65809 17.0298 9.6493C17.0088 9.64051 16.9877 9.63067 16.9677 9.61977C16.9477 9.60922 16.9277 9.59727 16.9087 9.58461C16.8894 9.57196 16.8708 9.55789 16.8533 9.54348C16.8354 9.52907 16.8182 9.51325 16.8021 9.49707C16.6712 9.36629 16.5965 9.18489 16.5965 8.99996C16.5965 8.97711 16.5975 8.95391 16.6 8.93071C16.6021 8.90821 16.6056 8.885 16.6102 8.8625C16.6147 8.84035 16.6204 8.81785 16.627 8.79571C16.6337 8.77391 16.6414 8.75211 16.6501 8.73102C16.6589 8.70993 16.6687 8.68883 16.6797 8.66879C16.6902 8.64875 16.7021 8.62871 16.7147 8.60973C16.7273 8.59039 16.7411 8.57176 16.7558 8.55418C16.7702 8.53625 16.7859 8.51903 16.8021 8.50286C16.8182 8.48668 16.8354 8.47086 16.8533 8.45645C16.8708 8.44203 16.8894 8.42797 16.9087 8.41532C16.9277 8.40266 16.9477 8.39071 16.9677 8.38016C16.9877 8.36926 17.0088 8.35942 17.0298 8.35063C17.0509 8.34184 17.0726 8.33411 17.0944 8.32743C17.1165 8.32075 17.139 8.31512 17.1611 8.31055C17.1835 8.30598 17.2066 8.30282 17.2291 8.30035C17.2751 8.29578 17.3214 8.29578 17.3673 8.30035C17.3898 8.30282 17.4129 8.30598 17.4354 8.31055C17.4575 8.31512 17.4799 8.32075 17.502 8.32743C17.5238 8.33411 17.5455 8.34184 17.5666 8.35063C17.5877 8.35942 17.6087 8.36926 17.6287 8.38016C17.6488 8.39071 17.6687 8.40266 17.6877 8.41532C17.707 8.42797 17.7256 8.44203 17.7431 8.45645C17.761 8.47086 17.7782 8.48668 17.7944 8.50286C17.8105 8.51903 17.8263 8.53625 17.8407 8.55418C17.8551 8.57176 17.8691 8.59039 17.8817 8.60973C17.8944 8.62871 17.9059 8.64875 17.9168 8.66879C17.9277 8.68883 17.9375 8.70993 17.9463 8.73102C17.9551 8.75211 17.9628 8.77391 17.9694 8.79571ZM9.7193 17.2968C9.7193 17.2745 9.71824 17.2518 9.71586 17.2291L9.71452 17.2175C9.71256 17.1995 9.70982 17.1814 9.70628 17.1634C9.6914 17.0858 9.66361 17.013 9.62554 16.9468C9.61916 16.9356 9.61249 16.9245 9.60551 16.9137C9.6013 16.9073 9.59705 16.9009 9.59266 16.8947C9.5834 16.8813 9.57372 16.8682 9.56365 16.8558L9.55337 16.8433C9.54189 16.8295 9.52979 16.8162 9.51726 16.8035L9.50989 16.7961C9.49733 16.7837 9.48407 16.7716 9.47042 16.7602L9.45726 16.7493C9.44498 16.7394 9.43221 16.7298 9.41905 16.7207C9.4127 16.7163 9.40631 16.7119 9.39982 16.7077C9.38909 16.7007 9.37814 16.6941 9.36702 16.6877C9.30088 16.6495 9.22821 16.6217 9.15074 16.6068C9.13319 16.6033 9.11537 16.6008 9.09775 16.5987C9.0714 16.5956 9.04467 16.5938 9.01747 16.5938C6.36349 16.5938 3.90093 15.183 2.53733 12.9399L4.14135 12.9375C4.52893 12.9369 4.84261 12.6216 4.84205 12.2333C4.84146 11.8453 4.52739 11.5312 4.14034 11.5312H4.13925L2.08648 11.5344H2.07964C1.52442 11.5344 1.00442 11.7491 0.614666 12.1397C0.216001 12.5391 -0.00231359 13.0754 3.72821e-05 13.6468V15.6797C3.72821e-05 16.068 0.314211 16.3828 0.701789 16.3828C1.08937 16.3828 1.40354 16.068 1.40354 15.6797V13.7776C2.09789 14.8875 3.02774 15.8357 4.1349 16.5554C5.58854 17.5002 7.2765 17.9998 9.01646 18L9.01758 18C9.04032 18 9.0634 17.9989 9.08653 17.9965L9.09582 17.9954C9.11456 17.9933 9.13358 17.9904 9.15221 17.9867C9.22902 17.9718 9.30109 17.9441 9.36674 17.9062C9.37824 17.8996 9.38958 17.8928 9.40067 17.8856C9.42481 17.8697 9.44796 17.8526 9.46989 17.834C9.48389 17.8223 9.49744 17.81 9.51031 17.7972L9.51695 17.7905C9.52965 17.7776 9.542 17.7641 9.55368 17.7501L9.5634 17.7383C9.57365 17.7257 9.58347 17.7124 9.59287 17.6988C9.59708 17.6928 9.60119 17.6867 9.60523 17.6805C9.61242 17.6695 9.61919 17.6582 9.62572 17.6467C9.66372 17.5806 9.69144 17.5078 9.70628 17.4304C9.70986 17.4125 9.71256 17.3942 9.71456 17.3761L9.71589 17.3647C9.71821 17.342 9.7193 17.3192 9.7193 17.2968ZM9.88958 11.2448L10.5291 10.6087C11.2694 9.88432 12.0143 10.3174 12.7592 11.0371C13.131 11.3962 13.1522 11.9859 12.8072 12.371L12.7984 12.3808C12.3473 12.8327 11.72 13.0465 11.0096 13.0429L11.0052 13.0386C9.74028 13.0323 8.21204 12.3369 6.94692 11.0703C5.68282 9.80272 4.98879 8.27146 4.98247 7.00404C4.97893 6.29227 5.1923 5.66371 5.64331 5.21177L5.65314 5.20295C6.03749 4.85729 6.62594 4.87853 6.98443 5.25104C7.70274 5.99738 8.13492 6.74374 7.41194 7.48547L6.77713 8.1263C6.77713 8.1263 7.14559 8.95528 8.08134 9.89286L8.12646 9.938C9.06221 10.8756 9.88958 11.2448 9.88958 11.2448Z" fill="white"/>
</svg>
