<svg width="24" height="20" viewBox="0 0 24 20" fill="none" xmlns="http://www.w3.org/2000/svg">
<path fill-rule="evenodd" clip-rule="evenodd" d="M15.5153 0.00479786L15.2869 0H8.71307L8.48469 0.00479786C6.58931 0.0845626 4.89704 1.1539 4.02905 2.83854L1.36505 8.05519L1.32825 8.1373C0.503357 9.03375 0 10.2239 0 11.5278V19.0741L0.00550043 19.175C0.0563932 19.6389 0.454199 20 0.9375 20H4.6875L4.78966 19.9946C5.25941 19.9443 5.625 19.5514 5.625 19.0741V16.7593H18.375V19.0741L18.3814 19.1826C18.4319 19.6098 18.7767 19.9482 19.2103 19.9946L19.3125 20H23.0625L23.1724 19.9937C23.6049 19.9438 23.9475 19.6032 23.9945 19.175L24 19.0741V11.5278L23.9933 11.2686C23.9315 10.0665 23.4417 8.97398 22.6718 8.1373L22.6349 8.05519L19.9709 2.83854L19.8629 2.63936C18.9673 1.06994 17.3349 0.0813721 15.5153 0.00479786ZM1.875 16.7593H3.75V18.1481H1.875V16.7593ZM22.125 16.7593H20.25V18.1481H22.125V16.7593ZM5.10938 8.33333H18.8906L19.0678 8.33807C20.7105 8.42609 22.0311 9.73035 22.1202 11.3528L22.125 11.5278V14.9074H19.1852L16.1785 11.9378L16.0856 11.8574C15.9555 11.759 15.8014 11.696 15.6389 11.6747L15.5156 11.6667H8.48438L8.36114 11.6747C8.15799 11.7013 7.96802 11.7931 7.82153 11.9378L4.81476 14.9074H1.875V11.5278L1.87979 11.3528C1.9721 9.67241 3.38538 8.33333 5.10938 8.33333ZM4.6875 10.7407C5.20532 10.7407 5.625 11.1552 5.625 11.6667C5.625 12.1781 5.20532 12.5926 4.6875 12.5926C4.16968 12.5926 3.75 12.1781 3.75 11.6667C3.75 11.1552 4.16968 10.7407 4.6875 10.7407ZM20.25 11.6667C20.25 11.1552 19.8303 10.7407 19.3125 10.7407C18.7947 10.7407 18.375 11.1552 18.375 11.6667C18.375 12.1781 18.7947 12.5926 19.3125 12.5926C19.8303 12.5926 20.25 12.1781 20.25 11.6667ZM8.87274 13.5185L7.46649 14.9074H16.5335L15.1273 13.5185H8.87274ZM5.79793 3.50128C6.40306 2.47885 7.50244 1.85185 8.71307 1.85185H15.2869L15.4876 1.85762C16.6182 1.92274 17.6306 2.53566 18.2021 3.50128L18.2983 3.67531L19.7697 6.55653L19.578 6.52722C19.4495 6.51002 19.3195 6.49755 19.1882 6.49001L18.8906 6.48148H5.10938L4.81176 6.49001C4.61481 6.50131 4.42084 6.52374 4.23029 6.55653L5.70172 3.67531L5.79793 3.50128Z" fill="white"/>
</svg>
