<svg width="30" height="26" viewBox="0 0 30 26" fill="none" xmlns="http://www.w3.org/2000/svg">
<path fill-rule="evenodd" clip-rule="evenodd" d="M28.122 12.5532C28.7306 12.3361 29.4024 12.6478 29.6221 13.2499C29.8727 13.937 30 14.6587 30 15.3948V24.841C30 25.4812 29.4754 26 28.8281 26H24.1406C23.4933 26 22.9688 25.4812 22.9688 24.841V21.9434H7.03125V24.841C7.03125 25.4812 6.50665 26 5.85938 26H1.17188C0.524597 26 0 25.4812 0 24.841V15.3948C0 13.7627 0.629196 12.2729 1.66031 11.1508C1.67381 11.1161 1.68892 11.082 1.70631 11.048L5.03632 4.51801C6.1647 2.3249 8.40752 0.964844 10.8913 0.964844H14.8283C15.4756 0.964844 16.0002 1.48369 16.0002 2.12388C16.0002 2.76407 15.4756 3.28292 14.8283 3.28292H10.8913C9.29398 3.28292 7.85156 4.1574 7.12715 5.56545L5.28786 9.17204C5.64514 9.11047 6.01204 9.0781 6.38672 9.0781H16.2891C16.9363 9.0781 17.4609 9.59695 17.4609 10.2371C17.4609 10.8773 16.9363 11.3962 16.2891 11.3962H6.38672C4.15741 11.3962 2.34375 13.19 2.34375 15.3948V19.6253H6.01845L9.77692 15.908C9.99664 15.6907 10.2946 15.5687 10.6055 15.5687H19.3945C19.7054 15.5687 20.0034 15.6907 20.2231 15.908L23.9816 19.6253H27.6562V15.3948C27.6562 14.9278 27.5759 14.471 27.4175 14.0371C27.1978 13.4349 27.5132 12.7707 28.122 12.5532ZM18.9091 17.8868H11.0909L9.33311 19.6253H20.6669L18.9091 17.8868ZM4.6875 23.682H2.34375V21.9434H4.6875V23.682ZM25.3125 23.682H27.6562V21.9434H25.3125V23.682ZM24.1406 14.4097C24.7879 14.4097 25.3125 14.9285 25.3125 15.5687C25.3125 16.2089 24.7879 16.7277 24.1406 16.7277C23.4933 16.7277 22.9688 16.2089 22.9688 15.5687C22.9688 14.9285 23.4933 14.4097 24.1406 14.4097ZM7.03125 15.5687C7.03125 14.9285 6.50665 14.4097 5.85938 14.4097C5.2121 14.4097 4.6875 14.9285 4.6875 15.5687C4.6875 16.2089 5.2121 16.7277 5.85938 16.7277C6.50665 16.7277 7.03125 16.2089 7.03125 15.5687Z" fill="currentColor"/>
<path opacity="0.5" d="M29.6747 0.355096C29.2415 -0.118515 28.5381 -0.118216 28.1044 0.355096L21.037 8.07246L17.8959 4.64259C17.4621 4.16898 16.759 4.16898 16.3253 4.64259C15.8916 5.1162 15.8916 5.88391 16.3253 6.35752L20.2516 10.6447C20.4683 10.8814 20.7525 11 21.0367 11C21.3209 11 21.6054 10.8817 21.8221 10.6447L29.6747 2.07C30.1084 1.59672 30.1084 0.828678 29.6747 0.355096Z" fill="currentColor"/>
</svg>
