<svg width="30" height="24" viewBox="0 0 30 24" fill="none" xmlns="http://www.w3.org/2000/svg">
<path fill-rule="evenodd" clip-rule="evenodd" d="M29.7676 0.258252C29.4582 -0.0861925 28.9558 -0.0859754 28.646 0.258252L23.5979 5.87088L21.3542 3.37643C21.0444 3.03198 20.5422 3.03198 20.2324 3.37643C19.9225 3.72087 19.9225 4.27921 20.2324 4.62365L23.0368 7.74161C23.1916 7.91373 23.3946 8 23.5977 8C23.8007 8 24.0039 7.91394 24.1587 7.74161L29.7676 1.50546C30.0775 1.16125 30.0775 0.602675 29.7676 0.258252ZM17.3077 4.79146C17.3077 4.21306 17.3771 3.65104 17.5088 3.11297C13.4142 2.73693 8.72245 3.29967 6.41484 4.80117C5.45952 5.42385 4.61058 6.96554 3.9236 8.62737L3.68795 9.21759H0.768268L0.653705 9.22606C0.465601 9.25408 0.293944 9.35042 0.172962 9.49793C0.0270166 9.6742 -0.0313617 9.90744 0.0162627 10.1316L0.448723 12.2042L0.481972 12.318C0.593047 12.6104 0.87777 12.8097 1.20073 12.8097H2.06565L1.88059 13.0338C1.17077 13.947 0.825464 15.0544 0.820501 16.1624C0.815124 17.6455 1.38431 18.9857 2.42514 19.9338L2.45894 19.9604V22.8604L2.46669 22.9931C2.53329 23.5591 3.02055 24 3.61114 24H6.30422L6.43853 23.9923C7.01135 23.9264 7.45643 23.4438 7.45643 22.8604V21.6949H22.5434V22.8604L22.5511 22.9931C22.6177 23.5591 23.105 24 23.6956 24H26.3887L26.5227 23.9923C27.0945 23.9264 27.5409 23.4438 27.5409 22.8604V20.0174L27.7541 19.8124C28.7135 18.8333 29.1736 17.5485 29.1801 16.2658C29.1847 15.0243 28.7614 13.7806 27.8773 12.8082H28.7999L28.9194 12.799C29.2317 12.7508 29.4877 12.5166 29.5519 12.2019L29.9851 10.13L29.999 10.0183C30.0085 9.83169 29.9492 9.64608 29.8276 9.49793C29.7494 9.40359 29.6507 9.33017 29.5401 9.28405C28.2701 10.8168 26.363 11.7915 24.2308 11.7915C22.6836 11.7915 21.2549 11.2783 20.1022 10.4111L5.70124 10.4096L5.8138 10.1071C6.45453 8.41185 7.14021 7.05593 7.67996 6.70434C9.54691 5.48889 13.7552 5.04475 17.3312 5.37261C17.3156 5.18097 17.3077 4.98715 17.3077 4.79146ZM4 16.4996C4 15.1185 5.11996 14 6.5 14C7.88173 14 9 15.1185 9 16.4996C9 17.8807 7.88173 19 6.5 19C5.11996 19 4 17.8807 4 16.4996ZM23.5 14C22.12 14 21 15.1185 21 16.4996C21 17.8807 22.12 19 23.5 19C24.88 19 26 17.8807 26 16.4996C26 15.1185 24.8817 14 23.5 14Z" fill="#3E73CF"/>
</svg>
