<svg width="16" height="16" viewBox="0 0 16 16" fill="none" xmlns="http://www.w3.org/2000/svg">
<path fill-rule="evenodd" clip-rule="evenodd" d="M0 16L3.564 13.1282H15.2C15.4122 13.1282 15.6157 13.0417 15.7657 12.8879C15.9157 12.734 16 12.5253 16 12.3077V0.820513C16 0.602896 15.9157 0.394199 15.7657 0.24032C15.6157 0.0864492 15.4122 0 15.2 0H0.8C0.587824 0 0.384344 0.0864492 0.234312 0.24032C0.084288 0.394199 0 0.602896 0 0.820513V16ZM4.8 5.74359H7.2V3.28205H8.8V5.74359H11.2V7.38462H8.8V9.84615H7.2V7.38462H4.8V5.74359Z" fill="white"/>
</svg>
