<svg width="16" height="14" viewBox="0 0 16 14" fill="none" xmlns="http://www.w3.org/2000/svg">
<path fill-rule="evenodd" clip-rule="evenodd" d="M5.92819 0H13.5C14.8785 0 16 1.08962 16 2.42896V5.03432C16 5.36969 15.7202 5.64155 15.375 5.64155C15.0298 5.64155 14.75 5.36969 14.75 5.03432V2.42896C14.75 1.7593 14.1892 1.21449 13.5 1.21449H5.92819C5.33519 1.21449 4.81988 1.62343 4.70291 2.18688C4.63462 2.51561 4.30491 2.72808 3.96663 2.66204C3.62828 2.5957 3.40931 2.27545 3.47756 1.94669C3.71178 0.8187 4.74244 0 5.92819 0ZM0 8.8889C0 6.08258 2.34991 3.79948 5.23834 3.79948C8.12681 3.79948 10.4767 6.08258 10.4767 8.88887C10.4767 11.6952 8.12681 13.9783 5.23834 13.9783C4.63769 13.9783 4.05056 13.8807 3.49028 13.6879L1.90997 13.9887C1.86997 13.9963 1.82972 14 1.78978 14C1.61894 14 1.45341 13.9319 1.33409 13.8083C1.18688 13.6559 1.13066 13.4407 1.18531 13.2385L1.41944 12.3723C0.513188 11.4331 0 10.1834 0 8.8889ZM3.77325 12.4942C4.23931 12.6732 4.73225 12.7639 5.23834 12.7639C7.43753 12.7639 9.22672 11.0256 9.22672 8.8889C9.22672 6.75223 7.43753 5.01394 5.23834 5.01394C3.03916 5.01394 1.25 6.75223 1.25 8.8889C1.25 9.96947 1.71969 11.0091 2.53859 11.7412C2.70894 11.8935 2.77872 12.1248 2.71991 12.3423L2.64734 12.6108L3.42341 12.4631C3.46319 12.4555 3.50341 12.4518 3.54356 12.4518C3.62184 12.4518 3.69978 12.466 3.77325 12.4942ZM6.41919 7.22469H4.0575C3.71231 7.22469 3.4325 7.49655 3.4325 7.83192C3.4325 8.1673 3.71231 8.43915 4.0575 8.43915H6.41919C6.76437 8.43915 7.04419 8.1673 7.04419 7.83192C7.04419 7.49655 6.76437 7.22469 6.41919 7.22469ZM4.0575 9.36032H6.41919C6.76437 9.36032 7.04419 9.63218 7.04419 9.96756C7.04419 10.3029 6.76437 10.5748 6.41919 10.5748H4.0575C3.71231 10.5748 3.4325 10.3029 3.4325 9.96756C3.4325 9.63218 3.71231 9.36032 4.0575 9.36032ZM15.375 7.46321C15.0298 7.46321 14.75 7.73507 14.75 8.07044V8.08092C14.75 8.73928 14.1991 9.284 13.5219 9.2952C13.3537 9.29799 13.1937 9.36661 13.0781 9.48548C12.9846 9.58178 12.9266 9.70444 12.9115 9.83439L12.5685 9.62523C12.2761 9.44704 11.8904 9.53272 11.7069 9.81678C11.5234 10.1008 11.6117 10.4756 11.904 10.6539L13.2443 11.4711C13.3457 11.5329 13.4611 11.564 13.5765 11.564C13.6847 11.564 13.7929 11.5368 13.89 11.4821C14.0906 11.3691 14.2103 11.1574 14.201 10.9323L14.1796 10.4194C14.5938 10.3064 14.9725 10.09 15.2819 9.78454C15.745 9.32735 16 8.72237 16 8.08092V8.07044C16 7.73507 15.7202 7.46321 15.375 7.46321Z" fill="white"/>
</svg>
