<svg width="16" height="15" viewBox="0 0 16 15" fill="none" xmlns="http://www.w3.org/2000/svg">
<path fill-rule="evenodd" clip-rule="evenodd" d="M2.15013e-05 7.10526C2.15013e-05 3.18737 3.58882 0 8.00001 0C12.4112 0 16 3.18737 16 7.10526C16 11.0232 12.4112 14.2105 8.00001 14.2105C6.86321 14.2105 5.76561 14.0026 4.73522 13.5924C2.92055 14.6261 0.411754 14.9824 0.303754 14.9974C0.291221 14.9992 0.278954 15 0.266688 15C0.166688 15 0.0733547 14.9445 0.0280215 14.8542C-0.0231785 14.7532 -0.00291183 14.6308 0.0781547 14.5508C0.691487 13.9458 1.11389 12.6687 1.27149 10.9484C0.438954 9.80132 2.15013e-05 8.47474 2.15013e-05 7.10526ZM3.20002 7.10526C3.20002 7.68579 3.67842 8.15789 4.26668 8.15789C4.85495 8.15789 5.33335 7.68579 5.33335 7.10526C5.33335 6.52474 4.85495 6.05263 4.26668 6.05263C3.67842 6.05263 3.20002 6.52474 3.20002 7.10526ZM8.00001 8.15789C7.41174 8.15789 6.93335 7.68579 6.93335 7.10526C6.93335 6.52474 7.41174 6.05263 8.00001 6.05263C8.58828 6.05263 9.06668 6.52474 9.06668 7.10526C9.06668 7.68579 8.58828 8.15789 8.00001 8.15789ZM10.6667 7.10526C10.6667 7.68579 11.1451 8.15789 11.7333 8.15789C12.3216 8.15789 12.8 7.68579 12.8 7.10526C12.8 6.52474 12.3216 6.05263 11.7333 6.05263C11.1451 6.05263 10.6667 6.52474 10.6667 7.10526Z" fill="#D5D5D5"/>
</svg>
