<svg width="18" height="18" viewBox="0 0 18 18" fill="none" xmlns="http://www.w3.org/2000/svg">
<path fill-rule="evenodd" clip-rule="evenodd" d="M16.5 9C16.5 8.586 16.836 8.25 17.25 8.25C17.664 8.25 18 8.586 18 9C18 13.9627 13.9627 18 9 18C4.03725 18 0 13.9627 0 9C0 4.03725 4.03725 0 9 0C11.4158 0 13.6841 0.94425 15.3866 2.65875C15.6784 2.95275 15.6769 3.4275 15.3829 3.71925C15.0889 4.01137 14.6138 4.00988 14.3224 3.7155C12.9034 2.28675 11.0134 1.5 9 1.5C4.8645 1.5 1.5 4.8645 1.5 9C1.5 13.1355 4.8645 16.5 9 16.5C13.1355 16.5 16.5 13.1355 16.5 9ZM11.8448 6.59475C12.1372 6.30188 12.6128 6.30188 12.9053 6.59475C13.1981 6.88763 13.1981 7.36238 12.9053 7.65525L9.15525 11.4053C9.009 11.5519 8.817 11.625 8.625 11.625C8.433 11.625 8.241 11.5519 8.09475 11.4053L6.21975 9.53025C5.92688 9.23738 5.92688 8.76262 6.21975 8.46975C6.51225 8.17688 6.98775 8.17688 7.28025 8.46975L8.625 9.81413L11.8448 6.59475Z" fill="white"/>
</svg>
