<svg width="40" height="40" viewBox="0 0 40 40" fill="none" xmlns="http://www.w3.org/2000/svg">
<path fill-rule="evenodd" clip-rule="evenodd" d="M20 36.875C23.0862 36.875 26.1047 36.0345 28.7292 34.4449C29.4674 33.9978 30.4281 34.2334 30.8755 34.9716C31.3226 35.7098 31.0867 36.6705 30.3485 37.1176C27.2357 39.0033 23.6572 40 20 40C14.6579 40 9.63531 37.9196 5.85784 34.1422C2.08038 30.3647 0 25.3421 0 20C0 14.6579 2.08038 9.63531 5.85784 5.85785C9.63531 2.08038 14.6579 0 20 0C24.0826 0 28.0096 1.22253 31.3568 3.53516C32.0669 4.02588 32.2445 4.99908 31.7541 5.70892C31.2634 6.41876 30.2902 6.59668 29.5804 6.10626C26.7578 4.15588 23.4451 3.125 20 3.125C10.6952 3.125 3.125 10.6952 3.125 20C3.125 29.3048 10.6952 36.875 20 36.875ZM36.6113 31.1026C38.8281 27.7869 40 23.9478 40 20C40 18.3075 39.7879 16.6257 39.3698 15.0009C39.1546 14.1653 38.3032 13.6624 37.467 13.8773C36.6314 14.0924 36.1282 14.9445 36.3433 15.78C36.6961 17.1503 36.875 18.5703 36.875 20C36.875 23.3273 35.8856 26.5659 34.0133 29.3658C33.5339 30.0833 33.7265 31.0538 34.4439 31.5332C34.7107 31.7117 35.0125 31.7969 35.3109 31.7969C35.8151 31.7969 36.3101 31.5533 36.6113 31.1026Z" fill="#1886C4"/>
<path opacity="0.5" d="M20.1508 24.5307C19.9033 24.5404 19.6722 24.4526 19.4928 24.2817L11.3095 16.5226C10.6833 15.9287 9.69423 15.9549 9.10067 16.5812C8.50679 17.2074 8.53304 18.1964 9.15926 18.79L17.341 26.5479C18.0966 27.2663 19.0741 27.6563 20.1099 27.6563C20.1654 27.6563 20.221 27.6551 20.2765 27.6529C21.3736 27.6087 22.3813 27.1338 23.1137 26.3156C23.1323 26.2952 23.15 26.2741 23.1674 26.2525L39.6551 5.74467C40.1959 5.07206 40.0891 4.08848 39.4165 3.54801C38.7442 3.00724 37.7603 3.11405 37.2195 3.78666L20.7642 24.2545C20.6024 24.4233 20.3858 24.5212 20.1508 24.5307Z" fill="#1886C4"/>
</svg>
