<svg width="18" height="18" viewBox="0 0 18 18" fill="none" xmlns="http://www.w3.org/2000/svg">
<path fill-rule="evenodd" clip-rule="evenodd" d="M16.4751 13.9963C17.4727 12.5042 18 10.7765 18 9C18 6.59605 17.0638 4.33589 15.364 2.63603C13.6641 0.936172 11.4039 0 9 0C6.59605 0 4.33589 0.936172 2.63603 2.63603C0.936172 4.33589 0 6.59605 0 9C0 11.4039 0.936172 13.6641 2.63603 15.364C4.33589 17.0638 6.59605 18 9 18C10.6458 18 12.2561 17.5515 13.6568 16.7029C13.989 16.5017 14.0952 16.0694 13.894 15.7374C13.6928 15.4052 13.2604 15.299 12.9283 15.5002C11.7473 16.2155 10.3888 16.5938 9 16.5938C4.81284 16.5938 1.40625 13.1872 1.40625 9C1.40625 4.81284 4.81284 1.40625 9 1.40625C13.1872 1.40625 16.5938 4.81284 16.5938 9C16.5938 10.4973 16.1485 11.9546 15.306 13.2148C15.0903 13.5375 15.1769 13.9742 15.4998 14.1901C15.8226 14.4058 16.2594 14.319 16.4751 13.9963ZM9.87891 13.4297C9.69818 13.4297 9.51759 13.3605 9.38013 13.2222C9.10643 12.9467 9.1078 12.5015 9.38329 12.2278L11.9244 9.70312H4.64062C4.25226 9.70312 3.9375 9.38837 3.9375 9C3.9375 8.61163 4.25226 8.29688 4.64062 8.29688H11.9243L9.38329 5.77222C9.1078 5.49852 9.10643 5.0533 9.38013 4.77782C9.65382 4.50247 10.099 4.50096 10.3745 4.77466L13.1237 7.50627C13.5251 7.90494 13.7461 8.43544 13.7461 9C13.7461 9.56456 13.5251 10.0951 13.1237 10.4937L10.3745 13.2253C10.2373 13.3616 10.0581 13.4297 9.87891 13.4297Z" fill="white"/>
</svg>
