<svg width="40" height="36" viewBox="0 0 40 36" fill="none" xmlns="http://www.w3.org/2000/svg">
<path opacity="0.5" d="M28.1406 21.1978L23.3239 16.2795C22.4368 15.3736 21.2563 14.8748 20 14.8748C18.7436 14.8748 17.5632 15.3736 16.676 16.2795L11.8593 21.1978C11.2517 21.8183 11.2558 22.8202 11.8684 23.4356C12.4811 24.051 13.4704 24.047 14.0781 23.4265L18.3593 19.0549V34.4176C18.3593 35.2916 19.0589 36 19.9218 36C20.7848 36 21.4843 35.2916 21.4843 34.4176V18.8953L25.9218 23.4265C26.2274 23.7384 26.6292 23.8945 27.0313 23.8945C27.429 23.8945 27.8269 23.7417 28.1315 23.4356C28.7442 22.8202 28.7483 21.8183 28.1406 21.1978Z" fill="#1886C4"/>
<path d="M36.0938 11.8401V10.7859C36.0938 4.83856 31.3161 0 25.4436 0C22.8864 0 20.4138 0.931728 18.4815 2.62365C17.2031 3.74289 16.2139 5.1461 15.5836 6.70557C14.6147 6.20411 13.5326 5.93407 12.4219 5.93407C8.58789 5.93407 5.46875 9.09297 5.46875 12.9758V14.4149C2.34203 15.1249 0 17.9351 0 21.2835C0 23.1645 0.703047 24.9284 1.97969 26.2502C3.27195 27.5884 5.01047 28.3253 6.875 28.3253H7.42188C8.28484 28.3253 8.98438 27.6168 8.98438 26.7429C8.98438 25.8689 8.28484 25.1604 7.42188 25.1604H6.875C4.77219 25.1604 3.125 23.4575 3.125 21.2835C3.125 19.1457 4.87195 17.4066 7.01922 17.4066H7.03125C7.89422 17.4066 8.59375 16.6981 8.59375 15.8242V12.9758C8.59375 10.8381 10.311 9.0989 12.4219 9.0989C13.5184 9.0989 14.5646 9.57774 15.2923 10.4126C15.6934 10.8728 16.3209 11.0565 16.9026 10.8841C17.4842 10.7117 17.9149 10.2143 18.0077 9.60773C18.5697 5.9347 21.7663 3.16484 25.4435 3.16484C29.593 3.16484 32.9688 6.58365 32.9688 10.7859V12.7321C32.9688 13.3176 33.288 13.8553 33.7988 14.1299C35.6963 15.1498 36.875 17.1329 36.875 19.3055C36.875 22.0557 35.0294 24.4031 32.3867 25.0138C31.5454 25.2082 31.0191 26.0566 31.211 26.9085C31.403 27.7607 32.2407 28.2939 33.082 28.0993C35.0173 27.652 36.7733 26.54 38.0264 24.9681C39.2991 23.3718 40 21.3607 40 19.3055C40 16.2884 38.5249 13.5089 36.0938 11.8401Z" fill="#1886C4"/>
</svg>
