<svg width="22" height="16" viewBox="0 0 22 16" fill="none" xmlns="http://www.w3.org/2000/svg">
<path d="M17.19 16H13.6342H12.6767H12.47V11.2328H14.0298C14.4254 11.2328 14.6592 10.7835 14.4254 10.46L11.3911 6.26341C11.1978 5.99382 10.7977 5.99382 10.6044 6.26341L7.57009 10.46C7.33633 10.7835 7.56559 11.2328 7.96567 11.2328H9.52554V16H9.31876H8.36126H4.23907C1.87904 15.8697 0 13.6636 0 11.2732C0 9.62426 0.894565 8.18646 2.22068 7.40915C2.09931 7.08116 2.03637 6.73069 2.03637 6.36226C2.03637 4.67734 3.39845 3.31592 5.08418 3.31592C5.4483 3.31592 5.79894 3.37883 6.12709 3.50014C7.10257 1.43331 9.20638 0 11.6518 0C14.8165 0.00449312 17.4238 2.42628 17.7205 5.51306C20.1524 5.93092 22 8.18197 22 10.7296C22 13.4524 19.8782 15.8113 17.19 16Z" fill="#3E73CF"/>
</svg>
