<svg width="14" height="15" viewBox="0 0 14 15" fill="none" xmlns="http://www.w3.org/2000/svg">
<path fill-rule="evenodd" clip-rule="evenodd" d="M0 10.8984C0 11.8677 0.78505 12.6562 1.75 12.6562H8.75C9.71495 12.6562 10.5 11.8677 10.5 10.8984V2.92969C10.5 2.46018 10.318 2.01876 9.98745 1.68674L8.82079 0.514863L8.82076 0.514834C8.49021 0.182842 8.05073 0 7.58333 0H1.75C0.78505 0 0 0.788555 0 1.75781V10.8984ZM1.16667 1.75781C1.16667 1.43473 1.42835 1.17188 1.75 1.17188H7.58333C7.73914 1.17188 7.88559 1.23281 7.99581 1.3435L9.16247 2.51537C9.27267 2.62603 9.33333 2.77318 9.33333 2.92969V10.8984C9.33333 11.2215 9.07165 11.4844 8.75 11.4844H1.75C1.42835 11.4844 1.16667 11.2215 1.16667 10.8984V1.75781ZM5.25 15C4.92782 15 4.66667 14.7377 4.66667 14.4141C4.66667 14.0904 4.92782 13.8281 5.25 13.8281H12.25C12.5716 13.8281 12.8333 13.5653 12.8333 13.2422V5.27344C12.8333 5.11693 12.7727 4.96978 12.6625 4.85912L11.8376 4.03052C11.6097 3.80168 11.6097 3.43069 11.8375 3.20188C12.0653 2.97305 12.4347 2.97305 12.6625 3.20188L13.4874 4.03052C13.818 4.36251 14 4.80393 14 5.27344V13.2422C14 14.2114 13.2149 15 12.25 15H5.25ZM2.91667 4.6875H7.58333C7.90551 4.6875 8.16667 4.42518 8.16667 4.10156C8.16667 3.77795 7.90551 3.51562 7.58333 3.51562H2.91667C2.59449 3.51562 2.33333 3.77795 2.33333 4.10156C2.33333 4.42518 2.59449 4.6875 2.91667 4.6875ZM7.58333 7.03125H2.91667C2.59449 7.03125 2.33333 6.76893 2.33333 6.44531C2.33333 6.1217 2.59449 5.85938 2.91667 5.85938H7.58333C7.90551 5.85938 8.16667 6.1217 8.16667 6.44531C8.16667 6.76893 7.90551 7.03125 7.58333 7.03125ZM2.91667 9.375H5.25C5.57218 9.375 5.83333 9.11268 5.83333 8.78906C5.83333 8.46545 5.57218 8.20312 5.25 8.20312H2.91667C2.59449 8.20312 2.33333 8.46545 2.33333 8.78906C2.33333 9.11268 2.59449 9.375 2.91667 9.375Z" fill="#8C8C8C"/>
</svg>
