<svg width="41" height="35" viewBox="0 0 41 35" fill="none" xmlns="http://www.w3.org/2000/svg">
<path fill-rule="evenodd" clip-rule="evenodd" d="M34.25 0H6.75C3.30375 0 0.5 2.80375 0.5 6.25V23.125C0.5 26.5713 3.30375 29.375 6.75 29.375H8.78125C9.64422 29.375 10.3438 28.6755 10.3438 27.8125C10.3438 26.9495 9.64422 26.25 8.78125 26.25H6.75C5.02688 26.25 3.625 24.8481 3.625 23.125V11.4158H37.375V15.322C37.375 16.1849 38.0745 16.8845 38.9375 16.8845C39.8005 16.8845 40.5 16.1849 40.5 15.322V6.25C40.5 2.80375 37.6963 0 34.25 0ZM37.375 8.29078H3.625V6.25C3.625 4.52688 5.02688 3.125 6.75 3.125H34.25C35.9731 3.125 37.375 4.52688 37.375 6.25V8.29078ZM37.375 23.125C37.375 22.262 38.0745 21.5625 38.9375 21.5625C39.8005 21.5625 40.5 22.262 40.5 23.125C40.5 26.5713 37.6963 29.375 34.25 29.375H32.2188C31.3558 29.375 30.6562 28.6755 30.6562 27.8125C30.6562 26.9495 31.3558 26.25 32.2188 26.25H34.25C35.9731 26.25 37.375 24.8481 37.375 23.125Z" fill="#1886C4"/>
<path opacity="0.5" fill-rule="evenodd" clip-rule="evenodd" d="M18.8595 28.5225L18.8594 32H18.8597L18.8598 33.4375L18.8661 33.5797C18.938 34.376 19.6072 35 20.4223 35C21.2852 35 21.9848 34.3005 21.9848 33.4375L21.9846 30.0626L25.3594 30.0625L30.2969 30.0627C31.1598 30.0627 31.8594 29.3632 31.8594 28.5002C31.8594 27.6852 31.2354 27.0159 30.4391 26.9441L30.2969 26.9377L28.8594 26.9376V26.9373L25.3594 26.9375L21.9846 26.9373L21.9848 23.5625C21.9848 22.6995 21.2852 22 20.4223 22C19.6072 22 18.938 22.624 18.8661 23.4203L18.8598 23.5625L18.8597 25H18.8594L18.8595 28.478L18.8594 28.5002L18.8595 28.5223L18.8595 28.5225Z" fill="#1886C4"/>
</svg>
