<svg width="18" height="12" viewBox="0 0 18 12" fill="none" xmlns="http://www.w3.org/2000/svg">
<path d="M18 2.82955V1.90909C18 0.854727 17.1186 0 16.0312 0H1.96875C0.881438 0 0 0.854727 0 1.90909V2.82955C0 2.92367 0.0787148 3 0.175781 3H17.8242C17.9213 3 18 2.92367 18 2.82955Z" fill="#3E73CF"/>
<path fill-rule="evenodd" clip-rule="evenodd" d="M0 10.0908V4.26127C0 4.16715 0.0787148 4.09082 0.175781 4.09082H17.8242C17.9213 4.09082 18 4.16715 18 4.26127V10.0908C18 11.1452 17.1186 11.9999 16.0312 11.9999H1.96875C0.881438 11.9999 0 11.1452 0 10.0908ZM3.9375 9.27264C4.24814 9.27264 4.5 9.02841 4.5 8.72718V8.18173C4.5 7.8805 4.24814 7.63627 3.9375 7.63627H3.375C3.06436 7.63627 2.8125 7.8805 2.8125 8.18173V8.72718C2.8125 9.02841 3.06436 9.27264 3.375 9.27264H3.9375Z" fill="#3E73CF"/>
</svg>
