<svg width="41" height="30" viewBox="0 0 41 30" fill="none" xmlns="http://www.w3.org/2000/svg">
<path fill-rule="evenodd" clip-rule="evenodd" d="M34.25 0H6.75C3.30375 0 0.5 2.80375 0.5 6.25V23.125C0.5 26.5713 3.30375 29.375 6.75 29.375H25.7812C26.6442 29.375 27.3438 28.6755 27.3438 27.8125C27.3438 26.9495 26.6442 26.25 25.7812 26.25H6.75C5.02688 26.25 3.625 24.8481 3.625 23.125V11.4158H37.375V15.322C37.375 16.1849 38.0745 16.8845 38.9375 16.8845C39.8005 16.8845 40.5 16.1849 40.5 15.322V6.25C40.5 2.80375 37.6963 0 34.25 0ZM37.375 8.29078H3.625V6.25C3.625 4.52688 5.02688 3.125 6.75 3.125H34.25C35.9731 3.125 37.375 4.52688 37.375 6.25V8.29078ZM37.375 23.125C37.375 22.262 38.0745 21.5625 38.9375 21.5625C39.8005 21.5625 40.5 22.262 40.5 23.125C40.5 26.5713 37.6963 29.375 34.25 29.375H32.2188C31.3558 29.375 30.6562 28.6755 30.6562 27.8125C30.6562 26.9495 31.3558 26.25 32.2188 26.25H34.25C35.9731 26.25 37.375 24.8481 37.375 23.125Z" fill="#1886C4"/>
</svg>
