<svg width="30" height="23" viewBox="0 0 30 23" fill="none" xmlns="http://www.w3.org/2000/svg">
<path fill-rule="evenodd" clip-rule="evenodd" d="M30 11.9968C30 12.6725 29.4754 13.2202 28.8281 13.2202C28.1809 13.2202 27.6562 12.6725 27.6562 11.9968V8.93831H2.34375V18.1064C2.34375 19.4556 3.39516 20.5532 4.6875 20.5532H25.3125C26.6048 20.5532 27.6562 19.4556 27.6562 18.1064C27.6562 17.4307 28.1809 16.883 28.8281 16.883C29.4754 16.883 30 17.4307 30 18.1064C30 20.8047 27.8972 23 25.3125 23H4.6875C2.10281 23 0 20.8047 0 18.1064V4.89362C0 2.19528 2.10281 0 4.6875 0H25.3125C27.8972 0 30 2.19528 30 4.89362V11.9968ZM2.34375 4.89362V6.49151H27.6562V4.89362C27.6562 3.54445 26.6048 2.44681 25.3125 2.44681H4.6875C3.39516 2.44681 2.34375 3.54445 2.34375 4.89362Z" fill="white"/>
</svg>
