<svg width="19" height="24" viewBox="0 0 19 24" fill="none" xmlns="http://www.w3.org/2000/svg">
<path d="M18.8506 19.6216C18.3005 18.0232 16.108 17.0227 14.5449 16.352C13.9325 16.0902 12.2372 15.6459 12.0334 14.8931C11.9605 14.6219 11.9703 14.3662 12.0301 14.1211C11.9359 14.1387 11.8403 14.1491 11.7414 14.1491H10.7229C9.9098 14.1491 9.24909 13.5032 9.24909 12.7099C9.24909 11.9171 9.91007 11.2726 10.7229 11.2726H11.7414C12.0779 11.2726 12.397 11.3838 12.6543 11.5822C13.0315 11.5331 13.3953 11.4544 13.7345 11.3512C14.18 10.44 14.5274 9.35044 14.6053 8.41258C14.9377 4.39978 12.418 2.05204 8.80524 2.45791C6.17851 2.75311 4.60935 4.66538 4.43973 7.12724C4.2682 9.63658 5.22117 11.4899 6.23341 12.8494C6.6767 13.4438 7.1424 13.8259 7.07084 14.5422C6.9878 15.3891 6.06024 15.6251 5.39679 15.8854C4.61071 16.1936 3.764 16.6614 3.36413 16.8776C1.98671 17.6203 0.474909 18.5147 0.135129 19.7382C-0.617357 22.4496 1.92389 23.271 4.02183 23.6502C5.82234 23.9744 7.85255 24 9.52249 24C12.5431 24 17.9746 23.8819 18.8506 21.6651C19.0997 21.036 18.9929 20.0336 18.8506 19.6216Z" fill="white"/>
<path opacity="0.5" d="M12.3861 12.3048C12.2479 12.0992 12.0116 11.9627 11.742 11.9627H10.7235C10.2985 11.9627 9.95574 12.2979 9.95574 12.7107C9.95574 13.1251 10.2985 13.4608 10.7235 13.4608H11.742C12.0395 13.4608 12.2919 13.2952 12.4191 13.0557C13.8392 12.9467 15.0743 12.5232 15.9412 11.8979C16.1403 12.0232 16.3758 12.0965 16.6298 12.0965H16.6937C17.4017 12.0965 17.9742 11.5371 17.9742 10.8451V8.34693C17.9742 7.84933 17.6753 7.42 17.2443 7.22053C17.0564 3.20907 13.6551 0 9.50015 0C5.34523 0 1.94334 3.20907 1.75624 7.22053C1.32442 7.42027 1.02588 7.84933 1.02588 8.34693V10.8451C1.02588 11.5371 1.59892 12.0965 2.30524 12.0965H2.36997C3.07685 12.0965 3.65016 11.5371 3.65016 10.8451V8.34693C3.65016 7.85653 3.35981 7.4336 2.93782 7.22907C3.12055 3.84907 5.99338 1.15493 9.50015 1.15493C13.0056 1.15493 15.8798 3.84907 16.0617 7.22907C15.6402 7.43387 15.3502 7.85653 15.3502 8.34693V10.8451C15.3502 11.0109 15.3832 11.1653 15.4414 11.3096C14.6952 11.8309 13.6089 12.2024 12.3861 12.3048Z" fill="white"/>
</svg>
