<svg width="18" height="18" viewBox="0 0 18 18" fill="none" xmlns="http://www.w3.org/2000/svg">
<path fill-rule="evenodd" clip-rule="evenodd" d="M11.0391 0H4.71094C4.4197 0 4.18359 0.236109 4.18359 0.527344V5.9748H11.5664V0.527344C11.5664 0.236109 11.3303 0 11.0391 0ZM13.2539 3.7248H12.6211V5.9748H14.8359V5.30684C14.8359 4.4345 14.1262 3.7248 13.2539 3.7248ZM1.65234 3.7248H3.12891V5.9748H0V5.37715C0 4.93569 0.171844 4.52071 0.483891 4.2087C0.795902 3.89665 1.21089 3.7248 1.65234 3.7248ZM13.4648 13.8164C12.6664 13.8164 12.0234 12.874 12.0234 12.0938C12.0234 11.3135 12.6664 10.3711 13.4648 10.3711H17.4727C17.7639 10.3711 18 10.6072 18 10.8984V13.2891C18 13.5803 17.7639 13.8164 17.4727 13.8164H13.4648ZM13.7812 12.621C14.0725 12.621 14.3086 12.3849 14.3086 12.0936C14.3086 11.8024 14.0725 11.5663 13.7812 11.5663C13.49 11.5663 13.2539 11.8024 13.2539 12.0936C13.2539 12.3849 13.49 12.621 13.7812 12.621ZM10.9688 12.0938C10.9688 12.7506 11.2236 13.4325 11.668 13.9645C12.1562 14.5491 12.7944 14.8711 13.4648 14.8711H17.0859V16.1958C17.0859 17.1906 16.3762 18 15.5039 18H1.58203C0.709699 18 0 17.1906 0 16.1958V7.02953H16.5483C16.8086 7.02953 17.0325 7.21958 17.0683 7.47742C17.0799 7.5613 17.0859 7.64708 17.0859 7.73438V9.31641H13.4648C12.7944 9.31641 12.1562 9.63837 11.668 10.223C11.2236 10.755 10.9688 11.4369 10.9688 12.0938Z" fill="white"/>
</svg>
