<svg width="18" height="18" viewBox="0 0 18 18" fill="none" xmlns="http://www.w3.org/2000/svg">
<path fill-rule="evenodd" clip-rule="evenodd" d="M9 10.0195C9.38834 10.0195 9.70312 9.70474 9.70312 9.31641V0.703125C9.70312 0.314789 9.38834 0 9 0C8.61166 0 8.29688 0.314789 8.29688 0.703125V9.31641C8.29688 9.70474 8.61166 10.0195 9 10.0195ZM7.46972 12.9137L7.47327 12.9173C7.88463 13.3287 8.42491 13.5343 8.9652 13.5343C9.50506 13.5343 10.0448 13.3289 10.4554 12.9183L14.3478 9.04113C14.6229 8.76709 14.6238 8.32191 14.3497 8.04677C14.0757 7.77168 13.6305 7.77076 13.3554 8.0448L9.46202 11.923C9.3292 12.0557 9.15265 12.1289 8.96484 12.1289C8.77771 12.1289 8.60172 12.0563 8.46907 11.9244L4.64917 8.04934C4.37657 7.77277 3.93135 7.7696 3.65481 8.0422C3.37827 8.3148 3.37507 8.75999 3.64767 9.03656L7.46972 12.9137ZM16.5938 15.1875C16.5938 14.7992 16.9085 14.4844 17.2969 14.4844C17.6852 14.4844 18 14.7992 18 15.1875C18 16.7383 16.7383 18 15.1875 18H2.8125C1.26169 18 0 16.7383 0 15.1875C0 14.7992 0.314789 14.4844 0.703125 14.4844C1.09146 14.4844 1.40625 14.7992 1.40625 15.1875C1.40625 15.9629 2.03709 16.5938 2.8125 16.5938H15.1875C15.9629 16.5938 16.5938 15.9629 16.5938 15.1875Z" fill="white"/>
</svg>
