<svg width="16" height="15" viewBox="0 0 16 15" fill="none" xmlns="http://www.w3.org/2000/svg">
<path fill-rule="evenodd" clip-rule="evenodd" d="M15.7307 10.2734C15.5514 10.0912 15.3333 10 15.077 10H10.6154L9.30768 11.3281C8.93586 11.6926 8.49999 11.8749 8 11.8749C7.50011 11.8749 7.0641 11.6928 6.69232 11.3281L5.39425 10H0.923065C0.666703 10 0.448768 10.0913 0.269227 10.2734C0.08972 10.4557 0 10.677 0 10.9376V14.0625C0 14.3229 0.08972 14.5442 0.269227 14.7265C0.448735 14.9088 0.666669 14.9998 0.923065 14.9998H15.0771C15.3334 14.9998 15.5515 14.9088 15.7308 14.7265C15.9103 14.5442 16 14.3229 16 14.0625V10.9376C16 10.677 15.9103 10.4557 15.7307 10.2734ZM12.1252 13.5644C12.0032 13.6881 11.8589 13.7499 11.6923 13.7499C11.5256 13.7499 11.3815 13.6881 11.2596 13.5644C11.1379 13.4407 11.077 13.2943 11.077 13.1251C11.077 12.9558 11.1379 12.8092 11.2596 12.6857C11.3815 12.5618 11.5256 12.4999 11.6923 12.4999C11.8589 12.4999 12.0032 12.5618 12.1252 12.6857C12.2468 12.8091 12.3077 12.9558 12.3077 13.1251C12.3077 13.2942 12.2468 13.4407 12.1252 13.5644ZM14.1538 13.7499C14.3205 13.7499 14.4648 13.6881 14.5865 13.5644C14.7085 13.4407 14.7693 13.2942 14.7693 13.1251C14.7693 12.9558 14.7084 12.8091 14.5865 12.6857C14.4648 12.5618 14.3205 12.4999 14.1538 12.4999C13.9872 12.4999 13.843 12.5618 13.7212 12.6857C13.5995 12.8092 13.5386 12.9558 13.5386 13.1251C13.5386 13.2943 13.5995 13.4407 13.7212 13.5644C13.843 13.6881 13.9872 13.7499 14.1538 13.7499Z" fill="white"/>
<path d="M7.56672 10.4396C7.68217 10.5632 7.82638 10.625 7.99939 10.625C8.17253 10.625 8.31658 10.5632 8.43206 10.4396L12.7398 6.06453C12.9385 5.87575 12.9834 5.64785 12.8744 5.38092C12.7656 5.12708 12.5765 5.00015 12.3071 5.00001H9.84552V0.625023C9.84552 0.455778 9.78453 0.309279 9.66295 0.185595C9.54103 0.0618763 9.39685 0 9.23028 0H6.7685C6.60193 0 6.45768 0.0618763 6.33583 0.185595C6.21408 0.309279 6.15316 0.455744 6.15316 0.625023V5.00005H3.69162C3.42226 5.00005 3.23325 5.12712 3.12427 5.38095C3.01535 5.64778 3.06018 5.87579 3.25895 6.06456L7.56672 10.4396Z" fill="white"/>
</svg>
