<svg width="16" height="16" viewBox="0 0 16 16" fill="none" xmlns="http://www.w3.org/2000/svg">
<path fill-rule="evenodd" clip-rule="evenodd" d="M12.3636 0H3.63636C1.62905 0.00240443 0.00240445 1.62904 0 3.63634V9.45448C0.00218057 11.1818 1.21715 12.6701 2.90909 13.0181V15.2726C2.90905 15.5409 3.05671 15.7874 3.29326 15.914C3.52981 16.0405 3.81683 16.0266 4.04 15.8777L8.21818 13.0908H12.3636C14.3709 13.0884 15.9976 11.4618 16 9.45448V3.63634C15.9976 1.62904 14.3709 0.00240443 12.3636 0ZM10.9091 8.72721H5.09091C4.68925 8.72721 4.36364 8.4016 4.36364 7.99995C4.36364 7.59829 4.68925 7.27268 5.09091 7.27268H10.9091C11.3108 7.27268 11.6364 7.59829 11.6364 7.99995C11.6364 8.4016 11.3108 8.72721 10.9091 8.72721ZM3.63636 5.81814H12.3636C12.7653 5.81814 13.0909 5.49253 13.0909 5.09087C13.0909 4.68922 12.7653 4.36361 12.3636 4.36361H3.63636C3.2347 4.36361 2.90909 4.68922 2.90909 5.09087C2.90909 5.49253 3.2347 5.81814 3.63636 5.81814Z" fill="white"/>
</svg>
