<svg width="16" height="11" viewBox="0 0 16 11" fill="none" xmlns="http://www.w3.org/2000/svg">
<path d="M8.00017 3.30005C6.79653 3.30005 5.81836 4.28637 5.81836 5.50005C5.81836 6.71373 6.79653 7.70005 8.00017 7.70005C9.20382 7.70005 10.182 6.71373 10.182 5.50005C10.182 4.28637 9.20379 3.30005 8.00017 3.30005Z" fill="#D5D5D5"/>
<path fill-rule="evenodd" clip-rule="evenodd" d="M0 5.5C1.25819 2.28064 4.36363 0 8 0C11.64 0 14.7418 2.28064 16 5.5C14.7418 8.71932 11.64 11 8 11C4.36363 11 1.25819 8.71932 0 5.5ZM4.36363 5.49997C4.36363 7.52397 5.99273 9.16664 8 9.16664C10.0073 9.16664 11.6364 7.524 11.6364 5.5C11.6364 3.476 10.0073 1.83332 8 1.83332C5.99273 1.83332 4.36363 3.47597 4.36363 5.49997Z" fill="#D5D5D5"/>
</svg>
