<svg width="26" height="26" viewBox="0 0 26 26" fill="none" xmlns="http://www.w3.org/2000/svg">
<path d="M24.9844 17.875C25.5453 17.875 26 17.4203 26 16.8594V4.0625C26 1.82244 24.1776 0 21.9375 0H4.0625C1.82244 0 0 1.82244 0 4.0625V21.9375C0 24.1776 1.82244 26 4.0625 26H21.9375C24.1776 26 26 24.1776 26 21.9375C26 21.3766 25.5453 20.9219 24.9844 20.9219C24.4234 20.9219 23.9688 21.3766 23.9688 21.9375C23.9688 23.0575 23.0575 23.9688 21.9375 23.9688H16.6055V15.1328H18.8906C19.4516 15.1328 19.9062 14.6781 19.9062 14.1172C19.9062 13.5563 19.4516 13.1016 18.8906 13.1016H16.6055V10.3086C16.6055 9.18856 17.5167 8.27734 18.6367 8.27734H19.1445C19.7055 8.27734 20.1602 7.82265 20.1602 7.26172C20.1602 6.70079 19.7055 6.24609 19.1445 6.24609H18.6367C16.3967 6.24609 14.5742 8.06853 14.5742 10.3086V13.1016H12.2891C11.7281 13.1016 11.2734 13.5563 11.2734 14.1172C11.2734 14.6781 11.7281 15.1328 12.2891 15.1328H14.5742V23.9688H4.0625C2.94247 23.9688 2.03125 23.0575 2.03125 21.9375V4.0625C2.03125 2.94247 2.94247 2.03125 4.0625 2.03125H21.9375C23.0575 2.03125 23.9688 2.94247 23.9688 4.0625V16.8594C23.9688 17.4203 24.4234 17.875 24.9844 17.875Z" fill="#8C8C8C"/>
</svg>
