<svg width="16" height="16" viewBox="0 0 16 16" fill="none" xmlns="http://www.w3.org/2000/svg">
<path fill-rule="evenodd" clip-rule="evenodd" d="M15.2186 2.01196L13.988 0.781372C13.488 0.28064 12.8101 0 12.1027 0H1.83337C0.820679 0 0 0.820679 0 1.83337V14.1666C0 15.1793 0.820679 16 1.83337 16H14.1666C15.1793 16 16 15.1793 16 14.1666V3.89734C16 3.18994 15.7194 2.51196 15.2186 2.01196ZM2.66663 4.16663V2.5C2.66663 2.224 2.89062 2 3.16663 2H10.1666C10.4426 2 10.6666 2.224 10.6666 2.5V4.16663C10.6666 4.44263 10.4426 4.66663 10.1666 4.66663H3.16663C2.89062 4.66663 2.66663 4.44263 2.66663 4.16663ZM5 10.3334C5 11.99 6.34338 13.3334 8 13.3334C9.65662 13.3334 11 11.99 11 10.3334C11 8.67664 9.65662 7.33337 8 7.33337C6.34338 7.33337 5 8.67664 5 10.3334Z" fill="white"/>
</svg>
