<svg width="26" height="26" viewBox="0 0 26 26" fill="none" xmlns="http://www.w3.org/2000/svg">
<path opacity="0.5" d="M22.7501 2.16677H12.9999L10.8331 0H3.24975C2.65401 0 2.1665 0.486525 2.1665 1.08323V4.33322H23.8333V3.25C23.8333 2.6533 23.3458 2.16677 22.7501 2.16677Z" fill="#E3433A"/>
<path fill-rule="evenodd" clip-rule="evenodd" d="M1.83835 6.5H24.1604C25.3528 6.5 26.1676 7.4607 25.9706 8.63687L23.0771 26H2.92192L0.0293698 8.63687C-0.167583 7.4607 0.647205 6.5 1.83835 6.5ZM13.8125 13.495L16.1844 15.8691L17.3336 14.7183L13.766 11.1507C13.3429 10.7276 12.6574 10.7276 12.2343 11.1507L8.66671 14.7202L9.8156 15.8668L12.1875 13.495V21.6668H13.8125V13.495Z" fill="#E3433A"/>
</svg>
