<svg width="24" height="17" viewBox="0 0 24 17" fill="none" xmlns="http://www.w3.org/2000/svg">
<path d="M4.58486 15.5609C4.91314 15.8991 4.902 16.4372 4.56171 16.7627C4.21971 17.0874 3.678 17.0772 3.34971 16.7389C1.18971 14.5103 0 11.5846 0 8.50006C0 5.41547 1.18971 2.48984 3.34886 0.261188C3.67629 -0.0762548 4.21886 -0.0881546 4.56086 0.237388C4.90114 0.562931 4.91229 1.10097 4.584 1.43926C2.73343 3.34917 1.71429 5.85746 1.71429 8.50006C1.71429 11.1426 2.73343 13.6509 4.58486 15.5609Z" fill="#3E73CF"/>
<path d="M20.6511 0.261188C22.8102 2.48984 23.9999 5.41547 23.9999 8.50006C23.9999 11.5846 22.8102 14.5103 20.6511 16.7389C20.3228 17.0781 19.7811 17.0883 19.4391 16.7627C19.0988 16.4372 19.0877 15.8991 19.4159 15.5609C21.2665 13.6509 22.2857 11.1426 22.2857 8.50006C22.2857 5.85746 21.2665 3.34917 19.4151 1.43926C19.0868 1.10097 19.0979 0.562931 19.4382 0.237388C19.7811 -0.0881546 20.3228 -0.0762548 20.6511 0.261188Z" fill="#3E73CF"/>
<path fill-rule="evenodd" clip-rule="evenodd" d="M11.9999 0C7.27361 0 3.42847 3.81302 3.42847 8.49981C3.42847 13.1866 7.27361 16.9996 11.9999 16.9996C16.7262 16.9996 20.5713 13.1866 20.5713 8.49981C20.5713 3.81302 16.7262 0 11.9999 0ZM11.9999 2.54994C12.9145 2.54994 13.6259 3.33788 13.5248 4.23971L12.857 10.1998H11.1428L10.475 4.23971C10.3739 3.33788 11.0853 2.54994 11.9999 2.54994ZM10.2856 13.5997C10.2856 14.5389 11.0528 15.2997 11.9999 15.2997C12.947 15.2997 13.7142 14.5389 13.7142 13.5997C13.7142 12.6605 12.947 11.8997 11.9999 11.8997C11.0528 11.8997 10.2856 12.6605 10.2856 13.5997Z" fill="#3E73CF"/>
</svg>
