<svg width="20" height="20" viewBox="0 0 20 20" fill="none" xmlns="http://www.w3.org/2000/svg">
<path fill-rule="evenodd" clip-rule="evenodd" d="M18.4375 7.03125V16.875C18.4375 17.7365 17.7365 18.4375 16.875 18.4375H3.125C2.26349 18.4375 1.5625 17.7365 1.5625 16.875V3.125C1.5625 2.26349 2.26349 1.5625 3.125 1.5625H16.875C17.7365 1.5625 18.4375 2.26349 18.4375 3.125C18.4375 3.55652 18.7872 3.90625 19.2188 3.90625C19.6503 3.90625 20 3.55652 20 3.125C20 1.40182 18.5982 0 16.875 0H3.125C1.40182 0 0 1.40182 0 3.125V16.875C0 18.5982 1.40182 20 3.125 20H16.875C18.5982 20 20 18.5982 20 16.875V7.03125C20 6.59973 19.6503 6.25 19.2188 6.25C18.7872 6.25 18.4375 6.59973 18.4375 7.03125ZM9.21875 12.5781V4.6875C9.21875 4.25598 9.56848 3.90625 10 3.90625C10.4315 3.90625 10.7812 4.25598 10.7812 4.6875V12.5781C10.7812 13.0096 10.4315 13.3594 10 13.3594C9.56848 13.3594 9.21875 13.0096 9.21875 12.5781ZM9.21875 15.3125C9.21875 15.744 9.56848 16.0938 10 16.0938C10.4315 16.0938 10.7812 15.744 10.7812 15.3125C10.7812 14.881 10.4315 14.5312 10 14.5312C9.56848 14.5312 9.21875 14.881 9.21875 15.3125Z" fill="#1886C4"/>
</svg>
