<svg width="16" height="14" viewBox="0 0 16 14" fill="none" xmlns="http://www.w3.org/2000/svg">
<path fill-rule="evenodd" clip-rule="evenodd" d="M2.34375 6.54788H6.17794C5.98609 6.85719 5.875 7.22141 5.875 7.61114V8.74891C5.875 9.0956 5.95 9.43385 6.09378 9.74216V12.1292H0.46875C0.209875 12.1292 0 11.9198 0 11.6615V0.467706C0 0.209408 0.209875 0 0.46875 0H9.4375C9.69637 0 9.90625 0.209408 9.90625 0.467706V3.72687C8.97791 3.9157 8.24719 4.6533 8.07159 5.58441L2.34375 5.61247C2.08488 5.61247 1.875 5.82188 1.875 6.08018C1.875 6.33848 2.08488 6.54788 2.34375 6.54788ZM7.5625 1.87086H2.34375C2.08488 1.87086 1.875 2.08026 1.875 2.33856C1.875 2.59686 2.08488 2.80627 2.34375 2.80627H7.5625C7.82137 2.80627 8.03125 2.59686 8.03125 2.33856C8.03125 2.08026 7.82137 1.87086 7.5625 1.87086ZM2.34375 3.74168H7.5625C7.82137 3.74168 8.03125 3.95109 8.03125 4.20939C8.03125 4.46768 7.82137 4.67709 7.5625 4.67709H2.34375C2.08488 4.67709 1.875 4.46768 1.875 4.20939C1.875 3.95109 2.08488 3.74168 2.34375 3.74168ZM2.34375 8.41874H3.46875C3.72762 8.41874 3.9375 8.20933 3.9375 7.95103C3.9375 7.69274 3.72762 7.48333 3.46875 7.48333H2.34375C2.08488 7.48333 1.875 7.69274 1.875 7.95103C1.875 8.20933 2.08488 8.41874 2.34375 8.41874ZM10.9082 10.7884H11.8457V11.7238H10.9082V10.7884ZM12.7832 12.1915V11.6502L15.2017 11.0021C15.4096 10.9464 15.6035 10.865 15.7812 10.7626V12.7216C15.7812 13.4265 15.2065 14 14.5 14H8.31253C7.60606 14 7.03128 13.4265 7.03128 12.7216V10.7676C7.20438 10.8676 7.39284 10.9474 7.59456 11.003L9.97066 11.658V12.1915C9.97066 12.4498 10.1805 12.6592 10.4394 12.6592H12.3144C12.5733 12.6592 12.7832 12.4498 12.7832 12.1915ZM9.07203 5.58441H13.7404C13.5312 5.07118 13.0262 4.70824 12.4375 4.70824H10.375C9.78634 4.70824 9.28131 5.07115 9.07203 5.58441ZM7.90625 6.51982H14.9062C15.5093 6.51982 16 7.00939 16 7.61114V8.74358C16 9.38717 15.5814 9.93174 14.9585 10.0987L12.7832 10.6816V10.3207C12.7832 10.0624 12.5733 9.85301 12.3144 9.85301H10.4394C10.1805 9.85301 9.97066 10.0624 9.97066 10.3207V10.6876L7.84425 10.1014C7.22713 9.93127 6.8125 9.38776 6.8125 8.74894V7.61114C6.8125 7.00939 7.30316 6.51982 7.90625 6.51982Z" fill="white"/>
</svg>
