<svg width="18" height="18" viewBox="0 0 18 18" fill="none" xmlns="http://www.w3.org/2000/svg">
<path d="M9.70317 8.84174C9.70317 8.45418 9.38837 8.13998 9.00006 8.13998C7.91448 8.13998 7.03134 7.25855 7.03134 6.17507C7.03134 5.09159 7.91448 4.21015 9.00006 4.21015C10.0856 4.21015 10.9688 5.09159 10.9688 6.17507C10.9688 6.56263 11.2836 6.87682 11.6719 6.87682C12.0602 6.87682 12.375 6.56263 12.375 6.17507C12.375 4.31769 10.861 2.80664 9.00006 2.80664C7.13909 2.80664 5.62512 4.31769 5.62512 6.17507C5.62512 8.03244 7.13909 9.54349 9.00006 9.54349C9.3884 9.54349 9.70317 9.2293 9.70317 8.84174Z" fill="white"/>
<path d="M17.8269 15.5992L16.505 12.9205C16.1927 12.2876 15.5596 11.8945 14.8529 11.8945H14.1327C13.7444 11.8945 13.4296 12.2087 13.4296 12.5963C13.4296 12.9838 13.7444 13.298 14.1327 13.298H14.8528C15.0199 13.298 15.1695 13.391 15.2434 13.5405L16.5654 16.2193C16.6213 16.3327 16.5815 16.4269 16.5528 16.473C16.5242 16.519 16.4571 16.5963 16.3304 16.5963H1.66956C1.54297 16.5963 1.4759 16.5191 1.44719 16.473C1.41848 16.4269 1.37868 16.3327 1.43462 16.2194L2.75662 13.5406C2.83041 13.391 2.98008 13.2981 3.14715 13.2981H3.83215C4.22046 13.2981 4.53526 12.9839 4.53526 12.5963C4.53526 12.2088 4.22046 11.8946 3.83215 11.8946H3.14715C2.44034 11.8946 1.80729 12.2877 1.4951 12.9205L0.173099 15.5993C-0.083333 16.1188 -0.0533925 16.7226 0.253199 17.2144C0.559755 17.7062 1.08921 17.9998 1.66956 17.9998H16.3305C16.9108 17.9998 17.4402 17.7062 17.7468 17.2144C18.0534 16.7227 18.0833 16.1189 17.8269 15.5992Z" fill="white"/>
<path fill-rule="evenodd" clip-rule="evenodd" d="M8.81302 15.2982C8.5717 15.2982 8.34725 15.1747 8.21847 14.9711C7.57806 13.9585 6.77295 13.0773 5.99435 12.2252C4.44361 10.5279 2.84006 8.77282 2.83752 6.14208C2.84143 2.75467 5.60132 0 8.98974 0C12.3782 0 15.1381 2.75467 15.142 6.14053C15.1394 8.77279 13.5359 10.5278 11.9852 12.2251L11.9851 12.2251L11.9846 12.2257C11.2062 13.0777 10.4013 13.9587 9.76101 14.9711C9.63223 15.1748 9.40778 15.2982 9.16646 15.2982H8.81302ZM13.7357 6.14071C13.7327 3.52927 11.6037 1.40351 8.98974 1.40351C6.37579 1.40351 4.24677 3.52927 4.24374 6.14218C4.24579 8.22839 5.5376 9.6423 7.03339 11.2795C7.69716 12.0059 8.3791 12.7523 8.98974 13.6032C9.59994 12.7529 10.2813 12.0071 10.9445 11.2812L10.9461 11.2795L10.9461 11.2794C12.4419 9.64228 13.7337 8.22841 13.7357 6.14071Z" fill="white"/>
</svg>
