<svg width="16" height="18" viewBox="0 0 16 18" fill="none" xmlns="http://www.w3.org/2000/svg">
<path d="M16 3.40259V14.5968C16.004 15.7061 15.1825 16.6511 14.0686 16.8187L6.63999 17.9719C6.52276 17.9898 6.40435 17.9992 6.28571 18C5.67948 18.0001 5.09806 17.763 4.6694 17.341C4.24073 16.9191 3.99993 16.3467 4 15.7499V10.6872H0.571428C0.255837 10.6872 0 10.4354 0 10.1247C0 9.81404 0.255837 9.56219 0.571428 9.56219H10.6228L8.73713 11.4129C8.51429 11.634 8.51429 11.9906 8.73713 12.2117C8.96248 12.4292 9.32322 12.4292 9.54856 12.2117L12.4057 9.39906C12.5114 9.29208 12.5708 9.1489 12.5714 8.99967C12.5692 8.85075 12.51 8.70813 12.4057 8.60028L9.54856 5.78768C9.32423 5.56864 8.96221 5.56937 8.73879 5.78931C8.51536 6.00925 8.51462 6.36562 8.73713 6.58646L10.6228 8.43715H4V2.24943C3.99974 1.59174 4.292 0.966907 4.79981 0.539512C5.30761 0.112118 5.98005 -0.0749905 6.63999 0.0274702L14.0686 1.18064C15.1825 1.34821 16.004 2.29328 16 3.40259Z" fill="white"/>
</svg>
