<svg width="18" height="18" viewBox="0 0 18 18" fill="none" xmlns="http://www.w3.org/2000/svg">
<path d="M15.1875 0H2.8125C1.26169 0 0 1.26169 0 2.8125V4.21875C0 4.60709 0.314789 4.92188 0.703125 4.92188C1.09146 4.92188 1.40625 4.60709 1.40625 4.21875V2.8125C1.40625 2.03709 2.03709 1.40625 2.8125 1.40625H15.1875C15.9629 1.40625 16.5938 2.03709 16.5938 2.8125V15.1875C16.5938 15.9629 15.9629 16.5938 15.1875 16.5938H2.8125C2.03709 16.5938 1.40625 15.9629 1.40625 15.1875V13.7812C1.40625 13.3929 1.09146 13.0781 0.703125 13.0781C0.314789 13.0781 0 13.3929 0 13.7812V15.1875C0 16.7383 1.26169 18 2.8125 18H15.1875C16.7383 18 18 16.7383 18 15.1875V2.8125C18 1.26169 16.7383 0 15.1875 0Z" fill="currentColor"/>
<path d="M11.8097 7.50823L9.18054 4.88149C8.90583 4.60703 8.46065 4.60724 8.18618 4.88195C7.91172 5.15666 7.91193 5.60185 8.18664 5.87631L10.8156 8.5028C11.0897 8.77695 11.0897 9.22301 10.8156 9.49716C10.8145 9.49818 10.8135 9.49923 10.8125 9.50025L8.18337 12.1621C7.91049 12.4384 7.91323 12.8836 8.18952 13.1565C8.32652 13.2919 8.50508 13.3594 8.68357 13.3594C8.86498 13.3594 9.04631 13.2896 9.18385 13.1503L11.8116 10.4898C12.6324 9.66724 12.6318 8.33036 11.8097 7.50823Z" fill="currentColor"/>
<path d="M8.19141 8.29688H0.703125C0.314789 8.29688 0 8.61166 0 9C0 9.38834 0.314789 9.70312 0.703125 9.70312H8.19141C8.57974 9.70312 8.89453 9.38834 8.89453 9C8.89453 8.61166 8.57974 8.29688 8.19141 8.29688Z" fill="currentColor"/>
</svg>
