<svg width="26" height="27" viewBox="0 0 26 27" fill="none" xmlns="http://www.w3.org/2000/svg">
<path fill-rule="evenodd" clip-rule="evenodd" d="M2.38672 6.38025H4.51953V9.63025H0V8.76697C0 8.12931 0.248219 7.52989 0.698953 7.0792C1.14964 6.62847 1.74906 6.38025 2.38672 6.38025ZM18.2305 6.38025H19.1445C20.4046 6.38025 21.4297 7.40537 21.4297 8.66541V9.63025H18.2305V6.38025ZM19.4492 20.957C18.2959 20.957 17.3672 19.5958 17.3672 18.4687C17.3672 17.3417 18.2959 15.9804 19.4492 15.9804H25.2383C25.659 15.9804 26 16.3215 26 16.7422V20.1953C26 20.616 25.659 20.957 25.2383 20.957H19.4492ZM19.9062 19.2303C20.3269 19.2303 20.668 18.8893 20.668 18.4686C20.668 18.0479 20.3269 17.7069 19.9062 17.7069C19.4856 17.7069 19.1445 18.0479 19.1445 18.4686C19.1445 18.8893 19.4856 19.2303 19.9062 19.2303ZM15.8438 18.4687C15.8438 19.4175 16.2119 20.4024 16.8537 21.1709C17.559 22.0154 18.4808 22.4804 19.4492 22.4804H24.6797V24.3939C24.6797 25.8309 23.6546 27 22.3945 27H2.28516C1.02512 27 0 25.8309 0 24.3939V11.1537H23.903C24.279 11.1537 24.6025 11.4283 24.6541 11.8007C24.671 11.9219 24.6797 12.0458 24.6797 12.1719V14.457H19.4492C18.4808 14.457 17.559 14.9221 16.8537 15.7665C16.2119 16.535 15.8438 17.5199 15.8438 18.4687Z" fill="#E3433A"/>
<path opacity="0.5" d="M11.3182 8.88135C11.0971 8.88135 10.8762 8.79662 10.7075 8.62718L7.25321 5.15688C7.00604 4.90858 6.93182 4.5358 7.06609 4.21136C7.19924 3.88693 7.51478 3.67591 7.86383 3.67591H9.59088V1.52588e-05C10.1554 0.0881281 10.7293 0.147774 11.3182 0.147774C11.907 0.147774 12.4809 0.0881281 13.0454 1.52588e-05V3.67591H14.7725C15.1215 3.67591 15.4371 3.88693 15.5702 4.21136C15.7045 4.5358 15.6303 4.90858 15.3831 5.15688L11.9288 8.62718C11.7601 8.79662 11.5392 8.88135 11.3182 8.88135V8.88135Z" fill="#E3433A"/>
</svg>
