<svg width="18" height="18" viewBox="0 0 18 18" fill="none" xmlns="http://www.w3.org/2000/svg">
<path fill-rule="evenodd" clip-rule="evenodd" d="M16.5938 13.0472V13.7812C16.5938 14.1696 16.9085 14.4844 17.2969 14.4844C17.6852 14.4844 18 14.1696 18 13.7812V13.0472C18 11.3777 16.6417 10.0195 14.9722 10.0195H13.7927C14.8354 9.12717 15.5569 7.86264 15.7398 6.41643C15.7886 6.03108 15.5157 5.67924 15.1305 5.63063C14.7454 5.5816 14.3935 5.85461 14.3447 6.23996C14.0747 8.3746 12.2455 9.98438 10.0899 9.98438C7.72493 9.98438 5.80082 8.06026 5.80082 5.69531C5.80082 3.33037 7.72493 1.40625 10.0899 1.40625C10.6325 1.40625 11.1608 1.50595 11.6604 1.70274C12.0217 1.84502 12.4299 1.66745 12.5722 1.306C12.7145 0.944687 12.5369 0.536407 12.1756 0.394272C11.5112 0.13266 10.8095 0 10.0899 0C6.94944 0 4.39457 2.55487 4.39457 5.69531C4.39457 7.67821 5.41328 9.42723 6.95465 10.4476C6.66489 10.6673 6.43349 10.96 6.28806 11.2981L3.57706 8.82092C3.181 8.43695 2.66121 8.22656 2.10997 8.22656L2.08965 8.2267C1.52619 8.23192 0.998572 8.45645 0.603889 8.85855C0.209344 9.26065 -0.0051635 9.79239 0.000192338 10.3557C0.00541084 10.9192 0.229806 11.4468 0.631904 11.8415L0.646736 11.8556L4.22758 15.171C5.16087 16.0731 6.24412 16.7775 7.44725 17.2645C8.653 17.7525 9.92384 18 11.2246 18H17.2969C17.6852 18 18 17.6852 18 17.2969C18 16.9085 17.6852 16.5938 17.2969 16.5938H11.2246C8.96377 16.5938 6.82433 15.7278 5.20001 14.1551L5.18861 14.1443L1.61092 10.8318C1.4806 10.701 1.40795 10.5275 1.4063 10.3425C1.40452 10.1548 1.47606 9.97751 1.60762 9.84348C1.73905 9.70944 1.91497 9.6346 2.10283 9.63281C2.29056 9.63144 2.46785 9.70258 2.60188 9.83414C2.60779 9.8399 2.61397 9.84567 2.62015 9.8513L6.67862 13.5599C7.06424 13.9767 7.61534 14.2383 8.22659 14.2383H11.7422C12.1306 14.2383 12.4453 13.9235 12.4453 13.5352C12.4453 13.1468 12.1306 12.832 11.7422 12.832H8.22659C8.08144 12.832 7.94644 12.7878 7.83424 12.7121C7.83227 12.7102 7.83042 12.7083 7.82858 12.7063C7.82644 12.704 7.82431 12.7018 7.82202 12.6996L7.67934 12.5693C7.58197 12.4486 7.52347 12.2956 7.52347 12.1289C7.52347 11.7412 7.83891 11.4258 8.22659 11.4258H14.9722C15.8663 11.4258 16.5938 12.1531 16.5938 13.0472ZM10.3534 6.32401C10.4281 6.39514 10.5133 6.40091 10.5575 6.39789C10.5995 6.395 10.6774 6.37949 10.7405 6.30862L13.7708 2.04936C13.996 1.73296 14.4349 1.65894 14.7514 1.88416C15.0678 2.10924 15.1418 2.54828 14.9167 2.86469L11.8709 7.14565C11.8629 7.15691 11.8547 7.16776 11.846 7.17847C11.5531 7.54294 11.1176 7.76981 10.651 7.80098C10.6142 7.80345 10.5771 7.80469 10.5404 7.80469C10.1128 7.80469 9.69725 7.64003 9.38551 7.34409L7.39314 5.46899C7.11038 5.20299 7.09693 4.7579 7.36307 4.47514C7.62908 4.19238 8.07416 4.17892 8.35692 4.44507L10.3505 6.32126L10.3534 6.32401Z" fill="white"/>
</svg>
