<svg width="12" height="12" viewBox="0 0 12 12" fill="none" xmlns="http://www.w3.org/2000/svg">
<path fill-rule="evenodd" clip-rule="evenodd" d="M6.00021 0.105469C6.32576 0.105469 6.58968 0.369385 6.58968 0.694942V5.41073H11.3055C11.631 5.41073 11.8949 5.67465 11.8949 6.00021C11.8949 6.32576 11.631 6.58968 11.3055 6.58968H6.58968V11.3055C6.58968 11.631 6.32576 11.8949 6.00021 11.8949C5.67465 11.8949 5.41073 11.631 5.41073 11.3055V6.58968H0.694942C0.369385 6.58968 0.105469 6.32576 0.105469 6.00021C0.105469 5.67465 0.369385 5.41073 0.694942 5.41073H5.41073V0.694942C5.41073 0.369385 5.67465 0.105469 6.00021 0.105469Z" fill="white"/>
</svg>
