<svg width="16" height="16" viewBox="0 0 16 16" fill="none" xmlns="http://www.w3.org/2000/svg">
<path fill-rule="evenodd" clip-rule="evenodd" d="M12.3636 0H3.63636C1.62905 0.00240443 0.00240445 1.62904 0 3.63634V9.45448C0.00218057 11.1818 1.21715 12.6701 2.90909 13.0181V15.2726C2.90905 15.5409 3.05671 15.7874 3.29326 15.914C3.52981 16.0405 3.81683 16.0266 4.04 15.8777L8.21818 13.0908H12.3636C14.3709 13.0884 15.9976 11.4618 16 9.45448V3.63634C15.9976 1.62904 14.3709 0.00240443 12.3636 0ZM8 10.909C7.59834 10.909 7.27273 10.5834 7.27273 10.1817C7.27273 9.78009 7.59834 9.45448 8 9.45448C8.40166 9.45448 8.72727 9.78009 8.72727 10.1817C8.72727 10.5834 8.40166 10.909 8 10.909ZM8.72727 7.08141C8.75423 6.69168 8.96233 6.33714 9.28945 6.12359C10.1196 5.51541 10.4119 4.40988 9.99083 3.47089C9.56977 2.5319 8.54984 2.01478 7.54354 2.23008C6.53723 2.44537 5.81818 3.33453 5.81818 4.36361C5.81818 4.76526 6.14379 5.09087 6.54545 5.09087C6.94712 5.09087 7.27273 4.76526 7.27273 4.36361C7.27318 4.0207 7.5131 3.72471 7.84848 3.65326C8.18386 3.58182 8.52358 3.75435 8.66374 4.0673C8.8039 4.38025 8.70643 4.74858 8.42982 4.95124C7.72423 5.43411 7.29371 6.22667 7.27273 7.08141V7.99994C7.27273 8.4016 7.59834 8.72721 8 8.72721C8.40166 8.72721 8.72727 8.4016 8.72727 7.99994V7.08141Z" fill="white"/>
</svg>
