<svg width="30" height="21" viewBox="0 0 30 21" fill="none" xmlns="http://www.w3.org/2000/svg">
<path fill-rule="evenodd" clip-rule="evenodd" d="M18.3435 20.3233C18.6199 20.7544 19.0847 21 19.5769 21C19.7156 21 19.8562 20.9806 19.9959 20.9404C22.9421 20.0865 29.8141 17.0533 29.9987 7.35819V7.3577C30.069 3.614 27.3093 0.39826 23.7146 0.0359556C21.7312 -0.164089 19.7527 0.477213 18.284 1.79471C16.8133 3.11316 15.9696 4.99542 15.9696 6.95955C15.9696 10.2363 18.3143 13.1018 21.5672 13.7151C20.9099 15.3605 19.8719 16.988 18.4822 18.5534C18.0398 19.0523 17.9842 19.7634 18.3435 20.3233ZM23.4265 14.4469C23.6355 13.9243 23.6013 13.3402 23.3327 12.8442C23.0505 12.3235 22.5486 11.9544 21.9548 11.8304C19.6453 11.3513 17.9695 9.30245 17.9695 6.95955C17.9695 5.55535 18.573 4.20978 19.6248 3.2667C20.5583 2.42922 21.7341 1.98311 22.9812 1.98311C23.157 1.98311 23.3347 1.99183 23.5134 2.01024C26.0798 2.2684 28.0505 4.60114 27.9987 7.32039C27.8717 14.0294 24.2097 17.049 21.1775 18.3999C22.1365 17.1134 22.8894 15.7891 23.4265 14.4469ZM5.59808 13.7151C4.94134 15.359 3.90328 16.9865 2.51315 18.553C2.07078 19.0514 2.01462 19.7629 2.3735 20.3233C2.64987 20.7544 3.1147 21 3.60689 21C3.74556 21 3.88668 20.9806 4.02583 20.9404C6.97209 20.0865 13.8446 17.0533 14.0291 7.35819C14.1004 3.61448 11.3402 0.39827 7.74601 0.0359556C5.76506 -0.160707 3.78316 0.477699 2.31442 1.79471C0.84374 3.11316 0 4.99543 0 6.95955C0 10.2363 2.34469 13.1018 5.59808 13.7151ZM3.65523 3.2667C4.5893 2.42922 5.76506 1.98311 7.01164 1.98311C7.18791 1.98311 7.36564 1.99183 7.54386 2.01024C10.1107 2.2684 12.0809 4.60114 12.0292 7.32039C11.9017 14.0289 8.24015 17.049 5.20795 18.3999C6.16741 17.1124 6.92131 15.7882 7.45743 14.446C7.66641 13.9233 7.63175 13.3392 7.36271 12.8432C7.08097 12.323 6.57853 11.9539 5.98528 11.8304C3.67574 11.3513 1.99998 9.30244 1.99998 6.95954C1.99998 5.55584 2.60348 4.20978 3.65523 3.2667Z" fill="#D4D9DB"/>
</svg>
