<svg width="16" height="14" viewBox="0 0 16 14" fill="none" xmlns="http://www.w3.org/2000/svg">
<path d="M15.5268 6.32655C14.5623 3.97565 11.9582 2.80017 7.7142 2.80017H5.71423V0.560126C5.71423 0.408356 5.65766 0.27709 5.54461 0.166297C5.4315 0.0554426 5.29768 0 5.14285 0C4.98799 0 4.85405 0.0554426 4.741 0.166297L0.169622 4.64639C0.0565719 4.75733 0 4.88854 0 5.04022C0 5.19186 0.0565719 5.32307 0.169622 5.43395L4.74103 9.91417C4.85421 10.0249 4.98815 10.0805 5.14288 10.0805C5.29759 10.0805 5.4315 10.0249 5.54464 9.91417C5.65772 9.8034 5.71426 9.67211 5.71426 9.5204V7.2802H7.71423C8.29743 7.2802 8.81968 7.29761 9.28095 7.33255C9.74219 7.36758 10.2008 7.43029 10.6559 7.52082C11.1114 7.61123 11.5073 7.73508 11.8436 7.89274C12.1799 8.05039 12.4939 8.25304 12.7856 8.50086C13.0774 8.74892 13.3155 9.04333 13.5001 9.38472C13.6845 9.72602 13.8289 10.1298 13.9331 10.5965C14.0371 11.0633 14.0894 11.5912 14.0894 12.1803C14.0894 12.501 14.0744 12.8599 14.0447 13.2566C14.0447 13.2914 14.0373 13.36 14.0224 13.4622C14.0076 13.5643 14.0001 13.6415 14.0001 13.6939C14.0001 13.7813 14.0254 13.8543 14.0759 13.9126C14.1266 13.9709 14.1966 14 14.2858 14C14.3811 14 14.4643 13.9505 14.5358 13.8513C14.5774 13.7988 14.6159 13.7346 14.6518 13.6587C14.6876 13.583 14.7278 13.4955 14.7724 13.3963C14.8171 13.2971 14.8484 13.2273 14.8661 13.1864C15.622 11.5241 16 10.2087 16 9.24028C15.9999 8.07954 15.8423 7.10814 15.5268 6.32655Z" fill="white"/>
</svg>
