<svg width="18" height="18" viewBox="0 0 18 18" fill="none" xmlns="http://www.w3.org/2000/svg">
<path d="M17.2969 8.29688C16.9085 8.29688 16.5938 8.61166 16.5938 9C16.5938 13.1872 13.1872 16.5938 9 16.5938C4.81279 16.5938 1.40625 13.1872 1.40625 9C1.40625 4.81279 4.81279 1.40625 9 1.40625C10.3556 1.40625 11.6713 1.76309 12.8302 2.44153C12.7632 2.64705 12.7266 2.86615 12.7266 3.09375C12.7266 4.25686 13.6728 5.20312 14.8359 5.20312C15.2243 5.20312 15.5391 4.88834 15.5391 4.5C15.5391 4.11166 15.2243 3.79688 14.8359 3.79688C14.4482 3.79688 14.1328 3.48145 14.1328 3.09375C14.1328 2.70605 14.4482 2.39062 14.8359 2.39062C15.2236 2.39062 15.5391 2.70605 15.5391 3.09375C15.5391 3.48209 15.8539 3.79688 16.2422 3.79688C16.6305 3.79688 16.9453 3.48209 16.9453 3.09375C16.9453 1.93064 15.999 0.984375 14.8359 0.984375C14.4159 0.984375 14.0245 1.10827 13.6954 1.32075C12.2839 0.455871 10.6671 0 9 0C6.59602 0 4.33593 0.936176 2.63602 2.63602C0.936176 4.33593 0 6.59602 0 9C0 11.404 0.936176 13.6641 2.63602 15.364C4.33593 17.0638 6.59602 18 9 18C11.404 18 13.6641 17.0638 15.364 15.364C17.0638 13.6641 18 11.404 18 9C18 8.61166 17.6852 8.29688 17.2969 8.29688Z" fill="#1886C4"/>
</svg>
