<svg width="14" height="14" viewBox="0 0 14 14" fill="none" xmlns="http://www.w3.org/2000/svg">
<path fill-rule="evenodd" clip-rule="evenodd" d="M14 6.12499C14 2.74224 11.2588 0 7.87722 0C4.49569 0 1.75444 2.74221 1.75444 6.12496C1.75444 7.49936 2.20696 8.76802 2.97109 9.78999L0.258735 12.5037L0.190197 12.5801C-0.0847056 12.9248 -0.061394 13.4286 0.258735 13.7462C0.423796 13.91 0.647253 14.0013 0.879755 14C1.11226 14.0013 1.33572 13.91 1.50078 13.7462L4.23439 11.0484C5.25237 11.8034 6.51267 12.25 7.87722 12.25C11.2587 12.25 14 9.50774 14 6.12499ZM3.50382 6.12499C3.50382 3.70874 5.46185 1.75001 7.87722 1.75001C10.2926 1.75001 12.2506 3.70874 12.2506 6.12499C12.2506 8.54124 10.2926 10.5 7.87722 10.5C6.70635 10.5 5.64295 10.0397 4.85797 9.29013L4.81146 9.23559C4.78419 9.20735 4.75551 9.18129 4.7258 9.15846C3.96909 8.37195 3.50382 7.30282 3.50382 6.12499Z" fill="#191919"/>
</svg>
