<svg width="24" height="24" viewBox="0 0 24 24" fill="none" xmlns="http://www.w3.org/2000/svg">
<path fill-rule="evenodd" clip-rule="evenodd" d="M23.1176 10.6107C23.1176 5.23813 18.7639 0.882812 13.3932 0.882812C8.02254 0.882812 3.66879 5.23808 3.66879 10.6107C3.66879 12.7936 4.3875 14.8085 5.60111 16.4316L1.29326 20.7416L1.1844 20.8629C0.747792 21.4105 0.784816 22.2105 1.29326 22.715C1.55541 22.9752 1.91031 23.1202 2.27958 23.1181C2.64885 23.1202 3.00375 22.9752 3.26591 22.715L7.60753 18.4303C9.22432 19.6294 11.226 20.3386 13.3932 20.3386C18.7638 20.3386 23.1176 15.9833 23.1176 10.6107ZM6.44721 10.6107C6.44721 6.77317 9.55702 3.66223 13.3932 3.66223C17.2293 3.66223 20.3392 6.77317 20.3392 10.6107C20.3392 14.4483 17.2294 17.5592 13.3932 17.5592C11.5336 17.5592 9.84465 16.8282 8.59792 15.6377L8.52406 15.5511C8.48074 15.5062 8.43519 15.4649 8.38801 15.4286C7.18617 14.1794 6.44721 12.4814 6.44721 10.6107Z" fill="#191919"/>
<path fill-rule="evenodd" clip-rule="evenodd" d="M16.3284 7.66981C15.7426 7.08402 14.7928 7.08402 14.2071 7.66981L13.4999 8.37692L12.7928 7.66981C12.2071 7.08402 11.2573 7.08402 10.6715 7.66981C10.0857 8.2556 10.0857 9.20534 10.6715 9.79113L11.3786 10.4982L10.6715 11.2053C10.0857 11.7911 10.0857 12.7409 10.6715 13.3267C11.2573 13.9124 12.2071 13.9124 12.7928 13.3267L13.4999 12.6196L14.2071 13.3267C14.7928 13.9124 15.7426 13.9124 16.3284 13.3267C16.9142 12.7409 16.9142 11.7911 16.3284 11.2053L15.6213 10.4982L16.3284 9.79113C16.9142 9.20534 16.9142 8.25559 16.3284 7.66981Z" fill="#191919"/>
</svg>
