<svg width="37" height="39" viewBox="0 0 37 39" fill="none" xmlns="http://www.w3.org/2000/svg">
<path fill-rule="evenodd" clip-rule="evenodd" d="M27.3982 6.94523C24.7698 2.77588 20.1212 0 14.8359 0C6.65535 0 0 6.65028 0 14.8246C0 20.1098 2.78218 24.7579 6.95994 27.3833L9.01182 25.333C5.3176 23.2805 2.8125 19.3394 2.8125 14.8246C2.8125 8.19991 8.20616 2.81035 14.8359 2.81035C19.3509 2.81035 23.2925 5.3099 25.3478 8.99688L27.3982 6.94523ZM16.0588 29.5994L19.9714 25.687C22.4837 24.4963 24.5199 22.4604 25.7099 19.9492L29.6228 16.0356C29.037 23.2426 23.2699 29.0087 16.0588 29.5994ZM27.3064 27.3131C27.8212 26.7986 28.636 26.7664 29.1884 27.2166L29.2952 27.3131L35.5881 33.6012C36.1373 34.1499 36.1373 35.0397 35.5881 35.5885C35.3135 35.8629 34.9537 36 34.5938 36C34.2853 36 33.9768 35.8992 33.722 35.6977L33.5994 35.5885L27.3064 29.3003C26.7573 28.7516 26.7573 27.8618 27.3064 27.3131Z" fill="#C9CFD1"/>
<rect x="1.32227" y="36.5547" width="47" height="3" rx="1.5" transform="rotate(-45 1.32227 36.5547)" fill="#C9CFD1"/>
</svg>
