<svg width="18" height="18" viewBox="0 0 18 18" fill="none" xmlns="http://www.w3.org/2000/svg">
<path fill-rule="evenodd" clip-rule="evenodd" d="M9 0C11.3924 0 13.6445 0.855423 15.3416 2.40862C17.0559 3.97774 18 6.06885 18 8.29688C18 9.8947 17.5064 11.4461 16.5726 12.7833C16.3503 13.1017 15.9119 13.1796 15.5936 12.9573C15.2753 12.7349 15.1974 12.2966 15.4197 11.9783C16.1878 10.8783 16.5938 9.60521 16.5938 8.29688C16.5938 4.49739 13.1873 1.40625 9 1.40625C4.81284 1.40625 1.40625 4.49739 1.40625 8.29688C1.40625 9.83606 1.95392 11.2922 2.98993 12.5077C3.15994 12.7071 3.20499 12.9845 3.1068 13.2273L2.00404 15.955L5.21535 14.5394C5.39346 14.461 5.59602 14.4598 5.77496 14.5361C6.78804 14.9683 7.87308 15.1875 9 15.1875C10.2971 15.1875 11.577 14.8857 12.7014 14.3145C13.0476 14.1386 13.4709 14.2767 13.6468 14.6229C13.8226 14.9693 13.6846 15.3924 13.3382 15.5683C12.0174 16.2392 10.5172 16.5938 9 16.5938C7.78793 16.5938 6.61528 16.3761 5.50992 15.9465L0.986847 17.9403C0.89566 17.9805 0.799118 18 0.7034 18C0.524048 18 0.347717 17.9316 0.213821 17.8017C0.00823975 17.6026 -0.0560303 17.2987 0.0513611 17.0333L1.64781 13.0842C0.568268 11.6808 0 10.0345 0 8.29688C0 6.06885 0.944138 3.97774 2.65855 2.40862C4.35553 0.855423 6.60773 0 9 0ZM11.0425 8.96484L9.10231 10.8917C8.82669 11.1654 8.82518 11.6106 9.09888 11.8861C9.23621 12.0245 9.41693 12.0938 9.59766 12.0938C9.77687 12.0938 9.95609 12.0258 10.0931 11.8895L12.2116 9.7858C12.6116 9.38837 12.832 8.85951 12.832 8.29688C12.832 7.73424 12.6118 7.20538 12.2114 6.80795L10.0931 4.70421C9.81766 4.43065 9.37244 4.43216 9.09888 4.70764C8.82518 4.98312 8.82669 5.42834 9.10231 5.70204L10.9716 7.55859H5.34375C4.95552 7.55859 4.64062 7.87335 4.64062 8.26172C4.64062 8.65009 4.95552 8.96484 5.34375 8.96484H11.0425Z" fill="white"/>
</svg>
