<svg width="40" height="28" viewBox="0 0 40 28" fill="none" xmlns="http://www.w3.org/2000/svg">
<path fill-rule="evenodd" clip-rule="evenodd" d="M39.6451 10.1012C39.3484 9.74542 38.9052 9.53915 38.4375 9.53915H36.5037V6.03847C37.1135 5.82897 37.551 5.25797 37.551 4.5864C37.551 3.73716 36.8515 3.04876 35.9885 3.04876H33.4219V1.53764C33.4219 0.688402 32.7224 0 31.8594 0C30.9965 0 30.2969 0.688402 30.2969 1.53764V3.04884H27.7303C26.8673 3.04884 26.1678 3.73724 26.1678 4.58648C26.1678 5.25812 26.6053 5.82912 27.2152 6.03855V9.53915H25.0523C24.4627 9.53915 23.9234 9.86574 23.6576 10.3836L22.8378 11.9812C22.6417 12.3633 22.2503 12.6007 21.8166 12.6007H21.5625V7.57904C21.5625 4.77891 19.2476 2.50082 16.4022 2.50082H9.45798C6.6126 2.50082 4.29768 4.77891 4.29768 7.57904V12.6007H1.56252C1.11659 12.6007 0.691976 12.7882 0.395492 13.1159C0.0990079 13.4437 -0.0410701 13.8804 0.0104924 14.3163L0.989476 22.5873C1.3269 25.6737 3.9558 28 7.10799 28H31.565C32.9703 28 34.3457 27.5202 35.4379 26.649C36.5295 25.7781 37.2917 24.5531 37.5841 23.1996L37.5883 23.1793L37.5933 23.1545C37.7613 22.3216 37.2114 21.5123 36.3649 21.3469C35.5186 21.1819 34.6961 21.7229 34.5281 22.5558L34.5253 22.5696C34.2258 23.9349 32.9823 24.9248 31.5649 24.9248H7.10806C5.55541 24.9248 4.26064 23.7767 4.09619 22.2544L4.09447 22.2389L3.3176 15.676H21.8166C23.4363 15.676 24.8965 14.7915 25.6273 13.3676L26.0137 12.6145H36.5341L36.1126 14.704C35.9444 15.537 36.4944 16.3463 37.3408 16.5117C38.1872 16.677 39.0096 16.1359 39.1777 15.303L39.9701 11.3764C40.0612 10.9249 39.9419 10.457 39.6451 10.1012ZM7.42267 12.6007V7.57911C7.42267 6.4747 8.33572 5.57618 9.45798 5.57618H11.3676V6.42427C11.3676 7.27351 12.0671 7.96191 12.9301 7.96191C13.7931 7.96191 14.4926 7.27351 14.4926 6.42427V5.57618H16.4022C17.5245 5.57618 18.4375 6.4747 18.4375 7.57911V12.6007H7.42267ZM30.3402 6.12412V9.53922H33.3787V6.12412H30.3402Z" fill="#1886C4"/>
<path opacity="0.5" fill-rule="evenodd" clip-rule="evenodd" d="M10.4445 18.7656C9.58149 18.7656 8.88196 19.454 8.88196 20.3033C8.88196 21.1525 9.58149 21.8409 10.4445 21.8409H11.7768C12.6398 21.8409 13.3393 21.1525 13.3393 20.3033C13.3393 19.454 12.6398 18.7656 11.7768 18.7656H10.4445ZM20.6662 18.7656H19.3338C18.4709 18.7656 17.7713 19.454 17.7713 20.3033C17.7713 21.1525 18.4709 21.8409 19.3338 21.8409H20.6662C21.5291 21.8409 22.2287 21.1525 22.2287 20.3033C22.2287 19.454 21.5291 18.7656 20.6662 18.7656ZM26.6607 20.3033C26.6607 19.454 27.3602 18.7656 28.2232 18.7656H29.5555C30.4185 18.7656 31.118 19.454 31.118 20.3033C31.118 21.1525 30.4185 21.8409 29.5555 21.8409H28.2232C27.3602 21.8409 26.6607 21.1525 26.6607 20.3033Z" fill="#1886C4"/>
</svg>
