<svg width="40" height="30" viewBox="0 0 40 30" fill="none" xmlns="http://www.w3.org/2000/svg">
<path d="M14.1401 6.92308C14.1401 6.28585 13.6154 5.76923 12.9683 5.76923H11.7183V1.15385C11.7183 0.516615 11.1936 0 10.5464 0C9.8992 0 9.37451 0.516615 9.37451 1.15385V5.76923H8.28076C7.63357 5.76923 7.10889 6.28585 7.10889 6.92308V8.15385H14.14V6.92308H14.1401Z" fill="#3E73CF"/>
<path opacity="0.5" d="M2.42188 10.4614H14.1403V16.1537H2.42188L2.42188 10.4614Z" fill="#3E73CF"/>
<path fill-rule="evenodd" clip-rule="evenodd" d="M37.3666 27.6923H38.8271C39.4743 27.6923 39.999 28.2089 39.999 28.8461C39.999 29.4833 39.4743 30 38.8272 30H1.17187C0.524687 30 0 29.4833 0 28.8461C0 28.2089 0.524687 27.6923 1.17187 27.6923H3.59359V25.3846H3.49078C1.56594 25.3846 0 23.8427 0 21.9473V19.6153C0 18.9781 0.524687 18.4615 1.17187 18.4615H30.9937L31.8416 16.7917C32.0401 16.4007 32.4458 16.1538 32.8897 16.1538H38.8271C39.6833 16.1538 40.2474 17.0282 39.8918 17.7897L37.8444 22.1744C37.0285 23.9216 36.8656 25.8559 37.3666 27.6923ZM33.671 22.3846C33.671 21.7473 33.1463 21.2307 32.4991 21.2307C31.8519 21.2307 31.3272 21.7473 31.3272 22.3846C31.3272 23.0218 31.8519 23.5384 32.4991 23.5384C33.1463 23.5384 33.671 23.0218 33.671 22.3846Z" fill="#3E73CF"/>
<path d="M23.5151 6.76904H20.3901C19.9587 6.76904 19.6089 7.11343 19.6089 7.53827V10.4614H23.5151V6.76904Z" fill="#3E73CF"/>
<path d="M29.7648 7.53827C29.7648 7.11343 29.415 6.76904 28.9836 6.76904H25.8586V10.4614H29.7648V7.53827Z" fill="#3E73CF"/>
<path d="M16.4839 12.769H20.3901V16.1537H16.4839L16.4839 12.769Z" fill="#3E73CF"/>
<path d="M22.7336 12.769H26.6398V16.1537H22.7336V12.769Z" fill="#3E73CF"/>
<path d="M28.9836 16.1537H29.5454C29.6283 16.0582 30.3711 13.846 32.8898 13.846V12.769H28.9836V16.1537Z" fill="#3E73CF"/>
</svg>
