<svg width="16" height="16" viewBox="0 0 16 16" fill="none" xmlns="http://www.w3.org/2000/svg">
<path fill-rule="evenodd" clip-rule="evenodd" d="M4.65031 0H11.3576C14.2711 0 16.0079 1.736 15.9999 4.648V11.352C15.9999 14.264 14.2631 16 11.3496 16H4.65031C1.73686 16 0 14.264 0 11.344V4.648C0 1.736 1.73686 0 4.65031 0ZM7.29162 10.696L11.8299 6.16C12.062 5.92 12.062 5.544 11.8299 5.312C11.5978 5.08 11.2136 5.08 10.9815 5.312L6.86741 9.424L5.0265 7.584C4.79438 7.352 4.41019 7.352 4.17807 7.584C3.94596 7.816 3.94596 8.2 4.17807 8.432L6.4432 10.696C6.55525 10.808 6.70733 10.872 6.86741 10.872C7.02749 10.872 7.17956 10.808 7.29162 10.696Z" fill="white"/>
</svg>
