<svg width="20" height="19" viewBox="0 0 20 19" fill="none" xmlns="http://www.w3.org/2000/svg">
<path d="M19.8888 7.10075C19.5938 6.20511 18.7903 5.62633 17.8418 5.62633H13.8456C13.5806 5.62633 13.3599 5.47582 13.2836 5.24425L12.0483 1.46837C11.7545 0.576347 10.9506 0 10.0001 0C9.04955 0 8.24557 0.576347 7.95139 1.46976L6.71694 5.24286C6.64022 5.47582 6.41947 5.62633 6.15448 5.62633H2.15819C1.20968 5.62633 0.406163 6.20507 0.111242 7.10075C-0.184851 7.9999 0.121789 8.93787 0.892335 9.49028L4.12542 11.8081C4.33331 11.9571 4.41967 12.2193 4.34022 12.4605L3.1053 16.2107C2.81155 17.1027 3.11866 18.0353 3.88764 18.5865C4.27213 18.8622 4.7128 19 5.15346 19C5.59416 19 6.03487 18.8622 6.41932 18.5865L9.6524 16.2687C9.86025 16.1197 10.1397 16.1196 10.3476 16.2688L13.5806 18.5865C14.3496 19.1378 15.3434 19.1379 16.1123 18.5865C16.8813 18.0353 17.1884 17.1027 16.8947 16.2107L16.0493 13.6434C15.916 13.2385 15.4752 13.017 15.065 13.1485C14.6547 13.28 14.4302 13.7148 14.5635 14.1197L15.4089 16.687C15.5321 17.0612 15.2756 17.281 15.194 17.3395C15.1125 17.3979 14.8213 17.5707 14.4988 17.3394L11.2658 15.0217C10.5087 14.4789 9.49127 14.4789 8.73412 15.0217L5.50108 17.3394C5.1785 17.5707 4.88737 17.3979 4.80584 17.3395C4.72428 17.281 4.46784 17.0612 4.591 16.687L5.82592 12.9368C6.11518 12.0585 5.80077 11.1038 5.04362 10.561L1.81054 8.24319C1.48554 8.01023 1.56487 7.67448 1.59694 7.57712C1.62858 7.48107 1.76249 7.16782 2.15815 7.16782H6.1544C7.09416 7.16782 7.91725 6.58569 8.20307 5.71784L9.43752 1.94477C9.56072 1.57059 9.8992 1.54153 9.99998 1.54153C10.1008 1.54153 10.4392 1.57059 10.562 1.94338L11.7974 5.71922C12.0827 6.58569 12.9058 7.16782 13.8456 7.16782H17.8418C18.2375 7.16782 18.3713 7.48107 18.403 7.57712C18.435 7.67448 18.5144 8.01023 18.1894 8.24319L15.9849 9.82361C15.6359 10.0739 15.5585 10.5558 15.8121 10.9002C16.0657 11.2446 16.5541 11.3208 16.9032 11.0707L19.1077 9.49032C19.8782 8.93787 20.1848 7.99994 19.8888 7.10075Z" fill="white"/>
</svg>
