<svg width="38" height="36" viewBox="0 0 38 36" fill="none" xmlns="http://www.w3.org/2000/svg">
<path fill-rule="evenodd" clip-rule="evenodd" d="M8.40285 35.754C8.85324 35.918 9.32241 36 9.79158 36C10.6289 36 11.4662 35.7389 12.1967 35.2166L18.3396 30.825C18.7345 30.5426 19.2654 30.5425 19.6604 30.825L25.8032 35.2166C27.2643 36.2611 29.1524 36.2612 30.6134 35.2166C32.0745 34.1722 32.658 32.4051 32.0998 30.715L30.4936 25.8506C30.2404 25.0835 29.403 24.6637 28.6236 24.9129C27.844 25.1622 27.4174 25.986 27.6707 26.7531L29.2769 31.6175C29.511 32.3264 29.0236 32.7429 28.8687 32.8538C28.7137 32.9645 28.1605 33.2919 27.5478 32.8537L21.405 28.4622C19.9665 27.4337 18.0334 27.4336 16.5948 28.4621L13.4375 30.7193L8.40285 35.754ZM22.3141 10.529L20.0677 3.6822C19.8345 2.97585 19.1914 2.92078 19 2.92078C18.8085 2.92078 18.1654 2.97585 17.9313 3.68483L15.5858 10.8338C15.0428 12.4781 13.4789 13.5811 11.6934 13.5811H4.10049C3.34873 13.5811 3.09431 14.1746 3.03419 14.3566C2.97326 14.5411 2.82252 15.1773 3.44002 15.6187L9.58287 20.0103C10.2455 20.484 10.7296 21.1233 11.0054 21.8377L7.75963 25.0835L8.24642 23.6093C8.39738 23.1524 8.23328 22.6555 7.83829 22.3732L1.69544 17.9816C0.231399 16.9349 -0.351218 15.1577 0.21136 13.4541C0.77171 11.757 2.29839 10.6604 4.10056 10.6604H11.6935C12.197 10.6604 12.6164 10.3752 12.7622 9.93384L15.1076 2.7848C15.6666 1.09203 17.1941 0 19.0001 0C20.8061 0 22.3336 1.09203 22.8917 2.78217L24.6627 8.18042L22.3141 10.529ZM30.5757 13.5811H33.8993C34.6512 13.5811 34.9055 14.1746 34.9656 14.3566C35.0266 14.5411 35.1773 15.1773 34.5598 15.6187L30.3713 18.6132C29.7082 19.0873 29.5612 20.0004 30.043 20.653C30.5248 21.3055 31.4528 21.45 32.116 20.9761L36.3046 17.9817C37.7687 16.9349 38.3512 15.1578 37.7886 13.4541C37.2282 11.757 35.7016 10.6604 33.8994 10.6604H33.4964L30.5757 13.5811Z" fill="#C9CFD1"/>
<rect x="3.08984" y="33.2891" width="42" height="3" rx="1.5" transform="rotate(-45 3.08984 33.2891)" fill="#C9CFD1"/>
</svg>
