<svg width="30" height="29" viewBox="0 0 30 29" fill="none" xmlns="http://www.w3.org/2000/svg">
<path d="M29.6812 12.0661L23.1073 18.5669L24.6598 27.7485C24.7273 28.1499 24.5648 28.5557 24.2397 28.7955C24.0561 28.9315 23.8377 29 23.6192 29C23.4514 29 23.2825 28.9593 23.1284 28.8769L15 24.542L6.87261 28.8758C6.518 29.0664 6.08636 29.0353 5.76131 28.7944C5.43625 28.5546 5.27373 28.1489 5.34127 27.7474L6.89372 18.5658L0.318771 12.0661C0.0317112 11.7813 -0.0727703 11.3552 0.0517632 10.9687C0.176297 10.5822 0.506627 10.2985 0.904501 10.2396L9.99017 8.90136L14.0533 0.548422C14.409 -0.182807 15.591 -0.182807 15.9467 0.548422L20.0098 8.90136L29.0955 10.2396C29.4934 10.2985 29.8237 10.5811 29.9482 10.9687C30.0728 11.3563 29.9683 11.7802 29.6812 12.0661Z" fill="#D5D5D5"/>
<path class="check" d="M18.646 12.2583C18.9558 11.914 19.4582 11.9138 19.7676 12.2583C20.0775 12.6027 20.0775 13.1613 19.7676 13.5055L14.1587 19.7416C14.0039 19.9139 13.8007 20 13.5977 20C13.3946 20 13.1916 19.9137 13.0368 19.7416L10.2324 16.6237C9.92255 16.2792 9.92255 15.7209 10.2324 15.3764C10.5422 15.032 11.0444 15.032 11.3542 15.3764L13.5979 17.8709L18.646 12.2583Z" fill="D5D5D5"/>
</svg>
