<svg width="24" height="21" viewBox="0 0 24 21" fill="none" xmlns="http://www.w3.org/2000/svg">
<path fill-rule="evenodd" clip-rule="evenodd" d="M15.235 5.556L12.6942 0.397133C12.4334 -0.132378 11.5666 -0.132378 11.3058 0.397133L8.32612 6.44581L1.6633 7.4149C1.37153 7.45754 1.12928 7.66299 1.03796 7.94286C0.946635 8.22273 1.02325 8.53129 1.23377 8.73751L5.344 12.75L15.235 5.556ZM22.3367 7.4149L21.372 7.274L5.082 19.121L4.91693 20.0929C4.8674 20.3837 4.98658 20.6775 5.22496 20.8511C5.46333 21.0256 5.77987 21.0481 6.03991 20.9101L12 17.7718L17.9609 20.9108C18.0739 20.9705 18.1977 21 18.3207 21C18.4809 21 18.6412 20.9504 18.7758 20.8519C19.0142 20.6783 19.1334 20.3844 19.0838 20.0937L17.9454 13.445L22.7662 8.73752C22.9767 8.53052 23.0534 8.22351 22.962 7.94286C22.8707 7.66221 22.6285 7.45754 22.3367 7.4149Z" fill="#D5D5D5"/>
<path d="M1 19L23 3" stroke="#D5D5D5" stroke-width="2" stroke-linecap="round"/>
</svg>
