<svg width="18" height="18" viewBox="0 0 18 18" fill="none" xmlns="http://www.w3.org/2000/svg">
<path fill-rule="evenodd" clip-rule="evenodd" d="M9.00002 0C4.02945 0 0 4.02944 0 9C0 13.9706 4.02945 18 9.00002 18C13.9706 18 18 13.9706 18 9C18 4.02944 13.9706 0 9.00002 0ZM5.40817 13.4345C5.17315 13.4342 4.94963 13.3329 4.79454 13.1563L2.6427 10.7018C2.34221 10.3629 2.37336 9.84455 2.71224 9.54407C3.05112 9.24358 3.56949 9.27472 3.86998 9.6136L4.49178 10.3172V8.90999C4.49178 6.51374 6.43191 4.56997 8.82816 4.56545H9.19634C9.64821 4.56575 10.0143 4.93233 10.014 5.38419C10.0137 5.83564 9.64779 6.20148 9.19634 6.20182H8.82816C7.33568 6.20635 6.12816 7.41751 6.12816 8.90999V10.5464L6.94633 9.61364C7.25135 9.27249 7.77516 9.24315 8.11634 9.54817C8.45749 9.85318 8.48683 10.377 8.18181 10.7182L6.02181 13.1727C5.86376 13.3432 5.64063 13.4384 5.40817 13.4345ZM14.13 8.36999C14.4308 8.70603 14.9468 8.73533 15.2837 8.43546C15.6221 8.137 15.6551 7.62085 15.3573 7.28182L13.2055 4.82728C13.1829 4.80166 13.1587 4.77746 13.133 4.75483C12.7941 4.45595 12.2771 4.48836 11.9782 4.82728L9.81819 7.28182C9.51317 7.623 9.54251 8.14682 9.88366 8.45183C10.2248 8.75685 10.7487 8.72751 11.0537 8.38636L11.8718 7.45364V9.09001C11.8718 10.5825 10.6643 11.7937 9.17184 11.7982H8.80366C8.35179 11.7982 7.98549 12.1645 7.98549 12.6163C7.98549 13.0682 8.35179 13.4345 8.80366 13.4345H9.17184C11.5681 13.43 13.5082 11.4862 13.5082 9.08997V7.66634L14.13 8.36999Z" fill="white"/>
</svg>
