<svg width="20" height="23" viewBox="0 0 20 23" fill="none" xmlns="http://www.w3.org/2000/svg">
<path fill-rule="evenodd" clip-rule="evenodd" d="M12.2222 0H7.77778C3.48889 0 0 3.61104 0 8.05009V11.5001C0 14.6195 1.73611 17.4457 4.44444 18.7768V22.6207C4.44444 22.9542 4.84722 23.1267 5.075 22.891L8.30278 19.5531H12.2222C16.5111 19.5531 20 15.942 20 11.5001V8.05009C20 3.61104 16.5111 0 12.2222 0ZM15.1333 15.0884L14.0083 16.227C12.825 17.4258 9.73611 16.0573 7.01389 13.1794C4.29167 10.2986 3.09722 7.07286 4.22222 5.87397L5.34722 4.73546C5.76111 4.31571 6.46389 4.32433 6.92778 4.75271L8.55 6.46911C9.12778 7.08149 8.88333 8.10787 8.11944 8.34363C7.59167 8.519 7.23333 9.11988 7.40278 9.66614C7.68333 10.9427 9.24722 12.5383 10.4139 12.8545C10.9389 12.981 11.5278 12.6849 11.7111 12.1415C11.9528 11.3567 12.95 11.1238 13.5306 11.739L15.15 13.4526C15.5556 13.8806 15.55 14.6083 15.1333 15.0884ZM10.6806 5.48268C10.7889 5.46831 10.9 5.46256 11.0111 5.46256C12.6444 5.46256 13.975 6.8397 13.975 8.53022C13.975 8.64522 13.9667 8.76022 13.9556 8.87234C13.9333 9.07935 14.0833 9.27197 14.2833 9.29497C14.4833 9.31797 14.6694 9.16272 14.6917 8.95572C14.7083 8.81484 14.7139 8.67109 14.7139 8.53022C14.7139 6.41707 13.0528 4.6978 11.0111 4.6978C10.875 4.6978 10.7361 4.70355 10.6 4.7208C10.3972 4.7438 10.25 4.93355 10.2722 5.14343C10.2944 5.35331 10.4778 5.50568 10.6806 5.48268ZM13.2333 8.53022C13.2333 8.74009 13.0639 8.91259 12.8611 8.91259C12.6611 8.91259 12.4917 8.74009 12.4917 8.53022C12.4917 7.68496 11.8278 6.99782 11.0111 6.99782C10.8056 6.99782 10.6389 6.82532 10.6389 6.61257C10.6389 6.40269 10.8056 6.23019 11.0111 6.23019C12.2361 6.23019 13.2333 7.26233 13.2333 8.53022ZM15.6 10.0511C15.7972 10.1057 16.0111 9.97636 16.0583 9.76935C16.15 9.36397 16.1972 8.94709 16.1972 8.53021C16.1972 5.57181 13.8694 3.16253 11.0111 3.16253C10.8778 3.16253 10.7444 3.16828 10.6111 3.17978C10.4083 3.19416 10.2556 3.37816 10.2694 3.59091C10.2861 3.80079 10.4639 3.95892 10.6667 3.94454C10.7806 3.93304 10.8972 3.93017 11.0111 3.93017C13.4611 3.93017 15.4556 5.99444 15.4556 8.53021C15.4556 8.88959 15.4167 9.2461 15.3361 9.5911C15.2917 9.78948 15.4083 9.99648 15.6 10.0511Z" fill="currentColor"/>
</svg>
