<svg width="16" height="15" viewBox="0 0 16 15" fill="none" xmlns="http://www.w3.org/2000/svg">
<path fill-rule="evenodd" clip-rule="evenodd" d="M14.4616 2.78265V1.83673C14.4618 0.832997 13.652 0.0150561 12.6433 0H3.02238C0.345631 0 0.0410354 2.17041 0.00103801 3.29694C-0.000346004 3.30812 -0.000346004 3.31943 0.00103801 3.33061V3.36735V13.1633C0.00103801 14.1777 0.827536 15 1.84707 15H14.154C15.1735 15 16 14.1777 16 13.1633V4.59184C15.9991 3.69627 15.3492 2.93191 14.4616 2.78265ZM1.28711 2.7551C1.44402 1.64388 1.95476 1.22449 3.02238 1.22449H12.6433C12.9723 1.23923 13.2313 1.50907 13.2309 1.83673V2.7551H1.28711ZM11.0772 9.03061C11.0772 9.79141 11.6971 10.4082 12.4618 10.4082C12.8292 10.409 13.1819 10.2641 13.4417 10.0056C13.7015 9.74707 13.8471 9.39621 13.8463 9.03061C13.8463 8.26981 13.2264 7.65306 12.4618 7.65306C11.6971 7.65306 11.0772 8.26981 11.0772 9.03061Z" fill="white"/>
</svg>
