<svg width="32" height="27" viewBox="0 0 32 27" fill="none" xmlns="http://www.w3.org/2000/svg">
<path d="M15 15.44C12.08 21.48 7.64 24.84 5.2 23.88C2.6 22.88 2.56 16.44 6 10.52C9.4 4.68 14.08 1.72 15.92 2.36C18 3.08 18.24 8.76 15 15.44ZM16.64 1.48C15.6 0.4 13.72 0.0399995 11.56 0.96C7.4 2.72 0.56 10.24 0.68 18.44C0.72 21.52 2.12 24.28 5.2 25.28C10.32 26.92 14.92 22.16 17.76 16.28C20.4 10.84 21.32 3.24 16.64 1.48ZM26.5303 5.84C23.5303 11.28 19.6503 19.2 18.8503 21.72C18.0903 24.2 18.4103 25.44 19.0503 26.16C19.3303 26.48 19.6103 26.4 19.7703 26C22.9303 18.44 27.3703 11.04 29.6903 6.6C31.2103 3.72 31.1303 2.2 29.9703 1.16C29.5703 0.799999 29.2903 0.839999 28.9303 1.16C27.7303 2.44 26.2903 3.84 25.0903 5C24.7303 5.36 24.4903 5.96 26.5303 5.84Z" fill="#1886C4"/>
</svg>
