<svg width="40" height="27" viewBox="0 0 40 27" fill="none" xmlns="http://www.w3.org/2000/svg">
<path d="M15 15.44C12.08 21.48 7.64 24.84 5.2 23.88C2.6 22.88 2.56 16.44 6 10.52C9.4 4.68 14.08 1.72 15.92 2.36C18 3.08 18.24 8.76 15 15.44ZM16.64 1.48C15.6 0.4 13.72 0.0399995 11.56 0.96C7.4 2.72 0.56 10.24 0.68 18.44C0.72 21.52 2.12 24.28 5.2 25.28C10.32 26.92 14.92 22.16 17.76 16.28C20.4 10.84 21.32 3.24 16.64 1.48ZM36.1703 4.52C34.2503 7.32 32.1303 11.04 30.3703 14.44C27.8103 14.56 24.7703 15.08 22.3303 15.72C25.8503 11.96 31.5303 7.72 36.1703 4.52ZM33.4103 14.92C35.5303 11.12 37.6503 7.52 39.0503 5.36C39.8503 4.12 39.8503 3.92 39.3703 3.04C38.9303 2.28 38.6503 1.8 38.2503 1.16C37.8503 0.519998 37.1703 0.719998 36.6903 1.04C31.5703 4.32 23.8503 10.52 20.5303 14.44C20.2103 14.8 20.1303 15.28 20.3703 15.72C20.6903 16.32 21.2503 17.32 21.7703 18C22.1303 18.44 22.5303 18.44 23.1303 18.32C24.7703 17.92 26.9303 17.56 28.9703 17.28C28.1703 18.96 27.5303 20.44 27.1303 21.52C26.2903 23.92 26.7703 25 27.3703 25.88C27.5703 26.16 27.8903 26.12 28.0503 25.72C29.0503 23.2 30.6103 20.08 32.2903 17C33.1303 16.96 33.8503 17 34.4503 17.12C34.8503 17.2 34.9703 17 34.8903 16.64C34.6903 16 34.2503 15.36 33.4103 14.92Z" fill="#1886C4"/>
</svg>
