<svg width="31" height="21" viewBox="0 0 31 21" fill="none" xmlns="http://www.w3.org/2000/svg">
<path d="M11 11.83C8.81 16.36 5.48 18.88 3.65 18.16C1.7 17.41 1.67 12.58 4.25 8.14C6.8 3.76 10.31 1.54 11.69 2.02C13.25 2.56 13.43 6.82 11 11.83ZM12.23 1.36C11.45 0.55 10.04 0.28 8.42 0.97C5.3 2.29 0.17 7.93 0.26 14.08C0.29 16.39 1.34 18.46 3.65 19.21C7.49 20.44 10.94 16.87 13.07 12.46C15.05 8.38 15.74 2.68 12.23 1.36ZM30.2377 2.32C30.5677 2.32 30.6277 2.2 30.5377 1.93C30.1777 0.909999 29.3977 0.28 28.1377 0.309999C26.5777 0.339999 23.7277 1.21 20.9377 1.12C20.6377 1.12 20.4877 1.24 20.5777 1.51C20.6677 1.81 20.8177 2.14 21.0877 2.41C19.8277 4.39 18.7777 6.22 18.0877 7.66C17.2777 9.37 17.6977 10.42 18.1777 10.96C18.3877 11.2 18.5377 11.23 18.7777 10.93C20.0677 9.19 21.9877 8.32 23.0377 8.89C24.0277 9.43 23.8477 11.86 22.3777 14.41C20.9677 16.84 18.2377 18.79 16.7377 17.89C15.5677 17.2 15.6277 14.71 17.0677 12.49C17.2177 12.25 17.1277 12.04 16.8877 12.07C16.0177 12.13 14.9377 12.64 14.4277 14.02C13.8877 15.46 13.9477 17.71 16.0477 18.82C18.3277 20.02 21.9577 19.36 24.1777 15.67C26.6377 11.59 25.7377 9.31 24.2377 8.17C23.3677 7.51 21.6877 7.21 20.2477 7.78C21.2377 6.22 22.2277 4.66 23.2177 3.19C23.3677 3.19 23.5177 3.19 23.6977 3.16C25.5877 2.92 27.6277 2.32 30.2377 2.32Z" fill="#1886C4"/>
</svg>
