<svg width="30" height="30" viewBox="0 0 30 30" fill="none" xmlns="http://www.w3.org/2000/svg">
<path fill-rule="evenodd" clip-rule="evenodd" d="M28.374 12.2923L29.25 13.169C29.734 13.6533 30.001 14.2988 30 14.9884C30 15.6759 29.733 16.3224 29.249 16.8068L28.373 17.6835C28.013 18.0447 27.797 18.8524 27.929 19.3457L28.248 20.5447C28.426 21.2042 28.335 21.8967 27.991 22.4932C27.647 23.0896 27.093 23.517 26.431 23.6941L25.235 24.0144C24.743 24.1475 24.151 24.7389 24.018 25.2333L23.699 26.4282C23.399 27.5511 22.376 28.3347 21.214 28.3347H21.213C20.99 28.3347 20.768 28.3057 20.551 28.2476L19.356 27.9274C18.9 27.8073 18.04 28.0285 17.695 28.3727L16.818 29.2494C16.335 29.7328 15.689 30 15.001 30C14.313 30 13.667 29.7328 13.183 29.2464L12.307 28.3707C11.963 28.0265 11.106 27.8033 10.646 27.9254L9.449 28.2456C8.106 28.6039 6.66 27.7643 6.302 26.4272L5.983 25.2293C5.85 24.7379 5.258 24.1455 4.765 24.0134L3.57 23.6931C2.908 23.516 2.355 23.0896 2.011 22.4942C1.666 21.8987 1.574 21.2052 1.752 20.5437L2.072 19.3457C2.204 18.8524 1.987 18.0437 1.627 17.6835L0.751 16.8068C0.267 16.3224 0 15.6759 0 14.9884C0 14.3008 0.267 13.6543 0.75 13.17L1.626 12.2933C1.986 11.932 2.202 11.1244 2.07 10.631L1.751 9.43206C1.573 8.77255 1.664 8.08001 2.008 7.48355C2.352 6.88709 2.906 6.46076 3.568 6.28362L4.765 5.96237C5.257 5.83027 5.849 5.23881 5.981 4.74443L6.301 3.5485C6.659 2.21046 8.1 1.36781 9.449 1.72909L10.644 2.05034C11.104 2.17243 11.961 1.94926 12.305 1.60499L13.182 0.727314C14.151 -0.242438 15.848 -0.242438 16.817 0.727314L17.694 1.60399C18.038 1.94826 18.895 2.17143 19.354 2.04934L20.55 1.72809C21.899 1.36781 23.34 2.21046 23.698 3.5475L24.018 4.74543C24.151 5.23681 24.743 5.82927 25.235 5.96137L26.431 6.28262C27.093 6.45976 27.646 6.88509 27.99 7.48155C28.335 8.07701 28.427 8.77055 28.249 9.43206L27.929 10.63C27.797 11.1234 28.014 11.932 28.374 12.2923ZM11 7.98294C9.346 7.98294 8 9.32998 8 10.9853C8 12.6405 9.346 13.9876 11 13.9876C12.654 13.9876 14 12.6405 14 10.9853C14 9.32998 12.654 7.98294 11 7.98294ZM11.707 19.699C11.512 19.8942 11.256 19.9922 11 19.9922C10.744 19.9922 10.488 19.8942 10.293 19.699C9.902 19.3077 9.902 18.6752 10.293 18.2839L18.293 10.2777C18.684 9.88641 19.316 9.88641 19.707 10.2777C20.098 10.669 20.098 11.3015 19.707 11.6928L11.707 19.699ZM16 18.9915C16 20.6468 17.346 21.9938 19 21.9938C20.654 21.9938 22 20.6468 22 18.9915C22 17.3362 20.654 15.9891 19 15.9891C17.346 15.9891 16 17.3362 16 18.9915Z" fill="#3E73CF"/>
<ellipse opacity="0.5" cx="19" cy="18.9915" rx="1" ry="1.00078" fill="#3E73CF"/>
<ellipse opacity="0.5" cx="11" cy="10.9852" rx="1" ry="1.00078" fill="#3E73CF"/>
</svg>
