<svg width="22" height="18" viewBox="0 0 22 18" fill="none" xmlns="http://www.w3.org/2000/svg">
<path fill-rule="evenodd" clip-rule="evenodd" d="M21.5167 14.0716L21.9293 12.4364C22.0394 11.9853 22.0394 11.5061 21.7918 11.0832C21.6542 10.6603 21.3791 10.2938 21.0215 10.0401L20.9114 8.96876L20.6913 7.07988C20.5538 5.8958 19.921 4.82449 18.9307 4.20426C18.6005 4.00692 18.2429 3.86596 17.8577 3.75319L13.6486 2.5973C13.2634 2.48453 12.8783 2.42815 12.4931 2.45634C12.108 2.45634 11.7504 2.54092 11.3927 2.65369C11.2001 2.71007 11.0351 2.79465 10.87 2.87923C10.5399 3.04838 10.2373 3.27392 9.96216 3.55584C9.8246 3.6968 9.68705 3.83776 9.57701 4.00692L8.47658 5.5293L7.84383 6.37507C7.62375 6.40326 7.40366 6.45965 7.21108 6.54422C6.57834 6.82615 6.11066 7.3618 5.94559 8.03841L5.53293 9.67357C5.4504 10.0683 5.4504 10.4911 5.56044 10.8858C5.58795 10.9986 5.64297 11.1396 5.69799 11.2523L5.23031 13.0848C5.2028 13.2258 5.17529 13.3949 5.2028 13.5359C5.25782 13.9588 5.56044 14.3535 6.00061 14.4663L7.07353 14.7482C7.65126 14.9173 8.25649 14.5508 8.42156 13.9588L8.69666 12.8593L17.1975 15.1993L16.9224 16.2988C16.7573 16.8908 17.1149 17.511 17.6927 17.6802L18.7656 17.9621C19.2058 18.0749 19.6459 17.9339 19.921 17.5674C20.0036 17.4546 20.0861 17.3137 20.1136 17.1727L20.6088 15.3402C20.7189 15.2556 20.8289 15.1711 20.9114 15.0865C21.214 14.8046 21.4066 14.4663 21.5167 14.0716ZM7.48619 8.91237C7.67877 8.34853 8.25649 8.03841 8.80671 8.23576C9.43945 8.40491 10.1272 9.64537 9.96216 10.2938C9.81721 10.8632 9.07831 10.65 8.47191 10.475C8.38773 10.4507 8.30611 10.4272 8.22898 10.4066C8.21523 10.4066 8.19459 10.3995 8.17396 10.3925C8.15333 10.3854 8.13269 10.3784 8.11894 10.3784C7.56872 10.181 7.26611 9.58899 7.45868 9.02514C7.45868 9.01105 7.46556 8.9899 7.47244 8.96876C7.47931 8.94762 7.48619 8.92647 7.48619 8.91237ZM18.7931 9.22249L18.573 7.33361C18.5455 7.16445 18.4905 6.9953 18.4355 6.85434C18.2429 6.37507 17.8302 6.03676 17.3625 5.92399L13.1259 4.76811C12.4656 4.59896 11.7779 4.82449 11.3652 5.38834L10.2648 6.91072L16.1796 8.54588L18.7931 9.22249ZM17.4176 12.3236C17.5826 11.6752 18.7931 10.9704 19.4258 11.1396C19.4534 11.1537 19.4877 11.1607 19.5221 11.1678C19.5565 11.1748 19.5909 11.1819 19.6184 11.1959C20.1961 11.3933 20.4713 12.0417 20.2787 12.6338C20.0861 13.2258 19.4534 13.5359 18.8756 13.3104C18.8093 13.2926 18.7391 13.2749 18.6666 13.2566C18.048 13.1005 17.2698 12.9041 17.4176 12.3236Z" fill="white"/>
<path d="M4.92794 7.75649L4.48777 9.39164C4.37773 9.78633 4.35022 10.2092 4.40524 10.6039L3.19477 11.6188C3.05721 11.7316 2.86464 11.7034 2.7546 11.5624C2.69957 11.4779 2.67206 11.3933 2.69957 11.3087L3.22228 8.60226C3.24979 8.4331 3.13975 8.26395 2.97468 8.23576H2.94717L0.27863 7.98203C0.113566 7.95383 -0.0239878 7.81287 0.0035229 7.64372C0.0035229 7.55914 0.0585444 7.47457 0.141077 7.41818L2.36945 5.8958C2.507 5.78303 2.56202 5.58568 2.45198 5.44472C2.45198 5.44472 2.45198 5.41653 2.42447 5.41653L0.718802 3.30211C0.608759 3.16115 0.63627 2.9638 0.773823 2.85103C0.856355 2.79465 0.938888 2.76645 1.02142 2.79465L3.66245 3.3303C3.82751 3.35849 3.99258 3.24572 4.02009 3.07657V3.04838L4.26769 0.285533C4.2952 0.116379 4.43275 -0.0245821 4.59781 0.00361018C4.68035 0.00361018 4.76288 0.0599947 4.8179 0.144572L6.30348 2.42815C6.38601 2.56911 6.57859 2.62549 6.74365 2.51272C6.74365 2.51272 6.77116 2.51272 6.77116 2.48453L8.83447 0.73661C8.97202 0.62384 9.1646 0.652033 9.27464 0.792994C9.32966 0.877571 9.35717 0.962148 9.32966 1.04672L8.94451 3.02018C8.86198 3.13295 8.75193 3.24572 8.6694 3.35849L7.56897 4.88088L7.21133 5.38834C6.13841 5.67026 5.23056 6.6006 4.92794 7.75649Z" fill="white"/>
</svg>
