<svg width="24" height="27" viewBox="0 0 24 27" fill="none" xmlns="http://www.w3.org/2000/svg">
<path fill-rule="evenodd" clip-rule="evenodd" d="M21.9399 22.7812C21.9399 22.1987 22.4011 21.7266 22.97 21.7266C23.5389 21.7266 24 22.1987 24 22.7812C24 25.1075 22.1517 27 19.8798 27H4.12017C1.84831 27 0 25.1075 0 22.7812V6.32812C0 4.00191 1.84831 2.10938 4.12017 2.10938H4.28179C4.68999 0.883828 5.82546 0 7.1588 0C8.83432 0 10.1974 1.39572 10.1974 3.11133V9.86133C10.1974 11.5769 8.83432 12.9727 7.1588 12.9727C5.48328 12.9727 4.12017 11.5769 4.12017 9.86133V7.38281C4.12017 6.80031 4.58132 6.32812 5.15021 6.32812C5.71911 6.32812 6.18026 6.80031 6.18026 7.38281V9.86133C6.18026 10.4138 6.61921 10.8633 7.1588 10.8633C7.69839 10.8633 8.13734 10.4138 8.13734 9.86133V3.11133C8.13734 2.55883 7.69839 2.10938 7.1588 2.10938C6.61921 2.10938 6.18026 2.55883 6.18026 3.11133V3.16406C6.18026 3.74657 5.71911 4.21875 5.15021 4.21875H4.12017C2.98424 4.21875 2.06009 5.16502 2.06009 6.32812V22.7812C2.06009 23.9444 2.98424 24.8906 4.12017 24.8906H19.8798C21.0158 24.8906 21.9399 23.9444 21.9399 22.7812ZM24 6.32812V17.5078C24 18.0903 23.5389 18.5625 22.97 18.5625C22.4011 18.5625 21.9399 18.0903 21.9399 17.5078V6.32812C21.9399 5.16502 21.0158 4.21875 19.8798 4.21875H13.2876C12.7187 4.21875 12.2575 3.74657 12.2575 3.16406C12.2575 2.58156 12.7187 2.10938 13.2876 2.10938H19.8798C22.1517 2.10938 24 4.00191 24 6.32812ZM5.15021 20.6719C4.58132 20.6719 4.12017 21.1441 4.12017 21.7266C4.12017 22.3091 4.58132 22.7812 5.15021 22.7812H14.7296C15.2985 22.7812 15.7597 22.3091 15.7597 21.7266C15.7597 21.1441 15.2985 20.6719 14.7296 20.6719H5.15021ZM18.8498 16.4531C19.4187 16.4531 19.8798 16.9253 19.8798 17.5078C19.8798 18.0903 19.4187 18.5625 18.8498 18.5625H5.15021C4.58132 18.5625 4.12017 18.0903 4.12017 17.5078C4.12017 16.9253 4.58132 16.4531 5.15021 16.4531H18.8498ZM12.3605 14.3438H18.8498C19.4187 14.3438 19.8798 13.8716 19.8798 13.2891C19.8798 12.7066 19.4187 12.2344 18.8498 12.2344H12.3605C11.7916 12.2344 11.3305 12.7066 11.3305 13.2891C11.3305 13.8716 11.7916 14.3438 12.3605 14.3438Z" fill="#C9CFD1"/>
</svg>
