<svg width="26" height="26" viewBox="0 0 26 26" fill="none" xmlns="http://www.w3.org/2000/svg">
<path fill-rule="evenodd" clip-rule="evenodd" d="M11.8711 21.6249C12.0571 21.9191 12.3813 22.0975 12.7299 22.0975H13.2404C13.589 22.0975 13.9132 21.9191 14.0992 21.6249C15.024 20.1626 16.1867 18.89 17.3111 17.6593L17.3118 17.6585L17.3119 17.6584C19.5518 15.2068 21.868 12.6718 21.8717 8.86966C21.866 3.97897 17.8795 0 12.9851 0C8.09074 0 4.10425 3.97897 4.0986 8.87189C4.10226 12.6719 6.41849 15.207 8.65846 17.6586C9.78309 18.8895 10.946 20.1623 11.8711 21.6249ZM12.9851 2.02729C16.7608 2.02729 19.8361 5.09783 19.8405 8.86991C19.8375 11.8855 17.9716 13.9277 15.811 16.2925L15.811 16.2926L15.8087 16.2951C14.8507 17.3436 13.8665 18.4209 12.9851 19.649C12.1031 18.4199 11.1181 17.3418 10.1593 16.2926C7.9987 13.9278 6.13275 11.8855 6.1298 8.87204C6.13418 5.09783 9.20943 2.02729 12.9851 2.02729ZM14.0156 12.7719C14.0156 12.2121 13.5609 11.7583 13 11.7583C11.4319 11.7583 10.1563 10.4851 10.1563 8.92008C10.1563 7.35505 11.4319 6.08187 13 6.08187C14.568 6.08187 15.8437 7.35505 15.8437 8.92008C15.8437 9.47989 16.2984 9.93373 16.8593 9.93373C17.4202 9.93373 17.8749 9.47989 17.8749 8.92008C17.8749 6.23721 15.6881 4.05458 13 4.05458C10.3119 4.05458 8.12509 6.23721 8.12509 8.92008C8.12509 11.603 10.3119 13.7856 13 13.7856C13.5609 13.7856 14.0156 13.3318 14.0156 12.7719ZM25.75 22.5325L23.8405 18.6631C23.3894 17.7491 22.475 17.1812 21.4542 17.1812H20.4139C19.853 17.1812 19.3983 17.6351 19.3983 18.1949C19.3983 18.7547 19.853 19.2085 20.4139 19.2085H21.4541C21.6955 19.2085 21.9116 19.3427 22.0183 19.5588L23.9278 23.4282C24.0086 23.592 23.9511 23.7279 23.9096 23.7945C23.8682 23.861 23.7713 23.9727 23.5884 23.9727H2.41159C2.22873 23.9727 2.13186 23.8611 2.09039 23.7946C2.04892 23.728 1.99143 23.592 2.07223 23.4282L3.98178 19.5589C4.08837 19.3427 4.30456 19.2086 4.54588 19.2086H5.53533C6.09622 19.2086 6.55093 18.7547 6.55093 18.1949C6.55093 17.6351 6.09622 17.1813 5.53533 17.1813H4.54588C3.52493 17.1813 2.61053 17.7491 2.15959 18.6631L0.250032 22.5325C-0.12037 23.283 -0.0771225 24.1552 0.365732 24.8655C0.808535 25.5759 1.5733 26 2.41159 26H23.5884C24.4267 26 25.1915 25.5759 25.6343 24.8655C26.0771 24.1552 26.1204 23.2831 25.75 22.5325Z" fill="#8C8C8C"/>
</svg>
