<svg width="26" height="26" viewBox="0 0 26 26" fill="none" xmlns="http://www.w3.org/2000/svg">
<path d="M24.8178 18.3072C23.3993 16.9395 22.2109 16.15 21.0779 15.8225C19.5165 15.3715 18.0705 15.7817 16.7797 17.0423C16.7777 17.0441 16.776 17.046 16.774 17.048L15.3995 18.412C14.5458 17.9325 12.8862 16.877 11.0712 15.0618L10.9375 14.9285C9.13439 13.1254 8.07235 11.4563 7.58914 10.5992L8.95209 9.22594L8.95785 9.22019C10.2182 7.92964 10.6285 6.48356 10.1774 4.92204C9.84989 3.78899 9.0604 2.60059 7.69268 1.18228C6.99405 0.45786 6.05559 0.0389148 5.04989 0.00261418C4.04398 -0.0340832 3.07795 0.316624 2.32893 0.98888L2.29977 1.01506C2.28628 1.02736 2.27319 1.03986 2.2603 1.05275C0.769397 2.54346 -0.0121556 4.63064 0.000142938 7.08857C0.0209711 11.2639 2.31584 16.0388 6.1385 19.8614C6.85936 20.5825 7.6788 21.2958 8.57342 21.9817C9.01855 22.3231 9.65609 22.239 9.99747 21.7937C10.3387 21.3486 10.2546 20.7112 9.80942 20.3698C8.98502 19.7378 8.23322 19.0836 7.57486 18.4253C4.12194 14.9724 2.04964 10.7305 2.03139 7.07846C2.02186 5.18567 2.59137 3.6055 3.6782 2.50736L3.68594 2.50041C4.42425 1.83768 5.54183 1.87815 6.23055 2.59226C8.85986 5.31897 8.66943 6.60635 7.50761 7.79792L5.62494 9.69468C5.32978 9.99203 5.24746 10.4403 5.41805 10.8234C5.46585 10.9307 6.62192 13.4856 9.50156 16.3653L9.63526 16.4988C12.5143 19.3778 15.0694 20.5341 15.1767 20.5819C15.5596 20.7523 16.0079 20.6702 16.3054 20.375L18.2022 18.4923C19.3938 17.3305 20.6809 17.1401 23.4078 19.7694C24.122 20.4581 24.1622 21.5757 23.4999 22.3138L23.4927 22.3217C22.4035 23.3998 20.8404 23.9688 18.9681 23.9688C18.9526 23.9688 18.9371 23.9688 18.9217 23.9686C17.425 23.9612 15.6921 23.5508 13.91 22.7823C13.3952 22.5602 12.7974 22.7974 12.5752 23.3126C12.353 23.8275 12.5905 24.4252 13.1056 24.6474C15.1654 25.5358 17.1187 25.9909 18.9115 25.9998C18.9306 26 18.9496 26 18.9687 26C21.4016 26 23.4681 25.219 24.9473 23.7396C24.9602 23.7267 24.9727 23.7137 24.9848 23.7002L25.0112 23.6708C25.6835 22.9218 26.0336 21.9556 25.9973 20.9501C25.961 19.9443 25.542 19.0059 24.8178 18.3072Z" fill="#1886C4"/>
<path opacity="0.5" d="M15.9961 6.95732V2.64092C15.9961 2.07994 16.4507 1.62529 17.0117 1.62529C17.5727 1.62529 18.0273 2.07994 18.0273 2.64092V6.53659L24.2661 0.297641C24.6628 -0.0988882 25.3059 -0.0988882 25.7024 0.297641C26.0991 0.694369 26.0991 1.33747 25.7024 1.73399L19.4637 7.97294H23.3594C23.9203 7.97294 24.375 8.42759 24.375 8.98856C24.375 9.54934 23.9203 10.0042 23.3594 10.0042H19.043C17.363 10.0042 15.9961 8.63726 15.9961 6.95732Z" fill="#1886C4"/>
</svg>
