<svg width="26" height="26" viewBox="0 0 26 26" fill="none" xmlns="http://www.w3.org/2000/svg">
<path opacity="0.5" d="M14.0155 12.7721C14.0155 12.2122 13.5608 11.7584 12.9999 11.7584C11.4319 11.7584 10.1562 10.4852 10.1562 8.92019C10.1562 7.35516 11.4319 6.08198 12.9999 6.08198C14.568 6.08198 15.8436 7.35516 15.8436 8.92019C15.8436 9.48 16.2983 9.93384 16.8592 9.93384C17.4201 9.93384 17.8748 9.48 17.8748 8.92019C17.8748 6.23732 15.688 4.05469 12.9999 4.05469C10.3118 4.05469 8.125 6.23732 8.125 8.92019C8.125 11.6031 10.3118 13.7857 12.9999 13.7857C13.5608 13.7857 14.0155 13.3319 14.0155 12.7721Z" fill="#1886C4"/>
<path d="M25.75 22.5324L23.8405 18.6631C23.3894 17.749 22.475 17.1812 21.4542 17.1812H20.4139C19.853 17.1812 19.3983 17.635 19.3983 18.1948C19.3983 18.7546 19.853 19.2084 20.4139 19.2084H21.4541C21.6955 19.2084 21.9116 19.3427 22.0183 19.5587L23.9278 23.4281C24.0086 23.5919 23.9511 23.7279 23.9096 23.7944C23.8682 23.861 23.7713 23.9726 23.5884 23.9726H2.41159C2.22873 23.9726 2.13186 23.861 2.09039 23.7945C2.04892 23.728 1.99143 23.5919 2.07223 23.4282L3.98178 19.5588C4.08837 19.3427 4.30456 19.2085 4.54588 19.2085H5.53533C6.09622 19.2085 6.55093 18.7547 6.55093 18.1948C6.55093 17.635 6.09622 17.1812 5.53533 17.1812H4.54588C3.52493 17.1812 2.61053 17.749 2.15959 18.6631L0.250032 22.5324C-0.12037 23.2829 -0.0771225 24.1551 0.365732 24.8654C0.808535 25.5759 1.5733 25.9999 2.41159 25.9999H23.5884C24.4267 25.9999 25.1915 25.5759 25.6343 24.8655C26.0771 24.1551 26.1204 23.283 25.75 22.5324Z" fill="#1886C4"/>
<path fill-rule="evenodd" clip-rule="evenodd" d="M12.7299 22.0975C12.3813 22.0975 12.0571 21.9191 11.8711 21.6249C10.9461 20.1623 9.78313 18.8895 8.65849 17.6586C6.41853 15.207 4.1023 12.6719 4.09863 8.87189C4.10428 3.97897 8.09078 0 12.9852 0C17.8796 0 21.8661 3.97897 21.8717 8.86966C21.868 12.6718 19.5519 15.2068 17.3119 17.6584L17.3119 17.6585L17.3111 17.6593C16.1867 18.89 15.024 20.1626 14.0992 21.6249C13.9132 21.9191 13.589 22.0975 13.2404 22.0975H12.7299ZM19.8405 8.86991C19.8361 5.09783 16.7609 2.02729 12.9852 2.02729C9.20947 2.02729 6.13421 5.09783 6.12984 8.87204C6.13279 11.8855 7.99874 13.9278 10.1593 16.2926C11.1181 17.3418 12.1031 18.4199 12.9852 19.649C13.8666 18.4209 14.8508 17.3436 15.8087 16.2951L15.811 16.2926L15.8111 16.2925C17.9716 13.9277 19.8376 11.8855 19.8405 8.86991Z" fill="#1886C4"/>
</svg>
