<svg width="50" height="50" viewBox="0 0 50 50" fill="none" xmlns="http://www.w3.org/2000/svg">
<path d="M6.47059 43.7256H4.5098C3.69804 43.7256 3.03922 43.0668 3.03922 42.2551C3.03922 41.4433 3.69804 40.7845 4.5098 40.7845H6.47059V37.4511H4.5098C3.69804 37.4511 3.03922 36.7923 3.03922 35.9805C3.03922 35.1688 3.69804 34.51 4.5098 34.51H6.47059V31.1766H4.5098C3.69804 31.1766 3.03922 30.5178 3.03922 29.706C3.03922 28.8943 3.69804 28.2354 4.5098 28.2354H6.47059V21.9609H1.47059C0.658823 21.9609 0 22.6198 0 23.4315V48.5296C0 49.3413 0.658823 50.0002 1.47059 50.0002H6.4748C6.46922 48.0452 6.47059 49.3183 6.47059 43.7256Z" fill="#D5D5D5"/>
<path d="M30.7841 1.47059C30.7841 0.658823 30.1253 0 29.3136 0H16.7645C15.9528 0 15.2939 0.658823 15.2939 1.47059V3.33333H30.7841V1.47059Z" fill="#D5D5D5"/>
<path fill-rule="evenodd" clip-rule="evenodd" d="M29.8037 29.7059C29.8037 24.1383 34.3341 19.6079 39.9018 19.6079C45.4694 19.6079 49.9998 24.1383 49.9998 29.7059C49.9998 34.1393 44.0459 40.4942 40.887 43.3471C40.3253 43.852 39.4772 43.851 38.9165 43.3471C35.8292 40.5589 29.8037 34.1648 29.8037 29.7059ZM36.0782 29.7059C36.0782 30.5177 36.737 31.1765 37.5488 31.1765H42.2547C43.0665 31.1765 43.7253 30.5177 43.7253 29.7059C43.7253 28.8942 43.0665 28.2354 42.2547 28.2354H37.5488C36.737 28.2354 36.0782 28.8942 36.0782 29.7059Z" fill="#FFDA44"/>
<circle cx="39.9004" cy="29.6001" r="10" fill="#FFDA44"/>
<path d="M29.9004 29.6001C29.9004 24.0773 34.3776 19.6001 39.9004 19.6001C45.4232 19.6001 49.9004 24.0773 49.9004 29.6001" fill="#338AF3"/>
<path fill-rule="evenodd" clip-rule="evenodd" d="M36.667 47.0587H48.5298C49.3419 47.0587 50.0003 47.7172 50.0003 48.5293C50.0003 49.3415 49.3419 49.9999 48.5298 49.9999H9.41211V7.745C9.41211 6.93324 10.0709 6.27441 10.8827 6.27441H35.1964C36.0082 6.27441 36.667 6.93324 36.667 7.745V17.0734C31.0366 18.5156 26.8631 23.6323 26.8631 29.7058C26.8631 35.1592 32.6692 41.5409 36.667 45.2734V47.0587ZM28.9219 9.41167H26.569C25.7572 9.41167 25.0984 10.0705 25.0984 10.8823C25.0984 11.694 25.7572 12.3528 26.569 12.3528H28.9219C29.7337 12.3528 30.3925 11.694 30.3925 10.8823C30.3925 10.0705 29.7337 9.41167 28.9219 9.41167ZM19.5101 37.4509H17.1572C16.3454 37.4509 15.6866 36.7921 15.6866 35.9803C15.6866 35.1685 16.3454 34.5097 17.1572 34.5097H19.5101C20.3219 34.5097 20.9807 35.1685 20.9807 35.9803C20.9807 36.7921 20.3219 37.4509 19.5101 37.4509ZM17.1572 31.1764H19.5101C20.3219 31.1764 20.9807 30.5176 20.9807 29.7058C20.9807 28.894 20.3219 28.2352 19.5101 28.2352H17.1572C16.3454 28.2352 15.6866 28.894 15.6866 29.7058C15.6866 30.5176 16.3454 31.1764 17.1572 31.1764ZM19.5101 24.9019H17.1572C16.3454 24.9019 15.6866 24.243 15.6866 23.4313C15.6866 22.6195 16.3454 21.9607 17.1572 21.9607H19.5101C20.3219 21.9607 20.9807 22.6195 20.9807 23.4313C20.9807 24.243 20.3219 24.9019 19.5101 24.9019ZM17.1572 18.6274H19.5101C20.3219 18.6274 20.9807 17.9685 20.9807 17.1568C20.9807 16.345 20.3219 15.6862 19.5101 15.6862H17.1572C16.3454 15.6862 15.6866 16.345 15.6866 17.1568C15.6866 17.9685 16.3454 18.6274 17.1572 18.6274ZM19.5101 12.3528H17.1572C16.3454 12.3528 15.6866 11.694 15.6866 10.8823C15.6866 10.0705 16.3454 9.41167 17.1572 9.41167H19.5101C20.3219 9.41167 20.9807 10.0705 20.9807 10.8823C20.9807 11.694 20.3219 12.3528 19.5101 12.3528ZM26.569 15.6862C25.7572 15.6862 25.0984 16.345 25.0984 17.1568C25.0984 17.9685 25.7572 18.6274 26.569 18.6274H28.9219C29.7337 18.6274 30.3925 17.9685 30.3925 17.1568C30.3925 16.345 29.7337 15.6862 28.9219 15.6862H26.569Z" fill="#D5D5D5"/>
</svg>
