<svg width="37" height="40" viewBox="0 0 37 40" fill="none" xmlns="http://www.w3.org/2000/svg">
<path opacity="0.5" fill-rule="evenodd" clip-rule="evenodd" d="M26.2776 36.875H26.7553C27.6285 36.875 28.3363 37.5745 28.3363 38.4375C28.3363 39.3005 27.6285 40 26.7553 40H1.58097C0.707798 40 0 39.3005 0 38.4375C0 37.5745 0.707798 36.875 1.58097 36.875H2.05858V33.7966C2.05858 31.1972 4.19825 29.0825 6.82835 29.0825H21.5078C24.1379 29.0825 26.2776 31.1972 26.2776 33.7966V36.875ZM5.22051 33.7966V36.875H23.1157V33.7966C23.1157 32.9204 22.3944 32.2075 21.5078 32.2075H6.82835C5.94182 32.2075 5.22051 32.9203 5.22051 33.7966Z" fill="currentColor"/>
<path fill-rule="evenodd" clip-rule="evenodd" d="M34.6523 21.2903C36.0043 22.2706 36.8537 23.7819 36.9816 25.4358C37.1095 27.0897 36.502 28.711 35.3154 29.8838C34.2327 30.9538 32.7725 31.5473 31.2541 31.5473C31.108 31.5473 30.9615 31.5418 30.8146 31.5307C29.1412 31.4045 27.612 30.5649 26.6192 29.2274L19.4369 19.5513L17.0694 21.8912C17.4474 22.4938 17.3718 23.2953 16.8426 23.8184C16.5339 24.1234 16.1293 24.276 15.7247 24.276C15.32 24.276 14.9155 24.1234 14.6068 23.8184L5.54121 14.8588C4.92376 14.2486 4.92376 13.2593 5.54121 12.6491C6.07044 12.126 6.88147 12.0513 7.49117 12.4249L17.6499 2.38486C17.2719 1.78221 17.3475 0.980722 17.8767 0.457676C18.4941 -0.152559 19.4951 -0.152559 20.1126 0.457676L29.1782 9.41728C29.7957 10.0274 29.7957 11.0167 29.1782 11.627C28.8695 11.932 28.4648 12.0846 28.0602 12.0846C27.7712 12.0846 27.4822 12.0068 27.2282 11.8511L24.8608 14.1909L28.1779 16.5959C28.882 17.1063 29.034 18.0842 28.5175 18.78C28.0011 19.4759 27.0114 19.6259 26.3077 19.1156L22.5987 16.4266L21.6991 17.3157L29.1687 27.379C29.6152 27.9805 30.3029 28.3581 31.0555 28.4149C31.8074 28.4717 32.5458 28.2017 33.0795 27.6742C33.6131 27.1468 33.8864 26.4177 33.8289 25.6738C33.7713 24.93 33.3894 24.2503 32.7808 23.8091L32.7547 23.7901C32.0512 23.2789 31.9002 22.3009 32.4174 21.6057C32.9345 20.9104 33.9241 20.7613 34.6276 21.2724L34.6523 21.2903ZM19.8562 4.62377L9.75654 14.6054L14.8631 19.6523L24.9627 9.67064L19.8562 4.62377Z" fill="currentColor"/>
</svg>
