<svg width="26" height="26" viewBox="0 0 26 26" fill="none" xmlns="http://www.w3.org/2000/svg">
<path d="M15.8916 21.5706L14.0156 23.4244V14.0156C14.0156 13.4547 13.5609 13 13 13C12.4391 13 11.9844 13.4547 11.9844 14.0156V23.324L10.21 21.5706C9.81098 21.1763 9.16794 21.1801 8.77367 21.5791C8.37941 21.9781 8.38327 22.6211 8.7822 23.0154L10.8941 25.1024C11.4704 25.6813 12.236 26 13.0508 26C13.8656 26 14.6312 25.6813 15.2074 25.1024L17.3193 23.0154C17.7183 22.6211 17.7221 21.9781 17.3279 21.5791C16.9336 21.1801 16.2906 21.1762 15.8916 21.5706Z" fill="#1886C4"/>
<path d="M24.9844 14.0156C24.4234 14.0156 23.9688 14.4703 23.9688 15.0312C23.9688 16.1513 23.0575 17.0625 21.9375 17.0625H17.0625C16.5016 17.0625 16.0469 17.5172 16.0469 18.0781C16.0469 18.6391 16.5016 19.0938 17.0625 19.0938H21.9375C24.1776 19.0938 26 17.2713 26 15.0312C26 14.4703 25.5453 14.0156 24.9844 14.0156Z" fill="#1886C4"/>
<path opacity="0.5" fill-rule="evenodd" clip-rule="evenodd" d="M15.8017 12.889C15.9718 12.9985 16.1623 13.0509 16.3506 13.0509C16.6844 13.0509 17.0113 12.8865 17.2054 12.585C17.8096 11.6469 18.1289 10.5765 18.1289 9.48987C18.1289 6.46579 15.8281 4.00549 13 4.00549C10.1719 4.00549 7.87109 6.46579 7.87109 9.48987C7.87109 10.6531 8.16552 11.6957 8.74621 12.5887C9.05196 13.059 9.68109 13.1923 10.1513 12.8866C10.6215 12.5808 10.7549 11.9517 10.4491 11.4815C10.0863 10.9235 9.90234 10.2535 9.90234 9.48987C9.90234 7.58583 11.2919 6.03674 13 6.03674C14.7081 6.03674 16.0977 7.58583 16.0977 9.48987C16.0977 10.1857 15.8902 10.8757 15.4977 11.4852C15.194 11.9569 15.3301 12.5853 15.8017 12.889ZM22.0898 9.49606C22.0898 10.057 21.6351 10.5117 21.0742 10.5117C20.5133 10.5117 20.0586 10.057 20.0586 9.49606C20.0586 8.93515 20.5133 8.48044 21.0742 8.48044C21.6351 8.48044 22.0898 8.93515 22.0898 9.49606ZM4.92578 10.5117C5.4867 10.5117 5.94141 10.057 5.94141 9.49606C5.94141 8.93515 5.4867 8.48044 4.92578 8.48044C4.36487 8.48044 3.91016 8.93515 3.91016 9.49606C3.91016 10.057 4.36487 10.5117 4.92578 10.5117Z" fill="#1886C4"/>
<path d="M21.9375 0H4.0625C1.82244 0 0 1.82244 0 4.0625V15.0312C0 17.2713 1.82244 19.0938 4.0625 19.0938H8.9375C9.49843 19.0938 9.95312 18.6391 9.95312 18.0781C9.95312 17.5172 9.49843 17.0625 8.9375 17.0625H4.0625C2.94247 17.0625 2.03125 16.1513 2.03125 15.0312V4.0625C2.03125 2.94247 2.94247 2.03125 4.0625 2.03125H21.9375C23.0575 2.03125 23.9688 2.94247 23.9688 4.0625V9.95312C23.9688 10.5141 24.4234 10.9688 24.9844 10.9688C25.5453 10.9688 26 10.5141 26 9.95312V4.0625C26 1.82244 24.1776 0 21.9375 0Z" fill="#1886C4"/>
</svg>
