<svg width="24" height="24" viewBox="0 0 24 24" fill="none" xmlns="http://www.w3.org/2000/svg">
<path fill-rule="evenodd" clip-rule="evenodd" d="M2.20312 4.96631H4.17188V7.96631H0V7.16943C0 6.58082 0.229125 6.02751 0.645187 5.6115C1.0612 5.19543 1.61452 4.96631 2.20312 4.96631ZM16.8281 4.96631H17.6719C18.835 4.96631 19.7812 5.91257 19.7812 7.07568V7.96631H16.8281V4.96631ZM17.9531 18.4218C16.8885 18.4218 16.0312 17.1652 16.0312 16.1249C16.0312 15.0846 16.8885 13.828 17.9531 13.828H23.2969C23.6852 13.828 24 14.1428 24 14.5312V17.7187C24 18.107 23.6852 18.4218 23.2969 18.4218H17.9531ZM18.375 16.8279C18.7633 16.8279 19.0781 16.5131 19.0781 16.1248C19.0781 15.7364 18.7633 15.4216 18.375 15.4216C17.9867 15.4216 17.6719 15.7364 17.6719 16.1248C17.6719 16.5131 17.9867 16.8279 18.375 16.8279ZM14.625 16.1249C14.625 17.0007 14.9648 17.9099 15.5573 18.6193C16.2083 19.3987 17.0592 19.828 17.9531 19.828H22.7812V21.5943C22.7812 22.9207 21.835 23.9999 20.6719 23.9999H2.10938C0.946266 23.9999 0 22.9207 0 21.5943V9.37261H22.0643C22.4114 9.37261 22.71 9.62601 22.7577 9.96979C22.7732 10.0816 22.7812 10.196 22.7812 10.3124V12.4218H17.9531C17.0592 12.4218 16.2083 12.8511 15.5573 13.6305C14.9648 14.3399 14.625 15.2491 14.625 16.1249Z" fill="#3E73CF"/>
<path opacity="0.5" d="M14.7188 0H6.28125C5.89294 0 5.57812 0.314813 5.57812 0.703125V7.96641H15.4219V0.703125C15.4219 0.314813 15.1071 0 14.7188 0Z" fill="#3E73CF"/>
</svg>
