<svg width="38" height="31" viewBox="0 0 38 31" fill="none" xmlns="http://www.w3.org/2000/svg">
<path fill-rule="evenodd" clip-rule="evenodd" d="M22.1778 4.89121C22.011 5.5638 21.9231 6.26632 21.9231 6.98932C21.9231 7.23394 21.9331 7.47622 21.9529 7.71576C17.4233 7.30594 12.0927 7.86111 9.72794 9.38043C9.04427 9.81992 8.17574 11.5148 7.36415 13.6339L7.22157 14.012L25.4628 14.0139C26.9229 15.0979 28.7325 15.7393 30.6923 15.7393C33.3932 15.7393 35.8088 14.521 37.4175 12.6051C37.5576 12.6627 37.6826 12.7545 37.7817 12.8724C37.9357 13.0576 38.0107 13.2896 37.9988 13.5228L37.9811 13.6626L37.4324 16.2523C37.3511 16.6457 37.0268 16.9386 36.6312 16.9988L36.4798 17.0102H35.3113C36.4312 18.2258 36.9673 19.7804 36.9614 21.3322C36.9533 22.9357 36.3704 24.5416 35.1552 25.7655L34.8851 26.0218V29.5755C34.8851 30.3048 34.3197 30.9079 33.5954 30.9904L33.4257 31H30.0144C29.2663 31 28.6491 30.4489 28.5648 29.7414L28.555 29.5755V28.1187H9.44481V29.5755C9.44481 30.3048 8.88104 30.9079 8.15548 30.9904L7.98535 31H4.57411C3.82603 31 3.20883 30.4489 3.12448 29.7414L3.11465 29.5755V25.9505L3.07184 25.9173C1.75346 24.7321 1.03249 23.0568 1.0393 21.2031C1.04559 19.818 1.48298 18.4337 2.38208 17.2923L2.61649 17.0121H1.52092C1.11184 17.0121 0.751193 16.763 0.610498 16.3975L0.568383 16.2552L0.0205994 13.6645C-0.0397248 13.3843 0.0342211 13.0927 0.219086 12.8724C0.372329 12.688 0.589761 12.5676 0.828027 12.5326L0.973139 12.522H4.67141L4.96989 11.7842C5.84007 9.70692 6.91539 7.77981 8.12546 7.00147C11.0484 5.12459 16.9913 4.42117 22.1778 4.89121ZM8.23333 18.5C6.48528 18.5 5.06667 19.8981 5.06667 21.6245C5.06667 23.3509 6.48528 24.75 8.23333 24.75C9.98353 24.75 11.4 23.3509 11.4 21.6245C11.4 19.8981 9.98353 18.5 8.23333 18.5ZM26.6 21.6245C26.6 19.8981 28.0186 18.5 29.7667 18.5C31.5169 18.5 32.9333 19.8981 32.9333 21.6245C32.9333 23.3509 31.5147 24.75 29.7667 24.75C28.0186 24.75 26.6 23.3509 26.6 21.6245Z" fill="#3E73CF"/>
<g opacity="0.5">
<path d="M34 1.51648V0H26V1.51648C26 3.31021 27.9282 3.87634 29.0345 5.22823C29.2832 5.53216 29.2832 6.46784 29.0345 6.77177C27.9282 8.12366 26 8.68979 26 10.4835V12H34V10.4835C34 8.68979 32.0718 8.12366 30.9655 6.77177C30.7168 6.46784 30.7168 5.53216 30.9655 5.22823C32.0718 3.87634 34 3.31021 34 1.51648Z" fill="#3E73CF"/>
</g>
</svg>
