<svg width="29" height="40" viewBox="0 0 29 40" fill="none" xmlns="http://www.w3.org/2000/svg">
<path opacity="0.5" d="M11.4297 36.9974C11.4297 38.6557 12.8002 39.9999 14.4908 39.9999H14.5091C16.1997 39.9999 17.5702 38.6556 17.5702 36.9974V30.8442H11.4297L11.4297 36.9974Z" fill="#3E73CF"/>
<path d="M8.76355 15.5059H7.92383V17.1524H8.76355C9.22644 17.1524 9.60328 16.7828 9.60328 16.3288C9.60328 15.8747 9.22644 15.5059 8.76355 15.5059Z" fill="#3E73CF"/>
<path d="M8.76355 11.5142H7.92383V13.1615H8.76355C9.22644 13.1615 9.60328 12.7919 9.60328 12.3378C9.60328 11.8838 9.22644 11.5142 8.76355 11.5142Z" fill="#3E73CF"/>
<path fill-rule="evenodd" clip-rule="evenodd" d="M22.5571 0.984609L28.0193 6.39156C28.6518 7.01758 29 7.84742 29 8.72891V19.8218C29 20.7087 28.6471 21.5434 28.0073 22.1709L22.5515 27.5177C21.9117 28.1444 21.0609 28.4898 20.1558 28.4898H8.8442C7.93915 28.4898 7.08827 28.1444 6.44852 27.5177L0.992692 22.1709C0.35294 21.5434 0 20.7087 0 19.8218V8.72891C0 7.84742 0.348159 7.01758 0.980742 6.39156L6.44294 0.984688C7.07473 0.358672 7.95269 0 8.85058 0H20.1494C21.0473 0 21.9253 0.358672 22.5571 0.984609ZM8.76374 19.4967C10.5444 19.4967 11.9936 18.076 11.9936 16.3287C11.9936 15.573 11.7219 14.8783 11.2702 14.3336C11.7219 13.7881 11.9936 13.0934 11.9936 12.3377C11.9936 10.5912 10.5444 9.16969 8.76374 9.16969H6.72896C6.06929 9.16969 5.5339 9.69484 5.5339 10.3419V18.3245C5.5339 18.9723 6.06929 19.4967 6.72896 19.4967H8.76374ZM15.652 18.3245C15.652 18.9723 15.1174 19.4967 14.457 19.4967C13.7973 19.4967 13.2619 18.9723 13.2619 18.3245V10.3419C13.2619 9.69484 13.7973 9.16969 14.457 9.16969C15.1174 9.16969 15.652 9.69484 15.652 10.3419V18.3245ZM20.5231 19.4967C22.146 19.4967 23.4661 18.2019 23.4661 16.6108V12.0564C23.4661 10.4646 22.146 9.16969 20.5231 9.16969H18.2015C17.5418 9.16969 17.0064 9.69484 17.0064 10.3419V18.3245C17.0064 18.9723 17.5418 19.4967 18.2015 19.4967H20.5231Z" fill="#3E73CF"/>
<path d="M20.523 11.5142H19.3965V17.1524H20.523C20.8282 17.1524 21.0759 16.9094 21.0759 16.6109V12.0565C21.0759 11.7572 20.8282 11.5142 20.523 11.5142V11.5142Z" fill="#3E73CF"/>
</svg>
