<svg width="40" height="40" viewBox="0 0 40 40" fill="none" xmlns="http://www.w3.org/2000/svg">
<path fill-rule="evenodd" clip-rule="evenodd" d="M6.25 0H33.75C37.1964 0 40 2.80365 40 6.25V10.2347C40 10.9778 39.4766 11.618 38.7485 11.7657C37.8467 11.9489 37.1335 12.6474 36.9321 13.5455C36.7429 14.3875 35.907 14.917 35.065 14.7278C34.223 14.5386 33.6938 13.7027 33.8828 12.8607C34.2557 11.1996 35.3778 9.83063 36.875 9.12018V6.25C36.875 4.52698 35.473 3.125 33.75 3.125H6.25C4.52698 3.125 3.125 4.52698 3.125 6.25V9.12109C4.99268 10.0107 6.25 11.9217 6.25 14.0625C6.25 16.2033 4.99268 18.1143 3.125 19.0039V21.875C3.125 23.598 4.52698 25 6.25 25H11.0156C11.8787 25 12.5781 25.6995 12.5781 26.5625C12.5781 27.4255 11.8787 28.125 11.0156 28.125H6.25C2.80365 28.125 0 25.3214 0 21.875V17.8906C0 17.1475 0.523377 16.5073 1.25153 16.3593C2.33704 16.1389 3.125 15.173 3.125 14.0625C3.125 12.9523 2.33704 11.9861 1.25153 11.7657C0.523377 11.618 0 10.9778 0 10.2347V6.25C0 2.80365 2.80365 0 6.25 0ZM15.625 27.8125C15.625 21.0922 21.0922 15.625 27.8125 15.625C34.5328 15.625 40 21.0922 40 27.8125C40 29.4016 39.6982 30.9479 39.1034 32.4084C38.7778 33.2074 37.8659 33.5913 37.0667 33.2657C36.2677 32.9401 35.8838 32.0285 36.2094 31.2292C36.651 30.145 36.875 28.9954 36.875 27.8125C36.875 22.8156 32.8094 18.75 27.8125 18.75C22.8156 18.75 18.75 22.8156 18.75 27.8125C18.75 32.8094 22.8156 36.875 27.8125 36.875C29.1672 36.875 30.4697 36.5839 31.6833 36.0095C32.4634 35.6403 33.3948 35.9735 33.764 36.7535C34.133 37.5336 33.8 38.465 33.02 38.8342C31.3852 39.6078 29.6332 40 27.8125 40C21.0922 40 15.625 34.5328 15.625 27.8125Z" fill="currentColor"/>
<path opacity="0.5" fill-rule="evenodd" clip-rule="evenodd" d="M28.9062 6.64062C28.9062 7.50366 28.2068 8.20312 27.3438 8.20312C26.4807 8.20312 25.7812 7.50366 25.7812 6.64062C25.7812 5.77759 26.4807 5.07812 27.3438 5.07812C28.2068 5.07812 28.9062 5.77759 28.9062 6.64062ZM10.1562 10.1562H21.0938C21.9568 10.1562 22.6562 9.45679 22.6562 8.59375C22.6562 7.73071 21.9568 7.03125 21.0938 7.03125H10.1562C9.29321 7.03125 8.59375 7.73071 8.59375 8.59375C8.59375 9.45679 9.29321 10.1562 10.1562 10.1562ZM10.1562 15.625H17.3438C18.2068 15.625 18.9062 14.9255 18.9062 14.0625C18.9062 13.1995 18.2068 12.5 17.3438 12.5H10.1562C9.29321 12.5 8.59375 13.1995 8.59375 14.0625C8.59375 14.9255 9.29321 15.625 10.1562 15.625ZM27.3438 13.6719C28.2068 13.6719 28.9062 12.9724 28.9062 12.1094C28.9062 11.2463 28.2068 10.5469 27.3438 10.5469C26.4807 10.5469 25.7812 11.2463 25.7812 12.1094C25.7812 12.9724 26.4807 13.6719 27.3438 13.6719ZM26.25 33.5938V33.595C26.25 34.4577 26.9495 35.1575 27.8125 35.1575C28.6755 35.1575 29.375 34.458 29.375 33.595V33.4668C30.86 33.0591 31.9531 31.713 31.9531 30.1184V29.5389C31.9531 27.641 30.3745 26.0971 28.4338 26.0971H27.4722C27.294 26.0971 27.1875 25.9036 27.1875 25.7166V25.6555C27.1875 25.4974 27.262 25.3125 27.4722 25.3125H29.2969C30.1599 25.3125 30.8594 24.613 30.8594 23.75C30.8594 22.9135 30.2014 22.2324 29.375 22.1915V22.1024C29.375 21.2396 28.6755 20.5399 27.8125 20.5399C26.9495 20.5399 26.25 21.2396 26.25 22.1024V22.4097C24.9591 22.8998 24.0625 24.151 24.0625 25.6555V25.7162C24.0625 27.6495 25.592 29.2221 27.4722 29.2221H28.4338C28.6438 29.2221 28.8281 29.3701 28.8281 29.5389V30.1181C28.8281 30.2985 28.6365 30.4688 28.4338 30.4688H25.5469C24.6838 30.4688 23.9844 31.1682 23.9844 32.0312C23.9844 32.8943 24.6838 33.5938 25.5469 33.5938H26.25Z" fill="currentColor"/>
</svg>
