<svg width="26" height="24" viewBox="0 0 26 24" fill="none" xmlns="http://www.w3.org/2000/svg">
<path fill-rule="evenodd" clip-rule="evenodd" d="M12.3359 19.4774C12.8966 19.4774 13.3513 19.0136 13.3513 18.4414C13.3513 17.8692 12.8966 17.4055 12.3359 17.4055H4.0611C2.94154 17.4055 2.03065 16.4758 2.03065 15.3333V4.14404C2.03065 3.00161 2.94154 2.07212 4.0611 2.07212H21.9305C23.0501 2.07212 23.9612 3.00161 23.9612 4.14404V12.1891C23.9612 12.7613 24.4156 13.2253 24.9764 13.2253C25.5372 13.2253 25.9916 12.7613 25.9916 12.1891V4.14404C25.9916 1.85898 24.1698 0 21.9305 0H4.0611C1.82177 0 0 1.85898 0 4.14404V15.3333C0 17.6184 1.82177 19.4774 4.0611 19.4774H12.3359ZM12.9958 6.20989C11.2883 6.20989 9.89915 7.79014 9.89915 9.73231C9.89915 11.4889 11.0509 12.9778 12.5781 13.196C13.1335 13.2754 13.5207 13.799 13.4429 14.3656C13.3719 14.8836 12.9371 15.2582 12.4388 15.2582C12.3918 15.2582 12.3444 15.2548 12.2968 15.2481C11.0608 15.0716 9.93148 14.4125 9.117 13.3926C8.31184 12.3844 7.8685 11.0844 7.8685 9.73231C7.8685 6.64751 10.1687 4.13777 12.9958 4.13777C14.2909 4.13777 15.5269 4.66546 16.4765 5.62329C17.3993 6.5544 17.9751 7.81645 18.0981 9.17729C18.1497 9.74709 17.7387 10.2515 17.1805 10.3041C16.6215 10.3564 16.1276 9.93736 16.0762 9.36756C15.9135 7.56748 14.5893 6.20989 12.9958 6.20989ZM21.0674 8.65081C20.5067 8.65081 20.0522 9.11474 20.0522 9.68697C20.0522 10.2592 20.5067 10.7229 21.0674 10.7229C21.6282 10.7229 22.0829 10.2592 22.0829 9.68697C22.0829 9.11474 21.6282 8.65081 21.0674 8.65081ZM4.92418 10.7229C4.36341 10.7229 3.90896 10.2592 3.90896 9.68697C3.90896 9.11474 4.36341 8.65081 4.92418 8.65081C5.48496 8.65081 5.93941 9.11474 5.93941 9.68697C5.93941 10.2592 5.48496 10.7229 4.92418 10.7229Z" fill="#1886C4"/>
<path opacity="0.5" fill-rule="evenodd" clip-rule="evenodd" d="M18.3235 13C18.6054 13 18.894 13.0908 19.1461 13.2926L24.1449 17.2924C24.9639 17.9477 24.6674 19.2458 23.643 19.4904L22.3185 19.8069L22.139 19.8916L23.1833 21.8528C23.4294 22.3542 23.2205 22.9591 22.7167 23.204C22.5731 23.2738 22.4211 23.3068 22.2716 23.3068C21.8957 23.3068 21.5344 23.0984 21.3583 22.7399L20.3119 20.7741L19.1405 21.8528C18.8855 22.0878 18.58 22.193 18.2808 22.193C17.6254 22.193 17 21.6881 17 20.9338V14.3032C17 13.5292 17.6425 13 18.3235 13ZM21.6586 17.896L19.0312 15.7937V19.2016C19.1697 19.0826 19.3238 18.9828 19.4895 18.9046L21.4487 17.981C21.5172 17.9489 21.5872 17.9205 21.6586 17.896Z" fill="#1886C4"/>
</svg>
