<svg width="40" height="38" viewBox="0 0 40 38" fill="none" xmlns="http://www.w3.org/2000/svg">
<path fill-rule="evenodd" clip-rule="evenodd" d="M31.9754 29.4062H38.4375C39.3005 29.4062 40 30.1057 40 30.9688V36.4375C40 37.3005 39.3005 38 38.4375 38H32.1875C31.3245 38 30.625 37.3005 30.625 36.4375V32.5312H9.375V36.4375C9.375 37.3005 8.67554 38 7.8125 38H1.5625C0.699463 38 0 37.3005 0 36.4375V24.4844C0 22.306 0.822449 20.3163 2.17285 18.809C2.19482 18.7346 2.22046 18.661 2.25433 18.5887L6.69464 9.08246C6.70197 9.06659 6.70959 9.05072 6.71753 9.03485C8.2196 6.0835 11.21 4.25 14.5218 4.25H18.9117C19.7748 4.25 20.4742 4.94946 20.4742 5.8125C20.4742 6.67554 19.7748 7.375 18.9117 7.375H14.5218C12.4002 7.375 10.4837 8.54504 9.51416 10.4301L6.85059 16.1326C7.38922 16.0255 7.94586 15.9688 8.51562 15.9688H31.4844C33.6426 15.9688 35.7013 16.7778 37.2812 18.2463C38.8525 19.7072 39.809 21.6859 39.9744 23.8182C40.0409 24.6785 39.3976 25.4301 38.5373 25.4969C37.677 25.5616 36.9254 24.9202 36.8585 24.0599C36.6425 21.2751 34.2819 19.0938 31.4844 19.0938H8.51562C5.54321 19.0938 3.125 21.512 3.125 24.4844V29.4062H8.0246L13.0356 24.395C13.3289 24.102 13.7262 23.9375 14.1406 23.9375H25.8594C26.2738 23.9375 26.6711 24.102 26.9641 24.395L31.9754 29.4062ZM25.2121 27.0625H14.7879L12.4442 29.4062H27.5558L25.2121 27.0625ZM6.25 34.875H3.125V32.5312H6.25V34.875ZM33.75 34.875H36.875V32.5312H33.75V34.875ZM32.1875 22.375C33.0505 22.375 33.75 23.0745 33.75 23.9375C33.75 24.8005 33.0505 25.5 32.1875 25.5C31.3245 25.5 30.625 24.8005 30.625 23.9375C30.625 23.0745 31.3245 22.375 32.1875 22.375ZM9.375 23.9375C9.375 23.0745 8.67554 22.375 7.8125 22.375C6.94946 22.375 6.25 23.0745 6.25 23.9375C6.25 24.8005 6.94946 25.5 7.8125 25.5C8.67554 25.5 9.375 24.8005 9.375 23.9375Z" fill="currentColor"/>
<path opacity="0.5" d="M30.1267 11.7688C29.974 11.9171 29.7656 12 29.5491 12C29.3327 12 29.1243 11.9171 28.9716 11.7688L24.3591 7.31284C23.8803 6.85044 23.8803 6.10081 24.3591 5.63919L24.9366 5.08131C25.4154 4.61891 26.1907 4.61891 26.6694 5.08131L29.5491 7.86283L37.3306 0.346803C37.8093 -0.115601 38.5854 -0.115601 39.0634 0.346803L39.6409 0.904685C40.1197 1.36709 40.1197 2.11672 39.6409 2.57833L30.1267 11.7688Z" fill="currentColor"/>
</svg>
