<svg width="40" height="40" viewBox="0 0 40 40" fill="none" xmlns="http://www.w3.org/2000/svg">
<path fill-rule="evenodd" clip-rule="evenodd" d="M31.9754 31.4062H38.4375C39.3005 31.4062 40 32.1057 40 32.9688V38.4375C40 39.3005 39.3005 40 38.4375 40H32.1875C31.3245 40 30.625 39.3005 30.625 38.4375V34.5312H9.375V38.4375C9.375 39.3005 8.67554 40 7.8125 40H1.5625C0.699463 40 0 39.3005 0 38.4375V26.4844C0 24.306 0.822449 22.3163 2.17285 20.809C2.19482 20.7346 2.22046 20.661 2.25433 20.5887L6.69464 11.0825C6.70197 11.0666 6.70959 11.0507 6.71753 11.0349C8.2196 8.0835 11.21 6.25 14.5218 6.25H20.9117C21.7748 6.25 22.4742 6.94946 22.4742 7.8125C22.4742 8.67554 21.7748 9.375 20.9117 9.375H14.5218C12.4002 9.375 10.4837 10.545 9.51416 12.4301L6.85059 18.1326C7.38922 18.0255 7.94586 17.9688 8.51562 17.9688H31.4844C33.6426 17.9688 35.7013 18.7778 37.2812 20.2463C38.8525 21.7072 39.809 23.6859 39.9744 25.8182C40.0409 26.6785 39.3976 27.4301 38.5373 27.4969C37.677 27.5616 36.9254 26.9202 36.8585 26.0599C36.6425 23.2751 34.2819 21.0938 31.4844 21.0938H8.51562C5.54321 21.0938 3.125 23.512 3.125 26.4844V31.4062H8.0246L13.0356 26.395C13.3289 26.102 13.7262 25.9375 14.1406 25.9375H25.8594C26.2738 25.9375 26.6711 26.102 26.9641 26.395L31.9754 31.4062ZM25.2121 29.0625H14.7879L12.4442 31.4062H27.5558L25.2121 29.0625ZM6.25 36.875H3.125V34.5312H6.25V36.875ZM33.75 36.875H36.875V34.5312H33.75V36.875ZM32.1875 24.375C33.0505 24.375 33.75 25.0745 33.75 25.9375C33.75 26.8005 33.0505 27.5 32.1875 27.5C31.3245 27.5 30.625 26.8005 30.625 25.9375C30.625 25.0745 31.3245 24.375 32.1875 24.375ZM9.375 25.9375C9.375 25.0745 8.67554 24.375 7.8125 24.375C6.94946 24.375 6.25 25.0745 6.25 25.9375C6.25 26.8005 6.94946 27.5 7.8125 27.5C8.67554 27.5 9.375 26.8005 9.375 25.9375Z" fill="currentColor"/>
<path opacity="0.5" fill-rule="evenodd" clip-rule="evenodd" d="M29.3174 0C29.751 0 30.1951 0.139633 30.5829 0.450166L38.2734 6.60375C39.5334 7.61184 39.0772 9.6089 37.5013 9.9853L35.4636 10.4722L35.1874 10.6024L36.7939 13.6197C37.1727 14.391 36.8513 15.3217 36.0762 15.6984C35.8552 15.8059 35.6215 15.8566 35.3914 15.8566C34.8131 15.8566 34.2573 15.536 33.9863 14.9845L32.3765 11.9602L30.5744 13.6197C30.1819 13.9812 29.712 14.143 29.2518 14.143C28.2435 14.143 27.2812 13.3663 27.2812 12.2058V2.00495C27.2812 0.814123 28.2697 0 29.3174 0ZM34.4483 7.53231L30.4062 4.29798V9.5409C30.6193 9.35786 30.8564 9.20427 31.1112 9.08406L34.1254 7.66314C34.2307 7.61366 34.3384 7.56995 34.4483 7.53231Z" fill="currentColor"/>
</svg>
