<svg width="40" height="40" viewBox="0 0 40 40" fill="none" xmlns="http://www.w3.org/2000/svg">
<path fill-rule="evenodd" clip-rule="evenodd" d="M31.9754 31.4062H38.4375C39.3005 31.4062 40 32.1057 40 32.9688V38.4375C40 39.3005 39.3005 40 38.4375 40H32.1875C31.3245 40 30.625 39.3005 30.625 38.4375V34.5312H9.375V38.4375C9.375 39.3005 8.67554 40 7.8125 40H1.5625C0.699463 40 0 39.3005 0 38.4375V26.4844C0 24.306 0.822449 22.3163 2.17285 20.809C2.19482 20.7346 2.22046 20.661 2.25433 20.5887L6.69464 11.0825C6.70197 11.0666 6.70959 11.0507 6.71753 11.0349C8.2196 8.0835 11.21 6.25 14.5218 6.25H18.9117C19.7748 6.25 20.4742 6.94946 20.4742 7.8125C20.4742 8.67554 19.7748 9.375 18.9117 9.375H14.5218C12.4002 9.375 10.4837 10.545 9.51416 12.4301L6.85059 18.1326C7.38922 18.0255 7.94586 17.9688 8.51562 17.9688H31.4844C33.6426 17.9688 35.7013 18.7778 37.2812 20.2463C38.8525 21.7072 39.809 23.6859 39.9744 25.8182C40.0409 26.6785 39.3976 27.4301 38.5373 27.4969C37.677 27.5616 36.9254 26.9202 36.8585 26.0599C36.6425 23.2751 34.2819 21.0938 31.4844 21.0938H8.51562C5.54321 21.0938 3.125 23.512 3.125 26.4844V31.4062H8.0246L13.0356 26.395C13.3289 26.102 13.7262 25.9375 14.1406 25.9375H25.8594C26.2738 25.9375 26.6711 26.102 26.9641 26.395L31.9754 31.4062ZM25.2121 29.0625H14.7879L12.4442 31.4062H27.5558L25.2121 29.0625ZM6.25 36.875H3.125V34.5312H6.25V36.875ZM33.75 36.875H36.875V34.5312H33.75V36.875ZM32.1875 24.375C33.0505 24.375 33.75 25.0745 33.75 25.9375C33.75 26.8005 33.0505 27.5 32.1875 27.5C31.3245 27.5 30.625 26.8005 30.625 25.9375C30.625 25.0745 31.3245 24.375 32.1875 24.375ZM9.375 25.9375C9.375 25.0745 8.67554 24.375 7.8125 24.375C6.94946 24.375 6.25 25.0745 6.25 25.9375C6.25 26.8005 6.94946 27.5 7.8125 27.5C8.67554 27.5 9.375 26.8005 9.375 25.9375Z" fill="currentColor"/>
<path opacity="0.5" fill-rule="evenodd" clip-rule="evenodd" d="M31.7969 0C36.3202 0 40 3.67981 40 8.20312C40 12.7264 36.3202 16.4062 31.7969 16.4062C27.2736 16.4062 23.5938 12.7264 23.5938 8.20312C23.5938 3.67981 27.2736 0 31.7969 0ZM31.7969 3.125C28.9969 3.125 26.7188 5.40314 26.7188 8.20312C26.7188 11.0031 28.9969 13.2812 31.7969 13.2812C34.5969 13.2812 36.875 11.0031 36.875 8.20312C36.875 5.40314 34.5969 3.125 31.7969 3.125ZM33.2812 5.625C33.2812 4.76196 32.5818 4.0625 31.7188 4.0625C30.8557 4.0625 30.1562 4.76196 30.1562 5.625V8.20312C30.1562 9.06616 30.8557 9.76562 31.7188 9.76562H33.4375C34.3005 9.76562 35 9.06616 35 8.20312C35 7.34009 34.3005 6.64062 33.4375 6.64062H33.2812V5.625Z" fill="currentColor"/>
</svg>
