<svg width="22" height="22" viewBox="0 0 22 22" fill="none" xmlns="http://www.w3.org/2000/svg">
<path fill-rule="evenodd" clip-rule="evenodd" d="M12.964 5.49971L15.464 2.99971L6.48829 3V4.24998H7.77733V5.5L12.964 5.49971ZM11.714 6.74971L3.867 14.5977L3.86721 7.99999H5.15625V6.74997L11.714 6.74971ZM17.536 7.99971L18.1328 7.99999V16.7499H16.8438V18L7.536 17.9997L10.772 14.7637L11.5766 15.1545L12.848 12.6877L17.536 7.99971ZM1.28908 7.99999V9.24996H2.57812V15.5H1.28908V16.7499H0V7.99999H1.28908ZM22 16.7499V7.99999H20.711V9.24996H19.4219V15.5H20.711V16.7499H22Z" fill="white"/>
<rect x="20.1924" y="0.393402" width="2" height="28" rx="1" transform="rotate(45 20.1924 0.393402)" fill="white"/>
</svg>
