<svg width="22" height="15" viewBox="0 0 22 15" fill="none" xmlns="http://www.w3.org/2000/svg">
<path fill-rule="evenodd" clip-rule="evenodd" d="M14.2227 1.24998V2.49999H7.77733V1.24998H6.48829V0H15.5118V1.24998H14.2227ZM16.8438 13.7499V15V15H5.15629V13.75H3.86721V4.99999H5.15625V3.74997H16.8438V4.99999H18.1328V13.7499H16.8438ZM11.5766 7.15449L10.4235 6.59541L8.668 9.99993H11.2461L10.4235 11.5954L11.5766 12.1545L13.332 8.74995H10.7539L11.5766 7.15449ZM2.57812 12.5H1.28908V13.7499H0V4.99999H1.28908V6.24996H2.57812V12.5ZM19.4219 6.24996H20.711V4.99999H22V13.7499H20.711V12.5H19.4219V6.24996Z" fill="white"/>
</svg>
