<svg width="30" height="30" viewBox="0 0 30 30" fill="none" xmlns="http://www.w3.org/2000/svg">
<path fill-rule="evenodd" clip-rule="evenodd" d="M28.8281 10.0195C29.4754 10.0195 30 9.49493 30 8.84766V4.10156C30 3.45428 29.4754 2.92969 28.8281 2.92969H27.2461V1.17188C27.2461 0.524597 26.7215 0 26.0742 0C25.4269 0 24.9023 0.524597 24.9023 1.17188V2.92969H19.9219C19.2746 2.92969 18.75 3.45428 18.75 4.10156C18.75 4.74884 19.2746 5.27344 19.9219 5.27344H21.0938V7.61719H14.0456C14.0339 6.00952 14.0323 4.59549 14.049 4.27917C14.0907 4.00772 14.0359 3.72574 13.8874 3.48541C13.6739 3.14003 13.2969 2.92969 12.8906 2.92969H8.20312C7.55585 2.92969 7.03125 3.45428 7.03125 4.10156V12.3047H1.23047C0.583191 12.3047 0.0585938 12.8293 0.0585938 13.4766V15.293C0.0585938 15.3415 0.0615692 15.39 0.0675202 15.4383C0.100021 15.6974 0.922165 21.6167 8.38875 27.2724C8.06007 27.5217 7.75452 27.6562 7.5 27.6562C7.04819 27.6562 6.43501 27.2324 5.81772 26.4933C5.31532 25.8918 4.56161 25.5469 3.75 25.5469C2.93839 25.5469 2.18468 25.8918 1.68228 26.4933C1.06499 27.2324 0.451813 27.6562 0 27.6562V30C1.19911 30 2.3703 29.3257 3.48106 27.9959C3.53622 27.93 3.6367 27.8906 3.75 27.8906C3.8633 27.8906 3.96378 27.93 4.01894 27.9959C5.1297 29.3257 6.30089 30 7.5 30C8.69911 30 9.8703 29.3257 10.9811 27.9959C11.0362 27.93 11.1367 27.8906 11.25 27.8906C11.3633 27.8906 11.4638 27.93 11.5189 27.9959C12.6297 29.3257 13.8009 30 15 30C16.1991 30 17.3703 29.3257 18.4811 27.9959C18.5362 27.93 18.6367 27.8906 18.75 27.8906C18.8633 27.8906 18.9638 27.93 19.0189 27.9959C20.1297 29.3257 21.3009 30 22.5 30C23.6991 30 24.8703 29.3257 25.9811 27.9959C26.0362 27.93 26.1367 27.8906 26.25 27.8906C26.3633 27.8906 26.4638 27.93 26.5189 27.9959C27.6297 29.3257 28.8009 30 30 30V27.6562C29.5482 27.6562 28.935 27.2324 28.3177 26.4933C27.8153 25.8918 27.0616 25.5469 26.25 25.5469C25.8561 25.5469 25.4762 25.6288 25.1317 25.7812C26.2374 21.9347 29.6166 18.5056 29.6567 18.4655C29.8766 18.2455 30 17.9475 30 17.6367V13.4766C30 12.8293 29.4754 12.3047 28.8281 12.3047H23.4375V5.27344H27.6562V8.84766C27.6562 9.49493 28.1808 10.0195 28.8281 10.0195ZM18.75 16.9922V14.6484H21.0938V16.9922H18.75ZM14.0625 14.6484V16.9922H16.4062V14.6484H14.0625ZM9.375 16.9922V14.6484H11.7188V16.9922H9.375ZM9.375 12.3047H11.7188V9.96094H9.375V12.3047ZM18.75 12.3047V9.96094H21.0938V12.3047H18.75ZM14.0625 12.3047H16.4062V9.96094H14.0625V12.3047ZM11.6911 5.27344C11.6908 5.6694 11.7002 7.35832 11.702 7.61719H9.375V5.27344H11.6911ZM22.4512 27.6535C22.6653 22.9262 26.4693 18.4536 27.6562 17.1682V14.6484H23.4375V18.1641C23.4375 18.8113 22.9129 19.3359 22.2656 19.3359H8.20312C7.55585 19.3359 7.03125 18.8113 7.03125 18.1641V14.6484H2.40234V15.2012C2.45384 15.4919 2.72713 16.8082 3.71315 18.6104C4.70581 20.4245 6.63826 23.1031 10.2468 25.733C10.5599 25.6114 10.8996 25.5469 11.25 25.5469C12.0616 25.5469 12.8153 25.8918 13.3177 26.4933C13.935 27.2324 14.5482 27.6562 15 27.6562C15.4518 27.6562 16.065 27.2324 16.6823 26.4933C17.1847 25.8918 17.9384 25.5469 18.75 25.5469C19.5616 25.5469 20.3153 25.8918 20.8177 26.4933C21.4133 27.2063 22.0047 27.6249 22.4512 27.6535Z" fill="#1886C4"/>
<path opacity="0.5" fill-rule="evenodd" clip-rule="evenodd" d="M11.4844 23.7305C12.1317 23.7305 12.6562 23.2059 12.6562 22.5586C12.6562 21.9113 12.1317 21.3867 11.4844 21.3867C10.8371 21.3867 10.3125 21.9113 10.3125 22.5586C10.3125 23.2059 10.8371 23.7305 11.4844 23.7305ZM16.7578 22.5586C16.7578 23.2059 16.2332 23.7305 15.5859 23.7305C14.9387 23.7305 14.4141 23.2059 14.4141 22.5586C14.4141 21.9113 14.9387 21.3867 15.5859 21.3867C16.2332 21.3867 16.7578 21.9113 16.7578 22.5586ZM20.8594 22.5586C20.8594 23.2059 20.3348 23.7305 19.6875 23.7305C19.0402 23.7305 18.5156 23.2059 18.5156 22.5586C18.5156 21.9113 19.0402 21.3867 19.6875 21.3867C20.3348 21.3867 20.8594 21.9113 20.8594 22.5586Z" fill="#1886C4"/>
</svg>
