<svg width="30" height="27" viewBox="0 0 30 27" fill="none" xmlns="http://www.w3.org/2000/svg">
<path opacity="0.5" d="M21.9244 24.6262H4.65275V20.7872C4.65275 19.4782 5.70416 18.4133 6.9965 18.4133H16.0998C17.1833 18.4133 18.1196 19.1563 18.3765 20.2199C18.5303 20.8567 19.1644 21.2465 19.7934 21.0907C20.422 20.9349 20.8069 20.2925 20.6531 19.6557C20.1387 17.5265 18.2664 16.0394 16.0998 16.0394H6.9965C4.41182 16.0394 2.309 18.1692 2.309 20.7871V24.6261H1.17188C0.524648 24.6261 0 25.1575 0 25.8131C0 26.4686 0.524648 27 1.17188 27H21.9244C22.5717 27 23.0963 26.4686 23.0963 25.8131C23.0963 25.1575 22.5717 24.6262 21.9244 24.6262Z" fill="#1886C4"/>
<path fill-rule="evenodd" clip-rule="evenodd" d="M26.3123 2.59677H20.9034C20.2562 2.59677 19.7315 3.12816 19.7315 3.78371V5.14488H16.1395V2.36645C16.7248 2.30028 17.18 1.79743 17.18 1.18693C17.18 0.53139 16.6553 0 16.0081 0H7.16595C6.51873 0 5.99408 0.53139 5.99408 1.18693C5.99408 1.79749 6.44918 2.30034 7.03459 2.36645V10.2971C6.44924 10.3633 5.99408 10.8661 5.99408 11.4766C5.99408 12.1322 6.51873 12.6636 7.16595 12.6636H16.0081C16.6553 12.6636 17.18 12.1322 17.18 11.4766C17.18 10.8661 16.7249 10.3632 16.1395 10.2971V7.51875H19.7315V8.87986C19.7315 9.53541 20.2562 10.0668 20.9034 10.0668H26.3123C28.3457 10.0668 30 8.39132 30 6.33181C30 4.27231 28.3458 2.59677 26.3123 2.59677ZM9.37834 10.2897V2.37381H13.7958V10.2897H9.37834ZM22.0753 7.69287H26.3123C27.0534 7.69287 27.6562 7.08237 27.6562 6.33181C27.6562 5.58126 27.0533 4.97064 26.3123 4.97064H22.0753V7.69287Z" fill="#1886C4"/>
</svg>
