<svg width="40" height="40" viewBox="0 0 40 40" fill="none" xmlns="http://www.w3.org/2000/svg">
<path d="M20.0159 5.86414C19.3698 5.86414 18.845 6.38989 18.845 7.03693C18.845 7.68396 19.3699 8.20972 20.0159 8.20972C20.6619 8.20972 21.1868 7.68396 21.1868 7.03693C21.1868 6.38989 20.6619 5.86414 20.0159 5.86414Z" fill="#3E73CF"/>
<path opacity="0.5" fill-rule="evenodd" clip-rule="evenodd" d="M12.9902 7.0369C12.9902 3.15647 16.1418 0 20.016 0C23.8903 0 27.0418 3.15655 27.0418 7.03682C27.0418 9.34578 26.1316 10.7537 24.1373 13.6651L24.1286 13.6778C23.0473 15.2585 21.7119 17.2105 20.016 20.016C18.3031 17.1836 16.9639 15.2262 15.8879 13.6538C13.897 10.7446 12.9902 9.34132 12.9902 7.0369ZM16.5031 7.0369C16.5031 8.97708 18.0789 10.5554 20.016 10.5554C21.9531 10.5554 23.5289 8.97708 23.5289 7.0369C23.5289 5.09672 21.9531 3.51845 20.016 3.51845C18.0789 3.51845 16.5031 5.09672 16.5031 7.0369Z" fill="#3E73CF"/>
<path d="M39.1919 13.5839L38.0118 11.7308L37.1324 13.7455C36.5069 15.1772 35.6058 15.7785 34.8809 16.2606C34.0092 16.8398 34.048 16.8657 33.089 18.0336C32.4978 18.7575 31.5532 19.9131 31.0318 20.2498C30.9666 20.125 30.8774 19.912 30.7848 19.5661C30.6911 19.2157 30.3294 18.1482 29.354 17.832C28.334 17.4952 27.4706 18.2134 26.7022 18.8422C26.3314 19.1406 26.0914 18.7135 26.2847 18.2215C26.3374 18.0852 26.4094 17.9581 26.486 17.8172L27.211 16.4073C26.1305 15.9294 26.0983 15.8822 25.5819 15.7066C22.5415 20.166 21.6374 21.9282 20.016 24.5448C18.2583 21.727 17.5763 20.2717 13.9565 14.9802C13.5437 14.3769 13.19 13.8464 12.846 13.3197C10.4038 12.9464 9.32823 12.7988 1.61423 11.6462C1.42095 12.7584 1.5079 13.0096 0.812279 16.6811C-0.983115 26.1504 -0.897881 28.4471 12.8346 34.6021C15.6294 35.855 16.2778 36.6202 16.9044 37.36C18.3658 39.0889 18.9893 39.0527 20.1418 39.8751C21.0859 36.5703 21.0436 36.423 21.0932 36.3532C25.3025 35.4664 24.4458 35.6721 26.2184 35.2319C29.1676 34.5001 29.2411 34.5058 32.0495 38.471L33.1312 40L34.0312 38.3576C34.7665 37.0141 34.8442 35.6936 34.2668 34.3237C33.4675 32.4213 33.9112 31.6814 34.6453 30.4571C35.2926 29.3771 36.0987 27.9543 36.0805 25.7278C36.0633 23.7693 36.6831 22.2746 37.973 21.1568C38.877 20.3735 39.2155 18.3956 39.6048 17.6154C40.2439 16.3407 40.109 15.0224 39.1919 13.5839Z" fill="#3E73CF"/>
</svg>
