<svg width="26" height="414" viewBox="0 0 26 414" fill="none" xmlns="http://www.w3.org/2000/svg">
<path d="M24.0987 373H8.00001C4.6863 373 2 375.686 2 379V412" stroke="#D4D9DB" stroke-width="3" stroke-linecap="round" stroke-dasharray="0.1 8"/>
<path d="M24.0987 307H12C6.47716 307 2 311.477 2 317V357C2 360.314 4.68629 363 8 363H24.0987" stroke="#D4D9DB" stroke-width="3" stroke-linecap="round" stroke-dasharray="0.1 8"/>
<path d="M24.0987 246H12C6.47716 246 2 250.477 2 256V296C2 299.314 4.68629 302 8 302H24.0987" stroke="#D4D9DB" stroke-width="3" stroke-linecap="round" stroke-dasharray="0.1 8"/>
<path d="M24.0987 185H12C6.47716 185 2 189.477 2 195V235C2 238.314 4.68629 241 8 241H24.0987" stroke="#D4D9DB" stroke-width="3" stroke-linecap="round" stroke-dasharray="0.1 8"/>
<path d="M24.0987 126H12C6.47716 126 2 130.477 2 136V174C2 177.314 4.68629 180 8 180H24.0987" stroke="#D4D9DB" stroke-width="3" stroke-linecap="round" stroke-dasharray="0.1 8"/>
<path d="M24.0987 65H12C6.47716 65 2 69.4772 2 75V115C2 118.314 4.68629 121 8 121H24.0987" stroke="#D4D9DB" stroke-width="3" stroke-linecap="round" stroke-dasharray="0.1 8"/>
<path d="M24.0987 2H12C6.47716 2 2 6.47715 2 12L2 54C2 57.3137 4.68629 60 8 60H24.0987" stroke="#D4D9DB" stroke-width="3" stroke-linecap="round" stroke-dasharray="0.1 8"/>
</svg>
