<svg width="32" height="40" viewBox="0 0 32 40" fill="none" xmlns="http://www.w3.org/2000/svg">
<path d="M20.5462 1.53749C20.5462 0.688359 19.868 0 19.0314 0H12.9722C12.1355 0 11.4573 0.688359 11.4573 1.53749V3.07499H20.5462V1.53749Z" fill="#3E73CF"/>
<path opacity="0.5" d="M12.615 13.8499L4.06798 18.1874L5.1148 7.49993C5.19065 6.71463 5.83988 6.11509 6.61731 6.11243H25.374C26.1608 6.10214 26.8244 6.70504 26.9011 7.49993L27.9479 18.1499L19.4009 13.8124C17.2583 12.7441 14.746 12.758 12.615 13.8499Z" fill="#3E73CF"/>
<path d="M31.9259 25.1249L27.3814 38.9499C27.1743 39.5786 26.5936 40.0017 25.9405 39.9999H6.06311C5.40752 40.0097 4.8226 39.5835 4.62218 38.9499L0.0777257 25.1249C-0.160698 24.3977 0.164977 23.6033 0.841293 23.2624L13.9697 16.6C15.2471 15.9429 16.7565 15.9429 18.0339 16.6L31.1746 23.2624C31.8381 23.6151 32.1552 24.4013 31.9259 25.1249Z" fill="#3E73CF"/>
</svg>
