<svg width="34" height="30" viewBox="0 0 34 30" fill="none" xmlns="http://www.w3.org/2000/svg">
<path d="M32.6446 17.1806C31.8087 16.8233 30.8824 16.9941 30.2273 17.6263L26.6763 21.0541C26.4815 23.0785 24.7777 24.6667 22.7109 24.6667H16.7344C16.1843 24.6667 15.7383 24.2189 15.7383 23.6667C15.7383 23.1144 16.1843 22.6667 16.7344 22.6667H22.6686C23.7526 22.6667 24.6701 21.815 24.7023 20.7272C24.7357 19.5969 23.8295 18.6667 22.7109 18.6667H17.3016L14.8939 17.4582C13.8624 16.9403 12.7076 16.6667 11.5542 16.6667C10.2011 16.6667 8.87241 17.0361 7.71209 17.7351L6.44141 18.5005V28.044L12.7958 29.9578C12.8886 29.9858 12.9851 30 13.082 30H23.1171C25.0658 30 26.8737 29.1178 28.0777 27.5795L33.5239 20.6209C33.8309 20.2285 34 19.7377 34 19.2389C34 18.3266 33.4806 17.5379 32.6446 17.1806Z" fill="white"/>
<path opacity="0.5" d="M4.44922 20.6667V19C4.44922 17.7113 3.40863 16.6667 2.125 16.6667H0.996094C0.445984 16.6667 0 17.1144 0 17.6667V20.6667H4.44922Z" fill="white"/>
<path opacity="0.5" d="M0 22.6667V29C0 29.5523 0.445984 30 0.996094 30H2.125C3.40863 30 4.44922 28.9553 4.44922 27.6667V22.6667H0Z" fill="white"/>
<path opacity="0.5" d="M28.9531 4.10638H27.2866C26.8877 4.10638 26.5273 4.34525 26.3706 4.71352L25.9648 5.66698H23.3086L22.9029 4.71352C22.7462 4.34525 22.3858 4.10638 21.9869 4.10638H20.3203V5.66698C20.3203 6.21925 19.8743 6.66698 19.3242 6.66698C18.7741 6.66698 18.3281 6.21925 18.3281 5.66698V4.10638H16.0039V8.77305H28.1239C28.4369 8.77305 28.7318 8.62532 28.92 8.37412L29.7492 7.26732C29.879 7.09405 29.9492 6.88305 29.9492 6.66625V5.10645C29.9492 4.55412 29.5032 4.10638 28.9531 4.10638Z" fill="white"/>
<path d="M12.2512 1.21713L7.76382 0.0908656C6.86495 -0.134668 5.93041 0.064199 5.20007 0.636666C4.46974 1.20913 4.05078 2.071 4.05078 3.00127V5.43973H7.03906C7.58917 5.43973 8.03516 5.88747 8.03516 6.43973C8.03516 6.992 7.58917 7.43973 7.03906 7.43973H4.05078V9.8782C4.05078 10.8085 4.46967 11.6703 5.20001 12.2428C5.73312 12.6607 6.37493 12.8795 7.03236 12.8795C7.2756 12.8795 7.52097 12.8496 7.76382 12.7887L12.2512 11.6624C13.2878 11.4022 14.0117 10.4713 14.0117 9.39873V3.4808C14.0117 2.40807 13.2878 1.47727 12.2512 1.21713Z" fill="white"/>
</svg>
