<svg width="43" height="40" viewBox="0 0 43 40" fill="none" xmlns="http://www.w3.org/2000/svg">
<path d="M21.9118 0C16.3225 0 11.2479 2.1776 7.53459 5.7024L5.19988 3.4344C5.05082 3.2896 4.84494 3.2 4.61765 3.2C4.24129 3.2 3.92424 3.4456 3.82624 3.78L0.532116 14.98C0.511528 15.0504 0.5 15.1232 0.5 15.2C0.5 15.6424 0.868118 16 1.32353 16C1.40259 16 1.47835 15.9888 1.55 15.9696L13.0794 12.7696C13.4236 12.6736 13.6765 12.3656 13.6765 12C13.6765 11.7792 13.5851 11.5792 13.4352 11.4344L11.0404 9.108C13.8568 6.4504 17.6846 4.8 21.9118 4.8C30.5399 4.8 37.5588 11.6184 37.5588 20C37.5588 28.3816 30.5399 35.2 21.9118 35.2C13.2836 35.2 6.26471 28.3816 6.26471 20C6.26471 19.6032 6.29517 19.2128 6.32565 18.8224L1.32929 20.2216C1.452 31.148 10.636 40 21.9118 40C33.2641 40 42.5 31.028 42.5 20C42.5 8.972 33.2641 0 21.9118 0Z" fill="#3E73CF"/>
<path opacity="0.5" d="M21.7967 18.4C24.9747 18.4 27.5614 20.5528 27.5614 23.2C27.5614 25.3704 25.8221 27.2064 23.4437 27.7976V29.6H20.1496V27.7976C17.7713 27.2064 16.032 25.3704 16.032 23.2H19.3261C19.3261 24.052 20.4807 24.8 21.7967 24.8C23.1127 24.8 24.2673 24.052 24.2673 23.2C24.2673 22.348 23.1127 21.6 21.7967 21.6C18.6187 21.6 16.032 19.4472 16.032 16.8C16.032 14.6296 17.7713 12.7936 20.1496 12.2024V10.4H23.4437V12.2024C25.8221 12.7936 27.5614 14.6296 27.5614 16.8H24.2673C24.2673 15.948 23.1127 15.2 21.7967 15.2C20.4807 15.2 19.3261 15.948 19.3261 16.8C19.3261 17.652 20.4807 18.4 21.7967 18.4Z" fill="#3E73CF"/>
</svg>
