<svg width="30" height="30" viewBox="0 0 30 30" fill="none" xmlns="http://www.w3.org/2000/svg">
<path fill-rule="evenodd" clip-rule="evenodd" d="M19.774 14.3454C20.3726 14.5431 20.9608 14.7792 21.5373 15.0533C22.1219 15.3311 22.3704 16.0302 22.0926 16.6147C21.8147 17.1993 21.1157 17.4478 20.5311 17.1701C18.8909 16.3903 17.1371 15.9742 15.3137 15.9314C15.2096 15.9354 15.105 15.9375 15 15.9375C14.8959 15.9375 14.7924 15.9355 14.6893 15.9315C8.73918 16.0754 3.58668 20.3426 2.37057 26.1841C2.29457 26.5491 2.38504 26.9232 2.61877 27.2106C2.75412 27.377 3.05594 27.6562 3.55621 27.6562H17.9883C18.6355 27.6562 19.1601 28.1809 19.1601 28.8281C19.1601 29.4754 18.6355 30 17.9883 30H3.55621C2.4823 30 1.47783 29.5223 0.800427 28.6893C0.119685 27.8522 -0.144398 26.765 0.0760322 25.7064C0.779333 22.3281 2.64244 19.2537 5.32205 17.0496C6.78338 15.8476 8.45301 14.9361 10.2324 14.3503C8.2903 12.8955 7.03123 10.5764 7.03123 7.96875C7.03123 3.5748 10.606 0 15 0C19.394 0 22.9687 3.5748 22.9687 7.96875C22.9687 10.5735 21.7125 12.8904 19.774 14.3454ZM15 13.584C15.0954 13.584 15.1907 13.5848 15.2858 13.5865C18.2552 13.4372 20.625 10.9746 20.625 7.96875C20.625 4.86709 18.1017 2.34375 15 2.34375C11.8983 2.34375 9.37498 4.86709 9.37498 7.96875C9.37498 10.9753 11.746 13.4385 14.7164 13.5867C14.8108 13.5849 14.9054 13.584 15 13.584Z" fill="#1886C4"/>
<path opacity="0.5" d="M28.8281 23.2617H25.6055V20.0391C25.6055 19.3918 25.0808 18.8672 24.4336 18.8672C23.7864 18.8672 23.2617 19.3918 23.2617 20.0391V23.2617H20.0391C19.3918 23.2617 18.8672 23.7864 18.8672 24.4336C18.8672 25.0808 19.3918 25.6055 20.0391 25.6055H23.2617V28.8281C23.2617 29.4754 23.7864 30 24.4336 30C25.0808 30 25.6055 29.4754 25.6055 28.8281V25.6055H28.8281C29.4754 25.6055 30 25.0808 30 24.4336C30 23.7864 29.4754 23.2617 28.8281 23.2617Z" fill="#1886C4"/>
</svg>
