<svg width="54" height="37" viewBox="0 0 54 37" fill="none" xmlns="http://www.w3.org/2000/svg">
<path d="M7.27605 15.7883H7.68105C8.44925 14.0228 10.1826 12.8822 12.0975 12.8822C14.0123 12.8822 15.7457 14.0228 16.5139 15.7883H17.8832V11.9059C17.8832 11.3699 18.3149 10.9353 18.8475 10.9353C19.38 10.9353 19.8118 11.3699 19.8118 11.9059V15.7883H25.0382C25.8064 14.0228 27.5398 12.8822 29.4546 12.8822C31.3695 12.8822 33.1029 14.0228 33.8711 15.7883H34.2761C34.8086 15.7883 35.2403 15.3537 35.2403 14.8177V12.8765H34.2761C33.7435 12.8765 33.3118 12.4419 33.3118 11.9059C33.3118 11.3699 33.7435 10.9353 34.2761 10.9353H35.1246C35.0145 10.703 34.8166 10.5247 34.575 10.4403L30.9203 9.21738C30.7536 9.15696 30.5923 9.08227 30.4382 8.99414H7.65212L7.47855 9.19796L6.60105 10.0812C6.41701 10.2628 6.31284 10.5109 6.31177 10.7703V14.8177C6.31177 15.3537 6.74349 15.7883 7.27605 15.7883Z" fill="#3E73CF"/>
<ellipse cx="29.4546" cy="17.7295" rx="2.89286" ry="2.91176" fill="#3E73CF"/>
<path opacity="0.5" d="M17.8831 0.25885H11.5574C11.1412 0.261863 10.7729 0.531065 10.6413 0.928555L8.60669 7.05296H17.8831V0.25885Z" fill="#3E73CF"/>
<path opacity="0.5" d="M26.1953 0.841209C26.0415 0.486373 25.6928 0.257508 25.3082 0.258856L19.8118 0.25885V7.05297H28.9339L26.1953 0.841209Z" fill="#3E73CF"/>
<path opacity="0.5" d="M42.4285 9.7059C42.4285 10.2419 42.8602 10.6765 43.3928 10.6765H49.9788L48.4745 0.825026C48.4057 0.348648 47.9982 -0.00353475 47.5199 2.67712e-05L42.4285 2.39099e-09L42.4285 9.7059Z" fill="#3E73CF"/>
<path fill-rule="evenodd" clip-rule="evenodd" d="M42.4285 29.1176C42.4285 26.9735 44.1554 25.2353 46.2856 25.2353C48.4159 25.2353 50.1428 26.9735 50.1428 29.1176C50.1428 31.2618 48.4159 33 46.2856 33C44.1554 33 42.4285 31.2618 42.4285 29.1176ZM45.3213 29.1176C45.3213 29.6537 45.753 30.0882 46.2856 30.0882C46.8182 30.0882 47.2499 29.6537 47.2499 29.1176C47.2499 28.5816 46.8182 28.1471 46.2856 28.1471C45.753 28.1471 45.3213 28.5816 45.3213 29.1176Z" fill="#3E73CF"/>
<path fill-rule="evenodd" clip-rule="evenodd" d="M54 16.5H52.0714C51.5389 16.5 51.1071 16.9345 51.1071 17.4706C51.1071 18.0066 51.5389 18.4412 52.0714 18.4412H54V24.2647C54 24.8007 53.5683 25.2353 53.0357 25.2353H50.5864C49.4935 24.0004 47.9287 23.2941 46.2857 23.2941C44.6427 23.2941 43.0779 24.0004 41.985 25.2353H39.2727H38.5714H14.9443C13.773 24.0004 12.0959 23.2941 10.3349 23.2941C8.57399 23.2941 6.89687 24.0004 5.72555 25.2353H1.03349C0.46271 25.2353 0 24.8007 0 24.2647V22.3235C0 21.7875 0.46271 21.3529 1.03349 21.3529H38.5714V0.970587C38.5714 0.434547 39.0032 0 39.5357 0H40.5V9.70587C40.5048 11.312 41.7972 12.6128 43.3929 12.6176H50.76C50.8661 12.7535 50.9721 12.8797 51.0879 13.0059L53.7107 15.6459C53.8948 15.8274 53.9989 16.0756 54 16.335V16.5Z" fill="#3E73CF"/>
<ellipse cx="12.0974" cy="17.7295" rx="2.89286" ry="2.91176" fill="#3E73CF"/>
<path fill-rule="evenodd" clip-rule="evenodd" d="M5.78564 29.1176C5.78564 26.9735 7.51255 25.2353 9.64279 25.2353C11.773 25.2353 13.4999 26.9735 13.4999 29.1176C13.4999 31.2618 11.773 33 9.64279 33C7.51255 33 5.78564 31.2618 5.78564 29.1176ZM8.6785 29.1176C8.6785 29.6537 9.11023 30.0882 9.64279 30.0882C10.1753 30.0882 10.6071 29.6537 10.6071 29.1176C10.6071 28.5816 10.1753 28.1471 9.64279 28.1471C9.11023 28.1471 8.6785 28.5816 8.6785 29.1176Z" fill="#3E73CF"/>
</svg>
