<svg width="28" height="30" viewBox="0 0 28 30" fill="none" xmlns="http://www.w3.org/2000/svg">
<path fill-rule="evenodd" clip-rule="evenodd" d="M16.5642 28.8281C16.5642 29.4754 16.0364 30 15.3853 30H4.71579C2.11543 30 0 27.8973 0 25.3125V4.6875C0 2.10274 2.11543 0 4.71579 0H21.1032C23.7035 0 25.8189 2.10274 25.8189 4.6875V11.3086C25.8189 11.9559 25.2912 12.4805 24.64 12.4805C23.9888 12.4805 23.4611 11.9559 23.4611 11.3086V4.6875C23.4611 3.39523 22.4032 2.34375 21.1032 2.34375H4.71579C3.41572 2.34375 2.35789 3.39523 2.35789 4.6875V25.3125C2.35789 26.6048 3.41572 27.6562 4.71579 27.6562H15.3853C16.0364 27.6562 16.5642 28.1808 16.5642 28.8281ZM7.13724 15.2344C7.13724 14.5871 6.54592 14.0625 5.89474 14.0625C5.24355 14.0625 4.71579 14.5871 4.71579 15.2344C4.71579 15.8817 5.24355 16.4062 5.89474 16.4062C6.54592 16.4062 7.13724 15.8817 7.13724 15.2344ZM10.6105 14.0625C11.2617 14.0625 11.7895 14.5871 11.7895 15.2344C11.7895 15.8817 11.2617 16.4062 10.6105 16.4062C9.95934 16.4062 9.43158 15.8817 9.43158 15.2344C9.43158 14.5871 9.95934 14.0625 10.6105 14.0625ZM7.13263 19.6875C7.13263 19.0402 6.54592 18.5156 5.89474 18.5156C5.24355 18.5156 4.71579 19.0402 4.71579 19.6875C4.71579 20.3348 5.24355 20.8594 5.89474 20.8594C6.54592 20.8594 7.13263 20.3348 7.13263 19.6875ZM10.6105 18.5156C11.2617 18.5156 11.7895 19.0402 11.7895 19.6875C11.7895 20.3348 11.2617 20.8594 10.6105 20.8594C9.95934 20.8594 9.43158 20.3348 9.43158 19.6875C9.43158 19.0402 9.95934 18.5156 10.6105 18.5156ZM5.89474 22.9688C5.24355 22.9688 4.71579 23.4933 4.71579 24.1406C4.71579 24.7879 5.24355 25.3125 5.89474 25.3125C6.54592 25.3125 7.07368 24.7879 7.07368 24.1406C7.07368 23.4933 6.54592 22.9688 5.89474 22.9688ZM9.37263 24.1406C9.37263 23.4933 9.9004 22.9688 10.5516 22.9688C11.2028 22.9688 11.7305 23.4933 11.7305 24.1406C11.7305 24.7879 11.2028 25.3125 10.5516 25.3125C9.9004 25.3125 9.37263 24.7879 9.37263 24.1406ZM19.9242 11.7188H5.89474C5.24355 11.7188 4.71579 11.1942 4.71579 10.5469V5.85938C4.71579 5.2121 5.24355 4.6875 5.89474 4.6875H19.9242C20.5754 4.6875 21.1032 5.2121 21.1032 5.85938V10.5469C21.1032 11.1942 20.5754 11.7188 19.9242 11.7188ZM7.07368 7.03125H18.7453V9.375H7.07368V7.03125Z" fill="#1886C4"/>
<path opacity="0.5" fill-rule="evenodd" clip-rule="evenodd" d="M24.7975 26.8591C26.3707 25.1438 27.9973 23.3702 28 20.6261C27.9959 17.0716 25.0872 14.1797 21.5158 14.1797C17.9444 14.1797 15.0358 17.0716 15.0316 20.6287C15.0344 23.3702 16.661 25.1438 18.2341 26.8591C18.9776 27.6698 19.7465 28.5081 20.3468 29.4537C20.5628 29.7938 20.939 30 21.3438 30H21.6878C22.0926 30 22.4689 29.7938 22.6849 29.4537C23.2852 28.5081 24.054 27.6698 24.7975 26.8591ZM25.6421 20.6264C25.6394 18.365 23.7885 16.5234 21.5158 16.5234C19.2431 16.5234 17.3923 18.365 17.3895 20.6289C17.3914 22.4608 18.5317 23.7044 19.9754 25.2787L19.9765 25.28L19.9791 25.2829C20.4936 25.8438 21.0191 26.4168 21.5158 27.0463C22.0126 26.4168 22.538 25.8439 23.0525 25.2829L23.0525 25.2829L23.0551 25.28L23.0563 25.2788C24.4999 23.7044 25.6403 22.4608 25.6421 20.6264ZM23.3432 20.625C23.3432 21.6266 22.5235 22.4414 21.5158 22.4414C20.5082 22.4414 19.6885 21.6266 19.6885 20.625C19.6885 19.6234 20.5082 18.8086 21.5158 18.8086C22.5235 18.8086 23.3432 19.6234 23.3432 20.625Z" fill="#1886C4"/>
</svg>
