<svg width="30" height="30" viewBox="0 0 30 30" fill="none" xmlns="http://www.w3.org/2000/svg">
<path opacity="0.5" d="M3.11704 7.81752C3.32464 7.96928 3.56558 8.04196 3.80476 8.04196C4.16616 8.04196 4.52229 7.87499 4.75093 7.55973C5.13102 7.03646 5.01583 6.30349 4.49364 5.92265C3.9714 5.54181 3.23985 5.65723 2.85976 6.18044C2.4796 6.70371 2.5948 7.43668 3.11704 7.81752Z" fill="#1886C4"/>
<path opacity="0.5" d="M1.48142 11.8365C1.60131 11.8758 1.72295 11.8945 1.84283 11.8945C2.33584 11.8945 2.79427 11.5799 2.95511 11.0847C3.15451 10.4689 2.81888 9.80802 2.20424 9.60759C1.59023 9.4078 0.93 9.74467 0.730547 10.3599C0.530508 10.9757 0.866777 11.6367 1.48142 11.8365Z" fill="#1886C4"/>
<path opacity="0.5" d="M6.8597 4.98339C7.09829 4.98339 7.33923 4.91013 7.54741 4.75895C7.54683 4.75895 7.54683 4.75895 7.54683 4.75895C8.06966 4.37811 8.18485 3.64508 7.8047 3.12187C7.4246 2.59861 6.693 2.48319 6.17081 2.86409C5.64857 3.24493 5.53337 3.97737 5.91353 4.50116C6.14216 4.81637 6.49829 4.98339 6.8597 4.98339Z" fill="#1886C4"/>
<path opacity="0.5" d="M0.022854 15.2291C0.0304711 15.2666 0.0397875 15.3035 0.0509203 15.3404C0.0620531 15.3767 0.0748851 15.4131 0.0895335 15.4482C0.104182 15.4833 0.12053 15.5185 0.138635 15.5519C0.156154 15.5853 0.176076 15.6187 0.197111 15.6504C0.218147 15.6826 0.240998 15.7137 0.265549 15.743C0.289514 15.7728 0.315822 15.8016 0.342717 15.8285C0.369611 15.8554 0.398263 15.8818 0.428087 15.9058C0.457326 15.9298 0.488322 15.9533 0.52049 15.9744C0.552072 15.9955 0.585411 16.0154 0.618751 16.033C0.652091 16.0511 0.687189 16.0676 0.722286 16.0822C0.757384 16.0969 0.793653 16.1097 0.829864 16.1209C0.866719 16.132 0.904161 16.1414 0.940957 16.149C0.978399 16.1566 1.01695 16.1625 1.05439 16.166C1.09301 16.1701 1.13156 16.1718 1.16959 16.1718C1.20762 16.1718 1.24617 16.1701 1.28478 16.166C1.32223 16.1624 1.36078 16.1566 1.39822 16.149C1.43566 16.1414 1.47252 16.132 1.50932 16.1209C1.54559 16.1097 1.58185 16.0969 1.61689 16.0822C1.65199 16.0675 1.68709 16.0511 1.72043 16.033C1.75435 16.0154 1.78711 15.9955 1.81869 15.9744C1.85086 15.9533 1.88185 15.9298 1.91109 15.9058C1.94092 15.8818 1.96957 15.8554 1.99646 15.8285C2.02336 15.8016 2.04967 15.7728 2.07363 15.743C2.0976 15.7137 2.12097 15.6826 2.14207 15.6504C2.1631 15.6187 2.18303 15.5853 2.20054 15.5519C2.21865 15.5185 2.23506 15.4834 2.24965 15.4482C2.26424 15.413 2.27713 15.3767 2.28826 15.3404C2.29939 15.3035 2.30871 15.2665 2.31633 15.2291C2.32394 15.1916 2.3298 15.1535 2.33326 15.1154C2.33736 15.0773 2.33912 15.0381 2.33912 15C2.33912 14.9619 2.33736 14.9233 2.33326 14.8846C2.32974 14.8471 2.32388 14.8084 2.31633 14.7709C2.30871 14.734 2.29939 14.6965 2.28826 14.6596C2.27713 14.6233 2.26429 14.5869 2.24965 14.5518C2.235 14.5167 2.21865 14.4815 2.20054 14.4481C2.18303 14.4147 2.1631 14.3813 2.14207 14.3496C2.12103 14.3174 2.0976 14.2864 2.07363 14.2571C2.04967 14.2272 2.02336 14.1985 1.99646 14.1715C1.96957 14.1446 1.94092 14.1182 1.91109 14.0942C1.88185 14.0696 1.85086 14.0468 1.81869 14.0256C1.78711 14.0046 1.75435 13.9846 1.72043 13.967C1.68709 13.9489 1.65199 13.9325 1.61689 13.9178C1.5818 13.9032 1.54553 13.8903 1.50932 13.8792C1.47246 13.868 1.4356 13.8587 1.39822 13.851C1.36078 13.8434 1.32223 13.8375 1.28478 13.8341C1.2082 13.8264 1.13098 13.8264 1.05439 13.8341C1.01695 13.8376 0.978399 13.8435 0.940957 13.851C0.904102 13.8587 0.866661 13.868 0.829864 13.8792C0.793594 13.8903 0.757325 13.9032 0.722286 13.9178C0.687189 13.9325 0.652091 13.9489 0.618751 13.967C0.585411 13.9846 0.552072 14.0046 0.52049 14.0256C0.488322 14.0467 0.457326 14.0696 0.428087 14.0942C0.398263 14.1182 0.369611 14.1446 0.342717 14.1715C0.315822 14.1985 0.289514 14.2272 0.265549 14.2571C0.240998 14.2864 0.218205 14.3174 0.197111 14.3496C0.176076 14.3813 0.156154 14.4147 0.138635 14.4481C0.12053 14.4815 0.104123 14.5167 0.0895335 14.5518C0.0749437 14.587 0.0620531 14.6233 0.0509203 14.6596C0.0397875 14.6965 0.0304711 14.7341 0.022854 14.7709C0.0152368 14.8084 0.00937742 14.8471 0.0059204 14.8846C0.00181884 14.9233 6.10352e-05 14.9619 6.10352e-05 15C6.10352e-05 15.0381 0.00181884 15.0773 0.0059204 15.1154C0.00943602 15.1535 0.0152954 15.1916 0.022854 15.2291Z" fill="#1886C4"/>
<path opacity="0.5" d="M10.7048 3.01696C10.8246 3.01696 10.9463 2.99882 11.0662 2.95954C11.6808 2.75976 12.017 2.09882 11.8176 1.48298C11.6177 0.867772 10.958 0.530846 10.3439 0.73063C9.72936 0.930414 9.39309 1.59135 9.59248 2.2072C9.75332 2.70234 10.2118 3.01696 10.7048 3.01696Z" fill="#1886C4"/>
<path d="M10.3509 11.6634V11.8811C10.3509 14.15 12.1828 15.996 14.4345 15.996H15.9075C16.8743 15.996 17.6608 16.7816 17.6608 17.7472V18.5123C17.6608 19.4834 16.8743 20.2734 15.9075 20.2734H13.5135C12.8453 20.2734 12.2807 19.6831 12.2807 18.9844C12.2807 18.3372 11.7571 17.8125 11.1111 17.8125C10.4652 17.8125 9.94153 18.3372 9.94153 18.9844C9.94153 20.9875 11.5439 22.6172 13.5135 22.6172H13.8011V23.8476C13.8011 24.4948 14.3248 25.0195 14.9707 25.0195C15.6167 25.0195 16.1403 24.4948 16.1403 23.8476V22.6101C18.289 22.4885 19.9999 20.6973 19.9999 18.5123V17.7472C19.9999 15.4893 18.164 13.6523 15.9075 13.6523H14.4344C13.4726 13.6523 12.69 12.8577 12.69 11.8811V11.6635C12.69 10.6924 13.4726 9.90237 14.4344 9.90237H15.8274C16.5159 9.90237 17.076 10.4543 17.076 11.1328C17.076 11.78 17.5997 12.3047 18.2456 12.3047C18.8915 12.3047 19.4152 11.78 19.4152 11.1328C19.4152 9.26709 17.9725 7.73164 16.1403 7.57307V6.21092C16.1403 5.56372 15.6167 5.03905 14.9707 5.03905C14.3248 5.03905 13.8011 5.56372 13.8011 6.21092V7.60812C11.8492 7.91493 10.3509 9.61652 10.3509 11.6634Z" fill="#1886C4"/>
<path d="M16.1931 28.7151C16.1925 28.7085 16.1916 28.7021 16.1909 28.6956C16.1875 28.6657 16.183 28.6356 16.1771 28.6059C16.1523 28.4761 16.1057 28.3544 16.042 28.2437C16.0317 28.2258 16.0211 28.2082 16.0099 28.1908C16.0025 28.1795 15.995 28.1682 15.9873 28.1571C15.9722 28.1353 15.9564 28.1141 15.94 28.0937C15.934 28.0863 15.9279 28.0789 15.9218 28.0717C15.903 28.0492 15.8831 28.0273 15.8627 28.0065C15.8583 28.002 15.8538 27.9975 15.8493 27.993C15.8286 27.9726 15.8068 27.9528 15.7845 27.934C15.7769 27.9275 15.7693 27.9213 15.7616 27.915C15.7414 27.8987 15.7204 27.883 15.6988 27.8681C15.6879 27.8604 15.6769 27.8529 15.6657 27.8457C15.6482 27.8343 15.6303 27.8235 15.6121 27.8131C15.502 27.7495 15.381 27.703 15.2521 27.6781C15.2218 27.6721 15.1911 27.6675 15.1607 27.6641C15.1175 27.6592 15.0738 27.6562 15.0292 27.6562C10.6059 27.6562 6.5017 25.305 4.22891 21.5666L6.90236 21.5625C7.5483 21.5615 8.07113 21.0361 8.07019 20.3889C8.06919 19.7423 7.54572 19.2188 6.9006 19.2188C6.90002 19.2188 6.89937 19.2188 6.89879 19.2188L3.4775 19.224C3.4737 19.224 3.46989 19.224 3.46608 19.224C2.54071 19.224 1.67405 19.5819 1.02442 20.2328C0.359914 20.8986 -0.00389433 21.7924 3.14427e-05 22.7447V26.1328C3.14427e-05 26.78 0.523683 27.3046 1.16962 27.3046C1.81555 27.3046 2.33921 26.78 2.33921 26.1328V22.9626C3.49643 24.8124 5.04623 26.3928 6.89146 27.5923C9.31413 29.167 12.1274 29.9995 15.0274 29.9999C15.0279 29.9999 15.0286 30 15.0292 30C15.0671 30 15.1056 29.9982 15.1441 29.9941C15.1494 29.9936 15.1545 29.9928 15.1597 29.9922C15.1908 29.9888 15.2224 29.984 15.2532 29.9779C15.3815 29.9529 15.5019 29.9066 15.6114 29.8434C15.6302 29.8326 15.6488 29.8214 15.667 29.8095C15.6775 29.8027 15.6878 29.7957 15.6981 29.7885C15.7205 29.773 15.7423 29.7567 15.7631 29.7399C15.77 29.7343 15.7768 29.7286 15.7835 29.723C15.8065 29.7038 15.8287 29.6834 15.8499 29.6625C15.854 29.6584 15.8581 29.6543 15.8621 29.6502C15.8829 29.6291 15.9032 29.6068 15.9223 29.5839C15.9281 29.5769 15.9339 29.5701 15.9395 29.563C15.9561 29.5423 15.9722 29.5207 15.9875 29.4986C15.9947 29.4883 16.0017 29.478 16.0085 29.4675C16.0206 29.4488 16.0322 29.4296 16.0432 29.4102C16.1062 29.3003 16.1522 29.1794 16.177 29.0507C16.1829 29.0208 16.1875 28.9905 16.1908 28.9602C16.1915 28.9538 16.1924 28.9475 16.193 28.9411C16.1969 28.9041 16.1987 28.866 16.1987 28.8291C16.1987 28.8288 16.1987 28.8284 16.1987 28.8281C16.1987 28.8277 16.1987 28.8273 16.1987 28.8269C16.1987 28.79 16.197 28.7526 16.1931 28.7151Z" fill="#1886C4"/>
<path d="M26.883 7.81491C26.3608 8.19575 25.6292 8.08033 25.2491 7.55712C24.869 7.03386 24.9842 6.30089 25.5064 5.92005C25.714 5.76887 25.9549 5.6956 26.1935 5.6956C26.5549 5.6956 26.9111 5.86316 27.1403 6.17783C27.5204 6.70104 27.4052 7.43407 26.883 7.81491Z" fill="#1886C4"/>
<path d="M29.9772 15.2264C29.9695 15.2633 29.9602 15.3008 29.9491 15.3377C29.938 15.3741 29.9251 15.4104 29.9105 15.4455C29.8958 15.4806 29.8795 15.5158 29.8614 15.5492C29.8439 15.5832 29.8239 15.616 29.8029 15.6477C29.7819 15.6799 29.7584 15.711 29.7345 15.7403C29.7105 15.7702 29.6842 15.7989 29.6573 15.8258C29.6304 15.8528 29.6017 15.8791 29.5719 15.9031C29.5427 15.9277 29.5117 15.9506 29.4795 15.9717C29.4479 15.9928 29.4146 16.0127 29.3813 16.0303C29.3479 16.0484 29.3128 16.0649 29.2777 16.0795C29.2426 16.0941 29.2064 16.107 29.1701 16.1182C29.1333 16.1293 29.0958 16.1387 29.059 16.1463C29.0216 16.1539 28.9831 16.1598 28.9456 16.1633C28.869 16.1709 28.7918 16.1709 28.7152 16.1633C28.6778 16.1597 28.6392 16.1539 28.6018 16.1463C28.5649 16.1387 28.5275 16.1293 28.4907 16.1182C28.4544 16.107 28.4182 16.0942 28.3831 16.0795C28.3481 16.0648 28.3129 16.0484 28.2796 16.0303C28.2462 16.0127 28.2129 15.9928 28.1813 15.9717C28.1491 15.9506 28.1182 15.9277 28.0889 15.9031C28.0591 15.8791 28.0304 15.8528 28.0035 15.8258C27.9766 15.7989 27.9503 15.7702 27.9264 15.7403C27.9024 15.711 27.879 15.6799 27.8579 15.6477C27.8369 15.616 27.817 15.5832 27.7995 15.5492C27.7814 15.5158 27.765 15.4807 27.7504 15.4455C27.7358 15.4103 27.7229 15.374 27.7117 15.3377C27.7006 15.3008 27.6913 15.2633 27.6837 15.2264C27.6761 15.1889 27.6702 15.1503 27.6667 15.1127C27.6626 15.0741 27.6609 15.0354 27.6609 14.9973C27.6609 14.9592 27.6626 14.9206 27.6667 14.8819C27.6703 14.8444 27.6761 14.8058 27.6837 14.7682C27.6913 14.7313 27.7006 14.6939 27.7117 14.6569C27.7229 14.6206 27.7357 14.5843 27.7504 14.5491C27.765 14.514 27.7814 14.4788 27.7995 14.4454C27.817 14.412 27.8369 14.3786 27.8579 14.347C27.879 14.3147 27.9024 14.2837 27.9264 14.2544C27.9503 14.2245 27.9766 14.1958 28.0035 14.1688C28.0304 14.1419 28.0591 14.1155 28.0889 14.0915C28.1182 14.0675 28.1491 14.0441 28.1813 14.0229C28.2129 14.0019 28.2462 13.9819 28.2796 13.9644C28.3129 13.9462 28.348 13.9298 28.3831 13.9152C28.4182 13.9005 28.4545 13.8876 28.4907 13.8765C28.5275 13.8653 28.565 13.856 28.6018 13.8483C28.6392 13.8407 28.6778 13.8348 28.7152 13.8314C28.7538 13.8273 28.7924 13.8255 28.8304 13.8255C28.8684 13.8255 28.907 13.8273 28.9456 13.8314C28.9831 13.8349 29.0216 13.8408 29.059 13.8483C29.0959 13.856 29.1333 13.8653 29.1701 13.8765C29.2064 13.8876 29.2427 13.9005 29.2777 13.9152C29.3128 13.9298 29.3479 13.9462 29.3813 13.9644C29.4146 13.9819 29.4479 14.0019 29.4795 14.0229C29.5117 14.044 29.5427 14.0675 29.5719 14.0915C29.6017 14.1155 29.6304 14.1419 29.6573 14.1688C29.6842 14.1958 29.7105 14.2245 29.7345 14.2544C29.7584 14.2837 29.7818 14.3147 29.8029 14.347C29.8239 14.3786 29.8439 14.412 29.8614 14.4454C29.8795 14.4788 29.8959 14.514 29.9105 14.5491C29.9251 14.5843 29.938 14.6207 29.9491 14.6569C29.9602 14.6939 29.9695 14.7314 29.9772 14.7682C29.9848 14.8058 29.9906 14.8444 29.9941 14.8819C29.9982 14.9206 29.9999 14.9592 29.9999 14.9973C29.9999 15.0354 29.9982 15.0741 29.9941 15.1127C29.9906 15.1503 29.9848 15.1889 29.9772 15.2264Z" fill="#1886C4"/>
<path d="M22.4532 4.75633C21.9304 4.37549 21.8152 3.64246 22.1954 3.11925C22.4246 2.80399 22.7807 2.63703 23.1421 2.63703C23.3807 2.63703 23.6216 2.70971 23.8292 2.86147C24.3515 3.24231 24.4667 3.97534 24.0871 4.49854C23.707 5.02175 22.9754 5.13717 22.4532 4.75633Z" fill="#1886C4"/>
<path d="M18.9339 2.95692C18.3193 2.75713 17.9831 2.0962 18.1825 1.48035C18.3433 0.985201 18.8017 0.670584 19.2947 0.669997C19.4146 0.669997 19.5363 0.688725 19.6561 0.728001C20.2708 0.927785 20.607 1.58872 20.4076 2.20457C20.2082 2.81977 19.548 3.1567 18.9339 2.95692Z" fill="#1886C4"/>
<path opacity="0.5" d="M14.6089 2.28692C13.9943 2.08713 13.658 1.4262 13.8574 0.810348C14.0183 0.315203 14.4767 0.000586033 14.9697 -9.53674e-07C15.0896 -9.53674e-07 15.2112 0.0187268 15.3311 0.0580027C15.9458 0.257787 16.282 0.918723 16.0826 1.53457C15.8832 2.14978 15.223 2.4867 14.6089 2.28692Z" fill="#1886C4"/>
<path d="M28.5186 11.8344C27.9046 12.0342 27.2444 11.6973 27.0449 11.0821C26.8455 10.4662 27.1812 9.80534 27.7958 9.60491C27.9157 9.56622 28.0379 9.54749 28.1578 9.54749C28.6508 9.54749 29.1093 9.86217 29.2695 10.3573C29.4695 10.9731 29.1333 11.634 28.5186 11.8344Z" fill="#1886C4"/>
<path d="M26.883 22.1824C26.3608 21.8015 25.6292 21.9169 25.2491 22.4401C24.869 22.9634 24.9842 23.6964 25.5064 24.0772C25.714 24.2284 25.9549 24.3017 26.1935 24.3017C26.5549 24.3017 26.9111 24.1341 27.1403 23.8194C27.5204 23.2962 27.4052 22.5632 26.883 22.1824Z" fill="#1886C4"/>
<path d="M22.4532 25.2409C21.9304 25.6218 21.8152 26.3548 22.1954 26.878C22.4246 27.1933 22.7807 27.3602 23.1421 27.3602C23.3807 27.3602 23.6216 27.2876 23.8292 27.1358C24.3515 26.755 24.4667 26.0219 24.0871 25.4987C23.707 24.9755 22.9754 24.8601 22.4532 25.2409Z" fill="#1886C4"/>
<path d="M18.9339 27.0403C18.3193 27.2401 17.9831 27.9011 18.1825 28.5169C18.3433 29.0121 18.8017 29.3267 19.2947 29.3273C19.4146 29.3273 19.5363 29.3085 19.6561 29.2693C20.2708 29.0695 20.607 28.4085 20.4076 27.7927C20.2082 27.1775 19.548 26.8406 18.9339 27.0403Z" fill="#1886C4"/>
<path d="M28.5187 18.1628C27.9047 17.9631 27.2445 18.2999 27.045 18.9152C26.8456 19.531 27.1812 20.1919 27.7959 20.3923C27.9158 20.431 28.038 20.4498 28.1579 20.4498C28.6509 20.4498 29.1093 20.1351 29.2696 19.64C29.4696 19.0241 29.1333 18.3632 28.5187 18.1628Z" fill="#1886C4"/>
</svg>
