<svg width="1319" height="19" viewBox="0 0 1319 19" fill="none" xmlns="http://www.w3.org/2000/svg">
<rect x="1065" y="9" width="225" height="1" rx="0.5" fill="#DBDBDB"/>
<rect x="805" y="9" width="225" height="1" rx="0.5" fill="#DBDBDB"/>
<rect x="545" y="9" width="225" height="1" rx="0.5" fill="#DBDBDB"/>
<rect x="285" y="9" width="225" height="1" rx="0.5" fill="#DBDBDB"/>
<rect x="25" y="9" width="225" height="1" rx="0.5" fill="#DBDBDB"/>
<path d="M1182 9.50002C1182 9.73301 1181.9 9.96597 1181.71 10.1436L1175.68 15.7333C1175.29 16.0889 1174.67 16.0889 1174.29 15.7333C1173.9 15.3779 1173.9 14.8015 1174.29 14.4459L1179.63 9.50002L1174.29 4.55414C1173.9 4.19856 1173.9 3.62222 1174.29 3.26681C1174.67 2.91106 1175.29 2.91106 1175.68 3.26681L1181.71 8.85645C1181.9 9.03416 1182 9.26712 1182 9.50002Z" fill="#3E73CF"/>
<path d="M922 9.50002C922 9.73301 921.904 9.96597 921.712 10.1436L915.678 15.7333C915.294 16.0889 914.672 16.0889 914.288 15.7333C913.904 15.3779 913.904 14.8015 914.288 14.4459L919.627 9.50002L914.288 4.55414C913.904 4.19856 913.904 3.62222 914.288 3.26681C914.672 2.91106 915.294 2.91106 915.678 3.26681L921.712 8.85645C921.904 9.03416 922 9.26712 922 9.50002Z" fill="#3E73CF"/>
<path d="M662 9.50002C662 9.73301 661.904 9.96597 661.712 10.1436L655.678 15.7333C655.294 16.0889 654.672 16.0889 654.288 15.7333C653.904 15.3779 653.904 14.8015 654.288 14.4459L659.627 9.50002L654.288 4.55414C653.904 4.19856 653.904 3.62222 654.288 3.26681C654.672 2.91106 655.294 2.91106 655.678 3.26681L661.712 8.85645C661.904 9.03416 662 9.26712 662 9.50002Z" fill="#3E73CF"/>
<path d="M402 9.50002C402 9.73301 401.904 9.96597 401.712 10.1436L395.678 15.7333C395.294 16.0889 394.672 16.0889 394.288 15.7333C393.904 15.3779 393.904 14.8015 394.288 14.4459L399.627 9.50002L394.288 4.55414C393.904 4.19856 393.904 3.62222 394.288 3.26681C394.672 2.91106 395.294 2.91106 395.678 3.26681L401.712 8.85645C401.904 9.03416 402 9.26712 402 9.50002Z" fill="#3E73CF"/>
<path d="M142 9.50002C142 9.73301 141.904 9.96597 141.712 10.1436L135.678 15.7333C135.294 16.0889 134.672 16.0889 134.288 15.7333C133.904 15.3779 133.904 14.8015 134.288 14.4459L139.627 9.50002L134.288 4.55414C133.904 4.19856 133.904 3.62222 134.288 3.26681C134.672 2.91106 135.294 2.91106 135.678 3.26681L141.712 8.85645C141.904 9.03416 142 9.26712 142 9.50002Z" fill="#3E73CF"/>
<circle cx="1309.5" cy="9.5" r="9.5" fill="#E3433A"/>
<circle cx="1309.5" cy="9.5" r="5.5" fill="white"/>
<circle cx="1309.5" cy="9.5" r="2.5" fill="#E3433A"/>
<circle cx="1047.5" cy="9.5" r="7.5" fill="white"/>
<circle cx="1047.5" cy="9.5" r="3.5" fill="#8C8C8C"/>
<circle cx="787.5" cy="9.5" r="7.5" fill="white"/>
<circle cx="787.5" cy="9.5" r="3.5" fill="#8C8C8C"/>
<circle cx="527.5" cy="9.5" r="7.5" fill="white"/>
<circle cx="527.5" cy="9.5" r="3.5" fill="#8C8C8C"/>
<circle cx="267.5" cy="9.5" r="7.5" fill="white"/>
<circle cx="267.5" cy="9.5" r="3.5" fill="#8C8C8C"/>
<circle cx="7.5" cy="9.5" r="7.5" fill="white"/>
<circle cx="7.5" cy="9.5" r="3.5" fill="#3E73CF"/>
</svg>
