<svg width="30" height="30" viewBox="0 0 30 30" fill="none" xmlns="http://www.w3.org/2000/svg">
<path fill-rule="evenodd" clip-rule="evenodd" d="M27.6562 12.5462V15.4758C27.6562 16.1231 28.1808 16.6477 28.8281 16.6477C29.4754 16.6477 30 16.1231 30 15.4758V8.67188C30 6.08711 27.8973 3.98438 25.3125 3.98438H5.64171L2.00043 0.343323C1.54289 -0.114441 0.800858 -0.114441 0.343323 0.343323C-0.114441 0.800858 -0.114441 1.54289 0.343323 2.00043L27.9996 29.6567C28.2282 29.8856 28.5283 30 28.8281 30C29.1282 30 29.428 29.8856 29.6567 29.6567C30.1144 29.1991 30.1144 28.4571 29.6567 27.9993L27.2514 25.594C28.8709 24.855 30 23.2214 30 21.3281C30 20.6808 29.4754 20.1562 28.8281 20.1562C28.1808 20.1562 27.6562 20.6808 27.6562 21.3281C27.6562 22.6149 26.6137 23.6625 25.3288 23.6714L14.2035 12.5462H27.6562ZM27.6562 8.67188V10.2024H11.8597L7.98546 6.32812H25.3125C26.6048 6.32812 27.6562 7.37938 27.6562 8.67188Z" fill="#1886C4"/>
<path opacity="0.5" d="M19.2817 24.015C20.0198 24.7533 19.4971 26.0156 18.4529 26.0156H4.6875C2.09862 26.0156 0 23.917 0 21.3281V8.67187C0 8.30955 0.0414276 7.95662 0.119705 7.61787C0.326157 6.72294 1.44035 6.408 2.08992 7.05757C2.37556 7.34321 2.49298 7.75543 2.4028 8.1491C2.36412 8.31733 2.34375 8.4922 2.34375 8.67187V10.2024H4.98367C5.29427 10.2024 5.5925 10.3258 5.81223 10.5457C6.55037 11.2839 6.0276 12.5391 4.98367 12.5391H2.34375V21.3281C2.34375 22.6224 3.39317 23.6719 4.6875 23.6719H18.4529C18.7637 23.6719 19.062 23.7952 19.2817 24.015Z" fill="#1886C4"/>
</svg>
