<svg width="40" height="40" viewBox="0 0 40 40" fill="none" xmlns="http://www.w3.org/2000/svg">
<path opacity="0.5" fill-rule="evenodd" clip-rule="evenodd" d="M32.9412 24.8376C32.9412 28.1037 30.3077 30.7514 27.0589 30.7514C23.8101 30.7514 21.1765 28.1037 21.1765 24.8376C21.1765 21.5715 23.8101 18.9239 27.0589 18.9239C30.3077 18.9239 32.9412 21.5715 32.9412 24.8376ZM28.2353 23.6549H25.8824V26.0204H28.2353V23.6549Z" fill="#3E73CF"/>
<path fill-rule="evenodd" clip-rule="evenodd" d="M0 0V29.5687H20.3045C19.3716 28.2268 18.8235 26.5954 18.8235 24.8377C18.8235 20.2725 22.5179 16.5585 27.0588 16.5585C31.5998 16.5585 35.2941 20.2725 35.2941 24.8377C35.2941 26.5954 34.746 28.2268 33.8131 29.5687H40V0H0ZM4.70588 4.73099H25.8824V7.09649H4.70588V4.73099ZM4.70588 21.2894H15.2941V18.9239H4.70588V21.2894ZM18.8235 16.5585H4.70588V14.193H18.8235V16.5585ZM4.70588 11.8275H35.2941V9.46199H4.70588V11.8275Z" fill="#3E73CF"/>
<path opacity="0.5" d="M27.0587 33.1169C25.3659 33.1169 23.7909 32.6005 22.481 31.7165L18.9924 39.9999L27.0587 36.7562L35.1251 40L31.6364 31.7166C30.3265 32.6006 28.7515 33.1169 27.0587 33.1169Z" fill="#3E73CF"/>
</svg>
