<svg width="30" height="26" viewBox="0 0 30 26" fill="none" xmlns="http://www.w3.org/2000/svg">
<path fill-rule="evenodd" clip-rule="evenodd" d="M28.8281 18.9823H27.7734V16.6814C27.7734 16.046 27.2488 15.531 26.6016 15.531C25.9543 15.531 25.4297 16.046 25.4297 16.6814V18.9823H4.57031V4.02655H25.4297V10.9292C25.4297 11.5646 25.9543 12.0796 26.6016 12.0796C27.2488 12.0796 27.7734 11.5646 27.7734 10.9292V1.15044C27.7734 0.515003 27.2488 0 26.6016 0C25.9543 0 25.4297 0.515003 25.4297 1.15044V1.72566H4.57031V1.15044C4.57031 0.515003 4.04572 0 3.39844 0C2.75116 0 2.22656 0.515003 2.22656 1.15044V18.9823H1.17188C0.524597 18.9823 0 19.4973 0 20.1327C0 20.7682 0.524597 21.2832 1.17188 21.2832H2.00363C1.8457 21.6753 1.75781 22.102 1.75781 22.5487C1.75781 24.4518 3.33481 26 5.27344 26C6.17317 26 6.99463 25.6661 7.61719 25.1183C8.23975 25.6661 9.0612 26 9.96094 26C11.8996 26 13.4766 24.4518 13.4766 22.5487C13.4766 22.102 13.3887 21.6753 13.2307 21.2832H16.7693C16.6113 21.6753 16.5234 22.102 16.5234 22.5487C16.5234 24.4518 18.1007 26 20.0391 26C20.9388 26 21.7605 25.6661 22.3828 25.1183C23.0054 25.6661 23.8268 26 24.7266 26C26.6652 26 28.2422 24.4518 28.2422 22.5487C28.2422 22.102 28.1543 21.6753 27.9964 21.2832H28.8281C29.4754 21.2832 30 20.7682 30 20.1327C30 19.4973 29.4754 18.9823 28.8281 18.9823ZM5.27344 23.6991C4.6273 23.6991 4.10156 23.183 4.10156 22.5487C4.10156 21.9144 4.6273 21.3982 5.27344 21.3982C5.91957 21.3982 6.44531 21.9144 6.44531 22.5487C6.44531 23.183 5.91957 23.6991 5.27344 23.6991ZM8.78906 22.5487C8.78906 23.183 9.3148 23.6991 9.96094 23.6991C10.6071 23.6991 11.1328 23.183 11.1328 22.5487C11.1328 21.9144 10.6071 21.3982 9.96094 21.3982C9.3148 21.3982 8.78906 21.9144 8.78906 22.5487ZM20.0391 23.6991C19.3929 23.6991 18.8672 23.183 18.8672 22.5487C18.8672 21.9144 19.3929 21.3982 20.0391 21.3982C20.6852 21.3982 21.2109 21.9144 21.2109 22.5487C21.2109 23.183 20.6852 23.6991 20.0391 23.6991ZM23.5547 22.5487C23.5547 23.183 24.0804 23.6991 24.7266 23.6991C25.3727 23.6991 25.8984 23.183 25.8984 22.5487C25.8984 21.9144 25.3727 21.3982 24.7266 21.3982C24.0804 21.3982 23.5547 21.9144 23.5547 22.5487Z" fill="#1886C4"/>
<path opacity="0.5" fill-rule="evenodd" clip-rule="evenodd" d="M9.02344 7.47788C9.02344 6.84244 8.49884 6.32744 7.85156 6.32744C7.20428 6.32744 6.67969 6.84244 6.67969 7.47788V15.531C6.67969 16.1664 7.20428 16.6814 7.85156 16.6814C8.49884 16.6814 9.02344 16.1664 9.02344 15.531V7.47788ZM13.7109 7.47788C13.7109 6.84244 13.1863 6.32744 12.5391 6.32744C11.8918 6.32744 11.3672 6.84244 11.3672 7.47788V15.531C11.3672 16.1664 11.8918 16.6814 12.5391 16.6814C13.1863 16.6814 13.7109 16.1664 13.7109 15.531V7.47788ZM17.2266 6.32744C17.8738 6.32744 18.3984 6.84244 18.3984 7.47788V15.531C18.3984 16.1664 17.8738 16.6814 17.2266 16.6814C16.5793 16.6814 16.0547 16.1664 16.0547 15.531V7.47788C16.0547 6.84244 16.5793 6.32744 17.2266 6.32744ZM23.0859 7.47788C23.0859 6.84244 22.5613 6.32744 21.9141 6.32744C21.2668 6.32744 20.7422 6.84244 20.7422 7.47788V15.531C20.7422 16.1664 21.2668 16.6814 21.9141 16.6814C22.5613 16.6814 23.0859 16.1664 23.0859 15.531V7.47788Z" fill="#1886C4"/>
</svg>
