<svg width="25" height="30" viewBox="0 0 25 30" fill="none" xmlns="http://www.w3.org/2000/svg">
<path opacity="0.5" d="M7.14424 0C6.65105 0 6.25122 0.393573 6.25122 0.879035V1.75807C6.25122 2.72905 7.05083 3.51614 8.03725 3.51614H11.6093C12.5957 3.51614 13.3954 2.72905 13.3954 1.75807V0.879035C13.3954 0.393573 12.9954 0 12.5023 0H7.14424Z" fill="#3E73CF"/>
<path fill-rule="evenodd" clip-rule="evenodd" d="M9.11954 17.5073C9.45954 19.0414 10.2373 20.4414 11.3711 21.5564L18.1673 28.2463H0.893016C0.399297 28.2463 0 27.8532 0 27.3673V2.63709C0 2.1511 0.399297 1.75806 0.893016 1.75806H4.46508C4.46508 3.69715 6.06709 5.2742 8.03715 5.2742H11.6092C13.5793 5.2742 15.1813 3.69715 15.1813 1.75806H18.7533C19.2469 1.75806 19.6464 2.1511 19.6464 2.63709V19.7581L16.4222 16.5845C15.2893 15.4692 13.8662 14.7028 12.2973 14.3663C11.4015 14.1807 10.4745 14.4604 9.84229 15.0804C9.19271 15.7201 8.9232 16.6283 9.11954 17.5073ZM15.1813 7.09087H4.46508C3.97136 7.09087 3.57207 7.48392 3.57207 7.96991C3.57207 8.45578 3.97136 8.84894 4.46508 8.84894H15.1813C15.6749 8.84894 16.0743 8.45578 16.0743 7.96991C16.0743 7.48392 15.6749 7.09087 15.1813 7.09087ZM4.46508 10.607H15.1813C15.6749 10.607 16.0743 11.0001 16.0743 11.486C16.0743 11.9719 15.6749 12.3651 15.1813 12.3651H4.46508C3.97136 12.3651 3.57207 11.9719 3.57207 11.486C3.57207 11.0001 3.97136 10.607 4.46508 10.607ZM4.46508 22.9721H8.03715C8.53075 22.9721 8.93016 22.5789 8.93016 22.0931C8.93016 21.6071 8.53075 21.214 8.03715 21.214H4.46508C3.97136 21.214 3.57207 21.6071 3.57207 22.0931C3.57207 22.5789 3.97136 22.9721 4.46508 22.9721Z" fill="#3E73CF"/>
<path opacity="0.5" d="M24.4781 29.4829C25.1711 28.7991 25.1775 27.6904 24.4765 26.9986L16.0699 18.7235C15.2519 19.5139 14.3574 20.3807 13.5269 21.1924L21.9526 29.4862C22.6439 30.165 23.7696 30.1786 24.4781 29.4829Z" fill="#3E73CF"/>
<path opacity="0.5" d="M11.1051 16.3236C10.8897 16.5356 10.7989 16.8403 10.8644 17.133C11.0938 18.1688 11.5921 19.1178 12.2899 19.9234C13.1038 19.128 13.9788 18.2799 14.7813 17.5046C13.959 16.8097 12.9883 16.3143 11.9265 16.0866C11.6344 16.0256 11.3205 16.1123 11.1051 16.3236Z" fill="#3E73CF"/>
</svg>
