<svg width="33" height="40" viewBox="0 0 33 40" fill="none" xmlns="http://www.w3.org/2000/svg">
<ellipse cx="13.6807" cy="7.58667" rx="7.3993" ry="7.58667" fill="#3E73CF"/>
<path d="M21.3267 24.0933C22.354 23.6667 23.4463 23.4267 24.6036 23.3866C26.8699 19.4619 18.9109 16.1829 15.9431 16.4399C15.943 16.4399 11.4176 16.4399 11.4176 16.4399C5.12359 16.4399 0 21.7066 0 28.16V29.72C0 33.0266 2.61383 35.7066 5.8388 35.7066H13.6803C14.1614 35.7066 14.6035 35.5733 14.9807 35.32C14.9196 34.8214 14.875 34.3116 14.8766 33.7866C14.8221 29.5467 17.5143 25.5685 21.3267 24.0933Z" fill="#3E73CF"/>
<path opacity="0.5" d="M31.6778 27.8667C30.7546 27.36 29.5712 27.5201 28.804 28.3334L23.5113 33.96L21.7298 32.16C20.7675 31.2 19.22 31.2267 18.2837 32.2133C17.3344 33.2 17.3604 34.7867 18.3227 35.7467L21.8728 39.2933C22.3279 39.7467 22.9392 40 23.5763 40H23.6024C24.2526 39.9867 24.8767 39.72 25.3189 39.24L32.315 31.8134C32.6531 31.44 32.8743 31 32.9652 30.5467C32.9652 30.5333 32.9652 30.5333 32.9652 30.5201V30.5067C33.0953 29.72 32.8612 28.88 32.25 28.28C32.081 28.1067 31.886 27.9734 31.6778 27.8667Z" fill="#3E73CF"/>
</svg>
