<svg width="974" height="154" viewBox="0 0 974 154" fill="none" xmlns="http://www.w3.org/2000/svg">
<path d="M804.099 2H792C786.477 2 782 6.47715 782 12V103" stroke="#D4D9DB" stroke-width="3" stroke-linecap="round" stroke-dasharray="0.1 8"/>
<path d="M544.099 2H532C526.477 2 522 6.47715 522 12V103" stroke="#D4D9DB" stroke-width="3" stroke-linecap="round" stroke-dasharray="0.1 8"/>
<path d="M284.099 2H272C266.477 2 262 6.47715 262 12V103" stroke="#D4D9DB" stroke-width="3" stroke-linecap="round" stroke-dasharray="0.1 8"/>
<path d="M24.0987 2H12C6.47716 2 2 6.47715 2 12V97C2 102.523 6.47715 107 12 107H972" stroke="#D4D9DB" stroke-width="3" stroke-linecap="round" stroke-dasharray="0.1 8"/>
<path d="M675.099 152L663 152C657.477 152 653 147.523 653 142V111" stroke="#D4D9DB" stroke-width="3" stroke-linecap="round" stroke-dasharray="0.1 8"/>
<path d="M415.099 152L403 152C397.477 152 393 147.523 393 142V111" stroke="#D4D9DB" stroke-width="3" stroke-linecap="round" stroke-dasharray="0.1 8"/>
<path d="M155.099 152L143 152C137.477 152 133 147.523 133 142V111" stroke="#D4D9DB" stroke-width="3" stroke-linecap="round" stroke-dasharray="0.1 8"/>
</svg>
