<svg width="40" height="40" viewBox="0 0 40 40" fill="none" xmlns="http://www.w3.org/2000/svg">
<path fill-rule="evenodd" clip-rule="evenodd" d="M20.5739 0.686784L20.3531 0.491721L20.0928 0.316003C19.1959 -0.205239 18.0273 -0.0816456 17.2593 0.686784C16.3441 1.60234 16.3441 3.08684 17.2593 4.00248L27.203 13.9496L27.4238 14.1447C28.3432 14.8598 29.6726 14.7948 30.5175 13.9496C31.4328 13.0339 31.4328 11.5496 30.5175 10.6339L20.5739 0.686784ZM15.6013 5.66059L25.5448 15.6076L15.6013 25.5545L5.65785 15.6076L15.6013 5.66059ZM3.78028 17.0703C2.86089 16.3552 1.53144 16.4202 0.686541 17.2653C-0.228847 18.1809 -0.228847 19.6654 0.686541 20.5811L10.6302 30.5283L10.851 30.7233C11.7705 31.4384 13.0998 31.3734 13.9448 30.5283C14.86 29.6127 14.86 28.1282 13.9448 27.2126L4.00106 17.2653L3.78028 17.0703ZM27.203 20.5811C27.7339 21.1122 27.9269 21.8296 27.8346 22.5201L27.7776 22.8138L35.6456 30.5282L30.6737 35.5018L22.8058 27.7874C22.0307 27.985 21.1806 27.8195 20.5739 27.2126C19.7289 26.3673 19.6639 25.0374 20.3789 24.1177L20.5739 23.8968L23.8884 20.5811C24.8037 19.6654 26.2876 19.6654 27.203 20.5811ZM37.3029 32.1861L38.9703 33.9964C40.3432 35.3698 40.3432 37.5965 38.9703 38.97C37.6832 40.2575 35.6464 40.338 34.2655 39.2114L33.9985 38.97L32.3311 37.1597L37.3029 32.1861Z" fill="#3E73CF"/>
<path opacity="0.5" d="M17.5781 32.9663C20.266 32.9663 22.5366 34.7867 23.2237 37.2597L23.3189 37.6555H24.6094C25.2571 37.6555 25.7812 38.1798 25.7812 38.8277C25.7812 39.4037 25.3671 39.882 24.8201 39.9812L24.6094 40H1.17193C0.5242 40 6.10352e-05 39.4757 6.10352e-05 38.8277C6.10352e-05 38.2518 0.414196 37.7735 0.961149 37.6743L1.17193 37.6555H2.4624C2.97963 35.1169 5.14166 33.1696 7.7824 32.9813L8.20316 32.9663H17.5781Z" fill="#3E73CF"/>
</svg>
