<svg width="32" height="30" viewBox="0 0 32 30" fill="none" xmlns="http://www.w3.org/2000/svg">
<path fill-rule="evenodd" clip-rule="evenodd" d="M16.8671 16.5095C16.7302 16.5095 16.5981 16.4339 16.5319 16.3026L12.7194 8.72536C12.4992 8.28777 13.1537 7.95153 13.3824 8.37427C14.4843 7.40807 20.0965 4.50308 20.2944 4.89517L24.1073 12.4724C24.2341 12.7248 24.0467 13.0178 23.7724 13.0178C23.6505 13.0178 18.4307 15.5732 17.232 16.0456C17.2875 16.2752 17.1123 16.5091 16.8671 16.5091V16.5095Z" fill="white"/>
<path fill-rule="evenodd" clip-rule="evenodd" d="M12.1386 9.3391C12.1384 9.3391 12.1384 9.3391 12.1386 9.3391C11.8172 9.3391 11.5278 9.1612 11.3837 8.87462L10.6581 7.43265C10.4483 7.0165 10.6159 6.50689 11.0312 6.29627L19.3489 2.09054C19.7599 1.88237 20.2702 2.04391 20.4818 2.46476L21.2077 3.9071C21.4171 4.32344 21.2494 4.83325 20.8339 5.04311L12.5166 9.24884C12.3999 9.30788 12.2689 9.33891 12.1384 9.33891L12.1386 9.3391Z" fill="white"/>
<path fill-rule="evenodd" clip-rule="evenodd" d="M17.0988 19.1976C16.7775 19.1976 16.488 19.0193 16.3443 18.7331L15.6187 17.291C15.4094 16.875 15.5771 16.3646 15.9922 16.1546L24.3097 11.9492C24.72 11.7413 25.2306 11.9019 25.4426 12.3235L26.1686 13.7658C26.3772 14.1803 26.2086 14.6929 25.7951 14.9022L17.4776 19.1072C17.3605 19.1662 17.2294 19.1974 17.0988 19.1974V19.1976Z" fill="white"/>
<path fill-rule="evenodd" clip-rule="evenodd" d="M14.6248 16.0417C14.3076 16.0417 14.014 15.8638 13.8696 15.5767L11.7323 11.3292C11.523 10.9127 11.6903 10.4031 12.1058 10.1928L13.5182 9.47881C13.887 9.29264 16.8562 15.0137 16.4156 15.2363C15.989 15.452 14.9741 16.0417 14.6248 16.0417V16.0417Z" fill="white"/>
<path fill-rule="evenodd" clip-rule="evenodd" d="M1.61742 20.7334C-0.0876117 20.7334 -0.623565 18.4225 0.885059 17.6596L12.4067 11.8338C12.8471 11.6114 14.3058 14.5113 13.8658 14.7339L2.34416 20.5599C2.11098 20.6776 1.86223 20.7333 1.61742 20.7333V20.7334Z" fill="white"/>
<path opacity="0.5" fill-rule="evenodd" clip-rule="evenodd" d="M14.4984 24.0617V21.9403C14.4984 21.3532 14.975 20.8754 15.5607 20.8754H28.6185C29.2042 20.8754 29.6808 21.3532 29.6808 21.9403V24.0617H30.9377C31.5234 24.0617 32 24.5395 32 25.1266V27.6239C32 27.8315 31.832 28 31.625 28V27.9998H12.554C12.3469 27.9998 12.179 27.8311 12.179 27.6239V25.1266C12.179 24.5395 12.6556 24.0617 13.2411 24.0617H14.4984Z" fill="white"/>
</svg>
