<svg width="26" height="23" viewBox="0 0 26 23" fill="none" xmlns="http://www.w3.org/2000/svg">
<path opacity="0.5" d="M19.0012 20.9779H4.03239V17.7076C4.03239 16.5926 4.94361 15.6854 6.06364 15.6854H13.9532C14.8922 15.6854 15.7036 16.3183 15.9263 17.2244C16.0596 17.7668 16.6092 18.0989 17.1543 17.9662C17.6991 17.8335 18.0327 17.2862 17.8994 16.7438C17.4536 14.93 15.8309 13.6632 13.9532 13.6632H6.06364C3.82357 13.6632 2.00114 15.4775 2.00114 17.7076V20.9778H1.01562C0.454695 20.9778 0 21.4305 0 21.9889C0 22.5474 0.454695 23 1.01562 23H19.0012C19.5621 23 20.0168 22.5474 20.0168 21.9889C20.0168 21.4305 19.5621 20.9779 19.0012 20.9779Z" fill="white"/>
<path fill-rule="evenodd" clip-rule="evenodd" d="M22.804 2.21207H18.1163C17.5553 2.21207 17.1007 2.66473 17.1007 3.22316V4.38268H13.9876V2.01586C14.4949 1.95949 14.8893 1.53115 14.8893 1.01109C14.8893 0.452666 14.4346 0 13.8737 0H6.21051C5.64958 0 5.19489 0.452666 5.19489 1.01109C5.19489 1.5312 5.5893 1.95955 6.09666 2.01586V8.77162C5.58935 8.82799 5.19489 9.25634 5.19489 9.77639C5.19489 10.3348 5.64958 10.7875 6.21051 10.7875H13.8737C14.4346 10.7875 14.8893 10.3348 14.8893 9.77639C14.8893 9.25629 14.4949 8.82794 13.9876 8.77162V6.40486H17.1007V7.56433C17.1007 8.12275 17.5553 8.57542 18.1163 8.57542H22.804C24.5663 8.57542 26 7.14816 26 5.39377C26 3.63937 24.5664 2.21207 22.804 2.21207ZM8.12791 8.7653V2.02213H11.9564V8.7653H8.12791ZM19.1319 6.55319H22.804C23.4463 6.55319 23.9688 6.03313 23.9688 5.39377C23.9688 4.7544 23.4462 4.23425 22.804 4.23425H19.1319V6.55319Z" fill="white"/>
</svg>
