<svg width="23" height="26" viewBox="0 0 23 26" fill="none" xmlns="http://www.w3.org/2000/svg">
<path fill-rule="evenodd" clip-rule="evenodd" d="M9.76891 23.9688H4.01001C2.90451 23.9688 1.99952 23.0575 1.99952 21.9375V6.60156C1.99952 5.4816 2.90451 4.57031 4.01001 4.57031H7.16241V5.07812C7.16241 6.75827 8.51148 8.125 10.1699 8.125C11.8282 8.125 13.1774 6.75827 13.1774 5.07812V4.57031H16.3353C17.4408 4.57031 18.3403 5.4816 18.3403 6.60156V14.4219C18.3403 14.9828 18.7891 15.4375 19.3428 15.4375C19.8963 15.4375 20.3453 14.9828 20.3453 14.4219V6.60156C20.3453 4.36143 18.5463 2.53906 16.3353 2.53906H13.1774V1.01562C13.1774 0.454651 12.7284 0 12.1749 0H8.16491C7.61118 0 7.16241 0.454651 7.16241 1.01562V2.53906H4.01001C1.79883 2.53906 0 4.36143 0 6.60156V21.9375C0 24.1776 1.79883 26 4.01001 26H9.76891C10.3224 26 10.7714 25.5453 10.7714 24.9844C10.7714 24.4234 10.3224 23.9688 9.76891 23.9688ZM9.16741 2.03125H11.1724V5.07812C11.1724 5.63811 10.7227 6.09375 10.1699 6.09375C9.61697 6.09375 9.16741 5.63811 9.16741 5.07812V2.03125ZM17.8512 24.9794L22.8126 17.9585C23.1349 17.5023 23.0311 16.8679 22.581 16.5414C22.1306 16.2149 21.5045 16.32 21.1824 16.7761L16.2409 23.7686C16.106 23.9271 15.9368 23.9614 15.8462 23.9676C15.7526 23.9735 15.5719 23.9616 15.4166 23.8118L12.2176 20.7001C11.8182 20.3113 11.1834 20.3246 10.8002 20.7291C10.4166 21.1337 10.4295 21.7766 10.8288 22.165L14.0311 25.2801C14.5106 25.7427 15.1509 26 15.8096 26C15.8662 26 15.9229 25.998 15.9797 25.9942C16.6971 25.9458 17.367 25.5924 17.8175 25.0244C17.8291 25.0098 17.8402 24.9947 17.8512 24.9794Z" fill="white"/>
<path opacity="0.5" fill-rule="evenodd" clip-rule="evenodd" d="M5.90927 13.1523C6.4628 13.1523 6.91177 12.6977 6.91177 12.1367C6.91177 11.5757 6.4628 11.1211 5.90927 11.1211H5.40802C4.85429 11.1211 4.40552 11.5757 4.40552 12.1367C4.40552 12.6977 4.85429 13.1523 5.40802 13.1523H5.90927ZM15.032 13.1523C15.5856 13.1523 16.0345 12.6977 16.0345 12.1367C16.0345 11.5757 15.5856 11.1211 15.032 11.1211H9.41803C8.8643 11.1211 8.41553 11.5757 8.41553 12.1367C8.41553 12.6977 8.8643 13.1523 9.41803 13.1523H15.032ZM6.91177 16.1992C6.91177 16.7602 6.4628 17.2148 5.90927 17.2148H5.40802C4.85429 17.2148 4.40552 16.7602 4.40552 16.1992C4.40552 15.6382 4.85429 15.1836 5.40802 15.1836H5.90927C6.4628 15.1836 6.91177 15.6382 6.91177 16.1992ZM15.032 17.2148C15.5856 17.2148 16.0345 16.7602 16.0345 16.1992C16.0345 15.6382 15.5856 15.1836 15.032 15.1836H9.41803C8.8643 15.1836 8.41553 15.6382 8.41553 16.1992C8.41553 16.7602 8.8643 17.2148 9.41803 17.2148H15.032Z" fill="white"/>
</svg>
