<svg width="26" height="30" viewBox="0 0 26 30" fill="none" xmlns="http://www.w3.org/2000/svg">
<path fill-rule="evenodd" clip-rule="evenodd" d="M19.8581 4.87085C20.5104 4.87085 21.0392 5.3955 21.0392 6.04272V10.783C21.0392 11.4302 20.5104 11.9549 19.8581 11.9549H6.14182C5.48949 11.9549 4.96069 11.4302 4.96069 10.783V6.04272C4.96069 5.3955 5.48949 4.87085 6.14182 4.87085H19.8581ZM7.32296 9.61114H18.6769V7.2146H7.32296V9.61114Z" fill="#1886C4"/>
<path d="M24.8189 20.6827C25.4712 20.6827 26 20.158 26 19.5108V4.6875C26 2.10281 23.8806 0 21.2755 0H4.72452C2.11942 0 0 2.10281 0 4.6875V25.3125C0 27.8972 2.11942 30 4.72452 30H21.2755C23.8806 30 26 27.8972 26 25.3116C26 24.6643 25.4712 24.1402 24.8189 24.1402C24.1665 24.1402 23.6377 24.6653 23.6377 25.3125C23.6377 26.6048 22.578 27.6562 21.2755 27.6562H4.72452C3.42197 27.6562 2.36226 26.6048 2.36226 25.3125V4.6875C2.36226 3.39516 3.42197 2.34375 4.72452 2.34375H21.2755C22.578 2.34375 23.6377 3.39516 23.6377 4.6875V19.5108C23.6377 20.158 24.1665 20.6827 24.8189 20.6827Z" fill="#1886C4"/>
<path opacity="0.5" fill-rule="evenodd" clip-rule="evenodd" d="M6.25559 13.9529H7.19802C7.85036 13.9529 8.37915 14.4775 8.37915 15.1248C8.37915 15.772 7.85036 16.2966 7.19802 16.2966H6.25559C5.60326 16.2966 5.07446 15.772 5.07446 15.1248C5.07446 14.4775 5.60326 13.9529 6.25559 13.9529ZM6.25559 18.3692H7.19802C7.85036 18.3692 8.37915 18.8939 8.37915 19.5411C8.37915 20.1883 7.85036 20.713 7.19802 20.713H6.25559C5.60326 20.713 5.07446 20.1883 5.07446 19.5411C5.07446 18.8939 5.60326 18.3692 6.25559 18.3692ZM7.19802 22.7855H6.25559C5.60326 22.7855 5.07446 23.3102 5.07446 23.9574C5.07446 24.6046 5.60326 25.1293 6.25559 25.1293H7.19802C7.85036 25.1293 8.37915 24.6046 8.37915 23.9574C8.37915 23.3102 7.85036 22.7855 7.19802 22.7855ZM12.5289 13.9529H13.4712C14.1235 13.9529 14.6524 14.4775 14.6524 15.1248C14.6524 15.772 14.1236 16.2966 13.4712 16.2966H12.5289C11.8765 16.2966 11.3477 15.772 11.3477 15.1248C11.3477 14.4775 11.8765 13.9529 12.5289 13.9529ZM13.4712 18.3692H12.5289C11.8765 18.3692 11.3477 18.8939 11.3477 19.5411C11.3477 20.1883 11.8765 20.713 12.5289 20.713H13.4712C14.1236 20.713 14.6524 20.1883 14.6524 19.5411C14.6524 18.8939 14.1235 18.3692 13.4712 18.3692ZM12.5289 22.7855H13.4712C14.1235 22.7855 14.6524 23.3102 14.6524 23.9574C14.6524 24.6046 14.1236 25.1293 13.4712 25.1293H12.5289C11.8765 25.1293 11.3477 24.6046 11.3477 23.9574C11.3477 23.3102 11.8765 22.7855 12.5289 22.7855ZM20.9255 15.1248C20.9255 14.4775 20.3967 13.9529 19.7444 13.9529H18.802C18.1496 13.9529 17.6208 14.4775 17.6208 15.1248C17.6208 15.772 18.1496 16.2966 18.802 16.2966H19.7444C20.3967 16.2966 20.9255 15.772 20.9255 15.1248ZM18.0921 23.9574V19.7138C18.0921 19.0665 18.6209 18.5419 19.2733 18.5419C19.9256 18.5419 20.4544 19.0665 20.4544 19.7138V23.9574C20.4544 24.6046 19.9256 25.1293 19.2733 25.1293C18.6209 25.1293 18.0921 24.6046 18.0921 23.9574Z" fill="#1886C4"/>
</svg>
