<svg width="40" height="40" viewBox="0 0 40 40" fill="none" xmlns="http://www.w3.org/2000/svg">
<path opacity="0.5" fill-rule="evenodd" clip-rule="evenodd" d="M7.10938 39.9999H0V21.1717H40V39.9999H32.8906V37.6561H7.10938V39.9999ZM35.2344 25.9374H32.8906V32.9686H35.2344V25.9374ZM28.2031 25.9374H30.5469V32.9686H28.2031V25.9374ZM25.8594 25.9374H23.5156V32.9686H25.8594V25.9374ZM18.8281 25.9374H21.1719V32.9686H18.8281V25.9374ZM16.4844 25.9374H14.1406V32.9686H16.4844V25.9374ZM9.45312 25.9374H11.7969V32.9686H9.45312V25.9374ZM7.10938 25.9374H4.76562V32.9686H7.10938V25.9374Z" fill="#3E73CF"/>
<path fill-rule="evenodd" clip-rule="evenodd" d="M0 18.8281V0H40V18.8281H32.8906V16.4844H7.10938V18.8281H0ZM35.2344 4.6875H32.8906V11.7188H35.2344V4.6875ZM7.10938 11.7188H4.76562V4.6875H7.10938V11.7188ZM9.45312 11.7188H11.7969V4.6875H9.45312V11.7188ZM16.4844 11.7188H14.1406V4.6875H16.4844V11.7188ZM18.8281 11.7188H21.1719V4.6875H18.8281V11.7188ZM25.8594 11.7188H23.5156V4.6875H25.8594V11.7188ZM28.2031 11.7188H30.5469V4.6875H28.2031V11.7188Z" fill="#3E73CF"/>
</svg>
