<svg width="35" height="40" viewBox="0 0 35 40" fill="none" xmlns="http://www.w3.org/2000/svg">
<ellipse cx="17.5001" cy="28.8672" rx="3.69444" ry="3.71094" fill="#3E73CF"/>
<ellipse opacity="0.5" cx="28.3888" cy="28.8672" rx="3.69444" ry="3.71094" fill="#3E73CF"/>
<path fill-rule="evenodd" clip-rule="evenodd" d="M25.2779 3.125C25.9222 3.125 26.4446 3.64969 26.4446 4.29688V9.94508C26.4446 12.6737 25.6396 15.3102 24.1167 17.5697C22.5937 19.8292 20.4556 21.5591 17.9334 22.5725C17.7943 22.6284 17.6473 22.6563 17.5001 22.6563C17.353 22.6563 17.2059 22.6284 17.0668 22.5725C14.5446 21.5591 12.4065 19.8291 10.8836 17.5697C9.36066 15.3102 8.55566 12.6737 8.55566 9.94508V4.29688C8.55566 3.64969 9.07802 3.125 9.72233 3.125C10.7945 3.125 11.6668 2.24883 11.6668 1.17188C11.6668 0.524688 12.1891 0 12.8334 0H22.1668C22.8111 0 23.3334 0.524688 23.3334 1.17188C23.3334 2.24883 24.2057 3.125 25.2779 3.125ZM17.0877 13.5852L21.4874 9.16578C21.943 8.70813 21.943 7.96617 21.4875 7.50859C21.0319 7.05094 20.2932 7.05094 19.8376 7.50859L16.2628 11.0994L15.1628 9.99445C14.7073 9.5368 13.9685 9.5368 13.5129 9.99445C13.0573 10.4521 13.0573 11.1941 13.5129 11.6517L15.4378 13.5852C15.6656 13.8141 15.9642 13.9284 16.2627 13.9284C16.5613 13.9284 16.8598 13.814 17.0877 13.5852Z" fill="#3E73CF"/>
<path d="M21.8497 33.0522C20.7518 34.203 19.2083 34.9218 17.5 34.9218C15.7917 34.9218 14.2483 34.203 13.1504 33.0522C11.7658 34.2704 10.8889 36.0571 10.8889 38.0468V39.9999H24.1111V38.0468C24.1111 36.0571 23.2343 34.2704 21.8497 33.0522Z" fill="#3E73CF"/>
<path opacity="0.5" d="M32.7385 33.0522C31.6406 34.203 30.0972 34.9218 28.3889 34.9218C27.3806 34.9218 26.4307 34.6698 25.595 34.2279L25.5959 34.236C26.1481 35.4165 26.4445 36.7152 26.4445 38.0468V39.9999H33.8333C34.4777 39.9999 35 39.4752 35 38.828V38.0468C35 36.0571 34.1231 34.2704 32.7385 33.0522Z" fill="#3E73CF"/>
<path opacity="0.5" d="M2.26147 33.0522C0.876867 34.2704 0 36.0571 0 38.0468V38.828C0 39.4752 0.522355 39.9999 1.16667 39.9999H8.55556V38.0468C8.55556 36.714 8.85243 35.414 9.40567 34.2326L9.40606 34.229C8.57002 34.6705 7.61942 34.9218 6.61111 34.9218C4.9028 34.9218 3.35938 34.203 2.26147 33.0522V33.0522Z" fill="#3E73CF"/>
<ellipse opacity="0.5" cx="6.61119" cy="28.8672" rx="3.69444" ry="3.71094" fill="#3E73CF"/>
</svg>
