<svg width="30" height="40" viewBox="0 0 30 40" fill="none" xmlns="http://www.w3.org/2000/svg">
<path fill-rule="evenodd" clip-rule="evenodd" d="M3.49158 0H26.5084C28.4336 0 30 1.57711 30 3.51562V36.4844C30 38.4229 28.4337 40 26.5084 40H3.49158C1.56632 40 0 38.4229 0 36.4844V3.51562C0 1.57711 1.56632 0 3.49158 0ZM5.67133 5.96484C5.15923 5.96484 4.74024 6.38672 4.74024 6.90234V10.4765C4.74024 10.9921 5.15923 11.414 5.67133 11.414H24.6402C25.1523 11.414 25.5713 10.9921 25.5712 10.4765V6.90234C25.5712 6.38672 25.1522 5.96484 24.6401 5.96484H5.67133ZM16.0884 19.7184H13.9118C13.2689 19.7184 12.7479 19.1937 12.7479 18.5465V16.9541C12.7479 16.3069 13.269 15.7822 13.9118 15.7822H16.0884C16.7312 15.7822 17.2523 16.3069 17.2523 16.9541V18.5465C17.2523 19.1937 16.7312 19.7184 16.0884 19.7184ZM17.2523 26.0951V24.5027C17.2523 23.8555 16.7312 23.3308 16.0884 23.3308H13.9118C13.2689 23.3308 12.7479 23.8554 12.7479 24.5027V26.0951C12.7479 26.7423 13.269 27.267 13.9118 27.267H16.0884C16.7312 27.267 17.2523 26.7423 17.2523 26.0951ZM8.933 33.6437C8.933 34.2909 8.4119 34.8155 7.76914 34.8155H5.59249C4.94973 34.8155 4.42864 34.2909 4.42864 33.6437V32.0513C4.42864 31.4041 4.94973 30.8794 5.59249 30.8794H7.76914C8.4119 30.8794 8.933 31.404 8.933 32.0513V33.6437ZM7.76914 27.267C8.4119 27.267 8.933 26.7423 8.933 26.0951V24.5027C8.933 23.8555 8.4119 23.3308 7.76914 23.3308H5.59249C4.94973 23.3308 4.42864 23.8555 4.42864 24.5027V26.0951C4.42864 26.7423 4.94973 27.267 5.59249 27.267H7.76914ZM8.933 18.5465C8.933 19.1937 8.4119 19.7184 7.76914 19.7184H5.59249C4.94973 19.7184 4.42864 19.1937 4.42864 18.5465V16.9541C4.42864 16.3069 4.94973 15.7822 5.59249 15.7822H7.76914C8.4119 15.7822 8.933 16.3069 8.933 16.9541V18.5465ZM24.4074 34.8155C25.0502 34.8155 25.5713 34.2909 25.5713 33.6437V32.0513C25.5713 31.4041 25.0502 30.8794 24.4074 30.8794H13.9117C13.2688 30.8794 12.7478 31.404 12.7478 32.0513V33.6437C12.7478 34.2909 13.2689 34.8155 13.9117 34.8155H24.4074ZM25.5713 26.0951C25.5713 26.7423 25.0502 27.267 24.4074 27.267H22.2308C21.588 27.267 21.0669 26.7423 21.0669 26.0951V24.5027C21.0669 23.8555 21.588 23.3308 22.2308 23.3308H24.4074C25.0502 23.3308 25.5713 23.8555 25.5713 24.5027V26.0951ZM24.4074 19.7184C25.0502 19.7184 25.5713 19.1937 25.5713 18.5465V16.9541C25.5713 16.3069 25.0502 15.7822 24.4074 15.7822H22.2308C21.588 15.7822 21.0669 16.3069 21.0669 16.9541V18.5465C21.0669 19.1937 21.588 19.7184 22.2308 19.7184H24.4074Z" fill="#3E73CF"/>
</svg>
