<svg width="50" height="32" viewBox="0 0 50 32" fill="none" xmlns="http://www.w3.org/2000/svg">
<path fill-rule="evenodd" clip-rule="evenodd" d="M48.125 12.6997H49.4531C49.6094 12.6997 49.7656 12.6997 49.9219 12.7796V9.74441C49.9219 9.42492 49.8438 9.1853 49.7656 8.94569L46.875 1.51757C46.4844 0.559105 45.625 0 44.6875 0H40.7812C39.8438 0 39.1406 0.71885 39.1406 1.67732V13.6581C39.1406 14.1374 38.75 14.5367 38.2812 14.5367H1.64062C0.703125 14.5367 0 15.2556 0 16.2141V18.8498C0 19.7284 0.703125 20.4473 1.5625 20.4473H6.17188C6.5625 17.8914 8.75 15.8946 11.3281 15.8946C13.9062 15.8946 16.0938 17.8914 16.4844 20.4473H35.7812C36.1719 17.8914 38.3594 15.8946 40.9375 15.8946C43.5156 15.8946 45.7031 17.8914 46.0938 20.4473H48.4375C49.2969 20.4473 50 19.7284 50 18.8498V17.5719C49.8438 17.6518 49.6875 17.6518 49.5312 17.6518H49.4531C48.3594 17.6518 47.4219 17.2524 46.6406 16.4537C46.0156 15.8147 45.8594 14.9361 46.1719 14.1374C46.4844 13.2588 47.2656 12.6997 48.125 12.6997ZM8.82812 18.6901C9.53125 18.0511 10.3906 17.6518 11.4062 17.6518C13.3594 17.6518 14.9219 19.2492 15 21.246C15 23.2428 13.3594 24.9201 11.4062 24.9201C9.45312 24.9201 7.8125 23.2428 7.8125 21.246C7.8125 20.2875 8.20312 19.3291 8.82812 18.6901ZM37.4219 21.3259C37.4219 19.3291 39.0625 17.6518 41.0156 17.6518C42.9688 17.6518 44.6094 19.2492 44.6094 21.3259C44.6094 23.3227 42.9688 25 41.0156 25C39.0625 25 37.4219 23.3227 37.4219 21.3259ZM41.7188 14.8562C42.1875 14.8562 42.5781 14.4569 42.5781 13.9776V12.3802C42.5781 11.901 42.1875 11.5016 41.7188 11.5016C41.25 11.5016 40.8594 11.901 40.8594 12.3802V13.9776C40.8594 14.4569 41.25 14.8562 41.7188 14.8562ZM43.3594 10.3834C42.0312 10.3834 40.9375 9.26518 40.9375 7.90735V3.99361C40.9375 2.63578 42.0312 1.51757 43.3594 1.51757H45.3906C45.8594 1.51757 46.25 1.91693 46.25 2.39617C46.25 2.8754 45.8594 3.27476 45.3906 3.27476H43.3594C42.8906 3.27476 42.5781 3.59425 42.5781 4.07348V7.98722C42.5781 8.46645 42.8906 8.78594 43.3594 8.78594H48.2812C48.75 8.78594 49.1406 9.1853 49.1406 9.66454C49.1406 10.1438 48.75 10.5431 48.2812 10.5431H43.3594V10.3834ZM48.2031 14.377H49.5312C49.7656 14.377 50 14.6166 50 14.8562V15.4153C50 15.655 49.8438 15.8946 49.5312 15.8946H49.4531C48.8281 15.8946 48.2812 15.655 47.8125 15.1757C47.6562 15.016 47.6562 14.7764 47.7344 14.6965C47.8125 14.5367 47.9688 14.377 48.2031 14.377Z" fill="#3E73CF"/>
<path opacity="0.5" fill-rule="evenodd" clip-rule="evenodd" d="M23.6719 6.31009C27.5781 6.07048 30.7812 6.70945 33.5156 8.14715C33.6719 8.3069 33.75 8.38677 33.6719 8.62639V11.0226C33.6719 11.2622 33.5156 11.4219 33.2812 11.4219H31.875C31.875 9.42511 30.3125 7.82766 28.3594 7.82766C26.4062 7.82766 24.8438 9.42511 24.8438 11.4219V11.6615H13.0469V11.4219C13.0469 9.42511 11.4844 7.82766 9.53125 7.82766C7.57812 7.82766 6.01562 9.42511 6.01562 11.4219V11.6615H5.3125L2.5 10.2238C2.34375 10.2238 2.1875 10.0641 2.1875 9.90434L2.03125 8.866C2.03125 8.70626 2.10938 8.54651 2.1875 8.46664C2.5 8.14715 2.8125 7.74779 2.89062 7.26856L3.125 6.15035C3.125 5.9906 3.28125 5.83086 3.51562 5.83086H4.60938C4.92188 5.83086 5.23438 5.75099 5.46875 5.67111C6.79688 5.11201 7.8125 4.63278 8.75 4.15354C8.83461 4.11338 8.91782 4.07381 8.99975 4.03486C11.0361 3.06661 12.2842 2.47314 14.6875 2.39635C17.6347 1.99989 18.811 3.02036 21.3504 5.22333L21.4062 5.27175L22.1875 5.83086C22.5781 6.15035 23.125 6.31009 23.6719 6.31009ZM9.53125 9.50498C8.51562 9.50498 7.65625 10.3836 7.65625 11.4219C7.65625 11.6615 7.73438 11.9011 7.8125 12.1408C8.125 12.8596 8.75 13.3388 9.53125 13.3388C10.5469 13.3388 11.4062 12.4603 11.4062 11.4219C11.4062 10.3836 10.5469 9.50498 9.53125 9.50498ZM28.3594 9.50498C27.3438 9.50498 26.4844 10.3836 26.4844 11.4219C26.4844 12.4603 27.3438 13.3388 28.3594 13.3388C29.375 13.3388 30.2344 12.4603 30.2344 11.4219C30.2344 10.3836 29.375 9.50498 28.3594 9.50498Z" fill="#3E73CF"/>
</svg>
