<svg width="30" height="25" viewBox="0 0 30 25" fill="none" xmlns="http://www.w3.org/2000/svg">
<path d="M28.8281 0C28.1808 0 27.6562 0.532924 27.6562 1.19048V1.78571H2.34375V1.19048C2.34375 0.532924 1.81915 0 1.17188 0C0.524597 0 0 0.532924 0 1.19048V23.8095C0 24.4671 0.524597 25 1.17188 25H7.91016C8.55743 25 9.08203 24.4671 9.08203 23.8095V23.2143H11.6016V23.8095C11.6016 24.4671 12.1262 25 12.7734 25H17.2266C17.8738 25 18.3984 24.4671 18.3984 23.8095V23.2143H20.918V23.8095C20.918 24.4671 21.4426 25 22.0898 25H28.8281C29.4754 25 30 24.4671 30 23.8095V19.881C30 19.2234 29.4754 18.6905 28.8281 18.6905C28.1808 18.6905 27.6562 19.2234 27.6562 19.881V22.619H23.2617V22.0238C23.2617 21.3663 22.7371 20.8333 22.0898 20.8333H17.2266C16.5793 20.8333 16.0547 21.3663 16.0547 22.0238V22.619H13.9453V22.0238C13.9453 21.3663 13.4207 20.8333 12.7734 20.8333H7.91016C7.26288 20.8333 6.73828 21.3663 6.73828 22.0238V22.619H2.34375V4.16667H27.6562V13.9286C27.6562 14.5861 28.1808 15.119 28.8281 15.119C29.4754 15.119 30 14.5861 30 13.9286V1.19048C30 0.532924 29.4754 0 28.8281 0Z" fill="#1886C4"/>
<path opacity="0.5" fill-rule="evenodd" clip-rule="evenodd" d="M5.74219 6.01196C6.38947 6.01196 6.91406 6.54489 6.91406 7.20244V17.8572C6.91406 18.5148 6.38947 19.0477 5.74219 19.0477C5.09491 19.0477 4.57031 18.5148 4.57031 17.8572V7.20244C4.57031 6.54489 5.09491 6.01196 5.74219 6.01196ZM9.19922 7.20244V17.8572C9.19922 18.5148 9.72382 19.0477 10.3711 19.0477C11.0184 19.0477 11.543 18.5148 11.543 17.8572V7.20244C11.543 6.54489 11.0184 6.01196 10.3711 6.01196C9.72382 6.01196 9.19922 6.54489 9.19922 7.20244ZM13.8281 17.8572V7.20244C13.8281 6.54489 14.3527 6.01196 15 6.01196C15.6473 6.01196 16.1719 6.54489 16.1719 7.20244V17.8572C16.1719 18.5148 15.6473 19.0477 15 19.0477C14.3527 19.0477 13.8281 18.5148 13.8281 17.8572ZM18.457 7.20244V17.8572C18.457 18.5148 18.9816 19.0477 19.6289 19.0477C20.2762 19.0477 20.8008 18.5148 20.8008 17.8572V7.20244C20.8008 6.54489 20.2762 6.01196 19.6289 6.01196C18.9816 6.01196 18.457 6.54489 18.457 7.20244ZM23.0859 17.8572V7.20244C23.0859 6.54489 23.6105 6.01196 24.2578 6.01196C24.9051 6.01196 25.4297 6.54489 25.4297 7.20244V17.8572C25.4297 18.5148 24.9051 19.0477 24.2578 19.0477C23.6105 19.0477 23.0859 18.5148 23.0859 17.8572Z" fill="#1886C4"/>
</svg>
