<svg width="30" height="26" viewBox="0 0 30 26" fill="none" xmlns="http://www.w3.org/2000/svg">
<path opacity="0.5" d="M24.5629 15.0824C24.0626 14.6677 23.3242 14.7412 22.9136 15.2465L22.365 15.9215C21.921 15.5707 21.2783 15.586 20.8502 15.9842C20.3741 16.4271 20.3436 17.1759 20.782 17.6568L21.5638 18.5143C21.7859 18.7581 22.0987 18.8962 22.4257 18.8962C22.4369 18.8962 22.448 18.896 22.4591 18.8957C22.7982 18.886 23.1164 18.7283 23.3316 18.4635L24.7252 16.7484C25.1358 16.2431 25.0632 15.4972 24.5629 15.0824Z" fill="#1886C4"/>
<path fill-rule="evenodd" clip-rule="evenodd" d="M29.4252 11.2441C29.2148 11.1184 29.0132 11.0016 28.818 10.8887L28.8179 10.8886C27.6957 10.2392 26.9543 9.81016 26.4654 8.79262C26.2694 8.3847 25.86 8.12576 25.4112 8.12576H20.0521C19.6032 8.12576 19.1938 8.3847 18.9978 8.79262C18.5088 9.81019 17.7674 10.2392 16.6451 10.8887L16.6451 10.8887C16.45 11.0016 16.2483 11.1183 16.038 11.2441C15.6816 11.4572 15.4631 11.8444 15.4631 12.2627V12.4822C15.09 12.2561 14.7014 12.0578 14.3005 11.8886C15.7111 10.6452 16.604 8.81463 16.604 6.77689C16.604 3.04007 13.6013 0 9.91045 0C6.21962 0 3.21698 3.04019 3.21698 6.77695C3.21698 8.81404 4.1093 10.644 5.51901 11.8874C2.28053 13.259 0 16.4945 0 20.2581V20.2691C0 20.9228 0.524649 21.4528 1.17188 21.4528H15.9491C16.6133 23.0488 17.9158 24.3388 19.5915 24.9422L22.3382 25.9313C22.4654 25.9771 22.5985 26 22.7317 26C22.8648 26 22.9979 25.9771 23.1252 25.9313L25.5153 25.0706C26.1249 24.8511 26.4429 24.1739 26.2256 23.5581C26.0083 22.9422 25.3381 22.621 24.7283 22.8405L22.7317 23.5595L20.3785 22.7121C18.8404 22.1582 17.8069 20.6743 17.8069 19.0196V12.9449L17.8101 12.943C18.9065 12.3085 19.951 11.704 20.7338 10.4932H24.7294C25.5122 11.7041 26.5565 12.3084 27.6529 12.9429L27.653 12.9429L27.6562 12.9449C27.6562 12.9449 27.6534 19.1945 27.6476 19.2816C27.6049 19.9339 28.0938 20.4978 28.7396 20.5409C29.3851 20.5841 29.9435 20.0903 29.9863 19.4379C29.9954 19.299 30 12.2627 30 12.2627C30.0001 11.8445 29.7816 11.4572 29.4252 11.2441ZM9.91057 2.36753C12.309 2.36753 14.2603 4.34556 14.2603 6.77695C14.2603 9.20527 12.3139 11.1814 9.91953 11.1864H9.90154C7.50716 11.1815 5.56073 9.20533 5.56073 6.77695C5.56073 4.34561 7.51208 2.36753 9.91057 2.36753ZM2.44542 19.0853H15.4635L15.4634 19.0844L15.4632 19.0577L15.4632 19.052L15.4631 19.0196V15.4478C14.2292 14.2392 12.5678 13.5538 10.8402 13.5538H9.91959H9.91051H9.90143H8.9808C5.71718 13.5538 2.99608 15.9459 2.44542 19.0853Z" fill="#1886C4"/>
</svg>
