<svg width="34" height="40" viewBox="0 0 34 40" fill="none" xmlns="http://www.w3.org/2000/svg">
<ellipse cx="14.1806" cy="7.58667" rx="7.3993" ry="7.58667" fill="#3E73CF"/>
<path d="M21.8267 24.0933C22.854 23.6667 23.9463 23.4267 25.1036 23.3866C27.3699 19.4619 19.4109 16.1829 16.4431 16.4399C16.443 16.4399 11.9176 16.4399 11.9176 16.4399C5.62359 16.4399 0.5 21.7066 0.5 28.16V29.72C0.5 33.0266 3.11383 35.7066 6.3388 35.7066H14.1803C14.6614 35.7066 15.1035 35.5733 15.4807 35.32C15.4196 34.8214 15.375 34.3116 15.3766 33.7866C15.3221 29.5467 18.0143 25.5685 21.8267 24.0933Z" fill="#3E73CF"/>
<path opacity="0.5" d="M32.1776 27.8667C31.2544 27.36 30.071 27.5201 29.3038 28.3334L24.0111 33.96L22.2296 32.16C21.2673 31.2 19.7198 31.2267 18.7835 32.2133C17.8342 33.2 17.8602 34.7867 18.8225 35.7467L22.3726 39.2933C22.8277 39.7467 23.439 40 24.0761 40H24.1022C24.7524 39.9867 25.3765 39.72 25.8187 39.24L32.8148 31.8134C33.1529 31.44 33.3741 31 33.465 30.5467C33.465 30.5333 33.465 30.5333 33.465 30.5201V30.5067C33.5951 29.72 33.361 28.88 32.7498 28.28C32.5808 28.1067 32.3858 27.9734 32.1776 27.8667Z" fill="#3E73CF"/>
</svg>
