<svg width="18" height="16" viewBox="0 0 18 16" fill="none" xmlns="http://www.w3.org/2000/svg">
<path fill-rule="evenodd" clip-rule="evenodd" d="M15.1875 0H2.8125C1.26169 0 0 1.28171 0 2.85714V10.5714C0 12.1469 1.26169 13.4286 2.8125 13.4286H3.72656C4.1149 13.4286 4.42969 13.1088 4.42969 12.7143C4.42969 12.3198 4.1149 12 3.72656 12H2.8125C2.03709 12 1.40625 11.3591 1.40625 10.5714V5.21864H16.5938V7.00436C16.5938 7.39882 16.9085 7.71864 17.2969 7.71864C17.6852 7.71864 18 7.39882 18 7.00436V2.85714C18 1.28171 16.7383 0 15.1875 0ZM16.5938 3.79007H1.40625V2.85714C1.40625 2.06943 2.03709 1.42857 2.8125 1.42857H15.1875C15.9629 1.42857 16.5938 2.06943 16.5938 2.85714V3.79007ZM16.5938 10.5714C16.5938 10.1769 16.9085 9.85714 17.2969 9.85714C17.6852 9.85714 18 10.1769 18 10.5714C18 12.1469 16.7383 13.4286 15.1875 13.4286H14.2734C13.8851 13.4286 13.5703 13.1088 13.5703 12.7143C13.5703 12.3198 13.8851 12 14.2734 12H15.1875C15.9629 12 16.5938 11.3591 16.5938 10.5714Z" fill="currentColor"/>
<path fill-rule="evenodd" clip-rule="evenodd" d="M8.25787 13.2787L8.25781 14.6286H8.25795L8.25798 15.2857L8.26085 15.3507C8.29318 15.7147 8.59434 16 8.96111 16C9.34944 16 9.66423 15.6802 9.66423 15.2857L9.66416 13.7317L11.1828 13.7317L13.44 13.7318C13.8345 13.7318 14.1542 13.417 14.1542 13.0286C14.1542 12.6619 13.869 12.3607 13.505 12.3284L13.44 12.3255L12.7828 12.3255V12.3253L11.1828 12.3254L9.66416 12.3254L9.66423 10.7714C9.66423 10.3769 9.34944 10.0571 8.96111 10.0571C8.59434 10.0571 8.29318 10.3424 8.26085 10.7064L8.25798 10.7714L8.25795 11.4286H8.25781L8.25787 12.7786C8.22783 12.8563 8.21138 12.9406 8.21138 13.0286C8.21138 13.1167 8.22783 13.201 8.25787 13.2787Z" fill="currentColor"/>
</svg>
