<svg width="16" height="17" viewBox="0 0 16 17" fill="none" xmlns="http://www.w3.org/2000/svg">
<path d="M15.2726 7.70797C14.8711 7.70797 14.5454 7.39073 14.5454 6.99968C14.5454 5.01281 13.7511 3.14565 12.3089 1.74023C12.0246 1.46332 12.0246 1.01573 12.3089 0.738688C12.5933 0.461779 13.0529 0.461779 13.3373 0.738688C15.0545 2.41104 15.9998 4.63461 15.9998 6.99968C15.9998 7.39073 15.6741 7.70797 15.2726 7.70797Z" fill="white"/>
<path d="M0.72723 7.70797C0.325862 7.70797 0 7.39073 0 6.99968C0 4.63461 0.945493 2.41104 2.66256 0.738688C2.94687 0.461779 3.40657 0.461779 3.69088 0.738688C3.97533 1.01573 3.97533 1.46332 3.69088 1.74023C2.24867 3.14488 1.45459 5.01281 1.45459 6.99968C1.45459 7.39073 1.12873 7.70797 0.72723 7.70797Z" fill="white"/>
<path d="M14.8205 11.9801C13.7208 11.0748 13.0903 9.7516 13.0903 8.34981V6.375C13.0903 3.88243 11.1892 1.81904 8.72663 1.47339V0.70829C8.72663 0.316597 8.40077 0 7.9994 0C7.5979 0 7.27204 0.316597 7.27204 0.70829V1.47339C4.80883 1.81904 2.90839 3.88243 2.90839 6.375V8.34981C2.90839 9.7516 2.27784 11.0748 1.17174 11.9857C0.888761 12.2216 0.726562 12.5644 0.726562 12.927C0.726562 13.6107 1.29745 14.1667 1.99938 14.1667H13.9994C14.7012 14.1667 15.2721 13.6107 15.2721 12.927C15.2721 12.5644 15.1099 12.2216 14.8205 11.9801Z" fill="white"/>
<path d="M8.00014 17C9.31717 17 10.419 16.0855 10.6722 14.875H5.32812C5.58114 16.0855 6.68298 17 8.00014 17Z" fill="white"/>
</svg>
