<svg width="15" height="11" viewBox="0 0 15 11" fill="none" xmlns="http://www.w3.org/2000/svg">
<path fill-rule="evenodd" clip-rule="evenodd" d="M11.0816 0.260587L14.2552 3.58802C15.2475 4.62945 15.2482 6.32296 14.2575 7.36497L11.0856 10.7352C10.9196 10.9116 10.7007 11 10.4817 11C10.2663 11 10.0507 10.9144 9.88536 10.743C9.55186 10.3973 9.54854 9.83338 9.87794 9.48338L13.0515 6.11142L13.0552 6.1075C13.3861 5.76022 13.3861 5.19517 13.0552 4.84789L9.88188 1.52078C9.55028 1.1731 9.55003 0.609158 9.88133 0.261166C10.2126 -0.0868252 10.75 -0.0870924 11.0816 0.260587ZM0.848726 4.58705H9.88765C10.3564 4.58705 10.7364 4.98581 10.7364 5.47774C10.7364 5.96967 10.3564 6.36843 9.88765 6.36843H0.848726C0.379974 6.36843 0 5.96967 0 5.47774C0 4.98581 0.379974 4.58705 0.848726 4.58705Z" fill="#1886C4"/>
</svg>
