<svg width="14" height="11" viewBox="0 0 14 11" fill="none" xmlns="http://www.w3.org/2000/svg">
<path d="M13.7762 4.98627L8.72033 0.211125C8.57601 0.0748182 8.38365 0 8.17855 0C7.97322 0 7.78098 0.0749257 7.63665 0.211125L7.17761 0.64477C7.0334 0.780862 6.95396 0.96264 6.95396 1.15646C6.95396 1.35017 7.0334 1.53807 7.17761 1.67417L10.1272 4.46598H0.756335C0.333835 4.46598 0 4.77837 0 5.17751V5.79057C0 6.1897 0.333835 6.53359 0.756335 6.53359H10.1606L7.17773 9.34099C7.03352 9.4773 6.95407 9.65413 6.95407 9.84795C6.95407 10.0416 7.03352 10.221 7.17773 10.3572L7.63677 10.7894C7.78109 10.9257 7.97333 11 8.17866 11C8.38377 11 8.57612 10.9248 8.72045 10.7884L13.7763 6.01341C13.921 5.87667 14.0006 5.69414 14 5.50011C14.0005 5.30543 13.921 5.12279 13.7762 4.98627Z" fill="#3E73CF"/>
</svg>
