<svg width="18" height="16" viewBox="0 0 18 16" fill="none" xmlns="http://www.w3.org/2000/svg">
<path d="M1.6113 8.50508C1.33719 8.2266 1.33719 7.77344 1.61194 7.49435L7.77463 1.21869C8.04885 0.939419 8.04833 0.487155 7.7734 0.208562C7.49845 -0.069996 7.05323 -0.0694603 6.77897 0.209812L0.616941 6.48479C-0.205542 7.32028 -0.205542 8.67975 0.616308 9.5146L6.77897 15.7902C6.91636 15.9301 7.09654 16 7.27682 16C7.45647 16 7.63619 15.9305 7.7734 15.7914C8.04833 15.5128 8.04889 15.0605 7.77463 14.7813L1.6113 8.50508Z" fill="white"/>
<path d="M17.2976 7.28564H4.53519C4.14682 7.28564 3.83203 7.60541 3.83203 7.99993C3.83203 8.39445 4.14682 8.71422 4.53519 8.71422H17.2976C17.686 8.71422 18.0007 8.39445 18.0007 7.99993C18.0007 7.60541 17.686 7.28564 17.2976 7.28564Z" fill="white"/>
</svg>
