<svg width="18" height="18" viewBox="0 0 18 18" fill="none" xmlns="http://www.w3.org/2000/svg">
<path fill-rule="evenodd" clip-rule="evenodd" d="M16.8511 16.5938H17.2969C17.6852 16.5938 18 16.9085 18 17.2969C18 17.6852 17.6852 18 17.2969 18H6.39844C6.0101 18 5.69531 17.6852 5.69531 17.2969C5.69531 16.9085 6.0101 16.5938 6.39844 16.5938H6.84418L8.24889 14.1355C8.37408 13.9165 8.60706 13.7812 8.85938 13.7812H14.8359C15.0883 13.7812 15.3212 13.9165 15.4464 14.1355L16.8511 16.5938ZM9.2674 15.1875L8.46387 16.5938H15.2314L14.4279 15.1875H9.2674Z" fill="white"/>
<path d="M8.96994 8.26175H8.15625C7.76791 8.26175 7.45312 8.57654 7.45312 8.96488C7.45312 9.35322 7.76791 9.668 8.15625 9.668H15.5391C15.9274 9.668 16.2422 9.35322 16.2422 8.96488C16.2422 8.57654 15.9274 8.26175 15.5391 8.26175H14.6707C14.6976 8.15745 14.7232 8.05324 14.7474 7.94929C14.8352 7.57104 14.5999 7.19318 14.2216 7.10529C13.8436 7.01761 13.4655 7.25284 13.3776 7.63109C13.3289 7.84069 13.2733 8.05152 13.2126 8.26172H10.4248C10.1081 7.14959 9.94816 6.03011 9.94518 4.8908C9.94774 4.86633 9.94918 4.84154 9.94918 4.81641C9.94918 4.79538 9.94785 4.77468 9.94605 4.75411C9.95516 3.6605 10.1081 2.54823 10.4054 1.40625H13.1776C13.4911 2.51508 13.6614 3.61782 13.6841 4.69065C13.6922 5.07382 14.0053 5.37891 14.3867 5.37891C14.3918 5.37891 14.3969 5.37887 14.4019 5.37873C14.7902 5.37054 15.0982 5.04914 15.09 4.66091C15.0674 3.59293 14.9138 2.50172 14.6334 1.40625H15.5391C15.9274 1.40625 16.2422 1.09146 16.2422 0.703125C16.2422 0.314789 15.9274 0 15.5391 0H8.15625C7.76791 0 7.45312 0.314789 7.45312 0.703125C7.45312 1.09146 7.76791 1.40625 8.15625 1.40625H8.95728C8.74294 2.31595 8.61223 3.21912 8.56564 4.11328H0.703125C0.314789 4.11328 0 4.42807 0 4.81641C0 5.20474 0.314789 5.51953 0.703125 5.51953H8.56223C8.60604 6.44572 8.74206 7.3607 8.96994 8.26175Z" fill="white"/>
</svg>
