<svg width="18" height="20" viewBox="0 0 18 20" fill="none" xmlns="http://www.w3.org/2000/svg">
<path fill-rule="evenodd" clip-rule="evenodd" d="M12.7837 18.4375H13.0161C13.4409 18.4375 13.7852 18.7873 13.7852 19.2188C13.7852 19.6502 13.4409 20 13.0161 20H0.769118C0.344334 20 0 19.6502 0 19.2188C0 18.7873 0.344334 18.4375 0.769118 18.4375H1.00147V16.8983C1.00147 15.5986 2.04239 14.5413 3.3219 14.5413H10.4632C11.7428 14.5413 12.7837 15.5986 12.7837 16.8983V18.4375ZM2.53971 16.8983V18.4375H11.2455V16.8983C11.2455 16.4602 10.8946 16.1038 10.4632 16.1038H3.3219C2.89062 16.1038 2.53971 16.4602 2.53971 16.8983Z" fill="white"/>
<path fill-rule="evenodd" clip-rule="evenodd" d="M16.8586 10.6452C17.5163 11.1353 17.9296 11.8909 17.9918 12.7179C18.054 13.5448 17.7585 14.3555 17.1812 14.9419C16.6545 15.4769 15.9441 15.7736 15.2055 15.7736C15.1344 15.7736 15.0631 15.7709 14.9916 15.7654C14.1775 15.7022 13.4336 15.2825 12.9506 14.6137L9.45653 9.77567L8.30477 10.9456C8.48867 11.2469 8.4519 11.6477 8.19444 11.9092C8.04427 12.0617 7.84745 12.138 7.6506 12.138C7.45374 12.138 7.25692 12.0617 7.10675 11.9092L2.69648 7.42938C2.3961 7.1243 2.3961 6.62965 2.69648 6.32454C2.95394 6.06301 3.3485 6.02567 3.64511 6.21247L8.58719 1.19243C8.4033 0.891103 8.44006 0.490361 8.69752 0.228838C8.9979 -0.0762793 9.48487 -0.0762793 9.78525 0.228838L14.1956 4.70864C14.4959 5.01372 14.4959 5.50837 14.1956 5.81348C14.0454 5.96602 13.8485 6.04231 13.6517 6.04231C13.5111 6.04231 13.3705 6.00341 13.2469 5.92555L12.0952 7.09544L13.7089 8.29797C14.0514 8.55317 14.1254 9.04211 13.8742 9.39001C13.6229 9.73794 13.1414 9.81297 12.7991 9.55782L10.9947 8.21329L10.5571 8.65786L14.1909 13.6895C14.4081 13.9902 14.7427 14.179 15.1089 14.2074C15.4746 14.2359 15.8338 14.1009 16.0935 13.8371C16.3531 13.5734 16.486 13.2088 16.458 12.8369C16.43 12.465 16.2442 12.1252 15.9482 11.9045L15.9355 11.895C15.5932 11.6395 15.5198 11.1505 15.7714 10.8029C16.023 10.4552 16.5044 10.3806 16.8466 10.6362L16.8586 10.6452ZM9.66053 2.31188L4.74718 7.3027L7.23143 9.82614L12.1448 4.83532L9.66053 2.31188Z" fill="white"/>
</svg>
