<svg width="16" height="16" viewBox="0 0 16 16" fill="none" xmlns="http://www.w3.org/2000/svg">
<path fill-rule="evenodd" clip-rule="evenodd" d="M8.22956 0.274713L8.14123 0.196688L8.03713 0.126401C7.67835 -0.0820957 7.21093 -0.0326583 6.90372 0.274713C6.53763 0.640936 6.53763 1.23474 6.90372 1.60099L10.8812 5.57985L10.9695 5.65787C11.3373 5.94391 11.8691 5.91791 12.207 5.57985C12.5731 5.21357 12.5731 4.61983 12.207 4.25355L8.22956 0.274713ZM6.24052 2.26424L10.2179 6.24302L6.24052 10.2218L2.26314 6.24302L6.24052 2.26424ZM1.51211 6.82812C1.14436 6.54208 0.612577 6.56808 0.274616 6.90613C-0.0915388 7.27235 -0.0915388 7.86616 0.274616 8.23244L4.25207 12.2113L4.3404 12.2893C4.7082 12.5754 5.23992 12.5494 5.57791 12.2113C5.94401 11.8451 5.94401 11.2513 5.57791 10.885L1.60043 6.90613L1.51211 6.82812ZM10.8812 8.23244C11.0936 8.44487 11.1708 8.73182 11.1338 9.00803L11.1111 9.1255L14.2582 12.2113L12.2695 14.2007L9.12231 11.115C8.81228 11.194 8.47225 11.1278 8.22956 10.885C7.89157 10.5469 7.86557 10.0149 8.15156 9.64706L8.22956 9.55872L9.55537 8.23244C9.92146 7.86616 10.5151 7.86616 10.8812 8.23244ZM15.5881 13.5985L14.9212 12.8744L12.9324 14.8639L13.5994 15.588L13.7062 15.6846C14.2585 16.1352 15.0733 16.103 15.5881 15.588C16.1373 15.0386 16.1373 14.1479 15.5881 13.5985ZM9.28949 14.9039C9.01464 13.9146 8.10641 13.1865 7.03125 13.1865H3.28126L3.11296 13.1925C2.05666 13.2678 1.19185 14.0467 0.984958 15.0621H0.468772L0.384459 15.0697C0.165677 15.1094 2.34281e-05 15.3007 2.34281e-05 15.5311C2.34281e-05 15.7902 0.209679 16 0.468772 16H9.84375L9.92806 15.9924C10.1468 15.9528 10.3125 15.7614 10.3125 15.5311C10.3125 15.2719 10.1028 15.0621 9.84375 15.0621H9.32756L9.28949 14.9039Z" fill="white"/>
</svg>
