<svg width="18" height="18" viewBox="0 0 18 18" fill="none" xmlns="http://www.w3.org/2000/svg">
<path fill-rule="evenodd" clip-rule="evenodd" d="M9 14.5799C9.12964 14.5799 9.2612 14.577 9.39111 14.5714C9.77852 14.5534 10.1074 14.8551 10.1243 15.2431C10.1413 15.6311 9.84059 15.9593 9.45264 15.9763C9.30226 15.9828 9.14996 15.9862 9 15.9862C7.78766 15.9862 6.61473 15.7771 5.50923 15.3641L0.976547 17.2776C0.888382 17.3148 0.79541 17.333 0.703262 17.333C0.52034 17.333 0.340576 17.2615 0.205994 17.127C0.0037079 16.9247 -0.055893 16.6199 0.0553436 16.3564L1.63957 12.6035C0.565247 11.2569 0 9.67796 0 8.0107C0 3.59355 4.03748 0 9 0C13.9627 0 18 3.59355 18 8.0107C18 9.09236 17.7389 10.1689 17.2241 11.2106C17.052 11.5588 16.6303 11.7015 16.2822 11.5294C15.934 11.3573 15.7913 10.9356 15.9634 10.5874C16.3817 9.74127 16.5938 8.87427 16.5938 8.0107C16.5938 4.36908 13.1872 1.40633 9 1.40633C4.81284 1.40633 1.40625 4.36908 1.40625 8.0107C1.40625 9.47196 1.95049 10.8559 2.98004 12.0125C3.16049 12.2153 3.20815 12.5037 3.10268 12.7535L2.02396 15.3089L5.22551 13.9574C5.39772 13.8847 5.5919 13.8836 5.76494 13.9542C6.7809 14.3694 7.86937 14.5799 9 14.5799ZM5.80078 8.50827C5.41241 8.50827 5.09766 8.19349 5.09766 7.8051C5.09766 7.41672 5.41241 7.10194 5.80078 7.10194C6.18915 7.10194 6.50391 7.41672 6.50391 7.8051C6.50391 8.19349 6.18915 8.50827 5.80078 8.50827ZM8.96484 7.10194C9.35321 7.10194 9.66797 7.41672 9.66797 7.8051C9.66797 8.19349 9.35321 8.50827 8.96484 8.50827C8.57648 8.50827 8.26172 8.19349 8.26172 7.8051C8.26172 7.41672 8.57648 7.10194 8.96484 7.10194ZM11.4258 7.8051C11.4258 8.19349 11.7405 8.50827 12.1289 8.50827C12.5173 8.50827 12.832 8.19349 12.832 7.8051C12.832 7.41672 12.5173 7.10194 12.1289 7.10194C11.7405 7.10194 11.4258 7.41672 11.4258 7.8051ZM17.3817 14.3995C18.2046 15.2224 18.2046 16.5606 17.3822 17.3831C16.971 17.7943 16.4307 18 15.8906 18C15.3505 18 14.8103 17.7943 14.3991 17.3831L10.5393 13.5318C10.4573 13.4499 10.3969 13.3492 10.3633 13.2383L9.52254 10.4705C9.44797 10.2251 9.51292 9.95868 9.692 9.77506C9.87108 9.59158 10.1358 9.52016 10.383 9.58856L13.2209 10.3747C13.3378 10.4071 13.4442 10.469 13.5301 10.5547L17.3817 14.3995ZM14.2622 15.2599L11.6575 12.6608L11.2397 11.2852L12.6674 11.6807L15.2567 14.2653L14.2622 15.2599ZM16.3878 15.3943L16.2521 15.2588L15.2577 16.2532L15.3929 16.3881C15.6676 16.6629 16.1136 16.6629 16.3878 16.3886C16.662 16.1145 16.662 15.6684 16.3878 15.3943Z" fill="currentColor"/>
</svg>
