<svg width="18" height="18" viewBox="0 0 18 18" fill="none" xmlns="http://www.w3.org/2000/svg">
<path fill-rule="evenodd" clip-rule="evenodd" d="M3.15189 7.45307H0.703132C0.314827 7.45307 0 7.13828 0 6.74994V0.703126C0 0.31479 0.314792 0 0.703132 0H2.59143C3.78366 0 4.75363 0.969963 4.75359 2.16218C4.75359 2.41401 4.71046 2.66112 4.62541 2.89667C4.57166 3.04552 4.50215 3.18558 4.41968 3.31584C5.00138 3.71455 5.38944 4.37823 5.41229 5.13289L5.41302 5.14502L5.41303 5.14504C5.41354 5.15264 5.41404 5.16023 5.41404 5.16794L5.41381 5.17762L5.41359 5.18556L5.41382 5.19395L5.41404 5.2031C5.41404 5.21078 5.41353 5.21832 5.41302 5.22586L5.41229 5.23787C5.37551 6.46556 4.37605 7.45307 3.15189 7.45307ZM2.59146 1.40625H1.40626V2.92096H2.53437C2.55328 2.91945 2.5722 2.91808 2.5915 2.91808C2.90917 2.91808 3.19507 2.71755 3.30282 2.41904C3.33242 2.33712 3.34743 2.25071 3.34743 2.16218C3.3474 1.74537 3.00831 1.40625 2.59146 1.40625ZM1.40626 4.32718H3.14627C3.60752 4.32718 3.99787 4.71851 4.00743 5.18559C3.99783 5.65426 3.61013 6.04685 3.15189 6.04685H1.40626V4.32718ZM0.703132 8.85932H4.88673C5.27504 8.85932 5.58983 9.17408 5.58986 9.56245C5.58986 9.95078 5.27507 10.2656 4.88673 10.2656H0.703132C0.314792 10.2656 0 9.95078 0 9.56245C0 9.17411 0.314792 8.85932 0.703132 8.85932ZM17.2969 8.85932H13.1133C12.7249 8.85932 12.4101 9.17411 12.4101 9.56245C12.4101 9.95078 12.7249 10.2656 13.1133 10.2656H17.2969C17.6852 10.2656 18 9.95078 18 9.56245C18 9.17408 17.6852 8.85932 17.2969 8.85932ZM11.6367 4.92185C11.6367 6.31755 10.5012 7.45307 9.10549 7.45307C7.70973 7.45307 6.57421 6.31755 6.57418 4.92185V0.703126C6.57418 0.31479 6.88897 0 7.27731 0C7.66565 0 7.98044 0.31479 7.98044 0.703126V4.92185C7.98044 5.54218 8.48511 6.04685 9.10545 6.04685C9.72579 6.04685 10.2305 5.54218 10.2305 4.92185V0.703126C10.2305 0.31479 10.5453 0 10.9336 0C11.3219 0 11.6367 0.31479 11.6367 0.703126V4.92185ZM17.2969 0C16.9085 0 16.5937 0.31479 16.5937 0.703126V2.10938C16.5937 2.72971 16.0891 3.23438 15.4687 3.23438C14.8484 3.23438 14.3437 2.72971 14.3437 2.10938V0.703126C14.3437 0.31479 14.0289 0 13.6406 0C13.2522 0 12.9375 0.31479 12.9375 0.703126V2.10938C12.9375 3.50512 14.073 4.6406 15.4687 4.6406C15.8727 4.6406 16.2545 4.54497 16.5937 4.37594V4.92185C16.5937 5.54218 16.089 6.04685 15.4687 6.04685H13.6405C13.2522 6.04685 12.9374 6.36164 12.9374 6.74998C12.9374 7.13831 13.2522 7.4531 13.6405 7.4531H15.4687C16.8644 7.4531 17.9999 6.31759 17.9999 4.92188V2.10934V0.703126C18 0.31479 17.6852 0 17.2969 0ZM9.35134 8.50734L13.1063 11.895C13.1199 11.9074 13.1331 11.9202 13.1459 11.9336C13.535 12.3447 13.6428 12.9282 13.427 13.4566C13.2122 13.9825 12.7289 14.3222 12.1658 14.3431C12.1572 14.3435 12.1485 14.3436 12.1397 14.3436H11.4893L12.7627 16.9921C12.9309 17.342 12.7836 17.7622 12.4336 17.9304C12.3354 17.9776 12.2316 18 12.1295 18C11.8676 18 11.6163 17.8531 11.4953 17.6014L9.73743 13.9451C9.6327 13.7273 9.64722 13.4708 9.77592 13.2662C9.9046 13.0615 10.1294 12.9373 10.3712 12.9373H12.1179C12.1238 12.9308 12.1294 12.9158 12.1291 12.9073L8.42334 9.564C8.42162 9.5628 8.4205 9.5622 8.42007 9.56203H8.4199C8.41624 9.56203 8.40696 9.56589 8.40267 9.56973C8.40253 9.57096 8.40239 9.57285 8.40239 9.57546V14.8235C8.40239 14.8425 8.43171 14.8662 8.44739 14.871C8.83327 14.8764 9.14318 15.1921 9.14068 15.5787C9.13815 15.9654 8.82378 16.2772 8.43765 16.2772H8.43294C7.65412 16.2721 6.99613 15.6064 6.99613 14.8235V9.57556C6.99613 9.01847 7.31036 8.52611 7.81623 8.2906C8.32364 8.05428 8.90478 8.13127 9.33292 8.49127C9.33917 8.49651 9.34533 8.50189 9.35134 8.50734Z" fill="white"/>
</svg>
