<svg width="15" height="18" viewBox="0 0 15 18" fill="none" xmlns="http://www.w3.org/2000/svg">
<path fill-rule="evenodd" clip-rule="evenodd" d="M14.3151 12.375C14.6934 12.375 15 12.0602 15 11.6719V2.8125C15 1.26169 13.771 0 12.2603 0H2.73973C1.22904 0 0 1.26169 0 2.8125V15.1875C0 16.7383 1.22904 18 2.73973 18H12.2603C13.771 18 15 16.7383 15 15.1875C15 14.7992 14.6934 14.4844 14.3151 14.4844C13.9368 14.4844 13.6301 14.7992 13.6301 15.1875C13.6301 15.9629 13.0156 16.5938 12.2603 16.5938H2.73973C1.98438 16.5938 1.36986 15.9629 1.36986 15.1875V7.03125H13.6301V11.6719C13.6301 12.0602 13.9368 12.375 14.3151 12.375ZM1.36986 5.625V2.8125C1.36986 2.03709 1.98438 1.40625 2.73973 1.40625H12.2603C13.0156 1.40625 13.6301 2.03709 13.6301 2.8125V5.625H1.36986ZM12.2603 9.14062C12.2603 8.75229 11.9536 8.4375 11.5753 8.4375C11.1971 8.4375 10.8904 8.75229 10.8904 9.14062V14.4844C10.8904 14.8727 11.1971 15.1875 11.5753 15.1875C11.9536 15.1875 12.2603 14.8727 12.2603 14.4844V9.14062ZM4.14658 9.14062C4.14658 9.52896 3.80295 9.84375 3.42466 9.84375C3.04637 9.84375 2.73973 9.52896 2.73973 9.14062C2.73973 8.75229 3.04637 8.4375 3.42466 8.4375C3.80295 8.4375 4.14658 8.75229 4.14658 9.14062ZM6.16438 9.84375C6.54267 9.84375 6.84932 9.52896 6.84932 9.14062C6.84932 8.75229 6.54267 8.4375 6.16438 8.4375C5.7861 8.4375 5.47945 8.75229 5.47945 9.14062C5.47945 9.52896 5.7861 9.84375 6.16438 9.84375ZM9.55479 9.14062C9.55479 9.52896 9.24815 9.84375 8.86986 9.84375C8.49158 9.84375 8.18493 9.52896 8.18493 9.14062C8.18493 8.75229 8.49158 8.4375 8.86986 8.4375C9.24815 8.4375 9.55479 8.75229 9.55479 9.14062ZM3.42466 12.5156C3.80295 12.5156 4.14384 12.2008 4.14384 11.8125C4.14384 11.4242 3.80295 11.1094 3.42466 11.1094C3.04637 11.1094 2.73973 11.4242 2.73973 11.8125C2.73973 12.2008 3.04637 12.5156 3.42466 12.5156ZM6.84932 11.8125C6.84932 12.2008 6.54267 12.5156 6.16438 12.5156C5.7861 12.5156 5.47945 12.2008 5.47945 11.8125C5.47945 11.4242 5.7861 11.1094 6.16438 11.1094C6.54267 11.1094 6.84932 11.4242 6.84932 11.8125ZM3.42466 15.1875C3.80295 15.1875 4.14384 14.8727 4.14384 14.4844C4.14384 14.096 3.80295 13.7812 3.42466 13.7812C3.04637 13.7812 2.73973 14.096 2.73973 14.4844C2.73973 14.8727 3.04637 15.1875 3.42466 15.1875ZM6.84932 14.4844C6.84932 14.8727 6.54267 15.1875 6.16438 15.1875C5.7861 15.1875 5.47945 14.8727 5.47945 14.4844C5.47945 14.096 5.7861 13.7812 6.16438 13.7812C6.54267 13.7812 6.84932 14.096 6.84932 14.4844ZM8.86986 12.5156C9.24815 12.5156 9.55479 12.2008 9.55479 11.8125C9.55479 11.4242 9.24815 11.1094 8.86986 11.1094C8.49158 11.1094 8.18493 11.4242 8.18493 11.8125C8.18493 12.2008 8.49158 12.5156 8.86986 12.5156ZM9.55479 14.4844C9.55479 14.8727 9.24815 15.1875 8.86986 15.1875C8.49158 15.1875 8.18493 14.8727 8.18493 14.4844C8.18493 14.096 8.49158 13.7812 8.86986 13.7812C9.24815 13.7812 9.55479 14.096 9.55479 14.4844ZM5.82192 4.21875C6.20021 4.21875 6.50685 3.90396 6.50685 3.51562C6.50685 3.12729 6.20021 2.8125 5.82192 2.8125H3.42466C3.04637 2.8125 2.73973 3.12729 2.73973 3.51562C2.73973 3.90396 3.04637 4.21875 3.42466 4.21875H5.82192Z" fill="currentColor"/>
</svg>
