<svg width="16" height="14" viewBox="0 0 16 14" fill="none" xmlns="http://www.w3.org/2000/svg">
<path d="M0.468054 11.1999H12.7186C12.8285 11.1999 12.9347 11.1617 13.0189 11.0919C13.1366 10.9938 15.8206 8.69518 15.9843 3.73328H2.82747C2.66443 8.23735 0.19251 10.3544 0.166821 10.3755C0.0162208 10.5022 -0.039188 10.7091 0.0285651 10.8932C0.0958494 11.0769 0.271201 11.1999 0.468054 11.1999Z" fill="#D5D5D5"/>
<path d="M15.5313 0.933331H13.1875V0.466666C13.1875 0.205333 12.9812 0 12.7187 0C12.4562 0 12.2499 0.205333 12.2499 0.466666V0.933331H9.87483V0.466666C9.87483 0.205333 9.66857 0 9.40606 0C9.14354 0 8.93728 0.205333 8.93728 0.466666V0.933331H6.59343V0.466666C6.59343 0.205333 6.38717 0 6.12466 0C5.86215 0 5.65589 0.205333 5.65589 0.466666V0.933331H3.31203C3.04952 0.933331 2.84326 1.13866 2.84326 1.4V2.79999H16.0001V1.4C16.0001 1.13866 15.7938 0.933331 15.5313 0.933331Z" fill="#D5D5D5"/>
<path d="M13.621 11.8075C13.3665 12.0185 13.0469 12.1333 12.7187 12.1333H2.84326V13.5333C2.84326 13.7913 3.05293 14 3.31203 14H15.5313C15.7904 14 16.0001 13.7913 16.0001 13.5333V8.30212C15.0963 10.5095 13.8351 11.629 13.621 11.8075Z" fill="#D5D5D5"/>
</svg>
