<svg width="16" height="18" viewBox="0 0 16 18" fill="none" xmlns="http://www.w3.org/2000/svg">
<path d="M8.4194 7.15498V8.05998C8.4194 8.34741 8.47775 8.58856 8.59291 8.77643C8.75177 9.03571 9.01252 9.1843 9.3086 9.1843C9.59867 9.1843 9.88692 9.04532 10.1653 8.77148L13.2036 5.78238C13.8707 5.12608 13.8707 4.05821 13.2036 3.40192L10.1653 0.412811C9.88692 0.13884 9.59867 0 9.3086 0C8.86595 0 8.4194 0.347717 8.4194 1.12431V1.94623C4.10576 2.19685 0.534743 5.45361 0.00401805 9.71754C-0.0257148 9.95567 0.111922 10.1836 0.338757 10.2719C0.402969 10.2969 0.469833 10.309 0.53586 10.309C0.70309 10.309 0.865295 10.232 0.968592 10.0931C2.39214 8.1796 4.6778 7.03716 7.08268 7.03716C7.52825 7.03716 7.97634 7.07671 8.4194 7.15498Z" fill="white"/>
<path d="M15.6619 7.72808C15.4351 7.63964 15.1763 7.71325 15.0321 7.90702C13.6087 9.82043 11.323 10.9629 8.91815 10.9629C8.47257 10.9629 8.02449 10.9233 7.58142 10.845V9.94004C7.58142 9.16344 7.13473 8.81573 6.69223 8.81573C6.40216 8.81573 6.1139 8.9547 5.83542 9.22867L2.79708 12.2176C2.13012 12.8739 2.13012 13.9418 2.79722 14.5982L5.83542 17.5872C6.1139 17.8612 6.40216 18 6.69223 18C7.13473 18 7.58142 17.6523 7.58142 16.8757V16.0538C11.8952 15.8032 15.4661 12.5464 15.9968 8.28261C16.0265 8.04435 15.8889 7.81638 15.6619 7.72808Z" fill="white"/>
</svg>
