<svg width="30" height="21" viewBox="0 0 30 21" fill="none" xmlns="http://www.w3.org/2000/svg">
<path fill-rule="evenodd" clip-rule="evenodd" d="M29.3782 9.54934L29.4288 9.48573C29.4592 9.44286 29.4853 9.39657 29.506 9.34758L29.5122 9.33279L29.5513 9.20403L29.9851 7.12992L29.999 7.01815C30.0047 6.9062 29.9856 6.7946 29.9431 6.69061C29.9146 6.62164 29.8757 6.55656 29.827 6.49781C29.7061 6.35029 29.5344 6.25395 29.3463 6.22593L29.2317 6.21746H26.312L26.0764 5.62724C25.3894 3.96541 24.5405 2.42372 23.5852 1.80104C22.2022 0.901195 19.963 0.338513 17.5088 0.112841L16.7352 0.0533693L16.1147 0.0218679L15.5685 0.00555877L14.9142 0L14.2974 0.00859546L13.638 0.0327143L13.0926 0.0647262L12.6872 0.0957108L12.084 0.153706C9.79085 0.402073 7.72096 0.951186 6.41484 1.80104C5.45952 2.42372 4.61058 3.96541 3.9236 5.62724L3.68795 6.21746H0.768268L0.653705 6.22593C0.465601 6.25395 0.293944 6.35029 0.172962 6.49781C0.124314 6.55656 0.0853949 6.62164 0.0567904 6.69123C0.0143722 6.7946 -0.00468185 6.9062 0.000972489 7.01815L0.0149127 7.12992L0.448723 9.20403L0.462008 9.25807L0.481972 9.31784L0.528929 9.41893L0.571237 9.48573L0.621697 9.54926L0.688578 9.61592L0.797329 9.69634C0.915485 9.7685 1.05417 9.80955 1.20073 9.80955H2.06565L1.88059 10.0337C1.17077 10.9468 0.825464 12.0543 0.820501 13.1623L0.819914 13.2271L0.827272 13.5221C0.88994 14.7183 1.35045 15.8984 2.24588 16.8123L2.458 17.0159L2.45894 19.8603L2.46669 19.993C2.47799 20.089 2.50142 20.1815 2.53584 20.269L2.56433 20.3365C2.65752 20.5362 2.80747 20.7049 2.99361 20.8216L3.12193 20.8921C3.18536 20.9216 3.25199 20.9455 3.32132 20.9632L3.44816 20.9884L3.54621 20.9981L3.61114 20.9999H6.30441C6.34799 20.9999 6.39101 20.9975 6.43853 20.9922L6.46833 20.9884L6.6071 20.96L6.73052 20.9192L6.84716 20.8655L6.98506 20.7793L7.09523 20.6885C7.1453 20.6415 7.19197 20.5892 7.23616 20.5299L7.29616 20.4401C7.37646 20.3062 7.42983 20.1547 7.44886 19.993L7.45661 19.8603V18.6948H22.5434V19.8603L22.5511 19.993C22.5702 20.1547 22.6235 20.3062 22.7038 20.4401L22.769 20.5372C22.8301 20.6188 22.902 20.6921 22.9823 20.7547L23.0522 20.8053L23.1854 20.882L23.2701 20.9194L23.3932 20.9601L23.5323 20.9884L23.6307 20.9981L23.6956 20.9999H26.3889C26.4324 20.9999 26.4755 20.9975 26.5227 20.9922L26.6591 20.9681L26.7807 20.9321C26.8471 20.9083 26.9106 20.8785 26.9707 20.8433L27.0063 20.8222C27.1925 20.7049 27.3425 20.5362 27.439 20.3283C27.448 20.3088 27.4563 20.289 27.4646 20.2688L27.495 20.1798C27.5129 20.1194 27.5258 20.057 27.5333 19.993L27.5411 19.8603L27.541 17.0159L27.7541 16.8123C28.7135 15.8331 29.1736 14.5484 29.1801 13.2656L29.1723 12.9067C29.1193 11.885 28.7746 10.8766 28.1194 10.0337L27.9344 9.80955H28.7993C28.9825 9.80955 29.1534 9.74542 29.2867 9.63674L29.2992 9.62645L29.3782 9.54934ZM21 13.4994C21 12.1183 22.12 10.9999 23.5 10.9999C24.4363 10.9999 25.2529 11.5147 25.6816 12.2772C25.8844 12.6385 26 13.0554 26 13.4994C26 14.8806 24.88 15.9999 23.5 15.9999L23.3355 15.9946L23.1742 15.9788C21.9479 15.8191 21 14.7701 21 13.4994ZM6.5 10.9999C5.56366 10.9999 4.74705 11.5147 4.31874 12.2772C4.1156 12.6385 4 13.0554 4 13.4994C4 14.8806 5.11996 15.9999 6.5 15.9999L6.66449 15.9946L6.82578 15.9788C8.05207 15.8191 9 14.7701 9 13.4994C9 12.1183 7.88004 10.9999 6.5 10.9999ZM15.338 2.27013L15.9238 2.28419L16.3724 2.30332L16.9711 2.34223L17.3312 2.37248L17.6659 2.40471C19.5916 2.60897 21.3031 3.04217 22.32 3.70421C22.803 4.0188 23.4027 5.13739 23.9826 6.58367L24.1862 7.10696L24.2988 7.4095H5.70124L5.8138 7.10696C6.45453 5.41172 7.14021 4.05581 7.67996 3.70421C8.76042 3.00079 10.6251 2.55571 12.6975 2.36909L13.0468 2.34087L13.4286 2.31494L13.7298 2.29821L14.2441 2.27887L14.6614 2.27024L15.338 2.27013Z" fill="#3E73CF"/>
</svg>
