<svg width="30" height="30" viewBox="0 0 30 30" fill="none" xmlns="http://www.w3.org/2000/svg">
<path fill-rule="evenodd" clip-rule="evenodd" d="M0 15C0 6.75 6.75 0 15 0C23.25 0 30 6.75 30 15C30 23.25 23.25 30 15 30C6.75 30 0 23.25 0 15ZM13.65 20.1L22.2 11.55C22.65 11.1 22.65 10.35 22.35 10.05C21.9 9.6 21.15 9.6 20.7 10.05L13.05 17.7L9.6 14.25C9.15 13.8 8.4 13.8 7.95 14.25C7.5 14.7 7.5 15.45 7.95 15.9L12.15 20.1C12.3 20.25 12.6 20.4 12.9 20.4C13.2 20.4 13.5 20.25 13.65 20.1Z" fill="#3E73CF"/>
</svg>
