<svg width="16" height="16" viewBox="0 0 16 16" fill="none" xmlns="http://www.w3.org/2000/svg">
<path fill-rule="evenodd" clip-rule="evenodd" d="M0 8C0 3.58172 3.58172 0 8 0C12.4161 0.00520982 15.9948 3.58388 16 8C16 12.4183 12.4183 16 8 16C3.58172 16 0 12.4183 0 8ZM8.72727 8.72727H11.6364C12.038 8.72727 12.3636 8.40166 12.3636 8C12.3636 7.59834 12.038 7.27273 11.6364 7.27273H8.72727V4.36364C8.72727 3.96197 8.40166 3.63636 8 3.63636C7.59834 3.63636 7.27273 3.96197 7.27273 4.36364V7.27273H4.36364C3.96197 7.27273 3.63636 7.59834 3.63636 8C3.63636 8.40166 3.96197 8.72727 4.36364 8.72727H7.27273V11.6364C7.27273 12.038 7.59834 12.3636 8 12.3636C8.40166 12.3636 8.72727 12.038 8.72727 11.6364V8.72727Z" fill="white"/>
</svg>
