<svg width="32" height="40" viewBox="0 0 32 40" fill="none" xmlns="http://www.w3.org/2000/svg">
<path d="M23.0772 40.0001C21.3335 40.0002 19.6519 39.0225 18.8419 37.3596L16.4976 32.9484L15.1677 35.4995C15.1336 35.565 15.0948 35.6279 15.0519 35.6879C14.1791 36.9051 12.7431 37.3376 11.6799 37.3376C11.6714 37.3376 11.6628 37.3376 11.6542 37.3376C10.466 37.3297 9.28285 36.8173 8.40835 35.9317C7.50011 35.012 7 33.7911 7 32.4938V12.2628C7 10.4175 8.03457 8.78843 9.69986 8.01123C11.3494 7.24138 13.2351 7.48607 14.634 8.64788L24.8761 16.3129C25.5648 16.8283 25.7073 17.8072 25.1945 18.4993C24.6816 19.1914 23.7076 19.3346 23.0189 18.8192L12.7422 11.1284C12.7168 11.1093 12.6919 11.0895 12.6677 11.0689C11.9644 10.472 11.2209 10.747 11.0096 10.8456C10.7985 10.9441 10.1097 11.3374 10.1097 12.2628V32.4938C10.1097 33.5006 10.9345 34.2078 11.6748 34.2126C11.6771 34.2126 11.6796 34.2126 11.6819 34.2126C11.9845 34.2126 12.3172 34.0867 12.4829 33.9159L15.1073 28.8816C15.3745 28.3688 15.9022 28.0465 16.4783 28.0442C16.4804 28.0442 16.4825 28.0442 16.4845 28.0442C17.0582 28.0442 17.5856 28.3617 17.856 28.8706L21.5993 35.914C21.6099 35.9339 21.62 35.9539 21.6296 35.9743C22.0028 36.7557 22.9433 37.0957 23.726 36.7315C24.1157 36.5504 24.4097 36.227 24.5541 35.8207C24.6941 35.4269 24.6761 35.0037 24.5042 34.6246L20.7264 27.8686C20.4558 27.3848 20.461 26.7931 20.7399 26.3141C21.0187 25.8351 21.5296 25.5407 22.0818 25.5407H27.4124C28.3145 25.4944 28.6746 24.7805 28.764 24.5611C28.8558 24.3362 29.1049 23.5487 28.4612 22.8626C27.8721 22.2347 27.901 21.2458 28.5258 20.6538C29.1506 20.0618 30.1346 20.091 30.7237 20.7188C31.9994 22.0786 32.3512 24.0047 31.6417 25.7456C30.9361 27.4768 29.3506 28.5954 27.5039 28.6647C27.4847 28.6654 27.4653 28.6657 27.4459 28.6657H24.7391L27.242 33.1418C27.2574 33.1693 27.272 33.1972 27.2856 33.2256C27.84 34.3745 27.9099 35.6695 27.4825 36.8719C27.0551 38.0744 26.1848 39.0319 25.0316 39.5679C24.4001 39.8611 23.7341 40 23.0772 40.0001Z" fill="#1886C4"/>
<path opacity="0.5" fill-rule="evenodd" clip-rule="evenodd" d="M16.013 2.0571L15.1578 4.63525C14.9407 5.28994 14.334 5.70409 13.683 5.70409C13.52 5.70409 13.3543 5.67815 13.1912 5.62346C12.3765 5.35065 11.9363 4.46572 12.2078 3.64704L13.063 1.06888C13.3344 0.250203 14.2153 -0.192379 15.0297 0.0806704C15.8443 0.353486 16.2845 1.23842 16.013 2.0571ZM8.75528 6.13613C9.50828 5.7212 9.78387 4.77142 9.37099 4.01477L8.0494 1.59287C7.63652 0.836225 6.69158 0.559269 5.93858 0.974195C5.18559 1.38912 4.91 2.3389 5.32288 3.09555L6.64447 5.51745C6.92729 6.03573 7.45966 6.32894 8.00913 6.32894C8.26178 6.32894 8.51817 6.26691 8.75528 6.13613ZM5.4674 9.68937C5.81155 8.89873 5.45278 7.97739 4.66612 7.63153L2.17842 6.53777C1.39169 6.19183 0.474968 6.55246 0.130732 7.34301C-0.213426 8.13365 0.145347 9.05498 0.932005 9.40085L3.41971 10.4946C3.62253 10.5838 3.83399 10.626 4.0421 10.626C4.64109 10.6259 5.21194 10.2761 5.4674 9.68937ZM19.2727 8.5999L21.3717 7.03738C22.0617 6.52371 22.2067 5.54518 21.6956 4.85174C21.1845 4.15829 20.2107 4.01259 19.5207 4.52619L17.4217 6.0887C16.7317 6.60238 16.5867 7.58091 17.0978 8.27435C17.4028 8.68818 17.8726 8.90694 18.3484 8.90694C18.67 8.90694 18.9944 8.80701 19.2727 8.5999ZM4.62041 16.4514L2.28819 17.3889C2.09881 17.465 1.90345 17.5011 1.7112 17.5011C1.09417 17.5011 0.51034 17.1294 0.267167 16.5184C-0.0517252 15.7172 0.336045 14.8079 1.13335 14.4874L3.46557 13.5499C4.26265 13.2293 5.16763 13.619 5.4866 14.4204C5.80549 15.2215 5.41772 16.1309 4.62041 16.4514Z" fill="#1886C4"/>
</svg>
