<svg width="22" height="22" viewBox="0 0 22 22" fill="none" xmlns="http://www.w3.org/2000/svg">
<path opacity="0.5" d="M2.92572 3.65217C3.21935 3.64937 3.48303 3.47173 3.59593 3.20064C3.70884 2.92955 3.64921 2.61725 3.44438 2.40683L1.24355 0.205939C0.955702 -0.0720867 0.498146 -0.0681105 0.215169 0.214876C-0.0678086 0.497862 -0.0717845 0.955431 0.206232 1.24329L2.40706 3.44418C2.54563 3.57938 2.73213 3.65417 2.92572 3.65217Z" fill="#3E73CF"/>
<path opacity="0.5" d="M0.777265 7.32725H2.19217C2.59733 7.32725 2.92578 6.99879 2.92578 6.59362C2.92578 6.18844 2.59733 5.85999 2.19217 5.85999H0.777265C0.372104 5.85999 0.0436571 6.18844 0.0436571 6.59362C0.0436571 6.99879 0.372104 7.32725 0.777265 7.32725Z" fill="#3E73CF"/>
<path opacity="0.5" d="M6.59452 2.92555C6.99968 2.92555 7.32812 2.59709 7.32812 2.19192V0.776966C7.32812 0.371793 6.99968 0.043335 6.59452 0.043335C6.18936 0.043335 5.86091 0.371793 5.86091 0.776966V2.19192C5.86091 2.38649 5.9382 2.57309 6.07578 2.71067C6.21336 2.84826 6.39995 2.92555 6.59452 2.92555Z" fill="#3E73CF"/>
<path opacity="0.5" d="M0.723022 13.1912C0.916918 13.193 1.10354 13.1175 1.24168 12.9814L3.44251 10.7805C3.72052 10.4927 3.71655 10.0351 3.43357 9.75211C3.15059 9.46912 2.69304 9.46514 2.40518 9.74317L0.204361 11.9441C0.00132751 12.1554 -0.0571871 12.4669 0.0553372 12.7375C0.167861 13.0081 0.430031 13.1862 0.723022 13.1912Z" fill="#3E73CF"/>
<path opacity="0.5" d="M10.2621 3.65481C10.4561 3.65641 10.6428 3.58061 10.7807 3.44418L12.9816 1.24329C13.2596 0.955431 13.2556 0.497862 12.9726 0.214876C12.6897 -0.0681105 12.2321 -0.0720867 11.9442 0.205939L9.74342 2.40683C9.54012 2.61817 9.48144 2.92992 9.59398 3.20072C9.70652 3.47151 9.96888 3.64983 10.2621 3.65481Z" fill="#3E73CF"/>
<path d="M5.5912 5.59179C6.0299 5.14692 6.69116 5.00561 7.27336 5.23232L20.9812 10.4542C21.6143 10.6953 22.0236 11.3128 21.9989 11.9898C21.9743 12.6669 21.5213 13.253 20.8723 13.4474L15.2191 15.1436C15.1823 15.1545 15.1535 15.1832 15.1424 15.2199L13.4467 20.8733C13.2573 21.5255 12.6683 21.9806 11.9895 21.9991C11.3131 22.0219 10.6965 21.6135 10.4535 20.9818L5.23158 7.2732C5.00462 6.69123 5.14604 6.03 5.5912 5.59179Z" fill="#3E73CF"/>
</svg>
