<svg width="14" height="14" viewBox="0 0 14 14" fill="none" xmlns="http://www.w3.org/2000/svg">
<path fill-rule="evenodd" clip-rule="evenodd" d="M0 7C0 3.13401 3.13401 0 7 0C10.8641 0.00455859 13.9954 3.1359 14 7C14 10.866 10.866 14 7 14C3.13401 14 0 10.866 0 7ZM8.45918 9.359C8.70768 9.60742 9.1105 9.60742 9.359 9.359C9.60742 9.1105 9.60742 8.70768 9.359 8.45918L7.63636 6.73655V3.18182C7.63636 2.83036 7.35145 2.54545 7 2.54545C6.64855 2.54545 6.36364 2.83036 6.36364 3.18182V7C6.36367 7.16876 6.43074 7.3306 6.55009 7.44991L8.45918 9.359Z" fill="#D5D5D5"/>
</svg>
