<svg width="14" height="15" viewBox="0 0 14 15" fill="none" xmlns="http://www.w3.org/2000/svg">
<path fill-rule="evenodd" clip-rule="evenodd" d="M11.9497 3.19696C10.7685 2.03019 9.23923 1.33225 7.59322 1.19669V0.585938C7.59322 0.262324 7.32764 0 7 0C6.67236 0 6.40678 0.262324 6.40678 0.585938V1.19669C4.76077 1.33225 3.23154 2.03016 2.05026 3.19693C0.728119 4.50284 0 6.23912 0 8.08594C0 9.93275 0.728119 11.669 2.05026 12.9749C3.37237 14.2808 5.13023 15 7 15C8.50541 15 9.93994 14.5351 11.1485 13.6554C11.4123 13.4635 11.4685 13.0967 11.2742 12.8362C11.0798 12.5756 10.7084 12.5201 10.4447 12.712C9.44149 13.4422 8.25033 13.8281 7 13.8281C3.79439 13.8281 1.18644 11.2522 1.18644 8.08594C1.18644 4.91968 3.79439 2.34375 7 2.34375C10.2056 2.34375 12.8136 4.91968 12.8136 8.08594C12.8136 9.05303 12.5658 10.0089 12.0969 10.8503C11.9389 11.1338 12.0436 11.4901 12.3306 11.6461C12.6175 11.8021 12.9783 11.6989 13.1363 11.4153C13.7013 10.4013 14 9.25005 14 8.08594C14 6.23912 13.2719 4.50284 11.9497 3.19696ZM12.6399 2.75851L11.0292 1.43174C10.7775 1.22446 10.7436 0.855 10.9535 0.606475C11.1633 0.35792 11.5374 0.324492 11.789 0.531738L13.3997 1.85854C13.6514 2.06578 13.6853 2.43527 13.4754 2.6838C13.3581 2.82275 13.1895 2.89447 13.0195 2.89447C12.8855 2.89447 12.7508 2.84988 12.6399 2.75851ZM1.36011 2.75848C1.2492 2.84985 1.11445 2.89444 0.980504 2.89444C0.810576 2.89444 0.641924 2.82272 0.524555 2.68377C0.314733 2.43524 0.348636 2.06575 0.60025 1.85851L2.21102 0.531738C2.46264 0.324492 2.83675 0.357979 3.04654 0.606475C3.25636 0.855 3.22246 1.22449 2.97085 1.43174L1.36011 2.75848ZM9.05569 4.64549C9.26183 4.39392 9.63538 4.3551 9.88999 4.55862C10.1447 4.76215 10.1841 5.13111 9.97794 5.38269L8.10731 7.66588C8.15823 7.79637 8.18644 7.93793 8.18644 8.08594C8.18644 8.73211 7.6542 9.25781 7 9.25781C6.3458 9.25781 5.81356 8.73211 5.81356 8.08594C5.81356 7.43977 6.3458 6.91406 7 6.91406C7.063 6.91406 7.12484 6.91904 7.18523 6.92845L9.05569 4.64549Z" fill="#8C8C8C"/>
</svg>
