<svg width="23" height="15" viewBox="0 0 23 15" fill="none" xmlns="http://www.w3.org/2000/svg">
<path opacity="0.5" d="M22.5 3.53693V2.38636C22.5 1.06841 21.4227 0 20.0938 0H2.90625C1.57731 0 0.5 1.06841 0.5 2.38636V3.53693C0.5 3.65459 0.596207 3.75 0.714844 3.75H22.2852C22.4038 3.75 22.5 3.65459 22.5 3.53693Z" fill="#E3433A"/>
<path fill-rule="evenodd" clip-rule="evenodd" d="M0.5 12.6135V5.32659C0.5 5.20894 0.596207 5.11353 0.714844 5.11353H22.2852C22.4038 5.11353 22.5 5.20894 22.5 5.32659V12.6135C22.5 13.9315 21.4227 14.9999 20.0938 14.9999H2.90625C1.57731 14.9999 0.5 13.9315 0.5 12.6135ZM5.3125 11.5908C5.69217 11.5908 6 11.2855 6 10.909V10.2272C6 9.85063 5.69217 9.54534 5.3125 9.54534H4.625C4.24533 9.54534 3.9375 9.85063 3.9375 10.2272V10.909C3.9375 11.2855 4.24533 11.5908 4.625 11.5908H5.3125Z" fill="#E3433A"/>
</svg>
