<svg width="22" height="15" viewBox="0 0 22 15" fill="none" xmlns="http://www.w3.org/2000/svg">
<path opacity="0.5" d="M22 3.53693V2.38636C22 1.06841 20.9227 0 19.5938 0H2.40625C1.07731 0 0 1.06841 0 2.38636V3.53693C0 3.65459 0.096207 3.75 0.214844 3.75H21.7852C21.9038 3.75 22 3.65459 22 3.53693Z" fill="#3E73CF"/>
<path fill-rule="evenodd" clip-rule="evenodd" d="M0 12.6138V5.32684C0 5.20918 0.096207 5.11377 0.214844 5.11377H21.7852C21.9038 5.11377 22 5.20918 22 5.32684V12.6138C22 13.9317 20.9227 15.0001 19.5938 15.0001H2.40625C1.07731 15.0001 0 13.9317 0 12.6138ZM4.8125 11.591C5.19217 11.591 5.5 11.2858 5.5 10.9092V10.2274C5.5 9.85087 5.19217 9.54559 4.8125 9.54559H4.125C3.74533 9.54559 3.4375 9.85087 3.4375 10.2274V10.9092C3.4375 11.2858 3.74533 11.591 4.125 11.591H4.8125Z" fill="#3E73CF"/>
</svg>
