<svg width="18" height="18" viewBox="0 0 18 18" fill="none" xmlns="http://www.w3.org/2000/svg">
<path fill-rule="evenodd" clip-rule="evenodd" d="M16.3586 7.59424C17.0245 7.59424 17.6194 7.99139 17.8743 8.606C18.1289 9.21986 17.9898 9.9205 17.5201 10.3909L15.217 12.6969C14.9425 12.9717 14.4972 12.972 14.2225 12.6976C13.9477 12.4232 13.9474 11.9779 14.2218 11.7031L16.5249 9.3972C16.6154 9.30656 16.6022 9.20988 16.5752 9.1447C16.5528 9.09087 16.495 9.00058 16.3586 9.00058H14.1686C13.7802 9.00058 13.4654 8.68577 13.4654 8.29741V1.40634H4.71037V8.29737C4.71037 8.68574 4.39555 9.00054 4.00716 9.00054H1.64137C1.50481 9.00054 1.44701 9.09097 1.42471 9.14484C1.39771 9.21009 1.3846 9.30685 1.47534 9.39745L8.54138 16.3862C8.81897 16.6633 9.26688 16.6633 9.54216 16.3885L11.7988 14.1291C12.0733 13.8542 12.5185 13.854 12.7933 14.1284C13.0681 14.4028 13.0684 14.8481 12.794 15.1228L10.5366 17.383C10.1246 17.7943 9.58351 18 9.0427 18C8.502 18 7.96158 17.7946 7.55002 17.3837L0.483989 10.395C0.0107966 9.92261 -0.129143 9.22176 0.125139 8.60719C0.379738 7.99185 0.974903 7.59424 1.64137 7.59424H3.30395V0.70317C3.30395 0.314809 3.61878 0 4.00716 0H14.1686C14.557 0 14.8718 0.314809 14.8718 0.70317V7.59424H16.3586ZM8.29677 11.2843V11.6726C8.29677 12.061 8.61159 12.3758 8.99998 12.3758C9.38836 12.3758 9.70319 12.061 9.70319 11.6726V11.2655C10.6705 11.1309 11.3916 10.339 11.3916 9.35217V8.92467C11.3916 8.39332 11.1836 7.89699 10.8059 7.52709C10.4335 7.16228 9.93764 6.96139 9.40974 6.96139H8.76535C8.45555 6.96139 8.19385 6.68768 8.19385 6.36369V6.10725C8.19385 5.79244 8.43955 5.55505 8.76535 5.55505H9.37472C9.55379 5.55505 9.73906 5.67494 9.73906 5.87555C9.73906 6.26391 10.0539 6.57872 10.4423 6.57872C10.8307 6.57872 11.1455 6.26391 11.1455 5.87555C11.1455 5.03284 10.5231 4.32963 9.70319 4.17898V3.7268C9.70319 3.33844 9.38836 3.02363 8.99998 3.02363C8.61159 3.02363 8.29677 3.33844 8.29677 3.7268V4.20317C7.94871 4.2853 7.62991 4.4588 7.37137 4.7118C6.9948 5.08023 6.78742 5.57582 6.78742 6.10725V6.36369C6.78742 7.46872 7.6747 8.36773 8.76535 8.36773H9.40978C9.73248 8.36773 9.98522 8.61236 9.98522 8.92467V9.35217C9.98522 9.69841 9.69574 9.87954 9.40978 9.87954H8.36252C8.19501 9.87954 8.01478 9.78328 8.01478 9.57194C8.01478 9.18358 7.69995 8.86877 7.31156 8.86877C6.92318 8.86877 6.60835 9.18358 6.60835 9.57194C6.60835 10.5114 7.34482 11.2516 8.29677 11.2843Z" fill="currentColor"/>
</svg>
