<svg width="18" height="20" viewBox="0 0 18 20" fill="none" xmlns="http://www.w3.org/2000/svg">
<path fill-rule="evenodd" clip-rule="evenodd" d="M7.64524 18.4375H3.13827C2.2731 18.4375 1.56484 17.7365 1.56484 16.875V5.07812C1.56484 4.21661 2.2731 3.51562 3.13827 3.51562H5.60536V3.90625C5.60536 5.19867 6.66116 6.25 7.95906 6.25C9.25682 6.25 10.3128 5.19867 10.3128 3.90625V3.51562H12.7841C13.6493 3.51562 14.3533 4.21661 14.3533 5.07812V11.0938C14.3533 11.5253 14.7045 11.875 15.1378 11.875C15.571 11.875 15.9224 11.5253 15.9224 11.0938V5.07812C15.9224 3.35495 14.5145 1.95312 12.7841 1.95312H10.3128V0.78125C10.3128 0.349731 9.96139 0 9.5282 0H6.38993C5.95658 0 5.60536 0.349731 5.60536 0.78125V1.95312H3.13827C1.40778 1.95312 0 3.35495 0 5.07812V16.875C0 18.5982 1.40778 20 3.13827 20H7.64524C8.07843 20 8.4298 19.6503 8.4298 19.2188C8.4298 18.7872 8.07843 18.4375 7.64524 18.4375ZM7.1745 1.5625H8.74363V3.90625C8.74363 4.33701 8.39165 4.6875 7.95906 4.6875C7.52632 4.6875 7.1745 4.33701 7.1745 3.90625V1.5625ZM13.9705 19.2149L17.8533 13.8142C18.1056 13.4633 18.0243 12.9753 17.6721 12.7242C17.3196 12.473 16.8296 12.5539 16.5775 12.9047L12.7103 18.2835C12.6047 18.4055 12.4723 18.4319 12.4014 18.4366C12.3281 18.4412 12.1867 18.432 12.0652 18.3168L9.5616 15.9232C9.249 15.6241 8.75221 15.6343 8.45233 15.9454C8.15214 16.2567 8.16225 16.7513 8.4747 17.05L10.9809 19.4463C11.3561 19.8021 11.8572 20 12.3727 20C12.417 20 12.4614 19.9985 12.5059 19.9956C13.0673 19.9583 13.5915 19.6864 13.9441 19.2496C13.9532 19.2383 13.9619 19.2267 13.9705 19.2149ZM5.40922 9.33594C5.40922 9.76746 5.05785 10.1172 4.62465 10.1172H4.23237C3.79902 10.1172 3.4478 9.76746 3.4478 9.33594C3.4478 8.90442 3.79902 8.55469 4.23237 8.55469H4.62465C5.05785 8.55469 5.40922 8.90442 5.40922 9.33594ZM11.7642 10.1172C12.1974 10.1172 12.5488 9.76746 12.5488 9.33594C12.5488 8.90442 12.1974 8.55469 11.7642 8.55469H7.37064C6.93729 8.55469 6.58607 8.90442 6.58607 9.33594C6.58607 9.76746 6.93729 10.1172 7.37064 10.1172H11.7642ZM5.40922 12.4609C5.40922 12.8925 5.05785 13.2422 4.62465 13.2422H4.23237C3.79902 13.2422 3.4478 12.8925 3.4478 12.4609C3.4478 12.0294 3.79902 11.6797 4.23237 11.6797H4.62465C5.05785 11.6797 5.40922 12.0294 5.40922 12.4609ZM11.7642 13.2422C12.1974 13.2422 12.5488 12.8925 12.5488 12.4609C12.5488 12.0294 12.1974 11.6797 11.7642 11.6797H7.37064C6.93729 11.6797 6.58607 12.0294 6.58607 12.4609C6.58607 12.8925 6.93729 13.2422 7.37064 13.2422H11.7642Z" fill="currentColor"/>
</svg>
