<svg width="18" height="18" viewBox="0 0 18 18" fill="none" xmlns="http://www.w3.org/2000/svg">
<path fill-rule="evenodd" clip-rule="evenodd" d="M15.5052 0.257423C15.8485 -0.0858076 16.405 -0.0858076 16.7482 0.257423L17.7426 1.25182C18.0858 1.59505 18.0858 2.15154 17.7426 2.49477L16.8725 3.36485L14.6352 1.1275L15.5052 0.257423ZM7.3017 8.46099C7.2438 8.51889 7.20021 8.58945 7.17433 8.66711L6.42853 10.9044C6.36535 11.0939 6.41468 11.3028 6.5559 11.4441C6.69716 11.5853 6.90606 11.6346 7.09555 11.5714L9.33289 10.8257C9.41059 10.7998 9.48111 10.7562 9.53901 10.6983L16.1267 4.11062L13.8894 1.87331L7.3017 8.46099ZM10.2848 11.4441C10.1118 11.6169 9.89806 11.749 9.66642 11.8262L7.42904 12.572C7.26757 12.6259 7.09917 12.6532 6.9288 12.6532H6.92877C6.50615 12.6532 6.10889 12.4887 5.81009 12.1898C5.38361 11.7632 5.23722 11.143 5.42795 10.5709L6.17375 8.33358C6.25092 8.10187 6.38311 7.88798 6.5559 7.71519L11.3883 2.88282H1.93359C0.86741 2.88282 0 3.75023 0 4.81641V16.0664C0 17.1326 0.86741 18 1.93359 18H13.1836C14.2498 18 15.1172 17.1326 15.1172 16.0664V6.6117L10.2848 11.4441Z" fill="#3E73CF"/>
</svg>
