<svg width="18" height="18" viewBox="0 0 18 18" fill="none" xmlns="http://www.w3.org/2000/svg">
<path fill-rule="evenodd" clip-rule="evenodd" d="M17.506 5.97635C17.5597 6.0474 17.598 6.12534 17.6212 6.20613C17.8653 6.62969 18 7.11519 17.9999 7.61149V9.07185C17.9999 9.46015 17.6852 9.77486 17.2968 9.77486C16.9085 9.77486 16.5937 9.46011 16.5937 9.07185V7.61149C16.5937 7.59058 16.5932 7.56973 16.5922 7.54892L10.538 12.1281C10.5209 12.141 10.5033 12.1531 10.4851 12.1645C10.0271 12.4492 9.51348 12.5916 8.99993 12.5916C8.48635 12.5916 7.97281 12.4493 7.51475 12.1645C7.49759 12.1537 7.48085 12.1423 7.46464 12.1302L3.26995 8.99011C2.95912 8.75737 2.89579 8.3168 3.12853 8.00602C3.36127 7.69524 3.80196 7.63188 4.11279 7.86462L8.28079 10.9848C8.72644 11.2503 9.27198 11.2505 9.7178 10.9856L15.8506 6.34689L9.71496 1.60436C9.27107 1.34192 8.72894 1.34192 8.28505 1.60436L1.95242 6.49915C1.61047 6.76353 1.40628 7.17935 1.40628 7.61153V15.1879C1.40628 15.9632 2.03713 16.5939 2.81253 16.5939H11.4609C11.8493 16.5939 12.1641 16.9086 12.1641 17.2969C12.1641 17.6852 11.8493 18 11.4609 18H2.81253C1.26169 18 3.51623e-05 16.7385 0 15.188V7.61153C0 6.74714 0.40834 5.91549 1.09232 5.38681L7.45606 0.467972C7.47494 0.453348 7.49456 0.439707 7.51482 0.427121C8.43087 -0.142374 9.56903 -0.142374 10.4851 0.427121C10.5054 0.439742 10.525 0.453348 10.5439 0.467972L16.9077 5.38681C17.0802 5.52019 17.2351 5.67277 17.3704 5.84033C17.4205 5.87833 17.4662 5.92375 17.506 5.97635ZM15.7174 11.3991L17.7936 13.4712C18.0684 13.7455 18.0689 14.1906 17.7945 14.4654C17.6572 14.6029 17.477 14.6717 17.2969 14.6717C17.1171 14.6717 16.9374 14.6032 16.8001 14.4663L15.6797 13.348V17.297C15.6797 17.6853 15.3649 18 14.9765 18C14.5882 18 14.2734 17.6852 14.2734 17.297V13.348L13.153 14.4663C12.8781 14.7406 12.433 14.7402 12.1586 14.4654C11.8842 14.1906 11.8846 13.7455 12.1595 13.4712L14.2361 11.3987C14.6442 10.9907 15.3089 10.9907 15.7174 11.3991Z" fill="white"/>
</svg>
