<svg width="22" height="19" viewBox="0 0 22 19" fill="none" xmlns="http://www.w3.org/2000/svg">
<path fill-rule="evenodd" clip-rule="evenodd" d="M22 14.8714V7.24612C22 6.78073 21.6153 6.40355 21.1406 6.40355C20.666 6.40355 20.2812 6.78073 20.2812 7.24612V8.08869H18.5625V6.31929C18.5625 6.09581 18.472 5.88155 18.3109 5.72357L16.1625 3.61714C16.0012 3.45899 15.7826 3.37029 15.5547 3.37029H11.9453V1.68514H14.0938C14.5684 1.68514 14.9531 1.30796 14.9531 0.842572C14.9531 0.377183 14.5684 0 14.0938 0H8.07812C7.60345 0 7.21875 0.377183 7.21875 0.842572C7.21875 1.30796 7.60345 1.68514 8.07812 1.68514H10.2266V3.37029H6.53125C6.30331 3.37029 6.08478 3.45899 5.92348 3.61714L3.73207 5.76569C3.57094 5.92368 3.48047 6.13794 3.48047 6.36142V9.77384H1.71875V7.70953C1.71875 7.24414 1.33405 6.86696 0.859375 6.86696C0.384705 6.86696 0 7.24414 0 7.70953V13.5654C0 14.0308 0.384705 14.408 0.859375 14.408C1.33405 14.408 1.71875 14.0308 1.71875 13.5654V11.459H3.48047V14.3659C3.48047 14.591 3.57228 14.8067 3.7356 14.9649L6.7001 17.8397C7.47186 18.5879 8.49455 19 9.57985 19H17.7031C18.1778 19 18.5625 18.6228 18.5625 18.1574V16.5565C18.5625 16.0912 18.1778 15.714 17.7031 15.714C17.2285 15.714 16.8438 16.0912 16.8438 16.5565V17.3149H9.57985C8.95009 17.3149 8.35658 17.0757 7.90877 16.6415L5.19922 14.0142V6.71046L6.88725 5.05543H15.1987L16.8438 6.66833V8.93126C16.8438 9.39665 17.2285 9.77384 17.7031 9.77384H20.2812V12.3437H17.7031C17.2285 12.3437 16.8438 12.7209 16.8438 13.1863C16.8438 13.6516 17.2285 14.0288 17.7031 14.0288H20.2812V14.8714C20.2812 15.3368 20.666 15.714 21.1406 15.714C21.6153 15.714 22 15.3368 22 14.8714ZM9.72 15.2719C9.56978 15.2726 9.45245 15.1939 9.45312 15.0613C9.45329 15.0295 9.46152 14.9942 9.47948 14.9557L10.6343 12.2594H8.90796C8.24312 12.2594 7.823 11.5681 8.14661 11.0026L9.76884 8.04492C9.83934 7.91623 9.97647 7.83592 10.1255 7.83592H12.2214C12.5355 7.83592 12.7302 8.1713 12.5695 8.43609L11.6044 10.0266H13.5946C14.135 10.0266 14.4194 10.6506 14.0672 11.0499L10.0105 15.1582C9.93703 15.2301 9.82541 15.2716 9.72 15.2719Z" fill="white"/>
</svg>
