<svg width="18" height="18" viewBox="0 0 18 18" fill="none" xmlns="http://www.w3.org/2000/svg">
<path d="M3.6 0C1.61177 0 0 1.61177 0 3.6V8.1H9.52722L7.46361 6.0364C7.11216 5.68492 7.11216 5.11508 7.46361 4.7636C7.81506 4.41213 8.38494 4.41213 8.73639 4.7636L12.3358 8.36298L12.3422 8.36955C12.4257 8.45442 12.4888 8.5518 12.5317 8.65548C12.5754 8.76087 12.5996 8.87625 12.6 8.9973V9V9.0027C12.5993 9.24714 12.5011 9.46872 12.3422 9.63045L12.3358 9.63702L8.73639 13.2364C8.38494 13.5878 7.81506 13.5878 7.46361 13.2364C7.11216 12.8849 7.11216 12.3151 7.46361 11.9636L9.52722 9.9H0V14.4C0 16.3882 1.61177 18 3.6 18H14.4C16.3882 18 18 16.3882 18 14.4V3.6C18 1.61177 16.3882 0 14.4 0H3.6Z" fill="#D5D5D5"/>
</svg>
