<svg width="16" height="13" viewBox="0 0 16 13" fill="none" xmlns="http://www.w3.org/2000/svg">
<path fill-rule="evenodd" clip-rule="evenodd" d="M2.69786 10.7597C4.27488 12.2462 6.0604 13 8.00474 13C9.66428 13 11.2173 12.4451 12.6203 11.3511C12.8999 11.1329 12.9626 10.7119 12.7602 10.4104C12.558 10.1091 12.1673 10.0415 11.8877 10.2595C10.7022 11.184 9.39585 11.6527 8.00474 11.6527C4.22654 11.6527 2.06407 8.22431 1.3098 6.75026C1.23069 6.59566 1.23143 6.41119 1.31175 6.25698C2.08091 4.78069 4.27281 1.34708 8.00474 1.34708C11.737 1.34708 13.9223 4.78122 14.6887 6.25764C14.7685 6.41145 14.7693 6.59539 14.6906 6.74973C14.5351 7.05473 14.2745 7.5284 13.9153 8.05352C13.7105 8.35299 13.7696 8.77469 14.0475 8.99548C14.3253 9.21613 14.7165 9.15245 14.9212 8.85298C15.3213 8.26825 15.6123 7.73932 15.786 7.39853C16.0737 6.83434 16.0711 6.16198 15.7794 5.59989C15.3984 4.86582 14.5676 3.45361 13.2842 2.2439C11.7048 0.754985 9.92844 0 8.00474 0C6.08177 0 4.30479 0.754327 2.72325 2.24219C1.43797 3.45151 0.604474 4.86345 0.222028 5.59739C-0.0716726 6.16106 -0.074114 6.83526 0.215437 7.40103C0.591535 8.13602 1.41417 9.54967 2.69786 10.7597ZM8.0001 2.526C10.0331 2.526 11.687 4.30873 11.687 6.5C11.687 8.69127 10.0331 10.4739 8.0001 10.4739C5.96726 10.4739 4.31333 8.69127 4.31333 6.5C4.31333 4.30873 5.96714 2.526 8.0001 2.526ZM10.4372 6.5C10.4372 7.94839 9.34397 9.12679 8.0001 9.12679C6.65635 9.12679 5.56309 7.94839 5.56309 6.5C5.56309 5.05161 6.65635 3.87321 8.0001 3.87321C9.34397 3.87321 10.4372 5.05161 10.4372 6.5ZM7.82859 5.69883C7.8397 6.21645 8.22178 6.64829 8.70103 6.68289C8.71934 6.68421 8.73752 6.685 8.75559 6.68513C9.0283 6.68829 9.18711 7.01407 9.03379 7.25709C8.79185 7.64024 8.37144 7.88195 7.90134 7.843C7.29282 7.79261 6.801 7.26235 6.75413 6.60645C6.718 6.09974 6.94224 5.6466 7.29783 5.38581C7.52341 5.22042 7.82542 5.392 7.82835 5.68607L7.82859 5.69883Z" fill="currentColor"/>
</svg>
