<svg width="18" height="16" viewBox="0 0 18 16" fill="none" xmlns="http://www.w3.org/2000/svg">
<path fill-rule="evenodd" clip-rule="evenodd" d="M10.1781 3.82878H0.703125C0.314789 3.82878 0 3.50948 0 3.11557C0 2.72166 0.314789 2.40236 0.703125 2.40236H10.1781C10.4973 1.02699 11.7189 0 13.1729 0C14.6268 0 15.8484 1.02696 16.1677 2.40236H17.2969C17.6852 2.40236 18 2.72166 18 3.11557C18 3.50948 17.6852 3.82878 17.2969 3.82878H16.1677C15.8485 5.20411 14.6269 6.2311 13.1729 6.2311C11.7189 6.2311 10.4974 5.20415 10.1781 3.82878ZM14.8428 3.11557C14.8428 2.18418 14.0936 1.42643 13.1729 1.42643C12.2521 1.42643 11.503 2.18418 11.503 3.11557C11.503 4.04696 12.2521 4.80468 13.1729 4.80468C14.0936 4.80468 14.8428 4.04696 14.8428 3.11557ZM7.82188 7.28951H17.2969C17.6852 7.28951 18 7.60882 18 8.00273C18 8.39664 17.6852 8.71594 17.2969 8.71594H7.82191C7.50266 10.0913 6.28109 11.1183 4.82713 11.1183C3.37317 11.1183 2.15156 10.0913 1.83234 8.71594H0.703125C0.314789 8.71594 0 8.39664 0 8.00273C0 7.60882 0.314789 7.28951 0.703125 7.28951H1.83231C2.15153 5.91419 3.37314 4.88719 4.82709 4.88719C6.28105 4.88719 7.50262 5.91415 7.82188 7.28951ZM3.15724 8.00273C3.15724 8.93411 3.90635 9.69187 4.82713 9.69187C5.74787 9.69187 6.49698 8.93411 6.49698 8.00273C6.49698 7.07134 5.74787 6.31362 4.82713 6.31362C3.90635 6.31362 3.15724 7.07134 3.15724 8.00273ZM16.1684 12.1767H17.2969C17.6852 12.1767 18 12.496 18 12.8899C18 13.2838 17.6852 13.6031 17.2969 13.6031H15.5458C15.1574 13.6031 14.8427 13.2838 14.8427 12.8899V12.8693C14.8318 11.9489 14.0834 11.2008 13.1729 11.2008C12.2522 11.2008 11.5031 11.9585 11.5031 12.8899C11.5031 13.7753 12.1861 14.5156 13.0581 14.5751C13.4455 14.6016 13.7384 14.9417 13.7123 15.3347C13.6873 15.7114 13.3783 16 13.0115 16C12.9956 16 12.9797 15.9994 12.9636 15.9984C11.597 15.905 10.4822 14.9044 10.1786 13.6031H0.703125C0.314789 13.6031 0 13.2838 0 12.8899C0 12.496 0.314789 12.1767 0.703125 12.1767H10.1781C10.4973 10.8013 11.7189 9.77435 13.1729 9.77435C13.9888 9.77435 14.7574 10.0945 15.3372 10.676C15.7539 11.0939 16.0383 11.6117 16.1684 12.1767Z" fill="currentColor"/>
</svg>
