<svg width="18" height="18" viewBox="0 0 18 18" fill="none" xmlns="http://www.w3.org/2000/svg">
<path fill-rule="evenodd" clip-rule="evenodd" d="M13.9091 0H4.09091C1.83156 0 0 1.83156 0 4.09091V13.9091C0 14.9941 0.431005 16.0346 1.1982 16.8018C1.96539 17.569 3.00593 18 4.09091 18H13.9091C16.1684 18 18 16.1684 18 13.9091V4.09091C18 1.83156 16.1684 0 13.9091 0ZM13.9091 13.0909H12.0436C11.7489 13.5877 11.214 13.8922 10.6364 13.8922C10.0587 13.8922 9.52386 13.5877 9.22909 13.0909H4.09091C3.63904 13.0909 3.27273 12.7246 3.27273 12.2727C3.27273 11.8209 3.63904 11.4545 4.09091 11.4545H9.22909C9.52386 10.9578 10.0587 10.6532 10.6364 10.6532C11.214 10.6532 11.7489 10.9578 12.0436 11.4545H13.9091C14.361 11.4545 14.7273 11.8209 14.7273 12.2727C14.7273 12.7246 14.361 13.0909 13.9091 13.0909ZM13.9091 6.54545H8.77091C8.47614 7.04223 7.94129 7.34679 7.36364 7.34679C6.78599 7.34679 6.25113 7.04223 5.95636 6.54545H4.09091C3.63904 6.54545 3.27273 6.17914 3.27273 5.72727C3.27273 5.2754 3.63904 4.90909 4.09091 4.90909H5.95636C6.25113 4.41231 6.78599 4.10775 7.36364 4.10775C7.94129 4.10775 8.47614 4.41231 8.77091 4.90909H13.9091C14.361 4.90909 14.7273 5.2754 14.7273 5.72727C14.7273 6.17914 14.361 6.54545 13.9091 6.54545Z" fill="#D5D5D5"/>
</svg>
