<svg width="18" height="14" viewBox="0 0 18 14" fill="none" xmlns="http://www.w3.org/2000/svg">
<path d="M14.6471 3.43834H8.15294L6.86118 1.92831C6.81772 1.87693 6.7526 1.84812 6.68471 1.8502H1.44529C0.645353 1.85593 0 2.49535 0 3.28213V12.5697C0.000970588 13.3592 0.651441 13.9989 1.45412 13.9999H14.6471C15.4497 13.9989 16.1002 13.3592 16.1012 12.5697V4.86853C16.1002 4.07906 15.4497 3.43929 14.6471 3.43834Z" fill="white"/>
<path d="M16.555 1.58824H10.0592L8.76739 0.0782107C8.72394 0.0268349 8.65882 -0.00197717 8.59092 0.000105631H3.35327C2.62745 0.00127721 2.01369 0.52866 1.91504 1.2359H6.6921C6.9426 1.23529 7.18044 1.34403 7.34151 1.5327L8.44445 2.8223H14.6474C15.7947 2.82421 16.7243 3.73852 16.7262 4.86692V12.1359C17.4536 12.0466 17.9998 11.4388 18.0003 10.7179V3.0167C17.9984 2.23126 17.3536 1.59397 16.555 1.58824Z" fill="white"/>
</svg>
