<svg width="26" height="26" viewBox="0 0 26 26" fill="none" xmlns="http://www.w3.org/2000/svg">
<path d="M26 6.17091V6.83391C26 7.38456 25.5718 7.85351 25.0214 7.8731C24.4436 7.89367 23.9688 7.43142 23.9688 6.85829V6.18726C23.9688 5.63159 23.5179 5.18102 22.9621 5.18107C22.9591 5.18107 11.0728 5.18259 11.0728 5.18259C10.4544 5.1827 9.95312 4.68151 9.95312 4.06323C9.95312 2.94357 9.04211 2.03248 7.92233 2.03228L4.06214 2.03096C2.94247 2.03096 2.03125 2.94204 2.03125 4.06191V7.21203L13.9648 7.21182C15.3124 7.26544 15.3113 9.18962 13.9648 9.24278L2.03125 9.24298V19.8056C2.03125 20.9272 2.94069 21.8365 4.0625 21.8365H9.47172C10.0224 21.8365 10.4915 22.2647 10.5111 22.815C10.5316 23.3927 10.0693 23.8675 9.49609 23.8675H4.0625C1.81883 23.8675 0 22.0489 0 19.8056V4.06191C0 1.82217 1.82244 0 4.0625 0L7.92289 0.00126935C9.84836 0.00167554 11.4653 1.34886 11.8808 3.14991C11.8808 3.14991 22.97 3.15006 22.9784 3.15006C24.647 3.15012 26 4.50258 26 6.17091Z" fill="#F42C2C"/>
<path opacity="0.5" fill-rule="evenodd" clip-rule="evenodd" d="M26 21.9381V13.1034C26 10.8637 24.1776 9.0415 21.9374 9.0415H18.8323C17.7472 9.0415 16.727 9.46404 15.9598 10.2312L13.6313 12.5594C12.864 13.3266 12.4414 14.3466 12.4414 15.4316V21.9381C12.4414 24.1778 14.2638 26 16.5039 26H21.9375C24.1776 26 26 24.1778 26 21.9381ZM21.9375 11.0725C23.0575 11.0725 23.9688 11.9835 23.9688 13.1034H23.9688V21.9381C23.9688 23.0579 23.0576 23.969 21.9376 23.969H16.504C15.3839 23.969 14.4727 23.0579 14.4727 21.9381V16.6068H17.4148C18.8166 16.6068 19.9571 15.4665 19.9571 14.0649C19.9571 13.504 19.5024 13.0494 18.9415 13.0494C18.3805 13.0494 17.9258 13.504 17.9258 14.0649C17.9258 14.3466 17.6966 14.5759 17.4148 14.5759H14.6606C14.7597 14.3628 14.8965 14.1665 15.0676 13.9954L17.3961 11.6673C17.7797 11.2837 18.2898 11.0725 18.8324 11.0725H21.9375Z" fill="#F42C2C"/>
</svg>
