<svg width="18" height="18" viewBox="0 0 18 18" fill="none" xmlns="http://www.w3.org/2000/svg">
<path fill-rule="evenodd" clip-rule="evenodd" d="M15.8906 6.53906H15.5365C15.4433 6.53906 15.3589 6.48042 15.3224 6.39185L15.316 6.3766C15.2781 6.28542 15.2963 6.18393 15.3622 6.11815L15.6125 5.86766C16.435 5.0452 16.435 3.70706 15.6125 2.8846L15.1154 2.38747C14.7169 1.98907 14.1872 1.76962 13.6237 1.76962C13.0604 1.76962 12.5306 1.98907 12.1322 2.38747L11.8819 2.63782C11.8159 2.70374 11.7143 2.72173 11.6236 2.6841L11.6104 2.6786C11.5196 2.64111 11.461 2.55666 11.461 2.46355V2.10938C11.461 0.946198 10.5146 0 9.35158 0H8.64846C7.48529 0 6.53909 0.946198 6.53909 2.10938V2.46355C6.53909 2.55666 6.48045 2.64111 6.39036 2.67819L6.37663 2.68396C6.28544 2.72173 6.18396 2.70374 6.11804 2.63782L5.86769 2.38747C5.4693 1.98907 4.93962 1.76962 4.37616 1.76962C3.8127 1.76962 3.28303 1.98907 2.88463 2.38747L2.3875 2.8846C1.56504 3.70706 1.56504 5.04533 2.3875 5.8678L2.63785 6.11815C2.70377 6.18407 2.72176 6.28555 2.6829 6.37935L2.67864 6.38965C2.64115 6.48042 2.55669 6.53906 2.46358 6.53906H2.10941C0.946239 6.53906 4.39346e-05 7.4854 4.39346e-05 8.64844V9.35156C4.39346e-05 10.278 0.593579 11.0869 1.47688 11.3643C1.84725 11.4806 2.24194 11.2746 2.35839 10.9042C2.47471 10.5337 2.26872 10.139 1.8982 10.0227C1.60391 9.93027 1.40629 9.66055 1.40629 9.35156V8.64844C1.40629 8.26076 1.72173 7.94531 2.10941 7.94531H2.46358C3.12812 7.94531 3.72275 7.54541 3.97928 6.92413L3.98258 6.91617C4.23966 6.29723 4.10219 5.59369 3.63225 5.12375L3.3819 4.8734C3.10766 4.59929 3.10766 4.15324 3.3819 3.879L3.87903 3.38187C4.01183 3.24907 4.18843 3.17587 4.37616 3.17587C4.56403 3.17587 4.7405 3.24893 4.87343 3.38187L5.12378 3.63222C5.59386 4.10216 6.29739 4.23962 6.91647 3.98241L6.92636 3.97829C7.5453 3.72272 7.94534 3.12808 7.94534 2.46355V2.10938C7.94534 1.72169 8.26078 1.40625 8.64846 1.40625H9.35158C9.73926 1.40625 10.0547 1.72169 10.0547 2.10938V2.46355C10.0547 3.12822 10.4546 3.72272 11.0744 3.9787L11.0838 3.98268C11.7028 4.23962 12.4063 4.10216 12.8763 3.63222L13.1266 3.38187C13.2594 3.24907 13.436 3.17587 13.6239 3.17587C13.8116 3.17587 13.9882 3.24907 14.121 3.38187L14.6181 3.879C14.8924 4.15324 14.8924 4.59929 14.6183 4.8734L14.3678 5.12375C13.8979 5.59369 13.7604 6.29723 14.0164 6.91356L14.0217 6.92647C14.2773 7.54541 14.8718 7.94531 15.5365 7.94531H15.8906C16.2783 7.94531 16.5938 8.26076 16.5938 8.64844V9.35156C16.5938 9.73924 16.2783 10.0547 15.8906 10.0547H15.5365C14.8718 10.0547 14.2773 10.4546 14.0216 11.0735L14.0171 11.0847C13.7604 11.7033 13.898 12.4064 14.3678 12.8763L14.6181 13.1266C14.7509 13.2594 14.8241 13.436 14.8241 13.6237C14.8241 13.8116 14.7509 13.9882 14.6181 14.121L14.121 14.6181C13.9882 14.7509 13.8116 14.8241 13.6237 14.8241C13.4359 14.8241 13.2594 14.7509 13.1266 14.6181L12.8761 14.3678C12.4062 13.8978 11.7027 13.7604 11.0836 14.0175L11.0735 14.0216C10.4546 14.2771 10.0547 14.8718 10.0547 15.5365V15.8906C10.0547 16.2783 9.73926 16.5938 9.35158 16.5938H8.64846C8.35636 16.5938 8.09145 16.41 7.98928 16.1367C7.85346 15.7729 7.44848 15.5882 7.08456 15.7242C6.72078 15.8601 6.53607 16.2651 6.67216 16.6289C6.97854 17.4489 7.77272 18 8.64846 18H9.35158C10.5146 18 11.461 17.0537 11.461 15.8906V15.5365C11.461 15.4433 11.5196 15.3589 11.6095 15.3217L11.6234 15.316C11.7146 15.2781 11.8161 15.2963 11.8819 15.3622L12.1322 15.6125C12.5306 16.0109 13.0604 16.2304 13.6239 16.2304C14.1872 16.2304 14.717 16.0109 15.1154 15.6125L15.6125 15.1153C16.0109 14.7169 16.2304 14.1872 16.2304 13.6237C16.2304 13.0604 16.0109 12.5306 15.6125 12.1322L15.3622 11.8819C15.2963 11.8159 15.2783 11.7144 15.316 11.6233L15.3214 11.6105C15.3589 11.5196 15.4433 11.4609 15.5365 11.4609H15.8906C17.0537 11.4609 18 10.5147 18 9.35156V8.64844C18 7.48526 17.0537 6.53906 15.8906 6.53906ZM11.6719 9C11.6719 7.52673 10.4733 6.32812 9.00002 6.32812C7.94726 6.32812 6.98692 6.96382 6.55351 7.94751C6.39682 8.30292 5.98181 8.464 5.62654 8.30745C5.27113 8.15089 5.11005 7.73589 5.2666 7.38048C5.92468 5.88689 7.39012 4.92188 9.00002 4.92188C11.2486 4.92188 13.0781 6.75137 13.0781 9C13.0781 10.6311 12.11 12.1019 10.6118 12.747C10.5212 12.786 10.4269 12.8046 10.334 12.8046C10.0617 12.8046 9.80257 12.6454 9.6879 12.3793C9.53437 12.0226 9.69903 11.609 10.0557 11.4554C11.0374 11.0326 11.6719 10.0688 11.6719 9ZM4.03778 17.0083L7.88999 13.1634C8.71246 12.3409 8.71246 11.0028 7.88999 10.1803C7.06753 9.35788 5.7294 9.35788 4.90749 10.1798L1.04718 14.0315C0.965191 14.1132 0.904766 14.214 0.87112 14.3248L0.0303936 17.0925C-0.0441759 17.3379 0.0207806 17.6044 0.199857 17.7878C0.334027 17.9254 0.516263 18 0.703167 18C0.765789 18 0.828823 17.9916 0.890896 17.9745L3.72879 17.1882C3.84566 17.156 3.95209 17.094 4.03778 17.0083ZM5.76456 13.298L4.77002 12.3035L2.16531 14.9023L1.74742 16.2779L3.17522 15.8824L5.76456 13.298ZM5.90134 11.1746C6.17544 10.9005 6.62149 10.9005 6.8956 11.1746C7.16984 11.4489 7.16984 11.8949 6.89615 12.1686L6.75992 12.3046L5.76552 11.3102L5.90134 11.1746Z" fill="currentColor"/>
</svg>
