<svg width="48" height="48" viewBox="0 0 48 48" fill="none" xmlns="http://www.w3.org/2000/svg">
<rect width="48" height="48" rx="10" fill="#DC4C39"/>
<path d="M14 24C14 18.486 18.486 14 24 14C26.227 14 28.3348 14.7165 30.0956 16.072L27.7718 19.0907C26.683 18.2526 25.3788 17.8095 24 17.8095C20.5866 17.8095 17.8095 20.5866 17.8095 24C17.8095 27.4134 20.5866 30.1905 24 30.1905C26.7492 30.1905 29.0855 28.3892 29.8907 25.9048H24V22.0952H34V24C34 29.514 29.514 34 24 34C18.486 34 14 29.514 14 24Z" fill="white"/>
</svg>
