<svg width="20" height="20" viewBox="0 0 20 20" fill="none" xmlns="http://www.w3.org/2000/svg">
<path fill-rule="evenodd" clip-rule="evenodd" d="M8.79446 18.4375H3.15525C2.28534 18.4375 1.57762 17.7366 1.57762 16.875V5.01859C1.57762 4.15703 2.28534 3.45609 3.15525 3.45609H4.93717V3.93137C4.93717 4.36285 5.29032 4.71262 5.72598 4.71262H9.80367C10.2393 4.71262 10.5925 4.36285 10.5925 3.93137V3.45609H12.3744C13.2443 3.45609 13.952 4.15703 13.952 5.01859V7.5634C13.952 7.99488 14.3052 8.34465 14.7408 8.34465C15.1765 8.34465 15.5296 7.99488 15.5296 7.5634V5.01859C15.5296 3.29547 14.1142 1.89359 12.3744 1.89359H10.5925V0.78125C10.5925 0.349766 10.2393 0 9.80367 0H5.72598C5.29032 0 4.93717 0.349766 4.93717 0.78125V1.89359H3.15525C1.41544 1.89359 0 3.29547 0 5.01859V16.875C0 18.5981 1.41544 20 3.15525 20H8.79446C9.23008 20 9.58327 19.6502 9.58327 19.2188C9.58327 18.7873 9.23008 18.4375 8.79446 18.4375ZM6.51479 1.5625H9.01485V3.15012H6.51479V1.5625ZM12.2415 8.19176C12.2415 7.76027 11.8884 7.41051 11.4527 7.41051H4.07693C3.64127 7.41051 3.28812 7.76027 3.28812 8.19176C3.28812 8.62324 3.64127 8.97301 4.07693 8.97301H11.4527C11.8884 8.97301 12.2415 8.62324 12.2415 8.19176ZM8.26647 10.7905C8.70213 10.7905 9.05528 11.1403 9.05528 11.5718C9.05528 12.0033 8.70213 12.353 8.26647 12.353H4.07693C3.64127 12.353 3.28812 12.0033 3.28812 11.5718C3.28812 11.1403 3.64127 10.7905 4.07693 10.7905H8.26647ZM3.28812 14.9518C3.28812 14.5203 3.64127 14.1705 4.07693 14.1705H7.43944C7.8751 14.1705 8.22825 14.5203 8.22825 14.9518C8.22825 15.3833 7.8751 15.733 7.43944 15.733H4.07693C3.64127 15.733 3.28812 15.3833 3.28812 14.9518ZM9.80587 14.9518C9.80587 12.1682 12.0924 9.90359 14.9029 9.90359C17.7135 9.90359 20 12.1682 20 14.9518C20 17.7354 17.7135 20 14.9029 20C12.0924 20 9.80587 17.7354 9.80587 14.9518ZM11.3835 14.9518C11.3835 16.8738 12.9623 18.4375 14.9029 18.4375C16.8436 18.4375 18.4224 16.8738 18.4224 14.9518C18.4224 13.0298 16.8436 11.4661 14.9029 11.4661C12.9623 11.4661 11.3835 13.0298 11.3835 14.9518ZM15.5384 14.4784H15.9245C16.3602 14.4784 16.7133 14.8282 16.7133 15.2597C16.7133 15.6912 16.3602 16.0409 15.9245 16.0409H14.7496C14.3139 16.0409 13.9607 15.6912 13.9607 15.2597V13.6305C13.9607 13.199 14.3139 12.8492 14.7496 12.8492C15.1852 12.8492 15.5384 13.199 15.5384 13.6305V14.4784Z" fill="#F42C2C"/>
</svg>
