<svg width="20" height="21" viewBox="0 0 20 21" fill="none" xmlns="http://www.w3.org/2000/svg">
<path fill-rule="evenodd" clip-rule="evenodd" d="M9.69145 16.606C9.6921 14.4917 10.8641 12.5467 12.7468 11.5357C14.6295 10.5247 16.9218 10.6093 18.7226 11.7563C18.7288 11.3285 18.7321 10.872 18.7321 10.3794C18.7321 7.8467 18.6448 6.26596 18.4722 4.62861H18.4968C18.3021 2.76713 17.049 1.17778 15.2678 0.533203C15.2216 0.515977 15.1755 0.49957 15.1289 0.483984C14.7839 0.369597 14.4272 0.292984 14.0652 0.255527L14.0307 0.251836C13.7523 0.22364 13.521 0.196577 13.3053 0.171336C12.451 0.0713762 11.841 0 9.51597 0C7.05857 0 6.33937 0.0797355 5.34559 0.189913C5.16171 0.210299 4.96843 0.231728 4.75299 0.253887L4.71848 0.257578C4.33849 0.296939 3.96438 0.379519 3.60363 0.503672V0.485215C1.76681 1.10121 0.461524 2.71541 0.261144 4.61877C0.088157 6.25939 0 7.84178 0 10.3794C0 12.9171 0.088157 14.4994 0.261144 16.1401C0.504603 18.4475 2.3537 20.2712 4.69311 20.5111L4.72763 20.5148C5.00312 20.5431 5.23246 20.5702 5.44621 20.5955C6.30396 20.6969 6.91077 20.7687 9.24193 20.7687C10.2067 20.7687 10.9053 20.7564 11.4538 20.7346C10.3253 19.6495 9.68969 18.1604 9.69145 16.606ZM4.82826 5.46123H13.9043C14.4513 5.46123 14.8948 5.89864 14.8948 6.43822C14.8948 6.9778 14.4513 7.41521 13.9043 7.41521H4.82826C4.28121 7.41521 3.83774 6.9778 3.83774 6.43822C3.83774 5.89864 4.28121 5.46123 4.82826 5.46123ZM3.85554 10.6187C3.85554 11.1507 4.28693 11.585 4.82618 11.5959H10.0037C10.3625 11.6032 10.6973 11.4185 10.8788 11.1132C11.0604 10.8079 11.0604 10.4296 10.8788 10.1243C10.6973 9.81894 10.3625 9.63429 10.0037 9.64154H4.82618C4.28693 9.65244 3.85554 10.0867 3.85554 10.6187Z" fill="#E3433A"/>
<path fill-rule="evenodd" clip-rule="evenodd" d="M11.0898 16.6059C11.0898 14.1792 13.0843 12.2119 15.5447 12.2119C18.005 12.2119 19.9995 14.1792 19.9995 16.6059C19.9995 19.0327 18.005 20.9999 15.5447 20.9999C13.0843 20.9999 11.0898 19.0327 11.0898 16.6059ZM15.4561 17.249H17.3103C17.6031 17.249 17.8405 17.0149 17.8405 16.7261C17.8405 16.4373 17.6031 16.2031 17.3103 16.2031H15.9863V13.9165C15.9863 13.6277 15.7489 13.3936 15.4561 13.3936C15.1633 13.3936 14.9259 13.6277 14.9259 13.9165V16.7261C14.9259 17.0149 15.1633 17.249 15.4561 17.249Z" fill="#E3433A"/>
</svg>
