<svg width="21" height="27" viewBox="0 0 21 27" fill="none" xmlns="http://www.w3.org/2000/svg">
<path fill-rule="evenodd" clip-rule="evenodd" d="M21 17.5605C21 18.1431 20.5366 18.6152 19.9652 18.6152C19.3937 18.6152 18.9305 18.1431 18.9305 17.5605V6.85547C18.9305 5.69243 18.002 4.74609 16.861 4.74609H13.6015V5.27344C13.6015 7.0182 12.2088 8.4375 10.4972 8.4375C8.78537 8.4375 7.39289 7.0182 7.39289 5.27344V4.74609H4.13905C2.99798 4.74609 2.06952 5.69243 2.06952 6.85547V22.7812C2.06952 23.9443 2.99798 24.8906 4.13905 24.8906H16.861C18.002 24.8906 18.9305 23.9443 18.9305 22.7812C18.9305 22.1987 19.3937 21.7266 19.9652 21.7266C20.5366 21.7266 21 22.1987 21 22.7812C21 25.1075 19.1431 27 16.861 27H4.13905C1.85671 27 0 25.1075 0 22.7812V6.85547C0 4.52918 1.85671 2.63672 4.13905 2.63672H7.39289V1.05469C7.39289 0.472137 7.8561 0 8.42765 0H12.5667C13.138 0 13.6015 0.472137 13.6015 1.05469V2.63672H16.861C19.1431 2.63672 21 4.52918 21 6.85547V17.5605ZM10.4972 6.32812C11.0677 6.32812 11.5319 5.85496 11.5319 5.27344V2.10938H9.46241V5.27344C9.46241 5.85496 9.92643 6.32812 10.4972 6.32812Z" fill="#F42C2C"/>
<path opacity="0.5" fill-rule="evenodd" clip-rule="evenodd" d="M6.66757 21.6738C6.09603 21.6738 5.63281 21.2017 5.63281 20.6191C5.63281 18.8639 6.53257 17.3187 7.88665 16.4379C7.47861 15.8829 7.23669 15.1943 7.23669 14.4492C7.23669 12.6173 8.6989 11.127 10.4962 11.127C12.2935 11.127 13.7557 12.6173 13.7557 14.4492C13.7557 15.1945 13.5136 15.8829 13.1055 16.4379C14.4596 17.3187 15.3596 18.8639 15.3596 20.6191C15.3596 21.2017 14.8962 21.6738 14.3248 21.6738H6.66757ZM9.30622 14.4492C9.30622 13.7804 9.83997 13.2363 10.4962 13.2363C11.1522 13.2363 11.6862 13.7804 11.6862 14.4492C11.6862 15.1181 11.1522 15.6621 10.4962 15.6621C9.83997 15.6621 9.30622 15.1181 9.30622 14.4492ZM7.9008 19.5645C8.31289 18.5149 9.32097 17.7715 10.4962 17.7715C11.6712 17.7715 12.6793 18.5149 13.0914 19.5645H7.9008Z" fill="#F42C2C"/>
</svg>
