<svg width="26" height="19" viewBox="0 0 26 19" fill="none" xmlns="http://www.w3.org/2000/svg">
<path opacity="0.5" d="M8.10413 10.8015C8.80882 10.8015 9.38214 10.2176 9.38214 9.49999C9.38214 8.78235 8.80882 8.19849 8.10413 8.19849C7.39944 8.19849 6.82617 8.78235 6.82617 9.49999C6.82617 10.2176 7.39944 10.8015 8.10413 10.8015Z" fill="#E3433A"/>
<path opacity="0.5" d="M8.10402 12.353C6.98998 12.353 6.04372 13.0983 5.7207 14.1251H10.4873C10.1643 13.0983 9.21801 12.353 8.10402 12.353Z" fill="#E3433A"/>
<path fill-rule="evenodd" clip-rule="evenodd" d="M2.39352 0H23.6065C24.9138 0 26 1.07546 26 2.43752V16.5625C26 17.8938 24.9439 19 23.6065 19H2.39352C1.08621 19 0 17.9245 0 16.5625V2.43752C0 1.10618 1.0561 0 2.39352 0ZM4.84113 15.6765H11.3682C11.7889 15.6765 12.1299 15.3292 12.13 14.9008C12.13 13.419 11.3538 12.1183 10.1938 11.3981C10.6364 10.8935 10.9061 10.2284 10.9061 9.50005C10.9061 7.92694 9.6494 6.6471 8.10469 6.6471C6.55997 6.6471 5.30329 7.92694 5.30329 9.50005C5.30329 10.2283 5.57299 10.8934 6.01555 11.3981C4.85555 12.1183 4.07941 13.4189 4.07941 14.9008C4.07941 15.3292 4.42046 15.6765 4.84113 15.6765ZM19.5271 15.6765H15.4477C15.027 15.6765 14.6859 15.3292 14.6859 14.9008C14.6859 14.4724 15.027 14.1251 15.4477 14.1251H19.5271C19.9477 14.1251 20.2888 14.4724 20.2888 14.9008C20.2888 15.3292 19.9477 15.6765 19.5271 15.6765ZM15.4477 12.3529H21.1589C21.5795 12.3529 21.9206 12.0056 21.9206 11.5772C21.9206 11.1488 21.5795 10.8015 21.1589 10.8015H15.4477C15.027 10.8015 14.6859 11.1488 14.6859 11.5772C14.6859 12.0056 15.027 12.3529 15.4477 12.3529ZM21.1589 9.0294H15.4477C15.027 9.0294 14.6859 8.68208 14.6859 8.25367C14.6859 7.82527 15.027 7.47795 15.4477 7.47795H21.1589C21.5795 7.47795 21.9206 7.82527 21.9206 8.25367C21.9206 8.68208 21.5795 9.0294 21.1589 9.0294ZM4.84113 4.87494H21.1589C21.5795 4.87494 21.9206 4.52763 21.9206 4.09922C21.9206 3.67082 21.5795 3.3235 21.1589 3.3235H4.84113C4.42046 3.3235 4.07941 3.67082 4.07941 4.09922C4.07941 4.52763 4.42046 4.87494 4.84113 4.87494Z" fill="#E3433A"/>
</svg>
