<svg width="16" height="16" viewBox="0 0 16 16" fill="none" xmlns="http://www.w3.org/2000/svg">
<path fill-rule="evenodd" clip-rule="evenodd" d="M4.38616 0H11.6138C14.0324 0 16 1.96763 16 4.38619V11.6138C16 14.0324 14.0324 16 11.6138 16H4.38616C1.96762 16 0 14.0324 0 11.6138V4.38619C0 1.96763 1.96762 0 4.38616 0ZM3.61153 8C3.61153 10.4198 5.58016 12.3885 8 12.3885C10.4198 12.3885 12.3885 10.4198 12.3885 8C12.3885 5.58019 10.4198 3.61156 8 3.61156C5.58019 3.61156 3.61153 5.58016 3.61153 8ZM12.651 4.68237C11.9158 4.68237 11.3177 4.08425 11.3177 3.34906C11.3177 2.61387 11.9158 2.01572 12.651 2.01572C13.3862 2.01572 13.9843 2.61384 13.9843 3.34903C13.9843 4.08422 13.3862 4.68237 12.651 4.68237ZM12.651 2.96059C12.4368 2.96059 12.2625 3.13488 12.2625 3.34903C12.2625 3.56319 12.4368 3.73747 12.651 3.73747C12.8652 3.73747 13.0394 3.56322 13.0394 3.34903C13.0394 3.13484 12.8652 2.96059 12.651 2.96059ZM8 4.55638C6.10119 4.55638 4.55638 6.10119 4.55638 8C4.55638 9.89881 6.10119 11.4437 8 11.4437C9.89884 11.4437 11.4437 9.89884 11.4437 8.00003C11.4437 6.10122 9.89884 4.55638 8 4.55638Z" fill="#3E73CF"/>
</svg>
