<svg width="26" height="26" viewBox="0 0 26 26" fill="none" xmlns="http://www.w3.org/2000/svg">
<path fill-rule="evenodd" clip-rule="evenodd" d="M12.9975 25.9996C13.0842 26 13.1703 26 13.2564 26C15.1996 26 17.0013 25.948 18.7551 25.8413C20.4341 25.7392 21.9667 25.1591 23.1875 24.1635C24.0427 23.4663 24.707 22.5798 25.1623 21.5287C25.385 21.0139 25.1486 20.416 24.6338 20.1931C24.119 19.9701 23.5211 20.2068 23.2982 20.7213C22.9734 21.4711 22.5043 22.0996 21.9038 22.5893C21.002 23.3247 19.9013 23.7367 18.6317 23.8138C16.8434 23.9225 15.0027 23.9731 12.9977 23.9683C10.9981 23.9733 9.15664 23.9225 7.36832 23.8138C6.09874 23.7367 4.99798 23.3247 4.09618 22.5893C3.26262 21.9095 2.68853 20.9717 2.38998 19.8017C2.09401 18.6419 2.07695 17.3965 2.06049 16.1922C2.04759 15.2486 2.0341 14.1312 2.03133 13.0023C2.0341 11.8687 2.04759 10.7513 2.06049 9.80768C2.07695 8.6034 2.09401 7.35807 2.38998 6.19823C2.68853 5.02808 3.26262 4.09021 4.09618 3.41041C4.99798 2.67527 6.09874 2.26327 7.36832 2.18611C9.15664 2.0774 10.9977 2.02662 13.0025 2.03138C15.0025 2.02722 16.8434 2.0774 18.6317 2.18611C19.9013 2.26327 21.0022 2.67527 21.9038 3.41061C22.7374 4.09041 23.3115 5.02828 23.61 6.19823C23.906 7.35807 23.923 8.6034 23.9395 9.80768C23.9524 10.7513 23.9661 11.8687 23.9687 12.9976C23.9661 14.1312 23.9524 15.2486 23.9395 16.1922C23.932 16.753 24.3803 17.214 24.9413 17.2218C25.4997 17.2293 25.9631 16.781 25.9706 16.22C25.9837 15.2708 25.9974 14.1461 26 12.9976C25.9974 11.8538 25.9837 10.7291 25.9706 9.77991C25.9526 8.45721 25.9337 7.08929 25.5783 5.69597C25.1698 4.09557 24.3656 2.79687 23.1875 1.83639C21.9667 0.840994 20.4341 0.260777 18.7551 0.158619C16.9237 0.0473363 15.0411 -0.00404024 13.0025 0.000323788C10.96 -0.00463533 9.0765 0.0473363 7.24513 0.158619C5.56592 0.260777 4.0333 0.840994 2.81252 1.83639C1.63458 2.79687 0.830186 4.09557 0.421739 5.69597C0.0662562 7.08949 0.0474109 8.45721 0.029359 9.77991C0.0162665 10.7291 0.00277721 11.8538 0 13.0023C0.00277721 14.1461 0.0162665 15.2708 0.029359 16.22C0.0474109 17.5429 0.0662562 18.9106 0.421739 20.304C0.830186 21.9044 1.63458 23.2031 2.81252 24.1635C4.0333 25.1589 5.56592 25.7392 7.24494 25.8413C9.0763 25.9528 10.9594 26.0046 12.9975 25.9996ZM12.9491 6.65229C16.4494 6.65229 19.297 9.49982 19.297 13C19.297 16.5001 16.4494 19.3476 12.9491 19.3476C9.44905 19.3476 6.60122 16.5001 6.60122 13C6.60122 9.49982 9.44905 6.65229 12.9491 6.65229ZM17.2657 13C17.2657 15.3799 15.3294 17.3164 12.9491 17.3164C10.5691 17.3164 8.63255 15.3799 8.63255 13C8.63255 10.62 10.5691 8.68355 12.9491 8.68355C15.3294 8.68355 17.2657 10.62 17.2657 13ZM18.4845 6.14448C18.4845 5.30301 19.1667 4.62103 20.008 4.62103C20.8495 4.62103 21.5315 5.30301 21.5315 6.14448C21.5315 6.98594 20.8495 7.66792 20.008 7.66792C19.1667 7.66792 18.4845 6.98594 18.4845 6.14448Z" fill="white"/>
</svg>
