<svg width="18" height="18" viewBox="0 0 18 18" fill="none" xmlns="http://www.w3.org/2000/svg">
<path fill-rule="evenodd" clip-rule="evenodd" d="M15.1875 0H2.8125C1.26169 0 0 1.26169 0 2.8125V3.51562C0 3.90396 0.314789 4.21875 0.703125 4.21875C1.09146 4.21875 1.40625 3.90396 1.40625 3.51562V2.8125C1.40625 2.03709 2.03709 1.40625 2.8125 1.40625H15.1875C15.9629 1.40625 16.5938 2.03709 16.5938 2.8125V15.1875C16.5938 15.9629 15.9629 16.5938 15.1875 16.5938H2.8125C2.03709 16.5938 1.40625 15.9629 1.40625 15.1875V14.4844C1.40625 14.096 1.09146 13.7812 0.703125 13.7812C0.314789 13.7812 0 14.096 0 14.4844V15.1875C0 16.7383 1.26169 18 2.8125 18H15.1875C16.7383 18 18 16.7383 18 15.1875V2.8125C18 1.26169 16.7383 0 15.1875 0ZM1.61687 9.50196L1.61216 9.49718C1.33801 9.22303 1.33801 8.77697 1.6136 8.50138L4.22515 5.87464C4.49895 5.59927 4.49764 5.15408 4.22227 4.88029C3.94689 4.60652 3.5017 4.60779 3.22791 4.88317L0.617801 7.50846C-0.203766 8.33003 -0.204645 9.66632 0.615234 10.489L3.22467 13.1486C3.36234 13.289 3.54438 13.3594 3.7266 13.3594C3.90428 13.3594 4.08213 13.2924 4.21893 13.1582C4.49613 12.8862 4.50039 12.441 4.22842 12.1639L1.61687 9.50196ZM4.21875 8.29688H11.707C12.0954 8.29688 12.4102 8.61166 12.4102 9C12.4102 9.38834 12.0954 9.70312 11.707 9.70312H4.21875C3.83041 9.70312 3.51562 9.38834 3.51562 9C3.51562 8.61166 3.83041 8.29688 4.21875 8.29688Z" fill="currentColor"/>
</svg>
