<svg width="40" height="40" viewBox="0 0 40 40" fill="none" xmlns="http://www.w3.org/2000/svg">
<path fill-rule="evenodd" clip-rule="evenodd" d="M40 25.9375C40 26.8005 39.3005 27.5 38.4375 27.5C37.5745 27.5 36.875 26.8005 36.875 25.9375V17.0809L23.3004 25.5219C22.2825 26.1547 21.1412 26.4712 20 26.4712C18.8587 26.4712 17.7175 26.1548 16.6997 25.5219L3.125 17.0809V33.75C3.125 35.4731 4.52688 36.875 6.25 36.875H33.75C35.4731 36.875 36.875 35.4731 36.875 33.75C36.875 32.887 37.5745 32.1875 38.4375 32.1875C39.3005 32.1875 40 32.887 40 33.75C40 37.1963 37.1963 40 33.75 40H6.25C2.80375 40 0 37.1963 0 33.75V15.0459C0 12.9035 1.0775 10.9353 2.88227 9.78094L6.64062 7.3768V1.5625C6.64062 0.699531 7.34016 0 8.20312 0H31.7969C32.6598 0 33.3594 0.699531 33.3594 1.5625V7.38336L37.1204 9.79164C38.9235 10.9463 40 12.914 40 15.055V25.9375ZM36.5256 13.6182C36.2779 13.1394 35.9069 12.7254 35.4352 12.4234L33.3594 11.0941V15.587L36.5256 13.6182ZM4.56609 12.4135L6.64062 11.0865V15.587L3.47086 13.616C3.71883 13.1338 4.09148 12.717 4.56609 12.4135ZM18.3498 22.8681C19.3675 23.501 20.6323 23.501 21.6502 22.8681L30.2344 17.5302V3.125H9.76562V17.5302L18.3498 22.8681Z" fill="#1886C4"/>
<path opacity="0.5" fill-rule="evenodd" clip-rule="evenodd" d="M20 8.90625C20.863 8.90625 21.5625 8.20672 21.5625 7.34375C21.5625 6.48078 20.863 5.78125 20 5.78125C19.137 5.78125 18.4375 6.48078 18.4375 7.34375C18.4375 8.20672 19.137 8.90625 20 8.90625ZM21.5625 18.5156V12.4219C21.5625 11.5589 20.863 10.8594 20 10.8594C19.137 10.8594 18.4375 11.5589 18.4375 12.4219V18.5156C18.4375 19.3786 19.137 20.0781 20 20.0781C20.863 20.0781 21.5625 19.3786 21.5625 18.5156Z" fill="#1886C4"/>
</svg>
