<svg width="33" height="40" viewBox="0 0 33 40" fill="none" xmlns="http://www.w3.org/2000/svg">
<path fill-rule="evenodd" clip-rule="evenodd" d="M33 25.9192C33 26.7822 32.2932 27.4817 31.4212 27.4817C30.5492 27.4817 29.8424 26.7822 29.8422 25.9192V6.25C29.8422 4.52688 28.4257 3.125 26.6846 3.125H9.47283C7.73171 3.125 6.3152 4.52688 6.3152 6.25V13.9703H10.5192C10.6712 13.1631 11.1786 12.4516 11.918 12.0435C12.8101 11.5511 13.9044 11.5752 14.7736 12.1066L21.6841 16.3309H21.6841C22.5219 16.8431 23.0221 17.7307 23.0221 18.7053C23.0221 19.6799 22.5219 20.5675 21.6841 21.0797L14.7736 25.3041C14.3205 25.5811 13.8062 25.7202 13.2914 25.7202C12.8186 25.7202 12.3452 25.6029 11.9181 25.3671C11.1787 24.9589 10.6713 24.2475 10.5193 23.4403H6.31528V33.75C6.31528 35.4731 7.73179 36.875 9.47291 36.875H26.6846C28.4258 36.875 29.8423 35.4731 29.8423 33.75V33.7317C29.8423 32.8688 30.5491 32.1692 31.4211 32.1692C32.2931 32.1692 32.9999 32.8688 32.9999 33.7317V33.75C32.9999 37.1963 30.1669 40 26.6846 40H9.47291C5.99067 40 3.15764 37.1963 3.15764 33.75V23.4403H1.57882C0.706837 23.4403 0 22.7408 0 21.8778V15.5327C0 14.6698 0.706837 13.9702 1.57882 13.9702H3.15764V6.25C3.15764 2.80375 5.99067 0 9.47291 0H26.6847C30.167 0 33 2.80375 33 6.25V25.9192ZM13.6293 15.5327C13.6293 16.3957 12.9225 17.0952 12.0505 17.0952H3.15764V20.3153H12.0505C12.9225 20.3153 13.6293 21.0148 13.6293 21.8778V22.3305L19.5597 18.7053L13.6293 15.0801V15.5327Z" fill="#1886C4"/>
<path opacity="0.5" d="M17.4773 31.0164C16.6053 31.0164 15.8984 31.7159 15.8984 32.5789C15.8984 33.4418 16.6053 34.1414 17.4773 34.1414H18.6865C19.5585 34.1414 20.2653 33.4418 20.2653 32.5789C20.2653 31.7159 19.5585 31.0164 18.6865 31.0164H17.4773Z" fill="#1886C4"/>
</svg>
