<svg width="18" height="18" viewBox="0 0 18 18" fill="none" xmlns="http://www.w3.org/2000/svg">
<path fill-rule="evenodd" clip-rule="evenodd" d="M18 6.95568C18 7.18177 17.817 7.36363 17.5909 7.36363H16.3636V14.7276C17.2661 14.7276 18 15.4614 18 16.3638V17.5909C18 17.8171 17.817 18 17.5909 18H0.409103C0.182978 18 0 17.817 0 17.5909V16.3638C0 15.4614 0.73387 14.7276 1.63637 14.7276V7.36363H0.409103C0.182978 7.36363 0 7.18177 0 6.95568V5.3195C0 5.17529 0.075899 5.04144 0.20016 4.96796L8.20216 0.214779C8.72831 -0.0748574 9.28921 -0.0664583 9.7866 0.209179L17.7998 4.96796C17.9241 5.04148 18 5.17529 18 5.3195V6.95568ZM4.90908 14.7273H7.36363V7.36363H4.90908V14.7273ZM8.9992 5.72933C8.09631 5.72933 7.36202 4.99511 7.36202 4.09234C7.36202 3.18957 8.09631 2.45535 8.9992 2.45535C9.90208 2.45535 10.6363 3.18957 10.6363 4.09234C10.6363 4.99511 9.90204 5.72933 8.9992 5.72933ZM10.6363 14.7273H13.0909V7.36363H10.6363V14.7273Z" fill="#D5D5D5"/>
</svg>
