<svg width="30" height="27" viewBox="0 0 30 27" fill="none" xmlns="http://www.w3.org/2000/svg">
<path fill-rule="evenodd" clip-rule="evenodd" d="M30 11.6053V4.73684C30 2.12487 27.8973 0 25.3125 0H4.6875C2.10274 0 0 2.12487 0 4.73684V11.6053C0 12.2594 0.524597 12.7895 1.17188 12.7895C1.81915 12.7895 2.34375 12.2594 2.34375 11.6053V4.73684C2.34375 3.43097 3.39523 2.36842 4.6875 2.36842H25.3125C26.6048 2.36842 27.6562 3.43097 27.6562 4.73684V11.6053C27.6562 12.2594 28.1808 12.7895 28.8281 12.7895C29.4754 12.7895 30 12.2594 30 11.6053ZM27.6562 17.5263C27.6562 16.8722 28.1808 16.3421 28.8281 16.3421C29.4754 16.3421 30 16.8722 30 17.5263C30 20.1383 27.8973 22.2632 25.3125 22.2632H13.6523C13.0051 22.2632 12.4805 21.733 12.4805 21.0789C12.4805 20.4249 13.0051 19.8947 13.6523 19.8947H25.3125C26.6048 19.8947 27.6562 18.8322 27.6562 17.5263ZM15.2998 15.1368C14.6553 15.197 14.1813 15.7736 14.2408 16.4249C14.2971 17.0392 14.8077 17.5002 15.4065 17.5002C15.4424 17.5002 15.479 17.4986 15.5157 17.4951C17.0025 17.3563 18.3753 16.6208 19.3813 15.4243C20.3723 14.2459 20.918 12.7187 20.918 11.1244C20.918 7.59814 18.2632 4.72967 15 4.72967C11.7368 4.72967 9.08203 7.59814 9.08203 11.1244C9.08203 11.3899 9.09737 11.6575 9.12735 11.9196C9.20197 12.5691 9.78401 13.0349 10.4265 12.9592C11.0694 12.8838 11.5302 12.2961 11.4555 11.6464C11.4359 11.4748 11.4258 11.299 11.4258 11.1244C11.4258 8.90425 13.0291 7.09809 15 7.09809C16.9709 7.09809 18.5742 8.90425 18.5742 11.1244C18.5742 13.2028 17.1359 14.9652 15.2998 15.1368ZM24.3164 9.88816C24.9637 9.88816 25.4883 10.4183 25.4883 11.0724C25.4883 11.7265 24.9637 12.2566 24.3164 12.2566C23.6691 12.2566 23.1445 11.7265 23.1445 11.0724C23.1445 10.4183 23.6691 9.88816 24.3164 9.88816ZM6.85547 11.0724C6.85547 10.4183 6.33087 9.88816 5.68359 9.88816C5.03632 9.88816 4.51172 10.4183 4.51172 11.0724C4.51172 11.7265 5.03632 12.2566 5.68359 12.2566C6.33087 12.2566 6.85547 11.7265 6.85547 11.0724ZM1.17188 19.8947H8.96484C9.61212 19.8947 10.1367 20.4249 10.1367 21.0789C10.1367 21.733 9.61212 22.2632 8.96484 22.2632H1.17188C0.524597 22.2632 0 21.733 0 21.0789C0 20.4249 0.524597 19.8947 1.17188 19.8947ZM10.7227 15.1579H1.17188C0.524597 15.1579 0 15.688 0 16.3421C0 16.9962 0.524597 17.5263 1.17188 17.5263H10.7227C11.3699 17.5263 11.8945 16.9962 11.8945 16.3421C11.8945 15.688 11.3699 15.1579 10.7227 15.1579ZM1.17188 24.6316H7.20703C7.85431 24.6316 8.37891 25.1617 8.37891 25.8158C8.37891 26.4699 7.85431 27 7.20703 27H1.17188C0.524597 27 0 26.4699 0 25.8158C0 25.1617 0.524597 24.6316 1.17188 24.6316Z" fill="currentColor"/>
</svg>
