<svg width="18" height="18" viewBox="0 0 18 18" fill="none" xmlns="http://www.w3.org/2000/svg">
<path fill-rule="evenodd" clip-rule="evenodd" d="M2.01986 3.21429H0.642857C0.288 3.21429 0 2.92629 0 2.57143C0 2.21657 0.288 1.92857 0.642857 1.92857H2.01986C2.30721 0.822857 3.30557 0 4.5 0C5.69443 0 6.69279 0.822857 6.98014 1.92857H17.3571C17.7126 1.92857 18 2.21657 18 2.57143C18 2.92629 17.7126 3.21429 17.3571 3.21429H6.98014C6.69279 4.32 5.69443 5.14286 4.5 5.14286C3.30557 5.14286 2.30721 4.32 2.01986 3.21429ZM5.78571 2.57143C5.78571 1.86236 5.20907 1.28571 4.5 1.28571C3.79093 1.28571 3.21429 1.86236 3.21429 2.57143C3.21429 3.2805 3.79093 3.85714 4.5 3.85714C5.20907 3.85714 5.78571 3.2805 5.78571 2.57143ZM15.9801 8.35714H17.3571C17.7126 8.35714 18 8.64514 18 9C18 9.35486 17.7126 9.64286 17.3571 9.64286H15.9801C15.6928 10.7486 14.6951 11.5714 13.5 11.5714C12.3049 11.5714 11.3072 10.7486 11.0199 9.64286H0.642857C0.288 9.64286 0 9.35486 0 9C0 8.64514 0.288 8.35714 0.642857 8.35714H11.0199C11.3072 7.25143 12.3049 6.42857 13.5 6.42857C14.6951 6.42857 15.6928 7.25143 15.9801 8.35714ZM12.2143 9C12.2143 9.70907 12.7909 10.2857 13.5 10.2857C14.2091 10.2857 14.7857 9.70907 14.7857 9C14.7857 8.29093 14.2091 7.71429 13.5 7.71429C12.7909 7.71429 12.2143 8.29093 12.2143 9ZM17.3571 14.7857H6.98014C6.69279 13.68 5.69443 12.8571 4.5 12.8571C3.30557 12.8571 2.30721 13.68 2.01986 14.7857H0.642857C0.288 14.7857 0 15.0737 0 15.4286C0 15.7834 0.288 16.0714 0.642857 16.0714H2.01986C2.30721 17.1771 3.30557 18 4.5 18C5.69443 18 6.69279 17.1771 6.98014 16.0714H17.3571C17.7126 16.0714 18 15.7834 18 15.4286C18 15.0737 17.7126 14.7857 17.3571 14.7857ZM4.5 16.7143C3.79093 16.7143 3.21429 16.1376 3.21429 15.4286C3.21429 14.7195 3.79093 14.1429 4.5 14.1429C5.20907 14.1429 5.78571 14.7195 5.78571 15.4286C5.78571 16.1376 5.20907 16.7143 4.5 16.7143Z" fill="#1886C4"/>
</svg>
