<svg width="16" height="18" viewBox="0 0 16 18" fill="none" xmlns="http://www.w3.org/2000/svg">
<path fill-rule="evenodd" clip-rule="evenodd" d="M9.2583 1.14274C10.7937 -0.384231 13.296 -0.380433 14.8362 1.15129C15.5867 1.89765 16 2.88972 16 3.94475C16 4.99517 15.5897 5.98165 14.8448 6.72249L9.84933 11.6979C9.57507 11.9711 9.13271 11.9688 8.86128 11.6926C8.58988 11.4165 8.59226 10.9711 8.86656 10.6979L13.8624 5.72215C14.3399 5.24732 14.6026 4.61624 14.6026 3.94478C14.6026 3.26872 14.3368 2.63205 13.8542 2.15208C12.8554 1.15888 11.2343 1.15505 10.2403 2.1435L2.567 9.77436C1.81272 10.5245 1.39733 11.5224 1.39733 12.5844C1.39733 13.6531 1.81716 14.6592 2.57951 15.4173C4.15409 16.9832 6.71051 16.9888 8.27814 15.4297L13.4063 10.3299C13.6808 10.057 14.1232 10.0597 14.3943 10.336C14.6655 10.6124 14.6628 11.0577 14.3883 11.3307L9.26011 16.4305C8.20785 17.477 6.82474 18 5.4403 18C4.04975 18 2.65786 17.4726 1.5975 16.4181C0.567351 15.3936 0 14.0321 0 12.5845C0 11.1435 0.56288 9.79011 1.58503 8.77363L9.2583 1.14274ZM11.9539 4.89167L4.85111 11.9552C4.67103 12.1343 4.57189 12.3722 4.57182 12.6251C4.57186 12.8803 4.67257 13.1211 4.85548 13.303C5.23706 13.6825 5.8559 13.6844 6.235 13.3074L6.38039 13.1627C6.65493 12.8897 7.09725 12.8925 7.36844 13.1688C7.63963 13.4451 7.6369 13.8905 7.36243 14.1635L7.21701 14.3081C6.75753 14.765 6.1536 14.9934 5.54929 14.9934C4.94274 14.9934 4.33581 14.7635 3.87347 14.3037C3.42276 13.8555 3.17453 13.2593 3.17453 12.6251C3.17453 11.9932 3.42119 11.3999 3.86907 10.9545L10.9719 3.89091C11.2464 3.61794 11.6887 3.62068 11.9599 3.89699C12.2311 4.17337 12.2284 4.6187 11.9539 4.89167Z" fill="white"/>
</svg>
