<svg width="18" height="18" viewBox="0 0 18 18" fill="none" xmlns="http://www.w3.org/2000/svg">
<path fill-rule="evenodd" clip-rule="evenodd" d="M17.2075 12.4515C17.5772 12.6422 17.8489 12.9807 17.9554 13.383C18.0578 13.7889 17.9821 14.2193 17.7475 14.566L16.1401 16.9785C15.7094 17.6158 14.9913 17.9983 14.2225 18H14.0673C13.381 17.968 12.6988 17.8756 12.0286 17.7237C9.50278 17.0747 6.90246 15.5005 4.70864 13.3023C2.51481 11.104 0.935384 8.50517 0.280649 5.97777C0.128807 5.30724 0.0363924 4.62462 0.00448188 3.93784C-0.0468541 3.11116 0.34568 2.3197 1.03468 1.86065L3.44572 0.246094C3.79288 0.0148622 4.22195 -0.0576774 4.62576 0.0465958C5.02957 0.150869 5.36998 0.422108 5.56197 0.79256L7.53858 4.63023C7.87799 5.27081 7.6971 6.0635 7.11347 6.49318L6.26635 7.11417C6.17493 7.18018 6.14698 7.30401 6.20119 7.40292C6.72057 8.31613 7.36499 9.1522 8.11574 9.88686C8.84992 10.6381 9.68548 11.2829 10.5981 11.8026C10.697 11.8568 10.8208 11.8289 10.8867 11.7374L11.5073 10.8866C11.9367 10.3026 12.729 10.1216 13.3691 10.4613L17.2075 12.4515ZM15.1161 16.2892L16.7142 13.8736L16.708 13.8549C16.7434 13.8014 16.7545 13.7354 16.7385 13.6733C16.7226 13.6111 16.681 13.5587 16.6242 13.5289L12.7858 11.5418C12.6875 11.4908 12.5667 11.5184 12.5003 11.607L11.8797 12.4577C11.4374 13.0526 10.6208 13.2232 9.97754 12.8552C8.97358 12.2805 8.05366 11.5701 7.2438 10.7438C6.41812 9.9334 5.70808 9.01292 5.13375 8.00838C4.76592 7.36475 4.93644 6.54763 5.53094 6.10507L6.37806 5.48409C6.46663 5.4176 6.49419 5.29679 6.44322 5.19843L4.4573 1.35765C4.42831 1.30071 4.37636 1.25889 4.31456 1.24277H4.2556C4.21143 1.24246 4.16819 1.25544 4.13148 1.28003L1.72044 2.88838C1.40137 3.10246 1.22045 3.47043 1.24568 3.85401C1.27478 4.46318 1.35575 5.06877 1.48772 5.66417C2.0897 7.98044 3.55122 10.3681 5.58989 12.4174C7.62857 14.4666 10.0241 15.9228 12.3389 16.5252C12.9341 16.6561 13.5393 16.7361 14.148 16.7642C14.532 16.7887 14.9003 16.608 15.1161 16.2892Z" fill="currentColor"/>
</svg>
