<svg width="16" height="16" viewBox="0 0 16 16" fill="none" xmlns="http://www.w3.org/2000/svg">
<path d="M15.9675 13.0184L14.3181 15.5081C14.0954 15.8367 13.7153 16.0229 13.3189 15.9977C12.6907 15.9687 12.066 15.8863 11.4518 15.7513C9.06264 15.1305 6.59021 13.6296 4.48608 11.5175C2.38196 9.40535 0.873522 6.94441 0.252212 4.55707C0.116006 3.94339 0.0324343 3.31923 0.0024074 2.69136C-0.0236373 2.29602 0.163088 1.91675 0.492409 1.6961L2.98085 0.0384079C3.01873 0.0130641 3.06337 -0.000315502 3.10895 5.64871e-06H3.1698C3.23359 0.0166192 3.28721 0.0597167 3.31713 0.118412L5.36681 4.07704C5.41941 4.17841 5.39097 4.30293 5.29955 4.37146L4.42523 5.01149C3.81165 5.46764 3.63566 6.30983 4.0153 6.97321C4.60807 8.00856 5.3409 8.95729 6.19308 9.79257C7.02895 10.6442 7.9784 11.3764 9.0146 11.9687C9.67848 12.348 10.5213 12.1722 10.9778 11.5591L11.6183 10.6822C11.6869 10.5909 11.8115 10.5625 11.913 10.615L15.8746 12.6631C15.9333 12.6938 15.9761 12.7479 15.9926 12.8119C16.0091 12.876 15.9977 12.944 15.9611 12.9992L15.9675 13.0184Z" fill="white"/>
</svg>
