<svg width="16" height="18" viewBox="0 0 16 18" fill="none" xmlns="http://www.w3.org/2000/svg">
<path d="M14.7968 6.92295L3.85597 0.369643C3.06442 -0.103877 2.10742 -0.123565 1.29593 0.316979C0.484451 0.757452 0 1.55975 0 2.46295V15.5099C0 16.8756 1.13244 17.9926 2.52429 18C2.52808 18 2.53188 18 2.53561 18C2.97057 18 3.42383 17.8675 3.84717 17.6165C4.18774 17.4146 4.29537 16.9826 4.08759 16.6518C3.87981 16.3208 3.43523 16.2162 3.09477 16.4181C2.89676 16.5355 2.70338 16.5962 2.53206 16.5962C2.00691 16.5934 1.44463 16.1563 1.44463 15.5099V2.46299C1.44463 2.07553 1.65245 1.73146 2.00051 1.54249C2.34859 1.35353 2.75906 1.36196 3.09817 1.56485L14.0391 8.11816C14.3679 8.3149 14.5561 8.64294 14.5553 9.0182C14.5545 9.39342 14.3649 9.72073 14.0343 9.91679L6.12399 14.6231C5.78375 14.8255 5.6768 15.2576 5.88513 15.5882C6.09341 15.9188 6.5381 16.0227 6.87834 15.8203L14.7877 11.1146C15.545 10.6657 15.9982 9.88308 16 9.02101C16.0018 8.15905 15.5519 7.37464 14.7968 6.92295Z" fill="white"/>
</svg>
