<svg width="18" height="18" viewBox="0 0 18 18" fill="none" xmlns="http://www.w3.org/2000/svg">
<path fill-rule="evenodd" clip-rule="evenodd" d="M9 0C11.4039 0 13.6641 0.936172 15.364 2.63603C17.0638 4.33589 18 6.59605 18 9C18 10.7765 17.4727 12.5042 16.4752 13.9963C16.2594 14.319 15.8226 14.4058 15.4999 14.1901C15.1771 13.9742 15.0903 13.5375 15.3062 13.2148C16.1485 11.9546 16.5938 10.4973 16.5938 9C16.5938 4.81284 13.1872 1.40625 9 1.40625C4.81284 1.40625 1.40625 4.81284 1.40625 9C1.40625 13.1872 4.81284 16.5938 9 16.5938C10.3888 16.5938 11.7473 16.2155 12.9283 15.5002C13.2604 15.299 13.6928 15.4052 13.894 15.7374C14.0952 16.0694 13.989 16.5017 13.6568 16.7029C12.2561 17.5515 10.6458 18 9 18C6.59605 18 4.33589 17.0638 2.63603 15.364C0.936172 13.6641 0 11.4039 0 9C0 6.59605 0.936172 4.33589 2.63603 2.63603C4.33589 0.936172 6.59605 0 9 0ZM8.29688 9.70244V12.1634C8.29688 12.5517 8.61163 12.8665 9 12.8665C9.38837 12.8665 9.70312 12.5517 9.70312 12.1634V9.70244H12.1641C12.5524 9.70244 12.8672 9.38768 12.8672 8.99931C12.8672 8.61108 12.5524 8.29619 12.1641 8.29619H9.70312V5.83525C9.70312 5.44702 9.38837 5.13213 9 5.13213C8.61163 5.13213 8.29688 5.44702 8.29688 5.83525V8.29619H5.83594C5.44757 8.29619 5.13281 8.61108 5.13281 8.99931C5.13281 9.38768 5.44757 9.70244 5.83594 9.70244H8.29688Z" fill="currentColor"/>
</svg>
