<svg width="18" height="17" viewBox="0 0 18 17" fill="none" xmlns="http://www.w3.org/2000/svg">
<path fill-rule="evenodd" clip-rule="evenodd" d="M4.71245 17C4.56729 17 4.42076 16.972 4.28069 16.9145C3.85867 16.7413 3.58594 16.3369 3.58594 15.8844V14.6999C3.58594 14.2772 3.23904 13.9335 2.8125 13.9335C1.26164 13.9335 0 12.6835 0 11.1468V2.78671C0 1.25007 1.26164 0 2.8125 0H15.1875C16.7384 0 18 1.25007 18 2.78671V7.66344C18 8.04825 17.6852 8.36012 17.2969 8.36012C16.9085 8.36012 16.5938 8.04825 16.5938 7.66344V2.78671C16.5938 2.01846 15.9629 1.39335 15.1875 1.39335H2.8125C2.03714 1.39335 1.40625 2.01846 1.40625 2.78671V11.1468C1.40625 11.9151 2.03714 12.5402 2.8125 12.5402C4.0144 12.5402 4.99219 13.509 4.99219 14.6999V15.2125L6.52327 13.6954C7.27515 12.9504 8.27477 12.5402 9.3381 12.5402H15.1875C15.9629 12.5402 16.5938 11.9151 16.5938 11.1468C16.5938 10.762 16.9085 10.4502 17.2969 10.4502C17.6852 10.4502 18 10.762 18 11.1468C18 12.6833 16.7384 13.9335 15.1875 13.9335H9.3381C8.6505 13.9335 8.00395 14.1989 7.51767 14.6806L5.50703 16.6728C5.29129 16.8867 5.00468 17 4.71245 17ZM9.70312 10.485C9.70312 10.1002 9.38837 9.78831 9 9.78831C8.61163 9.78831 8.29688 10.1002 8.29688 10.485C8.29688 10.8698 8.61163 11.1817 9 11.1817C9.38837 11.1817 9.70312 10.8698 9.70312 10.485ZM9.70312 7.55949V8.04662C9.70312 8.43142 9.38837 8.74329 9 8.74329C8.61163 8.74329 8.29688 8.43142 8.29688 8.04662V7.55949C8.29688 6.91724 8.70474 6.35119 9.3116 6.15076C9.72386 6.01455 10.0002 5.61804 9.98369 5.18643C9.96419 4.6808 9.54932 4.26959 9.039 4.25041C8.76819 4.2402 8.5118 4.33681 8.31747 4.52228C8.12288 4.70787 8.01562 4.95756 8.01562 5.22508C8.01562 5.60988 7.70087 5.92175 7.3125 5.92175C6.92413 5.92175 6.60938 5.60988 6.60938 5.22508C6.60938 4.57534 6.86961 3.96929 7.34216 3.51849C7.81444 3.06796 8.43626 2.83338 9.09242 2.85814C10.3331 2.90482 11.3417 3.90425 11.3888 5.1335C11.4289 6.18001 10.7577 7.14189 9.75627 7.47254C9.72592 7.48261 9.70312 7.52003 9.70312 7.55949Z" fill="white"/>
</svg>
