<svg width="40" height="32" viewBox="0 0 40 32" fill="none" xmlns="http://www.w3.org/2000/svg">
<path fill-rule="evenodd" clip-rule="evenodd" d="M3.86188 32C4.45189 32 4.8944 31.9015 5.18941 31.7046C5.48441 31.2123 6.04984 30.2031 6.88569 28.6769C7.72153 27.1508 8.6803 25.3785 9.76198 23.36C10.8437 21.3415 11.9745 19.1754 13.1545 16.8615C14.3346 14.5477 15.4408 12.3323 16.4733 10.2154C17.5059 8.09846 18.44 6.17846 19.2759 4.45538C20.1117 2.73231 20.6772 1.42769 20.9722 0.541538C20.6772 0.344615 19.9151 0.196923 18.6859 0.0984615C17.4567 0 16.1538 -0.0246154 14.7771 0.0246154C13.4004 0.0738462 12.122 0.147692 10.942 0.246154C9.76198 0.344615 8.9753 0.492308 8.58196 0.689231C8.28696 1.08308 7.79528 2.48615 7.10694 4.89846C6.41859 7.31077 5.6565 10.1169 4.82065 13.3169L2.31311 22.9169C1.47726 26.1169 0.715164 28.6523 0.0268186 30.5231C-0.0715164 30.72 0.10057 30.9415 0.543077 31.1877C0.985585 31.4338 1.50184 31.6308 2.09185 31.7785C2.68186 31.9262 3.27187 32 3.86188 32ZM22.8897 32C23.4797 32 23.9222 31.9015 24.2172 31.7046C24.5122 31.2123 25.0777 30.2031 25.9135 28.6769C26.7494 27.1508 27.7081 25.3785 28.7898 23.36C29.8715 21.3415 31.0023 19.1754 32.1824 16.8615C33.3624 14.5477 34.4687 12.3323 35.5012 10.2154C36.5337 8.09846 37.4679 6.17846 38.3037 4.45538C39.1396 2.73231 39.705 1.42769 40 0.541538C39.705 0.344615 38.9429 0.196923 37.7137 0.0984615C36.4845 0 35.1816 -0.0246154 33.8049 0.0246154C32.4282 0.0738462 31.1498 0.147692 29.9698 0.246154C28.7898 0.344615 28.0031 0.492308 27.6098 0.689231C27.3148 1.08308 26.8231 2.48615 26.1348 4.89846C25.4464 7.31077 24.6843 10.1169 23.8485 13.3169L21.3409 22.9169C20.5051 26.1169 19.743 28.6523 19.0546 30.5231C18.9563 30.72 19.1284 30.9415 19.5709 31.1877C20.0134 31.4338 20.5297 31.6308 21.1197 31.7785C21.7097 31.9262 22.2997 32 22.8897 32Z" fill="#1886C4"/>
</svg>
