<svg width="28" height="28" viewBox="0 0 28 28" fill="none" xmlns="http://www.w3.org/2000/svg">
<path fill-rule="evenodd" clip-rule="evenodd" d="M0 14C0 6.272 6.272 0 14 0C21.728 0 28 6.272 28 14C28 21.728 21.728 28 14 28C6.272 28 0 21.728 0 14ZM16.7627 14L20.5333 17.7427L24.332 14H21.9333C21.9333 9.62267 18.3773 6.06667 14 6.06667C9.62267 6.06667 6.06667 9.62267 6.06667 14C6.06667 18.3773 9.62267 21.9333 14 21.9333V19.1333C11.172 19.1333 8.86667 16.828 8.86667 14C8.86667 11.172 11.172 8.86667 14 8.86667C16.828 8.86667 19.1333 11.172 19.1333 14H16.7627Z" fill="#3E73CF"/>
</svg>
