<svg width="18" height="18" viewBox="0 0 18 18" fill="none" xmlns="http://www.w3.org/2000/svg">
<path d="M6.017 10.9998L1.61142 6.57921C1.33722 6.30506 1.33722 5.859 1.61029 5.58597L6.01503 1.20143C6.29024 0.927455 6.29123 0.482271 6.01724 0.207068C5.74329 -0.0681706 5.29809 -0.0691199 5.02283 0.204818L0.616939 4.59049C-0.205512 5.41294 -0.205512 6.75112 0.616131 7.57272L5.02086 11.9924C5.15823 12.1303 5.33855 12.1992 5.51891 12.1992C5.69846 12.1992 5.87805 12.1309 6.01531 11.9941C6.29035 11.72 6.29116 11.2748 6.017 10.9998Z" fill="currentColor"/>
<path d="M11.6894 5.37891H4.18314C3.79479 5.37891 3.47998 5.6937 3.47998 6.08203C3.47998 6.47037 3.79479 6.78516 4.18314 6.78516H11.6894C14.3938 6.78516 16.5939 8.98523 16.5939 11.6895C16.5939 14.3937 14.3938 16.5938 11.6894 16.5938C11.301 16.5938 10.9862 16.9085 10.9862 17.2969C10.9862 17.6852 11.301 18 11.6894 18C15.1692 18 18.0002 15.1691 18.0002 11.6895C18.0002 8.20979 15.1692 5.37891 11.6894 5.37891Z" fill="currentColor"/>
</svg>
