<svg width="18" height="16" viewBox="0 0 18 16" fill="none" xmlns="http://www.w3.org/2000/svg">
<path d="M17.3837 6.4854L11.221 0.209825C10.9467 -0.0694826 10.5015 -0.0699826 10.2266 0.208575C9.95165 0.487168 9.95109 0.939431 10.2253 1.2187L16.3886 7.49496C16.6627 7.77345 16.6627 8.2266 16.388 8.5057L10.2253 14.7813C9.95113 15.0606 9.95165 15.5128 10.2266 15.7914C10.3638 15.9305 10.5435 16 10.7232 16C10.9034 16 11.0837 15.93 11.221 15.7902L17.3831 9.51522C18.2055 8.67972 18.2055 7.32026 17.3837 6.4854Z" fill="currentColor"/>
<path d="M13.4655 7.28574H0.703161C0.314789 7.28574 0 7.60554 0 8.00002C0 8.3945 0.314789 8.71431 0.703161 8.71431H13.4655C13.8539 8.71431 14.1687 8.39454 14.1687 8.00002C14.1687 7.60551 13.8539 7.28574 13.4655 7.28574Z" fill="currentColor"/>
</svg>
