<svg width="18" height="18" viewBox="0 0 18 18" fill="none" xmlns="http://www.w3.org/2000/svg">
<path fill-rule="evenodd" clip-rule="evenodd" d="M7.41796 14.8246C3.32768 14.8246 0 11.4995 0 7.41231C0 3.32514 3.32768 0 7.41796 0C11.5082 0 14.8359 3.32514 14.8359 7.41231C14.8359 11.4995 11.5082 14.8246 7.41796 14.8246ZM7.41796 1.40518C4.10308 1.40518 1.40625 4.09995 1.40625 7.41231C1.40625 10.7247 4.10308 13.4194 7.41796 13.4194C10.7328 13.4194 13.4297 10.7247 13.4297 7.41231C13.4297 4.09995 10.7328 1.40518 7.41796 1.40518ZM17.7941 16.8006C18.0686 17.075 18.0686 17.5199 17.7941 17.7942C17.6568 17.9314 17.4769 18 17.2969 18C17.1169 18 16.937 17.9314 16.7997 17.7942L13.6532 14.6502C13.3786 14.3758 13.3786 13.9309 13.6532 13.6565C13.9278 13.3821 14.373 13.3821 14.6476 13.6565L17.7941 16.8006Z" fill="#8C8C8C"/>
</svg>
