<svg width="16" height="14" viewBox="0 0 16 14" fill="none" xmlns="http://www.w3.org/2000/svg">
<path d="M15.0471 5.55289L2.13792 0.120913C1.59408 -0.107952 0.979671 -0.00727335 0.534514 0.383528C0.0893571 0.774392 -0.0968307 1.37663 0.0486695 1.95519L1.1977 6.52464H6.82352C7.0824 6.52464 7.2923 6.73747 7.2923 7.00002C7.2923 7.26254 7.08243 7.4754 6.82352 7.4754H1.1977L0.0486695 12.0448C-0.0968307 12.6234 0.0893258 13.2256 0.534514 13.6165C0.980577 14.0081 1.59505 14.1075 2.13795 13.8791L15.0472 8.44714C15.6349 8.19983 16 7.64532 16 7.00002C16 6.35471 15.6349 5.80017 15.0471 5.55289Z" fill="white"/>
</svg>
