<svg width="20" height="19" viewBox="0 0 20 19" fill="none" xmlns="http://www.w3.org/2000/svg">
<path d="M19.7875 7.90537L15.4049 12.1645L16.4399 18.18C16.4849 18.4431 16.3765 18.7089 16.1598 18.866C16.0374 18.9551 15.8918 19 15.7461 19C15.6343 19 15.5217 18.9733 15.419 18.9193L10 16.0792L4.58174 18.9186C4.34534 19.0435 4.05757 19.0231 3.84087 18.8653C3.62417 18.7082 3.51582 18.4424 3.56085 18.1793L4.59581 12.1638L0.212514 7.90537C0.0211408 7.71879 -0.0485135 7.43962 0.0345088 7.1864C0.117531 6.93318 0.337751 6.7473 0.603001 6.70872L6.66011 5.83192L9.36889 0.359311C9.606 -0.11977 10.394 -0.11977 10.6311 0.359311L13.3399 5.83192L19.397 6.70872C19.6622 6.7473 19.8825 6.93248 19.9655 7.1864C20.0485 7.44032 19.9789 7.71809 19.7875 7.90537Z" fill="#D5D5D5"/>
</svg>
