<svg width="38" height="38" viewBox="0 0 38 38" fill="none" xmlns="http://www.w3.org/2000/svg">
<rect width="38" height="38" rx="7.91667" fill="#03A9F4"/>
<path d="M27 13.539C26.405 13.8 25.771 13.973 25.11 14.057C25.79 13.651 26.309 13.013 26.553 12.244C25.919 12.622 25.219 12.889 24.473 13.038C23.871 12.397 23.013 12 22.077 12C20.261 12 18.799 13.474 18.799 15.281C18.799 15.541 18.821 15.791 18.875 16.029C16.148 15.896 13.735 14.589 12.114 12.598C11.831 13.089 11.665 13.651 11.665 14.256C11.665 15.392 12.25 16.399 13.122 16.982C12.595 16.972 12.078 16.819 11.64 16.578C11.64 16.588 11.64 16.601 11.64 16.614C11.64 18.208 12.777 19.532 14.268 19.837C14.001 19.91 13.71 19.945 13.408 19.945C13.198 19.945 12.986 19.933 12.787 19.889C13.212 21.188 14.418 22.143 15.852 22.174C14.736 23.047 13.319 23.573 11.785 23.573C11.516 23.573 11.258 23.561 11 23.528C12.453 24.465 14.175 25 16.032 25C22.068 25 25.368 20 25.368 15.666C25.368 15.521 25.363 15.381 25.356 15.242C26.007 14.78 26.554 14.203 27 13.539Z" fill="white"/>
</svg>
