<svg width="18" height="18" viewBox="0 0 18 18" fill="none" xmlns="http://www.w3.org/2000/svg">
<path fill-rule="evenodd" clip-rule="evenodd" d="M12.966 4.52519C12.966 5.65634 12.0265 6.57659 10.8717 6.57659C9.71688 6.57659 8.77738 5.65634 8.77734 4.52519C8.77734 3.394 9.71688 2.47375 10.8717 2.47375C12.0265 2.47375 12.966 3.39404 12.966 4.52519ZM11.5304 4.52519C11.5304 4.16941 11.2349 3.88 10.8717 3.88C10.5085 3.88 10.213 4.16945 10.213 4.52519C10.213 4.88094 10.5085 5.17034 10.8717 5.17034C11.2349 5.17034 11.5304 4.88094 11.5304 4.52519Z" fill="white"/>
<path d="M8.90554 9.00668C9.18589 9.28132 9.64046 9.28132 9.9207 9.00671C10.4461 8.49213 11.3008 8.49213 11.8263 9.00671C11.9664 9.144 12.1501 9.21262 12.3338 9.21262C12.5176 9.21262 12.7013 9.14396 12.8414 9.00668C13.1218 8.73207 13.1218 8.28689 12.8414 8.01232C11.7563 6.94951 9.99069 6.94951 8.90561 8.01232C8.62523 8.28692 8.62523 8.73211 8.90554 9.00668Z" fill="white"/>
<path d="M3.14347 11.6892C2.87015 11.9569 2.86405 12.3864 3.12373 12.6622C2.86405 12.938 2.87012 13.3675 3.14347 13.6352C3.28362 13.7725 3.46732 13.8412 3.65105 13.8412C3.82555 13.8412 3.99962 13.7784 4.13684 13.6546C4.27405 13.7785 4.44809 13.8412 4.62263 13.8412C4.80632 13.8412 4.99005 13.7725 5.13021 13.6352C5.40352 13.3675 5.40963 12.938 5.14995 12.6622C5.40963 12.3864 5.40356 11.9569 5.13021 11.6892C4.8569 11.4215 4.41848 11.4155 4.13687 11.6699C3.8552 11.4155 3.41674 11.4215 3.14347 11.6892Z" fill="white"/>
<path fill-rule="evenodd" clip-rule="evenodd" d="M18 11.6715C18 12.0598 17.6786 12.3746 17.2822 12.3746C16.8857 12.3746 16.5643 12.0598 16.5643 11.6715V2.8125C16.5643 2.03709 15.9203 1.40625 15.1287 1.40625H6.29169C5.50007 1.40625 4.85603 2.03709 4.85603 2.8125V8.66925C5.68828 8.811 6.45471 9.19884 7.06437 9.79604C7.3136 10.0402 7.52421 10.308 7.69645 10.5921C7.69839 10.592 7.70033 10.5918 7.70227 10.5917C7.71741 10.5906 7.73256 10.5895 7.74799 10.5895H13.6723C14.0688 10.5895 14.3902 10.9043 14.3902 11.2926C14.3902 11.681 14.0688 11.9958 13.6723 11.9958H8.2185C8.30234 12.4924 8.29164 13.0013 8.1867 13.4948H13.6724C14.0688 13.4948 14.3902 13.8096 14.3902 14.1979C14.3902 14.5862 14.0688 14.901 13.6724 14.901H7.74799C7.69681 14.901 7.64699 14.8956 7.59883 14.8856C7.44647 15.113 7.26837 15.3287 7.06444 15.5284H7.0644C6.64598 15.9383 6.15929 16.2416 5.63997 16.4389C5.83845 16.5382 6.06084 16.5937 6.29169 16.5937H15.1287C15.9203 16.5937 16.5643 15.9629 16.5643 15.1875C16.5643 14.7991 16.8857 14.4842 17.2822 14.4842C17.6786 14.4842 18 14.7988 18 15.1871C18 16.7383 16.7119 18 15.1287 18H6.29169C5.30783 18 4.39748 17.5025 3.87439 16.7054C2.90421 16.6452 1.95193 16.2532 1.21206 15.5285C0.430448 14.7629 0 13.745 0 12.6623C0 11.5795 0.430484 10.5616 1.2121 9.79604C1.82171 9.19888 2.58811 8.81104 3.42036 8.66925V2.8125C3.42036 1.26169 4.70844 0 6.29169 0H15.1287C16.7119 0 18 1.26169 18 2.8125V11.6715ZM2.22722 14.5341C3.28092 15.5662 4.99547 15.5662 6.04924 14.5341C7.10295 13.5019 7.10295 11.8225 6.04921 10.7904C5.53876 10.2904 4.86008 10.015 4.13823 10.015C3.41634 10.015 2.7377 10.2904 2.22725 10.7904C1.71677 11.2904 1.43566 11.9551 1.43566 12.6622C1.43566 13.3693 1.71677 14.0341 2.22722 14.5341Z" fill="white"/>
</svg>
