<svg width="40" height="40" viewBox="0 0 40 40" fill="none" xmlns="http://www.w3.org/2000/svg">
<path opacity="0.5" d="M6.98982 25.9758C6.38245 26.5707 6.3689 27.5251 6.94595 28.1381C6.3689 28.751 6.38237 29.7054 6.98982 30.3003C7.30128 30.6054 7.70949 30.758 8.11777 30.758C8.50556 30.758 8.89239 30.6186 9.19731 30.3433C9.50223 30.6187 9.88898 30.758 10.2769 30.758C10.6851 30.758 11.0933 30.6054 11.4048 30.3003C12.0122 29.7054 12.0257 28.751 11.4487 28.1381C12.0257 27.5251 12.0123 26.5707 11.4048 25.9758C10.7974 25.3809 9.82318 25.3677 9.19739 25.9329C8.57144 25.3677 7.59711 25.3809 6.98982 25.9758Z" fill="#1886C4"/>
<path fill-rule="evenodd" clip-rule="evenodd" d="M40 25.9366C40 26.7996 39.2858 27.4991 38.4048 27.4991C37.5238 27.4991 36.8096 26.7996 36.8096 25.9366V6.25C36.8096 4.52688 35.3784 3.125 33.6193 3.125H13.9815C12.2224 3.125 10.7912 4.52688 10.7912 6.25V19.265C12.6406 19.58 14.3438 20.4419 15.6986 21.769C16.2524 22.3115 16.7205 22.9066 17.1032 23.538C17.1075 23.5377 17.1118 23.5374 17.1161 23.5371C17.1498 23.5347 17.1835 23.5323 17.2178 23.5323H30.383C31.264 23.5323 31.9781 24.2318 31.9781 25.0948C31.9781 25.9577 31.264 26.6573 30.383 26.6573H18.2633C18.4496 27.7608 18.4259 28.8918 18.1927 29.9884H30.383C31.2641 29.9884 31.9782 30.6879 31.9782 31.5509C31.9782 32.4138 31.2641 33.1134 30.383 33.1134H17.2178C17.104 33.1134 16.9933 33.1012 16.8863 33.0791C16.5477 33.5845 16.1519 34.0638 15.6987 34.5077H15.6987C14.7688 35.4184 13.6873 36.0924 12.5333 36.5309C12.9743 36.7516 13.4685 36.8749 13.9815 36.8749H33.6193C35.3784 36.8749 36.8096 35.473 36.8096 33.7499C36.8096 32.887 37.5238 32.187 38.4048 32.187C39.2858 32.187 40 32.8862 40 33.7491C40 37.1963 37.1376 40 33.6193 40H13.9815C11.7952 40 9.77217 38.8945 8.60976 37.123C6.45379 36.9894 4.33762 36.1181 2.69347 34.5077C0.956551 32.8064 0 30.5444 0 28.1384C0 25.7323 0.956631 23.4702 2.69355 21.769C4.04825 20.442 5.75135 19.5801 7.60081 19.265V6.25C7.60081 2.80375 10.4632 0 13.9815 0H33.6193C37.1376 0 40 2.80375 40 6.25V25.9366ZM4.94937 32.298C7.29094 34.5915 11.101 34.5916 13.4428 32.298C15.7843 30.0043 15.7843 26.2723 13.4427 23.9786C12.3083 22.8676 10.8002 22.2556 9.19607 22.2556C7.59187 22.2556 6.08379 22.8675 4.94945 23.9786C3.81504 25.0898 3.19037 26.567 3.19037 28.1383C3.19037 29.7096 3.81504 31.1869 4.94937 32.298Z" fill="#1886C4"/>
<path opacity="0.5" d="M32.565 5.47801C31.9874 4.84046 31.0496 4.84086 30.4712 5.47801L21.0481 15.8668L16.8599 11.2496C16.2815 10.6121 15.3441 10.6121 14.7658 11.2496C14.1875 11.8872 14.1875 12.9207 14.7658 13.5582L20.0008 19.3294C20.2898 19.648 20.6687 19.8077 21.0477 19.8077C21.4266 19.8077 21.8059 19.6484 22.0949 19.3294L32.565 7.78654C33.1433 7.14943 33.1433 6.11553 32.565 5.47801Z" fill="#1886C4"/>
</svg>
