<svg width="16" height="18" viewBox="0 0 16 18" fill="none" xmlns="http://www.w3.org/2000/svg">
<path fill-rule="evenodd" clip-rule="evenodd" d="M3.36028 4.67348C3.36028 2.10203 5.44767 0 8.00122 0C10.5548 0 12.6422 2.10203 12.6422 4.67348C12.6422 7.24492 10.5548 9.34695 8.00122 9.34695C5.44767 9.34695 3.36028 7.24492 3.36028 4.67348ZM15.4997 12.2245C15.6821 12.4898 15.8442 12.7755 15.9658 13.0816C16.0266 13.2041 16.0063 13.347 15.9051 13.4694C15.743 13.7551 15.5605 14.0204 15.3579 14.2857C15.0741 14.6735 14.7499 15.0204 14.4256 15.347C14.1419 15.6327 13.8176 15.9184 13.4934 16.1633C11.8924 17.3673 9.96708 18 7.98101 18C5.99493 18 4.06964 17.3674 2.46864 16.1633C2.14435 15.898 1.8201 15.6327 1.53639 15.347C1.19185 15.0204 0.887848 14.6735 0.604134 14.2857C0.421741 14.0409 0.2191 13.7551 0.0569552 13.4694C-0.0038296 13.347 -0.0240783 13.2041 0.0367065 13.0816C0.158276 12.7959 0.32042 12.4898 0.502813 12.2245C1.41478 10.8367 2.87392 9.91836 4.49521 9.69387C4.69785 9.65305 4.92078 9.71426 5.08293 9.83672C5.93411 10.4694 6.94739 10.7959 8.00126 10.7959C9.05512 10.7959 10.0684 10.4694 10.9196 9.83672C11.0817 9.71426 11.3047 9.67348 11.5073 9.69387C13.1286 9.91836 14.5674 10.8367 15.4997 12.2245Z" fill="white"/>
</svg>
