<svg width="18" height="18" viewBox="0 0 18 18" fill="none" xmlns="http://www.w3.org/2000/svg">
<path fill-rule="evenodd" clip-rule="evenodd" d="M12.1289 11.1446C12.1289 9.98147 13.0752 9.0352 14.2383 9.0352H16.5938V7.03127C16.5938 6.25586 15.9629 5.62502 15.1875 5.62502H2.10938C1.86293 5.62502 1.62629 5.58244 1.40625 5.5044V15.1875C1.40625 15.9629 2.03709 16.5938 2.8125 16.5938H15.1875C15.794 16.5938 16.3302 16.2076 16.5219 15.633C16.6448 15.2646 17.0431 15.0656 17.4114 15.1885C17.7798 15.3114 17.9788 15.7096 17.8559 16.078C17.4724 17.2276 16.4 18 15.1875 18H2.8125C1.26169 18 0 16.7383 0 15.1875V3.5508V3.51565V3.33986C0 3.24111 0.0205313 3.14724 0.0573047 3.06195C0.278402 2.1338 1.11452 1.44143 2.10938 1.44143H3.41016C3.79849 1.44143 4.11328 1.75622 4.11328 2.14455C4.11328 2.53289 3.79849 2.84768 3.41016 2.84768H2.10938C1.72754 2.84768 1.41581 3.15361 1.40646 3.53322C1.41581 3.91284 1.72754 4.21877 2.10938 4.21877H3.16789L9.94134 0.10226C10.102 0.00466603 10.2951 -0.0246191 10.4774 0.021084C10.6598 0.066787 10.8162 0.183576 10.9119 0.345435L11.7074 1.69171L13.4714 0.597786C13.6307 0.498997 13.8228 0.467884 14.0051 0.511407C14.1874 0.554861 14.3448 0.669329 14.4424 0.82936L16.8344 4.7535C17.5399 5.26498 18 6.0952 18 7.03127V12.5508C18 12.9391 17.6852 13.2539 17.2969 13.2539C17.2892 13.2539 17.2816 13.2534 17.274 13.2529L17.2619 13.2522L17.2502 13.2529C17.2423 13.2534 17.2345 13.2539 17.2266 13.2539H14.2383C13.0752 13.2539 12.1289 12.3077 12.1289 11.1446ZM14.2383 11.8477H16.5938V10.4414H14.2383C13.8506 10.4414 13.5352 10.7568 13.5352 11.1445C13.5352 11.5323 13.8506 11.8477 14.2383 11.8477ZM5.87559 4.2188L10.0634 1.67374L10.8121 2.94081C10.8265 2.97544 10.843 3.00957 10.8634 3.04248C10.8787 3.06712 10.8956 3.09008 10.9133 3.11216L11.5672 4.2188H5.87559ZM12.423 2.90266L13.2006 4.21877H14.8615L13.6104 2.16632L12.423 2.90266Z" fill="#8C8C8C"/>
</svg>
