<svg width="26" height="20" viewBox="0 0 26 20" fill="none" xmlns="http://www.w3.org/2000/svg">
<path fill-rule="evenodd" clip-rule="evenodd" d="M20.8664 2.382C19.0584 2.2077 16.226 1.99995 12.9998 1.99995C9.77364 1.99995 6.94122 2.20765 5.13322 2.382C3.72321 2.5179 2.59996 3.57605 2.4016 4.95525C2.15561 6.66545 2.03089 8.3627 2.03089 10C2.03089 11.6373 2.15561 13.3345 2.4016 15.0447C2.59996 16.424 3.72321 17.4821 5.13322 17.618C6.94127 17.7923 9.77364 18 12.9998 18C16.226 18 19.0584 17.7924 20.8664 17.618C22.2765 17.4821 23.3997 16.424 23.5981 15.0448C23.6767 14.4979 24.1907 14.1173 24.746 14.1948C25.3015 14.2723 25.6879 14.7783 25.6093 15.3251C25.279 17.621 23.4101 19.3824 21.0643 19.6085C19.2113 19.7871 16.308 20 12.9998 20C9.69158 20 6.78831 19.7871 4.93527 19.6085C2.58944 19.3825 0.720509 17.621 0.390273 15.3251C-0.130091 11.6887 -0.130091 8.31135 0.390273 4.67485C0.720509 2.379 2.58944 0.61755 4.93527 0.3915C6.78826 0.2129 9.69158 0 12.9998 0C16.308 0 19.2112 0.2129 21.0643 0.3915C23.4101 0.61755 25.279 2.379 25.6093 4.6749C25.8685 6.47765 26 8.26925 26 10C25.9469 11.3255 24.0224 11.3271 23.9687 10C23.9687 8.36275 23.844 6.6655 23.598 4.95535C23.3997 3.57605 22.2765 2.5179 20.8664 2.382ZM16.9358 8.3934C18.2487 9.1152 18.2484 11.06 16.9358 11.7815L12.576 14.2725C11.9557 14.6269 11.2143 14.6281 10.593 14.2757C9.96961 13.9222 9.59743 13.2877 9.59743 12.5784V7.5965C9.59743 6.88715 9.96961 6.2527 10.593 5.89925C11.2143 5.54685 11.9557 5.54815 12.576 5.90245L16.9358 8.3934ZM11.6287 7.67365L15.8537 10.0875L11.6287 12.5014V7.67365Z" fill="white"/>
</svg>
