<svg width="82" height="30" viewBox="0 0 82 30" fill="none" xmlns="http://www.w3.org/2000/svg">
<path d="M42 26.992H46.3748L58.5542 3H54.1874L42 26.992Z" fill="white"/>
<path fill-rule="evenodd" clip-rule="evenodd" d="M79.4752 26.992H75.148L72.6471 22.064H66.9623V26.992H62.6113V3H66.9146H67.5022L79.4752 26.992ZM66.9702 18.552H70.8845L66.9702 10.816V18.552Z" fill="white"/>
<path d="M58.8638 10.824L54.9575 18.576H58.8638V10.824Z" fill="white"/>
<path d="M50.7178 27.0001H58.8797V22.1521H53.1552L50.7178 27.0001Z" fill="white"/>
<path fill-rule="evenodd" clip-rule="evenodd" d="M82 24.856C82 24.152 81.4522 23.584 80.7614 23.584C80.0627 23.584 79.507 24.144 79.499 24.856C79.499 25.576 80.0627 26.136 80.7535 26.136C81.4522 26.136 82 25.576 82 24.856ZM79.7452 24.856C79.7452 24.256 80.2057 23.776 80.7614 23.776C81.3251 23.776 81.7777 24.264 81.7777 24.864C81.7777 25.456 81.3251 25.944 80.7614 25.936C80.1977 25.936 79.7452 25.464 79.7452 24.856ZM80.5074 25.6H80.293V24.176L80.3085 24.1739L80.3085 24.1739C80.4219 24.1586 80.5305 24.144 80.69 24.144C80.9043 24.144 81.0473 24.192 81.1267 24.256C81.2061 24.32 81.2537 24.416 81.2537 24.552C81.2537 24.736 81.1267 24.856 80.9758 24.896V24.904C81.1028 24.928 81.1822 25.04 81.214 25.248C81.241 25.4319 81.2738 25.523 81.2928 25.5757L81.2928 25.5757C81.2961 25.5848 81.299 25.5929 81.3013 25.6H81.0631C81.0314 25.552 80.9996 25.424 80.9679 25.24C80.9361 25.056 80.8488 24.992 80.6662 24.992H80.5074V25.6ZM80.682 24.808H80.5153V24.328C80.5323 24.328 80.5521 24.3265 80.5748 24.3249C80.6054 24.3226 80.6411 24.32 80.682 24.32C80.9361 24.32 81.0234 24.44 81.0234 24.568C81.0234 24.744 80.8646 24.808 80.682 24.808Z" fill="white"/>
<path d="M9.042 7.704C9.042 8.348 8.94 8.94 8.736 9.48C8.532 10.016 8.244 10.478 7.872 10.866C7.5 11.254 7.052 11.556 6.528 11.772C6.008 11.984 5.432 12.09 4.8 12.09C4.168 12.09 3.592 11.984 3.072 11.772C2.552 11.556 2.106 11.254 1.734 10.866C1.362 10.478 1.074 10.016 0.87 9.48C0.666 8.94 0.564 8.348 0.564 7.704C0.564 7.06 0.666 6.47 0.87 5.934C1.074 5.394 1.362 4.93 1.734 4.542C2.106 4.15 2.552 3.846 3.072 3.63C3.592 3.414 4.168 3.306 4.8 3.306C5.432 3.306 6.008 3.414 6.528 3.63C7.052 3.846 7.5 4.15 7.872 4.542C8.244 4.93 8.532 5.394 8.736 5.934C8.94 6.47 9.042 7.06 9.042 7.704ZM7.848 7.704C7.848 7.176 7.776 6.702 7.632 6.282C7.488 5.862 7.284 5.508 7.02 5.22C6.756 4.928 6.436 4.704 6.06 4.548C5.684 4.392 5.264 4.314 4.8 4.314C4.34 4.314 3.922 4.392 3.546 4.548C3.17 4.704 2.848 4.928 2.58 5.22C2.316 5.508 2.112 5.862 1.968 6.282C1.824 6.702 1.752 7.176 1.752 7.704C1.752 8.232 1.824 8.706 1.968 9.126C2.112 9.542 2.316 9.896 2.58 10.188C2.848 10.476 3.17 10.698 3.546 10.854C3.922 11.006 4.34 11.082 4.8 11.082C5.264 11.082 5.684 11.006 6.06 10.854C6.436 10.698 6.756 10.476 7.02 10.188C7.284 9.896 7.488 9.542 7.632 9.126C7.776 8.706 7.848 8.232 7.848 7.704ZM10.8165 12V6.834L10.1445 6.756C10.0565 6.736 9.9865 6.706 9.9345 6.666C9.8825 6.622 9.8565 6.56 9.8565 6.48V6.042H10.8165V5.544C10.8165 5.196 10.8645 4.888 10.9605 4.62C11.0605 4.348 11.2005 4.12 11.3805 3.936C11.5605 3.748 11.7785 3.606 12.0345 3.51C12.2905 3.414 12.5785 3.366 12.8985 3.366C13.1705 3.366 13.4225 3.406 13.6545 3.486L13.6245 4.026C13.6165 4.122 13.5645 4.174 13.4685 4.182C13.3725 4.19 13.2405 4.194 13.0725 4.194C12.8885 4.194 12.7205 4.218 12.5685 4.266C12.4205 4.31 12.2925 4.386 12.1845 4.494C12.0805 4.602 11.9985 4.746 11.9385 4.926C11.8825 5.102 11.8545 5.32 11.8545 5.58V6.042H14.5965V5.706C14.5965 5.334 14.6545 4.994 14.7705 4.686C14.8865 4.374 15.0605 4.106 15.2925 3.882C15.5245 3.658 15.8125 3.484 16.1565 3.36C16.5045 3.236 16.9065 3.174 17.3625 3.174C17.5145 3.174 17.6705 3.184 17.8305 3.204C17.9905 3.224 18.1285 3.254 18.2445 3.294L18.2025 3.852C18.1985 3.892 18.1825 3.92 18.1545 3.936C18.1305 3.952 18.0965 3.962 18.0525 3.966C18.0085 3.97 17.9525 3.972 17.8845 3.972C17.8205 3.968 17.7465 3.966 17.6625 3.966C16.9505 3.966 16.4345 4.114 16.1145 4.41C15.7945 4.702 15.6345 5.144 15.6345 5.736V6.042H19.3065V12H18.2325V6.816H15.6645V12H14.5965V6.816H11.8845V12H10.8165ZM25.2908 7.002C25.2588 7.046 25.2268 7.08 25.1948 7.104C25.1628 7.128 25.1188 7.14 25.0628 7.14C25.0028 7.14 24.9368 7.116 24.8648 7.068C24.7928 7.016 24.7028 6.96 24.5948 6.9C24.4908 6.84 24.3608 6.786 24.2048 6.738C24.0528 6.686 23.8648 6.66 23.6408 6.66C23.3408 6.66 23.0768 6.714 22.8488 6.822C22.6208 6.926 22.4288 7.078 22.2728 7.278C22.1208 7.478 22.0048 7.72 21.9248 8.004C21.8488 8.288 21.8108 8.606 21.8108 8.958C21.8108 9.326 21.8528 9.654 21.9368 9.942C22.0208 10.226 22.1388 10.466 22.2908 10.662C22.4468 10.854 22.6328 11.002 22.8488 11.106C23.0688 11.206 23.3148 11.256 23.5868 11.256C23.8468 11.256 24.0608 11.226 24.2288 11.166C24.3968 11.102 24.5348 11.032 24.6428 10.956C24.7548 10.88 24.8468 10.812 24.9188 10.752C24.9948 10.688 25.0688 10.656 25.1408 10.656C25.2288 10.656 25.2968 10.69 25.3448 10.758L25.6448 11.148C25.5128 11.312 25.3628 11.452 25.1948 11.568C25.0268 11.684 24.8448 11.782 24.6488 11.862C24.4568 11.938 24.2548 11.994 24.0428 12.03C23.8308 12.066 23.6148 12.084 23.3948 12.084C23.0148 12.084 22.6608 12.014 22.3328 11.874C22.0088 11.734 21.7268 11.532 21.4868 11.268C21.2468 11 21.0588 10.672 20.9228 10.284C20.7868 9.896 20.7188 9.454 20.7188 8.958C20.7188 8.506 20.7808 8.088 20.9048 7.704C21.0328 7.32 21.2168 6.99 21.4568 6.714C21.7008 6.434 21.9988 6.216 22.3508 6.06C22.7068 5.904 23.1148 5.826 23.5748 5.826C24.0028 5.826 24.3788 5.896 24.7028 6.036C25.0308 6.172 25.3208 6.366 25.5728 6.618L25.2908 7.002ZM27.9193 5.922V12H26.8513V5.922H27.9193ZM28.1473 4.014C28.1473 4.118 28.1253 4.216 28.0813 4.308C28.0413 4.396 27.9853 4.476 27.9133 4.548C27.8453 4.616 27.7633 4.67 27.6673 4.71C27.5753 4.75 27.4773 4.77 27.3733 4.77C27.2693 4.77 27.1713 4.75 27.0793 4.71C26.9913 4.67 26.9133 4.616 26.8453 4.548C26.7773 4.476 26.7233 4.396 26.6833 4.308C26.6433 4.216 26.6233 4.118 26.6233 4.014C26.6233 3.91 26.6433 3.812 26.6833 3.72C26.7233 3.624 26.7773 3.542 26.8453 3.474C26.9133 3.402 26.9913 3.346 27.0793 3.306C27.1713 3.266 27.2693 3.246 27.3733 3.246C27.4773 3.246 27.5753 3.266 27.6673 3.306C27.7633 3.346 27.8453 3.402 27.9133 3.474C27.9853 3.542 28.0413 3.624 28.0813 3.72C28.1253 3.812 28.1473 3.91 28.1473 4.014ZM32.9681 9.264C32.4761 9.28 32.0561 9.32 31.7081 9.384C31.3641 9.444 31.0821 9.524 30.8621 9.624C30.6461 9.724 30.4881 9.842 30.3881 9.978C30.2921 10.114 30.2441 10.266 30.2441 10.434C30.2441 10.594 30.2701 10.732 30.3221 10.848C30.3741 10.964 30.4441 11.06 30.5321 11.136C30.6241 11.208 30.7301 11.262 30.8501 11.298C30.9741 11.33 31.1061 11.346 31.2461 11.346C31.4341 11.346 31.6061 11.328 31.7621 11.292C31.9181 11.252 32.0641 11.196 32.2001 11.124C32.3401 11.052 32.4721 10.966 32.5961 10.866C32.7241 10.766 32.8481 10.652 32.9681 10.524V9.264ZM29.5181 6.78C29.8541 6.456 30.2161 6.214 30.6041 6.054C30.9921 5.894 31.4221 5.814 31.8941 5.814C32.2341 5.814 32.5361 5.87 32.8001 5.982C33.0641 6.094 33.2861 6.25 33.4661 6.45C33.6461 6.65 33.7821 6.892 33.8741 7.176C33.9661 7.46 34.0121 7.772 34.0121 8.112V12H33.5381C33.4341 12 33.3541 11.984 33.2981 11.952C33.2421 11.916 33.1981 11.848 33.1661 11.748L33.0461 11.172C32.8861 11.32 32.7301 11.452 32.5781 11.568C32.4261 11.68 32.2661 11.776 32.0981 11.856C31.9301 11.932 31.7501 11.99 31.5581 12.03C31.3701 12.074 31.1601 12.096 30.9281 12.096C30.6921 12.096 30.4701 12.064 30.2621 12C30.0541 11.932 29.8721 11.832 29.7161 11.7C29.5641 11.568 29.4421 11.402 29.3501 11.202C29.2621 10.998 29.2181 10.758 29.2181 10.482C29.2181 10.242 29.2841 10.012 29.4161 9.792C29.5481 9.568 29.7621 9.37 30.0581 9.198C30.3541 9.026 30.7401 8.886 31.2161 8.778C31.6921 8.666 32.2761 8.602 32.9681 8.586V8.112C32.9681 7.64 32.8661 7.284 32.6621 7.044C32.4581 6.8 32.1601 6.678 31.7681 6.678C31.5041 6.678 31.2821 6.712 31.1021 6.78C30.9261 6.844 30.7721 6.918 30.6401 7.002C30.5121 7.082 30.4001 7.156 30.3041 7.224C30.2121 7.288 30.1201 7.32 30.0281 7.32C29.9561 7.32 29.8941 7.302 29.8421 7.266C29.7901 7.226 29.7461 7.178 29.7101 7.122L29.5181 6.78ZM36.743 3.162V12H35.675V3.162H36.743ZM1.92 24.536C2.116 24.8 2.33 24.986 2.562 25.094C2.798 25.202 3.056 25.256 3.336 25.256C3.908 25.256 4.346 25.054 4.65 24.65C4.954 24.246 5.106 23.644 5.106 22.844C5.106 22.1 4.97 21.554 4.698 21.206C4.43 20.854 4.046 20.678 3.546 20.678C3.198 20.678 2.894 20.758 2.634 20.918C2.378 21.078 2.14 21.304 1.92 21.596V24.536ZM1.92 20.798C2.176 20.502 2.464 20.266 2.784 20.09C3.108 19.914 3.48 19.826 3.9 19.826C4.256 19.826 4.576 19.894 4.86 20.03C5.148 20.166 5.392 20.364 5.592 20.624C5.792 20.88 5.944 21.192 6.048 21.56C6.156 21.928 6.21 22.342 6.21 22.802C6.21 23.294 6.15 23.742 6.03 24.146C5.91 24.55 5.736 24.896 5.508 25.184C5.284 25.468 5.01 25.69 4.686 25.85C4.362 26.006 3.998 26.084 3.594 26.084C3.194 26.084 2.856 26.01 2.58 25.862C2.308 25.71 2.07 25.496 1.866 25.22L1.812 25.772C1.78 25.924 1.688 26 1.536 26H0.846V17.162H1.92V20.798ZM8.57484 21.14C8.76684 20.724 9.00284 20.4 9.28284 20.168C9.56284 19.932 9.90484 19.814 10.3088 19.814C10.4368 19.814 10.5588 19.828 10.6748 19.856C10.7948 19.884 10.9008 19.928 10.9928 19.988L10.9148 20.786C10.8908 20.886 10.8308 20.936 10.7348 20.936C10.6788 20.936 10.5968 20.924 10.4888 20.9C10.3808 20.876 10.2588 20.864 10.1228 20.864C9.93084 20.864 9.75884 20.892 9.60684 20.948C9.45884 21.004 9.32484 21.088 9.20484 21.2C9.08884 21.308 8.98284 21.444 8.88684 21.608C8.79484 21.768 8.71084 21.952 8.63484 22.16V26H7.56084V19.922H8.17284C8.28884 19.922 8.36884 19.944 8.41284 19.988C8.45684 20.032 8.48684 20.108 8.50284 20.216L8.57484 21.14ZM14.2478 19.826C14.6918 19.826 15.0918 19.9 15.4478 20.048C15.8038 20.196 16.1078 20.406 16.3598 20.678C16.6118 20.95 16.8038 21.28 16.9358 21.668C17.0718 22.052 17.1398 22.482 17.1398 22.958C17.1398 23.438 17.0718 23.87 16.9358 24.254C16.8038 24.638 16.6118 24.966 16.3598 25.238C16.1078 25.51 15.8038 25.72 15.4478 25.868C15.0918 26.012 14.6918 26.084 14.2478 26.084C13.7998 26.084 13.3958 26.012 13.0358 25.868C12.6798 25.72 12.3758 25.51 12.1238 25.238C11.8718 24.966 11.6778 24.638 11.5418 24.254C11.4098 23.87 11.3438 23.438 11.3438 22.958C11.3438 22.482 11.4098 22.052 11.5418 21.668C11.6778 21.28 11.8718 20.95 12.1238 20.678C12.3758 20.406 12.6798 20.196 13.0358 20.048C13.3958 19.9 13.7998 19.826 14.2478 19.826ZM14.2478 25.25C14.8478 25.25 15.2958 25.05 15.5918 24.65C15.8878 24.246 16.0358 23.684 16.0358 22.964C16.0358 22.24 15.8878 21.676 15.5918 21.272C15.2958 20.868 14.8478 20.666 14.2478 20.666C13.9438 20.666 13.6778 20.718 13.4498 20.822C13.2258 20.926 13.0378 21.076 12.8858 21.272C12.7378 21.468 12.6258 21.71 12.5498 21.998C12.4778 22.282 12.4418 22.604 12.4418 22.964C12.4418 23.684 12.5898 24.246 12.8858 24.65C13.1858 25.05 13.6398 25.25 14.2478 25.25ZM19.5684 17.162V22.364H19.8444C19.9244 22.364 19.9904 22.354 20.0424 22.334C20.0984 22.31 20.1564 22.264 20.2164 22.196L22.1364 20.138C22.1924 20.07 22.2504 20.018 22.3104 19.982C22.3744 19.942 22.4584 19.922 22.5624 19.922H23.5284L21.2904 22.304C21.1824 22.44 21.0664 22.546 20.9424 22.622C21.0144 22.67 21.0784 22.726 21.1344 22.79C21.1944 22.85 21.2504 22.92 21.3024 23L23.6784 26H22.7244C22.6324 26 22.5524 25.986 22.4844 25.958C22.4204 25.926 22.3644 25.87 22.3164 25.79L20.3184 23.3C20.2584 23.216 20.1984 23.162 20.1384 23.138C20.0824 23.11 19.9944 23.096 19.8744 23.096H19.5684V26H18.4944V17.162H19.5684ZM28.3163 22.298C28.3163 22.05 28.2803 21.824 28.2083 21.62C28.1403 21.412 28.0383 21.234 27.9023 21.086C27.7703 20.934 27.6083 20.818 27.4163 20.738C27.2243 20.654 27.0063 20.612 26.7623 20.612C26.2503 20.612 25.8443 20.762 25.5443 21.062C25.2483 21.358 25.0643 21.77 24.9923 22.298H28.3163ZM29.1803 25.148C29.0483 25.308 28.8903 25.448 28.7063 25.568C28.5223 25.684 28.3243 25.78 28.1123 25.856C27.9043 25.932 27.6883 25.988 27.4643 26.024C27.2403 26.064 27.0183 26.084 26.7983 26.084C26.3783 26.084 25.9903 26.014 25.6343 25.874C25.2823 25.73 24.9763 25.522 24.7163 25.25C24.4603 24.974 24.2603 24.634 24.1163 24.23C23.9723 23.826 23.9003 23.362 23.9003 22.838C23.9003 22.414 23.9643 22.018 24.0923 21.65C24.2243 21.282 24.4123 20.964 24.6563 20.696C24.9003 20.424 25.1983 20.212 25.5503 20.06C25.9023 19.904 26.2983 19.826 26.7383 19.826C27.1023 19.826 27.4383 19.888 27.7463 20.012C28.0583 20.132 28.3263 20.308 28.5503 20.54C28.7783 20.768 28.9563 21.052 29.0843 21.392C29.2123 21.728 29.2763 22.112 29.2763 22.544C29.2763 22.712 29.2583 22.824 29.2223 22.88C29.1863 22.936 29.1183 22.964 29.0183 22.964H24.9563C24.9683 23.348 25.0203 23.682 25.1123 23.966C25.2083 24.25 25.3403 24.488 25.5083 24.68C25.6763 24.868 25.8763 25.01 26.1083 25.106C26.3403 25.198 26.6003 25.244 26.8883 25.244C27.1563 25.244 27.3863 25.214 27.5783 25.154C27.7743 25.09 27.9423 25.022 28.0823 24.95C28.2223 24.878 28.3383 24.812 28.4303 24.752C28.5263 24.688 28.6083 24.656 28.6763 24.656C28.7643 24.656 28.8323 24.69 28.8803 24.758L29.1803 25.148ZM31.6022 21.14C31.7942 20.724 32.0302 20.4 32.3102 20.168C32.5902 19.932 32.9322 19.814 33.3362 19.814C33.4642 19.814 33.5862 19.828 33.7022 19.856C33.8222 19.884 33.9282 19.928 34.0202 19.988L33.9422 20.786C33.9182 20.886 33.8582 20.936 33.7622 20.936C33.7062 20.936 33.6242 20.924 33.5162 20.9C33.4082 20.876 33.2862 20.864 33.1502 20.864C32.9582 20.864 32.7862 20.892 32.6342 20.948C32.4862 21.004 32.3522 21.088 32.2322 21.2C32.1162 21.308 32.0102 21.444 31.9142 21.608C31.8222 21.768 31.7382 21.952 31.6622 22.16V26H30.5882V19.922H31.2002C31.3162 19.922 31.3962 19.944 31.4402 19.988C31.4842 20.032 31.5142 20.108 31.5302 20.216L31.6022 21.14Z" fill="white"/>
</svg>
