<svg width="266" height="70" viewBox="0 0 266 70" fill="none" xmlns="http://www.w3.org/2000/svg">
<path fill-rule="evenodd" clip-rule="evenodd" d="M99.1619 7.44183C120.508 2.21229 141.476 3.83024 162.067 12.2957C141.405 -2.0945 116.52 -3.85358 87.4112 7.01843C94.5355 11.0792 101.002 13.3677 106.811 13.8839L99.1619 7.44183ZM80.355 5.33042C86.9721 10.9197 97.4631 15.1878 111.828 18.1347L110.35 17.8685L108.903 17.6166L107.485 17.379L106.097 17.1555L104.071 16.8471C103.849 16.8146 103.629 16.7827 103.41 16.7514L102.112 16.5706L100.843 16.4041L99.6045 16.2519L98.3957 16.1139L97.2167 15.9901L96.0676 15.8805L94.9484 15.7852C94.7643 15.7705 94.5815 15.7564 94.3999 15.7429L93.3255 15.6689L92.2809 15.6092L91.2662 15.5637C90.933 15.5509 90.6047 15.5405 90.2814 15.5325L89.3264 15.5155L88.4013 15.5127C88.0979 15.5141 87.7995 15.5179 87.5061 15.5241L86.6407 15.5498C86.4989 15.5553 86.3584 15.5614 86.2192 15.568L85.3986 15.615C85.1301 15.6331 84.8665 15.6535 84.6079 15.6763L83.8471 15.7518C78.9986 16.2889 76.043 17.7282 74.9802 20.0697C73.2956 20.7121 72.7583 20.1532 73.3684 18.393C76.1846 12.3611 74.543 8.00692 68.4436 5.33042H80.355ZM133.415 13.5076L134.041 13.1017C135.128 12.374 136.667 11.9192 137.573 13.3746L137.837 13.8013L138.332 14.6132L139.046 15.8175L140.108 17.6499L140.317 18.0431C141.025 19.4135 141.079 20.0493 140.163 21.658L139.889 22.1222L139.565 22.6422L138.79 23.8542L137.837 25.3741L136.815 27.0352L135.732 28.8248L134.595 30.7301L133.411 32.7385L132.188 34.8372L130.51 37.7541L128.792 40.7789L127.052 43.8815C126.907 44.1424 126.762 44.4039 126.616 44.6657C128.518 45.6663 129.514 47.1217 129.967 48.5771C130.148 49.3958 129.876 49.8506 128.97 49.6687C127.612 49.3958 125.982 49.3048 124.081 49.3958L123.586 50.3098L122.609 52.1379L121.649 53.9616C118.802 59.4202 116.254 64.7408 114.482 69.2256C114.12 70.1352 113.396 70.2262 112.943 69.5895L112.726 69.2606L112.515 68.9213L112.315 68.5692C111.311 66.7128 110.806 64.2473 112.4 59.6745L112.565 59.2318L112.929 58.2918L113.335 57.283L113.405 57.1117C113.454 56.9937 113.503 56.8745 113.553 56.7542L114.02 55.6503L114.525 54.4888L115.066 53.2739L115.641 52.0101L116.249 50.7019C116.353 50.4804 116.458 50.2572 116.565 50.0325L114.707 50.2967C110.664 50.8892 106.562 51.6092 103.345 52.3975C101.986 52.6704 101.081 52.6704 100.266 51.6698C99.4509 50.5993 98.5925 49.1799 97.9011 47.9551L97.4671 47.1733L97.0965 46.485C96.5532 45.4844 96.7343 44.3928 97.4587 43.5742C99.6061 41.0272 102.567 38.057 105.971 34.9394L107.267 33.7639C107.486 33.567 107.707 33.3697 107.93 33.172L109.28 31.9818C109.508 31.7829 109.737 31.5837 109.968 31.3843L111.363 30.1868L112.783 28.9883L114.222 27.7922C114.463 27.5932 114.705 27.3944 114.948 27.196L116.409 26.0094C116.654 25.8125 116.898 25.6159 117.143 25.4199L118.617 24.2501C119.108 23.8626 119.601 23.4776 120.093 23.0957L121.567 21.9597L123.035 20.8455C123.279 20.6618 123.522 20.4791 123.765 20.2975L125.216 19.2219C125.457 19.0451 125.696 18.8694 125.935 18.6951L127.359 17.6655L128.76 16.6705C128.991 16.5077 129.221 16.3465 129.45 16.187L130.807 15.25L132.13 14.3558L133.415 13.5076ZM205.344 35.524C206.43 35.524 207.423 35.7514 208.322 36.2062C209.221 36.661 209.997 37.3205 210.651 38.1846C211.304 39.0488 211.808 40.1143 212.164 41.3813C212.52 42.6483 212.698 44.1005 212.698 45.7378C212.698 47.2322 212.497 48.6161 212.096 49.8896C211.695 51.163 211.123 52.2676 210.379 53.2032C209.635 54.1388 208.736 54.8698 207.682 55.3961C206.628 55.9223 205.447 56.1855 204.141 56.1855C203.015 56.1855 202.061 56.0133 201.279 55.6689C200.496 55.3246 199.794 54.847 199.173 54.2363V62.4229H194.381V35.8943H197.311C197.621 35.8943 197.886 35.9658 198.106 36.1087C198.326 36.2517 198.468 36.4726 198.533 36.7715L198.921 38.6232C199.723 37.7006 200.645 36.9534 201.686 36.3816C202.727 35.8099 203.947 35.524 205.344 35.524ZM260.198 36.0698V29.7739H257.715C257.43 29.7739 257.194 29.8453 257.006 29.9883C256.819 30.1312 256.699 30.3326 256.647 30.5925L255.638 36.0503L252.437 36.5766V38.4868C252.437 38.8246 252.531 39.078 252.718 39.247C252.906 39.4159 253.129 39.5004 253.388 39.5004H255.406V50.6693C255.406 52.3975 255.871 53.7522 256.803 54.7333C257.734 55.7144 259.06 56.205 260.78 56.205C261.751 56.205 262.688 56.0555 263.594 55.7567C264.499 55.4578 265.301 55.016 266 54.4312L264.564 52.0922C264.461 51.9492 264.364 51.842 264.273 51.7705C264.182 51.6991 264.066 51.6633 263.924 51.6633C263.807 51.6633 263.691 51.6991 263.575 51.7705L263.32 51.9178L263.177 51.9947C263.028 52.0727 262.853 52.1474 262.653 52.2189C262.452 52.2903 262.203 52.3261 261.906 52.3261C261.388 52.3261 260.974 52.1506 260.664 51.7998C260.353 51.4489 260.198 50.9616 260.198 50.3379V39.5004H265.437V36.0698H260.198ZM58.0173 29.7739V36.0698H63.2563V39.5004H58.0173V50.3379C58.0173 50.9616 58.1725 51.4489 58.483 51.7998C58.7935 52.1506 59.2074 52.3261 59.7248 52.3261C60.0224 52.3261 60.2714 52.2903 60.4719 52.2189C60.6724 52.1474 60.847 52.0727 60.9958 51.9947L61.1392 51.9178L61.3936 51.7705C61.51 51.6991 61.6264 51.6633 61.7428 51.6633C61.8851 51.6633 62.0016 51.6991 62.0921 51.7705C62.1827 51.842 62.2797 51.9492 62.3832 52.0922L63.819 54.4312C63.1205 55.016 62.3185 55.4578 61.413 55.7567C60.5075 56.0555 59.5696 56.205 58.5994 56.205C56.879 56.205 55.553 55.7144 54.6217 54.7333C53.6903 53.7522 53.2246 52.3975 53.2246 50.6693V39.5004H51.2066C50.9479 39.5004 50.7247 39.4159 50.5372 39.247C50.3496 39.078 50.2558 38.8246 50.2558 38.4868V36.5766L53.4574 36.0503L54.4664 30.5925C54.5182 30.3326 54.6378 30.1312 54.8254 29.9883C55.013 29.8453 55.249 29.7739 55.5336 29.7739H58.0173ZM34.3835 48.6031V35.8943H29.5908V48.6031C29.5908 49.7206 29.7363 50.744 30.0274 51.6731C30.3184 52.6022 30.7485 53.4046 31.3177 54.0803C31.8869 54.7561 32.5887 55.2791 33.423 55.6495C34.2574 56.0198 35.2179 56.205 36.3045 56.205C36.9642 56.205 37.5819 56.1367 38.1575 56.0003C38.7332 55.8639 39.27 55.6754 39.7681 55.435C40.2661 55.1946 40.735 54.9023 41.1748 54.5579C41.6146 54.2135 42.0415 53.8335 42.4555 53.4176L42.7853 55.016C42.9794 55.6007 43.3869 55.8931 44.0078 55.8931H46.9378V35.8943H42.145V50.3574C41.4982 51.0071 40.8126 51.5172 40.0882 51.8875C39.3638 52.2578 38.5877 52.443 37.7598 52.443C36.6343 52.443 35.7903 52.1084 35.2276 51.4392C34.6649 50.77 34.3835 49.8246 34.3835 48.6031ZM224.825 35.5825C226.313 35.5825 227.661 35.8229 228.871 36.3037C230.08 36.7845 231.112 37.4667 231.966 38.3503C232.82 39.234 233.479 40.3125 233.945 41.586C234.411 42.8595 234.643 44.2824 234.643 45.8547C234.643 47.4401 234.411 48.8695 233.945 50.143C233.479 51.4164 232.82 52.5015 231.966 53.3981C231.112 54.2948 230.08 54.9835 228.871 55.4643C227.661 55.9451 226.313 56.1855 224.825 56.1855C223.338 56.1855 221.986 55.9451 220.77 55.4643C219.554 54.9835 218.516 54.2948 217.655 53.3981C216.795 52.5015 216.129 51.4164 215.657 50.143C215.185 48.8695 214.949 47.4401 214.949 45.8547C214.949 44.2824 215.185 42.8595 215.657 41.586C216.129 40.3125 216.795 39.234 217.655 38.3503C218.516 37.4667 219.554 36.7845 220.77 36.3037C221.986 35.8229 223.338 35.5825 224.825 35.5825ZM79.6234 36.3037C78.4139 35.8229 77.0654 35.5825 75.5777 35.5825C74.0901 35.5825 72.7383 35.8229 71.5223 36.3037C70.3064 36.7845 69.2683 37.4667 68.408 38.3503C67.5478 39.234 66.8816 40.3125 66.4094 41.586C65.9373 42.8595 65.7012 44.2824 65.7012 45.8547C65.7012 47.4401 65.9373 48.8695 66.4094 50.143C66.8816 51.4164 67.5478 52.5015 68.408 53.3981C69.2683 54.2948 70.3064 54.9835 71.5223 55.4643C72.7383 55.9451 74.0901 56.1855 75.5777 56.1855C77.0654 56.1855 78.4139 55.9451 79.6234 55.4643C80.8329 54.9835 81.8646 54.2948 82.7183 53.3981C83.5721 52.5015 84.2318 51.4164 84.6975 50.143C85.1632 48.8695 85.396 47.4401 85.396 45.8547C85.396 44.2824 85.1632 42.8595 84.6975 41.586C84.2318 40.3125 83.5721 39.234 82.7183 38.3503C81.8646 37.4667 80.8329 36.7845 79.6234 36.3037ZM169.175 27.7077V31.879H156.737V39.6953H166.536V43.7301H156.737V51.7023H169.175V55.8931H151.479V27.7077H169.175ZM27.3787 55.8931L16.3574 27.7077H11.0213L0 55.8931H4.05539C4.49521 55.8931 4.86712 55.7697 5.17111 55.5228C5.4751 55.2759 5.67884 55.003 5.78233 54.7041L7.87794 48.954H19.5008L21.5964 54.7041C21.7258 55.042 21.936 55.3246 22.227 55.552C22.5181 55.7794 22.89 55.8931 23.3428 55.8931H27.3787ZM176.219 35.8943C176.568 35.8943 176.827 35.9431 176.995 36.0405C177.163 36.138 177.312 36.2972 177.441 36.5181L181.613 43.2038C181.678 42.9829 181.758 42.762 181.855 42.5411C181.952 42.3202 182.072 42.0993 182.214 41.8784L185.571 36.6155C185.727 36.3686 185.888 36.1867 186.056 36.0698C186.225 35.9528 186.432 35.8943 186.677 35.8943H191.082L184.523 45.3674L191.354 55.8931H186.736C186.386 55.8931 186.105 55.8021 185.891 55.6202C185.678 55.4383 185.5 55.2304 185.358 54.9965L181.128 48.0378C181.011 48.5056 180.85 48.8955 180.643 49.2074L176.917 54.9965C176.775 55.2174 176.6 55.422 176.393 55.6105C176.186 55.7989 175.928 55.8931 175.617 55.8931H171.329L178.14 45.5818L171.601 35.8943H176.219ZM251.078 36.2062C250.432 35.7514 249.617 35.524 248.634 35.524C247.444 35.524 246.37 35.8813 245.413 36.5961C244.455 37.3108 243.621 38.2854 242.91 39.5198L242.618 37.1028C242.554 36.661 242.424 36.3492 242.23 36.1672C242.036 35.9853 241.694 35.8943 241.202 35.8943H238.388V55.8931H243.181V43.4377C243.673 42.3722 244.274 41.5633 244.986 41.011C245.697 40.4587 246.551 40.1826 247.547 40.1826C248.103 40.1826 248.55 40.2281 248.886 40.319L249.079 40.3681C249.325 40.4263 249.526 40.4555 249.681 40.4555C249.901 40.4555 250.076 40.4067 250.205 40.3093C250.335 40.2118 250.419 40.0461 250.458 39.8122L251.078 36.2062ZM203.694 39.3249C202.698 39.3249 201.848 39.5361 201.143 39.9584C200.438 40.3807 199.781 40.9752 199.173 41.7419V50.7082C199.717 51.384 200.308 51.855 200.949 52.1214C201.589 52.3878 202.278 52.521 203.015 52.521C203.74 52.521 204.396 52.3845 204.985 52.1117C205.573 51.8388 206.071 51.4229 206.479 50.8642C206.886 50.3054 207.2 49.6004 207.42 48.7493C207.64 47.8981 207.75 46.8943 207.75 45.7378C207.75 44.5683 207.656 43.5774 207.468 42.7653C207.281 41.9531 207.012 41.2936 206.663 40.7868C206.314 40.28 205.89 39.9097 205.392 39.6758C204.894 39.4419 204.328 39.3249 203.694 39.3249ZM71.8522 40.972C72.6542 39.835 73.8961 39.2664 75.5777 39.2664C77.2335 39.2664 78.4592 39.8317 79.2548 40.9622C80.0503 42.0928 80.4481 43.7366 80.4481 45.8937C80.4481 48.0508 80.0503 49.6882 79.2548 50.8057C78.4592 51.9232 77.2335 52.482 75.5777 52.482C73.8961 52.482 72.6542 51.92 71.8522 50.796C71.0502 49.6719 70.6492 48.0378 70.6492 45.8937C70.6492 43.7496 71.0502 42.109 71.8522 40.972ZM224.825 39.2664C223.144 39.2664 221.902 39.835 221.1 40.972C220.298 42.109 219.897 43.7496 219.897 45.8937C219.897 48.0378 220.298 49.6719 221.1 50.796C221.902 51.92 223.144 52.482 224.825 52.482C226.481 52.482 227.707 51.9232 228.502 50.8057C229.298 49.6882 229.696 48.0508 229.696 45.8937C229.696 43.7366 229.298 42.0928 228.502 40.9622C227.707 39.8317 226.481 39.2664 224.825 39.2664ZM131.958 21.6449L132.864 21.0155C128.518 27.3828 123.719 35.8424 119.734 43.5742C113.939 43.8471 107.057 45.0296 101.534 46.485C107.225 40.3775 115.412 33.7131 123.453 27.7515L125.379 26.3348L127.291 24.949C127.608 24.7208 127.924 24.4941 128.239 24.2689L130.116 22.9366L131.958 21.6449ZM13.6797 32.5612L13.4104 33.5212C13.3215 33.8298 13.2334 34.1271 13.1461 34.4129L12.9381 35.0648C12.8348 35.3735 12.7328 35.6565 12.6319 35.9138L9.2168 45.2505H18.1619L14.5528 35.34L14.2327 34.4032C14.0451 33.8379 13.8608 33.2239 13.6797 32.5612ZM189.289 22.1667C194.476 21.7448 197.745 24.3184 199.096 29.8877C199.096 15.5703 184.909 10.6588 156.534 15.153L154.684 15.456C153.126 15.7194 151.526 16.0099 149.886 16.3277L153.733 16.2324L156.425 16.1818L158.957 16.1484L160.56 16.1354L162.097 16.1296L163.992 16.1324L165.942 16.1483L167.175 16.1661L168.356 16.1896L169.488 16.2185L171.093 16.2716L172.105 16.3134L173.072 16.36L174.441 16.4388L175.716 16.5277L176.517 16.5923L177.648 16.6968L178.357 16.7713L179.357 16.8899L180.285 17.0163L180.867 17.1046L181.42 17.196L182.2 17.3384L182.924 17.4868L183.379 17.5889L184.022 17.7461L184.623 17.9078L185.368 18.1297L185.89 18.3L186.345 18.4583C186.629 18.5597 186.901 18.6622 187.168 18.7654L187.432 18.8688L186.065 19.8149L189.289 22.1667Z" fill="#1886C4"/>
</svg>
