<svg width="38" height="27" viewBox="0 0 38 27" fill="none" xmlns="http://www.w3.org/2000/svg">
<path d="M15 15.44C12.08 21.48 7.64 24.84 5.2 23.88C2.6 22.88 2.56 16.44 6 10.52C9.4 4.68 14.08 1.72 15.92 2.36C18 3.08 18.24 8.76 15 15.44ZM16.64 1.48C15.6 0.4 13.72 0.0399995 11.56 0.96C7.4 2.72 0.56 10.24 0.68 18.44C0.72 21.52 2.12 24.28 5.2 25.28C10.32 26.92 14.92 22.16 17.76 16.28C20.4 10.84 21.32 3.24 16.64 1.48ZM20.7975 22.92C28.6375 18.76 34.6375 12.28 36.1975 9.16C37.8775 5.76 37.2375 3.64 35.7575 2.16C34.1975 0.599999 31.8375 0.519998 29.9575 1.48C26.7975 3.08 24.3575 7.36 23.6775 9.28C23.5175 9.76 23.5575 9.88 24.0775 9.92C25.8375 10 26.8375 9.12 28.0775 7.24C29.3975 5.24 32.7175 0.919998 34.5575 2.96C37.3175 6.04 27.8775 16.08 17.1575 22.48C16.3175 23 16.1975 23.28 16.5175 24.08C16.7175 24.64 17.0375 25.24 17.5175 25.76C17.9575 26.24 18.4775 26.36 19.5175 26.04C21.8375 25.36 27.0775 24.4 29.3975 24.48C29.9175 24.48 29.9175 24.24 29.7975 23.88C29.3575 22.64 28.1975 21.92 26.2375 21.96C24.8375 22 22.7975 22.32 20.7975 22.92Z" fill="#1886C4"/>
</svg>
