<svg width="40" height="28" viewBox="0 0 40 28" fill="none" xmlns="http://www.w3.org/2000/svg">
<path d="M15 16.44C12.08 22.48 7.64 25.84 5.2 24.88C2.6 23.88 2.56 17.44 6 11.52C9.4 5.68 14.08 2.72 15.92 3.36C18 4.08 18.24 9.76 15 16.44ZM16.64 2.48C15.6 1.4 13.72 1.04 11.56 1.96C7.4 3.72 0.56 11.24 0.68 19.44C0.72 22.52 2.12 25.28 5.2 26.28C10.32 27.92 14.92 23.16 17.76 17.28C20.4 11.84 21.32 4.24 16.64 2.48ZM37.4503 9.4C39.6503 6.48 39.4103 4.16 37.6903 2.4C36.3303 1 33.7703 0.759998 31.8103 1.72C29.8503 2.68 27.1703 5.48 25.9703 7.88C25.7703 8.28 25.8503 8.52 26.3703 8.6C28.0103 8.92 29.4103 7.96 30.6903 6.36C32.5703 4 35.0103 1.72 36.4903 3.28C38.2103 5.08 34.4903 10.6 25.9703 13.12C25.4503 13.28 25.3703 13.6 25.6103 13.88C27.6903 16.4 30.2503 13.96 31.8903 15.08C33.1703 15.96 31.9703 18.8 30.0503 21.2C27.8903 23.92 24.5703 25.52 22.5703 24.28C21.1303 23.36 21.1703 20.52 23.1703 17.32C23.3703 17 23.2503 16.76 22.8503 16.76C21.6503 16.76 20.2503 17.68 19.5703 19.36C18.9703 20.8 18.8503 23.76 21.6103 25.56C24.1703 27.24 28.9703 27.16 32.3703 23C35.3303 19.36 35.8903 15.92 33.8503 14.2C33.3703 13.8 32.6903 13.56 32.0103 13.4C34.4103 12.4 36.4503 10.72 37.4503 9.4Z" fill="#1886C4"/>
</svg>
