<svg width="29" height="21" viewBox="0 0 29 21" fill="none" xmlns="http://www.w3.org/2000/svg">
<path d="M11 11.83C8.81 16.36 5.48 18.88 3.65 18.16C1.7 17.41 1.67 12.58 4.25 8.14C6.8 3.76 10.31 1.54 11.69 2.02C13.25 2.56 13.43 6.82 11 11.83ZM12.23 1.36C11.45 0.55 10.04 0.28 8.42 0.97C5.3 2.29 0.17 7.93 0.26 14.08C0.29 16.39 1.34 18.46 3.65 19.21C7.49 20.44 10.94 16.87 13.07 12.46C15.05 8.38 15.74 2.68 12.23 1.36ZM28.1977 3.16C28.2277 2.08 27.8377 1.36 27.1177 0.879999C26.4877 0.459999 25.4377 0.189999 24.2377 0.579999C22.9477 0.999999 19.6177 2.62 16.7977 7.6C13.8877 12.73 14.1577 17.23 16.7977 18.76C19.0177 20.05 21.8977 19.51 23.9377 15.85C26.0077 12.1 25.1677 9.55 23.3077 8.38C21.9277 7.51 20.3377 7.66 19.0177 8.47C21.8077 3.73 25.1977 1.66 26.3677 1.81C26.8477 1.87 26.3677 3.28 25.8877 4.6C25.3177 6.16 25.4977 7.48 26.3077 8.02C26.6077 8.23 26.7877 8.2 26.9377 7.87C27.5377 6.7 28.1377 4.78 28.1977 3.16ZM16.8877 14.02C17.9677 10 21.2077 8.68 22.4377 9.22C23.6377 9.76 23.4577 11.98 22.1977 14.53C20.9077 17.17 18.7177 18.58 17.5477 17.86C16.9477 17.5 16.3177 16.12 16.8877 14.02Z" fill="#1886C4"/>
</svg>
