<svg width="30" height="30" viewBox="0 0 30 30" fill="none" xmlns="http://www.w3.org/2000/svg">
<path opacity="0.5" fill-rule="evenodd" clip-rule="evenodd" d="M0 22.0898C0 17.7282 3.56241 14.1797 7.94118 14.1797C12.3199 14.1797 15.8824 17.7282 15.8824 22.0898C15.8824 26.4515 12.3199 30 7.94118 30C3.56241 30 0 26.4515 0 22.0898ZM7.32976 25.2308L11.4474 21.1293C11.792 20.7861 11.792 20.2296 11.4475 19.8863C11.1029 19.5431 10.5442 19.5431 10.1996 19.8863L6.70588 23.3664L5.56512 22.2301C5.22053 21.8869 4.66182 21.8869 4.31729 22.2301C3.97271 22.5733 3.97271 23.1298 4.31729 23.473L6.082 25.2308C6.25424 25.4024 6.48006 25.4883 6.70588 25.4883C6.93171 25.4883 7.15753 25.4024 7.32976 25.2308Z" fill="#3E73CF"/>
<path fill-rule="evenodd" clip-rule="evenodd" d="M22.3527 6.73828C22.3527 7.22367 22.7478 7.61719 23.2351 7.61719H29.9998V27.3633C29.9998 28.8172 28.8123 30 27.3527 30H13.5149C15.7855 28.4078 17.3424 25.8714 17.6063 22.9688H24.9998C25.4871 22.9688 25.8821 22.5752 25.8821 22.0898C25.8821 21.6045 25.4871 21.2109 24.9998 21.2109H17.6063C17.4921 19.955 17.1365 18.7673 16.5849 17.6953H24.9998C25.4871 17.6953 25.8821 17.3018 25.8821 16.8164C25.8821 16.331 25.4871 15.9375 24.9998 15.9375H15.4225C13.6408 13.7916 10.9485 12.4219 7.94095 12.4219C7.64348 12.4219 7.3493 12.436 7.05859 12.4622V2.63672C7.05859 1.18283 8.24606 0 9.70565 0H22.3527V6.73828ZM12.0586 12.4219H24.9998C25.4871 12.4219 25.8821 12.0284 25.8821 11.543C25.8821 11.0576 25.4871 10.6641 24.9998 10.6641H12.0586C11.5713 10.6641 11.1762 11.0576 11.1762 11.543C11.1762 12.0284 11.5713 12.4219 12.0586 12.4219Z" fill="#3E73CF"/>
<path d="M24.1177 0.514648V5.85939H29.483L24.1177 0.514648Z" fill="#3E73CF"/>
</svg>
