<svg width="26" height="30" viewBox="0 0 26 30" fill="none" xmlns="http://www.w3.org/2000/svg">
<path opacity="0.5" d="M4.875 18.7501V28.3929C4.875 28.6886 4.63233 28.9286 4.33333 28.9286H0.541667C0.242667 28.9286 0 28.6886 0 28.3929V18.7501C0 18.4544 0.242667 18.2144 0.541667 18.2144H4.33333C4.63233 18.2144 4.875 18.4544 4.875 18.7501Z" fill="#3E73CF"/>
<path fill-rule="evenodd" clip-rule="evenodd" d="M10.8333 0H24.9167C25.5147 0 26 0.48 26 1.07143V9.64286C26 10.2343 25.5147 10.7143 24.9167 10.7143H10.8333C10.2353 10.7143 9.75 10.2343 9.75 9.64286V1.07143C9.75 0.48 10.2353 0 10.8333 0ZM18.0592 7.87607L21.047 3.14786C21.2084 2.89179 21.1662 2.55 20.93 2.34321C20.6667 2.11071 20.2638 2.13321 20.0287 2.39357L17.2239 5.50286L15.5729 4.32536C15.3747 4.185 15.0995 4.17643 14.8915 4.32536C14.6315 4.51179 14.5719 4.87071 14.7604 5.12893L16.7949 7.91786C17.1112 8.35179 17.7721 8.33036 18.0592 7.87607Z" fill="#3E73CF"/>
<path d="M22.3438 22.1658L20.8455 28.8354C20.6917 29.5158 20.0817 30.0001 19.3776 30.0001H13C10.8333 30.0001 10.1118 28.9287 8.66667 27.8572H6.5C6.5 27.8572 6.5 19.4776 6.5 19.2858H8.66667C9.07292 17.6615 11.4931 15.0001 13.5417 15.0001H14.625C14.625 14.7215 14.625 19.0854 14.625 19.2858C14.625 19.8772 15.1103 20.3572 15.7083 20.3572H20.8758C21.8378 20.3572 22.5518 21.2379 22.3438 22.1658Z" fill="#3E73CF"/>
<path opacity="0.5" d="M19.5 12.3215V18.7501H16.25V12.3215H19.5Z" fill="#3E73CF"/>
</svg>
