<svg width="40" height="25" viewBox="0 0 40 25" fill="none" xmlns="http://www.w3.org/2000/svg">
<path opacity="0.5" fill-rule="evenodd" clip-rule="evenodd" d="M16.4216 0C17.7081 0 18.8757 0.756387 19.3946 1.9176L19.9995 3.28846L20.6054 1.9176C21.1243 0.756387 22.2919 0 23.5784 0H32.6378C33.9243 0 35.0919 0.756387 35.6108 1.9176L37.7514 6.76487C37.7568 6.77552 37.7568 6.78618 37.7568 6.79816C37.7568 6.81015 37.7568 6.82346 37.7622 6.83944C38.5907 7.25435 39.2613 7.93408 39.6455 8.76774L39.7291 8.96309L39.7886 9.12344L39.8238 9.2305L39.8865 9.45402L39.9321 9.66251L39.9536 9.78666L39.9785 9.97728L39.9913 10.1257C39.9971 10.212 40 10.2992 40 10.387V14.382C40 15.8522 38.7892 17.0453 37.2973 17.0453C35.8054 17.0453 34.5946 15.8522 34.5946 14.382V13.8493L32.717 13.8491L29.9897 7.61907C29.7847 7.15641 29.5016 6.74293 29.1598 6.39165L35.2216 6.392L33.6216 2.76987C33.4486 2.38635 33.0595 2.13067 32.6378 2.13067H23.5784C23.1568 2.13067 22.7676 2.38635 22.5946 2.76987L21.5578 5.11325H18.4403L17.4054 2.76987C17.2324 2.38635 16.8432 2.13067 16.4216 2.13067H7.36216C6.94054 2.13067 6.55135 2.38635 6.37838 2.76987L4.77838 6.392L11.3807 6.39165C11.0389 6.74293 10.7558 7.15641 10.5509 7.61907L7.8227 13.8491L5.40541 13.8493V14.382C5.40541 15.1171 5.1027 15.7829 4.61351 16.265L4.51322 16.3589C4.06816 16.755 3.48884 17.0074 2.85092 17.0414L2.7027 17.0453C1.21081 17.0453 0 15.8522 0 14.382L0.00129342 10.286L0.0161715 10.0312L0.0384465 9.84001L0.0606021 9.70204L0.0945062 9.53432L0.143501 9.34063L0.204748 9.14315L0.244771 9.03079L0.319104 8.84682L0.347753 8.7831C0.730683 7.94221 1.4044 7.25682 2.23784 6.83944C2.24324 6.82346 2.24324 6.81015 2.24324 6.79816C2.24324 6.78618 2.24324 6.77552 2.24865 6.76487L4.38919 1.9176C4.90811 0.756387 6.07568 0 7.36216 0H16.4216ZM35.6757 9.58801H33.5135C32.9189 9.58801 32.4324 10.0674 32.4324 10.6533C32.4324 11.2393 32.9189 11.7187 33.5135 11.7187H35.6757C36.2703 11.7187 36.7568 11.2393 36.7568 10.6533C36.7568 10.0674 36.2703 9.58801 35.6757 9.58801ZM4.32432 9.58801H6.48649C7.08108 9.58801 7.56757 10.0674 7.56757 10.6533C7.56757 11.2393 7.08108 11.7187 6.48649 11.7187H4.32432C3.72973 11.7187 3.24324 11.2393 3.24324 10.6533C3.24324 10.0674 3.72973 9.58801 4.32432 9.58801Z" fill="#3E73CF"/>
<path fill-rule="evenodd" clip-rule="evenodd" d="M27.1133 14.3466L25.5133 10.7245C25.3403 10.3409 24.9512 10.0853 24.5295 10.0853H19.9998H15.4701C15.0485 10.0853 14.6593 10.3409 14.4863 10.7245L12.8863 14.3466H27.1133ZM19.9998 7.95459H24.5295C25.816 7.95459 26.9836 8.71098 27.5025 9.87219L29.643 14.7195C29.6485 14.7301 29.6485 14.7408 29.6485 14.7528C29.6485 14.7647 29.6485 14.7781 29.6539 14.794C30.4823 15.2089 31.153 15.8887 31.5372 16.7223L31.6208 16.9177L31.6803 17.078L31.7155 17.1851L31.7782 17.4086L31.8238 17.6171L31.8453 17.7412L31.8702 17.9319L31.883 18.0802C31.8888 18.1666 31.8917 18.2538 31.8917 18.3416V22.3366C31.8917 23.8068 30.6809 24.9999 29.189 24.9999C27.6971 24.9999 26.4863 23.8068 26.4863 22.3366V21.8039H13.5133V22.3366C13.5133 23.0717 13.2106 23.7375 12.7214 24.2196L12.6211 24.3135C12.1761 24.7096 11.5967 24.962 10.9588 24.996L10.8106 24.9999C9.31872 24.9999 8.10791 23.8068 8.10791 22.3366L8.1092 18.2406L8.12408 17.9858L8.14636 17.7946L8.16851 17.6566L8.20242 17.4889L8.25141 17.2952L8.31266 17.0977L8.35268 16.9854L8.42701 16.8014L8.45566 16.7377C8.83859 15.8968 9.51231 15.2114 10.3457 14.794C10.3512 14.7781 10.3512 14.7647 10.3512 14.7528C10.3512 14.7408 10.3512 14.7301 10.3566 14.7195L12.4971 9.87219C13.016 8.71098 14.1836 7.95459 15.4701 7.95459H19.9998ZM27.5674 17.5426H25.4052C24.8106 17.5426 24.3241 18.022 24.3241 18.6079C24.3241 19.1939 24.8106 19.6733 25.4052 19.6733H27.5674C28.162 19.6733 28.6485 19.1939 28.6485 18.6079C28.6485 18.022 28.162 17.5426 27.5674 17.5426ZM12.4322 17.5426H14.5944C15.189 17.5426 15.6755 18.022 15.6755 18.6079C15.6755 19.1939 15.189 19.6733 14.5944 19.6733H12.4322C11.8376 19.6733 11.3512 19.1939 11.3512 18.6079C11.3512 18.022 11.8376 17.5426 12.4322 17.5426Z" fill="#3E73CF"/>
</svg>
