<svg width="30" height="30" viewBox="0 0 30 30" fill="none" xmlns="http://www.w3.org/2000/svg">
<path d="M15.0002 8.75C13.6215 8.75 12.5002 7.62875 12.5002 6.25C12.5002 5.2025 13.1477 4.30375 14.0627 3.9325V0.9375C14.0627 0.42 14.4827 0 15.0002 0C15.5177 0 15.9377 0.42 15.9377 0.9375V4.6875C15.9377 5.205 15.5177 5.625 15.0002 5.625C14.6565 5.625 14.3752 5.905 14.3752 6.25C14.3752 6.595 14.6565 6.875 15.0002 6.875C15.344 6.875 15.6252 6.595 15.6252 6.25C15.6252 5.7325 16.0452 5.3125 16.5627 5.3125C17.0802 5.3125 17.5002 5.7325 17.5002 6.25C17.5002 7.62875 16.379 8.75 15.0002 8.75Z" fill="#3E73CF"/>
<path opacity="0.5" d="M29.0614 16.25C28.8864 16.25 28.7114 16.2012 28.5539 16.1L18.2415 9.43745C17.8065 9.1562 17.6827 8.5762 17.9627 8.1412C18.2427 7.7062 18.824 7.5812 19.259 7.86245L29.5714 14.525C30.0064 14.8062 30.1301 15.3862 29.8501 15.8212C29.6701 16.0987 29.3689 16.25 29.0614 16.25Z" fill="#3E73CF"/>
<path opacity="0.5" d="M0.939034 16.2499C0.631537 16.2499 0.33029 16.0987 0.150292 15.8212C-0.130955 15.3862 -0.00595626 14.8062 0.429039 14.5249L10.7414 7.86245C11.1789 7.57995 11.7564 7.70745 12.0377 8.1412C12.3177 8.5762 12.1939 9.1562 11.7589 9.43745L1.44653 16.0999C1.28903 16.2012 1.11278 16.2499 0.939034 16.2499Z" fill="#3E73CF"/>
<path fill-rule="evenodd" clip-rule="evenodd" d="M0.937735 14.375H29.0625C29.58 14.375 30 14.795 30 15.3125V29.0625C30 29.58 29.58 30 29.0625 30H0.937735C0.42024 30 0.000244141 29.58 0.000244141 29.0625V15.3125C0.000244141 14.795 0.42024 14.375 0.937735 14.375ZM4.3752 26.875C4.8927 26.875 5.31269 26.455 5.31269 25.9375V18.4375C5.31269 17.92 4.8927 17.5 4.3752 17.5C3.85771 17.5 3.43771 17.92 3.43771 18.4375V25.9375C3.43771 26.455 3.85771 26.875 4.3752 26.875ZM10.3126 25.9375C10.3126 26.455 9.89265 26.875 9.37515 26.875C8.85766 26.875 8.43766 26.455 8.43766 25.9375V18.4375C8.43766 17.92 8.85766 17.5 9.37515 17.5C9.89265 17.5 10.3126 17.92 10.3126 18.4375V25.9375ZM15.0001 26.875C15.5176 26.875 15.9376 26.455 15.9376 25.9375V18.4375C15.9376 17.92 15.5176 17.5 15.0001 17.5C14.4826 17.5 14.0626 17.92 14.0626 18.4375V25.9375C14.0626 26.455 14.4826 26.875 15.0001 26.875ZM21.5625 25.9375C21.5625 26.455 21.1425 26.875 20.625 26.875C20.1075 26.875 19.6876 26.455 19.6876 25.9375V18.4375C19.6876 17.92 20.1075 17.5 20.625 17.5C21.1425 17.5 21.5625 17.92 21.5625 18.4375V25.9375ZM25.625 26.875C26.1425 26.875 26.5625 26.455 26.5625 25.9375V18.4375C26.5625 17.92 26.1425 17.5 25.625 17.5C25.1075 17.5 24.6875 17.92 24.6875 18.4375V25.9375C24.6875 26.455 25.1075 26.875 25.625 26.875Z" fill="#3E73CF"/>
</svg>
