<svg width="160" height="105" viewBox="0 0 160 105" fill="none" xmlns="http://www.w3.org/2000/svg">
<path d="M159.795 7.99163C159.703 7.9496 159.605 7.92395 159.504 7.91584C159.283 7.88216 159.201 7.87935 159.176 7.7811C159.154 7.68005 159.266 7.66602 159.288 7.51724C159.325 7.37887 159.302 7.23153 159.226 7.11022C159.14 6.99794 159.005 6.73408 158.893 6.68636C158.784 6.63864 158.557 6.55162 158.487 6.5825C158.419 6.61057 158.464 6.64706 158.375 6.76215C158.288 6.87724 158.33 6.89127 158.198 6.91934C158.069 6.94741 157.951 7.16917 157.909 6.83233C157.865 6.49548 157.915 6.46741 157.795 6.34952C157.666 6.24722 157.59 6.09279 157.587 5.92846C157.568 5.69267 157.489 5.47372 157.422 5.45126C157.29 5.41468 157.151 5.4186 157.021 5.46249C156.769 5.51302 156.578 5.65337 156.444 5.57758C156.309 5.48271 156.204 5.35256 156.138 5.20144C156.048 4.84498 155.931 4.4959 155.788 4.15722C155.589 3.72494 155.41 3.37406 155.272 3.113C155.135 2.84914 155.04 2.73686 154.852 2.32703C154.667 1.9144 154.496 1.46808 154.421 1.28282C154.345 1.09474 154.356 0.771935 154.138 0.684917C153.919 0.597899 153.479 0.395792 153.269 0.286318C153.059 0.17965 152.664 0 152.664 0C152.467 0.00719827 152.279 0.0826019 152.131 0.213335C151.971 0.412634 151.719 0.631583 151.481 0.878602C151.243 1.12562 151.055 1.3558 150.929 1.34176C150.803 1.32773 150.696 1.38106 150.637 1.17334C150.598 0.965922 150.52 0.767803 150.408 0.589478C150.179 0.626456 149.964 0.721136 149.783 0.864567C149.732 0.954392 149.808 0.996498 149.682 1.70949C149.553 2.41967 149.248 3.27862 149.2 3.54248C149.126 3.93095 149.11 4.32825 149.152 4.72144C149.222 4.8674 149.348 4.97688 149.413 5.14249C149.446 5.35874 149.413 5.57993 149.318 5.77688C149.218 5.88571 149.169 6.03147 149.183 6.17829C149.251 6.45922 149.35 6.73143 149.48 6.98952C149.623 7.36847 149.704 7.28426 149.657 7.57058C149.612 7.85409 149.494 7.8204 149.497 8.0983C149.503 8.379 149.598 8.40707 149.458 8.58953C149.345 8.70971 149.25 8.84478 149.175 8.99094C149.135 9.0976 149.099 9.28848 149.172 9.37269C149.245 9.45691 149.36 9.46533 149.371 9.54673C149.376 9.58884 149.407 9.62252 149.41 9.65059C149.413 9.67305 149.399 9.6955 149.329 9.71796C149.18 9.76568 149.11 9.77691 149.105 9.81621C149.099 9.86112 149.147 9.99024 149.121 10.0436C149.112 10.126 149.116 10.2093 149.133 10.2906L148.525 10.3159C148.455 10.4099 148.391 10.5084 148.334 10.6106C148.303 10.6864 148.275 10.7931 148.132 10.8127C147.989 10.8295 147.664 10.9643 147.673 11.026C147.681 11.085 147.681 11.318 147.684 11.3657C147.709 11.4767 147.728 11.5892 147.74 11.7025C147.748 11.8569 147.731 12.1292 147.731 12.1292L144.181 13.5299L143.046 13.979L143.004 13.9959C142.696 14.1278 140.807 14.9166 140.373 15.0962C140.106 15.2343 139.824 15.3399 139.532 15.4106C139.378 15.4219 139.109 15.3208 139.019 15.4443C138.932 15.5706 138.579 16.0394 138.478 16.1573C138.394 16.2584 137.727 17.3026 137.509 17.6815C137.422 17.7916 137.379 17.9291 137.385 18.0689C137.411 18.2738 137.598 18.4478 137.444 18.6219C137.152 18.9907 136.883 19.3779 136.64 19.7812C136.542 19.9805 136.231 20.3201 136.332 20.4436C136.46 20.553 136.614 20.6257 136.78 20.6542C136.833 20.6598 137.111 20.6542 137.111 20.7272C137.112 20.8208 137.088 20.913 137.041 20.9938C136.99 21.0752 136.814 21.1594 136.962 21.3363C137.108 21.5159 137.181 21.5187 137.265 21.6198C137.341 21.7367 137.364 21.8809 137.327 22.0156C137.291 22.1645 137.224 22.3041 137.13 22.4254C136.991 22.4864 136.858 22.5627 136.735 22.6528C136.594 22.7934 136.471 22.9519 136.371 23.1244C136.231 23.4096 136.014 23.6491 135.743 23.8149C135.332 24.074 134.879 24.2584 134.404 24.3595C134.108 24.4396 133.802 24.4719 133.496 24.4549C133.12 24.4296 133.087 24.351 132.767 24.4212C132.208 24.6093 131.663 24.8343 131.133 25.0949C130.871 25.247 130.627 25.4278 130.405 25.6339C130.3 25.8069 130.232 26 130.206 26.2009C130.214 26.2486 130.284 26.3132 130.444 26.5209C130.607 26.7286 130.993 27.0963 131.061 27.2198C131.128 27.3461 131.212 27.4304 131.139 27.6044C131.069 27.7784 130.111 29.0304 130.015 29.2718C130.013 29.2802 130.01 29.2858 130.007 29.2942C129.826 29.6187 129.598 29.914 129.329 30.17C129.306 30.1925 129.287 30.2093 129.267 30.2262C129.007 30.4592 128.732 30.7427 128.351 31.0711C128.16 31.2396 127.993 31.4332 127.855 31.6465C127.76 31.7869 127.684 31.9104 127.617 31.9918C127.587 32.0312 127.555 32.0688 127.521 32.1041C127.442 32.1917 127.343 32.259 127.233 32.3006C126.832 32.5251 126.445 32.7725 126.073 33.0416C125.703 33.3055 125.47 33.3532 125.226 33.7799C125.081 34.0831 124.913 34.3749 124.725 34.6529C124.591 34.8349 124.372 34.9339 124.147 34.9139C123.777 34.928 123.329 34.9139 123.279 35.0009C123.228 35.0908 122.965 35.7055 122.833 35.7223C122.63 35.754 122.422 35.7387 122.225 35.6774C122.068 35.6072 121.902 35.5582 121.732 35.5315C121.569 35.4894 120.684 35.3546 120.6 35.3434C120.376 35.2916 120.149 35.2513 119.921 35.2227C119.765 35.2199 119.596 35.3574 119.566 35.1946C119.557 35.1525 119.552 35.1188 119.546 35.088C119.534 34.9769 119.554 34.8646 119.605 34.7651C119.754 34.4804 119.878 34.1837 119.978 33.8781C120.017 33.672 120.015 33.4603 119.972 33.255C119.942 33.0233 119.981 32.788 120.084 32.5785C120.176 32.4213 120.199 32.3455 120.314 32.2781C120.339 32.2653 120.36 32.2446 120.373 32.2192C120.401 32.074 120.416 31.9264 120.417 31.7785C120.429 31.5309 120.514 31.2925 120.661 31.0935C120.765 31.0177 120.79 31.1188 120.863 31.1413C120.939 31.1609 121.25 31.0823 121.278 30.8914C121.314 30.7243 121.317 30.5516 121.286 30.3834C121.247 30.0858 121.213 29.8949 121.166 29.6816C121.139 29.493 121.067 29.3138 120.956 29.1595C120.83 28.9928 120.727 28.8107 120.647 28.6177C120.533 28.2642 120.4 27.9175 120.247 27.5791C120.118 27.2956 119.924 27.0823 119.888 26.9504C119.851 26.8212 119.809 26.2458 119.619 26.1335C119.403 26.0373 119.175 25.9721 118.941 25.9398C118.859 25.9314 118.509 25.8837 118.352 26.0381C118.12 26.2469 117.924 26.4925 117.772 26.7651C117.671 27.0379 117.549 27.3025 117.408 27.5567C117.195 27.9272 117.06 28.2556 116.929 28.2725C116.678 28.1999 116.445 28.0777 116.242 27.9132C116.159 27.7849 116.108 27.6386 116.094 27.4865C116.061 27.3013 116.091 27.1103 116.18 26.9447C116.304 26.7651 116.612 26.4226 116.688 26.3019C116.782 26.1681 116.844 26.0145 116.87 25.8528C116.881 25.6956 116.845 25.5749 116.976 25.4542C117.105 25.3335 117.257 25.2212 117.276 25.0528C117.334 24.8183 117.339 24.5736 117.29 24.337C117.2 24.1293 116.987 23.5145 116.915 23.4191C116.839 23.3265 116.427 22.9223 116.385 22.8437C116.346 22.7679 116.164 22.7173 116.307 22.5545C116.452 22.3889 116.64 22.3131 116.64 22.2317C116.599 22.0324 116.515 21.8446 116.393 21.6815C116.273 21.5412 115.522 21.3363 115.272 21.2549C114.976 21.1742 114.671 21.1225 114.365 21.1005C114.128 21.0832 113.897 21.0173 113.686 20.9068C113.448 20.836 113.203 20.7908 112.955 20.7721C112.796 20.7141 112.642 20.6427 112.495 20.5587C112.375 20.5138 112.268 20.4128 112.109 20.4549C111.926 20.539 111.77 20.6733 111.66 20.8422C111.562 21.0106 111.48 21.1883 111.417 21.3728C111.374 21.5328 111.33 21.6731 111.481 21.8079C111.632 21.9454 111.632 21.8415 111.719 21.9651C111.806 22.0886 111.84 22.1672 111.705 22.257C111.521 22.3718 111.354 22.5116 111.209 22.6724C111.034 22.8343 110.926 23.0553 110.904 23.2928C110.937 23.3826 111.089 23.683 111.111 23.7756C111.12 23.9181 111.114 24.0612 111.091 24.2023C111.066 24.3621 110.995 24.5112 110.887 24.6317C110.803 24.7047 110.682 24.8142 110.632 24.7272C110.57 24.6168 110.532 24.4942 110.523 24.3679C110.552 24.2486 110.56 24.1252 110.548 24.003C110.52 23.9328 110.464 23.8261 110.436 23.7559C110.405 23.6886 110.287 23.4023 110.287 23.4023C110.222 23.4879 110.181 23.5898 110.169 23.697C110.181 23.8714 110.149 24.0459 110.077 24.2051C110.007 24.3089 110.029 24.3875 109.92 24.4324C109.763 24.5104 109.619 24.6127 109.494 24.7356C109.399 24.9342 109.323 25.1421 109.27 25.356C109.205 25.4414 109.148 25.5325 109.099 25.6282C109.019 25.8019 109.014 26.0009 109.085 26.1784C109.2 26.5149 109.262 26.8671 109.27 27.2226C109.256 27.5163 109.15 27.798 108.967 28.0283C108.799 28.3202 108.802 28.4325 108.81 28.4942C108.819 28.556 108.99 28.7721 109.063 28.9293C109.133 29.0865 109.284 29.2128 109.298 29.3139C109.328 29.4676 109.33 29.6254 109.304 29.7798C109.251 29.8464 109.218 29.926 109.208 30.01C109.222 30.0381 109.25 29.9314 109.643 30.5658C110.032 31.2002 110.324 31.61 110.45 31.8851C110.588 32.0978 110.685 32.335 110.736 32.5841C110.743 32.7944 110.773 33.0034 110.825 33.2072C110.879 33.2962 110.923 33.3914 110.954 33.4907C110.977 33.5918 110.935 33.9904 110.946 34.0802C110.965 34.2927 110.957 34.5068 110.923 34.7174C110.881 34.9504 110.736 35.9329 110.651 36.1715C110.643 36.1967 110.637 36.222 110.629 36.2445C110.621 36.2753 110.609 36.3062 110.601 36.3343C110.595 36.3567 110.587 36.3792 110.581 36.4016C110.573 36.4269 110.565 36.4522 110.553 36.4802C110.545 36.5004 110.536 36.5201 110.525 36.5392C110.519 36.5571 110.511 36.5741 110.5 36.5897C110.487 36.6159 110.471 36.6404 110.453 36.6627C110.421 36.7087 110.385 36.7519 110.346 36.7918C110.217 36.9322 110.013 37.1876 109.83 37.3981C109.769 37.4711 109.707 37.5385 109.654 37.5918C109.607 37.6444 109.553 37.6906 109.494 37.7294C109.214 37.8846 108.908 37.99 108.592 38.041C108.41 38.0185 108.242 37.9342 108.115 37.8024C108.099 37.7883 108.076 37.7939 108.051 37.8052C107.989 37.8248 107.9 37.8669 107.81 37.6845C107.687 37.4318 107.527 36.9855 107.432 36.8311C107.329 36.6521 107.204 36.4871 107.059 36.3399C106.917 36.2394 106.798 36.1091 106.711 35.9581C106.595 35.7217 106.507 35.4719 106.451 35.2143C106.445 35.175 106.44 35.1076 106.431 35.029C106.403 34.768 106.367 34.3665 106.37 34.3104C106.362 34.2124 106.349 34.115 106.33 34.0185C106.322 33.9242 106.3 33.8316 106.266 33.7434C106.13 33.5432 106.019 33.3274 105.935 33.1006C105.851 32.8423 105.675 32.3371 105.658 32.2248C105.632 31.9392 105.627 31.6521 105.644 31.3658C105.732 31.1551 105.794 30.9346 105.829 30.709C105.864 30.3713 105.845 30.0302 105.773 29.6984C105.714 29.5028 105.642 29.3114 105.557 29.1258C105.557 29.1258 105.456 28.9125 105.557 28.7946C105.655 28.6795 105.823 28.5419 105.843 28.3539C105.856 28.1404 105.85 27.9261 105.823 27.7139C105.764 27.5248 105.763 27.3224 105.82 27.1328C105.913 26.883 106.165 26.737 106.084 26.5068C106.002 26.2795 105.896 26.0746 105.946 25.9258C106.038 25.7346 106.139 25.5482 106.249 25.3672C106.386 25.1099 106.487 24.835 106.549 24.5503C106.599 24.3569 106.598 24.1539 106.546 23.9609C106.51 23.9217 106.458 23.9007 106.404 23.9034C106.351 23.9061 106.301 23.9322 106.269 23.9749C106.171 24.0928 105.921 24.3286 105.944 24.4942C105.986 24.6342 105.997 24.7816 105.977 24.9265C105.924 25.0638 105.849 25.1918 105.756 25.3054C105.649 25.443 105.532 25.6647 105.406 25.8079C105.277 25.9482 105.139 25.8416 105.008 26.1784C104.873 26.5153 104.753 26.6247 104.75 26.7623C104.728 26.9574 104.641 27.1394 104.503 27.2788C104.397 27.3349 104.268 27.3826 104.223 27.2732C104.178 27.1637 104.055 27.0879 104.139 26.8381C104.22 26.5882 104.206 26.4058 104.257 26.2205C104.312 25.9802 104.409 25.7514 104.542 25.544C104.685 25.3588 104.792 25.2942 104.887 25.1567C104.943 25.078 104.994 24.9955 105.038 24.9096C105.043 24.9025 105.047 24.895 105.05 24.8872C105.026 24.6803 105.041 24.4709 105.095 24.2696C105.243 24.0434 105.366 23.8015 105.462 23.5482C105.509 23.3714 105.591 23.0795 105.661 22.8212C105.663 22.8044 105.669 22.7847 105.675 22.7651C105.682 22.7402 105.689 22.7149 105.694 22.6893C105.703 22.6612 105.708 22.6359 105.717 22.6079C105.717 22.6018 105.719 22.5959 105.722 22.591C105.753 22.4675 105.775 22.3693 105.781 22.3272C105.804 22.1784 105.75 21.6675 105.846 21.6142C105.944 21.558 106.053 21.7742 106.103 21.9314C106.157 22.0914 106.3 22.3945 106.392 22.1559C106.484 21.9145 106.426 21.8612 106.56 21.6872C106.695 21.5159 106.936 21.3082 107.028 21.3896C107.091 21.4303 107.133 21.4957 107.145 21.5696C107.157 21.6434 107.137 21.7188 107.09 21.777C106.966 21.9566 106.818 22.0914 106.818 22.184C106.821 22.2766 106.891 22.5068 107.065 22.3187C107.238 22.1307 107.401 21.9538 107.558 21.7994C107.715 21.6451 107.832 21.5973 107.858 21.398C107.886 21.1987 107.799 20.918 108.087 20.8394C108.379 20.7636 108.494 20.9349 108.822 20.7384C109.094 20.5575 109.341 20.3403 109.556 20.0928C109.741 19.9047 109.561 19.8121 110.074 19.77C110.389 19.731 110.708 19.7244 111.024 19.7503C111.232 19.7543 111.436 19.8113 111.615 19.9159C111.803 20.017 112.145 20.0956 112.148 20.0338C112.151 19.9721 112.114 19.9243 112.067 19.7952C112.019 19.6661 111.716 19.5707 112.086 19.5454C112.456 19.5173 113.692 19.4022 113.997 19.3629C114.364 19.3177 114.725 19.2339 115.074 19.1131C115.145 18.9699 115.185 18.8129 115.191 18.6528C115.158 18.6247 115.059 18.5012 114.594 18.6668C114.126 18.8268 114.067 18.9194 113.667 18.7005C113.373 18.5479 113.116 18.3334 112.913 18.0717C112.787 17.9005 112.431 17.6113 112.249 17.6366C112.064 17.6591 111.388 18.0577 111.133 18.0689C110.876 18.0801 110.792 18.0689 110.713 17.9454C110.635 17.8191 110.301 17.645 110.419 17.412C110.534 17.1791 110.677 16.9236 110.567 16.8759C110.341 16.8641 110.119 16.936 109.943 17.078C109.678 17.2712 109.392 17.4332 109.091 17.5608C108.62 17.777 107.555 17.9426 107.115 18.3103C106.919 18.4626 106.736 18.6316 106.569 18.8156C106.569 18.8156 106.372 19.2226 106.322 19.3236C106.274 19.4219 106.19 19.4219 106.036 19.3489C105.887 19.2606 105.709 19.2344 105.54 19.2759C105.254 19.3124 105.487 19.1693 105.268 19.1777C105.038 19.1835 104.81 19.2155 104.587 19.2731C104.388 19.3293 104.279 19.3742 104.167 19.2338C103.911 18.9366 103.607 18.6842 103.267 18.4871C102.94 18.3401 102.584 18.2691 102.225 18.2794C101.995 18.3105 101.773 18.3837 101.569 18.4956C101.541 18.5292 101.429 18.7847 101.387 18.8605C101.345 18.9391 101.211 19.0093 101.194 18.8773C101.177 18.7426 101.208 18.6668 101.166 18.5798C101.124 18.4899 100.998 18.4759 101.101 18.2345C101.181 18.0033 101.301 17.7877 101.454 17.5973C101.658 17.3859 101.814 17.1332 101.911 16.8563C101.99 16.5755 101.973 16.4436 102.113 16.3229C102.253 16.1994 102.57 16.0057 102.508 15.9412C102.449 15.8738 102.116 16.031 102.009 16.0871C101.869 16.1336 101.724 16.1656 101.578 16.1826C101.578 16.1826 101.003 16.4829 100.981 16.6205C100.961 16.8593 100.879 17.0886 100.743 17.2857C100.563 17.4935 100.21 17.5692 100.05 17.777C99.8907 17.9847 99.6525 18.2429 99.5572 18.3777C99.2498 18.6389 98.9175 18.8692 98.5652 19.0654C98.397 19.1749 98.2653 19.2507 98.1617 19.3068C98.1056 19.3349 98.058 19.3629 98.0159 19.3854C97.9879 19.3994 97.9655 19.4107 97.9431 19.4247C97.8906 19.4524 97.8417 19.4863 97.7973 19.5257C97.6684 19.6464 97.7693 19.7166 97.4078 19.9805C97.0491 20.2415 96.7857 20.4521 96.612 20.5475C96.4629 20.6292 96.3007 20.6843 96.1328 20.7103C96.0902 20.7189 96.0472 20.7245 96.0039 20.7272C95.7717 20.7233 95.5403 20.7008 95.3117 20.6598C95.2338 20.6887 95.1543 20.7131 95.0735 20.7328C94.9698 20.744 94.8549 20.7384 94.8381 20.5138C94.8185 20.2865 95.0343 19.4612 94.8017 19.4921C94.7678 19.4948 94.7341 19.4995 94.7008 19.5061C94.518 19.5355 94.3477 19.6174 94.2104 19.7419C94.1432 19.7962 94.073 19.8468 94.0002 19.8935H93.9974C93.8429 19.9968 93.6967 20.1123 93.5603 20.2387C93.1988 20.5672 93.0138 20.9124 92.4898 21.0191C92.1898 21.1132 91.8684 21.1142 91.5678 21.0219C91.5006 20.9686 91.4529 20.8394 91.5062 20.7805C91.5622 20.7243 92.3301 19.8373 92.5823 19.537C92.5991 19.5145 92.6215 19.4864 92.6439 19.4584C92.657 19.4432 92.6691 19.4272 92.6804 19.4107C92.6926 19.3931 92.7056 19.3763 92.7196 19.3601C93.0166 18.9615 93.4986 18.2513 93.5631 18.1447C93.6415 18.0212 94.6223 16.8703 94.8409 16.7805C95.0567 16.6906 95.1688 16.758 95.3257 16.5306C95.4165 16.4036 95.5187 16.2852 95.6312 16.177C95.6312 16.1938 95.7124 16.1657 96.0431 15.9833C96.3605 15.8348 96.6504 15.6336 96.9006 15.3882C97.0968 15.2169 97.5115 14.9783 97.5283 14.9447C97.5423 14.911 97.7917 14.8296 97.335 14.8885C96.8754 14.9447 96.8137 15.1187 96.4747 14.9643C96.1328 14.8099 96.2813 14.7622 95.9871 14.7257C95.6956 14.692 95.9871 14.6415 95.3341 14.7145C94.6812 14.7903 94.003 14.9054 93.9666 14.8801C93.933 14.852 93.9022 14.5152 93.7789 14.5292C93.6584 14.5461 93.5995 14.6668 93.3641 14.852C93.1287 15.0373 92.8597 15.2787 92.8317 15.304C92.6111 15.3725 92.3852 15.4223 92.1563 15.4527C92.0134 15.4583 91.8761 15.5285 91.7108 15.3545C91.5426 15.1776 91.6351 15.1019 91.3773 15.0934C91.1167 15.0878 90.9878 15.2057 90.8841 15.0541C90.7832 14.8997 90.4749 14.5966 90.2788 14.6948C90.1214 14.7666 90.0063 14.9077 89.9677 15.0766C89.9593 15.1805 90.0378 15.245 89.8977 15.2731C89.7576 15.3012 89.6819 15.3629 89.6455 15.1496C89.6062 14.9362 89.6651 14.8352 89.4605 14.6752C89.3662 14.5947 89.2638 14.5241 89.1551 14.4647C89.0657 14.4233 88.9863 14.3629 88.9225 14.2878C88.7519 14.1466 88.5385 14.0674 88.3172 14.0633C88.1322 14.0773 87.314 14.1587 87.314 14.1587L87.1234 14.3692C87.0237 14.3763 86.9245 14.3894 86.8264 14.4085C86.7479 14.4282 86.5601 14.504 86.5686 14.5769C86.577 14.6471 86.2435 14.7004 86.1818 14.7061C86.1202 14.7145 85.8624 14.7061 85.8035 14.5685C85.7002 14.4259 85.5265 14.3524 85.3523 14.3776L84.7639 14.4534C84.6953 14.4383 84.631 14.4075 84.5761 14.3636C84.5061 14.3016 84.4172 14.265 84.3239 14.2597C84.2397 14.2761 84.1545 14.2864 84.0689 14.2906C83.919 14.2885 83.7729 14.2427 83.6486 14.1587C83.5701 14.0969 83.416 14.1166 83.3879 13.9004C83.3627 13.6871 83.3179 13.3503 83.3011 13.2913C83.2512 13.2108 83.1898 13.1379 83.1189 13.0752L83.0152 12.1769C82.9429 12.1527 82.8726 12.1226 82.8051 12.0871C82.6958 12.031 82.3287 11.9103 82.3287 11.9103C82.2328 11.9172 82.1374 11.9294 82.0428 11.9467C81.9952 11.9636 81.9644 12.132 81.9644 12.132L81.9784 12.2555C81.9784 12.2555 81.8635 12.3229 81.8719 12.3846C81.8803 12.4436 81.9644 12.8787 81.9728 12.932C81.9784 12.9825 82.0316 13.4738 82.0316 13.4738L76.7745 14.1418L68.8468 15.1496C68.8468 15.1496 63.7438 15.2394 63.6317 15.2534C63.5197 15.2675 61.5665 15.3685 61.1069 15.4275C60.7426 15.4752 59.504 15.5201 59.0192 15.5341C58.8987 15.5398 58.823 15.5426 58.823 15.5426L57.7217 15.565L51.5651 15.6969C51.5651 15.6969 44.4752 15.7812 42.9088 15.6801C41.3423 15.5762 33.2156 15.2422 33.2156 15.2422C33.2156 15.2422 29.2924 15.0878 28.8805 15.099C28.5442 15.1075 27.6867 15.099 27.3364 15.0906C27.2579 15.0906 27.2047 15.085 27.1907 15.085C27.1178 15.0738 25.812 14.9896 25.7811 14.984C25.7503 14.9783 24.9881 14.8913 24.8984 14.8801H24.8872C24.8872 14.8801 11.7416 13.4008 10.1331 12.8169L9.92573 13.1313L10.0378 14.0296L10.447 13.979C10.447 13.979 10.5759 14.6668 10.461 14.7454C10.3461 14.8212 9.92854 15.1243 9.92854 15.1243C9.96926 15.3677 10.0694 15.5971 10.22 15.7924C10.4514 16.1341 10.6503 16.4969 10.8141 16.8759C10.8141 16.8759 10.8981 17.5299 10.7048 17.6366C10.4749 17.7627 10.3304 18.0029 10.3265 18.2654C10.3573 18.5124 10.3125 18.4759 10.1863 18.7819C10.0574 19.0878 10.3545 18.8015 10.0574 19.0878C9.86512 19.2531 9.59329 19.2884 9.36528 19.1777L9.49698 18.911C9.44752 18.6829 9.41844 18.4509 9.41011 18.2177C9.43533 18.0885 9.62869 17.9819 9.73518 17.8443C9.84167 17.7068 9.766 17.0949 9.766 17.0949L9.3905 16.0984C9.12017 16.145 8.84209 16.1099 8.59184 15.9973C8.11265 15.812 6.19027 15.3489 5.75031 15.1552C5.31315 14.9643 5.14502 14.9447 5.04133 14.7903C4.92394 14.6601 4.78448 14.5518 4.62939 14.4703C4.53839 14.6176 4.47478 14.7802 4.44164 14.9503C4.45565 15.071 4.33795 15.1271 4.30993 15.5482C4.27909 15.8608 4.36275 16.1741 4.54533 16.4296C4.71066 16.667 4.82952 16.9337 4.89561 17.2156C4.93773 17.4446 4.92427 17.6805 4.85638 17.9033C4.77307 18.0803 4.75519 18.2813 4.80594 18.4703C4.85358 18.6921 5.14502 18.8633 5.15342 18.925C5.15903 18.9868 5.23749 19.1019 5.16463 19.1917C5.06079 19.3487 5.01885 19.5388 5.04694 19.725C5.07776 19.9721 5.04413 20.2022 5.10578 20.1938C5.20239 20.2154 5.30351 20.2025 5.39162 20.1573C5.50651 20.0815 5.8624 20.2865 5.8624 20.2865C5.7686 20.366 5.66614 20.4348 5.55695 20.4914C5.49811 20.4998 5.01051 20.4156 5.0077 20.5615C5.01448 20.7195 5.04084 20.876 5.08617 21.0275C5.1254 21.1679 5.42525 21.2549 5.45607 21.3138C5.48409 21.37 5.54574 21.5496 5.47289 21.6226C5.39396 21.6915 5.35946 21.7984 5.38321 21.9005C5.40283 22.0437 5.52613 22.1952 5.40283 22.2093C5.28233 22.2261 5.13941 22.0773 5.09458 21.9819C5.04974 21.8808 4.93765 21.3166 4.88721 21.4879C4.83405 21.6517 4.81033 21.8238 4.81715 21.9959C4.83116 22.1166 4.90122 22.17 4.85358 22.2794C4.7985 22.4136 4.77454 22.5585 4.78352 22.7033C4.79753 22.8268 5.07216 22.9587 5.07216 22.9587C5.07216 22.9587 5.75592 23.0373 5.82317 23.071L5.88763 23.1019L5.25711 23.1833L4.72747 23.4163C4.72747 23.4163 4.9993 24.0872 4.91803 24.264C4.83676 24.4409 4.53692 26.6556 4.35757 27.0318C4.17822 27.4051 4.13619 27.8879 3.87277 28.2753C3.61216 28.6598 3.68782 28.7749 3.62617 29.4262C3.56172 30.0774 3.63738 30.3356 3.42441 30.7792C3.12819 31.3394 2.8698 31.919 2.65097 32.5139C2.55289 32.9013 2.5641 33.4599 2.28387 33.7041C2.00364 33.9455 1.75704 34.1223 1.75704 34.1223C1.75704 34.1223 1.80468 34.1785 1.79067 34.3862C1.77666 34.5967 1.88875 34.6641 1.84671 34.8381C1.80748 35.0065 1.57489 35.1413 1.46 35.3827C1.3479 35.6269 1.04526 35.8515 1.1013 35.9694C1.15735 36.0873 1.26664 36.6318 1.31988 36.7273C1.37593 36.8255 1.60572 37.0024 1.5805 37.1315C1.50552 37.3339 1.41849 37.5317 1.31988 37.7238C1.31988 37.7238 1.30027 37.8473 1.28345 37.9989C1.27504 38.0718 1.26664 38.1532 1.26384 38.229C1.24982 38.4592 1.23581 38.8353 1.23581 38.8353C1.23581 38.8353 1.19938 39.3575 1.30867 39.4052C1.43067 39.4674 1.54945 39.5358 1.66456 39.6101L1.37313 40.2669C1.37313 40.2669 1.25543 40.5308 1.41516 40.615C1.57489 40.6992 1.63374 41.1483 1.65336 41.3112C1.63922 41.4567 1.5816 41.5947 1.48802 41.7069C1.48716 41.8234 1.50129 41.9394 1.53005 42.0522C1.56929 42.1084 1.28906 42.5182 1.25543 42.5855C1.17229 42.7037 1.13906 42.85 1.16295 42.9926C1.19378 43.2368 1.23862 43.6045 1.23862 43.6045C1.23862 43.6045 0.179347 44.8789 0.0980804 45.0557C0.0367798 45.2828 0.00383484 45.5167 0 45.7519L0.0896735 46.4452C0.296783 46.6221 0.44857 46.855 0.526832 47.1161C0.649982 47.433 0.812889 47.733 1.01163 48.0087C1.0929 48.1631 1.40115 48.4579 1.3423 48.6516C1.31346 48.8944 1.2522 49.1324 1.16015 49.3589C1.01402 49.6768 0.924857 50.0179 0.896735 50.3667C0.9593 50.4713 1.00827 50.5836 1.04245 50.7007C1.11356 50.8938 1.11849 51.1052 1.05647 51.3014C0.944374 51.5653 0.882723 51.5709 0.896735 51.6747C0.907944 51.7758 1.04806 51.9021 1.12933 52.0396C1.20779 52.1716 1.5833 52.8509 1.69539 53.0867C1.8254 53.323 2.00749 53.5265 2.22783 53.6818C2.33712 53.7295 2.47443 53.6705 2.53047 53.7884C2.60442 54.0817 2.66242 54.3787 2.70422 54.6783C2.77343 54.9098 2.81113 55.1496 2.81631 55.3912C2.76867 55.5007 2.58932 55.5653 2.60333 55.6663C2.61734 55.7702 2.76867 55.832 2.96203 55.8909C3.15931 55.9925 3.32795 56.1421 3.45243 56.326C3.59538 56.4481 3.77058 56.5261 3.95684 56.5506C4.06563 56.4602 4.13826 56.3337 4.16141 56.1941C4.1474 56.093 4.30713 55.8853 4.35757 55.7955C4.41081 55.7056 4.62379 55.7618 4.62379 55.7618C4.64289 55.8295 4.64482 55.9009 4.62939 55.9695C4.59577 56.0341 4.40241 56.1435 4.41642 56.2446C4.40941 56.3622 4.42365 56.4801 4.45845 56.5927C4.5089 56.6684 4.52291 56.6039 4.61819 56.6965C4.73674 56.8814 4.83805 57.0769 4.92083 57.2804L5.0021 57.9344C5.0021 57.9344 4.8788 58.1141 4.77792 57.9625C4.60469 57.7746 4.44722 57.5728 4.30713 57.359C4.20308 57.1276 4.1178 56.8883 4.05212 56.6432L3.83915 56.7751L3.94003 57.0727L3.96525 57.4207C3.89445 57.4519 3.82989 57.4956 3.77469 57.5499C3.72145 57.62 3.67661 57.7688 3.74387 57.8025C3.80832 57.8362 4.01009 57.9569 4.01009 57.9569L3.89799 58.0523L3.86717 58.6165L4.08855 59.7085C4.19547 59.7604 4.28503 59.8423 4.34636 59.9443C4.44331 60.0854 4.58911 60.1854 4.7555 60.225C4.8844 60.2727 5.34958 60.5029 5.34958 60.5029C5.34958 60.5029 5.55695 60.5169 5.56536 60.5787C5.57377 60.6404 5.55976 61.0334 5.55976 61.0334C5.55976 61.0334 5.38041 60.9071 5.39722 61.053C5.41684 61.199 5.43646 61.3618 5.43646 61.3618C5.40375 61.4245 5.37746 61.4903 5.35799 61.5583C5.34678 61.6229 5.13381 61.5864 5.13381 61.5864L4.94605 62.232L4.89281 62.7794C4.89281 62.7794 5.28793 63.2874 5.51212 63.5934C5.7363 63.8966 5.86521 63.9218 5.89883 64.1857C5.89702 64.3481 5.93863 64.508 6.01933 64.6488C6.095 64.7639 6.35281 64.8341 6.38363 65.0783C6.41635 65.2918 6.51425 65.4899 6.66386 65.6453C6.80958 65.8334 7.03657 66.1366 7.16547 66.3471C7.27887 66.4968 7.42965 66.614 7.60263 66.6868C7.60263 66.6868 8.00056 66.8861 7.91088 66.9983C7.82121 67.1162 7.62785 67.2033 7.58301 67.352C7.54098 67.5036 7.55779 67.8124 7.67269 67.8994C7.78758 67.9892 8.00056 67.8798 8.07902 67.9948C8.18222 68.2461 8.22355 68.5186 8.19952 68.7892C8.1715 69.0615 8.21914 69.7605 8.10704 69.8587C7.99495 69.9541 7.97534 69.957 8.00056 70.1619C8.02858 70.3668 8.51898 70.6559 8.60865 70.7064C8.69833 70.757 9.28401 70.9731 9.28401 70.9731C9.44415 70.9315 9.60897 70.9107 9.77441 70.9114C10.0544 71.0727 10.3552 71.1945 10.6683 71.2735C11.0242 71.3128 11.3073 71.2538 11.4194 71.324C11.5315 71.3913 12.005 71.5401 12.1171 71.7535C12.2264 71.9668 12.4646 72.3935 12.5767 72.6068C12.686 72.8229 12.7561 73.0419 13.3389 73.07C13.9218 73.1008 14.5579 73.0615 14.5579 73.0615C14.7266 73.2538 14.8306 73.4945 14.855 73.7493C14.8326 74.0637 14.7793 74.4847 14.7793 74.4847C14.7793 74.4847 15.3846 74.51 15.4855 74.4987C15.7129 74.4438 15.9522 74.5169 16.1104 74.6896C16.2869 74.9366 16.9791 75.6581 17.2005 75.9388C17.4219 76.2223 17.8366 76.7079 17.8366 76.7079C17.8366 76.7079 17.9711 77.4377 17.9767 77.6454C17.9823 77.8503 17.9263 78.3977 17.9992 78.4707C18.0692 78.5465 18.2177 78.5605 18.271 78.6504C18.3186 78.7901 18.3157 78.9421 18.2626 79.0798C18.2121 79.1697 18.4055 79.3942 18.4055 79.3942C18.4761 79.4199 18.543 79.4549 18.6044 79.4981C18.6969 79.5654 18.5316 79.5851 19.1229 79.6553C19.4725 79.7123 19.8286 79.7161 20.1793 79.6665C20.4231 79.6356 21.5637 79.4925 21.5637 79.4925L23.6878 79.4279L26.2743 79.4111V79.4139C26.1687 79.6176 26.0778 79.8286 26.0025 80.0454C26.033 80.2337 26.1282 80.4055 26.2715 80.5311C26.3024 80.5423 27.1963 80.91 28.4881 81.4377C32.0134 82.8777 38.5008 85.5304 38.5008 85.5304C39.0033 85.4453 39.5142 85.4217 40.0224 85.4602C40.6753 85.5416 41.5973 85.6343 41.928 85.6314C42.2614 85.6314 42.9732 85.7072 43.6374 85.7072C44.0801 85.7044 44.6602 85.7157 44.9909 85.7213C45.1534 85.7269 45.2543 85.7269 45.2543 85.7269L47.7623 85.595L48.0089 85.5641L47.8156 84.0539C48.0755 83.9355 48.3546 83.8651 48.6395 83.8462C48.9309 83.8714 49.7015 83.8967 49.8669 83.8967C50.0322 83.8967 51.5567 83.849 51.6463 83.8799C51.7164 83.9023 52.7588 83.8434 53.168 83.8181C53.2717 83.8125 53.3333 83.8097 53.3333 83.8097C53.3333 83.8097 54.0031 84.0342 54.1095 84.2083C54.2132 84.3823 54.3029 84.5985 54.4598 84.8483C54.6168 85.0981 54.8942 85.1879 55.0595 85.3311C55.3503 85.5559 55.6128 85.8151 55.8414 86.103C56.0207 86.3922 57.0828 87.2511 57.4022 87.4813C57.7217 87.7115 58.3774 87.8153 58.6128 88.0539C58.851 88.2925 59.2209 88.4329 59.2377 88.576C59.2406 88.5929 59.2405 88.6153 59.2434 88.6406V88.7445C59.2438 88.7698 59.2429 88.7951 59.2406 88.8202C59.2406 88.868 59.2378 88.9157 59.2349 88.9606C59.2355 88.9812 59.2345 89.0019 59.2321 89.0223C59.2321 89.0532 59.2293 89.0841 59.2265 89.1122V89.1543C59.2237 89.1908 59.2209 89.2216 59.2181 89.2413C59.2097 89.3452 59.4227 89.5473 59.5712 89.7353C59.736 89.9087 59.8495 90.1244 59.8991 90.3585C59.9299 90.6027 59.9579 91.3241 60.0308 91.3999C60.2712 91.8299 60.6163 92.1921 61.034 92.4525C61.6785 92.8062 63.5309 93.6905 63.5309 93.6905L64.9909 94.4399C65.1778 94.4605 65.367 94.4365 65.5429 94.3698C65.7363 94.2603 65.8736 93.7241 65.9548 93.6933C66.1434 93.5459 66.3022 93.364 66.4228 93.1571C66.4873 93.0055 66.7479 91.9557 66.8096 91.7817C66.8684 91.6076 66.7423 91.4167 67.0842 91.3522C67.2682 91.3198 67.4554 91.3095 67.6418 91.3213C67.7203 91.3129 67.8884 91.0013 67.9417 90.9311C67.9949 90.8638 68.0706 90.6252 68.2976 90.7824C68.5246 90.9424 68.6282 91.1136 68.774 91.1164C68.9582 91.1029 69.1415 91.0795 69.3232 91.0462C69.4465 91.0294 69.581 91.1164 69.7295 91.1389C69.8753 91.1613 70.3629 91.0799 70.4469 91.0911C70.531 91.0996 70.9878 91.2708 70.9878 91.2708C71.1701 91.4526 71.3649 91.6214 71.5707 91.7761C71.8126 91.8296 72.0426 91.9276 72.2488 92.0652C72.4147 92.2107 72.5667 92.3714 72.7028 92.5452C72.9914 92.8624 73.3081 92.9045 73.4986 93.1094C73.718 93.3732 73.8897 93.6734 74.0059 93.9964C74.0227 94.1396 74.5299 94.7178 74.5579 94.7768C74.5859 94.8357 75.3482 96.2729 75.3734 96.4582C75.4172 96.6872 75.5543 96.8876 75.7517 97.0112C76.1483 97.3 76.5213 97.62 76.867 97.9684C77.0247 98.1768 77.2021 98.3695 77.3966 98.5438C77.5592 98.6898 78.2345 99.1221 78.2345 99.1221L78.526 99.7677C78.5229 99.9884 78.5503 100.208 78.6072 100.422C78.6773 100.475 78.8006 100.481 78.8286 100.705C78.8594 100.93 78.6072 101.065 78.9071 101.317C79.2508 101.65 79.5546 102.022 79.8122 102.426C80.0458 102.788 80.2592 103.163 80.4511 103.549C80.4623 103.627 80.9555 103.588 80.9555 103.588C81.1275 103.619 81.2978 103.66 81.4656 103.709C81.5328 103.742 82.7434 104.147 82.8975 104.211C83.0489 104.276 83.5897 104.436 83.6766 104.486C83.9795 104.536 84.2876 104.545 84.5929 104.514C84.7947 104.489 85.2347 104.349 85.4056 104.411C85.5793 104.472 85.8035 104.753 85.9773 104.837C86.2491 104.913 86.5264 104.968 86.8067 105C86.8547 104.882 86.9168 104.769 86.9917 104.666C87.1077 104.592 87.233 104.533 87.3644 104.492C87.3644 104.492 87.4877 104.332 87.4317 104.217C87.3756 104.099 87.1738 104.144 86.9048 103.804C86.5383 103.35 86.2128 102.865 85.9324 102.353C85.8904 102.173 85.6186 101.191 85.6102 101.107C85.5902 100.934 85.5958 100.759 85.627 100.587C85.6662 100.416 85.7335 100.284 85.7587 100.155C85.7839 100.029 85.8091 99.588 85.8091 99.588C85.8091 99.588 85.599 99.5543 85.5905 99.4926C85.5821 99.4308 85.8932 99.1024 85.8932 99.1024C85.9867 98.999 86.0565 98.8764 86.0978 98.7431C86.1006 98.6196 86.1398 98.4259 86.1398 98.2603C86.1472 98.0997 86.0896 97.9428 85.9801 97.8252C85.8904 97.7747 85.6858 97.7999 85.7391 97.5445C85.7895 97.2891 85.7587 97.0449 85.9212 97.0252C86.1293 97.031 86.3361 97.0602 86.5377 97.1122L86.8123 96.7052L86.7255 96.0315C86.7255 96.0315 86.7059 95.8659 86.8264 95.8519C86.9497 95.835 87.7651 95.7312 87.7651 95.7312C87.7789 95.5801 87.7598 95.4278 87.7091 95.2849C87.6278 95.1473 87.4961 94.9789 87.6923 94.9312C87.9296 94.9209 88.1662 94.8984 88.4012 94.8638C88.6591 94.788 88.7964 94.729 88.7908 94.6673C88.7814 94.5166 88.7105 94.3765 88.5946 94.2799C88.4069 94.0947 88.306 94.1087 88.334 94.0217C88.3648 93.9347 88.4685 93.9206 88.6899 93.8729C88.9085 93.8252 89.1158 93.8168 89.1579 93.6483C89.2131 93.4945 89.2926 93.3504 89.3933 93.2217C89.3933 93.2217 89.4353 93.2161 89.4269 93.4883C89.4185 93.7606 89.1102 93.8196 89.4801 93.7719C89.6695 93.7667 89.8557 93.7218 90.0266 93.6399C90.3058 93.4245 90.5988 93.2276 90.9037 93.0504C91.366 92.7637 91.8029 92.4379 92.2096 92.0764C92.3945 91.908 92.7364 91.5122 92.7364 91.5122C92.6996 91.3865 92.6835 91.2557 92.6888 91.1248C92.7168 90.9533 92.8195 90.8031 92.969 90.715C93.2324 90.5157 93.5883 90.221 93.5771 90.1199C93.5631 90.016 93.5659 90.0385 93.3949 89.8308C93.2212 89.6259 93.0138 89.4462 93.0559 89.2946C93.0979 89.1431 93.1708 88.7192 93.3949 88.6911C93.6191 88.663 93.8125 88.722 93.8433 88.8006C93.8741 88.8792 93.7424 89.1431 93.7424 89.1431C93.7424 89.1431 93.7004 89.4406 93.9218 89.4125L94.3281 89.3592C94.5011 89.3795 94.6754 89.3852 94.8493 89.376C95.0707 89.348 95.3285 89.0869 95.4098 89.0785C95.6394 89.0307 95.8598 88.9464 96.0627 88.8287C96.1524 88.7332 96.2925 88.6967 96.5924 88.5957C96.6596 88.5732 96.7549 88.5395 96.867 88.5002C97.2369 88.3711 97.7777 88.1774 98.0383 88.0792C98.3746 87.9557 98.5988 87.6132 98.9855 87.7087C99.3694 87.8069 99.4619 87.7115 99.9159 87.8827C99.9972 87.9136 100.076 87.9388 100.151 87.9641C100.216 87.9865 100.277 88.0034 100.339 88.023C100.389 88.0343 100.437 88.0455 100.482 88.0567C100.488 88.059 100.495 88.06 100.502 88.0595C100.527 88.0678 100.553 88.0735 100.58 88.0764C100.766 88.1145 100.957 88.1221 101.146 88.0988C101.533 88.0511 102.62 87.9753 102.682 87.9669C102.743 87.9585 103.136 87.7844 102.996 87.6581C102.853 87.529 102.584 87.1894 102.785 87.1444C102.969 87.0851 103.145 87.007 103.312 86.9115C103.312 86.9115 103.396 86.5887 103.528 86.802C103.657 87.0125 103.707 87.0686 103.895 87.0855C104.083 87.1051 104.296 86.9732 104.433 87.0799C104.549 87.1867 104.642 87.3155 104.708 87.4588C104.818 87.6092 104.99 87.702 105.176 87.7115C105.428 87.7423 105.747 87.6581 105.89 87.7873C106.031 87.9127 106.154 88.0572 106.255 88.2167C106.372 88.3933 106.525 88.5434 106.703 88.6574C106.902 88.7115 107.107 88.7416 107.314 88.7473C107.394 88.7951 107.482 88.8257 107.575 88.8371C107.72 88.8569 107.867 88.8082 107.972 88.7052C108.099 88.5709 108.219 88.4304 108.331 88.2841L108.6 88.1044L108.749 88.2953L108.99 88.0764C108.99 88.0764 109.348 88.1353 109.388 88.2757C109.453 88.4321 109.592 88.5458 109.758 88.5788C109.858 88.5676 110.15 88.2392 110.22 88.1466C110.29 88.0567 110.396 87.9192 110.304 87.8266C110.209 87.7339 110.027 87.4476 110.057 87.3606C110.088 87.2736 110.189 86.9283 110.405 86.9844C110.618 87.0406 110.811 87.0995 110.828 87.2202C110.842 87.3437 111.117 87.5374 111.304 87.5543C111.492 87.5711 111.946 87.5543 111.946 87.5543C111.946 87.5543 112.386 87.748 112.423 87.8883C112.453 88.0364 112.473 88.1865 112.481 88.3374L112.627 88.5059C112.627 88.5059 113.577 88.0118 113.56 87.8687C113.541 87.7255 113.742 87.5122 113.501 87.4195C113.263 87.3241 112.983 87.4027 112.585 87.2062C112.187 87.0069 111.697 86.7374 111.632 86.7037C111.536 86.5918 111.469 86.4578 111.436 86.3136C111.421 86.1737 111.463 86.0337 111.554 85.9262C111.677 85.7662 111.781 85.7522 111.865 85.595C111.953 85.41 112.063 85.2365 112.193 85.0785C112.336 84.9128 112.613 84.6518 112.563 84.5732C112.449 84.4761 112.362 84.3514 112.31 84.2111C112.24 83.9921 112.282 83.8209 112.081 83.8883C111.819 84.0229 111.57 84.1797 111.335 84.3571C111.228 84.4692 111.151 84.6076 111.114 84.7585C111.095 84.8829 111.038 84.9985 110.951 85.0897L110.464 85.0055C110.464 85.0055 110.22 85.0364 110.29 84.9465C110.363 84.8539 110.609 84.5114 110.609 84.5114C110.609 84.5114 110.609 84.3458 110.486 84.3599C110.363 84.3767 110.24 84.2251 110.032 84.3767C109.923 84.4767 109.802 84.5617 109.671 84.6293C109.458 84.7416 109.407 84.663 109.197 84.8146C108.99 84.9662 108.595 85.1206 108.491 84.9662C108.367 84.8133 108.262 84.6454 108.18 84.4665C108.166 84.3655 108.286 83.9978 108.407 83.9613C108.525 83.9248 108.852 83.8855 108.883 83.8181C108.917 83.7507 109.191 83.4672 109.281 83.5178C109.418 83.6286 109.569 83.7211 109.73 83.7928C109.922 83.8354 110.119 83.8524 110.315 83.8434C110.43 83.8574 110.702 83.8686 110.859 83.8771C110.935 83.8799 110.985 83.8827 110.985 83.8827L111.324 83.9641C111.504 83.7376 111.707 83.5306 111.929 83.3465C111.939 83.3424 111.948 83.3377 111.957 83.3325C112.013 83.296 112.109 83.2399 112.221 83.1697C112.268 83.1388 112.322 83.1079 112.378 83.0742C112.415 83.0538 112.452 83.0313 112.487 83.0069C112.521 82.9872 112.557 82.9648 112.591 82.9451C112.655 82.9058 112.717 82.8665 112.778 82.83C113.022 82.6813 113.218 82.5606 113.218 82.5606C113.218 82.5606 113.574 82.5999 113.745 82.6392C113.923 82.6904 114.108 82.7094 114.292 82.6953C114.474 82.6728 114.757 82.6139 114.79 82.5493C114.809 82.5083 114.833 82.4704 114.863 82.437C114.87 82.4289 114.878 82.4214 114.886 82.4146C114.905 82.3993 114.925 82.3861 114.947 82.3753C114.959 82.3689 114.971 82.3642 114.984 82.3613L114.987 82.3584C114.99 82.3588 114.993 82.3578 114.995 82.3556C115.074 82.3331 115.156 82.3227 115.239 82.3248C115.317 82.3948 115.417 82.4337 115.522 82.4342C115.662 82.4174 116.018 82.2686 115.917 82.1142C115.81 81.99 115.728 81.846 115.676 81.6904C115.641 81.4985 115.637 81.3023 115.665 81.1093C115.732 80.9515 115.816 80.8018 115.917 80.663C115.917 80.663 116.127 80.8426 116.147 80.9858C116.192 81.1966 116.252 81.4039 116.326 81.6062C116.441 81.8208 116.584 82.0191 116.752 82.1956L117.041 82.3444C117.041 82.3444 117.503 82.3893 117.534 82.3023C117.565 82.2181 117.677 81.9542 117.677 81.9542C117.677 81.9542 117.767 81.8588 117.828 81.8504C117.89 81.8419 117.915 82.0469 117.977 82.0413C118.038 82.0328 118.15 82.1002 118.263 82.0048C118.375 81.9065 118.574 81.8588 118.602 81.7521C118.63 81.6455 118.759 81.3591 118.759 81.3591L118.957 81.1262L119.445 81.0448L119.252 81.4827C119.252 81.4827 119.493 81.4321 119.613 81.3956C119.734 81.3591 120.05 81.2581 120.112 81.2497C120.346 81.2003 120.566 81.1017 120.759 80.9605C120.871 80.8131 121.021 80.7002 121.194 80.6349C121.373 80.5704 121.611 80.4974 121.611 80.4974L121.41 80.8567C121.514 80.9217 121.632 80.9629 121.754 80.9774C121.919 80.9735 122.084 80.9604 122.247 80.9381C122.425 80.9312 122.601 80.973 122.757 81.0588C122.81 81.1484 122.903 81.2062 123.007 81.2132C123.015 81.216 123.026 81.2188 123.035 81.2216C123.043 81.2244 123.052 81.2244 123.057 81.23C123.138 81.2733 123.215 81.324 123.287 81.3816C123.298 81.39 123.312 81.3984 123.323 81.4069C123.382 81.449 123.436 81.477 123.475 81.4658C123.573 81.4321 123.592 81.2637 123.688 81.1879C123.78 81.1149 123.892 81.0167 124.035 81.1655C124.166 81.2637 124.326 81.316 124.489 81.3142C124.509 81.3661 124.516 81.422 124.509 81.477C124.503 81.5837 124.556 81.5332 124.542 81.6595C124.528 81.7858 125.148 81.9374 125.223 82.03C125.364 82.1557 125.516 82.2685 125.677 82.3669C125.677 82.3669 125.711 82.6307 125.591 82.6476C125.467 82.6616 125.31 82.4146 125.215 82.4679C125.098 82.5195 125.042 82.6545 125.089 82.7739C125.139 82.9253 125.29 83.0196 125.448 82.9985C125.617 82.9367 125.781 82.8606 125.938 82.7711C126.07 82.6927 126.197 82.6065 126.319 82.5128C126.435 82.4266 126.557 82.3488 126.683 82.2798L127.137 82.1199C127.137 82.1199 127.67 81.5753 127.762 81.4995C127.858 81.4265 128.396 81.4209 128.446 81.3311C128.508 81.2238 128.549 81.1056 128.567 80.983C128.561 80.9212 128.326 80.7023 128.6 80.5844C128.885 80.4707 129.177 80.3778 129.475 80.3065C130.136 80.3773 130.781 80.5545 131.386 80.8314C131.568 80.9622 131.733 81.1159 131.876 81.289C132.018 81.4357 132.174 81.5682 132.341 81.6848C132.524 81.8338 132.728 81.9549 132.947 82.0441C133.176 82.1491 133.37 82.3188 133.504 82.5325C133.541 82.6532 133.647 82.8272 133.709 82.8384C133.812 82.8448 133.916 82.8458 134.02 82.8413L134.101 82.6644L134.507 82.6139C134.507 82.6139 134.774 83.077 134.804 83.136C134.83 83.1949 135.048 83.2707 135.186 83.543C135.321 83.8182 135.44 84.1013 135.541 84.3907C135.599 84.5895 135.625 84.7959 135.62 85.0027C135.684 85.3148 135.696 85.6353 135.656 85.9515C135.577 86.2649 135.52 86.584 135.488 86.9058C135.578 87.1636 135.706 87.406 135.869 87.6244C135.99 87.7536 136.222 88.1185 136.382 88.0792C136.542 88.0371 136.704 87.849 136.606 87.7367C136.511 87.6273 136.511 87.4616 136.318 87.2371C136.122 87.0125 135.937 87.0153 136.085 86.8722C136.231 86.729 136.581 86.5578 136.626 86.7402C136.668 86.9227 136.424 87.0995 136.758 87.1192C136.948 87.1347 137.136 87.0648 137.27 86.9283C137.27 86.9283 137.478 86.9227 137.313 87.2539C137.147 87.5851 136.996 87.689 137.024 87.9136C137.028 88.0797 136.985 88.2436 136.898 88.3852C136.898 88.3852 136.626 88.5452 136.707 88.6995C136.786 88.8431 136.88 88.9777 136.987 89.1009C137.111 89.2497 137.304 89.3087 137.469 89.4743C137.635 89.6399 137.5 89.9066 137.792 90.3052C138.08 90.7038 138.184 90.6897 138.31 90.715C138.439 90.7402 138.946 90.8217 138.946 90.8217C138.946 90.8217 138.893 90.5803 139.081 90.5971C139.302 90.5969 139.504 90.7248 139.599 90.9255C139.669 91.1445 139.678 91.2062 139.773 91.4841C139.871 91.762 139.776 91.835 140.112 92.0203C140.446 92.2055 140.513 91.9276 140.785 92.2673C141.025 92.5542 141.214 92.881 141.342 93.2329C141.362 93.3957 141.129 93.5304 141.541 93.6652C141.95 93.7999 142.273 93.7157 142.427 93.7803C142.667 93.8901 142.897 94.0197 143.116 94.1676C143.253 94.2771 143.615 94.6645 143.803 94.8498C143.933 94.9809 144.095 95.075 144.273 95.122C144.439 95.1622 144.608 95.182 144.778 95.181C144.778 95.181 144.982 95.487 144.968 95.5515C144.957 95.6161 144.349 95.734 144.349 95.734L144.414 96.0792C144.414 96.0792 144.725 96.0792 144.868 96.0624C144.998 96.0191 145.116 95.9472 145.215 95.8519C145.328 95.7907 145.446 95.7409 145.568 95.7031C145.787 95.6329 146.218 95.2877 146.361 95.2708C146.586 95.2022 146.785 95.0683 146.933 94.8862C146.973 94.7416 146.997 94.5928 147.003 94.4427C146.909 94.2737 146.831 94.0961 146.77 93.9122C146.706 93.6305 146.676 93.3421 146.681 93.0533C146.765 92.8927 146.88 92.7505 147.02 92.635C147.079 92.6069 147.317 92.5143 147.28 92.3936C147.235 92.1656 147.137 91.9512 146.994 91.7676C146.804 91.5655 146.681 91.4139 146.681 91.4139C146.639 91.2966 146.617 91.1734 146.613 91.049C146.629 90.5805 146.611 90.1115 146.56 89.6455C146.482 89.3648 145.952 87.9585 145.565 87.5122C145.176 87.063 145.044 87.3297 144.769 86.7823C144.492 86.2378 144.851 86.6055 144.117 85.7269C143.385 84.8455 143.27 84.7557 143.169 84.6237C143.065 84.4381 142.99 84.2373 142.948 84.0286C142.94 83.9472 142.69 83.936 142.78 83.6777C142.872 83.4167 143.026 83.0013 142.934 82.9311C142.739 82.8407 142.552 82.7327 142.376 82.6083C142.233 82.4595 141.384 81.4911 141.384 81.4911C141.157 81.4814 140.94 81.3909 140.773 81.2356C140.513 80.9774 139.624 80.0118 139.423 79.7282C139.133 79.3301 138.885 78.903 138.683 78.4539C138.537 78.0723 138.371 77.6984 138.187 77.3338C138.128 77.1963 137.643 76.6349 137.556 76.4384C137.492 76.2952 137.287 75.7451 137.184 75.4616C137.144 75.3605 137.122 75.2903 137.122 75.2903C137.122 75.2903 137.102 75.2454 137.074 75.1696C137.069 75.15 137.06 75.1247 137.052 75.1023C137.05 75.0955 137.047 75.0889 137.044 75.0826C136.922 74.7551 136.854 74.4101 136.842 74.0608C136.864 73.5808 136.76 73.4293 136.987 72.5928C137.212 71.7535 137.279 71.31 137.402 70.9619C137.457 70.7162 137.561 70.4842 137.708 70.2798C137.786 70.2517 138.145 70.1422 138.097 70.0861C138.031 70.0057 137.945 69.9446 137.848 69.9092C137.744 69.8727 137.64 69.9289 137.688 69.8194C137.707 69.775 137.73 69.7326 137.758 69.6931C137.886 69.5147 138 69.3271 138.1 69.1317C138.114 69.0671 138.008 68.8931 137.991 68.7499C137.971 68.6096 138.229 68.5141 138.229 68.5141C138.334 68.3911 138.422 68.2542 138.49 68.1071C138.504 68.0762 138.515 68.0426 138.529 68.0117C138.54 67.9864 138.551 67.9612 138.562 67.9387C138.579 67.905 138.596 67.8741 138.61 67.8461C138.613 67.8376 138.618 67.8292 138.621 67.8208L138.63 67.804C138.655 67.759 138.669 67.731 138.669 67.731C138.928 67.5344 139.171 67.3165 139.395 67.0798C139.459 66.9478 140.151 66.5268 140.12 66.2825C140.09 66.0383 140.44 65.8475 140.616 65.6173C140.85 65.3173 141.059 64.9991 141.241 64.6657C141.25 64.5843 141.485 64.4692 141.541 64.4215C141.72 64.2908 141.812 64.0712 141.779 63.8517C141.718 63.5288 141.642 63.5794 141.636 63.206C141.583 62.8839 141.659 62.5536 141.849 62.2881C142.11 61.8811 142.542 61.039 142.542 61.039C142.694 60.8934 142.856 60.7584 143.026 60.6348C143.045 60.6198 143.064 60.6066 143.085 60.5955C143.15 60.5609 143.218 60.5308 143.287 60.5057C143.309 60.4944 143.337 60.4832 143.365 60.472C143.371 60.4689 143.376 60.467 143.382 60.4664C143.772 60.3092 144.377 60.0874 144.464 60.0481C144.582 59.992 144.769 60.1744 144.792 59.5092C144.764 59.0951 144.816 58.6795 144.946 58.2853C145.095 57.8306 145.008 57.78 145.487 57.3253C145.966 56.8706 146.196 56.8818 146.263 56.5842C146.328 56.2839 146.288 56.1239 146.417 56.0032C146.546 55.8853 146.695 55.9077 147.067 55.7562C147.454 55.5861 147.817 55.3652 148.146 55.0993C148.255 54.9814 148.429 54.7316 148.387 54.5491C148.342 54.3695 148.583 54.1309 148.331 54.1028C148.076 54.0719 148.076 54.0719 147.995 54.2488C147.914 54.4228 148.037 54.4088 147.827 54.5407C147.662 54.6763 147.468 54.7714 147.261 54.8186C146.919 54.9028 146.594 54.9449 146.594 54.9449C146.594 54.9449 146.243 54.9674 146.235 54.9056C146.229 54.8467 145.944 54.7372 146.137 54.6081C146.328 54.4818 146.44 54.3835 146.571 54.4509C146.706 54.5154 146.574 54.6362 146.818 54.6053C147.065 54.5744 147.132 54.6277 147.213 54.4509C147.308 54.3014 147.365 54.1307 147.378 53.954C147.362 53.8109 147.3 53.5049 147.3 53.5049C147.13 53.4634 146.98 53.3667 146.871 53.2298C146.784 53.0757 146.722 52.9091 146.686 52.7358C146.704 52.5358 146.734 52.3371 146.776 52.1407C146.776 52.1407 147.034 52.2137 147.031 52.3568C147.028 52.5028 146.941 52.4523 147.048 52.6488C147.154 52.8397 147.098 52.8902 147.303 52.8649C147.427 52.8469 147.548 52.81 147.661 52.7554C147.661 52.7554 147.827 52.9323 147.902 52.9323C147.972 52.9351 148.037 53.1232 148.275 52.834C148.513 52.5421 148.721 52.5365 148.777 52.3344C148.836 52.1295 148.78 52.1884 148.81 51.9442C148.838 51.765 148.944 51.6075 149.099 51.5147C149.177 51.4754 149.219 51.4081 149.214 51.2003C149.208 50.9926 149.228 50.7512 149.158 50.7512C149.085 50.7484 148.984 50.6081 148.948 50.4958C148.911 50.3388 148.858 50.1863 148.788 50.041C148.743 50.0045 148.525 50.013 148.499 50.1309C148.494 50.2431 148.48 50.3548 148.457 50.4649C148.412 50.5968 148.382 50.7568 148.219 50.7765C148.054 50.7961 147.745 50.7231 147.804 50.6221C147.863 50.521 147.93 50.5547 147.936 50.4284C147.942 50.3049 148 50.2123 147.897 50.1954C147.79 50.1786 147.594 50.1084 147.502 50.1954C147.383 50.3165 147.255 50.429 147.121 50.5323C146.982 50.6423 146.831 50.7347 146.669 50.8074C146.499 50.9049 146.323 50.993 146.143 51.0712C146.143 51.0712 145.848 51.0375 145.913 50.8831C145.977 50.7316 145.944 50.5575 146.173 50.5603C146.4 50.5631 146.563 50.5519 146.653 50.4256C146.702 50.3582 146.741 50.2833 146.767 50.2038C146.826 50.0831 146.821 50.041 147.02 49.9849C147.17 49.9511 147.317 49.9012 147.457 49.8361C147.504 49.7996 147.476 49.6677 147.479 49.6059C147.482 49.5442 147.423 49.3954 147.572 49.4263C147.723 49.4727 147.884 49.4814 148.04 49.4516C148.149 49.4334 148.249 49.3767 148.32 49.2916C148.334 49.2495 148.258 48.9772 148.194 48.9659C148.025 48.8574 147.862 48.7393 147.706 48.6123C147.591 48.5337 147.547 48.4972 147.432 48.4186C147.32 48.34 147.193 48.3147 147.238 48.194C147.244 48.18 147.249 48.1687 147.255 48.1547C147.26 48.1492 147.264 48.1424 147.266 48.1351C147.269 48.1288 147.273 48.1231 147.277 48.1182C147.283 48.1066 147.29 48.0954 147.297 48.0845C147.308 48.0649 147.317 48.048 147.328 48.0284C147.346 47.993 147.359 47.9552 147.367 47.9161V47.9105C147.37 47.8995 147.372 47.8882 147.373 47.8768C147.404 47.6822 147.373 47.4825 147.283 47.307C147.182 47.1751 147.112 47.1835 147.031 46.9673C146.985 46.7985 146.843 46.6736 146.669 46.6501C146.58 46.6614 146.594 46.5238 146.305 46.7063C146.016 46.8887 146.016 46.9617 145.84 47.0543C145.666 47.1498 145.425 47.2115 145.358 47.1582C145.272 47.0919 145.178 47.0381 145.078 46.9982C145.036 46.9926 144.705 46.9196 144.792 46.8579C144.871 46.7869 144.972 46.7444 145.078 46.7372C145.17 46.7456 144.873 46.8354 145.226 46.855C145.579 46.8719 145.661 46.7568 145.691 46.6922C145.725 46.6249 145.89 46.3638 145.862 46.3161C145.834 46.2684 145.829 46.1336 145.579 46.1252C145.421 46.1156 145.262 46.1147 145.103 46.1224C145.013 46.1053 144.926 46.0779 144.842 46.041C144.842 46.041 144.758 45.94 144.901 45.9203C145.044 45.9035 145.139 45.9203 145.151 45.8473C145.162 45.7743 145.198 45.6649 145.145 45.6396C145.071 45.6174 144.997 45.5996 144.921 45.5863L144.968 45.314C144.988 45.3224 145.027 45.3308 145.086 45.3477C145.333 45.4094 145.526 45.3112 145.428 45.095C145.327 44.8817 145.4 44.8733 145.249 44.7442C145.097 44.6207 144.915 44.5701 144.873 44.4831C144.786 44.3672 144.73 44.231 144.711 44.0873C144.708 43.9133 144.792 43.9133 144.806 43.787C144.82 43.6606 145.008 43.5849 144.896 43.422C144.792 43.2537 144.624 43.1358 144.43 43.0964C144.184 43.0347 143.763 43.0684 143.528 43.015C143.293 42.9617 142.94 42.8522 142.749 42.8241C142.558 42.7961 142.343 42.8017 142.365 42.7371C142.387 42.6726 142.561 42.4031 142.727 42.4031C142.892 42.4003 142.883 42.5799 143.136 42.608C143.388 42.6389 143.741 42.5631 143.831 42.6248C143.99 42.6848 144.155 42.7262 144.324 42.7484C144.324 42.7484 144.486 42.8101 144.414 42.6417C144.315 42.4726 144.195 42.3177 144.055 42.1813C143.932 42.041 143.668 41.9175 143.592 41.7322C143.52 41.5257 143.409 41.3351 143.265 41.1708C143.237 41.146 143.211 41.1198 143.186 41.0922C143.168 41.0749 143.151 41.0561 143.136 41.0361C143.124 41.0263 143.114 41.015 143.105 41.0024C143.067 40.9541 143.035 40.9013 143.01 40.8452L142.993 40.8115L142.984 40.7947C142.976 40.775 142.968 40.7554 142.959 40.7329C142.845 40.4694 142.752 40.1972 142.682 39.9189C142.658 39.713 142.652 39.5054 142.665 39.2985C142.684 39.2338 142.686 39.165 142.671 39.0992C142.651 39.0318 142.472 38.9196 142.452 38.8382C142.43 38.7567 142.354 38.6417 142.371 38.5462C142.39 38.4508 142.572 38.3245 142.685 38.0718C142.797 37.8192 142.92 37.721 142.965 37.5806C143.007 37.4403 143.054 37.3925 143.099 37.2634C143.162 37.1305 143.24 37.0052 143.332 36.8901C143.332 36.8901 143.693 36.7216 143.685 36.9911C143.679 37.2606 143.775 37.1988 143.545 37.5076C143.315 37.8164 143.035 38.0494 143.035 38.2262C143.038 38.4003 142.934 38.476 143.136 38.6164C143.34 38.7567 143.64 38.9139 143.721 39.1441C143.803 39.3715 143.999 39.5427 143.772 39.6971C143.542 39.8515 143.374 39.9862 143.394 40.0648C143.413 40.1462 143.598 40.2164 143.73 40.3455C143.869 40.5019 143.958 40.6965 143.985 40.9041C144.027 41.0598 144.081 41.2118 144.147 41.3589C144.276 41.5881 144.513 41.7346 144.775 41.7462C144.96 41.7238 145.078 41.4291 145.221 41.4936C145.361 41.5582 145.408 41.6873 145.504 41.9455C145.569 42.1696 145.68 42.3779 145.829 42.5575C145.923 42.6151 146.032 42.6443 146.143 42.6417C146.143 42.6417 146.173 42.4817 146.283 42.6136C146.289 42.6216 146.296 42.6282 146.305 42.6333C146.428 42.7399 146.695 42.7006 146.512 42.9561C146.384 43.1115 146.27 43.2788 146.173 43.4557C146.112 43.5589 146.084 43.6784 146.092 43.7982C146.106 44.2893 146.154 44.7789 146.235 45.2635C146.287 45.4509 146.383 45.6232 146.515 45.7659C146.588 45.8501 146.689 45.9736 146.689 45.9736C146.711 45.8017 146.698 45.6271 146.653 45.46C146.58 45.2831 146.498 45.3028 146.591 44.8761C146.68 44.4899 146.813 44.1151 146.986 43.7589C147.132 43.4389 147.233 43.321 147.221 43.0852C147.223 42.8893 147.206 42.6937 147.168 42.5013C147.129 42.3498 147.014 42.2487 147.129 42.0915C147.141 42.0733 147.155 42.0564 147.171 42.041C147.294 41.909 147.493 41.8136 147.533 41.6143C147.583 41.4133 147.592 41.204 147.558 40.9996C147.553 40.773 147.576 40.5466 147.628 40.3259C147.648 40.209 147.649 40.0894 147.631 39.9722C147.628 39.961 147.625 39.9525 147.622 39.9441C147.586 39.8234 147.507 39.6269 147.507 39.6269C147.468 39.5313 147.42 39.4401 147.362 39.3546C147.211 39.0513 146.977 38.7965 146.689 38.6192C146.421 38.5459 146.177 38.4025 145.983 38.2038C145.753 37.9649 145.544 37.7066 145.358 37.4318C145.148 37.168 144.82 36.8676 144.733 36.7441C144.641 36.6351 144.569 36.5106 144.52 36.3764C144.515 36.3289 144.514 36.2809 144.517 36.2332C144.52 36.163 144.526 36.0957 144.526 36.0957C144.628 36.0797 144.731 36.118 144.797 36.1967C144.919 36.4222 145.082 36.623 145.277 36.789C145.288 36.8002 145.302 36.8087 145.313 36.8199C145.336 36.8395 145.358 36.8564 145.378 36.8732C145.389 36.8845 145.397 36.8901 145.406 36.8985C145.434 36.9209 145.453 36.9406 145.473 36.9574C145.495 36.9799 145.515 36.9967 145.534 37.0136C145.545 37.0237 145.556 37.0331 145.568 37.0417C145.576 37.049 145.584 37.0556 145.593 37.0613C145.603 37.0694 145.613 37.0769 145.624 37.0838C145.626 37.0859 145.629 37.0869 145.633 37.0866V37.0894C145.692 37.1199 145.755 37.1425 145.82 37.1567C146.075 37.2157 146.053 37.3532 146.428 37.3055C146.804 37.2578 146.874 37.1567 146.966 37.2157C147.072 37.3254 147.14 37.466 147.16 37.6171C147.169 37.7591 147.17 37.9016 147.163 38.0438L147.462 38.0466C147.609 37.9551 147.672 37.7748 147.617 37.6115C147.544 37.2887 147.401 37.1399 147.575 36.7974C147.748 36.455 148.071 35.728 148.071 35.728C148.071 35.728 148.429 34.7904 148.471 34.6304C148.532 34.3844 148.545 34.1291 148.511 33.8781C148.466 33.5413 148.457 33.3055 148.424 33.2044C148.34 33.0587 148.275 32.9031 148.23 32.7413C148.208 32.5588 148.219 32.0704 148.115 32.0002C148.015 31.93 147.939 31.9076 147.922 31.8599C147.905 31.8093 147.835 31.4978 147.793 31.4809C147.743 31.4583 147.688 31.4478 147.633 31.45C147.572 31.4585 147.353 31.61 147.252 31.6325C147.151 31.6549 147.053 31.6999 147.048 31.6578C147.041 31.5475 147.055 31.437 147.09 31.3321C147.126 31.2956 147.277 31.102 147.328 31.0935C147.378 31.0879 148.09 30.9756 148.09 30.9756C148.09 30.9756 148.687 30.7034 148.934 30.5995C149.035 30.5534 149.131 30.496 149.219 30.4283C149.245 30.4114 149.27 30.3918 149.295 30.3749C149.32 30.3553 149.346 30.3356 149.371 30.316C149.393 30.2963 149.418 30.2767 149.441 30.2542C149.465 30.2371 149.487 30.2183 149.508 30.1981C149.509 30.1981 149.51 30.1978 149.51 30.1973C149.511 30.1967 149.511 30.196 149.511 30.1953C149.579 30.1352 149.643 30.0714 149.704 30.0044C149.92 29.7663 150.161 29.5517 150.422 29.3644C150.615 29.2465 151.383 28.5476 151.383 28.5476C151.629 28.2454 151.89 27.9559 152.165 27.6802C152.38 27.4977 152.72 27.2367 152.728 27.1497C152.727 27.0504 152.715 26.9515 152.692 26.8549C152.692 26.8549 152.678 26.8156 152.47 26.9868C152.366 27.0826 152.253 27.1672 152.131 27.2395C151.91 27.3798 151.565 27.5174 151.498 27.6297C151.428 27.7419 151.377 27.9132 151.271 27.9693C151.161 28.0254 150.915 28.1097 151.049 27.8626C151.184 27.6184 151.251 27.5876 151.327 27.4332C151.379 27.3049 151.418 27.1712 151.442 27.0346C151.442 27.0346 151.38 26.8858 151.262 27.0149C151.139 27.123 151.037 27.2523 150.96 27.3967C150.887 27.5623 150.94 27.5651 150.766 27.7532C150.593 27.9412 150.761 27.9412 150.38 28.1349C149.858 28.4443 149.366 28.8023 148.911 29.2044C148.888 29.231 148.862 29.2546 148.833 29.2746C148.819 29.2871 148.804 29.2984 148.788 29.3083C148.771 29.3223 148.752 29.3363 148.732 29.3504C148.681 29.3841 148.628 29.4205 148.569 29.457C148.511 29.4963 148.452 29.5356 148.396 29.5721C148.359 29.5946 148.326 29.617 148.295 29.6395C148.272 29.6535 148.253 29.6676 148.233 29.6788C148.174 29.7174 148.118 29.7605 148.065 29.8079C147.956 29.9258 147.827 30.0465 147.743 29.9539C147.659 29.8613 147.519 29.8865 147.572 29.6844H147.575C147.671 29.4554 147.797 29.2402 147.95 29.0444C147.992 28.9883 147.925 29.1118 148.146 28.8844C148.29 28.7372 148.442 28.5976 148.6 28.4662C148.863 28.2329 149.094 27.9657 149.287 27.6718C149.316 27.6217 149.349 27.5739 149.385 27.5286C149.396 27.5118 149.407 27.4977 149.418 27.4837C149.444 27.4528 149.466 27.4247 149.489 27.4023V27.3995C149.5 27.389 149.51 27.3777 149.519 27.3658C149.563 27.3157 149.613 27.2714 149.668 27.2339C149.674 27.2297 149.681 27.2259 149.687 27.2226C149.693 27.217 149.699 27.217 149.704 27.2142C149.946 27.1664 150.18 27.0842 150.399 26.97C150.786 26.7763 150.836 26.7482 150.836 26.7482C150.836 26.7482 150.94 26.664 151.063 26.5742C151.263 26.4363 151.483 26.332 151.716 26.2654C151.878 26.2244 152.033 26.1621 152.179 26.0802C152.196 26.0718 152.252 26.0465 152.327 26.01C152.403 25.9763 152.493 25.9314 152.579 25.8837C152.593 25.8753 152.613 25.864 152.633 25.8528C152.728 25.7967 152.854 25.7125 152.961 25.6395C153.032 25.5924 153.098 25.5389 153.16 25.4795C153.236 25.3662 153.29 25.2395 153.319 25.1061C153.325 24.9798 153.266 24.2724 153.266 24.2724C153.329 24.2535 153.394 24.2449 153.459 24.2472C153.493 24.264 153.473 24.6823 153.527 24.7889C153.583 24.8956 153.714 25.0444 153.787 25.036C153.857 25.0275 153.995 24.8844 153.995 24.8844C153.995 24.8844 153.843 24.7581 153.967 24.671C154.093 24.5812 154.21 24.5475 154.286 24.4942C154.377 24.4497 154.459 24.3899 154.53 24.3174C154.538 24.3076 154.545 24.2972 154.552 24.2865C154.563 24.2667 154.578 24.2502 154.597 24.2388L154.614 24.2303C154.62 24.225 154.628 24.2211 154.636 24.2191C154.648 24.2135 154.662 24.2079 154.676 24.2023C154.695 24.191 154.718 24.1826 154.737 24.1714C154.794 24.1448 154.836 24.0928 154.849 24.031C154.889 23.8486 154.919 23.3573 154.987 23.3181C155.054 23.2788 155.124 23.1749 155.155 23.3265C155.183 23.4781 155.087 23.6156 155.202 23.7054C155.317 23.7952 155.222 23.8682 155.407 23.784C155.539 23.7442 155.651 23.6547 155.718 23.5342C155.82 23.3791 155.961 23.2541 156.127 23.1721C156.239 23.1468 156.968 22.8577 156.968 22.8577C157.018 22.6903 157.042 22.516 157.038 22.3412C156.975 22.123 156.845 21.9297 156.668 21.7882C156.514 21.6507 156.399 21.3868 156.22 21.3559C156.086 21.3274 155.947 21.3274 155.813 21.3559C155.777 21.3812 155.749 21.4794 156.004 21.5384C156.262 21.6001 156.469 21.7096 156.503 21.8079C156.536 21.9061 156.587 21.9735 156.508 22.0886C156.43 22.2008 156.489 22.184 156.262 22.3356C156.032 22.49 155.895 22.6416 155.676 22.6275C155.457 22.6163 155.427 22.7847 155.194 22.577C154.984 22.4059 154.796 22.2099 154.634 21.9931C154.505 21.8327 154.351 21.6951 154.177 21.5861C154.094 21.5104 153.991 21.4623 153.88 21.4486C153.726 21.4487 153.572 21.4365 153.42 21.4121C153.291 21.3672 153.204 21.5131 153.221 21.3026C153.216 21.1285 153.236 20.9546 153.28 20.7861C153.328 20.6879 153.51 20.4773 153.515 20.3735C153.524 20.2668 153.686 20.0731 153.538 19.9749C153.347 19.8686 153.171 19.7384 153.014 19.5875C152.929 19.4548 152.86 19.3125 152.809 19.1636C152.802 19.1418 152.797 19.1192 152.795 19.0963C152.781 18.9784 152.734 18.9138 152.725 18.8296C152.718 18.7577 152.733 18.6853 152.767 18.6219C152.79 18.5725 152.819 18.5263 152.854 18.4843C152.955 18.3664 153.067 18.3103 153.05 18.1615C153.025 17.9678 152.888 17.6113 152.899 17.5384C152.91 17.4654 152.924 17.4935 153.025 17.1398C153.108 16.9044 153.173 16.6633 153.221 16.4184C153.216 16.365 153.19 16.3229 153.19 16.2752C153.193 16.2719 153.194 16.2679 153.193 16.264C153.196 16.2555 153.199 16.2443 153.202 16.2359C153.211 16.2187 153.222 16.2027 153.235 16.1882C153.316 16.0955 153.507 15.9664 153.487 15.8962C153.468 15.8261 153.319 15.784 153.249 15.6492C153.179 15.5117 152.98 15.6605 153.134 15.3938C153.258 15.175 153.414 14.9762 153.597 14.8043C153.692 14.7313 153.815 14.5601 153.863 14.6864C153.916 14.8103 154.001 14.9178 154.109 14.998C154.14 15.0064 154.219 14.9643 154.188 14.7285C154.16 14.4955 154.115 14.4703 154.317 14.3608C154.47 14.2936 154.616 14.2128 154.754 14.1194C154.894 14.0071 155.006 13.9201 155.001 13.7854C154.995 13.6534 155.037 13.5861 155.068 13.5804C155.099 13.5776 155.53 13.398 155.53 13.3138C155.539 13.2024 155.559 13.0922 155.592 12.9853C155.628 12.8562 155.651 12.8001 155.614 12.7439C155.575 12.6878 155.429 12.7664 155.564 12.511C155.698 12.2555 155.816 12.2218 155.833 12.0225C155.85 11.8232 155.836 11.638 155.923 11.6688C156.009 11.6969 155.976 11.9299 156.169 11.812C156.315 11.7404 156.434 11.6232 156.508 11.478C156.617 11.3148 156.703 11.1372 156.763 10.9502C156.822 10.765 156.777 10.6583 156.993 10.5685C157.212 10.4787 157.436 10.3748 157.514 10.4281C157.593 10.4815 157.556 10.5881 157.708 10.6331C157.856 10.6752 157.94 10.7678 157.985 10.6162C158.027 10.4674 158.066 10.212 158.1 10.1474C158.134 10.0801 158.324 9.79656 158.324 9.79656C158.488 9.68865 158.639 9.56143 158.773 9.41761C158.851 9.2941 159.288 8.8955 159.319 8.83094C159.355 8.76357 159.381 8.72988 159.532 8.62602C159.686 8.52497 160.006 8.50532 160 8.39023C159.994 8.27795 159.927 8.03652 159.795 7.99163Z" fill="white"/>
<path opacity="0.5" d="M89.2326 64.8348H66.2037V59.7161C66.2037 57.9709 67.6055 56.551 69.3287 56.551H81.4664C82.9111 56.551 84.1595 57.5416 84.502 58.9598C84.7071 59.8088 85.5526 60.3286 86.3912 60.1209C87.2294 59.9132 87.7426 59.0565 87.5375 58.2075C86.8516 55.3686 84.3552 53.3857 81.4664 53.3857H69.3287C65.8824 53.3857 63.0787 56.2255 63.0787 59.7161V64.8347H61.5625C60.6995 64.8347 60 65.5433 60 66.4173C60 67.2914 60.6995 67.9999 61.5625 67.9999H89.2326C90.0955 67.9999 90.7951 67.2914 90.7951 66.4173C90.7951 65.5433 90.0955 64.8348 89.2326 64.8348Z" fill="#1886C4"/>
<path fill-rule="evenodd" clip-rule="evenodd" d="M95.0832 35.4624H87.8713C87.0083 35.4624 86.3088 36.1709 86.3088 37.0449V38.8598H81.5194V35.1553C82.2998 35.067 82.9067 34.3966 82.9067 33.5826C82.9067 32.7085 82.2072 32 81.3442 32H69.5547C68.6917 32 67.9922 32.7085 67.9922 33.5826C67.9922 34.3967 68.599 35.0671 69.3795 35.1553V45.7295C68.5991 45.8177 67.9922 46.4882 67.9922 47.3022C67.9922 48.1762 68.6917 48.8848 69.5547 48.8848H81.3442C82.2072 48.8848 82.9067 48.1762 82.9067 47.3022C82.9067 46.4881 82.2999 45.8176 81.5194 45.7295V42.025H86.3088V43.8398C86.3088 44.7139 87.0083 45.4224 87.8713 45.4224H95.0832C97.7944 45.4224 100 43.1884 100 40.4424C100 37.6964 97.7945 35.4624 95.0832 35.4624ZM72.5045 45.7196V35.1651H78.3945V45.7196H72.5045ZM89.4338 42.2572H95.0832C96.0713 42.2572 96.8751 41.4432 96.8751 40.4424C96.8751 39.4417 96.0712 38.6275 95.0832 38.6275H89.4338V42.2572Z" fill="#1886C4"/>
</svg>
