<svg width="26" height="26" viewBox="0 0 26 26" fill="none" xmlns="http://www.w3.org/2000/svg">
<path fill-rule="evenodd" clip-rule="evenodd" d="M19.127 1.53733C22.1901 3.17185 24.4331 5.90075 25.4426 9.22156C26.1887 11.6755 26.1858 14.2834 25.4339 16.7634C25.3547 17.0242 25.1794 17.2293 24.9592 17.3531C24.7849 17.4846 24.5704 17.5592 24.3474 17.5592C24.2446 17.5592 24.14 17.5433 24.0366 17.5102L21.3776 16.6566C20.8436 16.4853 20.5499 15.9136 20.7214 15.3798C20.8928 14.846 21.4647 14.5522 21.9988 14.7236L23.7217 15.2768C24.0545 13.7286 24.0505 12.1421 23.709 10.6095L21.948 11.1749C21.8448 11.208 21.74 11.2238 21.6372 11.2238C21.2077 11.2238 20.8089 10.9493 20.6706 10.5189C20.4989 9.98506 20.7928 9.41318 21.3268 9.24179L23.0852 8.67725C22.4079 7.09053 21.3762 5.70318 20.0645 4.60563L19 6.08165C18.8016 6.35678 18.4908 6.50318 18.1755 6.50318C17.9697 6.50318 17.7621 6.44089 17.5823 6.31136C17.1273 5.98366 17.0245 5.34909 17.3525 4.89444L18.3934 3.45095C18.3196 3.40929 18.2453 3.36843 18.1703 3.32836C16.8616 2.62992 15.4546 2.21137 14.0206 2.07827V4.06687C14.0206 4.62745 13.566 5.0819 13.0052 5.0819C12.4442 5.0819 11.9895 4.62745 11.9895 4.06687V2.08065C11.2605 2.14988 10.5328 2.2925 9.81577 2.5103C8.9944 2.75985 8.2161 3.09945 7.49118 3.51899L8.55643 4.99601C8.88427 5.45066 8.78147 6.08522 8.32643 6.41292C8.14684 6.54245 7.93907 6.60474 7.73328 6.60474C7.41795 6.60474 7.10718 6.45835 6.90874 6.18322L5.83574 4.69529C4.82645 5.5665 3.9763 6.62577 3.32957 7.83698C3.19006 8.09803 3.06246 8.36304 2.94538 8.63123L4.53116 9.14043C5.06518 9.31182 5.35888 9.8835 5.18742 10.4173C5.0491 10.8478 4.65023 11.1223 4.22079 11.1223C4.1178 11.1223 4.01322 11.1066 3.91002 11.0735L2.30817 10.5591C1.95295 12.103 1.93966 13.708 2.27701 15.2806L4.01163 14.7236C4.54565 14.5522 5.11757 14.846 5.28902 15.3798C5.46048 15.9136 5.16678 16.4853 4.63276 16.6566L2.88069 17.2192C3.36529 18.3872 4.0406 19.4492 4.87765 20.3702C6.92322 18.7292 9.403 17.7516 12.0195 17.5548C12.0007 17.4777 11.9895 17.3973 11.9895 17.3142V9.14241C11.9895 8.58184 12.4442 8.12738 13.0052 8.12738C13.566 8.12738 14.0206 8.58184 14.0206 9.14241V17.3142C14.0206 17.3973 14.0097 17.4777 13.9909 17.5548C16.9318 17.776 19.7004 18.9831 21.8733 21.0105C22.2833 21.3932 22.3055 22.0355 21.9227 22.4455C21.8874 22.4832 21.8493 22.5167 21.8098 22.5479C21.7789 22.5856 21.7457 22.6219 21.7084 22.6556C20.2868 23.9374 18.6303 24.8717 16.7852 25.4323C15.5358 25.8118 14.2586 26 12.9885 26C10.8818 26 8.79457 25.4825 6.88354 24.4627C3.82052 22.8282 1.57749 20.0993 0.5678 16.7784C-0.18689 14.2963 -0.184707 11.7059 0.547161 9.2771C0.544582 9.16661 0.559068 9.05394 0.594788 8.94286C0.632295 8.82642 0.689447 8.72228 0.760491 8.63103C0.974812 8.03475 1.23398 7.44997 1.5378 6.88086C3.173 3.81891 5.90321 1.577 9.22539 0.567723C12.5474 -0.441554 16.0638 -0.0971935 19.127 1.53733ZM7.84004 22.6716C10.4246 24.0507 13.3916 24.3413 16.1946 23.4897C17.4422 23.1106 18.5869 22.5292 19.6091 21.7574C17.7139 20.3258 15.4084 19.5476 13.0054 19.5476C10.6028 19.5476 8.29766 20.3254 6.4027 21.7566C6.85357 22.0948 7.33341 22.4013 7.84004 22.6716Z" fill="#C9CFD1"/>
</svg>
