<svg width="26" height="25" viewBox="0 0 26 25" fill="none" xmlns="http://www.w3.org/2000/svg">
<path fill-rule="evenodd" clip-rule="evenodd" d="M25.2426 0.757371C25.6332 1.1479 25.6332 1.78106 25.2426 2.17158L22.4142 5.00001L25.2426 7.82844C25.6332 8.21896 25.6332 8.85213 25.2426 9.24265C24.8521 9.63318 24.219 9.63318 23.8284 9.24265L21 6.41422L18.1716 9.24265C17.781 9.63318 17.1479 9.63318 16.7574 9.24265C16.3668 8.85213 16.3668 8.21896 16.7574 7.82844L19.5858 5.00001L16.7574 2.17158C16.3668 1.78106 16.3668 1.1479 16.7574 0.757371C17.1479 0.366847 17.781 0.366847 18.1716 0.757371L21 3.5858L23.8284 0.757371C24.219 0.366846 24.8521 0.366847 25.2426 0.757371ZM25.6725 13.8275C25.4821 13.2999 24.8999 13.0267 24.3724 13.2169C23.8448 13.4076 23.5714 13.9896 23.7619 14.5172C23.8991 14.8975 23.9688 15.2978 23.9688 15.707V19.4141H20.784L17.5267 16.1567C17.3362 15.9663 17.078 15.8594 16.8086 15.8594H9.19141C8.92203 15.8594 8.66376 15.9663 8.47333 16.1567L5.21599 19.4141H2.03125V15.707C2.03125 13.7749 3.60309 12.2031 5.53516 12.2031H14.1172C14.6782 12.2031 15.1328 11.7485 15.1328 11.1875C15.1328 10.6265 14.6782 10.1718 14.1172 10.1718H5.53516C5.21043 10.1718 4.89246 10.2002 4.58281 10.2542L6.17686 7.09382C6.80469 5.85999 8.05478 5.09371 9.43916 5.09371H12.8512C13.4122 5.09371 13.8669 4.63906 13.8669 4.07808C13.8669 3.51711 13.4122 3.06246 12.8512 3.06246H9.43916C7.28651 3.06246 5.34274 4.25423 4.36481 6.17599L1.47881 11.898C1.46373 11.9278 1.45064 11.9577 1.43893 11.9881C0.545303 12.9714 0 14.2768 0 15.707V23.9844C0 24.5454 0.454651 25 1.01562 25H5.07812C5.6391 25 6.09375 24.5454 6.09375 23.9844V21.4453H19.9062V23.9844C19.9062 24.5454 20.3609 25 20.9219 25H24.9844C25.5453 25 26 24.5454 26 23.9844V15.707C26 15.0619 25.8897 14.4296 25.6725 13.8275ZM9.61214 17.8906H16.3879L17.9113 19.4141H8.0887L9.61214 17.8906ZM2.03125 22.9688H4.0625V21.4453H2.03125V22.9688ZM23.9688 22.9688H21.9375V21.4453H23.9688V22.9688ZM21.9375 15.8594C21.9375 15.2984 21.4828 14.8437 20.9219 14.8437C20.3609 14.8437 19.9062 15.2984 19.9062 15.8594C19.9062 16.4203 20.3609 16.875 20.9219 16.875C21.4828 16.875 21.9375 16.4203 21.9375 15.8594ZM5.07812 14.8437C5.6391 14.8437 6.09375 15.2984 6.09375 15.8594C6.09375 16.4203 5.6391 16.875 5.07812 16.875C4.51715 16.875 4.0625 16.4203 4.0625 15.8594C4.0625 15.2984 4.51715 14.8437 5.07812 14.8437Z" fill="#8C8C8C"/>
</svg>
