<svg width="24" height="28" viewBox="0 0 24 28" fill="none" xmlns="http://www.w3.org/2000/svg">
<path fill-rule="evenodd" clip-rule="evenodd" d="M19.9 1.20001L23.4 5.95C23.8 6.45001 24.0001 7.10002 24 7.74998V25C24 26.65 22.65 28 21 28H2.99999C1.35002 28 0 26.65 0 25V2.99999C0 1.35002 1.35002 0 3.00005 0H17.5C18.45 0 19.35 0.450023 19.9 1.20001ZM6.50005 22.5H17.5C18.35 22.5 19 21.85 19 21C19 20.15 18.35 19.5 17.5001 19.5H6.50005C5.65004 19.5 5.00003 20.15 5.00003 21C5.00003 21.85 5.65004 22.5 6.50005 22.5ZM17.5 17H6.50005C5.65004 17 5.00003 16.35 5.00003 15.5C5.00003 14.65 5.65004 14 6.50005 14H17.5001C18.35 14 19 14.65 19 15.5C19 16.35 18.35 17 17.5 17ZM6.50005 11.5H17.5C18.35 11.5 19.0001 10.85 19.0001 9.99999C19.0001 9.14998 18.3501 8.49997 17.5001 8.49997H6.50005C5.65004 8.49997 5.00003 9.14998 5.00003 9.99999C5.00003 10.85 5.65004 11.5 6.50005 11.5Z" fill="#D5D5D5"/>
</svg>
