<svg width="30" height="23" viewBox="0 0 30 23" fill="none" xmlns="http://www.w3.org/2000/svg">
<path fill-rule="evenodd" clip-rule="evenodd" d="M24.5 1.91421L22.9142 0.328427C22.4763 -0.109476 21.7663 -0.109476 21.3284 0.328427C20.8905 0.76633 20.8905 1.47631 21.3284 1.91421L22.9134 3.49921L21.3284 5.08579C20.8905 5.52369 20.8905 6.23367 21.3284 6.67157C21.7663 7.10948 22.4763 7.10948 22.9142 6.67157L24.5 5.08579L26.0858 6.67157C26.5237 7.10948 27.2337 7.10948 27.6716 6.67157C28.1095 6.23367 28.1095 5.52369 27.6716 5.08579L26.0858 3.5L27.6716 1.91421C28.1095 1.47631 28.1095 0.76633 27.6716 0.328427C27.2337 -0.109476 26.5237 -0.109476 26.0858 0.328427L24.5 1.91421ZM17.3077 3.79146C17.3077 3.21306 17.3771 2.65104 17.5088 2.11297C13.4142 1.73693 8.72245 2.29967 6.41484 3.80117C5.34713 4.4971 4.4123 6.34101 3.68795 8.21759H0.768268L0.653705 8.22606C0.465601 8.25408 0.293944 8.35042 0.172962 8.49793C0.0270166 8.6742 -0.0313617 8.90744 0.0162627 9.13156L0.448723 11.2042L0.481972 11.318C0.593047 11.6104 0.87777 11.8097 1.20073 11.8097H2.06565L1.88059 12.0338C1.17077 12.947 0.825464 14.0544 0.820501 15.1624C0.815124 16.6455 1.38431 17.9857 2.42514 18.9338L2.45894 18.9604V21.8604L2.46669 21.9931C2.53329 22.5591 3.02055 23 3.61114 23H6.30422L6.43853 22.9923C7.01135 22.9264 7.45643 22.4438 7.45643 21.8604V20.6949H22.5434V21.8604L22.5511 21.9931C22.6177 22.5591 23.105 23 23.6956 23H26.3887L26.5227 22.9923C27.0945 22.9264 27.5409 22.4438 27.5409 21.8604V19.0174L27.7541 18.8124C28.7135 17.8333 29.1736 16.5485 29.1801 15.2658C29.1847 14.0243 28.7614 12.7806 27.8773 11.8082H28.7999L28.9194 11.799C29.2317 11.7508 29.4877 11.5166 29.5519 11.2019L29.9851 9.13004L29.999 9.01827C30.0085 8.83169 29.9492 8.64608 29.8276 8.49793C29.7494 8.40359 29.6507 8.33017 29.5401 8.28405C28.2701 9.81679 26.363 10.7915 24.2308 10.7915C22.6836 10.7915 21.2549 10.2783 20.1022 9.41109L5.70124 9.40963L5.8138 9.10708C6.45453 7.41185 7.14021 6.05593 7.67996 5.70434C9.54691 4.48889 13.7552 4.04475 17.3312 4.37261C17.3156 4.18097 17.3077 3.98715 17.3077 3.79146ZM4 15.4996C4 14.1185 5.11996 13 6.5 13C7.88173 13 9 14.1185 9 15.4996C9 16.8807 7.88173 18 6.5 18C5.11996 18 4 16.8807 4 15.4996ZM23.5 13C22.12 13 21 14.1185 21 15.4996C21 16.8807 22.12 18 23.5 18C24.88 18 26 16.8807 26 15.4996C26 14.1185 24.8817 13 23.5 13Z" fill="#D5D5D5"/>
</svg>
