<svg width="30" height="24" viewBox="0 0 30 24" fill="none" xmlns="http://www.w3.org/2000/svg">
<path fill-rule="evenodd" clip-rule="evenodd" d="M1.81476 7.93242C4.43789 3.04504 9.49805 0.000799126 15.0001 0C20.5021 0.000857023 25.5622 3.04512 28.1853 7.93249C30.8084 12.8199 30.5735 18.7661 27.5734 23.4267C27.3427 23.7843 26.9489 23.9999 26.5265 24H3.47349C3.05109 23.9999 2.6573 23.7843 2.42661 23.4267C-0.57356 18.7661 -0.808374 12.8198 1.81476 7.93242ZM13.1375 19.681C14.9227 20.7226 17.2051 20.1128 18.2476 18.3158C19.2813 16.5065 18.7501 9.85784 18.7501 9.85784C18.7501 9.85784 12.7866 12.7165 11.7526 14.5263C10.7337 16.3372 11.3523 18.6395 13.1375 19.681ZM27.1328 20.2105H25.7674C26.3197 19.0143 26.6715 17.7337 26.8087 16.4211H25.0001V13.8947H26.8089C26.6788 12.6486 26.3549 11.431 25.8489 10.287L24.2854 11.1992L23.0354 9.01137L24.596 8.10079C23.8659 7.08962 22.9849 6.19908 21.9845 5.46095L21.0834 7.038L18.9184 5.77484L19.821 4.19495C18.6887 3.68354 17.4835 3.35614 16.2501 3.22484V5.05263H13.7501V3.22484C12.5169 3.35622 11.312 3.68362 10.1799 4.19495L11.0826 5.77484L8.91757 7.038L8.01647 5.46095C7.01577 6.19902 6.1345 7.08956 5.40412 8.10079L6.96475 9.01137L5.71475 11.1992L4.15131 10.287C3.6453 11.431 3.32131 12.6486 3.1913 13.8947H5.00006V16.4211H3.19146C3.32861 17.7337 3.68048 19.0143 4.23271 20.2105H2.86708C0.603021 14.6655 2.30369 8.27517 7.01468 4.62572C11.7257 0.976265 18.2742 0.976265 22.9852 4.62572C27.6962 8.27517 29.3968 14.6655 27.1328 20.2105ZM15.0001 17.6842C15.6904 17.6842 16.2501 17.1187 16.2501 16.4211C16.2501 15.7234 15.6904 15.1579 15.0001 15.1579C14.3097 15.1579 13.7501 15.7234 13.7501 16.4211C13.7501 17.1187 14.3097 17.6842 15.0001 17.6842Z" fill="#D5D5D5"/>
</svg>
