<svg width="22" height="22" viewBox="0 0 22 22" fill="none" xmlns="http://www.w3.org/2000/svg">
<path fill-rule="evenodd" clip-rule="evenodd" d="M13.3622 4.1812C13.3591 3.77763 13.6307 3.42488 14.0182 3.32943C16.1097 2.87706 16.3591 1.85303 16.5527 1.05817C16.6887 0.500036 16.7971 0.0548909 17.4965 0C17.9137 0.00495723 18.2671 0.312653 18.3343 0.729495C18.5915 2.32385 19.1777 2.90663 20.9479 3.32782C21.8254 3.54329 21.8249 4.80586 20.9479 5.02102C19.2046 5.43586 18.5938 6.0436 18.3338 7.62217C18.2649 8.04097 17.9072 8.34815 17.4878 8.34889C17.0685 8.34962 16.7097 8.04371 16.6393 7.62513C16.3741 6.04764 15.7403 5.41525 14.0311 5.0225C13.6423 4.93318 13.3652 4.58478 13.3622 4.1812ZM16.5026 4.16694C16.887 4.42689 17.2108 4.73707 17.4816 5.10916C17.6023 4.94223 17.7351 4.7872 17.8807 4.64275C18.051 4.47386 18.2393 4.3197 18.4484 4.17894C18.0538 3.91799 17.7301 3.60908 17.4674 3.24198C17.2055 3.60321 16.8871 3.90821 16.5026 4.16694ZM21.1406 17.2167H17.5865L14.8303 14.4274C14.6691 14.2644 14.4506 14.1728 14.2227 14.1728H7.77734C7.54941 14.1728 7.33087 14.2644 7.16957 14.4274L4.41353 17.2167H1.71875V14.4772C1.71875 12.8228 3.04877 11.4768 4.68359 11.4768H17.3164C18.8551 11.4768 20.1534 12.6909 20.2722 14.2409C20.3089 14.7198 20.7224 15.0768 21.1955 15.0408C21.6687 15.0036 22.0225 14.5852 21.9859 14.1064C21.8949 12.9196 21.3689 11.8182 20.5047 11.0051C19.6357 10.1877 18.5034 9.73741 17.3164 9.73741H4.68359C4.37022 9.73741 4.06407 9.769 3.76782 9.82862L5.23279 6.6546C5.76604 5.60537 6.82011 4.95412 7.98698 4.95412H10.4015C10.8761 4.95412 11.2608 4.5648 11.2608 4.08444C11.2608 3.60407 10.8761 3.21475 10.4015 3.21475H7.98698C6.16551 3.21475 4.52078 4.23527 3.69464 5.878C3.69028 5.88683 3.68608 5.89566 3.68205 5.9045L1.23988 11.1957C1.22125 11.2359 1.20715 11.2769 1.19507 11.3183C0.452347 12.1572 0 13.2647 0 14.4772V21.1303C0 21.6107 0.384705 22 0.859375 22H4.29688C4.77155 22 5.15625 21.6107 5.15625 21.1303V18.9561H16.8438V21.1303C16.8438 21.6107 17.2285 22 17.7031 22H21.1406C21.6153 22 22 21.6107 22 21.1303V18.0864C22 17.606 21.6153 17.2167 21.1406 17.2167ZM8.13335 15.9122H13.8667L15.1557 17.2167H6.84428L8.13335 15.9122ZM1.71875 20.2606H3.4375V18.9561H1.71875V20.2606ZM20.2812 20.2606H18.5625V18.9561H20.2812V20.2606ZM18.5625 14.1728C18.5625 13.6924 18.1778 13.3031 17.7031 13.3031C17.2285 13.3031 16.8438 13.6924 16.8438 14.1728C16.8438 14.6532 17.2285 15.0425 17.7031 15.0425C18.1778 15.0425 18.5625 14.6532 18.5625 14.1728ZM4.29688 13.3031C4.77155 13.3031 5.15625 13.6924 5.15625 14.1728C5.15625 14.6532 4.77155 15.0425 4.29688 15.0425C3.8222 15.0425 3.4375 14.6532 3.4375 14.1728C3.4375 13.6924 3.8222 13.3031 4.29688 13.3031Z" fill="white"/>
</svg>
