<svg width="22" height="17" viewBox="0 0 22 17" fill="none" xmlns="http://www.w3.org/2000/svg">
<path fill-rule="evenodd" clip-rule="evenodd" d="M17.8833 0C18.1617 0.00336463 18.3975 0.212208 18.4423 0.495133C18.6139 1.57728 19.005 1.97283 20.1861 2.2587C20.7715 2.40495 20.7712 3.2619 20.1861 3.40793C19.0229 3.6895 18.6154 4.10199 18.442 5.17342C18.396 5.45767 18.1574 5.66616 17.8776 5.66667C17.5978 5.66717 17.3584 5.45953 17.3114 5.17543C17.1345 4.10474 16.7116 3.67551 15.5713 3.40894C15.3119 3.34831 15.1271 3.11184 15.125 2.83792C15.123 2.564 15.3042 2.32458 15.5627 2.25979C16.9581 1.95275 17.1245 1.25772 17.2537 0.718218C17.3444 0.339391 17.4167 0.0372563 17.8833 0ZM12.8398 1.56176C12.7432 1.95947 12.6923 2.37487 12.6923 2.80238C12.6923 2.94703 12.6981 3.09028 12.7096 3.23193C10.0872 2.9896 7.00106 3.31787 5.63197 4.21625C5.26089 4.45988 4.79576 5.35595 4.35191 6.49944L4.18091 6.95494L14.7416 6.95602C15.5869 7.59699 16.6346 7.97629 17.7692 7.97629C19.3329 7.97629 20.7314 7.25589 21.6627 6.123C21.7439 6.15708 21.8162 6.21135 21.8736 6.28108C21.9628 6.39058 22.0062 6.52777 21.9993 6.66568L21.9891 6.74829L21.6714 8.27965C21.6243 8.51225 21.4366 8.68541 21.2075 8.72101L21.1199 8.72777H20.4434C21.0917 9.44655 21.4021 10.3658 21.3987 11.2834C21.394 12.2315 21.0566 13.1811 20.353 13.9048L20.1966 14.0563V16.1577C20.1966 16.5889 19.8693 16.9456 19.45 16.9943L19.3517 17H17.3768C16.9437 17 16.5863 16.6741 16.5375 16.2558L16.5318 16.1577V15.2962H5.46805V16.1577C5.46805 16.5889 5.14165 16.9456 4.72159 16.9943L4.6231 17H2.64817C2.21507 17 1.85774 16.6741 1.80891 16.2558L1.80322 16.1577V14.0142L1.77843 13.9946C1.01516 13.2938 0.597758 12.3032 0.601701 11.207C0.605341 10.388 0.858565 9.56949 1.3791 8.89455L1.51481 8.72889H0.880534C0.643698 8.72889 0.434901 8.58158 0.353446 8.36545L0.329064 8.28133L0.011926 6.74942C-0.0229986 6.58376 0.0198122 6.41136 0.126839 6.28108C0.215559 6.17205 0.341441 6.10084 0.479384 6.08013L0.563396 6.07387H2.7045C3.23569 4.68683 3.92123 3.32394 4.70421 2.80956C6.39647 1.69976 9.83705 1.28382 12.8398 1.56176ZM4.76667 9.6087C3.75464 9.6087 2.93333 10.4354 2.93333 11.4562C2.93333 12.477 3.75464 13.3043 4.76667 13.3043C5.77994 13.3043 6.6 12.477 6.6 11.4562C6.6 10.4354 5.77994 9.6087 4.76667 9.6087ZM15.4 11.4562C15.4 10.4354 16.2213 9.6087 17.2333 9.6087C18.2466 9.6087 19.0667 10.4354 19.0667 11.4562C19.0667 12.477 18.2454 13.3043 17.2333 13.3043C16.2213 13.3043 15.4 12.477 15.4 11.4562ZM17.2203 2.82824C17.4768 2.65263 17.6892 2.44562 17.8639 2.20044C18.0392 2.4496 18.2552 2.65927 18.5184 2.83639C18.3789 2.93193 18.2533 3.03655 18.1397 3.15119C18.0425 3.24923 17.9539 3.35445 17.8734 3.46776C17.6927 3.2152 17.4767 3.00468 17.2203 2.82824Z" fill="white"/>
</svg>
