<svg width="24" height="24" viewBox="0 0 24 24" fill="none" xmlns="http://www.w3.org/2000/svg">
<path fill-rule="evenodd" clip-rule="evenodd" d="M4.7998 7.2C4.7998 3.24 8.0398 0 11.9998 0C15.9598 0 19.1998 3.24 19.1998 7.2C19.1998 11.16 11.9998 20.4 11.9998 20.4C11.9998 20.4 4.7998 11.16 4.7998 7.2ZM9.5998 7.2C9.5998 8.52 10.6798 9.6 11.9998 9.6C13.3198 9.6 14.3998 8.52 14.3998 7.2C14.3998 5.88 13.3198 4.8 11.9998 4.8C10.6798 4.8 9.5998 5.88 9.5998 7.2Z" fill="#3E73CF"/>
<path opacity="0.5" d="M19.56 13.3202C19.2 14.0402 18.84 14.7602 18.36 15.4802C20.4 16.2002 21.6 17.1602 21.6 18.0002C21.6 19.4402 17.76 21.6002 12 21.6002C6.24 21.6002 2.4 19.4402 2.4 18.0002C2.4 17.1602 3.6 16.2002 5.64 15.3602C5.16 14.6402 4.8 13.9202 4.44 13.2002C1.68 14.4002 0 16.0802 0 18.0002C0 21.3602 5.04 24.0002 11.76 24.0002C17.76 24.0002 24 21.9602 24 18.0002C24 16.0802 22.32 14.4002 19.56 13.3202Z" fill="#3E73CF"/>
</svg>
