<svg width="40" height="46" viewBox="0 0 40 46" fill="none" xmlns="http://www.w3.org/2000/svg">
<path fill-rule="evenodd" clip-rule="evenodd" d="M38.6667 43.3483V22.3508C38.6667 20.7691 37.3733 19.483 35.7827 19.483H28V9.85206C28 9.73804 27.9747 8.30479 26.7213 7.46951C25.468 6.63555 24.1253 7.15793 24.0187 7.20036L4.452 15.2125C3.368 15.6566 2.66667 16.6961 2.66667 17.8642V43.3483H1.33333C0.597333 43.3483 0 43.9423 0 44.6742C0 45.406 0.597333 46 1.33333 46H4H26.6667H37.3333H38.6667C39.4027 46 40 45.406 40 44.6742C40 43.9423 39.4027 43.3483 38.6667 43.3483ZM5.33333 17.8642C5.33333 17.7767 5.38667 17.6984 5.468 17.6653L25.0347 9.65451C25.108 9.62534 25.1747 9.63197 25.2373 9.67439C25.3013 9.7155 25.3333 9.77516 25.3333 9.85206V20.8089V43.3483H5.33333V17.8642ZM28 22.1347V43.3483H36V22.3508C36 22.2315 35.9027 22.1347 35.7827 22.1347H28Z" fill="#1886C4"/>
<path opacity="0.5" fill-rule="evenodd" clip-rule="evenodd" d="M12.0003 20.8088H18.667C19.403 20.8088 20.0003 21.4028 20.0003 22.1347C20.0003 22.8666 19.403 23.4605 18.667 23.4605H12.0003C11.2643 23.4605 10.667 22.8666 10.667 22.1347C10.667 21.4028 11.2643 20.8088 12.0003 20.8088ZM18.667 26.1122H12.0003C11.2643 26.1122 10.667 26.7062 10.667 27.4381C10.667 28.17 11.2643 28.7639 12.0003 28.7639H18.667C19.403 28.7639 20.0003 28.17 20.0003 27.4381C20.0003 26.7062 19.403 26.1122 18.667 26.1122ZM12.0003 31.4156H18.667C19.403 31.4156 20.0003 32.0096 20.0003 32.7415C20.0003 33.4733 19.403 34.0673 18.667 34.0673H12.0003C11.2643 34.0673 10.667 33.4733 10.667 32.7415C10.667 32.0096 11.2643 31.4156 12.0003 31.4156ZM12.0003 36.719H18.667C19.403 36.719 20.0003 37.313 20.0003 38.0449C20.0003 38.7767 19.403 39.3707 18.667 39.3707H12.0003C11.2643 39.3707 10.667 38.7767 10.667 38.0449C10.667 37.313 11.2643 36.719 12.0003 36.719Z" fill="#1886C4"/>
<circle cx="26" cy="10" r="10" fill="#FFDA44"/>
<path d="M16 10C16 4.47719 20.4772 0 26 0C31.5228 0 36 4.47719 36 10" fill="#338AF3"/>
</svg>
