<svg width="40" height="39" viewBox="0 0 40 39" fill="none" xmlns="http://www.w3.org/2000/svg">
<path fill-rule="evenodd" clip-rule="evenodd" d="M38.6667 36.3483V15.3508C38.6667 13.7691 37.3733 12.483 35.7827 12.483H28V2.85206C28 2.73804 27.9747 1.30479 26.7213 0.469508C25.468 -0.364451 24.1253 0.157934 24.0187 0.200361L4.452 8.21247C3.368 8.65662 2.66667 9.69609 2.66667 10.8642V36.3483H1.33333C0.597333 36.3483 0 36.9423 0 37.6742C0 38.406 0.597333 39 1.33333 39H4H26.6667H37.3333H38.6667C39.4027 39 40 38.406 40 37.6742C40 36.9423 39.4027 36.3483 38.6667 36.3483ZM5.33333 10.8642C5.33333 10.7767 5.38667 10.6984 5.468 10.6653L25.0347 2.65451C25.108 2.62534 25.1747 2.63197 25.2373 2.67439C25.3013 2.7155 25.3333 2.77516 25.3333 2.85206V13.8089V36.3483H5.33333V10.8642ZM28 15.1347V36.3483H36V15.3508C36 15.2315 35.9027 15.1347 35.7827 15.1347H28Z" fill="#1886C4"/>
<path opacity="0.5" fill-rule="evenodd" clip-rule="evenodd" d="M12.0003 13.8088H18.667C19.403 13.8088 20.0003 14.4028 20.0003 15.1347C20.0003 15.8666 19.403 16.4605 18.667 16.4605H12.0003C11.2643 16.4605 10.667 15.8666 10.667 15.1347C10.667 14.4028 11.2643 13.8088 12.0003 13.8088ZM18.667 19.1122H12.0003C11.2643 19.1122 10.667 19.7062 10.667 20.4381C10.667 21.17 11.2643 21.7639 12.0003 21.7639H18.667C19.403 21.7639 20.0003 21.17 20.0003 20.4381C20.0003 19.7062 19.403 19.1122 18.667 19.1122ZM12.0003 24.4156H18.667C19.403 24.4156 20.0003 25.0096 20.0003 25.7415C20.0003 26.4733 19.403 27.0673 18.667 27.0673H12.0003C11.2643 27.0673 10.667 26.4733 10.667 25.7415C10.667 25.0096 11.2643 24.4156 12.0003 24.4156ZM12.0003 29.719H18.667C19.403 29.719 20.0003 30.313 20.0003 31.0449C20.0003 31.7767 19.403 32.3707 18.667 32.3707H12.0003C11.2643 32.3707 10.667 31.7767 10.667 31.0449C10.667 30.313 11.2643 29.719 12.0003 29.719Z" fill="#1886C4"/>
</svg>
