<svg width="26" height="26" viewBox="0 0 26 26" fill="none" xmlns="http://www.w3.org/2000/svg">
<path d="M25.4528 8.96441C25.4193 8.84771 25.3641 8.73513 25.2865 8.6325C25.229 8.55653 25.1629 8.49092 25.0906 8.43603C24.8952 8.19401 24.6713 7.97361 24.4222 7.78095L15.23 0.67596C15.2028 0.654835 15.1744 0.635183 15.1452 0.616953C13.8219 -0.205651 12.1779 -0.205651 10.8547 0.616953C10.8255 0.635132 10.7971 0.654835 10.7699 0.67596L1.57779 7.78095C0.589824 8.5446 0 9.74588 0 10.9944V21.9382C5.079e-05 24.1779 1.82245 25.9999 4.06254 25.9999H16.5547C17.1156 25.9999 17.5703 25.5454 17.5703 24.9845C17.5703 24.4236 17.1157 23.969 16.5547 23.969H4.06254C2.94252 23.969 2.03129 23.0579 2.03129 21.9381V10.9944C2.03129 10.3702 2.32623 9.76954 2.82017 9.38767L11.9673 2.31741C12.6085 1.93833 13.3915 1.93833 14.0327 2.31741L22.8954 9.16773L14.0368 15.868C13.3929 16.2508 12.6049 16.2504 11.9611 15.8669L5.9407 11.36C5.49172 11.0238 4.85517 11.1153 4.51899 11.5642C4.18281 12.0132 4.27428 12.6495 4.72327 12.9857L10.7823 17.5214C10.8057 17.5389 10.8298 17.5554 10.8546 17.5709C11.5163 17.9823 12.2581 18.1879 12.9999 18.1879C13.7417 18.1879 14.4835 17.9822 15.1452 17.5709C15.1714 17.5545 15.1969 17.537 15.2216 17.5184L23.9666 10.904C23.9679 10.9341 23.9687 10.9642 23.9687 10.9944V13.1038C23.9687 13.6646 24.4233 14.1192 24.9843 14.1192C25.5453 14.1192 25.9999 13.6647 25.9999 13.1038V10.9944C26 10.2775 25.8054 9.57622 25.4528 8.96441Z" fill="#1886C4"/>
<path opacity="0.5" d="M25.702 19.4585L22.703 16.4655C22.113 15.8755 21.1528 15.8755 20.5632 16.4649L17.5637 19.4585C17.1668 19.8548 17.1662 20.4976 17.5625 20.8945C17.9588 21.2915 18.6018 21.2921 18.9988 20.8958L20.6172 19.2806V24.9846C20.6172 25.5454 21.0719 26.0001 21.6328 26.0001C22.1938 26.0001 22.6485 25.5455 22.6485 24.9846V19.2806L24.2669 20.8958C24.4651 21.0937 24.7248 21.1926 24.9844 21.1926C25.2446 21.1926 25.5049 21.0932 25.7032 20.8945C26.0995 20.4976 26.0989 19.8547 25.702 19.4585Z" fill="#1886C4"/>
</svg>
