<svg width="25" height="24" viewBox="0 0 25 24" fill="none" xmlns="http://www.w3.org/2000/svg">
<path d="M23.9513 19.5275L21.4772 23.2621C21.1431 23.755 20.5729 24.0344 19.9784 23.9966C19.036 23.9531 18.0991 23.8294 17.1777 23.627C13.594 22.6957 9.88531 20.4444 6.72913 17.2762C3.57294 14.108 1.31028 10.4166 0.378318 6.8356C0.174008 5.91509 0.0486515 4.97884 0.0036111 4.03704C-0.035456 3.44403 0.244631 2.87513 0.738614 2.54415L4.47127 0.0576118C4.5281 0.0195962 4.59505 -0.000473253 4.66343 8.47306e-06H4.75471C4.85039 0.0249288 4.93082 0.0895751 4.97569 0.177619L8.05021 6.11556C8.12912 6.26762 8.08645 6.4544 7.94933 6.55719L6.63785 7.51724C5.71748 8.20145 5.45349 9.46475 6.02295 10.4598C6.9121 12.0128 8.01135 13.4359 9.28963 14.6889C10.5434 15.9662 11.9676 17.0647 13.5219 17.953C14.5177 18.5221 15.782 18.2583 16.4667 17.3386L17.4275 16.0233C17.5304 15.8863 17.7173 15.8437 17.8695 15.9225L23.8119 18.9947C23.8999 19.0407 23.9642 19.1218 23.9889 19.2179C24.0137 19.314 23.9965 19.416 23.9416 19.4987L23.9513 19.5275Z" fill="#3E73CF"/>
<path opacity="0.5" d="M24.6977 8.00157L19.5191 2.78413C19.223 2.48505 18.7771 2.39534 18.3897 2.55691C18.0022 2.71847 17.7497 3.09944 17.7501 3.52188V5.60885H11.5357C10.9637 5.60885 10.5 6.07604 10.5 6.65234V10.8263C10.5 11.4026 10.9637 11.8698 11.5357 11.8698H17.7501V13.9567C17.7501 14.3787 18.0025 14.7591 18.3895 14.9206C18.7764 15.0821 19.2218 14.9928 19.518 14.6945L24.6966 9.47706C25.101 9.06958 25.101 8.40905 24.6966 8.00157H24.6977Z" fill="#3E73CF"/>
</svg>
