<svg width="29" height="24" viewBox="0 0 29 24" fill="none" xmlns="http://www.w3.org/2000/svg">
<path fill-rule="evenodd" clip-rule="evenodd" d="M3.10717 0C2.64722 0.00285724 2.19379 0.109843 1.78041 0.313046L11.7264 9.43103C12.1271 9.79226 12.7333 9.79226 13.134 9.43103L23.0769 0.313046C22.6635 0.109843 22.2101 0.00285724 21.7502 0H3.10717ZM19.6787 12.5218H19.6684L16.2608 9.39034L24.5466 1.78645C24.7493 2.20517 24.8555 2.6646 24.8573 3.13046V10.2011C23.9475 9.37378 22.6393 9.16399 21.5194 9.66584C20.3996 10.1677 19.6782 11.287 19.6787 12.5218ZM0.310717 1.78645C0.108033 2.20517 0.00181876 2.6646 0 3.13046V15.6523C0.00181876 16.1182 0.108033 16.5776 0.310717 16.9963L8.60374 9.39138L0.310717 1.78645ZM14.5229 10.9775L14.7155 10.8001L16.5923 12.5218H15.5358C13.8198 12.5218 12.4287 13.9234 12.4287 15.6523V18.7828H3.10717C2.64727 18.7794 2.19395 18.6724 1.78041 18.4697L10.1418 10.7959L10.3386 10.9775C11.528 12.0558 13.3334 12.0558 14.5229 10.9775Z" fill="#3E73CF"/>
<path opacity="0.5" d="M28.6977 17.0016L23.5191 11.7841C23.223 11.485 22.7771 11.3953 22.3897 11.5569C22.0022 11.7185 21.7497 12.0994 21.7501 12.5219V14.6089H15.5357C14.9637 14.6089 14.5 15.076 14.5 15.6523V19.8263C14.5 20.4026 14.9637 20.8698 15.5357 20.8698H21.7501V22.9567C21.7501 23.3787 22.0025 23.7591 22.3895 23.9206C22.7764 24.0821 23.2218 23.9928 23.518 23.6945L28.6966 18.4771C29.101 18.0696 29.101 17.409 28.6966 17.0016H28.6977Z" fill="#3E73CF"/>
</svg>
