<svg width="20" height="17" viewBox="0 0 20 17" fill="none" xmlns="http://www.w3.org/2000/svg">
<path d="M9.6724 12.069L9.41674 10.6816L8.01025 10.9345L8.26556 12.3218L9.6724 12.069Z" fill="white"/>
<path d="M13.8915 11.3107C13.9845 11.2944 14.0671 11.242 14.1211 11.1652C14.1751 11.0884 14.196 10.9934 14.1793 10.9013L14.0515 10.2064C14.0199 10.0384 13.872 9.91667 13.6998 9.917C13.6782 9.91689 13.6567 9.91891 13.6355 9.92302L12.229 10.1755L12.4847 11.5632L13.8915 11.3107Z" fill="white"/>
<path d="M17.0695 10.7896C17.3427 10.7426 17.5338 10.4954 17.5087 10.2215C17.4836 9.94756 17.2507 9.73862 16.9734 9.74124C16.9411 9.74128 16.9088 9.74413 16.877 9.74974C16.7371 9.77459 16.6129 9.85358 16.5317 9.96933C16.4508 10.0842 16.4198 10.2265 16.4457 10.3642C16.4997 10.6524 16.7788 10.8428 17.0695 10.7896Z" fill="white"/>
<path fill-rule="evenodd" clip-rule="evenodd" d="M13.9929 5.11789L16.3624 4.68226L17.6243 7.30316C12.0594 7.6483 6.5545 8.63956 1.22241 10.2566L1.94262 2.46476C1.95534 2.30208 2.07632 2.16801 2.23791 2.1375L13.8226 0.00570799C13.9824 -0.0231447 14.1415 0.0594801 14.2086 0.206172L14.5699 0.956318L12.3225 2.82212C12.2763 2.86064 12.2208 2.88674 12.1615 2.89791L10.5861 3.18763C10.4041 3.22032 10.2774 3.38544 10.2941 3.56814C10.3108 3.75085 10.4654 3.89066 10.6504 3.89032C10.6723 3.89033 10.6942 3.88844 10.7157 3.88465L12.2918 3.59458C12.472 3.56097 12.6404 3.48207 12.781 3.36543L14.8877 1.61757L16.0457 4.0203L13.864 4.42123C13.7205 4.44787 13.584 4.50345 13.463 4.5845L11.3145 6.02104C11.1509 6.13029 11.1075 6.35046 11.2176 6.51282C11.3277 6.67517 11.5497 6.71822 11.7134 6.60898L13.8615 5.17137C13.9011 5.14464 13.9458 5.12643 13.9929 5.11789ZM8.51099 5.38557C8.59932 5.35162 8.67043 5.28426 8.70867 5.19829C8.78747 5.02036 8.707 4.81269 8.52835 4.7329L7.51857 4.29195C7.30127 4.19649 7.05016 4.21565 6.85014 4.34296L5.83036 4.98968L5.58827 3.62539L6.3531 3.20038C6.52526 3.10483 6.58673 2.88893 6.4904 2.71817C6.39406 2.54741 6.17641 2.48644 6.00425 2.58199L5.23977 3.007C4.97103 3.15678 4.82765 3.45914 4.8827 3.75998L5.09409 4.93585L4.30283 4.53563C4.09203 4.42907 3.8415 4.43398 3.63511 4.54873L2.8085 5.00704C2.69714 5.06879 2.62744 5.18478 2.62567 5.31132C2.6239 5.43786 2.69032 5.55572 2.79992 5.62051C2.90951 5.6853 3.04563 5.68718 3.157 5.62543L3.97825 5.165L4.81343 5.58718L3.54549 6.29093C3.37909 6.38259 3.25647 6.53635 3.20485 6.71806L2.79886 8.12556C2.77266 8.21597 2.78379 8.31301 2.82981 8.39527C2.87583 8.47753 2.95296 8.53825 3.04417 8.56403C3.07615 8.57284 3.10917 8.57737 3.14236 8.57749C3.30169 8.57742 3.44169 8.47266 3.4855 8.32071L3.89363 6.90932L5.40081 6.07169L5.79358 6.94651C5.86579 7.10855 5.99628 7.23811 6.15957 7.30989L7.21542 7.77032C7.33264 7.82421 7.47006 7.81109 7.57476 7.73601C7.67946 7.66093 7.73511 7.53561 7.72027 7.40831C7.70543 7.281 7.62243 7.17158 7.50321 7.12218L6.44594 6.65856L6.01996 5.70689L7.22756 4.93797L8.2377 5.37928C8.32435 5.41725 8.42266 5.41951 8.51099 5.38557Z" fill="white"/>
<path d="M6.15705 12.7007L7.56283 12.4482L7.30752 11.0605L5.90032 11.3134C5.80691 11.3301 5.72404 11.383 5.67001 11.4604C5.61623 11.5366 5.59564 11.6311 5.61288 11.7225L5.74071 12.4174C5.77682 12.6097 5.96321 12.7365 6.15705 12.7007Z" fill="white"/>
<path d="M11.782 11.6896L11.5264 10.3022L10.1199 10.5551L10.3752 11.9424L11.782 11.6896Z" fill="white"/>
<path fill-rule="evenodd" clip-rule="evenodd" d="M1.18452 15.2053L0.663558 15.3006L0.00798356 11.705C-0.029278 11.5326 0.0669047 11.3593 0.23365 11.2984C6.21958 9.36797 12.4388 8.23996 18.7261 7.94434C18.9023 7.94397 19.0523 8.07104 19.0796 8.24362L19.7373 11.841L2.59493 14.9535C2.41392 14.987 2.2883 15.1516 2.30485 15.3335C2.32141 15.5154 2.47471 15.655 2.65885 15.6558C2.68052 15.6559 2.70215 15.654 2.72348 15.6502L19.8627 12.538L19.9919 13.2407C20.0329 13.428 19.9138 13.6129 19.7252 13.6547L1.31485 16.9953C1.23021 17.0095 1.14334 16.9903 1.07276 16.9418C0.991526 16.8858 0.936249 16.7998 0.919218 16.7031L0.790674 15.9983L1.31449 15.9027C1.50864 15.8671 1.63693 15.6821 1.60104 15.4895C1.56515 15.297 1.37866 15.1697 1.18452 15.2053ZM17.3958 9.0983C16.8618 8.90967 16.2667 9.10111 15.946 9.5647L15.9453 9.5654C15.7553 9.83445 15.6822 10.1678 15.7421 10.4909C15.8512 11.0794 16.3686 11.5066 16.9719 11.5063C17.0469 11.5061 17.1218 11.4995 17.1957 11.4865C17.7538 11.3878 18.175 10.929 18.2219 10.3687C18.2688 9.8084 17.9297 9.28694 17.3958 9.0983ZM5.08262 11.0576C5.2441 10.825 5.49263 10.6663 5.77283 10.6166L13.508 9.2261C14.0891 9.12253 14.6455 9.50361 14.7538 10.0793L14.8816 10.7742C14.932 11.0511 14.8695 11.3366 14.7077 11.5677C14.5459 11.7989 14.2981 11.9568 14.0189 12.0067L6.28593 13.3983C6.22276 13.4095 6.15872 13.4152 6.09454 13.4153C5.57749 13.4149 5.13417 13.049 5.03977 12.5447L4.91194 11.8498C4.85986 11.5737 4.92132 11.2884 5.08262 11.0576ZM3.09883 11.7367C2.5646 11.5488 1.96981 11.7411 1.64978 12.2051C1.46076 12.4741 1.38824 12.807 1.44839 13.1295C1.57419 13.8017 2.22406 14.2467 2.90237 14.1251C3.46022 14.0256 3.88073 13.5662 3.92683 13.0058C3.97292 12.4455 3.63305 11.9245 3.09883 11.7367Z" fill="white"/>
<path d="M16.3674 16.71C16.3847 16.803 16.4388 16.8853 16.5176 16.9385C16.5964 16.9917 16.6934 17.0115 16.787 16.9934L18.8937 16.6148C19.0855 16.5789 19.2128 16.3968 19.1793 16.206L18.8687 14.5276L16.0571 15.038L16.3674 16.71Z" fill="white"/>
<path d="M2.77522 13.4275C2.91463 13.403 3.03847 13.3245 3.1194 13.2092C3.20033 13.094 3.23169 12.9516 3.20656 12.8134C3.15939 12.5615 2.93777 12.3789 2.67953 12.3792C2.64718 12.3791 2.61491 12.3821 2.58312 12.388C2.39591 12.4222 2.2413 12.5528 2.17753 12.7307C2.11376 12.9086 2.15051 13.1067 2.27394 13.2505C2.39737 13.3942 2.58873 13.4617 2.77594 13.4275H2.77522Z" fill="white"/>
</svg>
