<svg width="35" height="36" viewBox="0 0 35 36" fill="none" xmlns="http://www.w3.org/2000/svg">
<path fill-rule="evenodd" clip-rule="evenodd" d="M31.9375 35.9776C31.7931 35.9899 31.6479 36 31.5 36H5.25C2.35506 36 0 33.6368 0 30.7318V0.878626C0 0.55507 0.177625 0.257417 0.462438 0.1042C0.745937 -0.0490172 1.09156 -0.0323346 1.36063 0.148102L3.5 1.57974L5.63981 0.148102C5.93381 -0.0481392 6.31662 -0.0481392 6.61062 0.148102L8.75 1.57974L10.8898 0.148102C11.1838 -0.0481392 11.5666 -0.0481392 11.8606 0.148102L14 1.57974L16.1398 0.148102C16.4338 -0.0481392 16.8166 -0.0481392 17.1106 0.148102L19.25 1.57974L21.3898 0.148102C21.6838 -0.0481392 22.0666 -0.0481392 22.3606 0.148102L24.5 1.57974L26.6398 0.148102C26.908 -0.0310175 27.2541 -0.0485782 27.538 0.1042C27.8224 0.257417 28 0.55507 28 0.878626V31.6098C28 33.8822 29.7299 35.7568 31.9375 35.9776ZM29.75 31.5181V19.3173C29.75 18.8322 30.1416 18.4393 30.625 18.4393H34.125C34.6084 18.4393 35 18.8322 35 19.3173V31.6098C35 33.1762 33.6306 34.4279 32.0298 34.2215C30.7064 34.0512 29.75 32.8566 29.75 31.5181ZM7.875 14.4882C6.42731 14.4882 5.25 13.3068 5.25 11.8541C5.25 10.4013 6.42731 9.21995 7.875 9.21995V7.9029C7.875 7.41823 8.267 7.02487 8.75 7.02487C9.233 7.02487 9.625 7.41823 9.625 7.9029V9.21995H10.9375C11.4205 9.21995 11.8125 9.61331 11.8125 10.098C11.8125 10.5827 11.4205 10.976 10.9375 10.976H7.875C7.39244 10.976 7 11.3698 7 11.8541C7 12.3383 7.39244 12.7321 7.875 12.7321H9.625C11.0727 12.7321 12.25 13.9135 12.25 15.3662C12.25 16.8189 11.0727 18.0003 9.625 18.0003V19.3173C9.625 19.802 9.233 20.1954 8.75 20.1954C8.267 20.1954 7.875 19.802 7.875 19.3173V18.0003H6.5625C6.0795 18.0003 5.6875 17.6069 5.6875 17.1223C5.6875 16.6376 6.0795 16.2442 6.5625 16.2442H9.625C10.1076 16.2442 10.5 15.8504 10.5 15.3662C10.5 14.882 10.1076 14.4882 9.625 14.4882H7.875ZM22.75 29.8538C22.75 29.3691 22.358 28.9757 21.875 28.9757H6.125C5.642 28.9757 5.25 29.3691 5.25 29.8538C5.25 30.3384 5.642 30.7318 6.125 30.7318H21.875C22.358 30.7318 22.75 30.3384 22.75 29.8538ZM21.875 25.4636C22.358 25.4636 22.75 25.8569 22.75 26.3416C22.75 26.8263 22.358 27.2197 21.875 27.2197H6.125C5.642 27.2197 5.25 26.8263 5.25 26.3416C5.25 25.8569 5.642 25.4636 6.125 25.4636H21.875ZM22.75 22.8295C22.75 22.3448 22.358 21.9515 21.875 21.9515H6.125C5.642 21.9515 5.25 22.3448 5.25 22.8295C5.25 23.3142 5.642 23.7075 6.125 23.7075H21.875C22.358 23.7075 22.75 23.3142 22.75 22.8295ZM21.875 16.2442C22.358 16.2442 22.75 16.6376 22.75 17.1223C22.75 17.6069 22.358 18.0003 21.875 18.0003H16.1875C15.7045 18.0003 15.3125 17.6069 15.3125 17.1223C15.3125 16.6376 15.7045 16.2442 16.1875 16.2442H21.875ZM22.75 13.6101C22.75 13.1254 22.358 12.7321 21.875 12.7321H16.1875C15.7045 12.7321 15.3125 13.1254 15.3125 13.6101C15.3125 14.0948 15.7045 14.4882 16.1875 14.4882H21.875C22.358 14.4882 22.75 14.0948 22.75 13.6101ZM21.875 9.21995C22.358 9.21995 22.75 9.61331 22.75 10.098C22.75 10.5827 22.358 10.976 21.875 10.976H16.1875C15.7045 10.976 15.3125 10.5827 15.3125 10.098C15.3125 9.61331 15.7045 9.21995 16.1875 9.21995H21.875Z" fill="#3E73CF"/>
</svg>
