<svg width="20" height="30" viewBox="0 0 20 30" fill="none" xmlns="http://www.w3.org/2000/svg">
<path fill-rule="evenodd" clip-rule="evenodd" d="M19.0211 19.2383C19.5548 19.2503 19.9843 19.671 19.9974 20.1932C20.0603 22.8489 18.9772 25.3063 17.0911 27.1536C15.1187 29.0593 12.6178 30.0411 10.0067 29.9975C10.0051 29.9975 10.0037 29.9978 10.0022 29.998C10.0015 29.9981 10.0007 29.9981 10 29.9981C9.99821 29.9981 9.99659 29.9976 9.99479 29.9976C9.99232 29.9976 9.99001 29.9976 9.98772 29.9977C9.98514 29.9978 9.98258 29.9978 9.97982 29.9978C9.91143 29.9994 9.84317 30 9.7761 30C7.32931 30 4.85917 29.0385 2.91397 27.1581C0.964814 25.2502 -0.0587177 22.7748 0.00260321 20.1932C0.015598 19.671 0.445144 19.2503 0.978887 19.2382C3.72437 19.1659 6.23811 20.2686 8.09223 22.0814C8.42806 22.414 8.7252 22.7584 9.00018 23.1119V19.5144C3.95516 19.022 0.00260321 14.8456 0.00260321 9.78199C0.00260321 4.3882 4.48705 0 9.99994 0C15.5128 0 19.9973 4.3882 19.9973 9.78199C19.9973 14.8456 16.0381 19.022 10.9931 19.5144V23.1115C11.267 22.7592 11.5691 22.4164 11.9025 22.0863C13.8548 20.1781 16.3905 19.1744 19.0211 19.2383ZM8.99366 15.6512C8.99366 16.1915 9.44817 16.6294 10.0001 16.6294C10.5519 16.6294 10.9998 16.1916 10.9998 15.6513V14.9819C12.161 14.5768 12.9993 13.5011 12.9993 12.2275C12.9993 10.681 11.6591 9.74156 10.5826 8.98693C9.80484 8.44178 9.00036 7.87787 9.00036 7.33652C9.00036 6.79711 9.44889 6.3583 10.0001 6.3583C10.5514 6.3583 10.9999 6.79717 10.9999 7.33652C10.9999 7.87687 11.4477 8.31475 11.9996 8.31475C12.5516 8.31475 12.9994 7.87687 12.9994 7.33652C12.9994 6.06287 12.1611 4.98727 10.9999 4.58215V3.91277C10.9999 3.37236 10.5521 2.93455 10.0002 2.93455C9.44823 2.93455 8.99378 3.37242 8.99378 3.91277V4.58209C7.83263 4.98721 7.00097 6.06293 7.00097 7.33646C7.00097 8.88299 8.3411 9.82242 9.41763 10.5771C10.1954 11.1222 10.9999 11.6861 10.9999 12.2275C10.9999 12.7669 10.5514 13.2057 10.0001 13.2057C9.44883 13.2057 9.00036 12.7668 9.00036 12.2275C9.00036 11.6871 8.55249 11.2492 8.00061 11.2492C7.44866 11.2492 7.00085 11.6871 7.00085 12.2275C7.00085 13.5011 7.83251 14.5767 8.99366 14.9818V15.6512Z" fill="#3E73CF"/>
</svg>
