<svg width="38" height="30" viewBox="0 0 38 30" fill="none" xmlns="http://www.w3.org/2000/svg">
<path fill-rule="evenodd" clip-rule="evenodd" d="M22.1778 3.89121C22.011 4.5638 21.9231 5.26632 21.9231 5.98932C21.9231 6.23394 21.9331 6.47622 21.9529 6.71576C17.4233 6.30594 12.0927 6.86111 9.72794 8.38043C9.04427 8.81992 8.17574 10.5148 7.36415 12.6339L7.22157 13.012L25.4628 13.0139C26.9229 14.0979 28.7325 14.7393 30.6923 14.7393C33.3932 14.7393 35.8088 13.521 37.4175 11.6051C37.5576 11.6627 37.6826 11.7545 37.7817 11.8724C37.9357 12.0576 38.0107 12.2896 37.9988 12.5228L37.9811 12.6626L37.4324 15.2523C37.3511 15.6457 37.0268 15.9386 36.6312 15.9988L36.4798 16.0102H35.3113C36.4312 17.2258 36.9673 18.7804 36.9614 20.3322C36.9533 21.9357 36.3704 23.5416 35.1552 24.7655L34.8851 25.0218V28.5755C34.8851 29.3048 34.3197 29.9079 33.5954 29.9904L33.4257 30H30.0144C29.2663 30 28.6491 29.4489 28.5648 28.7414L28.555 28.5755V27.1187H9.44481V28.5755C9.44481 29.3048 8.88104 29.9079 8.15548 29.9904L7.98535 30H4.57411C3.82603 30 3.20883 29.4489 3.12448 28.7414L3.11465 28.5755V24.9505L3.07184 24.9173C1.75346 23.7321 1.03249 22.0568 1.0393 20.2031C1.04559 18.818 1.48298 17.4337 2.38208 16.2923L2.61649 16.0121H1.52092C1.11184 16.0121 0.751193 15.763 0.610498 15.3975L0.568383 15.2552L0.0205994 12.6645C-0.0397248 12.3843 0.0342211 12.0927 0.219086 11.8724C0.372329 11.688 0.589761 11.5676 0.828027 11.5326L0.973139 11.522H4.67141L4.96989 10.7842C5.84007 8.70692 6.91539 6.77981 8.12546 6.00147C11.0484 4.12459 16.9913 3.42117 22.1778 3.89121ZM8.23333 17.5C6.48528 17.5 5.06667 18.8981 5.06667 20.6245C5.06667 22.3509 6.48528 23.75 8.23333 23.75C9.98353 23.75 11.4 22.3509 11.4 20.6245C11.4 18.8981 9.98353 17.5 8.23333 17.5ZM26.6 20.6245C26.6 18.8981 28.0186 17.5 29.7667 17.5C31.5169 17.5 32.9333 18.8981 32.9333 20.6245C32.9333 22.3509 31.5147 23.75 29.7667 23.75C28.0186 23.75 26.6 22.3509 26.6 20.6245Z" fill="#3E73CF"/>
<path opacity="0.5" d="M36.7173 4.40435L33.0661 6.06354L31.4068 9.71231C31.325 9.89232 31.143 10.0056 30.9453 9.99978C30.7476 9.99392 30.5727 9.87001 30.5017 9.68547L27.0302 0.664277C26.9639 0.483509 27.0087 0.280727 27.145 0.144641C27.2812 0.00855595 27.4841 -0.03606 27.6649 0.0303117L36.6904 3.49988C36.8725 3.57314 36.994 3.74721 36.9998 3.94334C37.0056 4.13946 36.8947 4.32042 36.7173 4.40435Z" fill="#1886C4"/>
</svg>
