<svg width="26" height="26" viewBox="0 0 26 26" fill="none" xmlns="http://www.w3.org/2000/svg">
<path opacity="0.5" fill-rule="evenodd" clip-rule="evenodd" d="M9.27736 2.61475C9.38126 2.61475 9.48668 2.59903 9.59058 2.56499C10.1233 2.39184 10.4147 1.81903 10.2418 1.2853C10.0685 0.75212 9.49684 0.460117 8.96465 0.633263C8.43201 0.80641 8.14057 1.37922 8.31338 1.91296C8.45278 2.34208 8.85009 2.61475 9.27736 2.61475ZM5.945 4.31899C6.15178 4.31899 6.36059 4.25549 6.54102 4.12448H6.54051C6.99363 3.79441 7.09347 3.15912 6.764 2.70567C6.43458 2.25218 5.80053 2.15215 5.34797 2.48226C4.89535 2.81232 4.79552 3.4471 5.12499 3.90106C5.32313 4.17424 5.63178 4.31899 5.945 4.31899ZM3.29737 6.96976C3.09008 6.96976 2.88127 6.90677 2.70135 6.77524C2.24874 6.44518 2.14891 5.80994 2.47837 5.35644C2.80779 4.903 3.44179 4.80297 3.89441 5.13303C4.34697 5.46309 4.4468 6.09833 4.11739 6.55183C3.91924 6.82506 3.61059 6.96976 3.29737 6.96976ZM1.59702 10.3086C1.49312 10.3086 1.3877 10.2924 1.2838 10.2584C0.751104 10.0852 0.459671 9.51236 0.633038 8.97867C0.805897 8.44544 1.3781 8.15349 1.91023 8.32664C2.44293 8.50034 2.7338 9.0731 2.56099 9.60684C2.4216 10.036 2.02429 10.3086 1.59702 10.3086ZM0.044078 13.2951C0.0344296 13.2631 0.0263554 13.2311 0.0197539 13.1986C0.0132031 13.1661 0.00812498 13.1331 0.00507811 13.1001C0.00152343 13.0671 0 13.0331 0 13.0001C0 12.967 0.00152343 12.9336 0.00507811 12.9C0.0080742 12.8675 0.0131523 12.834 0.0197539 12.8015C0.0263554 12.7696 0.0344296 12.7371 0.044078 12.7051C0.0537264 12.6736 0.0648983 12.6421 0.0775428 12.6116C0.0901873 12.5812 0.104406 12.5507 0.120097 12.5217C0.135281 12.4928 0.152547 12.4638 0.170777 12.4364C0.189058 12.4085 0.208812 12.3816 0.230089 12.3562C0.250859 12.3303 0.27366 12.3054 0.296968 12.282C0.320277 12.2587 0.345109 12.2358 0.370956 12.215C0.396296 12.1937 0.423159 12.1739 0.451038 12.1556C0.478409 12.1373 0.507304 12.12 0.536198 12.1048C0.565093 12.0891 0.59551 12.0749 0.625928 12.0622C0.656296 12.0495 0.687729 12.0383 0.719163 12.0286C0.751053 12.019 0.783502 12.0109 0.815444 12.0043C0.847893 11.9977 0.881307 11.9926 0.913756 11.9896C0.980127 11.983 1.04706 11.983 1.11343 11.9896C1.14588 11.9926 1.17929 11.9977 1.21174 12.0043C1.24414 12.0109 1.27608 12.019 1.30802 12.0286C1.3394 12.0383 1.37084 12.0495 1.40125 12.0622C1.43167 12.0748 1.46209 12.0891 1.49099 12.1048C1.52039 12.12 1.54877 12.1373 1.57615 12.1556C1.60402 12.1739 1.63089 12.1937 1.65623 12.215C1.68207 12.2358 1.70691 12.2587 1.73022 12.282C1.75352 12.3054 1.77632 12.3303 1.79709 12.3562C1.81786 12.3816 1.83818 12.4085 1.85641 12.4364C1.87464 12.4638 1.8919 12.4928 1.90709 12.5217C1.92278 12.5507 1.93695 12.5812 1.94964 12.6116C1.96234 12.6421 1.97346 12.6736 1.98311 12.7051C1.99275 12.737 2.00083 12.7695 2.00743 12.8015C2.01398 12.834 2.01906 12.8675 2.02211 12.9C2.02566 12.9336 2.02718 12.967 2.02718 13.0001C2.02718 13.0331 2.02566 13.0671 2.02211 13.1001C2.01911 13.1331 2.01403 13.1661 2.00743 13.1986C2.00083 13.2311 1.99275 13.2631 1.98311 13.2951C1.97346 13.3265 1.96228 13.358 1.94964 13.3885C1.937 13.419 1.92278 13.4494 1.90709 13.4784C1.8919 13.5073 1.87464 13.5363 1.85641 13.5637C1.83812 13.5916 1.81786 13.6186 1.79709 13.6439C1.77632 13.6698 1.75352 13.6947 1.73022 13.7181C1.70691 13.7414 1.68207 13.7643 1.65623 13.7851C1.63089 13.8059 1.60402 13.8263 1.57615 13.8445C1.54877 13.8628 1.52039 13.8801 1.49099 13.8953C1.46209 13.911 1.43167 13.9252 1.40125 13.9379C1.37089 13.9507 1.33945 13.9618 1.30802 13.9715C1.27613 13.9811 1.24419 13.9893 1.21174 13.9958C1.17929 14.0024 1.14588 14.0075 1.11343 14.0105C1.07996 14.0141 1.04655 14.0156 1.01359 14.0156C0.980635 14.0156 0.947221 14.0141 0.913756 14.0105C0.881307 14.0075 0.847893 14.0025 0.815444 13.9958C0.783553 13.9892 0.751104 13.9811 0.719163 13.9715C0.68778 13.9618 0.656346 13.9507 0.625928 13.9379C0.59551 13.9253 0.565093 13.911 0.536198 13.8953C0.507304 13.8801 0.478409 13.8628 0.451038 13.8445C0.423159 13.8262 0.396296 13.8059 0.370956 13.7851C0.345109 13.7643 0.320277 13.7414 0.296968 13.7181C0.27366 13.6947 0.250859 13.6698 0.230089 13.6439C0.208812 13.6186 0.189007 13.5916 0.170777 13.5637C0.152547 13.5363 0.135281 13.5073 0.120097 13.4784C0.104406 13.4494 0.0902381 13.4189 0.0775428 13.3885C0.0648475 13.3581 0.0537264 13.3266 0.044078 13.2951ZM23.4389 16.3932C23.6118 15.86 24.184 15.568 24.7161 15.7412C25.2488 15.9148 25.5402 16.4877 25.3669 17.0214C25.228 17.4505 24.8307 17.7232 24.4034 17.7232C24.2995 17.7232 24.1936 17.707 24.0897 17.6734C23.557 17.4997 23.2661 16.927 23.4389 16.3932ZM23.2985 19.2248C22.8459 18.8947 22.2119 18.9947 21.8825 19.4482C21.5531 19.9017 21.6529 20.5369 22.1055 20.867C22.2854 20.998 22.4942 21.0615 22.701 21.0615C23.0142 21.0615 23.3229 20.9163 23.5215 20.6436C23.851 20.1901 23.7512 19.5548 23.2985 19.2248ZM25.9558 12.705C25.9655 12.737 25.9735 12.7695 25.9801 12.8015C25.9867 12.834 25.9918 12.8675 25.9948 12.9C25.9984 12.9335 25.9999 12.967 25.9999 13C25.9999 13.033 25.9984 13.0665 25.9948 13.1C25.9918 13.1325 25.9867 13.166 25.9801 13.1985C25.9735 13.2305 25.9655 13.263 25.9558 13.295C25.9462 13.3265 25.935 13.358 25.9224 13.3884C25.9097 13.4189 25.8955 13.4494 25.8798 13.4783C25.8646 13.5073 25.8473 13.5362 25.8291 13.5637C25.8108 13.5916 25.7906 13.6185 25.7698 13.6439C25.749 13.6698 25.7262 13.6947 25.7029 13.718C25.6796 13.7414 25.6548 13.7642 25.6289 13.785C25.6036 13.8059 25.5767 13.8262 25.5489 13.8445C25.5215 13.8627 25.4926 13.88 25.4637 13.8952C25.4348 13.911 25.4043 13.9252 25.374 13.9379C25.3436 13.9506 25.3122 13.9617 25.2807 13.9714C25.2488 13.9811 25.2164 13.9892 25.1845 13.9958C25.152 14.0024 25.1186 14.0074 25.0861 14.0105C25.0527 14.0141 25.0193 14.0156 24.9863 14.0156C24.9533 14.0156 24.9199 14.0141 24.8865 14.0105C24.854 14.0075 24.8206 14.0024 24.7882 13.9958C24.7563 13.9892 24.7238 13.9811 24.6919 13.9714C24.6605 13.9617 24.6291 13.9506 24.5986 13.9379C24.5682 13.9252 24.5378 13.911 24.5089 13.8952C24.48 13.88 24.4511 13.8627 24.4237 13.8445C24.3959 13.8262 24.369 13.8059 24.3437 13.785C24.3178 13.7642 24.293 13.7414 24.2697 13.718C24.2464 13.6947 24.2236 13.6698 24.2028 13.6439C24.182 13.6185 24.1617 13.5916 24.1435 13.5637C24.1253 13.5362 24.108 13.5073 24.0928 13.4783C24.0771 13.4494 24.063 13.4189 24.0503 13.3884C24.0376 13.358 24.0264 13.3265 24.0168 13.295C24.0071 13.263 23.9991 13.2305 23.9925 13.1985C23.9859 13.166 23.9808 13.1325 23.9778 13.1C23.9742 13.0665 23.9727 13.033 23.9727 13C23.9727 12.967 23.9742 12.9335 23.9778 12.9C23.9808 12.8675 23.9859 12.834 23.9925 12.8015C23.9991 12.7695 24.0071 12.737 24.0168 12.705C24.0264 12.6736 24.0376 12.6421 24.0503 12.6116C24.0629 12.5811 24.0771 12.5506 24.0928 12.5217C24.108 12.4922 24.1253 12.4638 24.1435 12.4364C24.1618 12.4084 24.182 12.3815 24.2028 12.3561C24.2236 12.3302 24.2464 12.3053 24.2697 12.282C24.293 12.2586 24.3178 12.2358 24.3437 12.215C24.369 12.1937 24.3959 12.1738 24.4237 12.1555C24.4511 12.1373 24.48 12.12 24.5089 12.1048C24.5378 12.089 24.5683 12.0748 24.5986 12.0621C24.629 12.0494 24.6604 12.0383 24.6919 12.0286C24.7238 12.0189 24.7562 12.0108 24.7882 12.0042C24.8206 11.9977 24.854 11.9926 24.8865 11.9895C24.9528 11.9829 25.0198 11.9829 25.0861 11.9895C25.1186 11.9925 25.152 11.9976 25.1845 12.0042C25.2163 12.0108 25.2488 12.0189 25.2807 12.0286C25.3121 12.0383 25.3435 12.0495 25.374 12.0621C25.4044 12.0748 25.4348 12.089 25.4637 12.1048C25.4926 12.12 25.5215 12.1373 25.5489 12.1555C25.5767 12.1739 25.6036 12.1937 25.6289 12.215C25.6548 12.2358 25.6796 12.2586 25.7029 12.282C25.7262 12.3053 25.749 12.3302 25.7698 12.3561C25.7906 12.3815 25.8109 12.4084 25.8291 12.4364C25.8473 12.4638 25.8646 12.4922 25.8798 12.5217C25.8955 12.5506 25.9097 12.5812 25.9224 12.6116C25.935 12.642 25.9462 12.6735 25.9558 12.705ZM19.4594 21.8755C19.0063 22.2056 18.9064 22.8409 19.2359 23.2943C19.4346 23.5676 19.7432 23.7123 20.0564 23.7123C20.2632 23.7123 20.472 23.6493 20.6519 23.5178C21.1045 23.1877 21.2044 22.5524 20.8754 22.099C20.546 21.6455 19.9119 21.5455 19.4594 21.8755ZM15.758 24.7147C15.5852 24.181 15.8766 23.6082 16.4093 23.435C16.9415 23.2619 17.5137 23.5539 17.6865 24.0871C17.8593 24.6208 17.5679 25.1936 17.0352 25.3667C16.9313 25.4008 16.8259 25.417 16.722 25.417C16.2948 25.4165 15.8974 25.1438 15.758 24.7147Z" fill="#1886C4"/>
<path d="M8.972 10.1083V10.2969C8.972 12.2634 10.5596 13.8633 12.5111 13.8633H13.7877C14.6256 13.8633 15.3072 14.5441 15.3072 15.3809V16.044C15.3072 16.8857 14.6256 17.5703 13.7877 17.5703H11.7129C11.1337 17.5703 10.6445 17.0587 10.6445 16.4531C10.6445 15.8922 10.1906 15.4375 9.63083 15.4375C9.07102 15.4375 8.61719 15.8922 8.61719 16.4531C8.61719 18.1892 10.006 19.6016 11.7129 19.6016H11.9622V20.668C11.9622 21.2289 12.416 21.6836 12.9758 21.6836C13.5356 21.6836 13.9895 21.2289 13.9895 20.668V19.5954C15.8516 19.4901 17.3345 17.9377 17.3345 16.044V15.3809C17.3345 13.4241 15.7434 11.832 13.7877 11.832H12.511C11.6774 11.832 10.9992 11.1434 10.9992 10.297V10.1084C10.9992 9.26672 11.6774 8.58207 12.511 8.58207H13.7183C14.315 8.58207 14.8004 9.06045 14.8004 9.64847C14.8004 10.2094 15.2542 10.6641 15.814 10.6641C16.3739 10.6641 16.8277 10.2094 16.8277 9.64847C16.8277 8.03149 15.5774 6.70077 13.9895 6.56334V5.38281C13.9895 4.82191 13.5356 4.36719 12.9758 4.36719C12.416 4.36719 11.9622 4.82191 11.9622 5.38281V6.59371C10.2705 6.85962 8.972 8.33433 8.972 10.1083Z" fill="#1886C4"/>
<path d="M14.0341 24.8864C14.0335 24.8807 14.0327 24.8751 14.0321 24.8695C14.0292 24.8436 14.0253 24.8175 14.0202 24.7917C13.9987 24.6793 13.9583 24.5738 13.903 24.4778C13.8942 24.4623 13.885 24.4471 13.8753 24.4321C13.8689 24.4222 13.8624 24.4125 13.8557 24.4028C13.8426 24.3839 13.8288 24.3655 13.8147 24.3479C13.8095 24.3414 13.8042 24.335 13.7989 24.3288C13.7826 24.3093 13.7654 24.2903 13.7477 24.2723C13.7438 24.2684 13.74 24.2645 13.736 24.2606C13.7181 24.2429 13.6993 24.2257 13.6799 24.2094C13.6733 24.2039 13.6667 24.1984 13.6601 24.193C13.6426 24.1789 13.6244 24.1653 13.6057 24.1523C13.5962 24.1456 13.5866 24.1392 13.5769 24.1329C13.5617 24.1231 13.5463 24.1137 13.5305 24.1047C13.4351 24.0495 13.3302 24.0093 13.2185 23.9877C13.1923 23.9825 13.1656 23.9785 13.1393 23.9756C13.1018 23.9713 13.0639 23.9687 13.0253 23.9687C9.19182 23.9687 5.6348 21.931 3.66505 18.691L5.98205 18.6875C6.54186 18.6866 6.99498 18.2313 6.99416 17.6703C6.9933 17.11 6.53962 16.6562 5.98052 16.6562C5.98001 16.6562 5.97946 16.6562 5.97895 16.6562L3.01384 16.6608C3.01054 16.6608 3.00724 16.6608 3.00394 16.6608C2.20195 16.6608 1.45084 16.971 0.887834 17.5351C0.311925 18.1121 -0.00337509 18.8867 2.72503e-05 19.7121V22.6484C2.72503e-05 23.2093 0.453858 23.664 1.01367 23.664C1.57348 23.664 2.02731 23.2093 2.02731 22.6484V19.9009C3.03024 21.504 4.3734 22.8738 5.9726 23.9133C8.07225 25.2781 10.5105 25.9996 13.0237 25.9999C13.0242 25.9999 13.0248 26 13.0253 26C13.0582 26 13.0915 25.9985 13.1249 25.9949C13.1294 25.9944 13.1339 25.9937 13.1384 25.9932C13.1653 25.9903 13.1927 25.9861 13.2195 25.9808C13.3306 25.9592 13.4349 25.9191 13.5299 25.8643C13.5462 25.8549 13.5623 25.8452 13.578 25.8349C13.5871 25.829 13.5961 25.8229 13.605 25.8167C13.6244 25.8033 13.6433 25.7891 13.6614 25.7745C13.6674 25.7697 13.6732 25.7648 13.679 25.7599C13.699 25.7432 13.7182 25.7256 13.7366 25.7075C13.7401 25.704 13.7437 25.7004 13.7472 25.6968C13.7652 25.6785 13.7827 25.6592 13.7993 25.6393C13.8043 25.6333 13.8094 25.6274 13.8142 25.6212C13.8286 25.6033 13.8426 25.5846 13.8559 25.5654C13.8621 25.5565 13.8682 25.5476 13.874 25.5385C13.8846 25.5223 13.8946 25.5057 13.9041 25.4888C13.9587 25.3935 13.9986 25.2888 14.02 25.1772C14.0252 25.1513 14.0291 25.1251 14.032 25.0988C14.0326 25.0933 14.0334 25.0878 14.034 25.0823C14.0373 25.0502 14.0388 25.0172 14.0388 24.9852C14.0388 24.9849 14.0389 24.9846 14.0389 24.9843C14.0389 24.984 14.0388 24.9836 14.0388 24.9833C14.0389 24.9513 14.0374 24.9189 14.0341 24.8864Z" fill="#1886C4"/>
<path d="M24.9863 2.33592C24.4265 2.33592 23.9727 2.79064 23.9727 3.35154V6.09904C22.9697 4.49585 21.6266 3.12614 20.0274 2.08661C17.9273 0.721535 15.4885 0 12.9746 0C12.9362 0 12.8985 0.0025949 12.8611 0.0067671C12.8342 0.00971816 12.8069 0.0138395 12.7801 0.0191819C12.6692 0.0408061 12.5651 0.080849 12.4704 0.135495C12.4535 0.145111 12.4369 0.155134 12.4207 0.165718C12.3861 0.18841 12.3529 0.213036 12.3214 0.239749C12.301 0.256793 12.2812 0.274856 12.2624 0.293427C12.2595 0.296328 12.2566 0.299177 12.2538 0.302077C12.2353 0.320852 12.2172 0.340644 12.2002 0.361149C12.1955 0.366746 12.1908 0.372343 12.1863 0.377991C12.1714 0.396409 12.1571 0.415693 12.1434 0.435435C12.1376 0.443779 12.1319 0.452123 12.1264 0.460671C12.1158 0.476902 12.1058 0.493591 12.0962 0.510432C12.0416 0.605579 12.0016 0.710138 11.98 0.821515C11.9749 0.847668 11.9711 0.874278 11.968 0.900533C11.9674 0.905672 11.9666 0.910658 11.9661 0.915746C11.9625 0.949327 11.9609 0.982755 11.9609 1.01568C11.9609 1.04859 11.9625 1.08202 11.966 1.11545C11.9665 1.12064 11.9673 1.12573 11.9679 1.13087C11.971 1.15707 11.9748 1.18358 11.9799 1.20958C12.0015 1.32106 12.0415 1.42572 12.0962 1.52097C12.1058 1.53781 12.1157 1.55445 12.1263 1.57063C12.1319 1.57923 12.1376 1.58762 12.1434 1.59602C12.1569 1.61556 12.1711 1.63464 12.1858 1.6529C12.1906 1.65891 12.1955 1.66481 12.2004 1.67061C12.2172 1.69076 12.235 1.71024 12.2532 1.72882C12.2564 1.73202 12.2596 1.73523 12.2628 1.73843C12.2814 1.75685 12.301 1.77471 12.3212 1.7916C12.3269 1.79633 12.3325 1.80107 12.3381 1.80564C12.3564 1.82045 12.3755 1.8347 12.3951 1.84828C12.4039 1.85444 12.4127 1.86039 12.4217 1.86619C12.4374 1.87647 12.4536 1.88624 12.47 1.8956C12.5651 1.95055 12.6697 1.9907 12.7812 2.01232C12.8076 2.01756 12.8344 2.02158 12.8609 2.02453C12.8659 2.02509 12.8709 2.02586 12.8759 2.02631C12.909 2.02977 12.942 2.0313 12.9746 2.0313C16.8081 2.0313 20.3651 4.06901 22.3348 7.30902L20.0179 7.31253C19.4581 7.3134 19.0049 7.76873 19.0058 8.32969C19.0066 8.89008 19.4603 9.34378 20.0194 9.34378C20.0199 9.34378 20.0205 9.34378 20.021 9.34378L22.9861 9.33931C22.9894 9.33931 22.9926 9.33931 22.9959 9.33931C23.798 9.33931 24.5491 9.02904 25.1121 8.46498C25.688 7.88794 26.0033 7.11329 25.9999 6.28796V3.35154C25.9999 2.79064 25.5462 2.33592 24.9863 2.33592Z" fill="#1886C4"/>
</svg>
