<svg width="19" height="30" viewBox="0 0 19 30" fill="none" xmlns="http://www.w3.org/2000/svg">
<path fill-rule="evenodd" clip-rule="evenodd" d="M9.5 19.1445C4.26173 19.1445 0 14.8055 0 9.54331C0 4.28116 4.26173 0 9.5 0C14.7383 0 19 4.28116 19 9.54331C19 14.8055 14.7383 19.1445 9.5 19.1445ZM10.3636 5.62251V4.33787C10.3636 3.85844 9.97725 3.47029 9.5 3.47029C9.02275 3.47029 8.63636 3.85844 8.63636 4.33787V5.61664C7.62856 5.97338 6.89987 6.92929 6.89987 8.06233C6.89987 9.49767 8.06196 10.6651 9.49078 10.6651C9.96713 10.6651 10.3544 11.0539 10.3544 11.5326C10.3544 12.0114 9.96713 12.4002 9.49078 12.4002C9.0142 12.4002 8.62714 12.0114 8.62714 11.5326C8.62714 11.0532 8.24076 10.6651 7.76351 10.6651C7.28603 10.6651 6.89987 11.0532 6.89987 11.5326C6.89987 12.6657 7.62856 13.6218 8.63636 13.9783V14.7487C8.63636 15.2282 9.02275 15.6163 9.5 15.6163C9.97725 15.6163 10.3636 15.2282 10.3636 14.7487V13.9727C11.362 13.6107 12.0817 12.6587 12.0817 11.5326C12.0817 10.0975 10.9194 8.92991 9.49078 8.92991C9.0142 8.92991 8.62714 8.54108 8.62714 8.06233C8.62714 7.58359 9.0142 7.19476 9.49078 7.19476C9.96713 7.19476 10.3544 7.58359 10.3544 8.06233C10.3544 8.54198 10.7406 8.92991 11.2181 8.92991C11.6953 8.92991 12.0817 8.54198 12.0817 8.06233C12.0817 6.9363 11.362 5.98422 10.3636 5.62251Z" fill="#3E73CF"/>
<path opacity="0.5" d="M9.49979 30C9.27871 30 9.05785 29.9153 8.88917 29.7458L5.43485 26.2755C5.18768 26.0272 5.11346 25.6545 5.24773 25.33C5.38088 25.0056 5.69642 24.7946 6.04547 24.7946H7.77252V21.1187C8.33703 21.2068 8.91099 21.2664 9.49979 21.2664C10.0886 21.2664 10.6626 21.2068 11.2271 21.1187V24.7946H12.9541C13.3032 24.7946 13.6187 25.0056 13.7519 25.33C13.8861 25.6545 13.8119 26.0272 13.5647 26.2755L10.1104 29.7458C9.94173 29.9153 9.72087 30 9.49979 30V30Z" fill="#3E73CF"/>
</svg>
