<svg width="27" height="30" viewBox="0 0 27 30" fill="none" xmlns="http://www.w3.org/2000/svg">
<path d="M11.6995 0.857102C11.6223 0.675979 11.7195 0.461632 11.9056 0.403758C15.7084 -0.765505 15.9938 1.02001 19.6328 0.593456C19.821 0.570949 19.9573 0.786368 19.8379 0.936411C19.3274 1.57624 18.9923 2.35217 18.8549 3.21599H12.8716C12.5947 2.32431 11.9944 1.54623 11.6995 0.857102Z" fill="#3E73CF"/>
<path opacity="0.5" fill-rule="evenodd" clip-rule="evenodd" d="M12.8473 4.82373H18.9448C19.2411 5.54259 19.9395 6.26359 20.7183 7.06753C22.1398 8.53493 23.8289 10.2786 23.8289 12.7899C23.8289 13.0353 23.804 13.2707 23.7791 13.5065C23.7745 13.5498 23.7699 13.5932 23.7655 13.6366C23.5541 13.7684 23.3533 13.9163 23.1736 14.0985L20.8758 16.4242C20.3347 15.2431 19.116 14.4683 17.7515 14.4683H11.2936C10.1691 14.4683 9.17342 14.629 8.28771 14.9484C8.08266 14.2732 7.97485 13.5509 7.97485 12.791C7.97485 10.2512 9.70245 8.45591 11.1337 6.96852C11.8828 6.19012 12.5507 5.49604 12.8473 4.82373ZM13.2595 10.1824C13.2595 11.6625 14.4423 12.8617 15.9019 12.8617C17.3615 12.8617 18.5442 11.6625 18.5442 10.1824C18.5442 8.70234 17.3615 7.50307 15.9019 7.50307C14.4423 7.50307 13.2595 8.70234 13.2595 10.1824Z" fill="#3E73CF"/>
<path d="M26.5357 17.5099L20.5852 23.5384C19.8855 24.2479 18.9638 24.6852 17.9788 24.7763L9.78751 25.3936L5.38748 29.8434C5.18137 30.0524 4.84632 30.0524 4.64022 29.8434L0.154577 25.295C-0.0515257 25.086 -0.0515257 24.7463 0.154577 24.5373L6.96548 17.6428C7.95583 16.6396 9.29814 16.077 11.2926 16.077H17.7494C18.5072 16.077 19.2408 16.5185 19.4944 17.243C19.8612 18.2912 19.1721 19.2954 18.1933 19.4058L13.7087 20.1721C12.6698 20.35 12.9308 21.9351 13.9719 21.7561L18.3677 21.0027C19.7164 20.8516 20.8484 19.8281 21.1179 18.4487L24.2919 15.2357C24.9112 14.6076 25.9153 14.6076 26.5336 15.2357C27.1551 15.8637 27.1551 16.8819 26.5357 17.5099Z" fill="#3E73CF"/>
</svg>
