<svg width="23" height="19" viewBox="0 0 23 19" fill="none" xmlns="http://www.w3.org/2000/svg">
<path fill-rule="evenodd" clip-rule="evenodd" d="M16.4986 3.94672L16.1625 3.61714C16.0012 3.45899 15.7826 3.37029 15.5547 3.37029H11.9453V1.68514H14.0938C14.5684 1.68514 14.9531 1.30796 14.9531 0.842572C14.9531 0.377183 14.5684 0 14.0938 0H8.07812C7.60345 0 7.21875 0.377183 7.21875 0.842572C7.21875 1.30796 7.60345 1.68514 8.07812 1.68514H10.2266V3.37029H6.53125C6.30331 3.37029 6.08478 3.45899 5.92348 3.61714L3.73207 5.76569C3.57094 5.92368 3.48047 6.13794 3.48047 6.36142V9.77384H1.71875V7.70953C1.71875 7.24414 1.33405 6.86696 0.859375 6.86696C0.384705 6.86696 0 7.24414 0 7.70953V13.5654C0 13.7011 0.0326952 13.8293 0.090783 13.9428L1.71875 12.951V11.459H3.48047V11.8777L5.19922 10.8306V6.71046L6.88725 5.05543H14.6787L16.4986 3.94672ZM6.99318 15.7537L5.49207 16.6682L6.7001 17.8397C7.47186 18.5879 8.49455 19 9.57985 19H17.7031C18.1778 19 18.5625 18.6228 18.5625 18.1574V16.5565C18.5625 16.0912 18.1778 15.714 17.7031 15.714C17.2285 15.714 16.8438 16.0912 16.8438 16.5565V17.3149H9.57985C8.95009 17.3149 8.35658 17.0757 7.90877 16.6415L6.99318 15.7537ZM17.1429 9.57022L19.5747 8.08869H20.2812V7.65824L21.815 6.72382C21.9309 6.86739 22 7.04883 22 7.24612V14.8714C22 15.3368 21.6153 15.714 21.1406 15.714C20.666 15.714 20.2812 15.3368 20.2812 14.8714V14.0288H17.7031C17.2285 14.0288 16.8438 13.6516 16.8438 13.1863C16.8438 12.7209 17.2285 12.3437 17.7031 12.3437H20.2812V9.77384H17.7031C17.4891 9.77384 17.2933 9.69713 17.1429 9.57022Z" fill="white"/>
<path fill-rule="evenodd" clip-rule="evenodd" d="M21.3713 2.9883C21.7653 2.74826 22.2805 2.86929 22.5295 3.25774C22.7866 3.65891 22.665 4.19569 22.2581 4.4436L1.62847 17.0117C1.23445 17.2517 0.719248 17.1307 0.470285 16.7422C0.213164 16.3411 0.334781 15.8043 0.74171 15.5564L21.3713 2.9883Z" fill="white"/>
</svg>
