<svg width="42" height="40" viewBox="0 0 42 40" fill="none" xmlns="http://www.w3.org/2000/svg">
<path fill-rule="evenodd" clip-rule="evenodd" d="M7.08179 20C7.08179 12.4123 13.3254 6.2392 20.9999 6.2392C28.6744 6.2392 34.9181 12.4123 34.9181 20C34.9181 27.5877 28.6744 33.7608 20.9999 33.7608C13.3254 33.7608 7.08179 27.5877 7.08179 20ZM22.1555 16.4516C21.7688 16.4516 21.4552 16.7616 21.4552 17.144V22.856C21.4552 23.2384 21.7688 23.5484 22.1555 23.5484H25.6219C26.0086 23.5484 26.3222 23.2384 26.3222 22.856C26.3222 22.4737 26.0086 22.1636 25.6219 22.1636H22.8558V20.6924H24.4664C24.8532 20.6924 25.1667 20.3824 25.1667 20C25.1667 19.6176 24.8532 19.3076 24.4664 19.3076H22.8558V17.8364H25.6219C26.0086 17.8364 26.3222 17.5263 26.3222 17.144C26.3222 16.7616 26.0086 16.4516 25.6219 16.4516H22.1555ZM15.6779 17.144C15.6779 16.7616 15.9914 16.4516 16.3782 16.4516H18.4002C19.5827 16.4516 20.5448 17.4028 20.5448 18.572C20.5448 19.445 20.0084 20.1965 19.2443 20.5212L20.4451 22.4998C20.7268 22.964 20.3833 23.5485 19.8453 23.5485C19.6073 23.5485 19.3754 23.4286 19.2441 23.2122L17.5109 20.3562C17.2312 19.8955 17.5678 19.3076 18.1114 19.3076H18.4002C18.8105 19.3076 19.1443 18.9776 19.1443 18.572C19.1443 18.1663 18.8105 17.8364 18.4002 17.8364H17.0784V22.856C17.0784 23.2384 16.7649 23.5484 16.3782 23.5484C15.9914 23.5484 15.6779 23.2384 15.6779 22.856V17.144ZM11.301 17.8364H14.0671C14.4539 17.8364 14.7674 17.5263 14.7674 17.144C14.7674 16.7616 14.4539 16.4516 14.0671 16.4516H10.6007C10.214 16.4516 9.90043 16.7616 9.90043 17.144V22.856C9.90043 23.2384 10.214 23.5484 10.6007 23.5484C10.9874 23.5484 11.301 23.2384 11.301 22.856V20.6924H13.4894C13.8761 20.6924 14.1897 20.3824 14.1897 20C14.1897 19.6176 13.8761 19.3076 13.4894 19.3076H11.301V17.8364ZM15.7478 27.9622C15.3611 27.9622 15.0475 27.6522 15.0475 27.2699C15.0475 26.8875 15.3611 26.5775 15.7478 26.5775H26.2521C26.6388 26.5775 26.9524 26.8875 26.9524 27.2699C26.9524 27.6522 26.6389 27.9622 26.2521 27.9622H15.7478ZM31.3992 17.8364C31.7859 17.8364 32.0995 17.5263 32.0995 17.144C32.0995 16.7615 31.786 16.4516 31.3992 16.4516H27.9328C27.546 16.4516 27.2325 16.7616 27.2325 17.144V22.856C27.2325 23.2384 27.546 23.5484 27.9328 23.5484H31.3992C31.7859 23.5484 32.0995 23.2384 32.0995 22.856C32.0995 22.4737 31.7859 22.1636 31.3992 22.1636H28.633V20.6924H30.2437C30.6304 20.6924 30.944 20.3824 30.944 20C30.944 19.6176 30.6304 19.3076 30.2437 19.3076H28.633V17.8364H31.3992Z" fill="#3E73CF"/>
<path opacity="0.5" fill-rule="evenodd" clip-rule="evenodd" d="M30.0625 2.08493C28.703 0.252708 26.2241 -0.485685 24.0576 0.329844L22.3402 0.977207L22.0491 1.07363C21.2656 1.2986 20.4278 1.26646 19.6598 0.977207L17.9424 0.329844L17.6811 0.23941C15.4926 -0.452542 13.0475 0.391025 11.7799 2.31001L10.775 3.83149L10.6154 4.05457C10.1139 4.70418 9.41029 5.17425 8.60672 5.38845L6.83237 5.86359L6.57688 5.93916C4.38938 6.64842 2.90822 8.75413 3.0237 11.0468L3.11561 12.8617L3.11913 13.1349C3.09945 13.9519 2.80906 14.7409 2.28752 15.3819L1.1338 16.7969L0.959652 17.0235C-0.375516 18.8667 -0.317465 21.4217 1.1338 23.2031L2.28752 24.6181L2.45832 24.8453C2.88898 25.466 3.11999 26.2001 3.11999 26.954L3.11917 27.0441L3.0237 28.9532C2.90377 31.3341 4.50567 33.5133 6.83237 34.1364L8.60672 34.6115L8.87073 34.6923C9.65083 34.9624 10.3196 35.4799 10.775 36.1685L11.7799 37.69L11.9584 37.943C12.9473 39.257 14.5152 40 16.1234 40C17.1694 40 18.0063 39.6652 18.8057 39.3454C19.906 38.9053 20.9351 38.4936 22.3402 39.0228L24.0576 39.6702L24.319 39.7606C26.5082 40.4525 28.9525 39.609 30.2201 37.69L31.225 36.1685L31.3846 35.9454C31.8861 35.2958 32.5897 34.8257 33.3933 34.6115L35.1676 34.1364L35.4231 34.0608C37.6106 33.3516 39.0918 31.2459 38.9763 28.9532L38.8844 27.1383L38.8809 26.8651C38.9006 26.0481 39.1909 25.2591 39.7125 24.6181L40.8662 23.2031L41.0403 22.9765C42.3755 21.1333 42.3175 18.5783 40.8662 16.7969L39.7125 15.3819L39.5472 15.1629C39.0776 14.4905 38.8434 13.6834 38.8844 12.8617L38.9763 11.0468L38.9826 10.7832C38.9766 8.50666 37.4081 6.46364 35.1676 5.86359L33.3933 5.38845L33.1293 5.30768C32.3492 5.03756 31.6804 4.52005 31.225 3.83149L30.2201 2.31001L30.0625 2.08493ZM5.68128 20C5.68128 11.6799 12.5868 4.85446 21 4.85446C29.4152 4.85446 36.3187 11.6819 36.3187 20C36.3187 28.3201 29.4133 35.1455 21 35.1455C12.5848 35.1455 5.68128 28.3181 5.68128 20Z" fill="#3E73CF"/>
</svg>
