<svg width="30" height="30" viewBox="0 0 30 30" fill="none" xmlns="http://www.w3.org/2000/svg">
<path fill-rule="evenodd" clip-rule="evenodd" d="M18.9761 14.6884V1.9621C18.9761 0.880856 18.0954 0 17.0121 0H1.96393C0.880714 0 0 0.879785 0 1.9621V14.6884C0 15.7718 0.880714 16.6527 1.96393 16.6516H5.12464V19.6339C5.12464 20.0379 5.35179 20.4076 5.71286 20.5897C5.71286 20.5897 6.24643 20.9273 6.83143 20.4976L12.06 16.6516H17.0121C18.0954 16.6516 18.9761 15.7708 18.9761 14.6884ZM7.95536 6.67822C7.3425 7.2901 6.3525 7.2901 5.74179 6.67822C5.13107 6.06848 5.13107 5.07618 5.74179 4.46429C6.3525 3.85348 7.3425 3.85348 7.95536 4.46429C8.56607 5.0751 8.56607 6.06741 7.95536 6.67822ZM6.89143 12.4477L13.32 6.01811C13.7389 5.59912 13.7389 4.92186 13.32 4.50287C12.9011 4.08387 12.2239 4.08387 11.805 4.50287L5.37643 10.9325C4.9575 11.3515 4.9575 12.0287 5.37643 12.4477C5.37643 12.4477 6.04821 13.1485 6.89143 12.4477ZM11.0207 9.75371C11.6314 9.1429 12.6214 9.1429 13.2343 9.75371C13.845 10.3645 13.845 11.3568 13.2343 11.9676C12.6214 12.5795 11.6314 12.5795 11.0207 11.9676C10.41 11.3579 10.41 10.3656 11.0207 9.75371Z" fill="#3E73CF"/>
<path opacity="0.5" d="M30 11.2443V23.9717C30 25.054 29.1193 25.9349 28.0361 25.9349H24.8754V28.9172C24.8754 29.3212 24.6482 29.6909 24.2871 29.873C24.2871 29.873 23.7568 30.2127 23.1686 29.7809L17.94 25.9349H12.9879C11.9046 25.9349 11.0239 25.054 11.0239 23.9717V19.665L12.6396 18.4766H15.5668C15.36 18.9106 15.4468 19.4399 15.8346 19.7582L19.1539 22.4822C19.3532 22.6451 19.5932 22.7255 19.8343 22.7255C20.115 22.7255 20.3936 22.6162 20.6025 22.4008L26.7611 16.0612C27.1746 15.6368 27.1639 14.9585 26.7396 14.5459C26.3154 14.1334 25.6361 14.1441 25.2246 14.5684L19.7529 20.2008L17.5457 18.3898C19.3329 18.0115 20.6807 16.4244 20.6807 14.5266V9.28329H28.0361C29.1193 9.28329 30 10.162 30 11.2443Z" fill="#3E73CF"/>
</svg>
