<svg width="34" height="30" viewBox="0 0 34 30" fill="none" xmlns="http://www.w3.org/2000/svg">
<path fill-rule="evenodd" clip-rule="evenodd" d="M12.75 14.2856C16.662 14.2856 19.8334 11.0878 19.8334 7.14294C19.8334 3.19807 16.662 0 12.75 0C8.838 0 5.66658 3.19807 5.66658 7.14294C5.66658 11.0878 8.838 14.2856 12.75 14.2856ZM0 23.9285C0 20.1871 3.01889 17.1429 6.72908 17.1429H18.7709C22.4811 17.1429 25.5 20.1871 25.5 23.9285V28.9286C25.5 29.52 25.024 30 24.4375 30H1.0625C0.475998 30 0 29.52 0 28.9286V23.9285Z" fill="#3E73CF"/>
<path opacity="0.5" d="M33.6616 12.0714L28.7031 7.42859C28.5034 7.2413 28.2427 7.14426 27.9807 7.14426C27.278 7.14426 26.9167 7.7472 26.9167 8.21438V11.4287H21.2501C20.4667 11.4287 19.8335 12.0685 19.8335 12.8571C19.8335 13.6458 20.4667 14.2856 21.2501 14.2856H26.9167V17.4999C26.9167 18.0942 27.3955 18.5713 27.9792 18.5713C28.2427 18.5713 28.5021 18.473 28.7031 18.2857L33.6616 13.6429C33.8769 13.4399 34.0001 13.1543 34.0001 12.8571C34.0001 12.56 33.8769 12.2743 33.6616 12.0714Z" fill="#3E73CF"/>
</svg>
