<svg width="30" height="25" viewBox="0 0 30 25" fill="none" xmlns="http://www.w3.org/2000/svg">
<path opacity="0.5" fill-rule="evenodd" clip-rule="evenodd" d="M19.2397 12.8189H23.8611C24.5084 12.8189 25.033 13.3439 25.033 13.9915C25.033 14.6391 24.5084 15.1641 23.8611 15.1641H19.2397C18.5925 15.1641 18.0679 14.6391 18.0679 13.9915C18.0679 13.3439 18.5925 12.8189 19.2397 12.8189ZM19.2397 17.6302H23.8611C24.5084 17.6302 25.033 18.1552 25.033 18.8028C25.033 19.4504 24.5084 19.9753 23.8611 19.9753H19.2397C18.5925 19.9753 18.0679 19.4504 18.0679 18.8028C18.0679 18.1552 18.5925 17.6302 19.2397 17.6302Z" fill="#1886C4"/>
<path fill-rule="evenodd" clip-rule="evenodd" d="M30 14.5255C30 15.1732 29.4753 15.6981 28.8281 15.6981C28.1809 15.6981 27.6562 15.1732 27.6562 14.5255V6.64562C27.6562 5.35252 26.6048 4.3005 25.3125 4.3005H19.9302V6.80509H20.0112C20.6584 6.80509 21.1831 7.33005 21.1831 7.97766C21.1831 8.62526 20.6584 9.15022 20.0112 9.15022H9.9887C9.34148 9.15022 8.81683 8.62526 8.81683 7.97766C8.81683 7.33005 9.34148 6.80509 9.9887 6.80509H10.0697V4.3005H4.6875C3.39515 4.3005 2.34375 5.35252 2.34375 6.64562V20.3097C2.34375 21.6028 3.39515 22.6549 4.6875 22.6549H5.09039C5.40433 21.1852 6.29589 19.9273 7.515 19.1313C6.8772 18.3991 6.49048 17.4425 6.49048 16.3972C6.49048 14.0998 8.35833 12.2308 10.6543 12.2308C12.9503 12.2308 14.8182 14.0998 14.8182 16.3972C14.8182 17.4425 14.4315 18.3991 13.7937 19.1314C15.0127 19.9273 15.9043 21.1853 16.2183 22.6549H25.3125C26.5977 22.6549 27.649 21.6089 27.6562 20.3232C27.6597 19.6779 28.1838 19.1572 28.8279 19.1572H28.8346C29.4818 19.1607 30.0036 19.6886 29.9999 20.3362C29.9856 22.9079 27.8828 25 25.3125 25H4.6875C2.10281 25 0 22.896 0 20.3097V6.64562C0 4.05942 2.10281 1.95537 4.6875 1.95537H10.0697V1.17256C10.0697 0.524957 10.5943 0 11.2416 0H18.7584C19.4057 0 19.9303 0.524957 19.9303 1.17256V1.95537H25.3125C27.8972 1.95537 30 4.05942 30 6.64562V14.5255ZM12.4744 16.3971C12.4744 15.3929 11.6579 14.5759 10.6543 14.5759C9.65062 14.5759 8.83417 15.3929 8.83417 16.3971C8.83417 17.4013 9.65068 18.2183 10.6543 18.2183C11.6579 18.2183 12.4744 17.4013 12.4744 16.3971ZM10.567 20.5692H10.7416C12.1242 20.5692 13.3084 21.436 13.7799 22.6549H7.52876C8.00027 21.436 9.18439 20.5692 10.567 20.5692ZM12.4134 2.34513V6.80503H17.5865V2.34513H12.4134Z" fill="#1886C4"/>
</svg>
