<svg width="30" height="30" viewBox="0 0 30 30" fill="none" xmlns="http://www.w3.org/2000/svg">
<path d="M30 12.3047C30 14.4418 29.4434 16.547 28.3903 18.3932C28.0696 18.9553 27.3539 19.1512 26.7918 18.8303C26.2296 18.5097 26.0337 17.794 26.3544 17.2318C27.206 15.7388 27.6562 14.035 27.6562 12.3047C27.6562 6.81221 23.1878 2.34375 17.6953 2.34375C12.2028 2.34375 7.73434 6.81221 7.73434 12.3047C7.73434 17.7972 12.2028 22.2656 17.6953 22.2656C19.4046 22.2656 21.0903 21.8257 22.57 20.9935C23.1342 20.676 23.8486 20.8765 24.1658 21.4405C24.483 22.0047 24.283 22.719 23.7188 23.0363C21.8891 24.0656 19.8063 24.6094 17.6953 24.6094C14.7377 24.6094 12.0206 23.5602 9.89613 21.8147L1.99763 29.6597C1.76898 29.8867 1.47029 30 1.17183 30C0.870618 30 0.569409 29.8846 0.340298 29.6539C-0.115636 29.1948 -0.113118 28.4528 0.34602 27.9966L8.23399 20.1624C6.45924 18.0295 5.39058 15.2898 5.39058 12.3047C5.39058 5.51994 10.9105 0 17.6953 0C24.48 0 30 5.51994 30 12.3047Z" fill="#1886C4"/>
<path opacity="0.5" d="M22.0708 7.88086L17.2341 14.7123C17.0766 14.8936 16.88 14.9329 16.7743 14.9398C16.6649 14.9471 16.4536 14.9332 16.2684 14.7569C16.2625 14.7512 16.2568 14.7457 16.2508 14.7404L13.1536 11.9115C12.6757 11.475 11.9343 11.5084 11.4979 11.9863C11.0614 12.4642 11.095 13.2053 11.5729 13.6418L14.6624 16.4637C15.222 16.9915 15.9661 17.2852 16.7315 17.2849C16.7976 17.2849 16.8638 17.2829 16.9301 17.2785C17.769 17.2224 18.552 16.8146 19.0787 16.1595C19.0935 16.141 19.108 16.122 19.1215 16.1025L23.9838 9.23493C24.3578 8.7069 24.2326 7.97539 23.7044 7.6014C23.1761 7.22763 22.4448 7.3526 22.0708 7.88086Z" fill="#1886C4"/>
</svg>
