<svg width="38" height="40" viewBox="0 0 38 40" fill="none" xmlns="http://www.w3.org/2000/svg">
<path d="M28.6858 35.3125H9.31416C8.67409 35.3125 8.15518 35.8372 8.15518 36.4844V38.8281C8.15518 39.4753 8.67409 39.9999 9.31416 39.9999H28.6858C29.3259 39.9999 29.8448 39.4753 29.8448 38.8281V36.4844C29.8448 35.8372 29.3259 35.3125 28.6858 35.3125Z" fill="#3E73CF"/>
<path opacity="0.5" d="M23.5402 29.6201H22.7222C22.4631 28.9188 22.2833 27.7754 22.2671 26.2944C21.243 26.5654 20.1496 26.7029 18.9912 26.7029C17.9805 26.7029 16.8754 26.5949 15.7468 26.2995C15.7433 26.9918 15.7037 27.7561 15.5891 28.4626C15.5243 28.8622 15.4254 29.2767 15.2953 29.62H14.4597C12.9686 29.62 11.7554 30.8466 11.7554 32.3544V32.9687H26.2444V32.3544C26.2445 30.8467 25.0314 29.6201 23.5402 29.6201Z" fill="#3E73CF"/>
<path d="M36.841 4.7085H32.7204C32.6705 5.26982 32.6269 5.84575 32.5952 6.26652C32.5759 6.52137 32.556 6.78402 32.5352 7.05222H35.6392C35.3797 10.2648 33.94 13.0569 31.3482 15.3821C31.0982 16.3823 30.7952 17.3704 30.4227 18.3196C30.2769 18.6912 30.122 19.05 29.9598 19.3978L31.3503 18.38C35.7626 15.1502 38 10.9773 38 5.97739V5.88028C38 5.2331 37.4811 4.7085 36.841 4.7085Z" fill="#3E73CF"/>
<path d="M6.56553 15.3127C4.02582 13.0002 2.61504 10.2314 2.36006 7.05222H5.37588C5.34961 6.71246 5.32504 6.38215 5.30132 6.06293C5.27265 5.67723 5.23641 5.1906 5.19554 4.7085H1.15898C0.518913 4.7085 0 5.23318 0 5.88036V5.98598C0 10.9798 2.23335 15.1497 6.63808 18.3801L7.96866 19.3558C7.79752 18.9892 7.63287 18.606 7.4761 18.2037C7.1111 17.2672 6.81278 16.2954 6.56553 15.3127Z" fill="#3E73CF"/>
<path fill-rule="evenodd" clip-rule="evenodd" d="M7.2355 2.34388H6.15271C5.51264 2.34388 4.99373 1.8192 4.99373 1.17186C4.99373 0.524681 5.51264 0 6.15271 0H31.8472C32.4872 0 33.0061 0.524681 33.0061 1.17186C33.0061 1.81904 32.4872 2.34372 31.8472 2.34372H30.7006C30.5123 3.0627 30.3872 4.71807 30.2838 6.0879C30.0379 9.34372 29.7012 13.8027 28.268 17.4552C26.4706 22.0363 23.3494 24.3592 18.9911 24.3592C14.5951 24.3592 11.4464 21.999 9.63257 17.3444C8.18887 13.6396 7.85586 9.15888 7.61271 5.8872L7.61259 5.88563C7.51711 4.6015 7.40217 3.05553 7.2355 2.34388ZM18.7589 7.33148L17.1271 8.33146C16.8798 8.48146 16.7685 8.73146 16.7685 8.99396C16.7685 9.38145 17.0157 9.76895 17.3743 9.76895C17.4608 9.76895 17.5721 9.74395 17.6834 9.66895L18.0419 9.44395V15.8065C18.0419 16.2065 18.5241 16.4065 19.0062 16.4065C19.4884 16.4065 19.9705 16.2065 19.9705 15.8065V7.85647C19.9705 7.48147 19.5131 7.24398 19.1175 7.24398C18.9814 7.24398 18.8578 7.26898 18.7589 7.33148Z" fill="#3E73CF"/>
</svg>
