<svg width="21" height="30" viewBox="0 0 21 30" fill="none" xmlns="http://www.w3.org/2000/svg">
<path fill-rule="evenodd" clip-rule="evenodd" d="M19.8068 25.8984H14.2734L13.2033 24.4489C12.9789 24.1447 12.6198 23.9648 12.2373 23.9648H8.80997C8.41636 23.9648 8.04792 24.1557 7.82559 24.4748L6.83306 25.8984H2.38636V22.4684C2.38636 21.3874 3.4255 20.5078 4.70281 20.5078H16.2972C17.5745 20.5078 18.6136 21.3753 18.6136 22.4414C18.6136 23.0887 19.1478 23.6133 19.8068 23.6133C20.4659 23.6133 21 23.0887 21 22.4414C21 21.3787 20.5831 20.3831 19.821 19.6028C19.8183 19.5975 19.8158 19.5921 19.8133 19.5867C19.8093 19.5782 19.8052 19.5697 19.8005 19.5614L17.5426 15.5571C16.7094 14.0929 15.0697 13.1836 13.2632 13.1836H11.9439C12.4245 12.5045 12.9989 11.8833 13.5571 11.28L13.5578 11.2792C14.957 9.76656 16.4039 8.20227 16.4062 5.75821C16.4025 2.58316 13.7799 0 10.5597 0C7.33947 0 4.7168 2.58316 4.71307 5.76073C4.7154 8.20226 6.16235 9.76656 7.56156 11.2792L7.56226 11.28C8.12039 11.8833 8.69485 12.5045 9.17538 13.1836H7.73471C5.93002 13.1836 4.29103 14.0918 3.4551 15.558L1.21369 19.5255C1.19085 19.566 1.17151 19.6072 1.15403 19.649C0.436024 20.4048 0 21.3906 0 22.4684V28.8281C0 29.4754 0.534135 30 1.19318 30H4.34812C5.00717 30 5.5413 29.4754 5.5413 28.8281V28.2422H15.4587V28.8281C15.4587 29.4754 15.9928 30 16.6519 30H19.8068C20.4659 30 21 29.4754 21 28.8281V27.0703C21 26.423 20.4659 25.8984 19.8068 25.8984ZM7.09943 5.76096C7.10153 3.8768 8.65383 2.34375 10.5597 2.34375C12.4655 2.34375 14.0178 3.8768 14.0199 5.75844C14.0185 7.29559 13.0359 8.35788 11.792 9.70266L11.792 9.70267L11.7908 9.7039C11.38 10.1479 10.9612 10.6007 10.5597 11.0916C10.1581 10.6007 9.73935 10.1479 9.32849 9.7039L9.32734 9.70266C8.08344 8.35788 7.10083 7.29559 7.09943 5.76096ZM13.2632 15.5273H7.73471C6.80696 15.5273 5.94517 15.9874 5.53944 16.699L4.71167 18.1641H16.2846L15.4571 16.6965C15.0539 15.9879 14.1919 15.5273 13.2632 15.5273Z" fill="#1886C4"/>
<path opacity="0.5" fill-rule="evenodd" clip-rule="evenodd" d="M10.5872 4.58565C9.9337 4.58565 9.404 5.11024 9.404 5.75752C9.404 6.4048 9.9337 6.9294 10.5872 6.9294C11.2404 6.9294 11.7701 6.4048 11.7701 5.75752C11.7701 5.11024 11.2404 4.58565 10.5872 4.58565ZM5.13068 22.0898C5.78973 22.0898 6.32386 22.6144 6.32386 23.2617C6.32386 23.909 5.78973 24.4336 5.13068 24.4336C4.47164 24.4336 3.9375 23.909 3.9375 23.2617C3.9375 22.6144 4.47164 22.0898 5.13068 22.0898ZM15.8097 22.0898C16.4687 22.0898 17.0028 22.6144 17.0028 23.2617C17.0028 23.909 16.4687 24.4336 15.8097 24.4336C15.1506 24.4336 14.6165 23.909 14.6165 23.2617C14.6165 22.6144 15.1506 22.0898 15.8097 22.0898Z" fill="#1886C4"/>
</svg>
