<svg width="50" height="29" viewBox="0 0 50 29" fill="none" xmlns="http://www.w3.org/2000/svg">
<path opacity="0.5" fill-rule="evenodd" clip-rule="evenodd" d="M23.6719 8.30991C27.5781 8.07029 30.7812 8.70927 33.5156 10.147C33.6719 10.3067 33.75 10.3866 33.6719 10.6262V13.0224C33.6719 13.262 33.5156 13.4217 33.2812 13.4217H31.875C31.875 11.4249 30.3125 9.82748 28.3594 9.82748C26.4062 9.82748 24.8438 11.4249 24.8438 13.4217V13.6613H13.0469V13.4217C13.0469 11.4249 11.4844 9.82748 9.53125 9.82748C7.57812 9.82748 6.01562 11.4249 6.01562 13.4217V13.6613H5.3125L2.5 12.2236C2.34375 12.2236 2.1875 12.0639 2.1875 11.9042L2.03125 10.8658C2.03125 10.7061 2.10938 10.5463 2.1875 10.4665C2.5 10.147 2.8125 9.74761 2.89062 9.26837L3.125 8.15016C3.125 7.99042 3.28125 7.83068 3.51562 7.83068H4.60938C4.92188 7.83068 5.23438 7.7508 5.46875 7.67093C6.79688 7.11183 7.8125 6.63259 8.75 6.15336C8.83461 6.1132 8.91782 6.07363 8.99975 6.03467C11.0361 5.06643 12.2842 4.47295 14.6875 4.39617C17.6347 3.9997 18.811 5.02018 21.3504 7.22315L21.4062 7.27157L22.1875 7.83068C22.5781 8.15016 23.125 8.30991 23.6719 8.30991ZM9.53125 11.5048C8.51562 11.5048 7.65625 12.3834 7.65625 13.4217C7.65625 13.6613 7.73438 13.901 7.8125 14.1406C8.125 14.8594 8.75 15.3387 9.53125 15.3387C10.5469 15.3387 11.4062 14.4601 11.4062 13.4217C11.4062 12.3834 10.5469 11.5048 9.53125 11.5048ZM28.3594 11.5048C27.3438 11.5048 26.4844 12.3834 26.4844 13.4217C26.4844 14.4601 27.3438 15.3387 28.3594 15.3387C29.375 15.3387 30.2344 14.4601 30.2344 13.4217C30.2344 12.3834 29.375 11.5048 28.3594 11.5048Z" fill="#3E73CF"/>
<path fill-rule="evenodd" clip-rule="evenodd" d="M48.125 14.6997H49.4531C49.6094 14.6997 49.7656 14.6997 49.9219 14.7796V11.7444C49.9219 11.4249 49.8438 11.1853 49.7656 10.9457L46.875 3.51757C46.4844 2.55911 45.625 2 44.6875 2H40.7812C39.8438 2 39.1406 2.71885 39.1406 3.67732V15.6581C39.1406 16.1374 38.75 16.5367 38.2812 16.5367H1.64062C0.703125 16.5367 0 17.2556 0 18.2141V20.8498C0 21.7284 0.703125 22.4473 1.5625 22.4473H6.17188C6.5625 19.8914 8.75 17.8946 11.3281 17.8946C13.9062 17.8946 16.0938 19.8914 16.4844 22.4473H35.7812C36.1719 19.8914 38.3594 17.8946 40.9375 17.8946C43.5156 17.8946 45.7031 19.8914 46.0938 22.4473H48.4375C49.2969 22.4473 50 21.7284 50 20.8498V19.5719C49.8438 19.6518 49.6875 19.6518 49.5312 19.6518H49.4531C48.3594 19.6518 47.4219 19.2524 46.6406 18.4537C46.0156 17.8147 45.8594 16.9361 46.1719 16.1374C46.4844 15.2588 47.2656 14.6997 48.125 14.6997ZM8.82812 20.6901C9.53125 20.0511 10.3906 19.6518 11.4062 19.6518C13.3594 19.6518 14.9219 21.2492 15 23.246C15 25.2428 13.3594 26.9201 11.4062 26.9201C9.45312 26.9201 7.8125 25.2428 7.8125 23.246C7.8125 22.2875 8.20312 21.3291 8.82812 20.6901ZM37.4219 23.3259C37.4219 21.3291 39.0625 19.6518 41.0156 19.6518C42.9688 19.6518 44.6094 21.2492 44.6094 23.3259C44.6094 25.3227 42.9688 27 41.0156 27C39.0625 27 37.4219 25.3227 37.4219 23.3259ZM41.7188 16.8562C42.1875 16.8562 42.5781 16.4569 42.5781 15.9776V14.3802C42.5781 13.901 42.1875 13.5016 41.7188 13.5016C41.25 13.5016 40.8594 13.901 40.8594 14.3802V15.9776C40.8594 16.4569 41.25 16.8562 41.7188 16.8562ZM43.3594 12.3834C42.0312 12.3834 40.9375 11.2652 40.9375 9.90735V5.99361C40.9375 4.63578 42.0312 3.51757 43.3594 3.51757H45.3906C45.8594 3.51757 46.25 3.91693 46.25 4.39617C46.25 4.8754 45.8594 5.27476 45.3906 5.27476H43.3594C42.8906 5.27476 42.5781 5.59425 42.5781 6.07348V9.98722C42.5781 10.4665 42.8906 10.7859 43.3594 10.7859H48.2812C48.75 10.7859 49.1406 11.1853 49.1406 11.6645C49.1406 12.1438 48.75 12.5431 48.2812 12.5431H43.3594V12.3834ZM48.2031 16.377H49.5312C49.7656 16.377 50 16.6166 50 16.8562V17.4153C50 17.655 49.8438 17.8946 49.5312 17.8946H49.4531C48.8281 17.8946 48.2812 17.655 47.8125 17.1757C47.6562 17.016 47.6562 16.7764 47.7344 16.6965C47.8125 16.5367 47.9688 16.377 48.2031 16.377Z" fill="#3E73CF"/>
</svg>
