<svg width="27" height="30" viewBox="0 0 27 30" fill="none" xmlns="http://www.w3.org/2000/svg">
<path opacity="0.5" fill-rule="evenodd" clip-rule="evenodd" d="M9.11097 8.93139L9.12836 7.45834L8.26921 6.27721C7.82568 5.66742 7.69779 4.87148 7.92719 4.14814C8.15659 3.42475 8.71669 2.85785 9.42548 2.63162L10.7982 2.1934L11.6292 0.991172C12.0583 0.370547 12.7577 0 13.5 0C14.2423 0 14.9417 0.370547 15.3707 0.991113L16.2018 2.19334L17.5746 2.63156C18.2832 2.85779 18.8433 3.42469 19.0728 4.14809C19.3022 4.87143 19.1744 5.66736 18.7308 6.27721L17.8716 7.45834L17.889 8.93133C17.898 9.69187 17.5447 10.4128 16.9441 10.8599C16.3435 11.3069 15.5651 11.4282 14.862 11.1845L13.5 10.7123L12.138 11.1845C11.8989 11.2673 11.651 11.308 11.4045 11.308C10.9259 11.308 10.4523 11.1549 10.0559 10.8599C9.45528 10.4128 9.10199 9.69188 9.11097 8.93139ZM11.8483 4.31309L10.106 4.86926C10.1034 4.86996 10.102 4.87453 10.1021 4.87693L11.1941 6.37594C11.344 6.58207 11.4237 6.83314 11.4206 7.09031L11.3986 8.95975C11.3985 8.96244 11.4024 8.96525 11.4044 8.9659L13.1334 8.36514C13.3712 8.28275 13.6288 8.28275 13.8666 8.36514L15.5953 8.96437C15.5979 8.96543 15.6016 8.96244 15.6028 8.96062L15.5795 7.09031C15.5764 6.8332 15.6561 6.58213 15.806 6.37594L16.8964 4.87682C16.898 4.87459 16.8965 4.87002 16.8952 4.86826L15.1518 4.31309C14.9121 4.23656 14.7037 4.08141 14.5586 3.87158L13.5039 2.34586C13.5021 2.34322 13.501 2.34217 13.501 2.34217C13.5019 2.34316 13.5001 2.34348 13.4982 2.34382C13.4972 2.34398 13.4963 2.34415 13.4956 2.34439L12.4414 3.87158C12.2963 4.08141 12.0879 4.23656 11.8483 4.31309Z" fill="#1886C4"/>
<path fill-rule="evenodd" clip-rule="evenodd" d="M25.8561 27.6563H19.3751V19.9256H21.4753C22.6308 19.9256 23.5709 20.8888 23.5709 22.0726V22.9688C23.5709 23.616 24.083 24.1407 24.7147 24.1407C25.3465 24.1407 25.8586 23.616 25.8586 22.9688V22.0726C25.8586 19.5964 23.8922 17.5819 21.4753 17.5819H19.3751V17.0073C19.3751 14.5311 17.4087 12.5166 14.9917 12.5166H12.0083C9.7685 12.5166 7.91568 14.2465 7.65608 16.4707H5.52478C3.10781 16.4707 1.14146 18.4852 1.14146 20.9614V27.6563C0.510848 27.6576 0 28.1818 0 28.8282C0 29.4754 0.512106 30 1.14386 30H25.8561C26.4879 30 27 29.4754 27 28.8282C27 28.1809 26.4879 27.6563 25.8561 27.6563ZM3.42918 20.9615C3.42918 19.7777 4.36926 18.8145 5.52478 18.8145H7.62497V27.6563H3.42918V20.9615ZM12.0083 14.8604C10.8528 14.8604 9.91263 15.8235 9.91263 17.0073V27.6563H17.0874V17.0073C17.0874 15.8235 16.1472 14.8604 14.9917 14.8604H12.0083Z" fill="#1886C4"/>
</svg>
