<svg width="30" height="33" viewBox="0 0 30 33" fill="none" xmlns="http://www.w3.org/2000/svg">
<path opacity="0.5" fill-rule="evenodd" clip-rule="evenodd" d="M21.3062 30.4219H21.6935C22.4015 30.4219 22.9754 30.999 22.9754 31.7109C22.9754 32.4229 22.4015 33 21.6935 33H1.28186C0.57389 33 0 32.4229 0 31.7109C0 30.999 0.57389 30.4219 1.28186 30.4219H1.66912V27.8821C1.66912 25.7377 3.40399 23.993 5.5365 23.993H17.4387C19.5713 23.993 21.3062 25.7377 21.3062 27.8821V30.4219ZM4.23284 27.8821V30.4219H18.7425V27.8821C18.7425 27.1593 18.1576 26.5712 17.4387 26.5712H5.5365C4.81769 26.5712 4.23284 27.1592 4.23284 27.8821Z" fill="#1886C4"/>
<path fill-rule="evenodd" clip-rule="evenodd" d="M28.0977 17.5645C29.1939 18.3732 29.8827 19.6201 29.9863 20.9845C30.09 22.349 29.5975 23.6866 28.6353 24.6542C27.7575 25.5369 26.5735 26.0265 25.3424 26.0265C25.224 26.0265 25.1052 26.022 24.9861 26.0128C23.6292 25.9087 22.3893 25.2161 21.5844 24.1126L15.7609 16.1299L13.8413 18.0602C14.1478 18.5574 14.0865 19.2186 13.6574 19.6502C13.4071 19.9018 13.0791 20.0277 12.751 20.0277C12.4229 20.0277 12.0949 19.9018 11.8446 19.6502L4.49413 12.2585C3.99349 11.7551 3.99349 10.9389 4.49413 10.4355C4.92323 10.004 5.58083 9.94236 6.07518 10.2506L14.312 1.96751C14.0055 1.47032 14.0668 0.809096 14.4959 0.377582C14.9965 -0.125861 15.8081 -0.125861 16.3087 0.377582L23.6593 7.76926C24.1599 8.27264 24.1599 9.08881 23.6593 9.59225C23.4089 9.84394 23.0808 9.96981 22.7528 9.96981C22.5185 9.96981 22.2842 9.90562 22.0782 9.77716L20.1586 11.7075L22.8482 13.6917C23.4191 14.1127 23.5423 14.9195 23.1236 15.4935C22.7049 16.0676 21.9024 16.1914 21.3318 15.7704L18.3245 13.5519L17.5951 14.2855L23.6516 22.5877C24.0136 23.0839 24.5712 23.3954 25.1814 23.4423C25.791 23.4892 26.3897 23.2664 26.8225 22.8312C27.2552 22.3961 27.4767 21.7946 27.4301 21.1809C27.3834 20.5673 27.0737 20.0065 26.5803 19.6425L26.5591 19.6268C25.9887 19.2051 25.8663 18.3983 26.2856 17.8247C26.7049 17.2511 27.5073 17.128 28.0777 17.5497L28.0977 17.5645ZM16.1009 3.81461L7.91196 12.0495L12.0524 16.2131L20.2413 7.97828L16.1009 3.81461Z" fill="#1886C4"/>
</svg>
