<svg width="30" height="30" viewBox="0 0 30 30" fill="none" xmlns="http://www.w3.org/2000/svg">
<path fill-rule="evenodd" clip-rule="evenodd" d="M13.9949 17.5793H15.7402C16.2168 17.5793 16.6993 17.2774 16.6993 16.7004V15.9879C16.6993 15.4674 16.2781 15.0595 15.7402 15.0595H14.6663C12.8486 15.0595 11.3697 13.5612 11.3697 11.7194V11.2921C11.3697 10.4063 11.7153 9.58031 12.343 8.96622C12.774 8.54462 13.3052 8.25554 13.8853 8.11867V7.32468C13.8853 6.6774 14.4101 6.1528 15.0574 6.1528C15.7048 6.1528 16.2294 6.6774 16.2294 7.32468V8.07838C17.5959 8.32947 18.6333 9.50134 18.6333 10.906C18.6333 11.5533 18.1084 12.0779 17.4611 12.0779C16.814 12.0779 16.2891 11.5533 16.2891 10.906C16.2891 10.5716 15.9804 10.3718 15.6819 10.3718H14.6663C14.1233 10.3718 13.7138 10.7675 13.7138 11.2921V11.7194C13.7138 12.2594 14.1501 12.7158 14.6663 12.7158H15.7402C16.6201 12.7158 17.4467 13.0504 18.0672 13.6585C18.6967 14.2749 19.0434 15.1023 19.0434 15.9879V16.7004C19.0434 18.3449 17.8415 19.6648 16.2294 19.8891V20.5678C16.2294 21.2151 15.7045 21.7397 15.0572 21.7397C14.4099 21.7397 13.8853 21.2151 13.8853 20.5678V19.9205C12.2988 19.866 11.0712 18.6326 11.0712 17.0666C11.0712 16.4193 11.5961 15.8947 12.2434 15.8947C12.8905 15.8947 13.4153 16.4193 13.4153 17.0666C13.4153 17.4188 13.7157 17.5793 13.9949 17.5793ZM17.5609 28.9716L29.2 17.3181C29.9831 16.5342 30.2147 15.3664 29.7906 14.3433C29.3658 13.3189 28.3742 12.6569 27.2643 12.6569H23.6143V9.25827C23.6143 8.61099 23.0896 8.0864 22.4423 8.0864C21.795 8.0864 21.2704 8.61099 21.2704 9.25827V13.829C21.2704 14.4763 21.795 15.0009 22.4423 15.0009H27.2643C27.4918 15.0009 27.5881 15.1515 27.6252 15.241C27.6703 15.3497 27.6923 15.5109 27.5414 15.6619L15.9037 27.3141C15.4447 27.7723 14.6983 27.7723 14.2357 27.3102L2.45876 15.6624C2.30769 15.5113 2.32944 15.3502 2.37453 15.2415C2.41161 15.1515 2.50798 15.0009 2.7355 15.0009H7.79205C8.43937 15.0009 8.964 14.4763 8.964 13.829V9.2585C8.964 8.61122 8.43937 8.0864 7.79205 8.0864C7.14473 8.0864 6.61987 8.61122 6.61987 9.2585V12.6572H2.7355C1.62467 12.6572 0.632858 13.3198 0.208484 14.3452C-0.215203 15.3696 0.0180426 16.5376 0.80659 17.325L12.5833 28.9728C13.2693 29.6576 14.17 30 15.0712 30C15.9726 30 16.8742 29.6571 17.5609 28.9716Z" fill="#1886C4"/>
<path opacity="0.5" fill-rule="evenodd" clip-rule="evenodd" d="M8.964 1.17188C8.964 1.81915 8.43937 2.34398 7.79205 2.34398C7.14473 2.34398 6.61987 1.81915 6.61987 1.17188C6.61987 0.524597 7.14473 0 7.79205 0C8.43937 0 8.964 0.524597 8.964 1.17188ZM8.964 5.27367C8.964 5.92094 8.43937 6.44577 7.79205 6.44577C7.14473 6.44577 6.61987 5.92094 6.61987 5.27367C6.61987 4.62662 7.14473 4.10179 7.79205 4.10179C8.43937 4.10179 8.964 4.62662 8.964 5.27367ZM22.4423 2.34398C23.0896 2.34398 23.6143 1.81915 23.6143 1.17188C23.6143 0.524597 23.0896 0 22.4423 0C21.795 0 21.2704 0.524597 21.2704 1.17188C21.2704 1.81915 21.795 2.34398 22.4423 2.34398ZM23.6143 5.27367C23.6143 5.92094 23.0896 6.44577 22.4423 6.44577C21.795 6.44577 21.2704 5.92094 21.2704 5.27367C21.2704 4.62662 21.795 4.10179 22.4423 4.10179C23.0896 4.10179 23.6143 4.62662 23.6143 5.27367Z" fill="#1886C4"/>
</svg>
