<svg width="40" height="40" viewBox="0 0 40 40" fill="none" xmlns="http://www.w3.org/2000/svg">
<path fill-rule="evenodd" clip-rule="evenodd" d="M2.42163 1.17188C2.42163 0.524141 2.94572 0 3.5934 0H36.403C37.0507 0 37.5748 0.524141 37.5748 1.17188V20.0781C37.5748 20.7259 37.0507 21.25 36.403 21.25H3.5934C2.94572 21.25 2.42163 20.7259 2.42163 20.0781V1.17188ZM11.7958 15.3125C11.7958 14.6648 11.2717 14.1406 10.624 14.1406H9.45226V7.10938H10.624C11.2717 7.10938 11.7958 6.58523 11.7958 5.9375C11.7958 5.28977 11.2717 4.76562 10.624 4.76562H8.28049C7.63281 4.76562 7.10871 5.28977 7.10871 5.9375V15.3125C7.10871 15.9602 7.63281 16.4844 8.28049 16.4844H10.624C11.2717 16.4844 11.7958 15.9602 11.7958 15.3125ZM19.9982 16.4844C16.7678 16.4844 14.1393 13.8557 14.1393 10.625C14.1393 7.3943 16.7678 4.76562 19.9982 4.76562C23.2286 4.76562 25.857 7.3943 25.857 10.625C25.857 13.8557 23.2286 16.4844 19.9982 16.4844ZM31.7159 16.4844C32.3636 16.4844 32.8877 15.9602 32.8877 15.3125V5.9375C32.8877 5.28977 32.3636 4.76562 31.7159 4.76562H29.3724C28.7247 4.76562 28.2006 5.28977 28.2006 5.9375C28.2006 6.58523 28.7247 7.10938 29.3724 7.10938H30.5441V14.1406H29.3724C28.7247 14.1406 28.2006 14.6648 28.2006 15.3125C28.2006 15.9602 28.7247 16.4844 29.3724 16.4844H31.7159Z" fill="#3E73CF"/>
<ellipse opacity="0.5" cx="19.9982" cy="10.625" rx="3.51531" ry="3.51562" fill="#3E73CF"/>
<path opacity="0.5" d="M5.93697 40H1.17177C0.524641 40 0 39.4753 0 38.8281V27.1094C0 26.4622 0.524641 25.9375 1.17177 25.9375H7.10874V38.8281C7.10874 39.4753 6.5841 40 5.93697 40Z" fill="#3E73CF"/>
<path d="M39.7391 28.756C39.7289 28.7435 39.7186 28.7307 39.7083 28.7182C38.4803 27.2127 36.2159 27.0628 34.7018 28.2799C34.5956 28.3653 31.144 31.133 30.1436 31.7969C28.7971 32.6904 27.9725 32.9278 26.7369 32.9692L17.6546 32.9703C17.0069 32.9703 16.4829 32.4446 16.4829 31.7969C16.4829 31.1492 17.0069 30.625 17.6546 30.625H27.0288C27.6759 30.625 28.2006 30.1003 28.2006 29.4532C28.2006 27.5115 26.6267 25.9375 24.6852 25.9375H21.875C20.126 25.8773 18.0262 25.6899 15.6898 25.1502C13.1781 24.5721 11.6248 24.5685 9.45215 25.3567V37.6988C11.0615 37.2519 12.7156 37.0748 14.5386 37.5075C24.526 39.8883 32.8092 37.5215 39.697 30.273C40.0907 29.8589 40.0964 29.2018 39.7391 28.756Z" fill="#3E73CF"/>
</svg>
