<svg width="32" height="30" viewBox="0 0 32 30" fill="none" xmlns="http://www.w3.org/2000/svg">
<path fill-rule="evenodd" clip-rule="evenodd" d="M27.5867 17.8663C26.8133 18.3485 26.08 18.7234 25.4267 18.9913C24.9733 19.1922 24.48 19.2859 24 19.2859C23.52 19.2859 23.0267 19.1922 22.5733 18.9913C21.4133 18.5092 20 17.7056 18.6267 16.6074H5.89333L7.86667 12.0539C8.08 11.5718 8.56 11.2504 9.08 11.2504H14.3333C13.96 10.42 13.6667 9.52274 13.5067 8.57187H9.08C7.49333 8.57187 6.05333 9.52274 5.41333 10.9825L2.77333 17.0762C2.76667 17.0895 2.76667 17.1029 2.76667 17.118C2.76667 17.1331 2.76667 17.1498 2.76 17.1699C1.13333 18.0002 0 19.6743 0 21.6296V26.6518C0 28.5 1.49333 30 3.33333 30C5.17333 30 6.66667 28.5 6.66667 26.6518V25.9822H22.6667V26.6518C22.6667 28.5 24.16 30 26 30C27.84 30 29.3333 28.5 29.3333 26.6518V21.6296C29.3333 20.1163 28.6533 18.7636 27.5867 17.8663ZM8 23.3037H5.33333C4.6 23.3037 4 22.701 4 21.9644C4 21.2279 4.6 20.6252 5.33333 20.6252H8C8.73333 20.6252 9.33333 21.2279 9.33333 21.9644C9.33333 22.701 8.73333 23.3037 8 23.3037ZM21.3333 23.3037H24C24.7333 23.3037 25.3333 22.701 25.3333 21.9644C25.3333 21.2279 24.7333 20.6252 24 20.6252H21.3333C20.6 20.6252 20 21.2279 20 21.9644C20 22.701 20.6 23.3037 21.3333 23.3037Z" fill="#3E73CF"/>
<path opacity="0.5" fill-rule="evenodd" clip-rule="evenodd" d="M24 16.0714C28.4183 16.0714 32 12.4737 32 8.03571C32 3.59771 28.4183 0 24 0C19.5817 0 16 3.59771 16 8.03571C16 12.4737 19.5817 16.0714 24 16.0714ZM24.7147 11.1406L28.3813 6.45319C28.8373 5.87195 28.736 5.02956 28.1573 4.57555C27.5773 4.11619 26.74 4.21931 26.2853 4.80055L23.4787 8.38842L22.2013 7.28889C21.644 6.80809 20.8013 6.87238 20.3227 7.43353C19.8413 7.99468 19.9067 8.84109 20.4667 9.32188L22.8 11.3308C23.3733 11.8263 24.248 11.7392 24.7147 11.1406Z" fill="#3E73CF"/>
</svg>
