<svg width="26" height="26" viewBox="0 0 26 26" fill="none" xmlns="http://www.w3.org/2000/svg">
<path fill-rule="evenodd" clip-rule="evenodd" d="M24.9844 9.75C25.5453 9.75 26 9.2953 26 8.73438V4.0625C26 1.82244 24.1776 0 21.9375 0H4.0625C1.82244 0 0 1.82244 0 4.0625V21.9375C0 24.1776 1.82244 26 4.0625 26H21.9375C24.1776 26 26 24.1776 26 21.9375V13.8125C25.9501 12.4666 24.0184 12.4672 23.9688 13.8125C23.9688 14.9325 23.0575 15.8438 21.9375 15.8438H4.0625C2.94247 15.8438 2.03125 14.9325 2.03125 13.8125V4.0625C2.03125 2.94247 2.94247 2.03125 4.0625 2.03125H21.9375C23.0575 2.03125 23.9688 2.94247 23.9688 4.0625V8.73438C23.9688 9.2953 24.4234 9.75 24.9844 9.75ZM21.9375 23.9688H4.0625C2.94247 23.9688 2.03125 23.0575 2.03125 21.9375V21.3909C2.6293 21.7378 3.32282 21.9375 4.0625 21.9375H21.9375C22.6772 21.9375 23.3707 21.7378 23.9688 21.3909V21.9375C23.9688 23.0575 23.0575 23.9688 21.9375 23.9688ZM21.9375 17.875H4.0625C3.32307 17.875 2.6291 17.6764 2.03125 17.3298V17.875C2.03125 18.995 2.94247 19.9062 4.0625 19.9062H21.9375C23.0575 19.9062 23.9688 18.995 23.9688 17.875V17.3298C23.3709 17.6764 22.6769 17.875 21.9375 17.875Z" fill="#F42C2C"/>
<path opacity="0.5" fill-rule="evenodd" clip-rule="evenodd" d="M8.42969 8.88412C8.66088 2.4459 17.1653 2.3596 17.6081 8.63945L17.6211 8.88412C17.3899 15.3276 8.88545 15.414 8.44271 9.13418L8.42969 8.88412ZM6.24609 8.9376C6.24609 8.37667 5.7914 7.92197 5.23047 7.92197C4.66954 7.92197 4.21484 8.37667 4.21484 8.9376C4.26441 10.283 6.19633 10.2833 6.24609 8.9376ZM21.7852 8.9376C21.7852 8.37667 21.3305 7.92197 20.7695 7.92197C20.2086 7.92197 19.7539 8.37667 19.7539 8.9376C19.8035 10.283 21.7354 10.2833 21.7852 8.9376ZM10.4726 8.6824C10.7668 5.05151 15.4598 5.12145 15.5898 8.88412L15.5782 9.09123C15.284 12.7221 10.591 12.652 10.4609 8.88412L10.4726 8.6824Z" fill="#F42C2C"/>
</svg>
