<svg width="50" height="30" viewBox="0 0 50 30" fill="none" xmlns="http://www.w3.org/2000/svg">
<rect width="50" height="30" rx="4" fill="white"/>
<path fill-rule="evenodd" clip-rule="evenodd" d="M35.8447 23.9495V22.1426H35.4123V23.193C35.2682 23.0044 35.0617 22.8992 34.7926 22.8992C34.2354 22.8992 33.8031 23.3399 33.8031 23.9495C33.8031 24.5592 34.2354 24.9999 34.7926 24.9999C35.0809 24.9999 35.2874 24.8946 35.4123 24.7061V24.9583H35.8447V23.9495ZM23.0617 22.9408H23.7606V23.3399H23.0593V24.2434C23.0593 24.4515 23.1409 24.5788 23.3475 24.5788C23.4508 24.5788 23.5949 24.5568 23.7198 24.4735L23.8447 24.853C23.7006 24.9363 23.494 24.9999 23.3091 24.9999C22.8143 24.9999 22.6293 24.7281 22.6293 24.2654V23.3399H22.2378V22.9408H22.6293V22.3311H23.0617V22.9408ZM17.3499 23.6973V24.9583H16.8719V23.8443C16.8719 23.5064 16.7278 23.3178 16.4396 23.3178C16.1729 23.3178 15.9664 23.4868 15.9664 23.8443V24.9583H15.534V23.8443C15.534 23.5064 15.3899 23.3178 15.1017 23.3178C14.8135 23.3178 14.6285 23.4868 14.6285 23.8443V24.9583H14.1962V22.9408H14.6285V23.193C14.7918 22.9628 14.9984 22.8992 15.205 22.8992C15.5148 22.8992 15.7214 23.0265 15.8655 23.2566C16.0505 22.9824 16.3195 22.8992 16.5669 22.8992C17.0617 22.8992 17.3499 23.215 17.3499 23.6973ZM27.4332 22.8967C27.1858 22.8967 27.02 23.024 26.9167 23.1905V22.9383H26.4844V24.9559H26.9167V23.8198C26.9167 23.4843 27.0609 23.2934 27.3299 23.2934C27.4115 23.2934 27.5148 23.3154 27.5989 23.335L27.7238 22.9138C27.6373 22.8967 27.5148 22.8967 27.4332 22.8967ZM21.0825 22.8967C21.3923 22.8967 21.6806 22.9604 21.8871 23.1073L21.7046 23.4647C21.5797 23.4011 21.3323 23.2958 21.0849 23.2958C20.8567 23.2958 20.7126 23.379 20.7126 23.526C20.7126 23.6508 20.8567 23.6924 21.0416 23.7145L21.2482 23.7365C21.6589 23.8002 21.928 23.9887 21.928 24.3462C21.928 24.7232 21.5965 24.9975 21.02 24.9975C20.7102 24.9975 20.4003 24.9142 20.1745 24.7453L20.3811 24.4098C20.5252 24.5151 20.7534 24.6204 21.0416 24.6204C21.3299 24.6204 21.4956 24.5151 21.4956 24.3682C21.4956 24.2629 21.3707 24.1993 21.1449 24.1577L20.9384 24.1356C20.506 24.0744 20.2586 23.8834 20.2586 23.548C20.2586 23.1489 20.5877 22.8967 21.0825 22.8967ZM33.3899 22.8967C33.1425 22.8967 32.9768 23.024 32.8735 23.1905V22.9383H32.4412V24.9559H32.8735V23.8198C32.8735 23.4843 33.0176 23.2934 33.2866 23.2934C33.3683 23.2934 33.4716 23.3154 33.5557 23.335L33.6806 22.9187C33.5965 22.8967 33.474 22.8967 33.3899 22.8967ZM28.9175 24.9999C28.2786 24.9999 27.8655 24.5592 27.8655 23.9495C27.8655 23.3399 28.2786 22.8967 28.9175 22.8992C29.2058 22.8992 29.4123 22.9604 29.6189 23.1293L29.4123 23.4868C29.2466 23.3619 29.0809 23.2982 28.8959 23.2982C28.5452 23.3178 28.2978 23.57 28.2978 23.9495C28.2978 24.3486 28.5452 24.6008 28.8959 24.6008C29.0833 24.6008 29.2466 24.5396 29.4123 24.4123L29.6189 24.7698C29.4123 24.9363 29.2058 24.9999 28.9175 24.9999ZM31.8647 23.9495V22.9408H31.4324V23.193C31.2882 23.0044 31.0817 22.8992 30.8127 22.8992C30.2554 22.8992 29.8231 23.3399 29.8231 23.9495C29.8231 24.5592 30.2554 24.9999 30.8127 24.9999C31.1009 24.9999 31.3075 24.8946 31.4324 24.7061V24.9583H31.8647V23.9495ZM30.8751 23.2982C30.5028 23.2982 30.277 23.5921 30.277 23.9495C30.277 24.3046 30.5052 24.5788 30.8751 24.6008C31.2258 24.6008 31.4732 24.307 31.4732 23.9495C31.4732 23.5725 31.2258 23.2982 30.8751 23.2982ZM25.1033 22.8967C24.5268 22.8967 24.1137 23.3178 24.1137 23.9471C24.1137 24.5788 24.5268 24.9975 25.1249 24.9975C25.4131 24.9975 25.7014 24.9142 25.9296 24.7232L25.723 24.4074C25.5573 24.5347 25.3507 24.618 25.1465 24.618C24.8775 24.618 24.6109 24.4906 24.5484 24.1356H26.0112V23.9667C26.0304 23.3178 25.6581 22.8967 25.1033 22.8967ZM25.5981 23.7586C25.5573 23.4452 25.3723 23.2762 25.1033 23.2762C24.7934 23.2762 24.6085 23.4868 24.5677 23.7586H25.5981ZM34.8551 23.2982C34.4828 23.2982 34.257 23.5921 34.257 23.9495C34.257 24.3046 34.4828 24.5788 34.8551 24.6008C35.2058 24.6008 35.4532 24.307 35.4532 23.9495C35.4532 23.5725 35.2058 23.2982 34.8551 23.2982ZM19.783 23.9495V22.9408H19.3507V23.193C19.2066 23.0044 19 22.8992 18.731 22.8992C18.1737 22.8992 17.7414 23.3399 17.7414 23.9495C17.7414 24.5592 18.1737 24.9999 18.731 24.9999C19.0192 24.9999 19.2258 24.8946 19.3507 24.7061V24.9583H19.783V23.9495ZM18.7742 23.2982C18.4019 23.2982 18.1762 23.5921 18.1762 23.9495C18.1762 24.3046 18.4019 24.5788 18.7742 24.6008C19.1249 24.6008 19.3723 24.307 19.3723 23.9495C19.3723 23.5725 19.1249 23.2982 18.7742 23.2982Z" fill="black"/>
<rect x="21.743" y="7.61841" width="6.4948" height="11.8946" fill="#FF5A00"/>
<path d="M22.1753 13.5657C22.1753 11.1491 23.2898 9.00425 25 7.61843C23.7414 6.60967 22.1537 6 20.4219 6C16.3195 6 13 9.38376 13 13.5657C13 17.7477 16.3195 21.1314 20.4219 21.1314C22.1537 21.1314 23.7414 20.5218 25 19.513C23.2874 18.1468 22.1753 15.9823 22.1753 13.5657Z" fill="#EB001B"/>
<path d="M37 13.5657C37 17.7477 33.6805 21.1314 29.5781 21.1314C27.8463 21.1314 26.2586 20.5218 25 19.513C26.7318 18.1247 27.8247 15.9823 27.8247 13.5657C27.8247 11.1491 26.7102 9.00425 25 7.61843C26.2562 6.60967 27.8439 6 29.5757 6C33.6805 6 37 9.4058 37 13.5657Z" fill="#F79E1B"/>
</svg>
