<svg width="50" height="30" viewBox="0 0 50 30" fill="none" xmlns="http://www.w3.org/2000/svg">
<rect width="50" height="30" rx="4" fill="white"/>
<path d="M19.2 20.712L21.0285 10.3455H23.8857L22.1142 20.712H19.2Z" fill="#3C58BF"/>
<path d="M19.2 20.712L21.5428 10.3455H23.8857L22.1142 20.712H19.2Z" fill="#293688"/>
<path d="M32.4571 10.4607C31.8857 10.2304 30.9714 10 29.8285 10C26.9714 10 24.9142 11.4398 24.9142 13.5131C24.9142 15.0681 26.3428 15.8743 27.4857 16.3927C28.6285 16.911 28.9714 17.2565 28.9714 17.7173C28.9714 18.4084 28.0571 18.7539 27.2571 18.7539C26.1142 18.7539 25.4857 18.5812 24.5142 18.178L24.1142 18.0052L23.7142 20.3665C24.3999 20.6545 25.6571 20.9424 26.9714 20.9424C29.9999 20.9424 31.9999 19.5026 31.9999 17.3141C31.9999 16.1047 31.2571 15.1832 29.5428 14.4346C28.5142 13.9162 27.8857 13.6283 27.8857 13.1099C27.8857 12.6492 28.3999 12.1885 29.5428 12.1885C30.5142 12.1885 31.1999 12.3613 31.7142 12.5916L31.9999 12.7068L32.4571 10.4607Z" fill="#3C58BF"/>
<path d="M32.4571 10.4607C31.8857 10.2304 30.9714 10 29.8285 10C26.9714 10 25.4285 11.4398 25.4285 13.5131C25.4285 15.0681 26.3428 15.8743 27.4857 16.3927C28.6285 16.911 28.9714 17.2565 28.9714 17.7173C28.9714 18.4084 28.0571 18.7539 27.2571 18.7539C26.1142 18.7539 25.4857 18.5812 24.5142 18.178L24.1142 18.0052L23.7142 20.3665C24.3999 20.6545 25.6571 20.9424 26.9714 20.9424C29.9999 20.9424 31.9999 19.5026 31.9999 17.3141C31.9999 16.1047 31.2571 15.1832 29.5428 14.4346C28.5142 13.9162 27.8857 13.6283 27.8857 13.1099C27.8857 12.6492 28.3999 12.1885 29.5428 12.1885C30.5142 12.1885 31.1999 12.3613 31.7142 12.5916L31.9999 12.7068L32.4571 10.4607Z" fill="#293688"/>
<path fill-rule="evenodd" clip-rule="evenodd" d="M35.8857 11.0942C36.1714 10.4031 36.6857 10.3455 37.3714 10.3455H39.6L42 20.712H39.2571L38.9143 18.9842H35.2571L34.6857 20.712H31.6L35.8857 11.0942ZM37.2 14.2041C37.2 14.2041 36.2285 16.7381 36.0571 17.2565V17.314H38.4571C38.3428 16.7381 37.7714 14.1465 37.7714 14.1465L37.6 13.1674C37.4285 13.5706 37.2 14.2041 37.2 14.2041Z" fill="#3C58BF"/>
<path fill-rule="evenodd" clip-rule="evenodd" d="M36.5714 11.0942C36.8571 10.4031 37.3714 10.3455 38.0571 10.3455H39.6L42 20.712H39.2571L38.9143 18.9842H35.2571L34.6857 20.712H31.6L36.5714 11.0942ZM37.2 14.2041C37.2 14.2041 36.2857 16.6805 36.0571 17.2565V17.314H38.4571C38.3428 16.7381 37.7714 14.1465 37.7714 14.1465L37.6 13.1674C37.4285 13.5706 37.2 14.2041 37.2 14.2041Z" fill="#293688"/>
<path d="M13.9428 17.602L13.6571 16.1046C13.1428 14.3769 11.4857 12.4764 9.6571 11.5549L12.2285 20.7696H15.3142L19.9428 10.4031H16.8571L13.9428 17.602Z" fill="#3C58BF"/>
<path d="M13.9428 17.602L13.6571 16.1046C13.1428 14.3769 11.4857 12.4764 9.6571 11.5549L12.2285 20.7696H15.3142L19.9428 10.4031H17.4285L13.9428 17.602Z" fill="#293688"/>
<path d="M6 10.3455L6.51429 10.4606C10.1714 11.3245 12.6857 13.513 13.6571 16.1046L12.6286 11.2093C12.4571 10.5182 11.9429 10.3455 11.3143 10.3455H6V10.3455Z" fill="#FFBC00"/>
<path d="M6 10.3455C9.65714 11.2093 12.6857 13.4554 13.6571 16.047L12.6857 11.958C12.5143 11.2669 11.9429 10.8638 11.3143 10.8638L6 10.3455Z" fill="#F7981D"/>
<path d="M6 10.3455C9.65714 11.2093 12.6857 13.4554 13.6571 16.047L12.9714 13.801C12.8 13.1099 12.5714 12.4188 11.7714 12.1308L6 10.3455Z" fill="#ED7C00"/>
<path d="M16.7999 17.2565L14.8571 15.2984L13.9428 17.4868L13.7142 16.0471C13.1999 14.3193 11.5428 12.4188 9.71423 11.4973L12.2857 20.712H15.3714L16.7999 17.2565Z" fill="#051244"/>
<path d="M22.1142 20.712L19.6571 18.178L19.2 20.712H22.1142Z" fill="#051244"/>
<path d="M28.6857 17.1414C28.9142 17.3717 29.0285 17.5445 28.9714 17.7749C28.9714 18.466 28.0571 18.8115 27.2571 18.8115C26.1142 18.8115 25.4857 18.6387 24.5142 18.2356L24.1142 18.0628L23.7142 20.4241C24.3999 20.712 25.6571 21 26.9714 21C28.7999 21 30.2857 20.4817 31.1428 19.5602L28.6857 17.1414Z" fill="#051244"/>
<path d="M32 20.712H34.6857L35.2571 18.9842H38.9143L39.2571 20.712H42L41.0286 16.5078L37.6 13.1675L37.7714 14.0889C37.7714 14.0889 38.3429 16.6806 38.4571 17.2565H36.0571C36.2857 16.6806 37.2 14.2041 37.2 14.2041C37.2 14.2041 37.4286 13.5706 37.6 13.1675" fill="#051244"/>
</svg>
