<svg width="50" height="30" viewBox="0 0 50 30" fill="none" xmlns="http://www.w3.org/2000/svg">
<rect width="50" height="30" rx="4" fill="white"/>
<path d="M10.0857 12.2056H11.3428L10.7143 10.5435L10.0857 12.2056Z" fill="#2FABF7"/>
<path d="M25.6857 10.7808C25.5714 10.7214 25.4 10.7214 25.2286 10.7214H24.0857V11.6712H25.2286C25.4 11.6712 25.5714 11.6712 25.6857 11.6118C25.8 11.5525 25.8571 11.3744 25.8571 11.1963C25.9143 10.9589 25.8 10.8402 25.6857 10.7808Z" fill="#228FE0"/>
<path fill-rule="evenodd" clip-rule="evenodd" d="M37.5714 9L37.9143 9.71233V9H40.4857V14.8174H37.8L37.2857 13.9269V14.8174H33.9714L33.6286 13.8676H32.8286L32.4857 14.8174H30.7714C30.0857 14.8174 29.5714 14.6393 29.2286 14.4612V14.8174H25.1143V13.5114C25.1143 13.4093 25.1143 13.3657 25.0927 13.3472C25.0767 13.3333 25.0488 13.3333 25 13.3333H24.8857V14.8767H16.9429V14.1644L16.6571 14.8767H15L14.7143 14.1644V14.8767H11.4L11.0571 13.9269H10.2571L9.91429 14.8767H8.31429H7L8.31429 11.79L9.45714 9H11.9143L12.2571 9.71233V9H15.1714L15.8 10.484L16.4286 9H25.6286C26.0857 9 26.4286 9.11872 26.7143 9.35616V9H29.2857V9.35616C29.7429 9.11872 30.2571 9 30.8857 9H34.5429L34.8857 9.71233V9H37.5714ZM17.6286 13.9863H18.6V9.83105H17L15.8571 12.6804L14.6 9.83105H13.0571V13.8082L11.4571 9.83105H10.0286L8.31429 14.0457H9.4L9.74286 13.0959H11.6857L12.0857 13.9863H14.0286V10.7215L15.4 13.9863H16.2571L17.6286 10.7215V13.9863ZM22.4857 10.7215H20.2571V11.4932H22.4286V12.3242H20.2571V13.1553H22.4857V14.0457H19.2857V9.83105H22.4857V10.7215ZM26.9429 13.2146C26.9429 12.8584 26.8857 12.6804 26.7714 12.4429C26.6571 12.3242 26.4857 12.1461 26.2 12.0868C26.4857 11.968 26.8857 11.6119 26.8857 10.9589C26.8857 10.484 26.7143 10.1872 26.4286 10.0091C26.1429 9.83105 25.8 9.83105 25.2857 9.83105H23.1143V14.0457H24.0857V12.5023H25.1143C25.4571 12.5023 25.6286 12.5023 25.8 12.6804C25.9714 12.9178 25.9714 13.274 25.9714 13.5114V14.0457H26.9429V13.2146ZM28.4857 13.9863H27.5143V9.77169H28.4857V13.9863ZM38.3714 13.9863H39.6286V9.89041H38.6571V12.7991L37 9.89041H35.5714V13.8676L33.9714 9.89041H32.5429L31.2286 13.1553H30.8286C30.5429 13.1553 30.3143 13.0959 30.1429 12.9178C29.9143 12.6804 29.8571 12.3836 29.8571 11.9087C29.8571 11.4932 29.9714 11.137 30.1429 10.9589C30.3714 10.7808 30.5429 10.7215 30.8857 10.7215H31.8V9.83105H30.8857C30.2571 9.83105 29.7429 9.94977 29.4571 10.3059C29.0571 10.7808 28.9429 11.3744 28.9429 11.968C28.9429 12.7397 29.1143 13.2146 29.4571 13.5708C29.8 13.9269 30.3714 14.0457 30.8286 14.0457H31.9143L32.2571 13.0959H34.2571L34.6 13.9863H36.5429V10.8402L38.3714 13.9863Z" fill="#0571C1"/>
<path d="M32.6 12.2056H33.9143L33.2857 10.5435L32.6 12.2056Z" fill="#228FE0"/>
<path d="M22.8857 20.7534V17.3699L21.4 19.032L22.8857 20.7534Z" fill="#228FE0"/>
<path d="M16.7715 17.7854V18.5571H18.8858V19.3881H16.7715V20.2786H19.1143L20.2001 19.032L19.1715 17.7854H16.7715Z" fill="#2FABF7"/>
<path d="M25.0572 17.7854H23.8572V18.8539H25.1143C25.4572 18.8539 25.6857 18.6758 25.6857 18.3196C25.6286 17.9635 25.4 17.7854 25.0572 17.7854Z" fill="#228FE0"/>
<path fill-rule="evenodd" clip-rule="evenodd" d="M42.7143 16.1233V18.7945C42.8857 19.0913 43 19.5069 43 19.9224C43 20.6941 42.6572 21.347 42.0857 21.7032C41.7429 21.9406 41.2286 22 40.7143 22H38.2572V21.6438C37.9714 21.8813 37.4572 22 36.9429 22H29.1714V20.6347C29.1714 20.5445 29.1714 20.5 29.1492 20.478C29.1275 20.4566 29.0846 20.4566 29 20.4566H28.8857V22H26.3143V20.3973C25.9143 20.5753 25.4 20.5753 25 20.5753H24.6V21.9406H21.5143L20.7714 21.0502L19.9714 21.9406H14.9429V16.1233H20.0857L20.8286 17.0137L21.6286 16.1233H25.0572C25.4 16.1233 26.0857 16.1827 26.3714 16.4795V16.1233H29.4572C29.7429 16.1233 30.3714 16.1827 30.7143 16.4795V16.1233H35.3429V16.4795C35.5714 16.242 36.0857 16.1233 36.4857 16.1233H39.1143V16.4795C39.4 16.242 39.8 16.1233 40.3143 16.1233H42.0286H42.7143ZM23.8572 19.7443H25C25.8572 19.7443 26.6572 19.5069 26.7143 18.3196C26.7143 17.1918 25.8572 16.9543 25.1143 16.9543H22.0857L20.8857 18.3196L19.7429 16.9543H15.9143V21.169H19.6857L20.8857 19.8037L22.0286 21.169H23.8572V19.7443ZM30.7143 19.5069C30.8286 19.6849 30.8857 19.9224 30.8857 20.2785V21.1096H29.9143V20.5753C29.9143 20.3379 29.9143 19.9224 29.7429 19.7443C29.6286 19.5662 29.4 19.5662 29.0572 19.5662H28.0286V21.1096H27.0572V16.895H29.2286C29.6857 16.895 30.0857 16.895 30.3714 17.0731C30.6572 17.2511 30.8857 17.5479 30.8857 18.0228C30.8857 18.6758 30.4857 19.032 30.2 19.1507C30.4857 19.2694 30.6572 19.3881 30.7143 19.5069ZM32.4286 17.7854H34.6572V16.895H31.4572V21.1096H34.6572V20.2192H32.4286V19.3881H34.6V18.5571H32.4286V17.7854ZM37.0572 21.1096H35.2286V20.2192H37.0572C37.2286 20.2192 37.3429 20.2192 37.4572 20.1005C37.5143 20.0411 37.5714 19.9224 37.5714 19.8037C37.5714 19.6849 37.5143 19.5662 37.4572 19.5069C37.4 19.4475 37.2857 19.3881 37.1143 19.3881C37.0389 19.3832 36.9624 19.3792 36.8854 19.375C36.0284 19.3293 35.1143 19.2805 35.1143 18.0822C35.1143 17.4886 35.4572 16.8356 36.4857 16.8356H38.3714V17.8448H36.6C36.4286 17.8448 36.3143 17.8448 36.2 17.9041C36.0857 17.9635 36.0857 18.0822 36.0857 18.2009C36.0857 18.379 36.2 18.4384 36.3143 18.4977C36.4286 18.5571 36.5429 18.5571 36.6572 18.5571H37.1714C37.6857 18.5571 38.0286 18.6758 38.2572 18.9132C38.4286 19.0913 38.5429 19.3881 38.5429 19.8037C38.5429 20.6941 38.0286 21.1096 37.0572 21.1096ZM40.7714 21.1096C41.3429 21.1096 41.7429 20.9315 41.9714 20.6941C42.2 20.4566 42.3143 20.1598 42.3143 19.8037C42.3143 19.5069 42.2572 19.21 42.0857 18.9726C42.0857 18.9726 42.0857 18.9132 42.0286 18.9132C41.8 18.6758 41.4572 18.5571 40.9429 18.5571H40.4286C40.3143 18.5571 40.2 18.5571 40.0857 18.4977C39.9143 18.4384 39.8572 18.379 39.8572 18.2009C39.8572 18.0822 39.8572 17.9635 39.9714 17.9041C40.0857 17.8448 40.2 17.8448 40.3714 17.8448H42.0857V16.8356H40.2C39.1714 16.8356 38.8286 17.4886 38.8286 18.0822C38.8286 19.2805 39.7427 19.3293 40.5997 19.375C40.6767 19.3792 40.7532 19.3832 40.8286 19.3881C41 19.3881 41.1143 19.4475 41.1714 19.5069C41.2286 19.5662 41.2857 19.6849 41.2857 19.8037C41.2857 19.9224 41.2286 20.0411 41.1714 20.1005C41.0572 20.2192 40.9429 20.2192 40.7714 20.2192H38.9429V21.1096H40.7714Z" fill="#0571C1"/>
<path d="M29.6857 17.9041C29.5714 17.8447 29.4 17.8447 29.2286 17.8447H28.0857V18.7945H29.2286C29.4 18.7945 29.5714 18.7945 29.6857 18.7351C29.8 18.6758 29.8571 18.4977 29.8571 18.3196C29.9143 18.0822 29.8 17.9634 29.6857 17.9041Z" fill="#228FE0"/>
<path d="M25.6857 10.7808C25.5714 10.7214 25.4 10.7214 25.2286 10.7214H24.0857V11.6712H25.2286C25.4 11.6712 25.5714 11.6712 25.6857 11.6118C25.8 11.5525 25.8571 11.3744 25.8571 11.1963C25.9143 10.9589 25.8 10.8402 25.6857 10.7808Z" fill="#228FE0"/>
<path d="M32.6 12.2056H33.9143L33.2857 10.5435L32.6 12.2056Z" fill="#228FE0"/>
<path d="M22.8857 20.7534V17.3699L21.4 19.032L22.8857 20.7534Z" fill="#228FE0"/>
<path d="M25.0572 17.7854H23.8572V18.8539H25.1143C25.4572 18.8539 25.6857 18.6758 25.6857 18.3196C25.6286 17.9635 25.4 17.7854 25.0572 17.7854Z" fill="#228FE0"/>
<path d="M29.6857 17.9041C29.5714 17.8447 29.4 17.8447 29.2286 17.8447H28.0857V18.7945H29.2286C29.4 18.7945 29.5714 18.7945 29.6857 18.7351C29.8 18.6758 29.8571 18.4977 29.8571 18.3196C29.9143 18.0822 29.8 17.9634 29.6857 17.9041Z" fill="#228FE0"/>
<path d="M24.6572 20.9909L23.8572 20.1005V21.1096H21.9714L20.8286 19.7443L19.5714 21.1096H15.8V16.9543H19.6286L20.8286 18.3196L21.4 17.6073L19.9714 16.1233H14.9429V21.9406H19.9714L20.8286 21.0502L21.5714 21.9406H24.6572V20.9909Z" fill="#2FABF7"/>
<path d="M18.7143 14.8174L17.9714 13.9863H17.6286V13.6301L16.7714 12.7397L16.2 13.9863H15.4L14.0286 10.7215V13.9863H12.0857L11.6857 13.0959H9.74286L9.34286 13.9863H8.31429L10.0286 9.83105H11.4571L13.0571 13.8082V9.83105H13.9143L13.1143 9H12.2571V9.71233L11.9714 9H9.45714L8.31429 11.79L7 14.8174H8.31429H9.97143L10.3143 13.9269H11.1143L11.5143 14.8174H14.7143V14.105L15 14.8174H16.6571L16.9429 14.105V14.8174H18.7143Z" fill="#2FABF7"/>
<path d="M16.0857 12.0867L15.1714 11.137L15.8571 12.6803L16.0857 12.0867Z" fill="#2FABF7"/>
<path fill-rule="evenodd" clip-rule="evenodd" d="M43 20.041C42.9429 20.6939 42.6 21.2875 42.0857 21.6437C41.6857 21.8811 41.1714 21.9405 40.7143 21.8811H38.2572V21.525C37.9714 21.7624 37.4572 21.8811 36.9429 21.8811H29.1714V20.5158C29.1714 20.3378 29.1714 20.3378 29 20.3378H28.8857V21.8811H26.3143V20.2784C25.9143 20.4565 25.4 20.4565 25 20.4565H24.7143V21.3469L23.8572 20.4565V19.5661H25C25.8572 19.5661 26.6572 19.3286 26.6572 18.1414C26.6572 17.0136 25.8 16.7761 25.0572 16.7761H22.0286L21.1714 17.7259L19.4572 15.9451H20.0857L20.8286 16.8355L21.6286 15.9451H25.0572C25.4 15.9451 26.0857 16.0044 26.3714 16.3012V15.9451H29.4572C29.7429 15.9451 30.3714 16.0044 30.7143 16.3012V15.9451H35.4V16.3012C35.6286 16.0638 36.1429 15.9451 36.5429 15.9451H39.1714V16.3012C39.2068 16.3012 39.2421 16.2786 39.2909 16.2472C39.321 16.2279 39.3564 16.2052 39.4 16.1825L40.0286 16.8355C39.1714 16.9542 38.8286 17.4884 38.8286 18.0821C38.8286 19.2803 39.7427 19.3291 40.5997 19.3749L40.5997 19.3749C40.6767 19.379 40.7532 19.3831 40.8286 19.388C41 19.388 41.1143 19.4474 41.1714 19.5067C41.2286 19.5661 41.2857 19.6848 41.2857 19.8035C41.2857 19.9222 41.2286 20.041 41.1714 20.1003C41.0572 20.219 40.9429 20.219 40.7714 20.219H38.9429V21.1095H40.7714C41.3429 21.1095 41.7429 20.9314 41.9714 20.6939C42.2 20.4565 42.3143 20.1597 42.3143 19.8035C42.3143 19.5661 42.2572 19.388 42.2 19.2099L43 20.041ZM30.8857 20.2784C30.8857 19.9222 30.8286 19.6848 30.7143 19.5067C30.6572 19.388 30.4857 19.2693 30.2 19.1505C30.4857 19.0318 30.8857 18.6757 30.8857 18.0227C30.8857 17.5478 30.6572 17.251 30.3714 17.0729C30.0857 16.8948 29.6857 16.8948 29.2286 16.8948H27.0572V21.1095H28.0286V19.5661H29.0572C29.4 19.5661 29.6286 19.5661 29.7429 19.7442C29.9143 19.9222 29.9143 20.3378 29.9143 20.5752V21.1095H30.8857V20.2784ZM34.6572 17.7853H32.4286V18.5569H34.6V19.388H32.4286V20.219H34.6572V21.1095H31.4572V16.8948H34.6572V17.7853ZM35.2286 21.1095H37.0572C38.0286 21.1095 38.5429 20.6939 38.5429 19.8035C38.5429 19.388 38.4286 19.0912 38.2572 18.9131C38.0286 18.6757 37.6857 18.5569 37.1714 18.5569H36.6572C36.5429 18.5569 36.4286 18.5569 36.3143 18.4976C36.2 18.4382 36.0857 18.3789 36.0857 18.2008C36.0857 18.0821 36.0857 17.9633 36.2 17.904C36.3143 17.8446 36.4286 17.8446 36.6 17.8446H38.3714V16.8355H36.4857C35.4572 16.8355 35.1143 17.4884 35.1143 18.0821C35.1143 19.2803 36.0284 19.3291 36.8854 19.3749C36.9624 19.379 37.0389 19.3831 37.1143 19.388C37.2857 19.388 37.4 19.4474 37.4572 19.5067C37.5143 19.5661 37.5714 19.6848 37.5714 19.8035C37.5714 19.9222 37.5143 20.041 37.4572 20.1003C37.3429 20.219 37.2286 20.219 37.0572 20.219H35.2286V21.1095Z" fill="#228FE0"/>
<path d="M39.7999 18.2009C39.7999 18.379 39.8571 18.4383 40.0285 18.4977C40.1428 18.5571 40.2571 18.5571 40.3714 18.5571H40.8856C41.2285 18.5571 41.4571 18.6164 41.6856 18.7351L40.8285 17.8447H40.3142C40.1428 17.8447 40.0285 17.8447 39.9142 17.9041C39.8571 17.9634 39.7999 18.0822 39.7999 18.2009Z" fill="#228FE0"/>
<path d="M37.7999 14.6392L37.9142 14.8172H37.9714L37.7999 14.6392Z" fill="#228FE0"/>
<path d="M34.6571 11.3745L35.6285 13.8083V12.3836L34.6571 11.3745Z" fill="#228FE0"/>
<path fill-rule="evenodd" clip-rule="evenodd" d="M25 13.3333H24.8857L24.8285 14.8767H18.2571L16.6 13.1552L17.5714 10.7808V14.0456H18.5428V9.83102H16.9428L15.9142 12.4429L15.5714 12.0867L14.6 9.89038H13.4571L12.6571 9.05933H15.1714L15.8 10.5433L16.4285 9.05933H25.6285C26.0857 9.05933 26.4285 9.17805 26.7142 9.41549V9.05933H29.2285V9.41549C29.6857 9.17805 30.2 9.05933 30.8285 9.05933H32.3142L33.1142 9.89038H32.5428L31.2285 13.1552H30.8285C30.5428 13.1552 30.3142 13.0959 30.1428 12.9178C29.9142 12.6803 29.8571 12.3835 29.8571 11.9086C29.8571 11.4931 29.9714 11.137 30.1428 10.9589C30.3714 10.7808 30.5428 10.7214 30.8857 10.7214H31.8V9.83102H30.8857C30.2571 9.83102 29.7428 9.94974 29.4571 10.3059C29.0571 10.7808 28.9428 11.3744 28.9428 11.968C28.9428 12.7397 29.1142 13.2146 29.4571 13.5707C29.8 13.9269 30.3714 14.0456 30.8285 14.0456H31.9142L32.2571 13.0959H34.2571L34.5428 14.0456H36.4857V13.3927L37.2857 14.2237V14.8173H33.9714L33.6285 13.8675H32.8285L32.4857 14.8173H30.7714C30.0857 14.8173 29.5714 14.6392 29.2285 14.4612V14.8173H25.1142V13.5114C25.1142 13.3333 25.1142 13.3333 25 13.3333ZM28.4857 9.83102H27.5142V14.0456H28.4857V9.83102ZM22.4857 10.7214H20.2571V11.4931H22.4285V12.3242H20.2571V13.1552H22.4857V14.0456H19.2857V9.83102H22.4857V10.7214ZM23.1142 13.9863H24.0857V12.5022H25.1142C25.4571 12.5022 25.6285 12.5022 25.6857 12.621C25.8571 12.8584 25.8571 13.2146 25.8571 13.452V13.9863H26.8285V13.1552C26.8285 12.7991 26.7714 12.621 26.6571 12.3835C26.6 12.2648 26.4285 12.0867 26.2 12.0274C26.4857 11.9086 26.8857 11.5525 26.8857 10.8995C26.8857 10.4246 26.7142 10.1278 26.4285 9.94974C26.1428 9.77165 25.8 9.77165 25.2857 9.77165H23.1142V13.9863Z" fill="#228FE0"/>
</svg>
