<svg width="26" height="26" viewBox="0 0 26 26" fill="none" xmlns="http://www.w3.org/2000/svg">
<path fill-rule="evenodd" clip-rule="evenodd" d="M13 6.09375C14.6801 6.09375 16.0469 4.72702 16.0469 3.04688C16.0469 1.36673 14.6801 0 13 0C11.3199 0 9.95312 1.36673 9.95312 3.04688C9.95312 4.72702 11.3199 6.09375 13 6.09375ZM13 2.03125C13.56 2.03125 14.0156 2.48689 14.0156 3.04688C14.0156 3.60686 13.56 4.0625 13 4.0625C12.44 4.0625 11.9844 3.60686 11.9844 3.04688C11.9844 2.48689 12.44 2.03125 13 2.03125ZM16.8602 19.2013C17.9246 18.5625 18.5859 17.3946 18.5859 16.1532V11.6289C18.5859 10.0989 17.9682 8.86569 16.7995 8.06271C15.8434 7.40573 14.5207 7.05859 12.9746 7.05859C11.4286 7.05859 10.1059 7.40573 9.14975 8.06271C7.98099 8.86569 7.36328 10.0989 7.36328 11.6289V16.1385C7.36328 17.3926 8.03474 18.5667 9.11583 19.2027L9.20212 19.2534C9.6653 19.5258 9.95312 20.0288 9.95312 20.5664V24.9844C9.95312 25.5453 10.4078 26 10.9688 26C11.5297 26 11.9844 25.5453 11.9844 24.9844V20.5664C11.9844 19.3123 11.3129 18.1384 10.2318 17.5025L10.1455 17.4517C9.68236 17.1791 9.39453 16.6761 9.39453 16.1385V11.6289C9.39453 9.53041 11.3415 9.08984 12.9746 9.08984C14.6077 9.08984 16.5547 9.53041 16.5547 11.6289V16.1532C16.5547 16.6852 16.2712 17.1859 15.8148 17.4596L15.7414 17.5037C14.677 18.1424 14.0156 19.3104 14.0156 20.5517V24.9844C14.0156 25.5453 14.4703 26 15.0312 26C15.5922 26 16.0469 25.5453 16.0469 24.9844V20.5517C16.0469 20.0197 16.3303 19.5192 16.7868 19.2453L16.8602 19.2013Z" fill="white"/>
<path opacity="0.5" fill-rule="evenodd" clip-rule="evenodd" d="M5.07812 8.125C6.75827 8.125 8.125 6.75827 8.125 5.07812C8.125 3.39798 6.75827 2.03125 5.07812 2.03125C3.39798 2.03125 2.03125 3.39798 2.03125 5.07812C2.03125 6.75827 3.39798 8.125 5.07812 8.125ZM5.07812 4.0625C5.63811 4.0625 6.09375 4.51814 6.09375 5.07812C6.09375 5.63811 5.63811 6.09375 5.07812 6.09375C4.51814 6.09375 4.0625 5.63811 4.0625 5.07812C4.0625 4.51814 4.51814 4.0625 5.07812 4.0625ZM8.125 24.9844V21.4297C8.125 20.8687 7.67035 20.4141 7.10938 20.4141C6.5484 20.4141 6.09375 20.8687 6.09375 21.4297V24.9844C6.09375 25.5453 6.5484 26 7.10938 26C7.67035 26 8.125 25.5453 8.125 24.9844ZM5.99219 10.1309C5.99219 10.6918 5.53754 11.1465 4.97656 11.1465C2.03125 11.1465 2.03125 12.5299 2.03125 13.0508V17.3672C2.03125 17.8443 2.25897 18.2997 2.64062 18.5859C3.53088 19.2536 4.0625 20.3169 4.0625 21.4297V24.9844C4.0625 25.5453 3.60785 26 3.04688 26C2.4859 26 2.03125 25.5453 2.03125 24.9844V21.4297C2.03125 20.9526 1.80353 20.4972 1.42188 20.2109C0.531616 19.5432 0 18.48 0 17.3672V13.0508C0 11.6779 0.563751 10.593 1.63016 9.91385C2.4621 9.38382 3.58801 9.11523 4.97656 9.11523C5.53754 9.11523 5.99219 9.56989 5.99219 10.1309ZM20.9219 8.125C22.602 8.125 23.9688 6.75827 23.9688 5.07812C23.9688 3.39798 22.602 2.03125 20.9219 2.03125C19.2417 2.03125 17.875 3.39798 17.875 5.07812C17.875 6.75827 19.2417 8.125 20.9219 8.125ZM20.9219 4.0625C21.4819 4.0625 21.9375 4.51814 21.9375 5.07812C21.9375 5.63811 21.4819 6.09375 20.9219 6.09375C20.3619 6.09375 19.9062 5.63811 19.9062 5.07812C19.9062 4.51814 20.3619 4.0625 20.9219 4.0625ZM19.9062 21.4297V24.9844C19.9062 25.5453 19.4516 26 18.8906 26C18.3297 26 17.875 25.5453 17.875 24.9844V21.4297C17.875 20.8687 18.3297 20.4141 18.8906 20.4141C19.4516 20.4141 19.9062 20.8687 19.9062 21.4297ZM26 17.3672V13.0508C26 11.6779 25.4362 10.593 24.3698 9.91385C23.5379 9.38382 22.412 9.11523 21.0234 9.11523C20.4625 9.11523 20.0078 9.56989 20.0078 10.1309C20.0078 10.6918 20.4625 11.1465 21.0234 11.1465C23.9688 11.1465 23.9688 12.5299 23.9688 13.0508V17.3672C23.9688 17.8443 23.741 18.2997 23.3594 18.5859C22.4691 19.2536 21.9375 20.3169 21.9375 21.4297V24.9844C21.9375 25.5453 22.3922 26 22.9531 26C23.5141 26 23.9688 25.5453 23.9688 24.9844V21.4297C23.9688 20.9526 24.1965 20.4972 24.5781 20.2109C25.4684 19.5432 26 18.48 26 17.3672Z" fill="white"/>
</svg>
