<svg width="38" height="30" viewBox="0 0 38 30" fill="none" xmlns="http://www.w3.org/2000/svg">
<path opacity="0.5" fill-rule="evenodd" clip-rule="evenodd" d="M14.5245 6.36213L14.5744 6.35389C11.3163 5.67315 6.68731 5.97451 4.64309 7.25796C3.87028 7.74401 3.19365 9.03182 2.66936 10.3424H0.556076L0.456876 10.3509C0.327123 10.3734 0.209255 10.4393 0.125191 10.5382C0.0195548 10.6613 -0.0226998 10.8242 0.011771 10.9808L0.324788 12.4283L0.357945 12.5294C0.444007 12.7218 0.643683 12.8512 0.869094 12.8512H1.49513L1.30518 13.0792C0.829235 13.7028 0.597343 14.4476 0.593883 15.1928C0.589991 16.2286 1.00197 17.1646 1.75533 17.8268L1.77979 17.8454V19.8707L1.79071 19.9997C1.85538 20.3774 2.19944 20.6667 2.61376 20.6667H4.56303L4.69825 20.6562C4.91321 20.6227 5.10065 20.5105 5.22445 20.3524C5.00091 19.7896 4.88557 19.1766 4.88799 18.5357C4.8906 17.978 4.98781 17.4205 5.18552 16.8901C5.03368 16.9344 4.87246 16.9582 4.70536 16.9582C3.79967 16.9582 3.06466 16.2572 3.06466 15.3923C3.06466 14.6532 3.60138 14.0343 4.32267 13.8698L4.08759 12.792C4.04019 12.5785 4.09829 12.3564 4.24354 12.1885C4.38803 12.0199 4.60514 11.9215 4.83601 11.9215H7.74178C7.84283 11.671 7.94801 11.4211 8.05708 11.1747L4.12659 11.175L4.23147 10.9042C4.68848 9.74807 5.17469 8.82859 5.55879 8.58716C6.5939 7.93691 8.62337 7.60275 10.6771 7.58438C11.6565 7.0331 13.0028 6.62568 14.5245 6.36213ZM35.2077 10.0403C34.7043 8.83655 34.0705 7.70613 33.3577 7.25796C31.3137 5.97467 26.6856 5.67323 23.4283 6.35382C24.9702 6.61714 26.3349 7.02744 27.3246 7.58472C27.3237 7.58471 27.3227 7.5847 27.3217 7.58469L27.5455 7.7154C27.4741 7.67098 27.4005 7.62742 27.3246 7.58472C29.3797 7.60336 31.4061 7.9375 32.4397 8.58716L32.5301 8.6545C32.8678 8.94419 33.2714 9.69594 33.6618 10.6416L33.8731 11.175L29.9449 11.1747C30.0536 11.421 30.1582 11.6709 30.2586 11.9215H33.1644C33.3929 11.9215 33.6108 12.0199 33.7568 12.1885C33.9021 12.3578 33.9579 12.5785 33.9135 12.7905L33.6785 13.8653C34.4106 14.0226 34.9567 14.6463 34.9567 15.3923C34.9567 16.2572 34.2217 16.9582 33.316 16.9582C33.1309 16.9582 32.9529 16.9289 32.789 16.874C33.0083 17.4389 33.1147 18.0367 33.1124 18.6341C33.1093 19.221 33.002 19.8084 32.7828 20.3645C32.9356 20.5484 33.1717 20.6667 33.4366 20.6667H35.3859L35.5208 20.6562C35.9163 20.5944 36.2199 20.2657 36.2199 19.8707V17.8852L36.4111 17.7051C37.0804 17.0261 37.4017 16.1449 37.4063 15.265C37.4097 14.398 37.1033 13.5293 36.4634 12.8501H37.1311L37.2417 12.8397C37.4567 12.7984 37.6306 12.6387 37.6754 12.4267L37.989 10.9797L37.9998 10.886C38.0024 10.761 37.9595 10.6376 37.875 10.5382C37.7688 10.4146 37.6104 10.3424 37.4441 10.3424H35.3308L35.2077 10.0403Z" fill="white"/>
<path fill-rule="evenodd" clip-rule="evenodd" d="M31.8766 12.8601C32.0844 12.8601 32.2825 12.952 32.4152 13.1093C32.5473 13.2673 32.598 13.4733 32.5577 13.6712L32.1657 15.5128C32.1004 15.8275 31.8154 16.0517 31.4853 16.0517H30.6507C31.4506 16.9162 31.8335 18.0217 31.8293 19.1252C31.8231 20.3468 31.3456 21.5705 30.3463 22.46V24.987C30.3463 25.5455 29.8778 26 29.3038 26H26.8672C26.2918 26 25.8247 25.5455 25.8247 24.987V23.9511H12.1747V24.987C12.1747 25.5455 11.7077 26 11.1323 26H8.69567C8.12023 26 7.6532 25.5455 7.6532 24.987V22.4093C7.64793 22.4045 7.64244 22.4006 7.63687 22.3965L7.63685 22.3965C7.63216 22.3931 7.62739 22.3897 7.62263 22.3857C6.68093 21.5429 6.16596 20.3516 6.17082 19.0333C6.17569 17.9663 6.54194 16.8999 7.29738 16.0531H6.51483C6.18611 16.0531 5.90117 15.8289 5.83445 15.5148L5.44318 13.6725C5.40009 13.4733 5.45291 13.266 5.58496 13.1093C5.71631 12.952 5.91368 12.8601 6.12356 12.8601H8.76517C9.42053 11.192 10.2663 9.55302 11.2323 8.93442C14.5717 6.79969 23.4292 6.79969 26.7685 8.93442C27.7338 9.55234 28.5831 11.1893 29.235 12.8601H31.8766ZM25.6211 10.6261C22.9608 8.92361 15.0387 8.92361 12.377 10.6261C11.8599 10.957 11.1948 12.2888 10.5867 13.9197H27.4128C26.8033 12.2881 26.1382 10.9557 25.6211 10.6261ZM9.25929 19.2872C9.25929 18.1865 10.1781 17.295 11.3102 17.295C12.4437 17.295 13.361 18.1865 13.361 19.2872C13.361 20.388 12.4437 21.2801 11.3102 21.2801C10.1781 21.2801 9.25929 20.388 9.25929 19.2872ZM24.6655 19.2872C24.6655 20.388 25.5843 21.2801 26.7164 21.2801C27.8485 21.2801 28.7673 20.388 28.7673 19.2872C28.7673 18.1865 27.8499 17.295 26.7164 17.295C25.5843 17.295 24.6655 18.1865 24.6655 19.2872Z" fill="white"/>
</svg>
