<svg width="26" height="26" viewBox="0 0 26 26" fill="none" xmlns="http://www.w3.org/2000/svg">
<path fill-rule="evenodd" clip-rule="evenodd" d="M16.854 16.9532L14.9321 13.4828C14.2227 12.2139 12.8272 11.4258 11.2897 11.4258H6.58371C5.04758 11.4258 3.65248 12.2129 2.94095 13.4836L1.03308 16.9221C1.01364 16.9572 0.997177 16.9929 0.9823 17.0292C0.37114 17.6842 0 18.5385 0 19.4726V24.9844C0 25.5453 0.454651 26 1.01562 26H3.70108C4.26186 26 4.71671 25.5453 4.71671 24.9844V24.4766H13.1583V24.9844C13.1583 25.5453 13.6131 26 14.1739 26H16.8594C17.4203 26 17.875 25.5453 17.875 24.9844V19.4492C17.875 18.5282 17.5201 17.6653 16.8715 16.9891C16.8692 16.9845 16.867 16.9798 16.8649 16.9752L16.8648 16.9751C16.8614 16.9677 16.858 16.9604 16.854 16.9532ZM6.58371 13.457H11.2897C12.08 13.457 12.8137 13.8561 13.1569 14.4703L13.8613 15.7422H4.01073L4.71512 14.4725C5.06047 13.8557 5.79402 13.457 6.58371 13.457ZM12.1494 22.4453H15.8438V19.4492C15.8438 18.5252 14.9592 17.7734 13.872 17.7734H4.00319C2.91576 17.7734 2.03125 18.5358 2.03125 19.4726V22.4453H5.81624L6.66107 21.2115C6.85031 20.935 7.16393 20.7695 7.49896 20.7695H10.4163C10.7418 20.7695 11.0475 20.9254 11.2385 21.1891L12.1494 22.4453ZM14.4727 20.1602C14.4727 20.7211 14.018 21.1758 13.457 21.1758C12.8961 21.1758 12.4414 20.7211 12.4414 20.1602C12.4414 19.5992 12.8961 19.1445 13.457 19.1445C14.018 19.1445 14.4727 19.5992 14.4727 20.1602ZM4.36719 21.1758C4.92816 21.1758 5.38281 20.7211 5.38281 20.1602C5.38281 19.5992 4.92816 19.1445 4.36719 19.1445C3.80621 19.1445 3.35156 19.5992 3.35156 20.1602C3.35156 20.7211 3.80621 21.1758 4.36719 21.1758Z" fill="white"/>
<path opacity="0.5" fill-rule="evenodd" clip-rule="evenodd" d="M2.03125 8.04684V9.69922C2.03125 10.2602 2.4859 10.7148 3.04688 10.7148C3.60785 10.7148 4.0625 10.2602 4.0625 9.69922V8.04684C4.0625 7.10997 4.94701 6.34766 6.03444 6.34766H8.53125C9.09222 6.34766 9.54688 5.89301 9.54688 5.33203C9.54688 4.77106 9.09222 4.31641 8.53125 4.31641H6.04198L6.74637 3.04668C7.09172 2.42996 7.82527 2.03125 8.61496 2.03125H13.321C13.893 2.03125 14.4007 2.18617 14.7502 2.46725C15.1872 2.81876 15.8265 2.74933 16.178 2.31233C16.5297 1.87534 16.4603 1.23601 16.0233 0.884308C15.3143 0.314209 14.3546 0 13.321 0H8.61496C7.07883 0 5.68373 0.787109 4.9722 2.05783L3.06433 5.49628C3.04489 5.53139 3.02843 5.56729 3.01355 5.60339C2.40239 6.25839 2.03125 7.11275 2.03125 8.04684ZM7.41406 8.73438C7.41406 8.1734 6.95941 7.71875 6.39844 7.71875C5.83746 7.71875 5.38281 8.1734 5.38281 8.73438C5.38281 9.29535 5.83746 9.75 6.39844 9.75C6.95941 9.75 7.41406 9.29535 7.41406 8.73438ZM21.582 14.2188C21.0211 14.2188 20.5664 13.7641 20.5664 13.2031C20.5664 12.6422 21.0211 12.1875 21.582 12.1875C22.143 12.1875 22.5977 12.6422 22.5977 13.2031C22.5977 13.7641 22.143 14.2188 21.582 14.2188ZM26 18.2812V12.2383C26 12.199 25.9972 12.1603 25.9929 12.1222C25.9415 11.2834 25.5938 10.5024 24.9965 9.87973C24.9942 9.87512 24.992 9.87046 24.9899 9.86579C24.9864 9.8584 24.983 9.851 24.979 9.84383L23.0571 6.37344C22.3477 5.10451 20.9522 4.31641 19.4147 4.31641H14.7087C13.1726 4.31641 11.7775 5.10352 11.0659 6.37424L10.2578 7.89291C9.8839 8.56676 10.3368 9.39453 11.1074 9.39453C11.5781 9.39453 11.832 9.14062 12.1171 8.68359L12.8401 7.36308C13.1855 6.74637 13.919 6.34766 14.7087 6.34766H19.4147C20.205 6.34766 20.9387 6.74677 21.2819 7.3609L21.9863 8.63281H14.7773C14.2174 8.63281 13.7629 9.08607 13.7617 9.64606C13.7603 10.2078 14.2156 10.6641 14.7773 10.6641H21.9968C23.0842 10.6641 23.9688 11.4159 23.9688 12.3398V15.7422H20.1094C19.5484 15.7422 19.0938 16.1968 19.0938 16.7578C19.0938 17.3188 19.5484 17.7734 20.1094 17.7734H21.2833V18.2812C21.2833 18.8422 21.7381 19.2969 22.2989 19.2969H24.9844C25.5453 19.2969 26 18.8422 26 18.2812Z" fill="white"/>
</svg>
