<svg width="30" height="30" viewBox="0 0 30 30" fill="none" xmlns="http://www.w3.org/2000/svg">
<path d="M19.3523 3.16383C19.2502 2.84294 18.9731 2.60857 18.6391 2.56142L16.6641 2.28081L15.7845 0.44426C15.4856 -0.148087 14.5142 -0.148087 14.2155 0.44426L13.3357 2.28081L11.3607 2.56142C11.0267 2.60857 10.7496 2.84294 10.6475 3.16383C10.5445 3.48495 10.6344 3.83606 10.8782 4.0686L12.2945 5.41603L11.9606 7.31461C11.9031 7.64328 12.0361 7.9763 12.3048 8.17383C12.5774 8.37524 12.9363 8.39836 13.2284 8.24844L14.9999 7.33864L16.7724 8.24844C17.0685 8.40202 17.4272 8.37135 17.695 8.17383C17.9637 7.97562 18.0967 7.64259 18.0392 7.31461L17.7053 5.41603L19.1216 4.0686C19.3654 3.83606 19.4553 3.48495 19.3523 3.16383Z" fill="white"/>
<path opacity="0.5" d="M29.9578 6.6795C29.8557 6.35861 29.5785 6.12423 29.2446 6.07708L27.211 5.79647L26.3312 4.05651C26.0325 3.4644 25.0609 3.4644 24.7622 4.05651L23.8826 5.79647L21.9076 6.07708C21.5736 6.12423 21.2964 6.35861 21.1944 6.6795C21.0914 7.00062 21.1813 7.35173 21.4251 7.58427L22.8414 8.9317L22.5075 10.8303C22.45 11.1589 22.583 11.492 22.8517 11.6895C23.1243 11.8909 23.4829 11.914 23.7752 11.7641L25.5468 10.8543L27.3192 11.7641C27.6154 11.9186 27.9722 11.8877 28.2419 11.6895C28.5106 11.4913 28.6435 11.1583 28.5861 10.8303L28.2522 8.9317L29.7271 7.58427C29.9708 7.35173 30.0608 7.00062 29.9578 6.6795Z" fill="white"/>
<path opacity="0.5" d="M8.80544 6.6795C8.70336 6.35861 8.42618 6.12423 8.09224 6.07708L6.11722 5.79647L5.23763 4.05651C4.93871 3.4644 3.96733 3.4644 3.66864 4.05651L2.78882 5.79647L0.755207 6.07708C0.421269 6.12423 0.144093 6.35861 0.0420115 6.6795C-0.0609853 7.00062 0.0289652 7.35173 0.272724 7.58427L1.74764 8.9317L1.4137 10.8303C1.35625 11.1589 1.48923 11.492 1.75794 11.6895C2.03054 11.8909 2.38942 11.914 2.68148 11.7641L4.45302 10.8543L6.22548 11.7641C6.52326 11.9186 6.87848 11.8877 7.14811 11.6895C7.41681 11.4913 7.54979 11.1583 7.49234 10.8303L7.15841 8.9317L8.57473 7.58427C8.81849 7.35173 8.90844 7.00062 8.80544 6.6795Z" fill="white"/>
<path d="M19.3945 15C19.3945 17.4271 17.4271 19.3945 15 19.3945C12.5729 19.3945 10.6055 17.4271 10.6055 15C10.6055 12.5729 12.5729 10.6055 15 10.6055C17.4271 10.6055 19.3945 12.5729 19.3945 15Z" fill="white"/>
<path d="M7.08984 18.5156C7.08984 19.9718 5.90927 21.1523 4.45312 21.1523C2.99698 21.1523 1.81641 19.9718 1.81641 18.5156C1.81641 17.0592 2.99698 15.8789 4.45312 15.8789C5.90927 15.8789 7.08984 17.0592 7.08984 18.5156Z" fill="white"/>
<path d="M28.1836 18.5156C28.1836 19.9718 27.003 21.1523 25.5469 21.1523C24.0907 21.1523 22.9102 19.9718 22.9102 18.5156C22.9102 17.0592 24.0907 15.8789 25.5469 15.8789C27.003 15.8789 28.1836 17.0592 28.1836 18.5156Z" fill="white"/>
<path d="M8.84766 30H21.1523V27.3047C21.1523 23.9067 18.3978 21.1523 15 21.1523C11.6022 21.1523 8.84766 23.9067 8.84766 27.3047V30Z" fill="white"/>
<path d="M26.3707 22.9862C24.7624 22.6902 23.2943 23.2828 22.3223 24.3396C22.6951 25.2569 22.9103 26.2551 22.9103 27.3047V30H29.1212C29.6067 30 30.0001 29.6066 30.0001 29.1211V27.491C30.0001 25.3434 28.4826 23.3746 26.3707 22.9862Z" fill="white"/>
<path d="M0.878906 30H7.08984V27.3047C7.08984 26.2551 7.30499 25.2569 7.67784 24.3396C6.70578 23.2828 5.23773 22.6902 3.62938 22.9862C1.51749 23.3746 0 25.3434 0 27.491V29.1211C0 29.6066 0.393448 30 0.878906 30Z" fill="white"/>
</svg>
