<svg width="22" height="22" viewBox="0 0 22 22" fill="none" xmlns="http://www.w3.org/2000/svg">
<path fill-rule="evenodd" clip-rule="evenodd" d="M21.2974 14.8507C21.7603 13.6238 22 12.323 22 11C22 8.06184 20.8558 5.29942 18.7782 3.22182C16.7006 1.14421 13.9382 0 11 0C8.06184 0 5.29942 1.14421 3.22182 3.22182C1.14421 5.29942 0 8.06184 0 11C0 13.9382 1.14421 16.7006 3.22182 18.7782C5.29942 20.8558 8.06184 22 11 22C13.0115 22 14.9796 21.4518 16.6917 20.4147C17.0977 20.1688 17.2274 19.6404 16.9816 19.2344C16.7355 18.8284 16.2071 18.6986 15.8013 18.9447C15.1727 19.3254 14.5031 19.6278 13.8072 19.8482C13.85 17.7033 14.2952 16.196 15.1327 15.3662C15.64 14.8638 16.3157 14.6092 17.1422 14.6092C17.1546 14.6092 17.1672 14.6092 17.1796 14.6094C17.99 14.6168 18.7825 14.8637 19.326 15.0809C19.1446 15.4484 18.9383 15.806 18.7075 16.1512C18.4437 16.5458 18.5497 17.0796 18.9442 17.3433C19.3388 17.6071 19.8725 17.501 20.1362 17.1066C20.5642 16.4663 20.9212 15.7905 21.2046 15.0892C21.2047 15.0887 21.2051 15.0884 21.2054 15.0879C21.2487 15.0119 21.2791 14.932 21.2974 14.8507ZM11 1.71875C15.5809 1.71875 19.3969 5.05504 20.147 9.42526C18.5549 8.8524 14.8474 7.69141 10.9565 7.69141C7.13852 7.69141 3.49742 8.80943 1.8584 9.39253C2.62193 5.03825 6.43037 1.71875 11 1.71875ZM4.86067 14.6092C4.03336 14.6092 3.22014 14.8627 2.66708 15.084C3.77538 17.336 5.7699 19.0764 8.19293 19.847C8.15332 17.8822 7.77399 16.4483 7.06366 15.5819C6.53293 14.9347 5.8226 14.6166 4.89206 14.6094C4.88148 14.6092 4.87108 14.6092 4.86067 14.6092ZM17.1954 12.8906C15.8961 12.8797 14.7635 13.3124 13.923 14.1453C12.7031 15.3539 12.0848 17.3894 12.0848 20.1953C12.0848 20.1995 12.0851 20.2036 12.0853 20.2078V20.2078L12.0858 20.2178C11.7268 20.2598 11.3642 20.2812 11 20.2812C10.6326 20.2812 10.2705 20.2591 9.9142 20.2175C9.91428 20.214 9.91453 20.2106 9.91478 20.2072L9.91479 20.2072C9.91508 20.2032 9.91537 20.1993 9.91537 20.1953C9.91537 13.8737 6.77647 12.9052 4.90532 12.8906C4.89055 12.8905 4.87611 12.8905 4.86151 12.8905C3.78108 12.8905 2.75856 13.199 2.05511 13.4776C1.86008 12.7745 1.74577 12.0381 1.72328 11.279C2.42807 11.0007 6.64555 9.41016 10.9565 9.41016C15.5072 9.41016 19.955 11.1824 20.2757 11.3129C20.2507 12.0479 20.1379 12.773 19.9412 13.4757C19.25 13.2021 18.2527 12.9004 17.1954 12.8906ZM13.0729 12.6758C13.5476 12.6758 13.9323 12.2911 13.9323 11.8164C13.9323 11.3417 13.5476 10.957 13.0729 10.957H8.89453C8.41986 10.957 8.03516 11.3417 8.03516 11.8164C8.03516 12.2911 8.41986 12.6758 8.89453 12.6758H13.0729Z" fill="white"/>
</svg>
