<svg width="30" height="30" viewBox="0 0 30 30" fill="none" xmlns="http://www.w3.org/2000/svg">
<path opacity="0.5" d="M29.5102 19.1064C28.9839 18.7303 28.2519 18.8513 27.8752 19.3766L22.0989 27.4301C21.9412 27.6127 21.7435 27.6522 21.6376 27.6592C21.5287 27.6664 21.3199 27.6526 21.1358 27.4804L17.4026 23.844C16.9395 23.3929 16.1975 23.4019 15.7455 23.8643C15.2935 24.3266 15.3026 25.0671 15.7658 25.5184L19.5053 29.1609C19.5087 29.1643 19.5123 29.1677 19.5158 29.171C20.0764 29.7037 20.8248 30.0001 21.5947 30.0001C21.6609 30.0001 21.7273 29.9979 21.7936 29.9934C22.6324 29.9376 23.4153 29.5305 23.9419 28.8765C23.9555 28.8595 23.9686 28.8423 23.9813 28.8247L29.781 20.7384C30.1577 20.2131 30.0365 19.4825 29.5102 19.1064Z" fill="#1886C4"/>
<path fill-rule="evenodd" clip-rule="evenodd" d="M15 15.9082C14.896 15.9082 14.7927 15.9062 14.6898 15.9022C8.73943 16.0458 3.58673 20.3051 2.37055 26.1359C2.29453 26.5002 2.38499 26.8736 2.61874 27.1605C2.75411 27.3266 3.05595 27.6053 3.55621 27.6053H13.8867C14.5339 27.6053 15.0586 28.129 15.0586 28.775C15.0586 29.421 14.534 29.9447 13.8867 29.9447H3.55626C2.48226 29.9447 1.47782 29.4679 0.800404 28.6364C0.119701 27.8009 -0.144397 26.7156 0.0760274 25.659C0.77933 22.2869 2.6424 19.2182 5.32201 17.0181C6.78332 15.8184 8.45297 14.9086 10.2324 14.3238C8.29019 12.8718 7.03116 10.557 7.03116 7.95407C7.03116 3.56817 10.6058 0 14.9999 0C19.3939 0 22.9686 3.56817 22.9686 7.95401C22.9686 10.5559 21.7105 12.8701 19.7696 14.3221C21.691 14.9536 23.482 15.9655 25.0289 17.3154C25.5162 17.7407 25.5659 18.4796 25.1399 18.966C24.714 19.4523 23.9737 19.502 23.4864 19.0768C21.2157 17.0953 18.3231 15.9745 15.3107 15.9022C15.2076 15.9062 15.104 15.9082 15 15.9082ZM15 2.33946C11.8983 2.33946 9.37499 4.85816 9.37499 7.95413C9.37499 10.9553 11.7462 13.414 14.717 13.5618C14.8112 13.56 14.9056 13.5591 15.0001 13.5591C15.0949 13.5591 15.1896 13.5599 15.2842 13.5617C18.2543 13.4135 20.625 10.955 20.625 7.95413C20.625 4.85816 18.1017 2.33946 15 2.33946Z" fill="#1886C4"/>
</svg>
