<svg width="30" height="28" viewBox="0 0 30 28" fill="none" xmlns="http://www.w3.org/2000/svg">
<path fill-rule="evenodd" clip-rule="evenodd" d="M13.7028 20.7263H10.8195V5.74802C10.8195 4.99536 10.2048 4.38525 9.4465 4.38525C8.68819 4.38525 8.0735 4.99536 8.0735 5.74802V6.41584H7.26398C5.23483 6.41584 3.35698 7.50905 2.36327 9.26885L0.187414 13.1222C0.073524 13.3152 0.00610984 13.5385 0.000411899 13.7769L0 19.847C0 21.3049 0.874943 22.5635 2.13021 23.1308C2.12684 23.2032 2.12513 23.2759 2.12513 23.349C2.12513 25.9136 4.21744 28 6.78906 28C9.32629 28 11.3968 25.9691 11.4518 23.4519H20.6592C20.7143 25.9691 22.7848 28 25.3221 28C27.8655 28 29.9399 25.9592 29.9852 23.4335C29.9852 21.4237 29.1718 20.7263 29.1718 20.7263C28.3308 19.5026 26.9188 18.6981 25.322 18.6981C23.7252 18.6981 22.3131 19.5026 21.4721 20.7263H16.4487H13.7028ZM4.75867 10.6014C5.26723 9.70085 6.22723 9.14136 7.26398 9.14136H8.0735V12.4472H3.7165L4.75867 10.6014ZM2.746 15.1727V19.847C2.746 20.1252 2.87588 20.3736 3.07812 20.5348C3.93089 19.4193 5.27712 18.6981 6.78906 18.6981C7.23439 18.6981 7.66531 18.7607 8.0735 18.8775V15.1727H2.746ZM6.78913 25.2744C5.73158 25.2744 4.87119 24.4107 4.87119 23.349C4.87119 22.2874 5.73158 21.4237 6.78913 21.4237C7.84668 21.4237 8.70707 22.2874 8.70707 23.349C8.70707 24.4107 7.84668 25.2744 6.78913 25.2744ZM27.24 23.349C27.24 22.2874 26.3795 21.4237 25.3221 21.4237C24.2645 21.4237 23.4041 22.2874 23.4041 23.349C23.4041 24.4107 24.2645 25.2744 25.3221 25.2744C26.3796 25.2744 27.24 24.4107 27.24 23.349Z" fill="#1886C4"/>
<path opacity="0.5" fill-rule="evenodd" clip-rule="evenodd" d="M30 2.6103V0H28.8635L28.8163 0.000206527C27.4472 0.0121809 26.1594 0.544495 25.1849 1.50208L19.8291 6.76457L15.4331 8.38797L15.37 8.4114C13.2949 9.19658 11.9225 11.1831 11.9453 13.3782V15.9812L11.9456 16.0044C11.958 16.7143 12.5417 17.286 13.2596 17.286H16.047L16.0635 17.3314C16.6185 18.8269 18.0679 19.8961 19.7639 19.8961C21.9248 19.8961 23.6853 18.1603 23.7056 16.0187C23.7123 15.3134 23.1323 14.6925 22.4224 14.6764C21.6799 14.6596 21.0735 15.2545 21.0779 15.9891L21.0778 16.0148C21.0714 16.5029 20.8051 16.9569 20.3554 17.1565C19.3935 17.5834 18.456 16.8947 18.4499 15.9904L18.4495 15.9671C18.4326 15.2546 17.8746 14.6762 17.1544 14.6762H14.5736V13.3553L14.5734 13.3223C14.5748 12.2353 15.2968 11.217 16.3393 10.8382L21.0101 9.11314L21.0427 9.10063C21.2046 9.03595 21.352 8.93983 21.4764 8.81772L27.0332 3.35769L27.0601 3.33161C27.5473 2.86613 28.1862 2.61035 28.8635 2.61035L30 2.6103ZM28.3048 17.2862L30 17.2862V14.6761L28.3361 14.6762L28.3127 14.6764C27.6104 14.6883 27.0165 15.2342 26.9916 15.9335C26.9649 16.676 27.5631 17.2862 28.3048 17.2862Z" fill="#1886C4"/>
</svg>
