<svg width="41" height="38" viewBox="0 0 41 38" fill="none" xmlns="http://www.w3.org/2000/svg">
<path fill-rule="evenodd" clip-rule="evenodd" d="M23.8451 4.15062C23.6694 4.86805 23.5769 5.61741 23.5769 6.38861C23.5769 6.64954 23.5875 6.90796 23.6083 7.16347C18.8403 6.72634 13.2292 7.31852 10.7399 8.93912C10.0203 9.40791 9.10604 11.2158 8.25173 13.4761L8.10165 13.8795L27.303 13.8815C28.8399 15.0377 30.7448 15.7219 32.8077 15.7219C35.6507 15.7219 38.1935 14.4224 39.8868 12.3787C40.0343 12.4402 40.1659 12.5381 40.2702 12.6639C40.4323 12.8614 40.5113 13.1089 40.4987 13.3577L40.4801 13.5067L39.9025 16.2692C39.8169 16.6888 39.4756 17.0011 39.0591 17.0654L38.8998 17.0775H37.6698C38.8486 18.3742 39.4129 20.0325 39.4068 21.6877C39.3982 23.398 38.7847 25.111 37.5055 26.4165L37.2212 26.6899V30.4805C37.2212 31.2584 36.626 31.9018 35.8636 31.9898L35.6849 32H32.0941C31.3067 32 30.657 31.4122 30.5682 30.6574L30.5578 30.4805V28.9266H10.4419V30.4805C10.4419 31.2584 9.84846 31.9018 9.08471 31.9898L8.90563 32H5.31485C4.5274 32 3.87772 31.4122 3.78892 30.6574L3.77858 30.4805V26.6139L3.73352 26.5784C2.34575 25.3142 1.58683 23.5273 1.594 21.5499C1.60062 20.0725 2.06103 18.596 3.00745 17.3784L3.2542 17.0796H2.10097C1.67036 17.0796 1.29073 16.8138 1.14263 16.424L1.0983 16.2722L0.521684 13.5088C0.458184 13.2099 0.536022 12.8989 0.730617 12.6639C0.891925 12.4672 1.1208 12.3388 1.37161 12.3014L1.52436 12.2901H5.41727L5.73147 11.5032C6.64744 9.28738 7.77936 7.23179 9.05311 6.40156C12.1299 4.39956 18.3855 3.64925 23.8451 4.15062ZM9.16667 18.6667C7.32661 18.6667 5.83333 20.1579 5.83333 21.9994C5.83333 23.8409 7.32661 25.3333 9.16667 25.3333C11.009 25.3333 12.5 23.8409 12.5 21.9994C12.5 20.1579 11.009 18.6667 9.16667 18.6667ZM28.5 21.9994C28.5 20.1579 29.9933 18.6667 31.8333 18.6667C33.6756 18.6667 35.1667 20.1579 35.1667 21.9994C35.1667 23.8409 33.6734 25.3333 31.8333 25.3333C29.9933 25.3333 28.5 23.8409 28.5 21.9994Z" fill="#3E73CF"/>
<path opacity="0.5" d="M38.6945 0.344336C39.1076 -0.114634 39.7775 -0.114923 40.19 0.344336C40.6031 0.803566 40.6031 1.54834 40.19 2.00728L32.7114 10.3222C32.505 10.5519 32.2341 10.6667 31.9634 10.6667C31.6927 10.6667 31.422 10.5516 31.2156 10.3222L27.4763 6.16487C27.0632 5.70561 27.0632 4.96116 27.4763 4.5019C27.8894 4.04264 28.559 4.04264 28.9721 4.5019L31.9637 7.82784L38.6945 0.344336Z" fill="#3E73CF"/>
</svg>
