<svg width="222" height="146" viewBox="0 0 222 146" fill="none" xmlns="http://www.w3.org/2000/svg">
<mask id="mask0_0_10135" style="mask-type:alpha" maskUnits="userSpaceOnUse" x="0" y="-110" width="550" height="367">
<rect y="-110" width="550" height="367" fill="white"/>
</mask>
<g mask="url(#mask0_0_10135)">
<path d="M215.212 135.026C211.642 134.316 208.399 132.465 205.971 129.751L207.534 126.705C209.962 129.419 213.205 131.269 216.775 131.98L215.212 135.026Z" fill="#1886C4"/>
<path d="M189.618 133.189C187.903 135.4 185.517 136.995 182.819 137.732L180.126 133.694C182.824 132.957 185.21 131.362 186.925 129.151L189.618 133.189Z" fill="#1886C4"/>
<path d="M127.934 92.0329C125.31 94.9111 115.279 97.9237 115.279 97.9237L113.32 94.4848C113.32 94.4848 123.351 91.4722 125.975 88.594L127.934 92.0329Z" fill="#1886C4"/>
<path d="M100.561 41.9958C97.1978 42.5426 93.7485 41.9819 90.7314 40.3978L91.6788 34.5605C94.6958 36.1446 98.1451 36.7053 101.508 36.1585L100.561 41.9958Z" fill="#1886C4"/>
<path d="M172.293 67.7766C166.013 66.5508 159.151 61.0435 159.151 61.0435L160.625 58.1973C160.625 58.1973 167.487 63.7045 173.767 64.9304L172.293 67.7766Z" fill="#1886C4"/>
<path d="M224.726 62.5479C222.624 62.5833 220.567 61.9344 218.864 60.699L219.96 57.2178C221.663 58.4532 223.72 59.102 225.822 59.0666L224.726 62.5479Z" fill="#1886C4"/>
<path d="M206.753 104.25C205.159 107.442 202.573 110.031 199.383 111.625L195.011 107.249C198.201 105.654 200.787 103.066 202.381 99.8733L206.753 104.25Z" fill="#1886C4"/>
<path d="M181.897 97.9236C179.049 96.4957 176.74 94.1808 175.319 91.3269L179.23 87.4207C180.651 90.2746 182.959 92.5896 185.808 94.0174L181.897 97.9236Z" fill="#1886C4"/>
<path d="M228.235 93.9006C224.651 93.7595 221.211 92.4578 218.431 90.1914L220.629 84.3691C223.41 86.6356 226.85 87.9373 230.433 88.0784L228.235 93.9006Z" fill="#1886C4"/>
<path d="M165.519 106.436C163.999 109.695 161.462 112.372 158.291 114.065L153.769 109.772C156.94 108.08 159.476 105.403 160.997 102.143L165.519 106.436Z" fill="#1886C4"/>
<path d="M133.888 149.522C130.533 149.054 127.42 147.509 125.018 145.118L127.628 139.85C130.03 142.241 133.143 143.786 136.499 144.254L133.888 149.522Z" fill="#1886C4"/>
<path d="M146.252 26.0994C144.477 23.5872 143.566 20.5664 143.654 17.4912L148.757 15.9487C148.669 19.0239 149.58 22.0448 151.354 24.5569L146.252 26.0994Z" fill="#1886C4"/>
<path d="M49.8779 2.95517C51.2294 2.27859 52.7637 2.05949 54.2503 2.33082L54.6204 4.92742C53.1339 4.65609 51.5995 4.87519 50.248 5.55176L49.8779 2.95517Z" fill="#1886C4"/>
<path d="M62.6934 31.2793C68.3811 28.4559 70.2658 30.877 70.2658 30.877L70.5372 33.1799C70.5372 33.1799 68.6525 30.7589 62.9647 33.5823L62.6934 31.2793Z" fill="#1886C4"/>
<path d="M56.9717 53.9124C58.9836 55.8037 60.3276 58.2977 60.8015 61.0193L56.5886 63.2938C56.1147 60.5721 54.7707 58.0781 52.7588 56.1868L56.9717 53.9124Z" fill="#1886C4"/>
<path d="M40.7516 87.5178C46.195 89.2947 52.2493 95.7386 52.2493 95.7386L50.2652 96.8869C50.2652 96.8869 44.211 90.4433 38.7676 88.6661L40.7516 87.5178Z" fill="#1886C4"/>
<path d="M187.581 81.9425C185.537 79.0226 184.496 75.5176 184.615 71.9547L190.535 70.1931C190.417 73.756 191.458 77.261 193.501 80.1809L187.581 81.9425Z" fill="#1886C4"/>
<path d="M200.533 14.6698C199.275 16.2176 197.55 17.3148 195.616 17.7966L193.763 14.8766C195.697 14.395 197.422 13.2979 198.68 11.7502L200.533 14.6698Z" fill="#1886C4"/>
<path d="M176.887 16.1617C175.379 17.7372 173.401 18.7801 171.25 19.1336L169.488 15.7866C171.639 15.4331 173.617 14.3902 175.125 12.8147L176.887 16.1617Z" fill="#1886C4"/>
<path d="M210.684 20.644L212.32 17.1699L217.476 19.6026L215.839 23.0768L210.684 20.644Z" fill="#1886C4"/>
<path d="M216.034 22.6645C214.097 22.4338 212.288 21.5801 210.878 20.2317L212.32 17.1699C213.73 18.5182 215.539 19.3719 217.475 19.6026L216.034 22.6645Z" fill="#1886C4"/>
<path d="M65.859 126.983C63.9661 126.064 62.4223 124.555 61.46 122.682L64.0092 120.07C64.9715 121.942 66.5153 123.451 68.4082 124.37L65.859 126.983Z" fill="#1886C4"/>
<path d="M105.367 69.7681C102.631 71.0278 99.56 71.3642 96.6162 70.7268L96.0479 65.5297C98.9917 66.1672 102.063 65.8308 104.799 64.571L105.367 69.7681Z" fill="#1886C4"/>
<path d="M102.176 12.9509C100.532 16.3001 97.8462 19.0246 94.5221 20.7145L89.9199 16.1689C93.244 14.479 95.93 11.7545 97.5741 8.40527L102.176 12.9509Z" fill="#1886C4"/>
<path d="M109.414 119.911C107.868 119.138 106.261 118.48 104.647 117.865C103.033 117.251 101.396 116.672 99.728 116.221C99.9367 116.278 97.4578 115.643 97.5376 115.942C98.8489 120.844 95.5331 125.92 92.2493 129.265C90.383 131.144 88.106 132.563 85.5979 133.41C84.5136 133.751 83.3914 133.957 82.2567 134.024C81.727 134.058 81.1957 134.063 80.6654 134.039C80.4739 134.031 80.2836 134.01 80.0934 133.991C79.8488 133.911 79.6046 133.829 79.3594 133.751C78.2998 133.337 77.1882 133.072 76.0561 132.962C75.1089 132.948 76.6139 133.793 76.5457 133.753C77.8271 134.465 79.1545 135.092 80.519 135.628C87.6628 138.646 95.1929 141.278 102.403 137.226C107.449 134.39 112.869 127.265 111.236 121.16C111.086 120.601 109.784 120.096 109.414 119.911Z" fill="#1886C4"/>
<path d="M183.929 -9.59149C183.539 -9.92597 181.195 -11.4174 181.136 -11.939C181.63 -7.56029 178.096 -4.76045 174.798 -2.59081C172.082 -0.803525 168.824 0.243012 165.74 -0.643146L169.621 3.4332C173.243 5.40413 177.033 4.18085 180.337 2.15941C183.679 0.11537 187.158 -2.90262 186.675 -7.18874C186.607 -7.79282 184.358 -9.22361 183.929 -9.59149Z" fill="#1886C4"/>
<path d="M137.298 127.108C137.798 127.312 138.219 127.673 138.497 128.136L137.888 128.849C137.61 128.385 137.189 128.024 136.688 127.821L137.298 127.108Z" fill="#1886C4"/>
<path d="M138.935 116.125C139.384 116.019 139.855 116.062 140.277 116.248L140.204 117.045C139.782 116.859 139.311 116.816 138.862 116.922L138.935 116.125Z" fill="#1886C4"/>
<path d="M149.456 112.506C149.855 111.869 150.45 111.378 151.152 111.108L151.98 112.115C151.279 112.385 150.684 112.876 150.285 113.513L149.456 112.506Z" fill="#1886C4"/>
<path d="M157.274 114.017C158.109 113.787 158.996 113.835 159.802 114.153L159.722 115.655C158.916 115.336 158.029 115.289 157.193 115.519L157.274 114.017Z" fill="#1886C4"/>
<path d="M161.714 112.148C161.843 111.494 162.181 110.9 162.677 110.456L163.68 111.027C163.184 111.472 162.846 112.066 162.717 112.72L161.714 112.148Z" fill="#1886C4"/>
<path d="M175.926 108.605C176.466 108.543 177.01 108.658 177.478 108.933L177.284 109.855C176.815 109.58 176.271 109.465 175.731 109.526L175.926 108.605Z" fill="#1886C4"/>
<path d="M190.379 122.047C191.036 121.572 191.83 121.323 192.641 121.338L193.061 122.681C192.25 122.666 191.457 122.915 190.799 123.39L190.379 122.047Z" fill="#1886C4"/>
<path d="M199.914 131.185C200.478 130.749 201.168 130.508 201.881 130.498L202.288 131.666C201.575 131.676 200.885 131.917 200.321 132.353L199.914 131.185Z" fill="#1886C4"/>
<path d="M191.615 6.87767C191.967 6.41499 192.458 6.07898 193.017 5.92017L193.585 6.7526C193.026 6.91141 192.534 7.24742 192.183 7.7101L191.615 6.87767Z" fill="#1886C4"/>
<path d="M193.219 20.3106C193.359 19.817 193.655 19.3822 194.063 19.0715L194.797 19.5728C194.389 19.8834 194.093 20.3182 193.953 20.8118L193.219 20.3106Z" fill="#1886C4"/>
<path d="M222.493 44.519C223.239 44.9223 223.834 45.557 224.188 46.3277L223.116 47.3344C222.762 46.5636 222.167 45.9289 221.421 45.5257L222.493 44.519Z" fill="#1886C4"/>
<path d="M210.783 54.9058C211.392 54.861 211.999 55.0152 212.512 55.3452L212.252 56.3723C211.738 56.0423 211.131 55.888 210.522 55.9329L210.783 54.9058Z" fill="#1886C4"/>
<path d="M197.566 46.5315C197.687 45.6179 198.101 44.7683 198.746 44.1104L200.181 44.8107C199.536 45.4687 199.122 46.3183 199.002 47.2319L197.566 46.5315Z" fill="#1886C4"/>
<path d="M179.168 48.7102C179.532 48.1699 180.061 47.7624 180.676 47.5491L181.365 48.4449C180.75 48.6582 180.22 49.0657 179.856 49.606L179.168 48.7102Z" fill="#1886C4"/>
<path d="M173.768 34.4798C174.527 33.9435 175.439 33.6683 176.368 33.6957L176.833 35.2399C175.904 35.2125 174.991 35.4876 174.232 36.0239L173.768 34.4798Z" fill="#1886C4"/>
<path d="M163.57 31.2117C164.213 31.1387 164.861 31.2763 165.419 31.6039L165.186 32.7016C164.629 32.374 163.98 32.2364 163.338 32.3094L163.57 31.2117Z" fill="#1886C4"/>
<path d="M77.748 50.8033C77.8463 50.2292 78.1282 49.7025 78.5513 49.3025L79.4409 49.7796C79.0178 50.1796 78.736 50.7062 78.6377 51.2803L77.748 50.8033Z" fill="#1886C4"/>
<path d="M80.8711 39.1541C81.5507 39.2421 82.1833 39.5486 82.6738 40.0275L82.1563 41.0981C81.6657 40.6192 81.0331 40.3127 80.3535 40.2247L80.8711 39.1541Z" fill="#1886C4"/>
<path d="M95.4121 55.7803C95.8235 55.2531 96.3948 54.8739 97.0401 54.6997L97.6807 55.6664C97.0354 55.8406 96.4641 56.2198 96.0527 56.747L95.4121 55.7803Z" fill="#1886C4"/>
<path d="M110.893 42.2072C110.82 41.4518 110.994 40.6931 111.389 40.0452L112.671 40.3396C112.276 40.9875 112.102 41.7462 112.175 42.5016L110.893 42.2072Z" fill="#1886C4"/>
<path d="M114.944 52.3791C115.336 51.913 115.868 51.5867 116.461 51.4492L117.012 52.3496C116.419 52.4871 115.887 52.8134 115.496 53.2795L114.944 52.3791Z" fill="#1886C4"/>
<path d="M120.617 39.5523C120.497 38.9482 120.576 38.3215 120.843 37.7664L121.902 37.9007C121.635 38.4557 121.556 39.0825 121.676 39.6866L120.617 39.5523Z" fill="#1886C4"/>
<path d="M180.49 81.6658C181.11 81.8831 181.642 82.2959 182.007 82.8421L181.31 83.7429C180.945 83.1968 180.413 82.784 179.793 82.5666L180.49 81.6658Z" fill="#1886C4"/>
<path d="M157.465 92.3302C158.153 92.2191 158.858 92.3345 159.474 92.6589L159.279 93.8517C158.663 93.5273 157.958 93.412 157.271 93.523L157.465 92.3302Z" fill="#1886C4"/>
<path d="M154.755 105.237C155.3 105.657 155.695 106.243 155.88 106.907L154.89 107.575C154.705 106.911 154.31 106.325 153.765 105.905L154.755 105.237Z" fill="#1886C4"/>
<path d="M206.708 50.6886C207.369 50.4566 208.088 50.4458 208.756 50.6577L208.774 51.8738C208.106 51.6618 207.388 51.6727 206.726 51.9047L206.708 50.6886Z" fill="#1886C4"/>
<path d="M213.874 41.791C214.458 42.0116 214.955 42.416 215.29 42.9434L214.607 43.7838C214.272 43.2563 213.775 42.852 213.191 42.6314L213.874 41.791Z" fill="#1886C4"/>
<path d="M221.381 29.114C221.57 28.5275 221.944 28.0183 222.448 27.6631L223.308 28.2965C222.805 28.6518 222.43 29.161 222.241 29.7475L221.381 29.114Z" fill="#1886C4"/>
<path d="M22.6295 48.5255C25.3232 47.1766 24.9516 43.7483 24.7472 41.2241C24.5163 38.372 24.5749 35.8384 26.8812 34.2976C26.0255 34.6754 25.2926 34.884 24.1994 35.3668C21.4957 36.5605 20.899 39.1689 21.0241 41.89C21.1431 44.4781 21.997 48.5175 19.0918 49.9724C19.9242 49.5555 21.5626 49.0597 22.6293 48.5255H22.6295Z" fill="#1886C4"/>
<path d="M0 44.0739C3.76671 46.4359 7.77176 48.3939 11.9487 49.9153C13.5865 50.5092 15.6039 51.223 17.3443 50.6399C18.9759 50.1991 20.5496 49.5665 22.0326 48.7553C20.9477 49.4462 19.418 49.4526 18.3227 50.1499C18.1108 50.3031 17.8818 50.431 17.6403 50.531L21.0934 49.2219L20.7291 49.3513L20.9857 49.2655C18.1917 49.9398 15.1108 48.3773 12.5907 47.3241C9.50968 46.0191 6.53964 44.4657 3.70993 42.6793C3.49829 42.5472 2.06426 43.2769 1.848 43.3582C1.65411 43.4311 0.172113 44.1818 0 44.0742L0 44.0739Z" fill="#1886C4"/>
<path d="M39.7117 40.8989C41.2571 40.7778 42.5404 39.657 42.8699 38.141C43.3832 36.2938 43.8745 34.7663 45.8677 34.0999C44.6453 34.5086 43.1691 34.183 41.9357 34.5955C40.4672 35.0938 39.3856 36.3521 39.1124 37.8799C38.7091 39.5061 38.1836 40.8107 36.4294 41.2965L36.6965 41.2525L36.314 41.3069C35.5889 41.4096 36.9186 41.2574 37.0227 41.2448C37.9199 41.1371 38.817 41.0259 39.7117 40.8987V40.8989Z" fill="#1886C4"/>
<path d="M25.3596 34.9421C26.3509 34.6635 27.4125 34.7952 28.3058 35.3075L28.3053 35.3086C30.6543 36.5619 32.4866 39.7695 34.5368 41.0026C35.914 41.8309 37.3774 41.6323 38.8287 41.1993C39.2836 41.1335 39.7275 41.0067 40.1487 40.8224C40.3598 40.7622 40.5706 40.6998 40.7811 40.6352C39.5488 40.4859 38.386 39.9832 37.4325 39.1877L37.4345 39.1858C35.8695 37.9844 34.5847 36.1489 33.1174 34.8934C32.0224 33.8699 30.4891 33.4615 29.0307 33.8048C29.0463 33.7975 29.0594 33.7901 29.0754 33.7828L28.9374 33.8258C28.896 33.8367 28.8555 33.8414 28.814 33.8535C27.5675 34.1096 26.3509 34.4944 25.1836 35.0016C25.2422 34.9818 25.3005 34.961 25.3596 34.9421Z" fill="#1886C4"/>
<path d="M198.734 43.7131C198.258 44.3967 198.053 45.2327 198.158 46.059C198.18 47.1813 198.239 48.3034 198.289 49.4251C198.339 50.5469 198.381 51.6674 198.38 52.7888C198.38 52.8434 198.379 52.8979 198.378 52.9525C198.156 52.5543 197.96 52.1402 197.764 51.7304C197.022 50.172 196.197 48.6544 195.293 47.1842C195.073 46.8284 194.849 46.4761 194.619 46.1272C194.458 45.807 194.228 45.5265 193.945 45.3058C193.812 45.2399 193.659 45.2237 193.514 45.26C192.989 45.365 192.474 45.5173 191.977 45.7151C191.623 45.8176 191.287 45.9752 190.982 46.1822C190.861 46.309 190.78 46.4689 190.75 46.6416C190.383 48.171 190.18 49.7353 190.144 51.3079C190.09 52.2869 190.05 53.267 189.971 54.2439C189.95 54.5027 189.925 54.7611 189.897 55.0191C189.466 54.4511 189.093 53.8419 188.782 53.2004C188.439 52.4886 187.999 51.8278 187.475 51.2366C187.261 50.9966 186.959 50.8528 186.638 50.8374C186.271 50.869 185.911 50.9547 185.569 51.0918C185.236 51.1989 184.904 51.3106 184.579 51.441C184.355 51.5147 184.141 51.6178 183.945 51.7478C183.729 51.9525 183.616 52.2436 183.638 52.5405C183.607 52.9809 183.6 53.4233 183.608 53.8654C183.626 54.4101 183.674 54.9534 183.751 55.4928C183.389 55.1747 183.041 54.836 182.665 54.5394C182.049 53.998 181.254 53.7061 180.434 53.7208C179.878 53.7999 179.334 53.9528 178.818 54.1752C178.562 54.2638 178.311 54.369 178.069 54.4901C178.052 54.4993 177.794 54.6422 177.966 54.6285C179.024 54.5439 179.905 55.2303 180.669 55.9101C181.08 56.3022 181.519 56.6645 181.981 56.9943C182.402 57.2844 182.924 57.3888 183.425 57.2832C183.518 57.2802 183.61 57.2597 183.695 57.2226C184.365 57.0613 185.018 56.8343 185.644 56.5447C185.907 56.4507 186.137 56.2825 186.306 56.0603C186.592 55.5971 186.348 54.924 186.287 54.4161C186.278 54.3396 186.269 54.2629 186.261 54.1862C186.454 54.5493 186.647 54.9124 186.865 55.2609C187.221 55.8681 187.709 56.3878 188.292 56.782C188.552 56.9653 188.858 57.072 189.176 57.0899C189.546 57.0547 189.909 56.9691 190.256 56.8354C190.827 56.697 191.374 56.4768 191.882 56.1817C192.119 55.9929 192.27 55.7168 192.302 55.4155C192.382 55.0219 192.425 54.6161 192.47 54.2163C192.56 53.4324 192.608 52.6432 192.651 51.8545C192.715 50.6826 192.761 49.5079 192.885 48.3424C193.226 48.9026 193.555 49.4701 193.872 50.0448C194.294 50.8075 194.693 51.5825 195.07 52.3698C195.371 53.0356 195.71 53.6832 196.087 54.3093C196.445 54.9216 196.948 55.4364 197.552 55.8083C197.702 55.882 197.872 55.9015 198.034 55.8636C198.561 55.7584 199.076 55.6058 199.575 55.4076C200.068 55.2264 200.626 55.0835 200.813 54.535C200.899 54.1765 200.937 53.8081 200.925 53.4395C200.947 52.9991 200.956 52.5587 200.96 52.1174C200.968 51.2686 200.945 50.4191 200.914 49.5705C200.868 48.3462 200.8 47.1226 200.76 45.8982C200.728 44.9388 200.586 43.7085 201.245 42.9336C201.339 42.8235 201.125 42.8782 201.084 42.8852C200.816 42.9366 200.552 43.0056 200.294 43.0915C199.96 43.1954 199.628 43.3105 199.303 43.4408C199.098 43.4948 198.905 43.5872 198.734 43.7131Z" fill="#1886C4"/>
<path d="M177.279 57.7873L177.282 57.7855C177.284 57.7848 177.283 57.7848 177.279 57.7873Z" fill="#1886C4"/>
<path d="M185.643 56.5444L185.731 56.5021C184.962 56.446 184.248 56.0821 183.75 55.4925C183.388 55.1744 183.04 54.8357 182.664 54.5391C182.048 53.9977 181.253 53.7058 180.433 53.7205C179.877 53.7997 179.333 53.9525 178.817 54.1749C178.561 54.2635 178.31 54.3687 178.068 54.4898C178.051 54.499 177.793 54.6419 177.965 54.6282C179.023 54.5436 179.904 55.23 180.669 55.9098C181.079 56.3019 181.518 56.6642 181.98 56.994C182.401 57.2841 182.923 57.3886 183.424 57.2829C183.517 57.2799 183.609 57.2594 183.694 57.2223C184.365 57.061 185.017 56.834 185.643 56.5444Z" fill="#1886C4"/>
<path d="M189.97 54.2437C189.949 54.5025 189.924 54.7609 189.896 55.0188C189.466 54.4508 189.092 53.8416 188.781 53.2001C188.438 52.4884 187.999 51.8275 187.475 51.2364C187.261 50.9963 186.959 50.8525 186.638 50.8372C186.271 50.8687 185.911 50.9544 185.569 51.0915C185.235 51.1987 184.904 51.3103 184.578 51.4407C184.408 51.5019 184.242 51.5743 184.082 51.6573C185.048 51.8824 186.131 53.9415 186.131 53.9415L186.272 54.2858C186.268 54.2525 186.265 54.2197 186.261 54.1861C186.454 54.5492 186.647 54.9123 186.865 55.2608C187.221 55.868 187.708 56.3877 188.291 56.7819C188.551 56.9652 188.858 57.0719 189.175 57.0898C189.175 57.0898 189.804 57.0515 189.97 54.2437Z" fill="#1886C4"/>
<path d="M198.36 52.9194C198.146 52.5314 197.955 52.129 197.764 51.7303C197.022 50.1719 196.197 48.6543 195.293 47.184C195.073 46.8283 194.848 46.476 194.618 46.1271C194.457 45.8069 194.228 45.5264 193.945 45.3057C193.811 45.2398 193.659 45.2236 193.514 45.2599C192.989 45.3649 192.474 45.5172 191.977 45.715C191.623 45.8175 191.287 45.9751 190.982 46.1821L190.971 46.1924L191.186 46.1522C191.186 46.1522 191.949 46.2685 192.885 48.3425C193.226 48.9027 193.555 49.4702 193.872 50.045C194.294 50.8076 194.693 51.5826 195.07 52.3699C195.371 53.0357 195.71 53.6833 196.087 54.3094C196.445 54.9217 196.948 55.4365 197.552 55.8084C197.632 55.8514 197.72 55.8755 197.811 55.8789C197.898 55.8684 198.274 55.6628 198.36 52.9194Z" fill="#1886C4"/>
</g>
</svg>
